<svg xmlns="http://www.w3.org/2000/svg" viewBox="0 0 9.5 9.82"><defs><style>.cls-1{fill:#623c25;fill-rule:evenodd;}</style></defs><title>1_d</title><g id="Layer_2" data-name="Layer 2"><g id="Layer_1-2" data-name="Layer 1"><path class="cls-1" d="M0,1V1l.08,4.1,0,.08.76.28c-.06.74-.73,0-.73,1V7C.07,8.4-.1,9.67,1.52,9.67H3.7c1.58,0,1.78-2.59,1.14-3.5-.36-.5-.7-1.07-1.1-1.53C3.6,4.48,2.53,3.32,2.46,3.3V3.08c0-.66,1.76.84,1.93,1l1,.73c.46.53.51.35,1,.75l2.17,0c1-.66.87-.87.93-2.35,0-.16,0-1.23-.06-1.53C9.38,1,9.09.83,9,.41L8.41.09,6.45,0H5.36c-.55,0,.2.86-.65.88C4.57.26,4.73,0,3.92,0c-.59,0-1,.08-1.6.08A8,8,0,0,0,.83.1,1.15,1.15,0,0,0,0,1"/><path class="cls-1" d="M9.5,8.64c0-.29-1.73-1.32-2.06-1.58-.17-.13-2-1.82-2-1.13V6a38,38,0,0,0,2.9,3.81c.43,0,1.16-.84,1.16-1Z"/></g></g></svg>