<svg xmlns="http://www.w3.org/2000/svg" viewBox="0 0 9.57 9.74"><defs><style>.cls-1{fill:#623c25;fill-rule:evenodd;}</style></defs><title>1_l</title><g id="Layer_2" data-name="Layer 2"><g id="Layer_1-2" data-name="Layer 1"><path class="cls-1" d="M4,4c.52,0-.27-.87-.38-1-.38-.45-.45-.62-.77-1S1.47,0,1.09,0H.94A3.27,3.27,0,0,0,0,1c0,.68,1.45,1.26,1.9,1.6S3.57,4,4,4"/><path class="cls-1" d="M6.81,6.81c-.41,0-2.71-2.09-3.62-2.49a5.4,5.4,0,0,0-2.4.06C0,4.64,0,5.61,0,6.44V7.91C0,9,.37,9.16,1,9.59l2.9.14c.25,0,.15,0,.44-.06.08-.33,0-.81.29-.81,0,0,.16.11.22.15,0,1,1.12.58,2.1.66.65.05,1.79.11,2.23-.31S9.59,8,9.49,7c-.07-.67.08-1.63.08-2.49-.5-.34-.79,0-.8-.59h.51c.27,0,.29-.44.29-.73C9.57-.07,9.47.15,6.74.15,6.06.15,5,.1,4.67.76a4.64,4.64,0,0,0-.11,2.55A8.22,8.22,0,0,0,5.79,5.07a6.54,6.54,0,0,0,.68.77c.25.33.35.58.56.9-.19.09.06.07-.22.07"/></g></g></svg>