<svg xmlns="http://www.w3.org/2000/svg" viewBox="0 0 20.84 20.17"><defs><style>.cls-1{fill:#623c25;fill-rule:evenodd;}</style></defs><title>1_l_u</title><g id="Layer_2" data-name="Layer 2"><g id="Layer_1-2" data-name="Layer 1"><path class="cls-1" d="M16.42.44a.43.43,0,0,0,.09.31l-.41.43L15.91.37a.69.69,0,0,0-.43-.15h-.73l-3,.14c-.12.44-.42.12-.5,1,0,.25.07,1,.07,1.46a8.11,8.11,0,0,0,.14,2.84l.64.09.08.29L12,6.13l-.44,0a5.68,5.68,0,0,0-.15,2.42c0,1,.52,1.39,1.53,1.36l1.74,0c.81,0,1.6-.36,1.68-1.09a4.29,4.29,0,0,0-.1-2.27c-.38-.59-.74-1.1-1.14-1.63-.28-.36-1.24-1.09-1.24-1.61,0-.75,2.85,1.83,3.15,2,1,.71,3.74.78,3.74-.93V1.83A2.29,2.29,0,0,0,20.35.71c-.29-.38-.56-.36-1.13-.46a9.11,9.11,0,0,0-1.57,0c-.48,0-1.23-.21-1.23.22"/><path class="cls-1" d="M18.79,7.27c-.16-.16-.85-.68-1.06-.83s-.71-.8-1-.22c.25.39.58.63.8,1s.46.67.69,1S19.38,10,19.75,10h.15a2.6,2.6,0,0,0,.94-1c0-.63-1.62-1.25-2.05-1.66"/><path class="cls-1" d="M5.58,4c-.52,0,.27-.87.38-1,.38-.45.45-.62.77-1.06S8.1,0,8.48,0h.15a3.27,3.27,0,0,1,.94,1c0,.68-1.45,1.26-1.9,1.6S6,4,5.58,4"/><path class="cls-1" d="M2.76,6.81c.41,0,2.71-2.09,3.62-2.49a5.4,5.4,0,0,1,2.4.06c.78.26.79,1.23.79,2.06V7.91c0,1.12-.37,1.25-1,1.68l-2.9.14c-.24,0-.14,0-.43-.06-.08-.33,0-.81-.29-.81,0,0-.16.11-.22.15,0,1-1.12.58-2.1.66C2,9.72.82,9.78.38,9.36S0,8,.08,7C.15,6.36,0,5.4,0,4.54.5,4.2.79,4.53.8,4H.29C0,4,0,3.51,0,3.22,0-.07.1.15,2.83.15c.68,0,1.74,0,2.07.61A4.64,4.64,0,0,1,5,3.31,8.22,8.22,0,0,1,3.78,5.07a6.54,6.54,0,0,1-.68.77c-.25.33-.35.58-.56.9.19.09-.06.07.22.07"/><path class="cls-1" d="M4,14.47c.52,0-.27-.87-.38-1-.38-.45-.45-.63-.77-1.06s-1.37-2-1.75-2H.94a3.15,3.15,0,0,0-.94,1c0,.68,1.45,1.25,1.9,1.59S3.57,14.47,4,14.47"/><path class="cls-1" d="M6.81,17.25c-.41,0-2.71-2.09-3.62-2.49a5.4,5.4,0,0,0-2.4.06C0,15.08,0,16.05,0,16.88v1.47C0,19.47.37,19.59,1,20l2.9.14c.24,0,.14,0,.43-.07.08-.32,0-.8.29-.8a.78.78,0,0,1,.22.15c0,1,1.12.58,2.1.65.65.06,1.79.12,2.23-.3s.4-1.34.3-2.33c-.07-.67.08-1.63.08-2.49-.5-.34-.79,0-.8-.59h.51c.27,0,.29-.44.29-.73,0-3.29-.1-3.08-2.83-3.08-.68,0-1.74,0-2.07.62a4.6,4.6,0,0,0-.11,2.54,8.05,8.05,0,0,0,1.23,1.77,6.54,6.54,0,0,0,.68.77c.25.33.35.57.56.9-.19.09.06.07-.22.07"/></g></g></svg>