<svg xmlns="http://www.w3.org/2000/svg" viewBox="0 0 20.91 19.85"><defs><style>.cls-1{fill:#623c25;fill-rule:evenodd;}</style></defs><title>Asset 6</title><g id="Layer_2" data-name="Layer 2"><g id="Layer_1-2" data-name="Layer 1"><path class="cls-1" d="M4.06,4c.52,0-.26-.87-.38-1-.38-.45-.44-.62-.77-1S1.54,0,1.16,0H1C.85,0,.07.85.07,1c0,.68,1.45,1.26,1.9,1.6S3.64,4,4.06,4"/><path class="cls-1" d="M1.23,19.84h.44a13.41,13.41,0,0,0,3.7-.22v-.44s.17-.15.21-.15c.31,0,.22.29.23.57l.14.17a16.05,16.05,0,0,0,2.59,0c1-.16,1-.74,1-1.89,0-1,.19-2-.27-2.51C9,15,9,14.82,8.41,14.78s-.88-.14-1.3-.14c-1.51,0-3.24,2.56-4,2.56-.28,0,0,0-.22-.07.27-1,2.48-2.83,2.61-3.89.39-3.24-.73-2.92-3.33-2.92-1.74,0-2.11.38-2.11,2.12,0,.41-.06.94-.07,1.61,0,1.27.8.06.87,1-.28.06-.87.19-.87.51v.88l0,.44L0,18.3v.22c0,.85.39,1.32,1.23,1.32"/><path class="cls-1" d="M6.89,6.81c-.42,0-2.72-2.09-3.63-2.49a5.4,5.4,0,0,0-2.4.06C.09,4.64.07,5.61.07,6.44V7.91c0,1.12.37,1.25,1,1.68L4,9.73c.24,0,.14,0,.43-.06.08-.33,0-.81.29-.81,0,0,.16.11.22.15,0,1,1.12.58,2.1.66.66.05,1.8.11,2.23-.31S9.66,8,9.56,7c-.07-.67.08-1.63.08-2.49-.5-.34-.78,0-.8-.59h.51c.28,0,.29-.44.29-.73C9.64-.07,9.54.15,6.81.15c-.68,0-1.74,0-2.07.61a4.64,4.64,0,0,0-.11,2.55A8.22,8.22,0,0,0,5.86,5.07a6.54,6.54,0,0,0,.68.77c.26.33.35.58.57.9-.2.09,0,.07-.22.07"/><path class="cls-1" d="M5.73,14.43c0,.12,0,.22.14.22s3.92-2.74,3.92-3.08-.89-1.1-1.09-1.1H8.63c-.38,0-.49.63-.82.94a6.79,6.79,0,0,0-.69,1c-.17.27-1.39,1.88-1.39,2Z"/><path class="cls-1" d="M16.49,10.28c0,.19,0,.17.1.31l-.42.43L16,10.2a.82.82,0,0,0-.44-.14h-.72l-3,.13c-.11.45-.41.13-.5,1,0,.25.07,1,.07,1.46a7.86,7.86,0,0,0,.15,2.84l.64.09.07.29-.21.12-.43,0a5.51,5.51,0,0,0-.15,2.42c0,1,.52,1.39,1.52,1.36l1.74,0c.82,0,1.6-.35,1.69-1.08a4.4,4.4,0,0,0-.11-2.27,19.65,19.65,0,0,0-1.14-1.63c-.27-.36-1.23-1.09-1.23-1.61,0-.75,2.84,1.82,3.14,2,1,.71,3.74.78,3.74-.93V11.67a2.19,2.19,0,0,0-.42-1.12c-.29-.38-.55-.36-1.13-.46a9.11,9.11,0,0,0-1.57,0c-.48,0-1.23-.21-1.23.22"/><path class="cls-1" d="M18.87,17.11a12.68,12.68,0,0,0-1.07-.83c-.33-.25-.71-.8-1-.22.26.39.58.63.8,1s.46.68.7,1,1.17,1.8,1.55,1.8H20a2.6,2.6,0,0,0,.94-1c0-.63-1.62-1.25-2-1.66"/></g></g></svg>