<svg xmlns="http://www.w3.org/2000/svg" viewBox="0 0 9.79 9.61"><defs><style>.cls-1{fill:#623c25;fill-rule:evenodd;}</style></defs><title>1_r</title><g id="Layer_2" data-name="Layer 2"><g id="Layer_1-2" data-name="Layer 1"><path class="cls-1" d="M1.23,9.59h.44c1.11,0,3.1.1,3.7-.22V8.93s.17-.14.21-.14c.31,0,.22.28.23.57L6,9.52a16,16,0,0,0,2.59,0c1-.17,1-.74,1-1.89s.19-2-.27-2.51C9,4.79,9,4.57,8.41,4.54s-.88-.15-1.3-.15C5.6,4.39,3.87,7,3.12,7c-.28,0,0,0-.22-.08.27-1,2.48-2.83,2.61-3.88C5.9-.24,4.78.07,2.18.07.44.07.07.45.07,2.2c0,.41-.06.93-.07,1.61,0,1.26.8,0,.87.95C.59,4.83,0,5,0,5.27v.88l0,.44L0,8.05v.22c0,.85.39,1.32,1.23,1.32"/><path class="cls-1" d="M5.73,4c0,.12,0,.22.14.22S9.79,1.44,9.79,1.1,8.9,0,8.7,0H8.63c-.38,0-.49.63-.82.93a7.52,7.52,0,0,0-.69,1c-.17.26-1.39,1.87-1.39,2Z"/></g></g></svg>