<svg xmlns="http://www.w3.org/2000/svg" viewBox="0 0 19.78 19.8"><defs><style>.cls-1{fill:#623c25;fill-rule:evenodd;}</style></defs><title>1_r_d</title><g id="Layer_2" data-name="Layer 2"><g id="Layer_1-2" data-name="Layer 1"><path class="cls-1" d="M14.06,4c.52,0-.27-.87-.39-1-.37-.45-.44-.62-.76-1s-1.37-2-1.75-2H11a3.27,3.27,0,0,0-.94,1c0,.68,1.45,1.26,1.9,1.6S13.64,4,14.06,4"/><path class="cls-1" d="M11.23,19.7h.43c1.12,0,3.11.1,3.7-.22V19c.06,0,.18-.14.22-.14.3,0,.22.28.23.57l.13.16a16.15,16.15,0,0,0,2.6,0c.95-.17,1-.74,1-1.89s.19-2-.27-2.51c-.27-.32-.33-.54-.88-.57s-.88-.15-1.31-.15c-1.5,0-3.23,2.57-4,2.57-.27,0,0,0-.21-.08.27-1,2.47-2.83,2.6-3.88.4-3.24-.72-2.93-3.33-2.93-1.74,0-2.1.38-2.1,2.13,0,.41-.07.93-.07,1.61,0,1.26.79.05.87.95-.28.06-.87.19-.87.51v.88l0,.44,0,1.46v.22c0,.85.38,1.32,1.23,1.32"/><path class="cls-1" d="M16.88,6.81c-.41,0-2.72-2.09-3.62-2.49a5.45,5.45,0,0,0-2.41.06c-.77.26-.78,1.23-.78,2.06V7.91c0,1.12.37,1.25,1,1.68l2.9.14c.25,0,.15,0,.44-.06.07-.33,0-.81.29-.81,0,0,.16.11.22.15,0,1,1.12.58,2.1.66.65.05,1.79.11,2.23-.31s.4-1.34.3-2.33c-.07-.67.08-1.63.08-2.49-.5-.34-.79,0-.8-.59h.51c.27,0,.29-.44.29-.73,0-3.29-.1-3.07-2.83-3.07-.68,0-1.74,0-2.07.61a4.64,4.64,0,0,0-.12,2.55,9,9,0,0,0,1.23,1.76,9,9,0,0,0,.68.77,10.26,10.26,0,0,1,.57.9c-.19.09.06.07-.22.07"/><path class="cls-1" d="M15.72,14.43c0,.12,0,.22.15.22s3.91-2.74,3.91-3.08-.89-1.1-1.09-1.1h-.07c-.38,0-.48.63-.81.94a6.13,6.13,0,0,0-.7,1c-.17.27-1.39,1.88-1.39,2Z"/><path class="cls-1" d="M0,11.16v.44a13.61,13.61,0,0,0,.22,3.73H.67c0,.06.14.18.14.22,0,.31-.28.22-.56.23l-.16.14a16.39,16.39,0,0,0,0,2.62c.16,1,.73,1,1.87,1,1,0,2,.19,2.48-.28C4.77,19,5,19,5,18.41s.14-.89.14-1.32c0-1.52-2.54-3.27-2.54-4,0-.28,0,0,.08-.22,1,.28,2.8,2.5,3.84,2.63,3.21.41,2.9-.73,2.9-3.36,0-1.76-.38-2.13-2.1-2.13-.41,0-.93-.06-1.6-.07-1.25,0,0,.81-.94.88-.07-.28-.2-.88-.51-.88H3.42L3,10l-1.45,0H1.32C.48,9.91,0,10.3,0,11.16"/><path class="cls-1" d="M5.6,15.7c-.12,0-.22,0-.22.14s2.7,4,3,4,1.09-.9,1.09-1.1v-.07c0-.39-.62-.49-.92-.83a7.43,7.43,0,0,0-1-.7c-.26-.17-1.86-1.4-1.94-1.4Z"/></g></g></svg>