<svg xmlns="http://www.w3.org/2000/svg" viewBox="0 0 19.78 20.18"><defs><style>.cls-1{fill:#623c25;fill-rule:evenodd;}</style></defs><title>1_r_u</title><g id="Layer_2" data-name="Layer 2"><g id="Layer_1-2" data-name="Layer 1"><path class="cls-1" d="M11.23,9.88h.43c1.12,0,3.11.1,3.7-.22V9.22c.06,0,.18-.14.22-.14.3,0,.22.28.23.57l.13.16a15.1,15.1,0,0,0,2.6,0c.95-.16,1-.74,1-1.89,0-1,.19-2-.27-2.5-.27-.33-.33-.54-.88-.57s-.88-.15-1.31-.15c-1.5,0-3.23,2.56-4,2.56-.27,0,0,0-.21-.07.27-1,2.47-2.83,2.6-3.88C15.9.05,14.78.36,12.17.36c-1.74,0-2.1.38-2.1,2.12,0,.42-.07.94-.07,1.62,0,1.26.79.05.87,1-.28.06-.87.19-.87.51v.88l0,.44,0,1.46v.22c0,.85.38,1.32,1.23,1.32"/><path class="cls-1" d="M15.72,4.24c0,.12,0,.22.15.22s3.91-2.73,3.91-3.07S18.89.29,18.69.29h-.07c-.38,0-.48.63-.81.93a6.23,6.23,0,0,0-.7,1c-.17.26-1.39,1.87-1.39,2Z"/><path class="cls-1" d="M14.06,14.47c.52,0-.27-.87-.39-1-.37-.45-.44-.62-.76-1.06s-1.37-2-1.75-2H11a3.15,3.15,0,0,0-.94,1c0,.68,1.45,1.26,1.9,1.6s1.67,1.48,2.09,1.48"/><path class="cls-1" d="M16.88,17.25c-.41,0-2.72-2.09-3.62-2.49a5.45,5.45,0,0,0-2.41.06c-.77.26-.78,1.23-.78,2.06v1.47c0,1.12.37,1.24,1,1.68l2.9.14c.25,0,.15,0,.44-.06.07-.33,0-.81.29-.81,0,0,.16.11.22.15,0,1,1.12.58,2.1.65.65.06,1.79.12,2.23-.3s.4-1.34.3-2.33c-.07-.67.08-1.63.08-2.49-.5-.34-.79,0-.8-.59h.51c.27,0,.29-.44.29-.73,0-3.29-.1-3.07-2.83-3.07-.68,0-1.74-.05-2.07.61a4.64,4.64,0,0,0-.12,2.55,9,9,0,0,0,1.23,1.76,9,9,0,0,0,.68.77,10.26,10.26,0,0,1,.57.9c-.19.09.06.07-.22.07"/><path class="cls-1" d="M0,1.25v.44A13.61,13.61,0,0,0,.23,5.42H.67c0,.06.14.18.14.22,0,.31-.28.22-.56.23L.09,6a16.39,16.39,0,0,0,0,2.62c.16,1,.73,1,1.87,1,1,0,2,.19,2.48-.28.32-.28.53-.33.57-.89s.14-.89.14-1.32c0-1.52-2.54-3.27-2.54-4,0-.28,0,0,.08-.22,1,.28,2.8,2.5,3.84,2.63,3.21.41,2.9-.73,2.9-3.36C9.44.44,9.06.07,7.34.07,6.93.07,6.41,0,5.74,0c-1.25,0,0,.81-.94.88C4.73.6,4.6,0,4.29,0H3.42L3,0,1.54,0H1.32C.48,0,0,.39,0,1.25"/><path class="cls-1" d="M5.6,5.79c-.12,0-.22,0-.22.14s2.7,4,3,4S9.51,9,9.51,8.79V8.72c0-.39-.62-.49-.92-.83a7.43,7.43,0,0,0-1-.7C7.35,7,5.75,5.79,5.67,5.79Z"/></g></g></svg>