<svg xmlns="http://www.w3.org/2000/svg" viewBox="0 0 9.51 9.67"><defs><style>.cls-1{fill:#623c25;fill-rule:evenodd;}</style></defs><title>Asset 7</title><g id="Layer_2" data-name="Layer 2"><g id="Layer_1-2" data-name="Layer 1"><path class="cls-1" d="M5.59,4c0,.17.06.17.14.3a3.9,3.9,0,0,0,1-.76,7.07,7.07,0,0,1,1-.72C8.15,2.5,9.5,1.55,9.5,1V.73C9.1.62,8.9,0,8.42,0S7.21,1.59,7,2,5.59,3.62,5.59,4"/><path class="cls-1" d="M2.83,7c0-.87,2.54-3.11,2.54-4V2.78c0-1,0-2.11-.58-2.49A7.36,7.36,0,0,0,2.33,0C1.12,0,0,.23,0,1.68V4.1a1.06,1.06,0,0,0,.07.37H.51c.14,0,.29.13.29.22s0,.09-.07.29H.44C-.09,5,0,6.05,0,6.52V7L0,8.49C0,9,.49,9.67.88,9.67H2.47a.94.94,0,0,0,.65-.22c.15.36.59.14,1,.14h1c0-.18.23-.74.44-.74s-.08.73.36.73H7.26c2,0,2.24-.2,2.24-2.19,0-1.12.08-1.85-.51-2.49A3.22,3.22,0,0,0,6.5,4.58,4.8,4.8,0,0,0,4.63,5.84c-.23.22-.57.54-.8.73a7.66,7.66,0,0,1-.92.61c-.1-.18-.08,0-.08-.15"/></g></g></svg>