<svg xmlns="http://www.w3.org/2000/svg" viewBox="0 0 549.04 46.81"><defs><style>.cls-1{fill:#fff4e3;}.cls-1,.cls-2{fill-rule:evenodd;}.cls-2{fill:#7c6742;}</style></defs><title>title_8</title><g id="Layer_2" data-name="Layer 2"><g id="Layer_1-2" data-name="Layer 1"><path class="cls-1" d="M58.92,35.93H37.76l-.07-.12a3.1,3.1,0,0,0-.94-1.08,2.37,2.37,0,0,0-1.34-.34h-.24v-.24a6,6,0,0,0-1.94-4.68,9.45,9.45,0,0,0-4.67-2h0a9.44,9.44,0,0,1-1-.29,8.85,8.85,0,0,1-1-.43,4.17,4.17,0,0,1-2.61-4.53,2.46,2.46,0,0,1,.1-.41,2.66,2.66,0,0,1,.16-.39,2.79,2.79,0,0,1,1.55-1.33,2.69,2.69,0,0,1,.52-.14,2.44,2.44,0,0,1,.54,0,1.6,1.6,0,0,1,.78.3,2.75,2.75,0,0,1,.52.62.37.37,0,0,0,.16.1l.17,0a.76.76,0,0,0,.22-.14.26.26,0,0,0,.1-.14.21.21,0,0,0,0-.15,1,1,0,0,0-.11-.18l-.4-.44.59,0h0a2.77,2.77,0,0,0,.76-.08,3.54,3.54,0,0,0,.76-.3A5.84,5.84,0,0,0,33,16.16l0-.18H516l0,.18a5.84,5.84,0,0,0,2.73,3.4,3.75,3.75,0,0,0,.76.3,2.81,2.81,0,0,0,.76.08l.59,0-.39.44a.69.69,0,0,0-.12.18.28.28,0,0,0,0,.15.33.33,0,0,0,.1.14.93.93,0,0,0,.22.14l.17,0a.37.37,0,0,0,.16-.1,2.54,2.54,0,0,1,.53-.62,1.52,1.52,0,0,1,.78-.3,2.44,2.44,0,0,1,.54,0,2.6,2.6,0,0,1,.51.14,2.79,2.79,0,0,1,1.55,1.33,1.88,1.88,0,0,1,.16.39,1.76,1.76,0,0,1,.1.41,4.16,4.16,0,0,1-2.61,4.53,8.14,8.14,0,0,1-1,.43,9.44,9.44,0,0,1-1,.29h0a9.37,9.37,0,0,0-4.66,2,6,6,0,0,0-2,4.68v.24h-.24a2.37,2.37,0,0,0-1.34.34,3.2,3.2,0,0,0-.94,1.08l-.07.12H58.92Z"/><path class="cls-2" d="M58.92,16.47H33.45A6.43,6.43,0,0,1,30.53,20a4,4,0,0,1-.87.34,3.55,3.55,0,0,1-.47.08.62.62,0,0,1,0,.38.82.82,0,0,1-.24.38,1.21,1.21,0,0,1-.37.22.71.71,0,0,1-.43.06.9.9,0,0,1-.44-.25l0,0v0a2,2,0,0,0-.44-.52,1,1,0,0,0-.53-.2,1.48,1.48,0,0,0-.42,0,2.28,2.28,0,0,0-.41.11,2.34,2.34,0,0,0-1.29,1.1,1.66,1.66,0,0,0-.12.31,2,2,0,0,0-.09.33,3.72,3.72,0,0,0,2.35,4,6.47,6.47,0,0,0,.94.4,8.41,8.41,0,0,0,1,.28,10,10,0,0,1,4.9,2.1,6.37,6.37,0,0,1,2.1,4.81,2.67,2.67,0,0,1,1.37.4,3.66,3.66,0,0,1,1,1.13H511a3.51,3.51,0,0,1,1-1.13,2.7,2.7,0,0,1,1.37-.4,6.41,6.41,0,0,1,2.1-4.81,10,10,0,0,1,4.9-2.1,8.41,8.41,0,0,0,1-.28,6.47,6.47,0,0,0,.94-.4,3.71,3.71,0,0,0,2.35-4c0-.11,0-.22-.08-.33a2.88,2.88,0,0,0-.13-.31,2.31,2.31,0,0,0-1.29-1.1,2.08,2.08,0,0,0-.41-.11,1.48,1.48,0,0,0-.42,0,1.05,1.05,0,0,0-.53.2,2,2,0,0,0-.43.52l0,0,0,0a.88.88,0,0,1-.43.25.75.75,0,0,1-.44-.06,1.34,1.34,0,0,1-.37-.22.82.82,0,0,1-.24-.38.7.7,0,0,1,0-.38,3.43,3.43,0,0,1-1.35-.42,6.48,6.48,0,0,1-2.92-3.53H58.92Zm0,19.46H37.76l-.07-.12a3.1,3.1,0,0,0-.94-1.08,2.37,2.37,0,0,0-1.34-.34h-.24v-.24a6,6,0,0,0-1.94-4.68,9.45,9.45,0,0,0-4.67-2h0a9.44,9.44,0,0,1-1-.29,8.85,8.85,0,0,1-1-.43,4.17,4.17,0,0,1-2.61-4.53,2.46,2.46,0,0,1,.1-.41,2.66,2.66,0,0,1,.16-.39,2.79,2.79,0,0,1,1.55-1.33,2.69,2.69,0,0,1,.52-.14,2.44,2.44,0,0,1,.54,0,1.6,1.6,0,0,1,.78.3,2.75,2.75,0,0,1,.52.62.37.37,0,0,0,.16.1l.17,0a.76.76,0,0,0,.22-.14.26.26,0,0,0,.1-.14.21.21,0,0,0,0-.15,1,1,0,0,0-.11-.18l-.4-.44.59,0h0a2.77,2.77,0,0,0,.76-.08,3.54,3.54,0,0,0,.76-.3A5.84,5.84,0,0,0,33,16.16l0-.18H516l0,.18a5.84,5.84,0,0,0,2.73,3.4,3.75,3.75,0,0,0,.76.3,2.81,2.81,0,0,0,.76.08l.59,0-.39.44a.69.69,0,0,0-.12.18.28.28,0,0,0,0,.15.33.33,0,0,0,.1.14.93.93,0,0,0,.22.14l.17,0a.37.37,0,0,0,.16-.1,2.54,2.54,0,0,1,.53-.62,1.52,1.52,0,0,1,.78-.3,2.44,2.44,0,0,1,.54,0,2.6,2.6,0,0,1,.51.14,2.79,2.79,0,0,1,1.55,1.33,1.88,1.88,0,0,1,.16.39,1.76,1.76,0,0,1,.1.41,4.16,4.16,0,0,1-2.61,4.53,8.14,8.14,0,0,1-1,.43,9.44,9.44,0,0,1-1,.29h0a9.37,9.37,0,0,0-4.66,2,6,6,0,0,0-2,4.68v.24h-.24a2.37,2.37,0,0,0-1.34.34,3.2,3.2,0,0,0-.94,1.08l-.07.12H58.92ZM26.29,19.42c.42-.64.71-.8,1.52-.47.63-.07.73-.56.75-1.11l.42.07C31,18,31.13,16.47,31.5,15c1.74,1,2.74.88,4.21-.31A.51.51,0,0,1,36,14c0,1.08,1.88.63,1.16-.42a1.73,1.73,0,0,1,.39-2.14c1.19-1.29,2.78-1.37,3.85,0H41a1.44,1.44,0,0,0-1.38-.56,1.31,1.31,0,0,0-.81.65H38.1a1.53,1.53,0,0,0-.59,1.61c.07.39.57.64.42,1a1.12,1.12,0,0,1-.85.7,1.85,1.85,0,0,1-1.15-.1c-1.5,1-2.19,2-4.24.85,0,1.39-1,2.89-2.42,2.75a1,1,0,0,0-.67.59c.21.81-.94.37-1.25.26a1.31,1.31,0,0,0-1.06.17m15.11-8c-.84-2.07-2.82-2.22-4.27-.7-.08-.6-.42-.69-.92-.68-.23,0-.43.13-.43.37a1.62,1.62,0,0,0,.27.78A1.33,1.33,0,0,1,36,12.58a2,2,0,0,1-1.54,1A2.73,2.73,0,0,1,32,12.91,3.19,3.19,0,0,1,30.79,10c.31-1.54,1.12-2.28,2.94-2.47v.51a2.23,2.23,0,0,0-2.32,2.21,2.53,2.53,0,0,0,.82,2.36,2.63,2.63,0,0,0,2.14.68,1.76,1.76,0,0,0,1.51-.8A1.1,1.1,0,0,0,36,11.24a1.35,1.35,0,0,1-.33-.89c0-.28.27-.41.55-.43.52,0,1,.11,1,.73,1.31-1.59,3.64-1.41,4.26.8m-9.46.39a.07.07,0,0,1,0-.09.07.07,0,0,1,.09,0l.05.09c.21.39.91,1.69,3.39,1.12a.06.06,0,0,1,.07,0,.06.06,0,0,1,0,.08c-2.57.59-3.3-.78-3.52-1.18l0-.08m4.16-.45a1.71,1.71,0,0,1,.08.29c-.4,0-1.72-.11-1.72.08s0,.18.26.2c.48,0,1,0,1.47,0a1.1,1.1,0,0,1-.06.26c-.92,0-2.3.16-3.05-.31a1.32,1.32,0,0,1-.44-.44,1.05,1.05,0,0,1-.14-.68,1.07,1.07,0,0,1,.2-.51,1.25,1.25,0,0,1,.42-.37,1.17,1.17,0,0,1,1.08,0,1.15,1.15,0,0,0,0-.89,1.3,1.3,0,0,0-.72-.8l0,0a2.22,2.22,0,0,0-.45,0h0c.11,0,.26-.05.46-.07h0a.91.91,0,0,1,.25.11,1.56,1.56,0,0,1,.59.78,1.4,1.4,0,0,1,0,.88c0,.13,0,.12.07.12.35,0,1,0,.95.25a.29.29,0,0,1-.31.21c-.24,0-.19,0-.34-.15a2.42,2.42,0,0,0-.86-.36,1,1,0,0,0-.69.11,1.06,1.06,0,0,0-.37.33,1.08,1.08,0,0,0-.18.46,1,1,0,0,0,.12.59c.5.86,1.45-.1,2.06-.07l1.3,0M35,10.27a.05.05,0,0,1,.07,0s.09.13.06.14a.84.84,0,0,0-.47.17.34.34,0,0,0-.11.24.4.4,0,0,0,.08.26,1.23,1.23,0,0,0,.38.3.08.08,0,0,1,0,.09.05.05,0,0,1-.08,0,1.2,1.2,0,0,1-.43-.34.5.5,0,0,1-.1-.34.49.49,0,0,1,.14-.32,1,1,0,0,1,.43-.25m-.6,1.34c-.41-.26-.57-.52-.55-.79A1.37,1.37,0,0,1,34.4,10l.17.14c-.32.22-.59.45-.62.68s.13.45.49.68ZM34.1,10c-.36.35-.68.59-.67.87s.21.54.63.85l-.08.1c-.44-.33-.66-.63-.67-.95a1.43,1.43,0,0,1,.58-1Zm-.59,1.95a1.51,1.51,0,0,1-.7-1,1.33,1.33,0,0,1,.53-1.08l.24.05c-.37.36-.68.71-.65,1a1.42,1.42,0,0,0,.65.9Zm1.86-1.68-.26-.16c.59-1.43-.53-1.92-1.73-2.21,1.51.16,2.33.77,2,2.37m-.37,0-.24-.17c.66-1.3-.35-1.85-1.46-2.2,1.41.26,2.13.89,1.7,2.37m-.33,0-.24-.17c.64-1.3-.37-1.84-1.48-2.18,1.41.24,2.14.87,1.72,2.35m-1.2-2.63c.08-2-2.07-2.46-3.3-1.27h-.29c0-.59-.19-1.2-.83-1.22a.52.52,0,0,0-.36.13c-.53.35-.4-.35-.33-.8A1.14,1.14,0,0,0,28,3.32a.94.94,0,0,0-.7-.11,7.86,7.86,0,0,1-.84,0,1.18,1.18,0,0,1-1.06-.41c-.16-.17-.3-.35-.47-.54-.56-.13-.93-.22-1.18.23s0,.7-.4,1c-.56.39-.95.31-1.07-.41,0-.22,0-.27-.2-.36a1.22,1.22,0,0,0-.74,0c0,.35,0,.46-.39.56-1.3.15-.49-.91-.4-1.63A2.59,2.59,0,0,1,20,.85,6.66,6.66,0,0,1,17.23.36c-.64.06-.89.18-.95.84a1.37,1.37,0,0,0,.08.6c.11.3.33.5.42.81a1.8,1.8,0,0,1-.27,1.56,3.08,3.08,0,0,1-.86.9c-.24.14-.57.28-.7.55-.21.45,1.05.53.08,1.45a.74.74,0,0,1-.45.24c-.21,0-.4,0-.45-.23a.43.43,0,0,0-.73-.28L13.17,7a.64.64,0,0,0-.14.43,3.9,3.9,0,0,1-.1,1.13,3,3,0,0,1-1.28,1.71,3.3,3.3,0,0,1-.64.26,4.52,4.52,0,0,1-.7,1.49,2.16,2.16,0,0,0,.24.33c.45.56,0,.79-.47.67a.9.9,0,0,0-1,.73.5.5,0,0,0,0,.21,2,2,0,0,1,0,1.53c0,.08-.07.16-.11.25l-.23.44a1.34,1.34,0,0,0-.09.26c0,.14.19.51.22.72.28,0,.29,0,.45.27.62.24.83.35.94.82a1.76,1.76,0,0,1,0,.79,2.74,2.74,0,0,1-.12.45,2.41,2.41,0,0,1,.5,1.32,1.44,1.44,0,0,1,.37,1.78,3.06,3.06,0,0,0,1,2.45l-.14.16a3.73,3.73,0,0,1-1.06-2.57c.09-.69.33-1.11-.4-1.54A1.68,1.68,0,0,0,10.23,20L10,20a2.85,2.85,0,0,1-.09-1.09.69.69,0,0,0-.15-.5c-.34-.47-.9-.65-1.2-1.19,0-.08-.09-.17-.13-.27a2,2,0,0,1,.35-1.67,1.19,1.19,0,0,0,.16-.43,1,1,0,0,0-.06-.58c-.17-.36-.23-.55,0-.88a4.88,4.88,0,0,1,.54-.48c0-.43.43-.26.67-.15s.51.08.22-.25L10,12.16l-.09-.11a5.85,5.85,0,0,0,.93-1.87,2.92,2.92,0,0,0,.63-.27,2.06,2.06,0,0,0,1.11-1.45,2.48,2.48,0,0,0,0-.94.78.78,0,0,1,.24-.75c.45-.53,1.27-1.07,1.73-.24.05.1.06.26.18.25s.34-.09.34-.25-.28-.3-.36-.57a.81.81,0,0,1,.08-.73,4.14,4.14,0,0,1,.91-.75,5,5,0,0,0,.57-.56,1.09,1.09,0,0,0,.18-1.29A6,6,0,0,1,16,1.94a1.64,1.64,0,0,1-.09-1c.08-.35.18-.62.53-.74A3.41,3.41,0,0,1,17.3,0a4.06,4.06,0,0,0,2.85.49c1.25.47,1.21,1,1.05,1.87h.23a5,5,0,0,1,.77,0c.41,0,.46.15.62.51s.39.71.59,0c.27-1.09.72-1.15,1.71-.93a5.76,5.76,0,0,0,.51.66,1,1,0,0,0,.91.32,7.3,7.3,0,0,0,.81,0,1.78,1.78,0,0,1,.94.12A1.59,1.59,0,0,1,29,4.81c.84.08,1.09.33,1.07,1.22a2.16,2.16,0,0,1,3.7,1.88L33.34,8Zm-2.72-1a.06.06,0,0,1-.08,0,.06.06,0,0,1,0-.08,2.84,2.84,0,0,1,1.46-.3,2.49,2.49,0,0,1,1.34.58.05.05,0,0,1,0,.08s0,.1-.07.07a2.58,2.58,0,0,0-1.29-.6,2.71,2.71,0,0,0-1.4.28m.56.44a.06.06,0,1,1,0-.12h0l.32-.12.34-.08a1.83,1.83,0,0,1,1.69.45.07.07,0,0,1,0,.09s-.08.07-.1,0A1.7,1.7,0,0,0,32,6.87a2.66,2.66,0,0,0-.63.2Zm.31.54a.1.1,0,0,1-.09,0,.07.07,0,0,1,0-.09,2,2,0,0,1,1.07-.34,2,2,0,0,1,1,.33.05.05,0,0,1,0,.08s-.07.09-.1.07a1.78,1.78,0,0,0-.92-.35,1.71,1.71,0,0,0-1,.32m-1.17-1.3a.06.06,0,0,1-.08,0s0-.06,0-.08a3.09,3.09,0,0,1,1.51-.37,2.74,2.74,0,0,1,1.42.59.07.07,0,0,1,0,.09s0,.09-.05.07A3,3,0,0,0,31.9,6a3.11,3.11,0,0,0-1.45.36m-3.13-1c-.1.11-.22.19-.25.08a.22.22,0,0,1,0-.2,1,1,0,0,0,.18-.38c0-.15,0-.29-.07-.23s-.07.13-.09.21-.08.4-.24.45-.25,0-.13-.22a3.15,3.15,0,0,0,.13-.29,1.24,1.24,0,0,0,0-.66.23.23,0,0,1,0-.15s.1-.06.24-.07a.74.74,0,0,1,.24.06c.23.1.21.39.2.6a1.24,1.24,0,0,1-.28.8m-.79-.73c0,.11,0,.2-.06.28s-.2,0-.23-.15a.9.9,0,0,1,.05-.54c0-.12.06-.16.18-.21s.18.18.13.3a1.14,1.14,0,0,0-.07.32m-2.14-.62c.06-.1.14-.18.12-.31s-.14,0-.2.14a1.3,1.3,0,0,1-.14.26,1.18,1.18,0,0,1-.37.42c-.09,0-.14,0-.17,0s0-.08.07-.17a4.16,4.16,0,0,0,.4-.71c.14-.32.24-.41.44-.4a.71.71,0,0,1,.49.14,1.1,1.1,0,0,0,.35.26c.21,0,.28.12.37.31a.85.85,0,0,1,.05.46.83.83,0,0,1-.14.3.16.16,0,0,1-.16.08c-.07,0-.15,0-.12-.12a1.24,1.24,0,0,1,.17-.33c.2-.4-.09-.36-.22-.05a.82.82,0,0,1-.25.43c-.22.18-.37.16-.36,0a.45.45,0,0,1,.18-.36A.28.28,0,0,0,25,3.85c-.12-.17-.22,0-.28.16a2,2,0,0,1-.24.4,1.15,1.15,0,0,1-.23.21c-.16.09-.28,0-.24-.11s.17-.22.25-.35l.17-.25m-5.73-.19c.36-.82-.16-1.11-.22-.23-.37.36,0,.78.22.23m-.57-.85a2,2,0,0,1-.08-.8c.07-.38.58-.2.79,0a1.27,1.27,0,0,1,.24,1c0,.45-.14,1-.61,1.14a.48.48,0,0,1-.61-.13c-.38-.37,0-1,.27-1.27m.17,1.78c.16-.33.37-.09.22.19-.22.54-.27.49-.72.9-.16.14-.24-.15,0-.36a1.55,1.55,0,0,0,.52-.73M22,4.8l0,.15-.77.12-1.22.22-1.07.55-1.42.91c0-.07,0-.14,0-.2l.32-.26.34-.44.32-.32a3.58,3.58,0,0,0,1-2.69c0-.16.09-.7.22-.29a3.09,3.09,0,0,1,0,.52,2.86,2.86,0,0,1-.51,2l-.24.27c-.1.12,0,.17.1.08a2,2,0,0,0,.78-1.23A4.06,4.06,0,0,0,19.81,3c0-.21.2-.23.22.07a3.67,3.67,0,0,1-.3,1.8c-.09.22.09,0,.16-.06a4.76,4.76,0,0,0,.49-.62c.15-.21.23-.19.17,0a2.57,2.57,0,0,1-.29.67c-.15.27,0,.06.14,0a3.54,3.54,0,0,0,.53-.62c.22-.28.22-.21.17.12a.74.74,0,0,1-.12.31c-.21.35.34,0,.37-.3s.1-.14.12.09a.43.43,0,0,1,0,.32c.24-.07.3-.16.43-.38s.12,0,.12.18a1.85,1.85,0,0,1,0,.23m2.46,9.42s-.05-.26.09-.21a1.39,1.39,0,0,0,1.89-.79,2.35,2.35,0,0,0-2-3.12.05.05,0,0,1-.05-.07s0,0,.07,0a2.51,2.51,0,0,1,2.18,3.29,1.67,1.67,0,0,1-2.15,1m-9-6.37c.49-.24.32-1.07,1-.16L15.87,8a3.92,3.92,0,0,1-1.24.16,2,2,0,0,1-1-.18.46.46,0,0,1-.2-.23c-.13-.26-.15-.56.27-.55s.44.08.41.38.1.31.38.36a1.4,1.4,0,0,0,.87-.13m.65-1A2.25,2.25,0,0,0,15.91,6c0-.12,0-.21.14-.18s.13.12.14.24a2.42,2.42,0,0,0,0,.25c.06.26.13.06.14-.06a1.9,1.9,0,0,0-.07-.46c0-.12,0-.1.11-.1s.23.34.25.49v.51c0,.23,0,.46,0,.69-.07,0-.37.37-.43.41S16,7.75,16,7.67s.44-.27.47-.51-.2-.19-.29-.1-.17,0-.17-.2M17,6.59a.32.32,0,0,1-.09.26c-.1.13-.1,0-.11-.1l.09-.15c.06-.09-.06-.28-.08-.36s.16-.09.21,0,0,.33,0,.4M15.76,8a1.87,1.87,0,0,1-.4.57,1.91,1.91,0,0,1-.75.17,1.55,1.55,0,0,1-1.06-.19c-.24-.19-.07-.68.19-.33a.85.85,0,0,0,.8.28c.65-.07.87-.42,1.22-.5M14.09,9.15c.28,0,.23.2,0,.27h-.43c-.22-.05-.52-.42-.18-.42a.23.23,0,0,1,.15.06.45.45,0,0,0,.3.1h.15m-.84.32c0,.06,0,.09,0,.11a.29.29,0,0,1-.24,0c-.11,0-.14-.08-.08-.2s.05-.06.09-.06a.27.27,0,0,1,.25.13m.39.41c.32.06.26.19.09.26a3.27,3.27,0,0,1-.64,0,1.84,1.84,0,0,1-.47,0c-.08,0-.1,0-.11-.09s0-.13.06-.19.12-.06.25,0a2.24,2.24,0,0,0,.58.06,1,1,0,0,1,.24,0m-1.05.91a.56.56,0,0,1-.34,0c-.08,0-.25-.12,0-.16a.39.39,0,0,1,.26,0c.14,0,.26,0,.12.14m-.59.63a.47.47,0,0,1-.33,0c0-.09.1-.33.24-.24S12,11.26,12,11.42Zm1.14-.71c.22,0,.36-.11.21-.24s-.64-.06-.87-.05-.65-.05-.61.37c-.31.1-.59.24-.58.52,0,.12.08.19,0,.27-.2.24.26.11.49.12a1.93,1.93,0,0,1,.68.09c.18.06.53,0,.4-.11-.3-.26-.66,0-.6-.36s.3-.18.5-.14a.26.26,0,0,0,.22,0c.16-.1,0-.1,0-.24s-.07-.22.19-.2M12,12.26a1.82,1.82,0,0,0-.52,0c-.39.12-.37-.21.08-.29a1.67,1.67,0,0,0,.43.1h.33c.21,0,.31.28,0,.25l-.33,0m-.64.6c-.11,0-.08,0,0-.14s.33-.17.56-.06h.17c.39,0,.4.38-.12.23-.19-.14-.26-.07-.47,0l-.13-.05m-.1.74c-.19-.1-.12-.18,0-.23a.15.15,0,0,1,.13,0c.1,0,.13,0,.15.12s0,.1-.14.1h-.18m-.79,0c-.28-.13,0-.35.1-.19s0,.05.05.05h.09c.13-.05.09,0,.1.09s-.26.1-.34.06m.82.47a2.68,2.68,0,0,1-.93-.14c-.08,0-.16,0-.22-.1s0-.16.11-.16a.53.53,0,0,1,.32.12.81.81,0,0,0,.65.11c.12,0,.74-.17.51.07-.07.08-.08.08-.19.08l-.25,0m-1.07,0a.86.86,0,0,0,.41.19l.23,0c.17.09.24,0,.41,0l.26,0c.25,0,.37.27,0,.22l-.19,0a.54.54,0,0,1-.66,0,4.1,4.1,0,0,0-.49-.06l-.11-.07c-.15-.09-.12-.09-.09-.27s.13-.09.24,0m-.06.89c-.1,0-.17,0-.2-.06s0-.16.06-.2.08,0,.16,0h.22c.19,0,.23.16,0,.18l-.22,0m.05.54c.2.1.18.22-.05.23,0-.14-.09-.12.05-.23m-.16.36c.26-.12.27.29,0,.18C9.87,16.1,9.9,15.77,10.08,15.84Zm.68-.12c-.07-.09,0-.12,0-.16s.23,0,.27-.12a.18.18,0,0,0-.1-.21c-.12-.08-.31,0-.45,0a.86.86,0,0,0-.81,1c-.18,0-.19.2-.15.38s.1.24.19.25c.41.08.46-.12.92.11l.28.13a.5.5,0,0,0,.41.05c.28-.09.21-.38-.18-.27a1.27,1.27,0,0,1-.76-.28c.27-.1.45-.15.68,0a1.34,1.34,0,0,0,.36,0c.26-.06.29-.3,0-.24a2.13,2.13,0,0,1-.37,0c-.2-.12-.6-.1-.65-.28.07,0,.09-.06.11-.1l.26.07a.77.77,0,0,0,.45,0c.34-.13.1-.22-.11-.16a.34.34,0,0,1-.2,0c-.06-.09-.06-.1-.16-.14m.43,1.81c.16.06.12.22,0,.18l-.61-.12c-.19-.13-.23-.18-.46-.17-.25-.33-.05-.34.28-.33.13.25.43.3.69.38l.14.06m.78,1,.12.25-.32,0c-.33,0-.47.24-.72.13-.51-.23,0-.39.3-.41s.43,0,.62,0m.14.57.09.22-.11.15-.35,0a.36.36,0,0,0-.41.21c-.07.17.07.19.18.12.28-.18.47.1.11.23a1.13,1.13,0,0,1-.18,0,4.35,4.35,0,0,1-.51,0c-.15,0-.17,0-.22-.13s.06-.23.21-.23.18-.05.17-.21-.15,0-.21-.13,0-.18.12-.17a.49.49,0,0,1,.23.08c.38-.3.45-.1.88-.15m-1.55,1,.16.15.29.07c.23.12.33.22.16.47,0,.2.1.24.32.22A1.3,1.3,0,0,1,12,21a.3.3,0,0,1,0,.12c0,.17-.24.17-.45.13l-.11,0,0,.1.15.08.52,0c.49,0,.45.25,0,.26a.89.89,0,0,0-.7.07c0,.06,0,.12,0,.18h.32c.21,0,.39,0,.5.09s-.17.18-.28.17a5.52,5.52,0,0,0-.58,0c0,.08,0,.11,0,.18s.43.15.7.15a.17.17,0,0,1,.17.12c.06.21,0,.28-.19.22a1.45,1.45,0,0,0-.5-.15c-.1,0-.12,0-.15.07s0,.1,0,.15.15.06.27.07.34,0,.46.09.08.15-.05.19-.28-.08-.44,0c.07.24,0,.26.26.28s.44-.29.6-.05-.07.07-.2.16-.15.17-.24.26l.11.15c.18,0,.25-.07.41,0-.08.14-.07.18-.23.2s-.07.15,0,.28l.44-.08c.16.17.08.25-.11.35l0,.19c.25,0,.32,0,.52.11l-.2.27.16.18.26-.12.36.18c0,.24-.1.43-.38.25-.16.2.1.41-.24.41l-.21.25c.39.18.66.63,0,.47a1.16,1.16,0,0,0,.12.55l.22-.07c.08-.18.15-.19.32-.29a1.14,1.14,0,0,1,.3-.61c.1-.15.12-.19.29-.24s.19-.25.24-.44c.12.15-.06.26,0,.42l.48-.11c.23,0,.44,0,.33.14,0-.05,0-.1-.06-.11s-1.11.21-1,.54c.15,0,.21,0,.25.12a.45.45,0,0,0-.35,0c-.2,0-.41.17-.31.42s.06.31-.13.19c-.2,0-.2.17-.42.23A.8.8,0,0,1,13,28c0,.17,0,.15-.12.24v.2l.1,0a2.57,2.57,0,0,1,0,.48c.42,0,.5.08.43.46l.17.15c.23,0,.26,0,.26.21-.24-.06-.27.07-.1.46-.25,0-.33-.37-.42-.54-.22.11-.21.16-.4,0,.36,0,.07-.35-.1-.35-.48,0-.7.16-.41.52l.11.13-.37.15c-.3-.25-.67-.35-.49-.72.32,0,.55-.6.5-.89s-.13-.37-.42-.44a8.54,8.54,0,0,0-2-.18l.06-.1v-.1a5,5,0,0,1,1.86,0c.11,0,.38.14.47.08s.12-.25,0-.42c.31-.3.46-.51,0-.69.35,0,.81-.3.37-.46.38-.34-.05-.55-.42-.48.26-.42-.3-.62-.65-.68s-.33.15-.5.29l-.34.3c-.3.33-.6.66-.91,1l0-.09-.09-.06.62-.69.36-.35.34-.35a.62.62,0,0,0-.53-.7A.36.36,0,0,0,10,23.9c0-.43.45-.17.66,0l.15.05,0-.13a5.93,5.93,0,0,1,0-1.19l.19-.57c0-.18,0-.35,0-.52l-.33-.4L10.64,21c0-.16-.05-.33-.08-.49s0-.21,0-.32a.36.36,0,0,1,0-.09m3.88,9.29c.18-.08.4.19.6.21a29.33,29.33,0,0,1,7.29,1.7c1,.43,2.35,1.63,3.4,1.5,0,.07,0,.15-.07.23-.72,0-.78.21-.75.9-.38-.19-.28-.41-.29-.82a21.81,21.81,0,0,0-7.25-2.92,13.43,13.43,0,0,0-2.09-.27,1,1,0,0,0-.61.14c-.13.09-.16.2-.18.47a2.84,2.84,0,0,1-2.32-.5l.06-.24.29.07c.31.46.73.41,1.24.41l.47-.05a1.3,1.3,0,0,0-.05-.73ZM25,32a15.22,15.22,0,0,0-4.64-1.76L20,30.13a22.16,22.16,0,0,0-4.23-.35l-1.37-.15-.17-.31-.33-.45-.46-.45.3-.38.52-.23a8.53,8.53,0,0,1,.95,1.53,42.61,42.61,0,0,1,5.28.69l.94.2A10.15,10.15,0,0,1,26,32.57c.21.23.14.4.56.38,0,.13.1.25.16.38a1.23,1.23,0,0,1-1,0c-.07-.06,0-.08,0-.14s0-.07-.1-.13l.09-.23a.45.45,0,0,0-.1-.29A2.67,2.67,0,0,0,25,32m-.09,1.45c0,.43.35.41.37.76a.41.41,0,0,1-.15.37,1.42,1.42,0,0,1-1.3.07,13.18,13.18,0,0,0-1.79-.84c-.23.25-.66-.39-.86-.55a6.13,6.13,0,0,0-1.42-.67c-.52-.17-1-.31-1.56-.43-2-.48-5.32-.75-6.75,1.18,1.93-.16,2.2,2.3,1.27,3.46a2.41,2.41,0,0,1-2.42.85A3.08,3.08,0,0,1,7.84,33.8a3.5,3.5,0,0,1,.9-1.71c-.35.07-.75.23-.7-.29,0,.08.09.1.19.07s.14-.12.18-.24a.64.64,0,0,0,0-.37c0-.06-.12-.47-.07-.52s.12-.07.19,0,.06.06.05.16a.38.38,0,0,0,0,.26c0,.1.06.17.17.14s.13-.08.11-.26a1.63,1.63,0,0,1,0-.54c0-.12,0-.19.15-.09s.09.17.13.29.09.14.22.14c.29,0,.24-.18.17-.35l0-.12a9.18,9.18,0,0,1-.3-1.17c-.09-.56,0-.81.22-.08,0,.11.07.26.11.44l.07.18a1.18,1.18,0,0,0,.32.54l.11.1c.31.3.45-.05.26-.32s-.2-.65.14-.16.47.27.32-.2c0-.06,0-.11,0-.17s-.21-.59.08-.2l.06.08c0,.06.15.49.15.5.23.23.43-.18.08-.47s-.23-.66.17-.25a1.18,1.18,0,0,1,.11.19,1.19,1.19,0,0,1,.08.16c.09-.16,0-.37-.1-.55a.79.79,0,0,0-.18-.22c-.22-.25.16-.42.41,0a2.33,2.33,0,0,0,.17.26l.1-.05a.6.6,0,0,0-.29-.59c-.1-.07-.19-.1-.29-.16s0-.21.27-.14.27.23.42.34.17.17.24,0,.23-.16.14,0l-.11.41-.12.59c.05.18.1.35.14.53l-.3.18A8.68,8.68,0,0,0,9.17,32a3.41,3.41,0,0,0-1,1.78A2.6,2.6,0,0,0,9.34,36.9a2.78,2.78,0,0,0,1,.38A2.09,2.09,0,0,0,13,35.36a1.42,1.42,0,0,0-.42-1.12c0,.2-.16.28,0,.57-.42.14-.94-.55-.55-.86l.12-.09c-.26-.57-.76-.48-1.06,0,0,.09,0,.23,0,.29s-.07.07-.13,0a.17.17,0,0,1,0-.15.62.62,0,0,1,0-.13l0-.14c-.24-.09-.46-.53-.08-.57.13.17.12.2.33.21,1-2.86,7-2,8.86-1.33a23.85,23.85,0,0,1,4,2.16,1.12,1.12,0,0,0,.91.14c.15-.05.17-.06,0-.25a.56.56,0,0,1-.21-.48,1.16,1.16,0,0,0,0-.18h.25M12.27,27.59a.34.34,0,0,0-.12-.22.4.4,0,0,0-.25-.09c-.17,0-.3,0-.37,0s-.12-.15.06-.18.26,0,.37,0h.11c.4,0,.35-.29.1-.39a.62.62,0,0,0-.33,0h-.18a.18.18,0,0,1-.17-.05c-.21-.16.15-.19.35-.18h.26a.69.69,0,0,0,.29-.07c.09-.12,0-.29-.21-.29l-.2,0c-.25,0-.39,0-.05-.11.87-.07.5-.41-.14-.35l-.34.05c-.37,0-.17-.13.07-.18h.25a.79.79,0,0,0,.2,0c0-.08.07-.28,0-.36a.94.94,0,0,1-.1-.1l.31-.05.37.24.43.47c0,.19,0,.37-.07.56s-.12.44-.19.66l-.24.54-.21.08M13,26.8l-.13-.09s0-.4,0-.43a2.52,2.52,0,0,1,.34-.15l.15.28c.29.37.39.39-.33.39m-3-2.95c0-.41-.4-.27-.48,0l-.14.08c-.3,0-.58-.18-.62.2a.73.73,0,0,0-.28.17c0,.34,0,.67.05,1s0,.38.05.58.07.23.11.35c-.23.13-.2.17-.32-.06s-.14-.39-.2-.59,0-.31,0-.46l0-.45c-.23-.3-.53-.45-.77-.06-.36,0-.8-.15-.83.33,0,.09,0,.17,0,.25a.89.89,0,0,0-.15.57.56.56,0,0,0,.06.78l.5.13h.29a1.05,1.05,0,0,1,.72.38l.34.29L8,27.44l-.55-.17-.12-.12-.54-.07-.61.14a.57.57,0,0,1-.32.23c0,.28,0,.64-.18.85s-.1.65.15.92c0,.42.21.55.57.75l.06.26.25-.05.06-.24c.36-.38.71-.76,1.07-1.13l.22.06c-.37.45-.73.9-1.1,1.34l0,.33-.15.1,0,.22c.11.16.22.31.32.47a.68.68,0,0,1,.54.07A.83.83,0,0,1,8,31a.71.71,0,0,1,.06.47.21.21,0,0,0,.36.12c0,.17-.12.42-.37.37,0-.23,0-.27-.11-.33-.24,0-.24.06-.43-.1-.7,0-.57-.3-1-.51,0-.45,0-.47-.4-.77L5.82,30c0-.8-.71-.57-.47-1.69a1,1,0,0,0,.2-.92,3.21,3.21,0,0,1,.7-.39l0-.16-.15-.17c-.27-.25-.38-.4-.13-.72,0-.1,0-.21,0-.32a8.12,8.12,0,0,0,.27-.79c0-.51.15-.46.63-.47l.26-.06a.88.88,0,0,1,1-.13.78.78,0,0,1,.48-.25c.13-.37.42-.23.76-.3.38-.37.72-.23.78.21l-.19,0m-.73,3.94c-.3.73-.74.56-.83-.08a1.28,1.28,0,0,1,.1-.76c.14-.27.28-.48.63-.39a.24.24,0,0,1,.2.28c-.49-.19-.9,1.13-.1.95m.52-.87c0-.15,0-.3,0-.45l-.21-.07c-.19-.07-.27,0-.34-.25a2.42,2.42,0,0,0,0-.25c-.05-.21-.23-.24-.23.11s0,.18-.21.25L8.73,26c.17-.3.24-.48-.14-.45a1.8,1.8,0,0,1-.08.21c0,.21,0,.41,0,.62l-.21,0-.22-.17c-.36-.48-.56-.3-.19.05l.15.13.05.17a1.15,1.15,0,0,1-.41-.17c-.38.07,0,.3.2.43l.24.18c0,.08,0,.15,0,.23H7.8c-.67.27-.21.35.22.3a.52.52,0,0,1,.1.11l-.31,0c-.69.1-.57.21-.25.23.11,0,.31-.06.42,0s.27,0,.29.17c0,0,0,.07,0,.08s-.44,0-.6,0-.17.21.18.19a.76.76,0,0,1,.26,0c.1,0,.18.13.12.19s-.37,0-.6.07-.35.25.29.17c0,0,.39,0,.34,0L8,29a1.69,1.69,0,0,0-.11.27l.12.2.21-.09c0-.35.18-.47.48-.67l.05.24c-.13.11-.15.15-.15.25s.16.32.23.12a.91.91,0,0,0,0-.33c.17-.45.16.12.39.32.11-.24.06-.31,0-.57l.14-.16c.69-.93.48-.63.48-1.67M10.23,20a1.56,1.56,0,0,0-.86,1.09A1.78,1.78,0,0,0,8.9,23a4.7,4.7,0,0,0,.46.7l-.55.07-.25-.29c0-.19,0-.37,0-.56A2.06,2.06,0,0,1,9.18,21,2.8,2.8,0,0,1,10,19.71l.21.13a.76.76,0,0,1,0,.15M9.46,23.6a1.29,1.29,0,0,1-.23-1.11l.11.1c0,.25.05.59.33.58a2.18,2.18,0,0,1,.06-.92,1.15,1.15,0,0,1,.1-.48,1.06,1.06,0,0,1,.08-.4A2,2,0,0,1,10,20.6l.1.15a.38.38,0,0,0,0,.53.7.7,0,0,0,0,.66,1.51,1.51,0,0,0-.24.76c.14-.09.48-1,.73-.82-.17,0-.22,0-.22.28a4.18,4.18,0,0,0-.47,1s.33-.22.38-.2c.12-.17.27-.25.32-.45.12.22-.12.28-.21.5a.22.22,0,0,1,.14.09l-.12,0c0,.1-.28.11-.37.16s.26.16.2.28a.54.54,0,0,0,0,.11s-.12,0-.14,0a1.2,1.2,0,0,1-.06-.17l-.31-.06-.14.11H9.46M8,22.76a1.15,1.15,0,0,1-.55-.62.55.55,0,0,0,0,.38,2.56,2.56,0,0,1-.91-.88c0-.25,0-.32-.17-.51a.45.45,0,0,0,0,.46c-.37-.06-.52-.28-.79-.53l-.79-.61-.2-.07-.11,0c-.15.05-.14,0,0,.12a3.8,3.8,0,0,1,.9.77l.45.42a2.22,2.22,0,0,1,.68.28H6l-.26,0,0,.17c.39,0,1-.06,1.23.27a1.18,1.18,0,0,0-.52.17,1.63,1.63,0,0,1,1.3.43c-.11.17-.38.16-.62.21-.93,0-1.32-.8-2-.92a1.5,1.5,0,0,0-.08-.44c-.13-.37-1.32-1.47-1.57-1.92a7.3,7.3,0,0,1,1.32.06,1.07,1.07,0,0,1,.79.26,5.93,5.93,0,0,1,2.19,2c.07.14.15.29.22.44m.6.14c-.22-.14-.38-.19-.43-.56A2.4,2.4,0,0,0,7,20.71,5.36,5.36,0,0,0,4.3,19.65c-.51,0-1-.29-1.5-.12a2.47,2.47,0,0,0,.44.7c.49.56.93,1.14,1.44,1.67a.47.47,0,0,1,.17.34c0,.34.12.52.49.58a1.3,1.3,0,0,1,.48.25,2.26,2.26,0,0,0,2.08.35h.38l.32.08.12-.25C8.68,23.13,8.64,23,8.61,22.9Zm1.11,3.61a4.87,4.87,0,0,1,.66,0c.27,0,.06.18,0,.18l-.12,0c-.19,0-.52-.09-.52.05s0,.23,0,.35.22.06.4,0,.22-.11.22.06-.07.11-.2.12l-.31,0-.19-.09-.06-.31.12-.34M5,27.6c.1.06.17.14.11.2s-.16,0-.25,0c-.55,0-.69.42-1.18.59a.78.78,0,0,1-.33,0c-.35,0-.82,0-.85.36.27-.13.36-.14.53,0a.8.8,0,0,1-.25.21,2.69,2.69,0,0,0-.44.31,1.74,1.74,0,0,0-.75,1.23,1.55,1.55,0,0,0,.17-.13c.14-.77.79-.79,1.29-1.19.21-.08.48.14,0,.28.29.4.6-.43.75-.74,0-.08.1-.08.17-.06.24.06.25-.27.32-.41s.27-.18.41-.25a.91.91,0,0,0-.39.77c.16-.27.2-.09.4-.38,0-.07.16-.08.24-.09s.05,0,.06.07,0,.12-.12.17l-.13.08a.9.9,0,0,0-.27.34.3.3,0,0,1-.17.2c.29,0,.38-.21.6-.37a.91.91,0,0,1-.44.82,1.2,1.2,0,0,1-.81.32c-.22.32-.39.36-.61.33a2.19,2.19,0,0,0-.67-.07c-.32,0-.51.14-.52.58-.18.14-.62.19-.77,0l-.51,0c0-.32.24-.37.44-.52a4.49,4.49,0,0,1,.42-.92l.5-.72a4.32,4.32,0,0,1,.86-.74,1.14,1.14,0,0,1,.93-.23.52.52,0,0,0,.4-.1.78.78,0,0,1,.42-.3.61.61,0,0,1,.68.17A1,1,0,0,1,5,27.6m-.64-1.36a.35.35,0,0,1,.17.19c.06.15,0,.22-.06.11a.77.77,0,0,0-.21-.19A.84.84,0,0,0,4,26.22c-.07,0-.13,0-.09.07s.1.09.17.13a1.47,1.47,0,0,1,.42.41c.34.31.09.3-.15.08a3.12,3.12,0,0,0-.44-.45,1.91,1.91,0,0,0-.65-.41.8.8,0,0,0-.4-.08c-.15,0-.19.09,0,.13l.35.09a1.46,1.46,0,0,1,.5.29c.17.15.23.18,0,.26l-.14-.1a2,2,0,0,0-.36-.18,1.83,1.83,0,0,0-.71-.08l-.53,0-.5,0c-.33.06-.28.13,0,.12l.49,0h.55a1.44,1.44,0,0,1,.62.08.77.77,0,0,1,.28.2,2.41,2.41,0,0,0-.59,0c-.22,0-.26.23,0,.22a1.67,1.67,0,0,1,.51,0c.18,0,.22,0,.26.23a.55.55,0,0,0-.31-.08l-.68,0a1.51,1.51,0,0,0,.45.31,1,1,0,0,1-.76-.15l-.18.09a5.64,5.64,0,0,1-1.44-.85v-.15a4.14,4.14,0,0,0,1.09-.68c.46-.34,1.21-.08,1.68.13a3.55,3.55,0,0,0,.63.2,1.51,1.51,0,0,1,.36.13m1.39,1a.49.49,0,0,1-.35,0,.77.77,0,0,1-.35-.26c-.3-.44-.43-.78-.84-1-.19-.09-.36,0-.51-.11a2.44,2.44,0,0,0-.34-.14,2.28,2.28,0,0,0-2.32.09c-.38.22-.86.52-.92.81a8.82,8.82,0,0,1,.76.61,2.12,2.12,0,0,0,.57.41,3,3,0,0,0,.85.19,3.11,3.11,0,0,1-.6.67A3.73,3.73,0,0,0,.94,29.8a1.7,1.7,0,0,1-.49.68,1.71,1.71,0,0,0-.28.39c-.05.1-.11.19-.17.29a3.18,3.18,0,0,0,.69,0,1.45,1.45,0,0,1,.59-.07,1.26,1.26,0,0,0,.91-.21c.22-.19.42-.39.75-.31a.7.7,0,0,0,.55,0L4,30.43c.32-.1.37-.07.57-.34a1.16,1.16,0,0,1,1.19-.52l0-.33c-.1-.12-.19-.25-.29-.38v-.45c.1-.13.19-.26.28-.4s0-.34,0-.51S5.77,27.3,5.78,27.2ZM6,30.61c-.08.21-.23.25-.31.44a2.6,2.6,0,0,0-.1.65c-.13.27-.44.86-.2,1.08.36-.39.2-.61.37-1.07a1,1,0,0,1,.45-.7l.15.18c0,.28,0,.36.28.35l0,.19L6.4,32a3.58,3.58,0,0,1-.19.55c-.45.2-.4.23-.53.65-.18.06-.37.12-.4.31l-.14.07A2.07,2.07,0,0,1,5,32c.09-.25.16-.26.1-.52a1.63,1.63,0,0,1,0-.82c.18.39.25-.16.52-.16-.07.35.22.07.36,0a.69.69,0,0,1,0,.13m-.88-.49c-.37.27-.64.66-.43,1.09.11.22.15.28,0,.44a2.25,2.25,0,0,0-.2,1.4c0,.44,0,.51.35.77.18.24.22.38.51.45.3-.3-.2-.63.4-.76.17,0,.21,0,.35-.13s.07-.12.09-.25.16-.29.34-.48L7,32.28c.22-.21.31-.26.34-.56,0,0,0-.11,0-.16l-.42-.28-.24-.37-.15-.48-.41-.36c-.08-.16-.15-.32-.23-.47l-.16-.21-.32.06c.13.13.27.21.24.31s-.36.28-.47.36m10.19-2.64-.13.08s0,.06,0,.09c0,.24.35.06.26-.1s0-.07-.12-.07m.43,0c.06,0,0,0,0-.1s0-.08-.1-.12-.08-.05-.08,0a.42.42,0,0,0,0,.14C15.68,27.51,15.69,27.51,15.77,27.47Zm-.66.48c-.06-.05-.07,0-.14,0s-.1.05-.08.1.22.21.27,0,0-.08-.05-.14m-.46.16c.09-.05.09-.18,0-.17s-.13,0-.1.13.06.07.13,0M15.38,27c.35-.11.72,0,.61.41.17.12.17.13.18.33.47.15-.07.35-.29.34,0,.47-.51,0-.28-.12l-.18.06c.1.48-.38.29-.7.22l-.15.2-.49-.27a1.73,1.73,0,0,0,0-.36c0-.07.69,0,.69,0l.22-.25.27-.12Zm-3.48,7.4.19.12a2.28,2.28,0,0,1,0,.26,2.32,2.32,0,0,1-.71.87,1,1,0,0,1-.44.14c-.1,0-.18,0-.13-.11s0,0,.12-.06a.63.63,0,0,0,.45-.21,2.1,2.1,0,0,0,.5-1m-3-.6a4.57,4.57,0,0,1,3.7-3.56l.24.12c-1.7.46-3.5,1.46-3.64,3.44a2.52,2.52,0,0,0,.37,1.65,1.16,1.16,0,0,0,.5.4,1.46,1.46,0,0,0,.74.18A1.6,1.6,0,0,0,12,35.35a.67.67,0,0,0,.11-.65l.23-.21a1,1,0,0,1,.45.9,1.88,1.88,0,0,1-1.63,1.78,2.32,2.32,0,0,1-2.58-1.42A2,2,0,0,0,11,36.91c.74-.14,2-1.11,1.41-1.74a1.34,1.34,0,0,1-.85.89,1,1,0,0,0,.88-.73c.23,1.32-3,2.34-3.54-.17a4.33,4.33,0,0,1,0-1.39m1.68-.38c.08-2,2.67-2.41,4.21-2.32-1.29.16-3.67.48-3.87,2.09,0,.29.21.16.29,0,0,.08.05.2.06.28l-.2.12-.34-.07v-.05Zm5.28-7.56a21.36,21.36,0,0,1-1.12-6.4,18.25,18.25,0,0,1,.41-4.29,15.06,15.06,0,0,1,.6-2,10.74,10.74,0,0,1,1.21-2.26A7.24,7.24,0,0,1,20.1,8.37a6.46,6.46,0,0,1,4.46-.26A5.35,5.35,0,0,1,27.31,10a4.54,4.54,0,0,1,.43,2.91,2.62,2.62,0,0,1-2.55,2.35,2.12,2.12,0,0,1-1.9-1.18c-.27-.61-.17-1,.66-1.56-.88,1.42.4,2.28,1.45,2.14A2,2,0,0,0,27,13a2.56,2.56,0,0,0-1.09-2.6,3.31,3.31,0,0,0-4.22.62,3.78,3.78,0,0,0-.82,2,4.89,4.89,0,0,0,0,.54,4,4,0,0,0,.5,1.9,4.26,4.26,0,0,0,5.16,2c2.3-.58,3.4-2.25,3.65-4.66a6.52,6.52,0,0,0-1.52-5.09c-.11-.13-.22-.25-.34-.37a6.92,6.92,0,0,1,1.2,7.31,4.65,4.65,0,0,1-7,1.91c-.06,0,.05-.3.17-.21a4.39,4.39,0,0,0,6.71-1.78,6.73,6.73,0,0,0-1.12-7.06,7,7,0,0,0-1.54-1.4,6.84,6.84,0,0,0-2.36-.78A8.71,8.71,0,0,0,17.67,7l-.59.4-.46.3a1.45,1.45,0,0,1-1,1,9.65,9.65,0,0,0-2.14,3.7,4,4,0,0,0-.16.92,11.38,11.38,0,0,0-.72,6,2.55,2.55,0,0,0,.21.81,3.26,3.26,0,0,0,.31.54,1,1,0,0,1,.2.93A3.26,3.26,0,0,0,13,23.18a7.3,7.3,0,0,0,.79,2.15c.41-.23.76-.59,1.21-.14l.3.25a1.9,1.9,0,0,0,.54.4ZM20.26,8.88a7,7,0,0,0-3,2.41,10.55,10.55,0,0,0-1.15,2.07,12.84,12.84,0,0,0-.58,1.82,17.39,17.39,0,0,0-.5,4.31,21.1,21.1,0,0,0,2.51,9.86l.21.36a0,0,0,0,1,0,0l0,0h0l0,0a.06.06,0,0,1-.08,0l0,0h0l-.18-.33a19.21,19.21,0,0,1-1.42-3l0,0-.11,0a2.06,2.06,0,0,0-.52,1,1.18,1.18,0,0,0-.43.37c-.68,0-.9,0-1.36.57a1.91,1.91,0,0,1,.82,1.07h-.19a2.39,2.39,0,0,0-.85-1l-.33,0v-.21l.44-.13c.39-.61.77-.55,1.38-.62.12-.21.13-.23.35-.29a1.52,1.52,0,0,1,.61-1.08c.08-.06.12-.05.09-.16s0-.05-.1-.07l-.2-.05-.53-.3c-.69-.51-.81-.2-1.44.12a10.69,10.69,0,0,1-.89-2.32,3,3,0,0,1,.16-2,.55.55,0,0,0-.09-.57l-.4-.61a1.88,1.88,0,0,1-.28-.79,10.68,10.68,0,0,1,.63-6v-.33a.79.79,0,0,1,.22-1A21.1,21.1,0,0,1,15.3,8.41C18,6,20.54,4.18,24.42,4.9a10.07,10.07,0,0,1,4.07,1.65c-.09-.56.57-1.32.9-.64A.88.88,0,0,0,28.9,7l.28.35a7.7,7.7,0,0,1,1.72,5.57,6,6,0,0,1-4.2,5.25c-2.13.57-4.16-.29-5.54-2.55a3.61,3.61,0,0,1-.51-2.07,3.57,3.57,0,0,1,1.29-3.21A4.88,4.88,0,0,1,25,9.56l.34,0c.22,0,.44.06.67.1C24.4,8,21.07,8.53,20.26,8.88ZM25.88,10a6.07,6.07,0,0,0-4.44-.21,6.15,6.15,0,0,0-1.91,1,5,5,0,0,0-.65.57q-.3.32-.57.66a10.13,10.13,0,0,0-1.73,4.1h0a18,18,0,0,0-.25,2.22,17.41,17.41,0,0,0,.06,2.28,20.11,20.11,0,0,0,3.8,9.47l-.17,0a20.1,20.1,0,0,1-3.75-9.42,17.72,17.72,0,0,1-.06-2.3,16.69,16.69,0,0,1,.25-2.24h0a10,10,0,0,1,1.76-4.15,7.59,7.59,0,0,1,.57-.68,7.21,7.21,0,0,1,.66-.58,9,9,0,0,1,.76-.5,6.87,6.87,0,0,0-1,.62h0a5.7,5.7,0,0,0-.64.56A5.18,5.18,0,0,0,18,12a9.86,9.86,0,0,0-1.73,4.1h0a14.93,14.93,0,0,0-.25,2.22,19.5,19.5,0,0,0,.05,2.29,20.32,20.32,0,0,0,3.8,9.46l-.17,0A20.29,20.29,0,0,1,16,20.65a16.09,16.09,0,0,1-.05-2.3,16.5,16.5,0,0,1,.24-2.24h0A10.16,10.16,0,0,1,17.93,12a6.19,6.19,0,0,1,.58-.67,4.57,4.57,0,0,1,.66-.58A6.36,6.36,0,0,1,20.24,10a6.73,6.73,0,0,0-1.3.77h0a5.68,5.68,0,0,0-.64.57,7.3,7.3,0,0,0-.57.66A9.86,9.86,0,0,0,16,16.13h0a14.92,14.92,0,0,0-.25,2.23,19.38,19.38,0,0,0,.05,2.28A20.18,20.18,0,0,0,19.5,30l-.17,0a20.1,20.1,0,0,1-3.65-9.27,19.67,19.67,0,0,1,0-2.3,15.05,15.05,0,0,1,.25-2.24h0A10.1,10.1,0,0,1,17.63,12a7.68,7.68,0,0,1,.58-.68,7.21,7.21,0,0,1,.66-.58A7.65,7.65,0,0,1,21.1,9.46,6.81,6.81,0,0,1,26,9.69Zm-4.57,9.32a1.08,1.08,0,0,0-.18.24.55.55,0,0,1,.31-.14.29.29,0,0,1,.16,0,.43.43,0,0,1,.16.07h0a.47.47,0,0,1,.14.14.44.44,0,0,1,.1.22.4.4,0,0,1,0,.24.34.34,0,0,1-.09.08,2.31,2.31,0,0,0-.85,1,3,3,0,0,0-.11,1.33,8.3,8.3,0,0,0,1.6,3.93c.16.23.33.45.5.66s.35.42.54.62h0l.06.06a7.88,7.88,0,0,0,.84.67,5,5,0,0,0,.83.44,2.49,2.49,0,0,0,.78.23.77.77,0,0,0,.62-.31c-.16-.29,0-.38.14-.47s.12-.07.12-.11a.2.2,0,0,0,0-.07c0-.31,0-.48.28-.54a1.79,1.79,0,0,1,1.09.16l.19.1.14.12h0a.89.89,0,0,1,.24.53,1.89,1.89,0,0,1,0,.66A1.93,1.93,0,0,1,27,30.58a3.85,3.85,0,0,1-.48,0,3.2,3.2,0,0,1-.46-.06,10.53,10.53,0,0,1-1-.26,6.61,6.61,0,0,1-1-.4,8.35,8.35,0,0,1-3-3.07c-.14-.24-.28-.48-.4-.72s-.22-.47-.31-.7a10.65,10.65,0,0,1-.74-3.65c0-.24,0-.47,0-.7s0-.46.08-.68a5.72,5.72,0,0,1,.27-1.14,3.35,3.35,0,0,1,.55-1,2.58,2.58,0,0,1,1.31-.82,2.3,2.3,0,0,1,1,0,1.38,1.38,0,0,1,.82.53,1.63,1.63,0,0,1,.28,1,1.34,1.34,0,0,1,0,.2,1.94,1.94,0,0,1-.05.2,1,1,0,0,1-.35.51l-.19.06a.4.4,0,0,1-.19,0,.54.54,0,0,1-.28-.24.46.46,0,0,1-.05-.2.35.35,0,0,0-.08-.26.72.72,0,0,0-.28-.16.8.8,0,0,0-.59,0,1.62,1.62,0,0,0-.56.39m-.48.57a1.79,1.79,0,0,1,.39-.65,1.53,1.53,0,0,1,.6-.42,1,1,0,0,1,.68,0,1,1,0,0,1,.32.19.47.47,0,0,1,.13.34.34.34,0,0,0,0,.15.42.42,0,0,0,.22.18.3.3,0,0,0,.13,0,.34.34,0,0,0,.14,0,.73.73,0,0,0,.3-.44.61.61,0,0,0,0-.18,1,1,0,0,0,0-.17,1.55,1.55,0,0,0-.26-.9,1.26,1.26,0,0,0-.75-.48,2,2,0,0,0-1,0,2.38,2.38,0,0,0-1.24.78,3.33,3.33,0,0,0-.54,1,5.51,5.51,0,0,0-.26,1.12,4.9,4.9,0,0,0-.07.67c0,.22,0,.46,0,.69a11,11,0,0,0,.73,3.61c.09.22.2.45.31.69s.25.47.4.71a8.21,8.21,0,0,0,2.94,3,5.56,5.56,0,0,0,1,.39,10.18,10.18,0,0,0,1,.26h0a3.11,3.11,0,0,0,.44.06H27a1.82,1.82,0,0,0,1.75-1.28,1.63,1.63,0,0,0,0-.61.78.78,0,0,0-.21-.46h0a.63.63,0,0,0-.12-.1l-.17-.09a1.61,1.61,0,0,0-1-.15c-.16,0-.17.17-.19.43v.07c0,.11-.1.16-.19.21s-.11.15,0,.36a.06.06,0,0,1,0,.08,1,1,0,0,1-.83.35,2.2,2.2,0,0,1-.83-.24,4.28,4.28,0,0,1-.85-.45,6.3,6.3,0,0,1-.85-.68l-.07-.06h0a8,8,0,0,1-.54-.62c-.18-.22-.35-.44-.51-.67a8.52,8.52,0,0,1-1.63-4,3.06,3.06,0,0,1,.13-1.38,2.41,2.41,0,0,1,.89-1.09l.05-.05a.2.2,0,0,0,0-.15.38.38,0,0,0-.08-.17l-.11-.11h0a.31.31,0,0,0-.12-.05.25.25,0,0,0-.12,0,.87.87,0,0,0-.51.4.05.05,0,0,1-.08,0,.11.11,0,0,1,0-.07M22,28.18l.29.22.39.41c.36.28.72.56,1.09.83l.87.43.88.29,1,.18.76,0,.73-.33.42-.31c.09-.15.17-.31.26-.47s.07-.39.1-.58v-.32l-.21-.41-.38-.22-.51-.16-.37,0,.23-.06a1.38,1.38,0,0,1,1.2.32,1.45,1.45,0,0,1-.18,2.34l-.66.26-.45.37-.39.22c-1.91.06-4-1.46-5.1-2.94m4.73.41-.07,0,.08-.11.13-.06.19-.28c0,.13,0,.17.09.17.61,0,.43.71,0,1,.23-.37,0-1.25-.47-.72M28,28.07S27.93,28,28,28A.06.06,0,0,1,28,28a1.05,1.05,0,0,1,.14,1.78c-1.35,1.3-4.25,0-5.32-1.09a.06.06,0,0,1,.09-.09c1.06,1.11,3.72,2.29,5,1,.44-.42.67-1.16,0-1.5m-6.12-8.5-.16-.05c-.28-.09-.43,0-.7.14a4.24,4.24,0,0,1,.43-.52l.28-.2.35-.13.48,0,.28.22a1,1,0,0,1,0,.17c0,.1.07.2.1.31l.21.14.24,0,.28-.21.18-.38c0-.11,0-.22,0-.34s-.08-.23-.1-.36c-.11-.42-.24-.5-.62-.71l1.61.39c0,.43-.3.36-.31.42a2.35,2.35,0,0,1-.91,1.58l-.2.2a3.85,3.85,0,0,0-.83,3.63,5.64,5.64,0,0,0,1.1,2.5,5.91,5.91,0,0,0,2,1.83,1.61,1.61,0,0,0,1.05.2c0,.07,0,.14,0,.21a1.93,1.93,0,0,1-1.09-.05,5.27,5.27,0,0,1-2.54-2,7.47,7.47,0,0,1-1.3-2.5A4.1,4.1,0,0,1,22,20.43a3.31,3.31,0,0,1,.39-.44.47.47,0,0,0,0-.65c-.21-.27-.39-.1-.59.23m-.93,3.13a2.26,2.26,0,0,1,.67-2.39l.3-.23c.11-.29,0-.4-.22-.63.56.2.53.36.46.94-.94.35-1.09,1.38-1.21,2.31m2.37-3.28a.05.05,0,0,1-.08,0,.06.06,0,0,1,0-.09.64.64,0,0,0,.16-.85,1.42,1.42,0,0,0-1.13-.68.07.07,0,0,1-.06-.07.06.06,0,0,1,.06-.06,1.68,1.68,0,0,1,1.37.65.93.93,0,0,1-.32,1.1M18.25,33.84h0a18.2,18.2,0,0,1-1.91-.31,2.55,2.55,0,0,0-2.24,1.29,1.21,1.21,0,0,0-.2.55.76.76,0,0,0,.22.65c.12.16.24.35.46.37s.17-.06.18-.17a1.63,1.63,0,0,1,.35-.92,1.21,1.21,0,0,1,.84-.48,2.92,2.92,0,0,1,.73-.06,5.65,5.65,0,0,1,4.16,2.79A4,4,0,0,1,21.23,39a2.43,2.43,0,0,1-.57,1.66,2.8,2.8,0,0,1-.39.37,2,2,0,0,0,1.65-1.9,3.55,3.55,0,0,0-.51-1.71,2.88,2.88,0,0,0,.82,1,1.13,1.13,0,0,0,.74.1c.16,0,.3.09.41,0,.34-.22-.28-1-.44-1.21a6.92,6.92,0,0,0,3.46,1.36,6.37,6.37,0,0,0,1.8,0,4.58,4.58,0,0,0,2.69-1.09,3.4,3.4,0,0,0,.55-.9,1.51,1.51,0,0,1-.3,1.1,4.9,4.9,0,0,1-2.9,1.3A7.54,7.54,0,0,1,24,38.51l-.33-.17c-.05.66-.16.54-.68.5a.69.69,0,0,0-.24,0c0,1,0,2.06-1.11,2.48a1.78,1.78,0,0,1-1.92-.23,1.64,1.64,0,0,0,.79-.58,1.89,1.89,0,0,0,.43-1.45,4,4,0,0,0-.45-1.43c-.65-1.07-3.3-2.86-4.59-1.84a1.87,1.87,0,0,0-.42.55.92.92,0,0,1-.84.53.89.89,0,0,1-.63-.3,1.28,1.28,0,0,1-.21-.28,1.73,1.73,0,0,1-.24-1,1.28,1.28,0,0,1,.13-.56,2.9,2.9,0,0,1,4.12-1.17c-.55-.63-1.35-1.34-1.94-2,.08,0,.44.05.61.06a17.49,17.49,0,0,0,1.77,2.19m-1.37-.61s.47.12.47,0-.14-.3-.28-.46l.27.11.43.43.17.31-.53,0-.57-.19ZM14.77,36.1c0-.53-.08-.88.2-1.18.67-.74,2.35-.52,3.15-.24l.19.08c.41.16.35.48,0,.33-.93-.41-2.16-.76-3,0,0,.19,0,.38,0,.57l-.49.42M17,34.29a.07.07,0,0,1-.07-.06.06.06,0,0,1,.06-.06,3.27,3.27,0,0,1,1.26.16,4.16,4.16,0,0,1,1.11.62.06.06,0,0,1,0,.09.05.05,0,0,1-.08,0,4.07,4.07,0,0,0-1.08-.6A3,3,0,0,0,17,34.29m5.42,3.43a.63.63,0,0,0,.22.21c.08,0,.13,0,.17,0s0-.15-.13-.24l-.28-.28c-.35-.43.18-.21.29,0s.12.17.17.26.19.22.07.39-.23.1-.42,0-.22-.11-.35-.26a2.9,2.9,0,0,0-.36-.34l-.07-.08c-.17-.2,0-.22.15-.12a3.25,3.25,0,0,1,.54.44m4,.66a.26.26,0,0,1-.2-.19c-.05-.17.07-.23.22-.2a.49.49,0,0,1,.17.12,3.12,3.12,0,0,0,3.36-2c.06-.19.14-.4,0-.57s-.14-.14-.21-.05a1.69,1.69,0,0,1-.3.36c-1.54,1.38-3.35,1-5,.34a14,14,0,0,1-2.21-1.15l-.85-.64a9.13,9.13,0,0,1-1.74-2c.3.06.72.24,1,.3a9,9,0,0,0,1.24,1.37c0,.68,1.17,1.12,1.73,1.31a2.49,2.49,0,0,0,1.84-.09,1.21,1.21,0,0,0,.55-2c.16,0,.49,0,.65-.06a8.93,8.93,0,0,1,.58,1.26c-.56-.05-1.11,1.46-2.31,1.2l.3.53a4.45,4.45,0,0,0,4.19-.57.79.79,0,0,0,.24-.36c.14-.27.26-.23.43,0a1.18,1.18,0,0,1,0,1.07c-.44,1.43-2.23,1.93-3.71,1.91m-4.61-4.17a.07.07,0,0,1,0-.09.08.08,0,0,1,.08,0l0,0a4.52,4.52,0,0,0,2.26,1.12,1.77,1.77,0,0,0,1.05-.13,1.22,1.22,0,0,0,.55-.47A1,1,0,0,0,26,34a1.26,1.26,0,0,0-.24-.71.06.06,0,0,1,.09-.07,1.29,1.29,0,0,1,.27.77,1.14,1.14,0,0,1-.17.72,1.42,1.42,0,0,1-.61.52,1.85,1.85,0,0,1-1.12.14,4.35,4.35,0,0,1-1.73-.75A6.15,6.15,0,0,1,21.84,34.21Zm-1-23.49a.4.4,0,0,0-.5.11c0-.27,0-.24.25-.35.17,0,.19,0,.31-.13.21.18.12.17-.06.37m-1.18,3.19c-.08-.06-.16-.09-.17-.19a.08.08,0,0,1,0-.06c.07-.07.1-.05.17,0l.07.11c0,.11,0,.11-.09.15m.1-.53c0-.07,0-.1,0-.13s.07-.09.14-.07.07,0,.08.06a.36.36,0,0,1,0,.18c-.06.08-.15,0-.19,0m.37.42c-.09-.07-.12-.09-.13-.16s0-.09.08-.14l.11,0a.07.07,0,0,1,.05.08.15.15,0,0,1,0,.13l-.07.06m.57.46c-.09,0-.23-.1-.32-.19s-.05-.05-.05-.09,0-.07.05-.08.08,0,.14,0l.17.08c0,.08,0,.17,0,.25m-.16-1c-.08.13-.11.14-.17.1s-.1-.07-.1-.12a.1.1,0,0,1,0-.09c0-.08.11-.06.18,0a.21.21,0,0,1,.08.06.08.08,0,0,1,0,.08m-.55-.4c0-.05,0-.09.07-.15a.11.11,0,0,1,.13,0,.17.17,0,0,1,.07.13.14.14,0,0,1,0,.13l-.08,0c-.09,0-.12-.06-.15-.14m.35-.44a.13.13,0,0,1,.23,0c0,.08,0,.13,0,.17a.14.14,0,0,1-.2-.19m.51-.35L20.67,12l-.14-.07,0-.14.07-.1.1,0v-.09l0-.13.08-.09.1,0,.07.1.05.12s0,.18,0,.16-.06.31-.06.31ZM20.24,12a.19.19,0,0,1,.13.05s0,0,0,.07-.09.09-.15.09-.07,0-.09-.06a.12.12,0,0,1,0-.1C20.18,11.94,20.18,12,20.24,12ZM20,11.74a.12.12,0,0,1,0-.13.12.12,0,0,1,.08-.09s.05,0,.08,0,0,0,0,.07a.3.3,0,0,1-.08.16.06.06,0,0,1-.07,0s0,0,0-.06m-.21.25c-.05.09-.18.18-.2,0s0-.14.08-.18.1.05.12.15m.05.52c-.06,0-.08-.06-.08-.1a.15.15,0,0,1,.3-.05c-.07.15-.06.15-.22.15m-.11.36c0,.11,0,.12-.08.11s-.09,0-.1-.07,0-.09,0-.12a.11.11,0,0,1,.12,0c.09,0,.08,0,.06.12m-.29-.24c-.07,0-.08,0-.09-.11a.09.09,0,0,1,0-.11s0,0,.11,0a.11.11,0,0,1,.07.09c0,.06,0,.14-.06.16l-.07,0m.6,1.71a.9.9,0,0,1-.19-.15c-.11-.11-.05-.23.1-.18a.35.35,0,0,1,.09.06l.15.13a3,3,0,0,0,.38.23l.24.14a.77.77,0,0,1,0,.15l-.13,0A6.27,6.27,0,0,1,20.07,14.34Zm1-2.78c-.18-.52-.82-.91-1.17-.18-.27.07-.39.1-.49.39s-.29.26-.24.57a1.73,1.73,0,0,0,.21,1v.12l-.16,0-.07-.22c-.08-.24-.2-.08-.17.13.08.74,1.37,1.48,1.94,1.69l-.12-.69c0-.39-.07-.79-.1-1.18l.12-.95.15-.43ZM21,15.24s.25.25.17.24a3.37,3.37,0,0,1-1.7-.9,5.33,5.33,0,0,0,1.53.66m-2.71-.74a.11.11,0,0,1-.09,0c-.09,0-.14-.08-.09-.16s.08,0,.13,0,.13.1,0,.16m.57.56-.3-.16c-.1-.09-.2-.13-.21-.22s0-.11.1-.12.06,0,.12,0l.15.1.34.24.08.06c.14.16-.21.09-.28.05m-.83-.17c.1,0,.1.08.05.12s-.09.05-.15,0,0-.17.1-.13m.4.43c0,.18-.13.13-.2,0s0-.12.05-.13.14,0,.15.11m.4.17a.15.15,0,0,1-.26.15.14.14,0,0,1,0-.07c0-.15.06-.17.18-.14s.09,0,.1.06m.89.34a.23.23,0,0,1,.11.27.1.1,0,0,1-.07.08c-.18.06-.27-.15-.24-.28s0-.06,0-.07.09,0,.16,0m-.59-.19c.08,0,.1,0,.13.1v0c0,.11,0,.15-.12.17S19,15.9,19,15.82s0-.2.13-.18m-.51,1c0,.1,0,.11-.08.16s-.11,0-.14,0-.11-.11,0-.17a.15.15,0,0,1,.08,0,.12.12,0,0,1,.1,0A.14.14,0,0,1,18.64,16.61Zm-.07-.27a.25.25,0,0,1-.16-.3c0-.08.08-.08.17-.08a.13.13,0,0,1,.08,0,.17.17,0,0,1,.09.18s0,0,0,0-.06.15-.17.12M18,15.87c0-.08,0-.13,0-.16a.12.12,0,0,1,.12,0c.07,0,.09,0,.1.08s.06.14,0,.2L18.2,16a.13.13,0,0,1-.15,0,.1.1,0,0,1,0-.1Zm-.1-.27c0,.12,0,.18-.17.17s-.07,0-.1-.13,0-.13.07-.16.2,0,.2.12Zm1.35,1.07c-.08-.08-.08-.06-.19-.06a.19.19,0,0,1-.2-.14.25.25,0,0,1,0-.15c0-.1.06-.14.2-.07a.31.31,0,0,1,.09.07c0,.05,0,.08.08.11s.07,0,.14,0,.08,0,.2,0a.23.23,0,0,1,.13.25c0,.07,0,.08-.15.09s-.21,0-.3-.11m2-1.14a3.32,3.32,0,0,1-2.06-.79c-.15-.12-.29-.24-.44-.38l-.15-.23c-.13-.32-.43-.34-.47,0-.24,0-.3.15-.28.37-.27.09-.25.21-.25.47a1.11,1.11,0,0,0-.24.55c-.05.51.38.58.77.69-.13.53.07.79.66.81a2.05,2.05,0,0,0,.41.16c.11,0,.19,0,.19,0s-.06-.13-.13-.16-.24,0-.32-.1,0-.05,0-.12l.42.08a.53.53,0,0,1,.29.18,2.26,2.26,0,0,0,1.06.24,1.4,1.4,0,0,0,.3,0c.19-.05.18-.15.1-.23s-.55-.05-.73-.07-.46-.05-.46-.19.16-.1.27-.08a3.31,3.31,0,0,0,.55.08c.22,0,.43,0,.65,0a.43.43,0,0,0,.29-.08c.05,0,0-.08,0-.12s-.12-.08-.24-.06l-.53,0a.89.89,0,0,1-.7-.23c-.17-.17-.15-.23.1-.25a1.33,1.33,0,0,1,.35.08,2,2,0,0,0,.95,0c0-.08-.07-.15-.1-.22l-.25,0a1.89,1.89,0,0,1-.88-.1c-.28-.13-.56-.23-.82-.37a.33.33,0,0,1-.16-.17c-.07-.13.33,0,.39.08a2.43,2.43,0,0,0,1.56.33ZM17.66,31.91l.17-.07.34.06c.14.18-.3.08,0,.45.1.12.09.19.1.36a1.31,1.31,0,0,1-.62-.8m-.86-.14.19-.1.41,0c.17.2-.34.13,0,.52a.6.6,0,0,1,.16.41,1.53,1.53,0,0,1-.8-.86m1.48.15.17-.08.34.06c.14.18-.39.19,0,.45a1.45,1.45,0,0,1,.37.69,2,2,0,0,1-.89-1.12m.76.27.16-.07.35.05c.13.19-.39.2,0,.46a1.35,1.35,0,0,1,.38.68A2,2,0,0,1,19,32.19m.45.39-.18,0s0-.23,0-.25.18,0,.22,0a2.92,2.92,0,0,1,.35.1,1.72,1.72,0,0,1,.11.29l-.09.11c-.08-.1-.44-.47-.39-.24m-.67-.09c-.05,0-.15-.1-.18-.11a.68.68,0,0,1,0-.25s.18,0,.22,0l.35.1a1.72,1.72,0,0,1,.11.29l-.09.1c-.08-.09-.53-.51-.4-.14m8.53,1.68c0,.14-.05.28-.08.42L27,34.44c-.88-2.17-.22-4.08,2.11-4.36a1.37,1.37,0,0,0,.36-1.47,1.34,1.34,0,0,1-.09,1.46,4.05,4.05,0,0,1,4.38,3.71,5,5,0,0,1-.38,2.57,2.74,2.74,0,0,1-.62.95c-.07-.13-.32-.67-.54-.46-.05,0-.06.15,0,.28s.09.17.14.26c-.27-.05-.31,0-.32.3-.27-.2-.45-.28-.51.11l-.3-.36a2.35,2.35,0,0,0,.9-1,5,5,0,0,0,.69-2.78c-.13-2-1.65-3.71-3.68-3.34-1.54.29-2.52,1.19-2.38,2.65.06.55.11.87.57,1.16m-.77-1.71-.08-.06a4.65,4.65,0,0,0-2.19-1l-.13-.11a5.11,5.11,0,0,1,2.46.94l-.06.21m-.4.41c.21,0,.24,0,.28-.1a1.35,1.35,0,0,0,0-.28,2.67,2.67,0,0,1,.65-1.4c0,.14-.23.62-.26.76l-.16.57c0,.38.05.76.07,1.13-.36-.15-.58-.27-.62-.68m5.66,3.49a5,5,0,0,0,.61-3.09A3.27,3.27,0,0,0,30.89,31a3.78,3.78,0,0,0-2.18-.36,2.79,2.79,0,0,1,2.29.18,3.71,3.71,0,0,1,1.59,2.42,4,4,0,0,1-.75,3.15m-.91-.54a1.18,1.18,0,0,1,0-.27c0-.19.06-.35.19-.1a.49.49,0,0,1,.07.19,2.29,2.29,0,0,1,0,.64,2.48,2.48,0,0,1-2.29,2.13c1-.47,1.93-.83,2.08-2a1.54,1.54,0,0,0,0-.57m.2,1.52a3.93,3.93,0,0,0,.27-.72c.05-.2.2-.18.19-.06s-.18.48.12.29a2,2,0,0,0,.68-.83c0,.18.12.41.15.59l-.29.1a2.61,2.61,0,0,1-.56.54l-.27.19-.29-.1m-2.57-4.57c0,.09-.06.25.05.3s.22-.18.3-.39c.35-.94,2-.86,2.58-.18,0,.14-.14.36-.25.45-.17-.26-.49-.3-.25,0l-.15.07c-.31-.24-.39-.09-.39.07s0,.29-.27.26-.2,0-.21.13a1.3,1.3,0,0,1-1.09,1.2,2.17,2.17,0,0,1-1.47-.41c-.25,0-.27-.22-.38-.43l.22,0c.2,0,.19.09.31.23a1,1,0,0,0,.66.38,1.17,1.17,0,0,0,1.53-.91.89.89,0,0,0-.11-.76c-.29-.35-.48-.22-.51.12-.12,1.07-1.41.59-1.58-.28-.08-.44,0-1,.4-1.1.21-.05.56,0,.51.29,0,.11-.11.16-.22.32a.78.78,0,0,0-.1.58c0,.16,0,.19.12.19s.1-.24.1-.37a.53.53,0,0,1,.05-.25c.09-.16.23-.19.28-.07s-.05.31-.09.42a.49.49,0,0,0,0,.11m2.82-.39.11.12a2.76,2.76,0,0,1,.38.58A2.38,2.38,0,0,1,32,34.61c0,.12-.06.24-.08.36s-.12.36-.34.28-.16-.13-.2-.3c0-.46-.25-.62-.7-.63-.29,0-.56.07-.63.4A1.51,1.51,0,0,0,30,35c.06.21.15.39.2.59v.2c-.07-.09-.13-.21-.2-.29s-.13-.09-.18-.15l-.06-.25c0-.17-.06-.22-.16-.16s-.08.05-.15,0a.08.08,0,0,1-.06-.08.46.46,0,0,1,.15-.24A1.29,1.29,0,0,0,30,33.34l.14,0,.12.1a1.22,1.22,0,0,0,0,.27c0,.1,0,.14.08.17s.08,0,.11-.06a.24.24,0,0,0,0-.17.21.21,0,0,1,0-.19c.05-.05.11,0,.17,0s.07.16.06.29a.36.36,0,0,0,0,.17c0,.12.14.07.18,0a.53.53,0,0,0,0-.31c0-.1-.06-.2-.08-.3l-.11-.3.09-.07h.1a1.05,1.05,0,0,1,.21.73V34c.06.19.19.14.23,0a2.14,2.14,0,0,0,0-.36c0-.16-.08-.28,0-.31s.19.45.18.56,0,.39,0,.59c.09.61.2-.11.22-.31a2,2,0,0,0-.09-.76c-.07-.18-.17-.3-.38-.29a.21.21,0,0,1-.2,0c-.09-.07-.06-.18,0-.28l.28-.36m-1.81,2.3.22.14c.05.09.09.17.13.26s-.05.21-.07.31-.11.11-.17.17c-.05-.1-.06-.14-.11-.17s-.24,0-.15.17.13.08.16.14l0,.12-.19.07a.51.51,0,0,0-.21-.29l-.07-.06c-.15-.12-.31,0-.17.18a2,2,0,0,1,.22.31s-.25.1-.25.1l-.14-.2a.67.67,0,0,0-.39-.43.36.36,0,0,1-.29-.25c-.15-.33-.62-.46-.88-.73l.07-.12a1.86,1.86,0,0,0,2.34.28m-2.29,0c-.06,0-.1,0,0,.1l.46.42c.15.13.21.11.22-.11a1.1,1.1,0,0,1,.24.16s0,.24,0,.24a.2.2,0,0,0,0,.16c0,.15.1.17.21.26a1.66,1.66,0,0,1,.32.43l-.14.06h-.13l-.13-.12a.44.44,0,0,0-.08-.11.16.16,0,0,0-.08-.08c-.08,0-.11,0,0,.13a.46.46,0,0,1,.07.07l.1.18-.23.1-.28-.41a5.07,5.07,0,0,0-.79-.88l-.38-.31a1.43,1.43,0,0,1,.14-.2,1.64,1.64,0,0,1,.5.48.44.44,0,0,0,.14.13s0,0,.06,0,0-.12-.09-.2a3.63,3.63,0,0,0-.48-.48l.31-.14.17.08,0,.07m-1.79,1.82-.21,0L25,36.24c0-.17-.11-.34-.16-.51l1-.37.51-.51.46.17.27.24c-.05,0-.12.11-.17.07s-.14,0-.14,0-.18,0-.3,0-.07,0-.09,0,0,.13,0,.21-.22.06-.3,0c0,.18-.06.2-.22.14l0,.1a1.52,1.52,0,0,1,.43.77s-.45-.12-.48-.14-.07-.28-.12-.35a.31.31,0,0,0-.27-.16c-.1.08-.06.09,0,.21l.12.23m3.8,2.75c-.05.15-.19.16-.38.09-.07.11-.1.13-.19,0s-.13.17-.2.13-.05-.09-.11-.12,0,0-.08,0-.12.2-.19.12-.07,0-.08.07-.1,0-.13,0c.06-.4-.33-.49-.27-.6l1,0,.78-.28.15.37c0,.1.05.15,0,.25-.41.23-.12-.19-.37-.18m-4.13,3.33a1.61,1.61,0,0,0-.51.39c-.46.51-.15,1.18.16,1.69-.6-.6-.86-1.16-.35-1.88a1.24,1.24,0,0,1,1.24-.64c.62.11.43.44,0,.79s-.61.35-.52.78c0,.21,0,.41.21.51,1,.6,2.32-.51,2.51-1.47A2.28,2.28,0,0,0,27.33,41l-.64-.5a3.18,3.18,0,0,0-2.68.36,3.71,3.71,0,0,0-1.61,2.1,2.23,2.23,0,0,0,.51,2.25,3.29,3.29,0,0,0,.83.7,4,4,0,0,0,4.44-.11,6.87,6.87,0,0,0,1.6-1.84c.82-1.68.13-3.5-.39-5.15,0,0,.21,0,.25-.06.57,1.66,1.11,3.46.38,5.19a1.35,1.35,0,0,0,.48-.27l.12.18c-.13.09-.24.18-.36.28a8.39,8.39,0,0,0-.65.68A11.69,11.69,0,0,1,28.31,46a4.21,4.21,0,0,1-5,0,3.54,3.54,0,0,1-.75-.65,2.66,2.66,0,0,1-.44-2.58,3.59,3.59,0,0,1,1.74-2.23,3.15,3.15,0,0,1,2.83-.26c.17,0,.53,0,.64.11,0,0,.06,0,0,.1s0,.14.11.19.29,0,.15-.1l-.14-.13c-.21-.19-.1-.4.09-.32s.15.13.2.25l.06.14s0,.1.05.15c.08.22.32.18.24,0a.16.16,0,0,0,0-.08.67.67,0,0,1-.13-.69c-.16-.27-.32-.54-.49-.8l.37,0a5.13,5.13,0,0,1,.63,3.75c-.34,1.38-2.15,2.67-3.53,1.69A1.11,1.11,0,0,1,24.78,43a3.7,3.7,0,0,1,.38-.42m.7-2.24.42,0c0,.17,0,.21.17.3a1.9,1.9,0,0,1,1.2,1.78,1,1,0,0,1-.44.82,1.49,1.49,0,0,0,.31-.86c.06-1.56-1.69-1.9-2.85-1.63a2.08,2.08,0,0,1,1-.29c.13,0,.14,0,.18-.15M18.58,18.4l-.15,0-.14,0c-.05-.09-.05-.09,0-.17a.6.6,0,0,1,.23,0c.09,0,.08,0,.08.13l0,.06m-.53-.46c.18.15.11.22-.07.27a.2.2,0,0,1-.22-.05l-.06-.07c-.15,0-.25-.08-.06-.18h.11c.08.07.08.08.17,0Zm0,.53c.11.1.1.09.05.23a.45.45,0,0,1-.32,0c-.09,0-.08,0,0-.2l.12-.05h.17m.58.45h-.17c-.11,0-.12,0-.13-.13s0-.07,0-.09a.22.22,0,0,1,.19,0,.13.13,0,0,1,.08.24m-.56.16c.09,0,.19.08.09.17a.13.13,0,0,1-.12,0c-.12,0-.15,0-.13-.1s.08-.11.16-.1m.81.17c.07,0,.12,0,.07.12s-.06.05-.14.08h-.16l-.11,0c-.22-.08,0-.17.11-.2l.23,0m1.2-1.39.18,0c.17,0,.22,0,.26-.17s0-.18-.16-.2H20a5.27,5.27,0,0,1-.79,0,2.9,2.9,0,0,1-.57-.18.9.9,0,0,0-.52-.15c-.11,0-.15.06-.12.16s.16.15.32.18a4.15,4.15,0,0,1,.68.22,1.05,1.05,0,0,0,.48.11c.29,0,.46.12,0,.21a3.54,3.54,0,0,1-1.23-.31l-.28-.08c-.23-.07-.32-.38-.57,0a1.12,1.12,0,0,0,.2,1.57,1.53,1.53,0,0,0,1.14.52l.48,0,.07,0c.17-.11.1-.12.05-.24s0-.09.07-.09a.92.92,0,0,0,.29,0c.21-.06.19-.22.06-.28a1.19,1.19,0,0,0-.65,0L19,18.88a2,2,0,0,1,1.22-.14c0-.1.11-.19.17-.29h-.25c-.32,0-.65.06-1,.07a.25.25,0,0,1-.15,0c-.16-.07,0-.14.08-.16s.39,0,.61-.05.5-.07.4-.41m-3.73,2.58c0-.15-.05-.29-.08-.44s0-.53,0-.8,0-.48,0-.72a1.51,1.51,0,0,0,.3.8.34.34,0,0,1,0,.55c-.24.17-.22.32-.27.61m0-2.84c0-.19.06-.75.09-1s.07-.48.1-.72l.09-.33a4.06,4.06,0,0,1,0,1.1c.12,0,.15,0,.2,0a.18.18,0,0,1,0,.24c-.09.19-.29.28-.37.48s-.06.18-.08.18m1,7.31-.11-.23-.15-.43L17,23.86l.2.12a.5.5,0,0,1,.18.63l0,.3m.34-12,.09-.2a3.62,3.62,0,0,0,.22-.32l.26-.39.27-.29a2.87,2.87,0,0,0-.28.68c0,.25,0,.27-.26.33a.73.73,0,0,0-.3.19M20.73,10a.36.36,0,0,0,0-.09l.73-.26L22,9.52c-.42.49-.59.48-1.25.44M21,30.22l-.36,0a2.4,2.4,0,0,0-.52-.1c-.05,0,0-.34,0-.34-.14-.21-.35-.35-.11-.53a3,3,0,0,0,1,1m.25,0c.24,0,.77-.39.74-.56s0,0,.06,0,0,.26-.07.36l.15.13c.22-.09.4-.17.48.09.25-.09,1.25-.42.94.14a1,1,0,0,0-.51.1c.31.16,2.07-.32,1.33.3a.58.58,0,0,0-.41.07c.3.67,1.08.24,1.36.74l-.63-.16L24,31.35l-1.07-.51-1.32-.44c-.27-.07-.68-.14-.44-.2,0,0,.06,0,.11,0m-2.67-9.88a2.93,2.93,0,0,1-.51-.13c-.13-.05-.23-.08-.27-.22s0-.18.17-.12a1.56,1.56,0,0,0,.26.11A2.34,2.34,0,0,0,19,20c.21,0,.34.11.15.28s-.43.06-.59,0m-.45,1c-.17-.11-.33,0-.45-.15l-.07-.06c-.11,0-.17.05-.19.09s0,.12,0,.14.25-.06.41.1l.19,0c.15,0,.14,0,.12-.15m-.34.46c-.17.21-.19.18.07.27l.26,0,0-.09c.05-.27-.21-.23-.38-.2m-.23.41c-.15,0-.14,0-.19.11s0,.05,0,.09.1.12.18.06.09-.08.07-.22l-.09,0m.72.71h-.11c-.12,0-.16.11-.11.18s.16.07.19.1.11,0,.12-.14,0-.08-.09-.15m-.08-2.14c-.1-.09-.26-.19-.38-.05s.07.27.32.35H19c.31,0,.28.28,0,.28h-.48c-.45.1.05.22.24.24H19c.21,0,.36.08.23.32l-.42.05c-.13,0-.47-.07-.46.12a.19.19,0,0,0,.09.14.54.54,0,0,0,.51,0,.47.47,0,0,1,.4.05v.13l-.13.1a1.8,1.8,0,0,1-.65,0,3,3,0,0,1-.43-.12c-.14,0-.2-.07-.23.08s0,.15.2.16a.53.53,0,0,1,.2.09,2.41,2.41,0,0,0,.71,0c.11,0,.38-.06.32.14s-.11.09-.28.1-.34,0-.44,0c-.31.12,0,.37.31.27a.24.24,0,0,1,.25.05c.28.21,0,.33-.19.32a1.44,1.44,0,0,1-1-.25,1.46,1.46,0,0,0-.51-.45c-.33-.23-.27-.34-.3-.75-.19-1-.18-2,1.23-1.65a1,1,0,0,0,.75,0c.12,0,.13-.1.21,0s0,.17-.16.23a1.41,1.41,0,0,1-.68,0c-.13.08-.2.09-.28,0m.31,3a.5.5,0,0,1,.43,0c.19.08.19.2-.14.31s-.18.18,0,.2a.53.53,0,0,0,.19,0c.24-.23.4-.18.44.06s0,.16-.2.19a1.61,1.61,0,0,1-.69-.05c-.39-.16-.69-.31-.19-.56l.16-.09m.27,2c.15-.08.11-.16.11-.33s-.08-.11-.16-.12-.11,0-.16.05l-.05.06a.13.13,0,0,0,0,.06.4.4,0,0,0,0,.18c0,.08.06.1.19.1Zm0,.21a.15.15,0,0,0,0,.17l0,.08.09,0c.08,0,.1,0,.14-.05s0-.13,0-.2-.14-.12-.21,0m1-.62-.26,0c-.13,0-.31,0-.42.07s0,.1,0,.17.34.1.53.1.26-.07.33.11,0,.09-.1.17a.23.23,0,0,1-.22,0c-.1,0-.19-.07-.26,0-.24.09-.3.4,0,.49a1,1,0,0,0,.5-.06.29.29,0,0,1,.28,0c.3.13.05.29-.16.32l-.18,0h-.38a1.21,1.21,0,0,1-.67-.21c-.35-.21-.64-.38-.66-.85,0-.08,0-.15,0-.23s0-.49.19-.63a.31.31,0,0,1,.39.05c.13.09.14.13.3.12h.21c.23,0,.57-.12.72.12.05.09.05.12-.1.21h0M20,27.31c-.26,0-.43.05-.64-.12s-.07-.17.25-.2l.44,0c.24,0,.63.07.28.3l-.33,0m.89,1.14c0,.13-.51.09-.56,0s.09-.17.12-.19.25,0,.34,0,.07,0,.08.06a.16.16,0,0,1,0,.11m.05.41c.28-.19.61.36.25.28,0,0-.07,0-.13-.07s-.19-.16-.12-.21m.78,0c.11-.18.1-.29,0-.32s-.42.08-.54,0,.15-.26.16-.34c0-.24-.15-.22-.45-.21-.52,0-.8.33-1-.13-.37-.43-.48.08-.23.39.64.87,1.1,1.5,2.39,1.25l.12-.05c.3-.12.22-.38-.1-.37a.35.35,0,0,0-.24.08.19.19,0,0,1-.17,0c-.06,0-.09,0-.1-.12S21.67,28.94,21.74,28.87ZM30.62,43.8l-.12-.18c.21-.17,1.51-.73,1.38-.07a.94.94,0,0,0,.53.9.88.88,0,0,0,1.1-.1,2.4,2.4,0,0,0,.93-1.88,5.89,5.89,0,0,0-.13-1.92,10.63,10.63,0,0,0-1.76-3.37L32.41,37l.06-.16.14,0,.29.19a27.07,27.07,0,0,1,1.64,3.5,4.74,4.74,0,0,1,.23,2,2.64,2.64,0,0,1-1.14,2.16,1.05,1.05,0,0,1-1.26,0c-.47-.23-.88-.55-.76-1.14a2.3,2.3,0,0,0-1,.25m2.83.65c-.06-.09.13-.14,0-.27s-.13-.07-.2,0a.69.69,0,0,1-.41.22c-.17,0-.34-.13-.12-.24A1.93,1.93,0,0,0,33.66,42a4.39,4.39,0,0,0-.2-1,.36.36,0,0,1,0-.09c-.15-.33.19-.24.33.06a3.37,3.37,0,0,1,.2,1.31,2.11,2.11,0,0,0,0,.25c0,.07,0,.07.07,0a1.55,1.55,0,0,0,.07-.31,4.11,4.11,0,0,0-.38-1.86,17.28,17.28,0,0,0-1.62-3l-.06-.21c0-.09.05-.17.07-.25l.16.17a26.74,26.74,0,0,1,1.66,3.24,4.56,4.56,0,0,1,.37,1.7.3.3,0,0,0,0,.21c.11.17.23,0,.28-.13l-.15.86L34.25,44l-.39.37-.41.13m-1.07-.79a.09.09,0,0,1-.13,0,.09.09,0,0,1,0-.13c1.63-1.22-.12-4.33-1.32-5.61a.09.09,0,0,1,0-.13s.1-.11.13-.08c1.28,1.36,3.06,4.68,1.31,5.95m.88-2.07a.09.09,0,0,1,.07-.11.1.1,0,0,1,.11.08h0c.15.8.09,2.08-.85,2.34a.09.09,0,0,1-.11-.06.1.1,0,0,1,.06-.12c.83-.23.85-1.42.72-2.13ZM30,40a.09.09,0,1,1-.07-.17,3.61,3.61,0,0,1,.63-.24,3.79,3.79,0,0,1,.67-.13.1.1,0,0,1,.1.09.09.09,0,0,1-.08.1,3.53,3.53,0,0,0-.64.11A4.48,4.48,0,0,0,30,40m-.15-.53a.09.09,0,0,1-.12,0,.09.09,0,0,1,0-.12A2.88,2.88,0,0,1,31,39l.26,0a.1.1,0,0,1,.11.08.1.1,0,0,1-.09.1l-.26,0a2.76,2.76,0,0,0-1.23.34m.34,1.11a.11.11,0,0,1-.13,0,.11.11,0,0,1,0-.13,5.16,5.16,0,0,1,.73-.28,5.38,5.38,0,0,1,.76-.15.11.11,0,0,1,.11.09.1.1,0,0,1-.08.1,3.75,3.75,0,0,0-.74.14,3.51,3.51,0,0,0-.69.27m.09.56a.09.09,0,0,1-.12-.06.09.09,0,0,1,.05-.11l.35-.13a3.27,3.27,0,0,1,1.29-.29.09.09,0,0,1,0,.18,3.13,3.13,0,0,0-1.22.28l-.35.13m.12.59a.1.1,0,0,1-.09-.17,4.11,4.11,0,0,1,2.17-.4h.11a.09.09,0,0,1,.09.09.1.1,0,0,1-.09.1h-.11a3.75,3.75,0,0,0-2.08.38m-.05.51a.09.09,0,1,1-.07-.17,4.22,4.22,0,0,1,1.39-.34,4.09,4.09,0,0,1,1.41.15.09.09,0,0,1,.07.11.08.08,0,0,1-.11.06A4.32,4.32,0,0,0,31.63,42a4.18,4.18,0,0,0-1.33.33m0,.59a.11.11,0,0,1-.13,0,.1.1,0,0,1,.05-.12,4.5,4.5,0,0,1,1.42-.36,5.62,5.62,0,0,1,1.46.09.09.09,0,0,1,.07.11.08.08,0,0,1-.1.07,5.72,5.72,0,0,0-1.41-.09,4.08,4.08,0,0,0-1.36.35m-.13.42a.09.09,0,1,1,0-.18,9.63,9.63,0,0,1,1.45-.26,4.21,4.21,0,0,1,1.48.13.09.09,0,1,1,0,.17A4.36,4.36,0,0,0,31.58,43a9.72,9.72,0,0,0-1.42.26m-.32-4.72a.11.11,0,0,1,0-.13.1.1,0,0,1,.12,0c.12.23.23.46.33.7s.18.48.25.73a6.68,6.68,0,0,1,0,3.91.1.1,0,0,1-.12,0,.09.09,0,0,1-.06-.11,6.48,6.48,0,0,0,0-3.8c-.07-.24-.15-.48-.24-.71s-.2-.46-.32-.68Zm.51-.17a.08.08,0,0,1,0-.12.08.08,0,0,1,.12,0h0a3.73,3.73,0,0,1,.3.6,6.37,6.37,0,0,1,.24.7,7.54,7.54,0,0,1,.11,3.9.09.09,0,0,1-.12.06.09.09,0,0,1-.06-.11,7.26,7.26,0,0,0-.1-3.8,6,6,0,0,0-.24-.68A3.91,3.91,0,0,0,30.35,38.4Zm1.17,1.5a.1.1,0,0,1,.06-.12.11.11,0,0,1,.12.06h0l.12.46.09.48a6.14,6.14,0,0,1-.14,2.49.09.09,0,0,1-.11.06.09.09,0,0,1-.07-.11,5.94,5.94,0,0,0,.13-2.41c0-.16,0-.31-.08-.47a3.17,3.17,0,0,0-.12-.44Zm.72,1a.11.11,0,0,1,.08-.11.08.08,0,0,1,.1.08,5.88,5.88,0,0,1,.09,1.29,4.12,4.12,0,0,1-.3,1.25.09.09,0,0,1-.17-.07,3.71,3.71,0,0,0,.28-1.2,4.93,4.93,0,0,0-.08-1.24m26.68-.74H512.13a2.59,2.59,0,0,0,2-.53,2.62,2.62,0,0,0,.84-.85,1.84,1.84,0,0,0,.15-2.16c-.44-.7-1.17-1.35-1.85-.76A1.41,1.41,0,0,0,513,37.5a1.5,1.5,0,0,1,.15-.42.77.77,0,0,1,.91-.14.87.87,0,0,1,.56,1c0,.18-.12.4-.3.46s-.15,0,0-.19a.46.46,0,0,0,0-.57.79.79,0,0,1-.18.67c-.06.09-.41.16-.28,0s.4-.76.11-.79a1.26,1.26,0,0,1,0,.28,1.2,1.2,0,0,1-.45.6c-.14.1-.33.06-.2-.12s.18-.14.26-.24a1,1,0,0,0,.16-.35.24.24,0,0,0,0-.23c0-.09-.1-.09-.19,0a.41.41,0,0,0-.11.26,1,1,0,0,1-1.13.89H36.91a1,1,0,0,1-1.13-.89.41.41,0,0,0-.11-.26c-.09-.07-.14-.07-.19,0a.24.24,0,0,0,0,.23,1.23,1.23,0,0,0,.16.35c.08.1.19.14.26.24s-.06.22-.2.12a1.2,1.2,0,0,1-.45-.6,1.27,1.27,0,0,1,0-.28c-.3,0,0,.67.1.79s-.22.07-.27,0a.76.76,0,0,1-.19-.67.47.47,0,0,0-.05.57c.1.15.11.25,0,.19s-.26-.28-.3-.46a.88.88,0,0,1,.56-1,.77.77,0,0,1,.91.14,1.24,1.24,0,0,1,.15.42,1.4,1.4,0,0,0-.33-1.63c-.68-.59-1.41.06-1.85.76A1.84,1.84,0,0,0,34,38.79a2.62,2.62,0,0,0,.84.85,2.59,2.59,0,0,0,2,.53h22Zm0-1.88H512.13a.64.64,0,0,0,.72-.47c-1.16-.29-.55-1.82.11-2.25,1-.71,2.21.06,2.59,1.18l.14,0a1.82,1.82,0,0,1-.07-.25l-.09-.39.14,0,.28.22.33.8-.27.48-.65,1.29-.35.7c-.12.19-.24.37-.35.56a3,3,0,0,1-2.53.82H36.91a3,3,0,0,1-2.52-.82L34,39.52c-.12-.23-.23-.47-.35-.7L33,37.53l-.27-.48.33-.8.28-.22.14,0c0,.13-.06.26-.08.39s0,.17-.08.25l.14,0c.38-1.12,1.54-1.89,2.59-1.18.66.43,1.27,2,.11,2.25a.65.65,0,0,0,.72.47h22ZM36.15,39.88A2,2,0,0,1,34.44,39a2.63,2.63,0,0,0,1.71.52H512.9a2.62,2.62,0,0,0,1.7-.52,2,2,0,0,1-1.7.93H36.15ZM37.8,11.43H511.24v.25H37.8ZM486.69,12h25.06v.26H37.29V12h449.4Zm.19,1.73H37.33v-.54H511.71v.54Zm35.87,5.71a1.31,1.31,0,0,0-1.06-.17c-.31.11-1.46.55-1.24-.26a1,1,0,0,0-.68-.59c-1.47.14-2.38-1.36-2.42-2.75-2.05,1.13-2.74.2-4.23-.85a1.86,1.86,0,0,1-1.15.1,1.12,1.12,0,0,1-.86-.7c-.15-.41.35-.66.42-1a1.53,1.53,0,0,0-.59-1.61h-.71a1.31,1.31,0,0,0-.81-.65,1.44,1.44,0,0,0-1.38.56h-.4c1.07-1.4,2.66-1.32,3.85,0a1.73,1.73,0,0,1,.39,2.14c-.72,1,1.17,1.5,1.16.42a.51.51,0,0,1,.29.67c1.47,1.19,2.47,1.34,4.21.31.37,1.51.51,3,2.52,2.95l.42-.07c0,.55.12,1,.75,1.11.81-.33,1.1-.17,1.52.47m-15.11-8c.62-2.21,2.95-2.39,4.26-.8,0-.62.45-.77,1-.73.28,0,.53.15.56.43a1.36,1.36,0,0,1-.34.89,1.11,1.11,0,0,0,.06,1.28,1.76,1.76,0,0,0,1.51.8,2.62,2.62,0,0,0,2.14-.68,2.56,2.56,0,0,0,.83-2.36,2.24,2.24,0,0,0-2.32-2.21c0-.17,0-.34,0-.51,1.81.19,2.62.93,2.93,2.47a3.19,3.19,0,0,1-1.17,2.88,2.72,2.72,0,0,1-2.48.69,2,2,0,0,1-1.55-1,1.35,1.35,0,0,1-.06-1.36,1.53,1.53,0,0,0,.27-.78c0-.24-.2-.36-.43-.37-.5,0-.84.08-.92.68-1.44-1.52-3.43-1.37-4.27.7m9.46.39,0,.08c-.22.4-.95,1.77-3.52,1.18a.08.08,0,0,1,0-.08.06.06,0,0,1,.08,0c2.47.57,3.17-.73,3.38-1.12l0-.09a.07.07,0,0,1,.09,0,.06.06,0,0,1,0,.09m-4.16-.45,1.3,0c.61,0,1.56.93,2.06.07a1,1,0,0,0,.12-.59,1.08,1.08,0,0,0-.18-.46,1.06,1.06,0,0,0-.37-.33,1,1,0,0,0-.69-.11,2.42,2.42,0,0,0-.86.36c-.15.11-.1.17-.34.15a.29.29,0,0,1-.31-.21c0-.22.61-.25,1-.25,0,0,.11,0,.07-.12a1.4,1.4,0,0,1,0-.88,1.52,1.52,0,0,1,.6-.78.71.71,0,0,1,.25-.11h0c.2,0,.35.05.46.07h0a2.3,2.3,0,0,0-.45,0l-.05,0a1.33,1.33,0,0,0-.72.8,1.1,1.1,0,0,0,0,.89,1.17,1.17,0,0,1,1.08,0,1.32,1.32,0,0,1,.41.37,1.07,1.07,0,0,1,.2.51,1.05,1.05,0,0,1-.14.68,1.32,1.32,0,0,1-.44.44c-.75.47-2.13.31-3.05.31a1.1,1.1,0,0,1-.06-.26c.49,0,1,0,1.48,0,.27,0,.26-.14.26-.2s-1.32-.09-1.72-.08a1.12,1.12,0,0,1,.07-.29m1.13-1.12a1.07,1.07,0,0,1,.42.25.56.56,0,0,1,.15.32.57.57,0,0,1-.11.34,1.25,1.25,0,0,1-.42.34.07.07,0,0,1-.09,0,.08.08,0,0,1,0-.09,1.12,1.12,0,0,0,.38-.3.4.4,0,0,0,.08-.26.34.34,0,0,0-.11-.24.81.81,0,0,0-.47-.17s.05-.1.06-.14,0,0,.08,0m.53,1.24c.36-.23.51-.46.49-.68s-.3-.46-.62-.68l.17-.14a1.37,1.37,0,0,1,.57.81c0,.27-.14.53-.55.79Zm.56-1.68a1.45,1.45,0,0,1,.57,1c0,.32-.23.62-.67.95l-.07-.1c.41-.31.61-.58.62-.85s-.31-.52-.67-.87Zm.3,2a1.42,1.42,0,0,0,.65-.9c0-.31-.28-.66-.64-1l.23-.05a1.33,1.33,0,0,1,.53,1.08,1.53,1.53,0,0,1-.69,1Zm-1.79-1.58c-.34-1.6.48-2.21,2-2.37-1.2.29-2.31.78-1.72,2.21l-.27.16m.37,0c-.43-1.48.29-2.11,1.7-2.37-1.1.35-2.12.9-1.46,2.2l-.24.17m.33,0c-.42-1.48.31-2.11,1.72-2.35-1.1.34-2.12.88-1.48,2.18l-.24.17M515.7,8l-.39-.09A2.16,2.16,0,0,1,519,6c0-.89.23-1.14,1.07-1.22A1.59,1.59,0,0,1,520.75,3a1.78,1.78,0,0,1,.94-.12,7.3,7.3,0,0,0,.81,0,1,1,0,0,0,.91-.32,4.82,4.82,0,0,0,.51-.66c1-.22,1.44-.16,1.71.93.2.67.43.34.6,0s.2-.49.61-.51a5,5,0,0,1,.77,0h.23c-.16-.88-.2-1.4,1.06-1.87A4,4,0,0,0,531.74,0a3.32,3.32,0,0,1,.83.15c.36.12.46.39.53.74a1.64,1.64,0,0,1-.09,1,7.76,7.76,0,0,1-.4.69,1.09,1.09,0,0,0,.17,1.29,5,5,0,0,0,.57.56c.3.25.7.42.91.75a.78.78,0,0,1,.08.73c-.08.27-.36.31-.36.57s.14.23.35.25.12-.15.17-.25c.46-.83,1.28-.29,1.73.24a.78.78,0,0,1,.24.75,2.7,2.7,0,0,0,0,.94,2,2,0,0,0,1.11,1.45,2.65,2.65,0,0,0,.62.27,5.85,5.85,0,0,0,.93,1.87l-.09.11c-.12.12-.23.24-.34.37-.3.33-.09.39.21.25s.65-.28.67.15a4.12,4.12,0,0,1,.54.48c.26.33.2.52,0,.88a1,1,0,0,0-.06.58,1.19,1.19,0,0,0,.16.43,2.06,2.06,0,0,1,.36,1.67l-.14.27c-.29.54-.86.72-1.2,1.19a.69.69,0,0,0-.15.5A2.85,2.85,0,0,1,539,20l-.23,0a1.67,1.67,0,0,0-.27,1.09c-.74.43-.5.85-.41,1.54a3.73,3.73,0,0,1-1.06,2.57l-.14-.16a3,3,0,0,0,1-2.45,1.44,1.44,0,0,1,.37-1.78,2.49,2.49,0,0,1,.5-1.32,4.32,4.32,0,0,1-.12-.45,1.91,1.91,0,0,1,0-.79c.11-.47.33-.58.94-.82.16-.23.18-.23.45-.27,0-.21.26-.58.22-.72a1.34,1.34,0,0,0-.09-.26c-.08-.14-.15-.29-.23-.44s-.08-.17-.11-.25a2,2,0,0,1,0-1.53.5.5,0,0,0,0-.21.9.9,0,0,0-1-.73c-.49.12-.92-.11-.47-.67a2.16,2.16,0,0,0,.24-.33,4.3,4.3,0,0,1-.69-1.49,3.67,3.67,0,0,1-.65-.26,3,3,0,0,1-1.28-1.71,3.9,3.9,0,0,1-.1-1.13.59.59,0,0,0-.14-.43,2.11,2.11,0,0,0-.23-.19.42.42,0,0,0-.72.28c-.06.27-.25.27-.46.23a.74.74,0,0,1-.45-.24c-1-.92.29-1,.08-1.45a1.53,1.53,0,0,0-.7-.55,3.08,3.08,0,0,1-.86-.9,1.8,1.8,0,0,1-.27-1.56c.09-.31.31-.51.42-.81a1.23,1.23,0,0,0,.08-.6c-.06-.66-.31-.78-1-.84a6.64,6.64,0,0,1-2.76.49,2.63,2.63,0,0,1-.6.77c.1.72.9,1.78-.4,1.63-.36-.1-.35-.21-.39-.56a1.22,1.22,0,0,0-.74,0c-.22.09-.17.14-.2.36-.11.72-.51.8-1.07.41-.41-.28-.18-.6-.4-1s-.62-.36-1.18-.23l-.46.54a1.21,1.21,0,0,1-1.07.41,7.86,7.86,0,0,1-.84,0,.94.94,0,0,0-.7.11,1.14,1.14,0,0,0-.32,1.1c.07.45.2,1.15-.33.8a.5.5,0,0,0-.36-.13c-.64,0-.83.63-.83,1.22h-.29c-1.22-1.19-3.37-.73-3.3,1.27Zm2.59-1.37a2.71,2.71,0,0,0-1.4-.28,2.58,2.58,0,0,0-1.29.6s-.05,0-.07-.07a.05.05,0,0,1,0-.08,2.49,2.49,0,0,1,1.34-.58,2.83,2.83,0,0,1,1.46.3.06.06,0,0,1,0,.08.06.06,0,0,1-.08,0m-.56.44h0a2.56,2.56,0,0,0-.64-.2,1.7,1.7,0,0,0-1.57.47s-.07,0-.1,0a.07.07,0,0,1,0-.09,1.83,1.83,0,0,1,1.69-.45l.34.08.32.12h0a.07.07,0,0,1,0,.08.06.06,0,0,1-.08,0Zm-.3.54a1.76,1.76,0,0,0-1-.32,1.81,1.81,0,0,0-.92.35s-.08,0-.1-.07a.08.08,0,0,1,0-.08,2,2,0,0,1,1-.33,2,2,0,0,1,1.07.34.07.07,0,0,1,0,.09.08.08,0,0,1-.08,0m1.17-1.3A3.18,3.18,0,0,0,517.14,6a3,3,0,0,0-1.4.63s0,0,0-.07a.07.07,0,0,1,0-.09,2.74,2.74,0,0,1,1.42-.59,3.15,3.15,0,0,1,1.52.37.07.07,0,0,1,0,.08s0,0-.08,0m3.12-1a1.24,1.24,0,0,1-.28-.8c0-.21,0-.5.2-.6a.82.82,0,0,1,.25-.06c.14,0,.2,0,.23.07a.23.23,0,0,1,0,.15,1.15,1.15,0,0,0,0,.66,1.83,1.83,0,0,0,.12.29c.12.2,0,.26-.13.22s-.22-.27-.24-.45,0-.17-.09-.21-.1.08-.07.23a1,1,0,0,0,.18.38.19.19,0,0,1,0,.2c0,.11-.14,0-.25-.08m.79-.73a1.14,1.14,0,0,0-.07-.32c0-.12-.06-.38.13-.3s.14.09.19.21a1,1,0,0,1,0,.54c0,.18-.15.23-.23.15s0-.17-.06-.28m2.14-.62.17.25c.09.13.21.19.25.35s-.08.2-.24.11a1.1,1.1,0,0,1-.22-.21,1.37,1.37,0,0,1-.24-.4c-.07-.15-.17-.33-.28-.16a.26.26,0,0,0,.06.34.52.52,0,0,1,.18.36c0,.18-.15.2-.37,0a.8.8,0,0,1-.24-.43c-.14-.31-.42-.35-.23.05a1.21,1.21,0,0,1,.18.33c0,.1-.06.11-.13.12a.16.16,0,0,1-.16-.08.67.67,0,0,1-.13-.3.77.77,0,0,1,0-.46c.09-.19.16-.28.37-.31a1.14,1.14,0,0,0,.36-.26.67.67,0,0,1,.48-.14c.21,0,.3.08.44.4a5,5,0,0,0,.4.71c.07.09.1.11.08.17s-.08.1-.17,0a1.11,1.11,0,0,1-.38-.42,1.3,1.3,0,0,1-.14-.26c-.06-.15-.16-.3-.19-.14s.05.21.11.31m5.73-.19c-.36-.82.16-1.11.22-.23.37.36,0,.78-.22.23m.57-.85a2,2,0,0,0,.08-.8c-.07-.38-.58-.2-.79,0a1.27,1.27,0,0,0-.24,1c0,.45.14,1,.61,1.14a.48.48,0,0,0,.61-.13c.39-.37,0-1-.27-1.27m-.17,1.78a1.55,1.55,0,0,0,.52.73c.22.21.14.5,0,.36-.45-.41-.5-.36-.72-.9-.15-.28.06-.52.22-.19m-3.7.15c0-.08,0-.16,0-.23s-.05-.48.12-.18.19.31.43.38a.43.43,0,0,1,0-.32c0-.23.11-.32.12-.09s.59.65.37.3a.91.91,0,0,1-.12-.31c-.05-.33-.05-.4.17-.12a4,4,0,0,0,.53.62c.11.1.29.31.14,0a2.57,2.57,0,0,1-.29-.67c0-.24,0-.26.17,0a5.8,5.8,0,0,0,.49.62c.07.07.25.28.16.06a3.67,3.67,0,0,1-.3-1.8c0-.3.25-.28.22-.07a4.4,4.4,0,0,0,.13,1.25,2,2,0,0,0,.78,1.23c.12.09.21,0,.1-.08L530,5.11a2.86,2.86,0,0,1-.51-2,3.09,3.09,0,0,1,0-.52c.13-.41.22.13.22.29a3.58,3.58,0,0,0,1,2.69l.32.32c.11.15.23.29.35.44l.32.26a1.17,1.17,0,0,0,0,.2l-1.42-.91-1.06-.55-1.23-.22L527.11,5l0-.15m-2.46,9.42a1.66,1.66,0,0,1-2.14-1A2.5,2.5,0,0,1,524.65,10s.07,0,.07,0a.05.05,0,0,1-.05.07,2.34,2.34,0,0,0-2,3.12,1.38,1.38,0,0,0,1.88.79c.14,0,.12.19.09.21m9-6.37a1.42,1.42,0,0,0,.88.13c.27-.05.4-.07.37-.36s.05-.36.41-.38.4.29.27.55a.46.46,0,0,1-.2.23,1.94,1.94,0,0,1-1,.18A3.92,3.92,0,0,1,533.17,8l-.54-.35c.69-.91.52-.08,1,.16m-.65-1c0,.16-.08.28-.17.2s-.32-.19-.28.1.42.39.46.51-.14.17-.2.14-.36-.38-.42-.41v-1a1.93,1.93,0,0,0,0-.24c0-.15,0-.49.25-.49s.13,0,.11.1a1.9,1.9,0,0,0-.07.46c0,.12.08.32.15.06a2.29,2.29,0,0,0,0-.25c0-.12,0-.22.14-.24s.18.06.14.18a2.47,2.47,0,0,0-.14.84m-.91-.27c0-.07-.1-.34,0-.4s.26-.15.21,0-.14.27-.08.36l.09.15c0,.06,0,.23-.11.1a.29.29,0,0,1-.08-.26m1.2,1.4c.35.08.57.43,1.22.5a.84.84,0,0,0,.8-.28c.26-.35.43.14.19.33a1.55,1.55,0,0,1-1.06.19,1.91,1.91,0,0,1-.75-.17,1.87,1.87,0,0,1-.4-.57M535,9.15h.15c.15,0,.19,0,.3-.1a.23.23,0,0,1,.15-.06c.34,0,.05.37-.18.42h-.43c-.22-.07-.26-.28,0-.27m.84.32a.27.27,0,0,1,.25-.13.08.08,0,0,1,.09.06c.06.12,0,.17-.08.2a.29.29,0,0,1-.24,0s0-.05,0-.11m-.39.41a1,1,0,0,1,.24,0,2.32,2.32,0,0,0,.59-.06c.12,0,.15-.05.24,0s.09.1.06.19,0,.08-.11.09a1.77,1.77,0,0,1-.46,0,3.36,3.36,0,0,1-.65,0c-.17-.07-.23-.2.09-.26m1.05.91a.59.59,0,0,0,.35,0c.07,0,.24-.12,0-.16a.35.35,0,0,0-.25,0c-.14,0-.27,0-.13.14m.59.63a.5.5,0,0,0,.34,0c0-.09-.11-.33-.25-.24S537,11.26,537,11.42Zm-1.14-.71c-.22,0-.36-.11-.21-.24s.64-.06.87-.05.65-.05.62.37c.31.1.58.24.58.52,0,.12-.08.19,0,.27.2.24-.26.11-.5.12a2,2,0,0,0-.68.09c-.18.06-.53,0-.4-.11.3-.26.66,0,.61-.36s-.31-.18-.51-.14a.26.26,0,0,1-.22,0c-.16-.1,0-.1,0-.24s.07-.22-.19-.2M537,12.26l-.32,0c-.31,0-.21-.25,0-.25H537a1.58,1.58,0,0,0,.43-.1c.45.08.47.41.08.29a1.82,1.82,0,0,0-.52,0m.64.6-.13.05c-.21-.09-.28-.16-.47,0-.51.15-.5-.19-.12-.23h.17c.24-.11.41-.12.56.06s.1.1,0,.14m.1.74h-.18c-.17,0-.17,0-.14-.1s.06-.09.15-.12a.15.15,0,0,1,.13,0c.16.05.23.13,0,.23m.79,0c-.08,0-.36.09-.34-.06s0-.14.1-.09h.1s0,0,0-.05.38.06.1.19m-.82.47-.25,0c-.11,0-.12,0-.19-.08-.23-.24.4-.09.51-.07a.81.81,0,0,0,.65-.11c.13-.07.17-.12.32-.12s.22,0,.11.16-.14.07-.22.1a2.68,2.68,0,0,1-.93.14m1.08,0c.11-.07.11,0,.23,0s.06.18-.09.27l-.11.07a4.1,4.1,0,0,0-.49.06.53.53,0,0,1-.65,0l-.2,0c-.38,0-.26-.25,0-.22l.26,0c.17,0,.24.1.41,0l.23,0a.9.9,0,0,0,.42-.19m.05.89-.22,0c-.24,0-.21-.17,0-.18h.22c.08-.06.1-.07.16,0s.13.1.06.2-.1.07-.2.06m0,.54c-.21.1-.19.22,0,.23,0-.14.09-.12,0-.23m.15.36c-.26-.12-.27.29,0,.18C539.17,16.1,539.14,15.77,539,15.84Zm-.68-.12c.07-.09.05-.12,0-.16s-.24,0-.27-.12,0-.16.09-.21.31,0,.45,0a.86.86,0,0,1,.81,1c.19,0,.19.2.15.38s-.1.24-.19.25c-.41.08-.46-.12-.92.11l-.27.13a.52.52,0,0,1-.42.05c-.28-.09-.2-.38.18-.27a1.27,1.27,0,0,0,.76-.28.62.62,0,0,0-.68,0,1.27,1.27,0,0,1-.35,0c-.27-.06-.3-.3,0-.24a2.22,2.22,0,0,0,.37,0c.21-.12.6-.1.65-.28-.07,0-.09-.06-.1-.1l-.27.07a.77.77,0,0,1-.45,0c-.33-.13-.09-.22.11-.16a.38.38,0,0,0,.21,0,.23.23,0,0,1,.15-.14m-.43,1.81.14-.06c.26-.08.56-.13.69-.38.33,0,.53,0,.28.33-.23,0-.27,0-.46.17l-.6.12c-.16,0-.21-.12,0-.18m-.78,1c.19,0,.41,0,.62,0s.81.18.3.41c-.25.11-.39-.13-.71-.13l-.32,0c0-.09.07-.17.11-.25m-.14.57c.43,0,.51-.15.88.15a.49.49,0,0,1,.23-.08c.15,0,.18.06.12.17s-.09.11-.21.13,0,.21.17.21.3.07.21.23-.07.12-.21.13a4.26,4.26,0,0,1-.51,0l-.18,0c-.37-.13-.18-.41.1-.23.12.07.26,0,.19-.12a.38.38,0,0,0-.42-.21l-.34,0-.12-.15.09-.22m1.55,1a.36.36,0,0,1,0,.09c0,.11,0,.21,0,.32s-.05.33-.08.49l-.14.13-.32.4v.52c.07.19.13.38.19.57a5.27,5.27,0,0,1,0,1.19l0,.13.14-.05c.21-.16.66-.42.66,0a.36.36,0,0,0-.36.41.62.62,0,0,0-.53.7l.35.35.36.35.61.69-.08.06a.41.41,0,0,0-.05.09l-.91-1-.34-.3c-.16-.14-.28-.33-.5-.29s-.91.26-.64.68c-.37-.07-.81.14-.43.48-.44.16,0,.5.38.46-.49.18-.34.39,0,.69-.08.17-.06.36,0,.42s.37-.05.47-.08a5.05,5.05,0,0,1,1.86,0v.1l.06.1a8.54,8.54,0,0,0-2,.18c-.29.07-.35.12-.42.44s.19.84.5.89c.18.37-.19.47-.49.72l-.37-.15.11-.13c.29-.36.07-.52-.41-.52-.17,0-.46.33-.1.35-.18.17-.18.12-.4,0-.09.17-.17.52-.42.54.18-.39.14-.52-.09-.46,0-.23,0-.18.25-.21l.18-.15c-.08-.38,0-.48.42-.46a2.57,2.57,0,0,1,0-.48l.1,0v-.2c-.14-.09-.13-.07-.11-.24a.57.57,0,0,1-.2-.21c-.23-.06-.22-.19-.42-.23-.2.12-.35-.06-.14-.19s-.1-.38-.31-.42a.46.46,0,0,0-.35,0c0-.15.1-.11.26-.12.06-.33-.85-.57-1-.54s0,.06-.07.11c-.11-.18.1-.18.33-.14l.49.11c.07-.16-.11-.27,0-.42,0,.19.17.26.24.44s.19.09.29.24a1.08,1.08,0,0,1,.31.61c.16.1.23.11.31.29l.22.07a1.16,1.16,0,0,0,.12-.55c-.67.16-.41-.29,0-.47l-.21-.25c-.34,0-.08-.21-.23-.41-.28.18-.37,0-.38-.25l.35-.18.26.12.17-.18-.2-.27c.19-.15.27-.08.51-.11l0-.19c-.19-.1-.26-.18-.11-.35l.44.08c.11-.13.1-.12,0-.28s-.16-.06-.24-.2c.16-.08.23-.05.41,0L537,24a3.08,3.08,0,0,0-.24-.26c-.13-.09-.3,0-.2-.16s.28,0,.6.05.19,0,.26-.28c-.16-.07-.3.06-.43,0s-.15-.09-.06-.19.26-.09.47-.09.19,0,.26-.07.06-.09,0-.15-.05-.07-.15-.07a1.45,1.45,0,0,0-.5.15c-.15.06-.25,0-.18-.22a.15.15,0,0,1,.17-.12c.26,0,.54,0,.69-.15s0-.1,0-.18a5.62,5.62,0,0,0-.58,0c-.11,0-.44,0-.28-.17s.29-.08.5-.09h.32c0-.06,0-.12,0-.18a.89.89,0,0,0-.7-.07c-.47,0-.51-.23,0-.26.18,0,.34,0,.52,0l.15-.08,0-.1-.11,0c-.21,0-.44,0-.45-.13a.74.74,0,0,1,0-.12,1.3,1.3,0,0,1,.48,0c.22,0,.33,0,.33-.22-.18-.25-.08-.35.15-.47l.3-.07.15-.15m-3.61,9.39a1.22,1.22,0,0,0-.06.73l.47.05c.51,0,.93.05,1.24-.41l.29-.07.06.24a2.84,2.84,0,0,1-2.32.5c0-.27,0-.38-.18-.47a1,1,0,0,0-.61-.14,13.43,13.43,0,0,0-2.09.27,21.81,21.81,0,0,0-7.25,2.92c0,.41.09.63-.29.82,0-.69,0-.94-.75-.9,0-.08,0-.16-.07-.23,1.05.13,2.4-1.07,3.4-1.5A29.33,29.33,0,0,1,534,29.6c.2,0,.42-.29.61-.21ZM524,32a2.67,2.67,0,0,0-.62.53.51.51,0,0,0-.1.29l.09.23c-.07.06-.1.09-.1.13s.08.08,0,.14a1.21,1.21,0,0,1-.95,0l.15-.38c.43,0,.35-.15.56-.38a10.25,10.25,0,0,1,4.56-2.34l.94-.2a42.86,42.86,0,0,1,5.28-.69,8.53,8.53,0,0,1,.95-1.53l.53.23c.09.13.19.26.29.38l-.46.45-.33.45c-.05.1-.11.2-.16.31l-1.37.15a22.27,22.27,0,0,0-4.24.35l-.39.09A15.32,15.32,0,0,0,524,32m.09,1.45h.25c0,.06,0,.12,0,.18a.56.56,0,0,1-.21.48c-.19.19-.17.2,0,.25a1.11,1.11,0,0,0,.9-.14,23.56,23.56,0,0,1,4-2.16c1.8-.62,7.9-1.53,8.85,1.33.21,0,.2,0,.33-.21.38,0,.17.48-.07.57a.59.59,0,0,0,0,.14.53.53,0,0,0,0,.13.21.21,0,0,1,0,.15c-.06.08-.07.06-.13,0s0-.2,0-.29c-.3-.5-.8-.59-1.06,0l.12.09c.39.31-.13,1-.54.86.11-.29,0-.37,0-.57a1.45,1.45,0,0,0-.42,1.12,2.1,2.1,0,0,0,2.61,1.92,2.83,2.83,0,0,0,1-.38,2.63,2.63,0,0,0,1.17-3.09,3.5,3.5,0,0,0-1-1.78,8.68,8.68,0,0,0-2.77-1.85l-.3-.18.14-.53-.12-.59-.11-.41c-.09-.16.1-.19.15,0s.13.07.24,0,.25-.24.41-.34.42,0,.27.14-.19.09-.29.16a.61.61,0,0,0-.29.59l.11.05.17-.26c.24-.47.62-.3.4,0a.76.76,0,0,0-.17.22c-.1.18-.2.39-.11.55l.08-.16.11-.19c.4-.41.53-.07.17.25s-.14.7.08.47c0,0,.12-.44.15-.5l.06-.08c.29-.39.13,0,.08.2s0,.11,0,.17c-.15.47.09.62.33.2s.27,0,.13.16,0,.62.26.32l.11-.1a1.18,1.18,0,0,0,.32-.54l.07-.18a3.72,3.72,0,0,1,.12-.44c.23-.73.3-.48.21.08a11.68,11.68,0,0,1-.29,1.17l0,.12c-.06.17-.12.34.17.35.13,0,.18,0,.22-.14s0-.22.13-.29.12,0,.15.09a1.63,1.63,0,0,1,0,.54c0,.18-.08.22.1.26s.14,0,.18-.14a.55.55,0,0,0,0-.26c0-.1,0-.1,0-.16s.08-.07.19,0-.05.46-.06.52a.58.58,0,0,0,0,.37c0,.12.06.2.19.24a.14.14,0,0,0,.19-.07c0,.52-.35.36-.7.29a3.67,3.67,0,0,1,.9,1.71,3.08,3.08,0,0,1-2.48,3.83,2.41,2.41,0,0,1-2.42-.85c-.93-1.16-.65-3.62,1.28-3.46-1.44-1.93-4.73-1.66-6.76-1.18-.53.12-1,.26-1.55.43a5.94,5.94,0,0,0-1.42.67c-.21.16-.63.8-.86.55a12.75,12.75,0,0,0-1.8.84,1.4,1.4,0,0,1-1.29-.07.39.39,0,0,1-.16-.37c0-.35.33-.33.37-.76m12.66-5.84-.22-.08-.24-.54c-.07-.22-.13-.44-.19-.66s0-.37-.07-.56l.43-.47.37-.24.31.05-.09.1c-.07.08,0,.28,0,.36a.79.79,0,0,0,.2,0h.25c.24,0,.44.19.07.18l-.34-.05c-.64-.06-1,.28-.14.35.34.08.2.14-.05.11l-.2,0c-.26,0-.3.17-.21.29a.69.69,0,0,0,.29.07h.27c.19,0,.56,0,.34.18a.18.18,0,0,1-.17.05h-.18a.62.62,0,0,0-.33,0c-.25.1-.3.35.11.39h.11c.1,0,.27,0,.36,0s.26.14.06.18-.2,0-.37,0a.4.4,0,0,0-.25.09.31.31,0,0,0-.11.22M536,26.8c-.72,0-.61,0-.33-.39l.15-.28a2.52,2.52,0,0,1,.34.15,3.11,3.11,0,0,1,0,.43l-.13.09m3-2.95-.2,0c.06-.44.41-.58.79-.21.34.07.62-.07.75.3a.8.8,0,0,1,.49.25.87.87,0,0,1,1,.13l.27.06c.48,0,.63,0,.63.47a6.09,6.09,0,0,0,.26.79c0,.11,0,.22,0,.32.25.32.14.47-.12.72l-.16.17,0,.16a3.21,3.21,0,0,1,.7.39,1,1,0,0,0,.2.92c.24,1.12-.47.89-.47,1.69l-.24.32a.79.79,0,0,0-.4.77c-.47.21-.33.51-1,.51-.18.16-.18.15-.43.1-.06.06-.08.1-.11.33-.24,0-.32-.2-.37-.37a.21.21,0,0,0,.36-.12.71.71,0,0,1,.06-.47.93.93,0,0,1,.32.36.65.65,0,0,1,.53-.07l.32-.47a1.64,1.64,0,0,1,0-.22l-.16-.1c0-.11,0-.22,0-.33-.37-.44-.73-.89-1.1-1.34l.22-.06c.36.37.71.75,1.07,1.13l.06.24.25.05.06-.26c.36-.2.54-.33.57-.75.26-.27.39-.67.15-.92s-.17-.57-.18-.85a.57.57,0,0,1-.32-.23l-.61-.14-.54.07-.11.12-.56.17-.33-.07.35-.29a1,1,0,0,1,.71-.38H542l.5-.13a.56.56,0,0,0,.06-.78.89.89,0,0,0-.15-.57c0-.08,0-.16,0-.25,0-.48-.47-.29-.83-.33-.24-.39-.54-.24-.77.06l0,.45c0,.15,0,.31.05.46s-.14.39-.2.59-.1.19-.32.06a3.58,3.58,0,0,1,.11-.35c0-.2,0-.39,0-.58l0-1a.73.73,0,0,0-.28-.17c0-.38-.32-.23-.62-.2l-.14-.08c-.08-.28-.44-.42-.47,0m.72,3.94c.3.73.74.56.83-.08a1.14,1.14,0,0,0-.1-.76c-.14-.27-.28-.48-.63-.39a.24.24,0,0,0-.2.28c.49-.19.9,1.13.1.95m-.52-.87c0-.15,0-.3,0-.45l.21-.07c.19-.07.28,0,.34-.25a2.42,2.42,0,0,1,0-.25c.06-.21.23-.24.23.11s0,.18.21.25c0-.1.09-.21.14-.31-.18-.3-.25-.48.13-.45a1.8,1.8,0,0,1,.08.21c0,.21,0,.41,0,.62l.21,0,.22-.17c.36-.48.57-.3.19.05l-.15.13,0,.17a1.15,1.15,0,0,0,.41-.17c.39.07,0,.3-.2.43l-.23.18-.05.23h.35c.67.27.21.35-.22.3a.52.52,0,0,0-.1.11l.31,0c.69.1.57.21.25.23-.11,0-.31-.06-.42,0s-.27,0-.29.17c0,0,0,.07,0,.08s.45,0,.6,0,.17.21-.17.19a.82.82,0,0,0-.27,0c-.1,0-.18.13-.12.19s.37,0,.6.07.35.25-.29.17c0,0-.39,0-.34,0l.26.31a1.69,1.69,0,0,1,.11.27l-.12.2-.21-.09c0-.35-.17-.47-.48-.67,0,.08,0,.16,0,.24s.15.15.15.25-.15.32-.23.12a.91.91,0,0,1,0-.33c-.17-.45-.16.12-.39.32-.11-.24-.06-.31,0-.57l-.14-.16c-.68-.93-.48-.63-.48-1.67M538.81,20s0-.1,0-.15l.22-.13a2.86,2.86,0,0,1,.84,1.25,2.06,2.06,0,0,1,.57,1.94c0,.19,0,.37.05.56l-.25.29-.54-.07a5.58,5.58,0,0,0,.45-.7,1.8,1.8,0,0,0-.46-1.9,1.6,1.6,0,0,0-.87-1.09m.78,3.61h-.17a.69.69,0,0,1-.13-.11l-.31.06a1.56,1.56,0,0,1-.07.17s-.14,0-.14,0l.06-.11c-.07-.12.16-.15.19-.28s-.33-.06-.37-.16l-.12,0a.24.24,0,0,1,.14-.09c-.09-.22-.33-.28-.21-.5.06.2.2.28.32.45.05,0,.33.22.38.2a4.18,4.18,0,0,0-.47-1c0-.24-.05-.28-.22-.28.25-.2.59.73.74.82a1.63,1.63,0,0,0-.25-.76.7.7,0,0,0,0-.66.38.38,0,0,0,0-.53l.09-.15a2,2,0,0,1,.09.77.78.78,0,0,1,.08.4,1.15,1.15,0,0,1,.1.48,2.18,2.18,0,0,1,.07.92c.27,0,.31-.33.32-.58l.11-.1a1.32,1.32,0,0,1-.22,1.11m1.44-.84a1.15,1.15,0,0,0,.55-.62.5.5,0,0,1,0,.38,2.48,2.48,0,0,0,.91-.88c0-.25,0-.32.17-.51a.45.45,0,0,1,0,.46c.37-.06.52-.28.79-.53l.79-.61.2-.07.11,0c.15.05.14,0,0,.12a3.8,3.8,0,0,0-.9.77l-.45.42a2.07,2.07,0,0,0-.67.28H543l.25,0,0,.17c-.39,0-1-.06-1.22.27a1.19,1.19,0,0,1,.51.17,1.59,1.59,0,0,0-1.29.43c.1.17.37.16.62.21.92,0,1.31-.8,2-.92a1.91,1.91,0,0,1,.08-.44c.13-.37,1.32-1.47,1.57-1.92a7.3,7.3,0,0,0-1.32.06,1.07,1.07,0,0,0-.79.26,5.9,5.9,0,0,0-2.18,2l-.23.44m-.6.14c.22-.14.39-.19.43-.56a2.4,2.4,0,0,1,1.19-1.63,5.36,5.36,0,0,1,2.69-1.06c.52,0,1-.29,1.5-.12a2.47,2.47,0,0,1-.44.7c-.48.56-.93,1.14-1.44,1.67a.47.47,0,0,0-.17.34c0,.34-.12.52-.48.58a1.34,1.34,0,0,0-.49.25,2.25,2.25,0,0,1-2.07.35h-.39l-.31.08c0-.08-.08-.17-.13-.25S540.4,23,540.43,22.9Zm-1.11,3.61.12.34c0,.11,0,.21-.05.31l-.2.09-.31,0c-.13,0-.21,0-.2-.12s.08-.1.23-.06.39.1.39,0v-.35c0-.14-.32-.08-.51-.05l-.13,0c-.07,0-.28-.19,0-.18a4.87,4.87,0,0,1,.66,0M544,27.6c-.09.06-.17.14-.11.2s.16,0,.25,0c.55,0,.69.42,1.18.59a.78.78,0,0,0,.33,0c.35,0,.82,0,.85.36-.27-.13-.36-.14-.52,0a.63.63,0,0,0,.25.21,2.61,2.61,0,0,1,.43.31,1.76,1.76,0,0,1,.76,1.23s-.18-.13-.18-.13c-.14-.77-.79-.79-1.28-1.19-.22-.08-.48.14-.05.28-.29.4-.6-.43-.75-.74,0-.08-.09-.08-.17-.06-.24.06-.25-.27-.32-.41s-.26-.18-.41-.25a.91.91,0,0,1,.39.77c-.16-.27-.2-.09-.4-.38a.32.32,0,0,0-.24-.09s0,0-.06.07,0,.12.12.17l.14.08a1,1,0,0,1,.26.34.3.3,0,0,0,.17.2c-.29,0-.38-.21-.59-.37a.9.9,0,0,0,.43.82,1.2,1.2,0,0,0,.81.32c.22.32.39.36.61.33a2.19,2.19,0,0,1,.67-.07c.32,0,.51.14.53.58.18.14.61.19.76,0l.51,0c0-.32-.24-.37-.44-.52a4,4,0,0,0-.42-.92l-.5-.72a4.06,4.06,0,0,0-.86-.74,1.14,1.14,0,0,0-.93-.23.52.52,0,0,1-.4-.1.74.74,0,0,0-.42-.3.61.61,0,0,0-.68.17,1,1,0,0,0,.28.12m.65-1.36a.33.33,0,0,0-.18.19c-.06.15,0,.22.06.11a.77.77,0,0,1,.21-.19.84.84,0,0,1,.29-.13c.08,0,.13,0,.1.07a.55.55,0,0,1-.17.13,1.38,1.38,0,0,0-.43.41c-.34.31-.09.3.15.08a3.12,3.12,0,0,1,.44-.45,2,2,0,0,1,.66-.41.74.74,0,0,1,.39-.08c.16,0,.19.09,0,.13l-.35.09a1.56,1.56,0,0,0-.5.29c-.17.15-.22.18,0,.26l.14-.1a2,2,0,0,1,.36-.18,1.85,1.85,0,0,1,.71-.08l.53,0,.5,0c.33.06.28.13,0,.12l-.48,0h-.56a1.44,1.44,0,0,0-.62.08.87.87,0,0,0-.28.2,2.41,2.41,0,0,1,.59,0c.23,0,.26.23,0,.22a1.67,1.67,0,0,0-.51,0c-.18,0-.22,0-.26.23a.58.58,0,0,1,.31-.08l.68,0a1.39,1.39,0,0,1-.45.31,1.06,1.06,0,0,0,.77-.15l.17.09a5.64,5.64,0,0,0,1.44-.85v-.15a4.14,4.14,0,0,1-1.09-.68c-.46-.34-1.2-.08-1.67.13a3.93,3.93,0,0,1-.64.2,1.28,1.28,0,0,0-.35.13m-1.4,1a.49.49,0,0,0,.35,0,.8.8,0,0,0,.36-.26c.29-.44.42-.78.84-1,.18-.09.35,0,.5-.11a2.44,2.44,0,0,1,.34-.14,2.28,2.28,0,0,1,2.32.09c.38.22.86.52.93.81a7.64,7.64,0,0,0-.77.61,2.12,2.12,0,0,1-.57.41,3,3,0,0,1-.85.19,2.94,2.94,0,0,0,.61.67,4,4,0,0,1,.79,1.33,1.59,1.59,0,0,0,.48.68,1.71,1.71,0,0,1,.28.39l.17.29a3.18,3.18,0,0,1-.69,0,1.45,1.45,0,0,0-.59-.07,1.26,1.26,0,0,1-.91-.21c-.21-.19-.42-.39-.74-.31a.73.73,0,0,1-.56,0l-.49-.16c-.32-.1-.37-.07-.57-.34a1.16,1.16,0,0,0-1.19-.52l0-.33c.1-.12.2-.25.29-.38v-.45c-.09-.13-.19-.26-.28-.4s0-.34,0-.51S543.27,27.3,543.26,27.2ZM543,30.61c.08.21.23.25.31.44a2.6,2.6,0,0,1,.1.65c.14.27.44.86.2,1.08-.36-.39-.2-.61-.37-1.07a1,1,0,0,0-.44-.7l-.16.18c0,.28,0,.36-.28.35l0,.19.3.23a3.58,3.58,0,0,0,.19.55c.45.2.4.23.53.65.18.06.38.12.41.31l.13.07A2.07,2.07,0,0,0,544,32c-.09-.25-.16-.26-.1-.52a1.63,1.63,0,0,0,0-.82c-.18.39-.25-.16-.52-.16.07.35-.22.07-.36,0l0,.13m.88-.49c.37.27.64.66.43,1.09-.11.22-.15.28,0,.44a2.25,2.25,0,0,1,.2,1.4c0,.44,0,.51-.35.77-.18.24-.22.38-.51.45-.3-.3.2-.63-.4-.76-.17,0-.21,0-.35-.13s-.07-.12-.09-.25-.16-.29-.34-.48l-.37-.37c-.22-.21-.31-.26-.34-.56,0,0,0-.11,0-.16l.42-.28.24-.37.15-.48.41-.36.23-.47.16-.21.32.06c-.13.13-.27.21-.24.31s.36.28.47.36M533.7,27.48l.13.08s0,.06,0,.09c0,.24-.35.06-.26-.1s0-.07.12-.07m-.42,0c-.07,0,0,0,0-.1s0-.08.1-.12.08-.05.08,0a.26.26,0,0,1,0,.14C533.36,27.51,533.36,27.51,533.28,27.47Zm.66.48c.06-.05.06,0,.13,0s.1.05.08.1-.21.21-.27,0,0-.08.06-.14m.45.16c-.09-.05-.09-.18,0-.17s.14,0,.1.13-.06.07-.13,0M533.66,27c-.35-.11-.71,0-.61.41-.17.12-.16.13-.18.33-.47.15.08.35.29.34,0,.47.51,0,.28-.12l.18.06c-.1.48.38.29.7.22l.15.2.5-.27a1.63,1.63,0,0,1,0-.36c0-.07-.68,0-.68,0l-.22-.25-.28-.12Zm3.48,7.4a2.1,2.1,0,0,0,.5,1,.63.63,0,0,0,.45.21c.08,0,.1,0,.12.06s0,.12-.12.11a1,1,0,0,1-.45-.14,2.32,2.32,0,0,1-.71-.87,2.28,2.28,0,0,1,0-.26l.19-.12m3-.6a4.62,4.62,0,0,1,0,1.39c-.5,2.51-3.77,1.49-3.54.17a1,1,0,0,0,.88.73,1.34,1.34,0,0,1-.85-.89c-.59.63.67,1.6,1.42,1.74a2,2,0,0,0,2.34-1.16,2.32,2.32,0,0,1-2.57,1.42,1.88,1.88,0,0,1-1.64-1.78,1,1,0,0,1,.45-.9l.23.21a.65.65,0,0,0,.12.65,1.57,1.57,0,0,0,1.24.65,1.41,1.41,0,0,0,.74-.18,1.16,1.16,0,0,0,.5-.4,2.52,2.52,0,0,0,.37-1.65c-.14-2-1.94-3-3.64-3.44l.25-.12a4.58,4.58,0,0,1,3.7,3.56m-1.85-.36v.05l-.34.07-.2-.12c0-.08.05-.2.06-.28.08.19.31.32.29,0-.2-1.61-2.58-1.93-3.87-2.09,1.54-.09,4.13.3,4.21,2.32Zm-5.12-7.58a21.36,21.36,0,0,0,1.12-6.4,18.25,18.25,0,0,0-.41-4.29,12.54,12.54,0,0,0-.6-2,10.74,10.74,0,0,0-1.21-2.26A7.27,7.27,0,0,0,529,8.37a6.49,6.49,0,0,0-4.47-.26A5.35,5.35,0,0,0,521.73,10a4.47,4.47,0,0,0-.42,2.91,2.61,2.61,0,0,0,2.54,2.35,2.15,2.15,0,0,0,1.91-1.18c.26-.61.16-1-.67-1.56.88,1.42-.4,2.28-1.45,2.14A2,2,0,0,1,522,13a2.56,2.56,0,0,1,1.09-2.6,3.31,3.31,0,0,1,4.22.62,3.7,3.7,0,0,1,.82,2,3.26,3.26,0,0,1,0,.54,4,4,0,0,1-.5,1.9,4.26,4.26,0,0,1-5.16,2c-2.3-.58-3.4-2.25-3.65-4.66a6.59,6.59,0,0,1,1.52-5.09c.11-.13.22-.25.34-.37a6.9,6.9,0,0,0-1.19,7.31,4.65,4.65,0,0,0,7.05,1.91c.06,0-.06-.3-.18-.21a4.39,4.39,0,0,1-6.71-1.78,6.73,6.73,0,0,1,1.13-7.06,6.76,6.76,0,0,1,1.53-1.4,6.84,6.84,0,0,1,2.36-.78A8.71,8.71,0,0,1,531.37,7l.59.4.46.3c.33.64.37.7,1,1a9.52,9.52,0,0,1,2.14,3.7,3.55,3.55,0,0,1,.16.92,11.49,11.49,0,0,1,.73,6,3.22,3.22,0,0,1-.21.81,4.25,4.25,0,0,1-.32.54,1,1,0,0,0-.19.93,3.25,3.25,0,0,1,.32,1.58,7.28,7.28,0,0,1-.78,2.15c-.42-.23-.77-.59-1.21-.14l-.3.25a1.94,1.94,0,0,1-.55.4ZM528.78,8.88a7,7,0,0,1,3,2.41,10.55,10.55,0,0,1,1.15,2.07,14.31,14.31,0,0,1,.59,1.82,17.87,17.87,0,0,1,.49,4.31,21,21,0,0,1-2.51,9.86l-.21.36a0,0,0,0,0,0,0v0h0l0,0a.05.05,0,0,0,.08,0l0,0h0l.18-.33a19.21,19.21,0,0,0,1.42-3l.06,0,.1,0a2,2,0,0,1,.52,1,1.18,1.18,0,0,1,.43.37c.68,0,.91,0,1.36.57a2,2,0,0,0-.82,1.07h.2a2.25,2.25,0,0,1,.85-1l.32,0v-.21l-.44-.13c-.39-.61-.76-.55-1.38-.62-.12-.21-.12-.23-.35-.29a1.52,1.52,0,0,0-.61-1.08c-.08-.06-.11-.05-.09-.16s0-.05.1-.07l.2-.05.53-.3c.69-.51.81-.2,1.44.12a11.26,11.26,0,0,0,.9-2.32,3,3,0,0,0-.17-2,.55.55,0,0,1,.09-.57c.15-.21.28-.41.4-.61a1.88,1.88,0,0,0,.28-.79,10.68,10.68,0,0,0-.63-6v-.33a.79.79,0,0,0-.22-1,21.1,21.1,0,0,0-2.36-3.67C531.08,6,528.5,4.18,524.62,4.9a10.07,10.07,0,0,0-4.07,1.65c.09-.56-.57-1.32-.9-.64a.88.88,0,0,1,.49,1.1l-.28.35a7.7,7.7,0,0,0-1.72,5.57,6,6,0,0,0,4.2,5.25c2.13.57,4.17-.29,5.54-2.55a3.61,3.61,0,0,0,.51-2.07,3.57,3.57,0,0,0-1.29-3.21A4.88,4.88,0,0,0,524,9.56l-.34,0c-.22,0-.44.06-.67.1C524.64,8,528,8.53,528.78,8.88ZM523,9.69A6.84,6.84,0,0,1,528,9.46a7.73,7.73,0,0,1,2.22,1.24,6.09,6.09,0,0,1,.66.58,6.3,6.3,0,0,1,.58.68,10,10,0,0,1,1.75,4.15h0a15.05,15.05,0,0,1,.25,2.24,17.7,17.7,0,0,1,0,2.3,20.1,20.1,0,0,1-3.65,9.27l-.17,0a20.07,20.07,0,0,0,3.7-9.31,19.38,19.38,0,0,0,0-2.28,14.92,14.92,0,0,0-.25-2.23h0a9.86,9.86,0,0,0-1.73-4.1,6,6,0,0,0-.57-.66,4.92,4.92,0,0,0-.64-.57,6.44,6.44,0,0,0-1.3-.77,6.87,6.87,0,0,1,1.08.67,5.09,5.09,0,0,1,.65.58,6.19,6.19,0,0,1,.58.67,10.16,10.16,0,0,1,1.76,4.16h0a18.27,18.27,0,0,1,.25,2.24,17.72,17.72,0,0,1-.06,2.3,20.18,20.18,0,0,1-3.75,9.42l-.17,0a20.32,20.32,0,0,0,3.8-9.46,17.55,17.55,0,0,0,0-2.29,16.38,16.38,0,0,0-.24-2.22h0A10,10,0,0,0,531,12a6,6,0,0,0-.56-.67,6.86,6.86,0,0,0-.65-.56h0a6.35,6.35,0,0,0-1-.62,9,9,0,0,1,.76.5,7.21,7.21,0,0,1,.66.58,7.68,7.68,0,0,1,.58.68,10.15,10.15,0,0,1,1.75,4.15h0a15.2,15.2,0,0,1,.25,2.24,19.67,19.67,0,0,1-.05,2.3A20.22,20.22,0,0,1,529,30.05l-.17,0a20.11,20.11,0,0,0,3.8-9.47,17.41,17.41,0,0,0,.06-2.28,14.79,14.79,0,0,0-.25-2.22h0a10,10,0,0,0-1.73-4.1q-.27-.35-.57-.66a5.68,5.68,0,0,0-.64-.57,6.31,6.31,0,0,0-1.92-1,6.07,6.07,0,0,0-4.44.21Zm4.7,9.62a1.08,1.08,0,0,1,.18.24.55.55,0,0,0-.31-.14.3.3,0,0,0-.16,0,.34.34,0,0,0-.15.07h0a.47.47,0,0,0-.14.14.55.55,0,0,0-.1.22.34.34,0,0,0,.05.24.2.2,0,0,0,.08.08,2.24,2.24,0,0,1,.85,1,3,3,0,0,1,.11,1.33,8.3,8.3,0,0,1-1.6,3.93c-.16.23-.33.45-.5.66a8,8,0,0,1-.54.62h0l-.06.06a7.88,7.88,0,0,1-.84.67,4.65,4.65,0,0,1-.83.44,2.42,2.42,0,0,1-.78.23.77.77,0,0,1-.62-.31c.16-.29,0-.38-.14-.47s-.12-.07-.12-.11,0-.05,0-.07c0-.31,0-.48-.28-.54a1.79,1.79,0,0,0-1.09.16l-.19.1-.14.12h0a1,1,0,0,0-.24.53,1.89,1.89,0,0,0,0,.66A1.93,1.93,0,0,0,522,30.58a3.89,3.89,0,0,0,.48,0,3.2,3.2,0,0,0,.46-.06,9.88,9.88,0,0,0,1-.26,6.61,6.61,0,0,0,1-.4,8.35,8.35,0,0,0,3-3.07c.14-.24.28-.48.4-.72s.22-.47.31-.7a10.65,10.65,0,0,0,.74-3.65c0-.24,0-.47,0-.7s0-.46-.07-.68a6.51,6.51,0,0,0-.27-1.14,3.38,3.38,0,0,0-.56-1,2.58,2.58,0,0,0-1.31-.82,2.3,2.3,0,0,0-1,0,1.38,1.38,0,0,0-.82.53,1.63,1.63,0,0,0-.28,1,1.34,1.34,0,0,0,0,.2,1.94,1.94,0,0,0,0,.2,1,1,0,0,0,.36.51.64.64,0,0,0,.18.06.4.4,0,0,0,.19,0,.54.54,0,0,0,.28-.24.46.46,0,0,0,.05-.2.35.35,0,0,1,.08-.26.72.72,0,0,1,.28-.16.8.8,0,0,1,.59,0,1.53,1.53,0,0,1,.56.39m.48.57a1.79,1.79,0,0,0-.39-.65,1.53,1.53,0,0,0-.6-.42,1,1,0,0,0-.67,0,.92.92,0,0,0-.33.19.42.42,0,0,0-.12.34.57.57,0,0,1,0,.15.42.42,0,0,1-.22.18.3.3,0,0,1-.13,0,.34.34,0,0,1-.14,0,.73.73,0,0,1-.3-.44.61.61,0,0,1,0-.18,1,1,0,0,1,0-.17,1.55,1.55,0,0,1,.26-.9,1.26,1.26,0,0,1,.75-.48,2,2,0,0,1,1,0,2.38,2.38,0,0,1,1.24.78,3.33,3.33,0,0,1,.54,1,5.51,5.51,0,0,1,.26,1.12c0,.22.06.44.08.67s0,.46,0,.69a10.71,10.71,0,0,1-.73,3.61c-.09.22-.19.45-.31.69s-.25.47-.4.71a8.21,8.21,0,0,1-2.94,3,5.56,5.56,0,0,1-1,.39,9.54,9.54,0,0,1-1,.26h0a3.11,3.11,0,0,1-.44.06h-.47a1.83,1.83,0,0,1-1.75-1.28,1.63,1.63,0,0,1,0-.61.78.78,0,0,1,.21-.46h0a.63.63,0,0,1,.12-.1l.17-.09a1.61,1.61,0,0,1,1-.15c.16,0,.17.17.19.43a.17.17,0,0,0,0,.07c0,.11.09.16.18.21s.11.15,0,.36a.08.08,0,0,0,0,.08,1,1,0,0,0,.83.35,2.2,2.2,0,0,0,.83-.24,4.28,4.28,0,0,0,.85-.45,6.3,6.3,0,0,0,.85-.68l.07-.06h0a8,8,0,0,0,.54-.62c.18-.22.35-.44.51-.67a8.42,8.42,0,0,0,1.63-4,3.06,3.06,0,0,0-.13-1.38,2.41,2.41,0,0,0-.89-1.09l0-.05a.2.2,0,0,1,0-.15.38.38,0,0,1,.08-.17.57.57,0,0,1,.11-.11h0a.31.31,0,0,1,.12-.05.25.25,0,0,1,.12,0,.87.87,0,0,1,.51.4.05.05,0,0,0,.08,0,.07.07,0,0,0,0-.07M527,28.18c-1.09,1.48-3.2,3-5.11,2.94l-.39-.22-.45-.37-.65-.26a1.45,1.45,0,0,1-.19-2.34,1.4,1.4,0,0,1,1.21-.32l.22.06-.37,0-.51.16-.38.22-.21.41v.32c0,.19.07.39.1.58l.26.47.42.31.73.33.76,0,1-.18.87-.29.88-.43,1.09-.83.39-.41a3.15,3.15,0,0,1,.29-.22m-4.74.41c-.48-.53-.69.35-.46.72-.39-.31-.57-1,0-1,.06,0,.1,0,.1-.17l.18.28.13.06.09.11-.08,0m-1.22-.52c-.68.34-.46,1.08,0,1.5,1.33,1.28,4,.1,5.05-1a.06.06,0,0,1,.09.09c-1.07,1.11-4,2.39-5.32,1.09A1.06,1.06,0,0,1,521,28a.06.06,0,0,1,.08,0,.05.05,0,0,1,0,.08m6.11-8.5c-.2-.33-.38-.5-.59-.23a.48.48,0,0,0,0,.65,3.31,3.31,0,0,1,.39.44,4.1,4.1,0,0,1,.25,3.71,7.63,7.63,0,0,1-1.29,2.5,5.3,5.3,0,0,1-2.55,2,1.9,1.9,0,0,1-1.08.05c0-.07,0-.14,0-.21a1.62,1.62,0,0,0,1-.2,6.1,6.1,0,0,0,2-1.83,5.87,5.87,0,0,0,1.1-2.5,3.86,3.86,0,0,0-.84-3.63l-.2-.2a2.39,2.39,0,0,1-.91-1.58c0-.06-.27,0-.31-.42l1.62-.39c-.38.21-.52.29-.63.71,0,.13-.08.24-.1.36s0,.23,0,.34l.18.38.28.21.24,0,.21-.14c0-.11.07-.21.1-.31a1,1,0,0,1,0-.17l.28-.22.48,0,.36.13.27.2a4.24,4.24,0,0,1,.43.52c-.27-.11-.41-.23-.69-.14l-.17.05m.94,3.13c-.13-.93-.28-2-1.22-2.31-.07-.58-.1-.74.46-.94-.18.23-.33.34-.22.63l.3.23a2.28,2.28,0,0,1,.68,2.39m-2.38-3.28a.93.93,0,0,1-.32-1.1,1.68,1.68,0,0,1,1.37-.65.06.06,0,0,1,.06.06s0,.06-.05.07a1.42,1.42,0,0,0-1.14.68.65.65,0,0,0,.16.85.06.06,0,0,1,0,.09s-.07,0-.09,0m5.06,14.42a17.49,17.49,0,0,0,1.77-2.19c.16,0,.52-.07.6-.06-.59.66-1.39,1.37-1.94,2a2.9,2.9,0,0,1,4.12,1.17,1.28,1.28,0,0,1,.13.56,1.59,1.59,0,0,1-.45,1.27.88.88,0,0,1-.63.3.92.92,0,0,1-.84-.53,1.87,1.87,0,0,0-.42-.55c-1.29-1-3.94.77-4.59,1.84a4,4,0,0,0-.45,1.43,1.89,1.89,0,0,0,.43,1.45,1.62,1.62,0,0,0,.8.58,1.8,1.8,0,0,1-1.93.23c-1.15-.42-1.1-1.5-1.1-2.48a.7.7,0,0,0-.24,0c-.53,0-.64.16-.69-.5l-.33.17a7.54,7.54,0,0,1-4.24.64,4.9,4.9,0,0,1-2.9-1.3,1.51,1.51,0,0,1-.29-1.1,3.15,3.15,0,0,0,.54.9,4.58,4.58,0,0,0,2.69,1.09,6.37,6.37,0,0,0,1.8,0,6.92,6.92,0,0,0,3.46-1.36c-.15.2-.78,1-.43,1.21.1.07.24,0,.4,0a1.13,1.13,0,0,0,.74-.1,2.88,2.88,0,0,0,.82-1,3.66,3.66,0,0,0-.51,1.71,2,2,0,0,0,1.65,1.9,2.8,2.8,0,0,1-.39-.37,2.38,2.38,0,0,1-.56-1.66,3.77,3.77,0,0,1,.38-1.49,5.65,5.65,0,0,1,4.17-2.79,2.88,2.88,0,0,1,.72.06,1.21,1.21,0,0,1,.84.48,1.63,1.63,0,0,1,.35.92c0,.11.05.18.19.17s.33-.21.45-.37a.73.73,0,0,0,.22-.65,1.21,1.21,0,0,0-.2-.55,2.55,2.55,0,0,0-2.24-1.29,18.41,18.41,0,0,1-1.9.31h0m1.4-.39-.57.19-.53,0,.17-.31.44-.43.26-.11c-.14.16-.29.34-.28.46s.47,0,.47,0Zm2.07,2.65-.49-.42c0-.19,0-.38,0-.57-.87-.78-2.1-.43-3,0-.35.15-.4-.17,0-.33l.19-.08c.8-.28,2.48-.5,3.15.24.28.3.19.65.2,1.18M532,34.29a3,3,0,0,0-1.21.16,3.88,3.88,0,0,0-1.07.6.06.06,0,0,1-.09,0,.07.07,0,0,1,0-.09,4.32,4.32,0,0,1,1.11-.62,3.27,3.27,0,0,1,1.26-.16.06.06,0,0,1,.06.06.07.07,0,0,1-.07.06m-5.41,3.43a2.82,2.82,0,0,1,.53-.44c.19-.1.32-.08.15.12l-.07.08a2.9,2.9,0,0,0-.36.34c-.12.15-.16.22-.35.26s-.33.07-.42,0,0-.24.07-.39l.17-.26c.11-.21.64-.43.29,0l-.28.28c-.09.09-.19.11-.12.24s.08.06.17,0,.15-.14.22-.21m-4,.66c-1.48,0-3.26-.48-3.71-1.91a1.18,1.18,0,0,1,0-1.07c.17-.24.29-.28.43,0a.79.79,0,0,0,.24.36,4.47,4.47,0,0,0,4.2.57c.09-.18.19-.35.29-.53-1.2.26-1.75-1.25-2.31-1.2a9,9,0,0,1,.59-1.26c.16,0,.48,0,.64.06a1.22,1.22,0,0,0,.55,2,2.5,2.5,0,0,0,1.84.09c.57-.19,1.68-.63,1.73-1.31a9,9,0,0,0,1.24-1.37c.3-.06.72-.24,1-.3a9.35,9.35,0,0,1-1.73,2c-.29.21-.58.42-.86.64a14,14,0,0,1-2.21,1.15c-1.69.7-3.5,1-5-.34a2,2,0,0,1-.3-.36c-.06-.09-.14-.06-.21.05a.64.64,0,0,0,0,.57,3.12,3.12,0,0,0,3.36,2,.49.49,0,0,1,.17-.12c.15,0,.27,0,.22.2a.26.26,0,0,1-.2.19m4-3.75a4.35,4.35,0,0,1-1.73.75,1.86,1.86,0,0,1-1.12-.14,1.34,1.34,0,0,1-.6-.52A1.08,1.08,0,0,1,523,34a1.29,1.29,0,0,1,.27-.77.06.06,0,0,1,.09,0,.05.05,0,0,1,0,.08,1.26,1.26,0,0,0-.24.71,1.07,1.07,0,0,0,.16.65,1.22,1.22,0,0,0,.55.47,1.78,1.78,0,0,0,1.05.13,4.52,4.52,0,0,0,2.26-1.12l0,0a.06.06,0,0,1,.07,0,.06.06,0,0,1,0,.09A5.19,5.19,0,0,1,526.58,34.63Zm1.6-23.91c-.19-.2-.28-.19-.07-.37.12.16.14.18.31.13.24.11.27.08.25.35a.39.39,0,0,0-.49-.11m1.18,3.19c.07-.06.15-.09.16-.19s0-.05,0-.06-.1-.05-.17,0l-.06.11c0,.11,0,.11.09.15m-.1-.53a.32.32,0,0,0,0-.13c0-.1-.07-.09-.14-.07s-.07,0-.08.06,0,.15,0,.18.14,0,.19,0m-.38.42c.09-.07.12-.09.13-.16s0-.09-.08-.14l-.11,0a.07.07,0,0,0-.05.08.18.18,0,0,0,0,.13l.07.06Zm-.57.46c.09,0,.23-.1.32-.19s0-.05,0-.09,0-.07,0-.08-.09,0-.15,0l-.16.08,0,.25m.16-1c.08.13.11.14.17.1s.1-.07.1-.12a.14.14,0,0,0,0-.09c0-.08-.12-.06-.18,0a.18.18,0,0,0-.09.06.08.08,0,0,0,0,.08m.55-.4c0-.05,0-.09-.06-.15a.12.12,0,0,0-.14,0s-.05.06-.07.13a.14.14,0,0,0,0,.13l.08,0c.09,0,.13-.06.15-.14m-.35-.44a.13.13,0,0,0-.23,0c0,.08,0,.13,0,.17a.14.14,0,0,0,.2-.19m-.5-.35.2-.09.14-.07,0-.14-.06-.1-.1,0v-.09l0-.13-.08-.09-.1,0-.07.1,0,.12s0,.18,0,.16.07.31.07.31Zm.63-.09a.19.19,0,0,0-.13.05s0,0,0,.07.09.09.16.09a.07.07,0,0,0,.08-.06.12.12,0,0,0,0-.1C528.86,11.94,528.86,12,528.8,12Zm.21-.21a.15.15,0,0,0,0-.13.16.16,0,0,0-.09-.09s0,0-.07,0,0,0,0,.07a.3.3,0,0,0,.08.16.06.06,0,0,0,.07,0s0,0,0-.06m.21.25c0,.09.18.18.21,0s0-.14-.09-.18-.09.05-.12.15m-.05.52c.06,0,.08-.06.08-.1a.15.15,0,0,0-.3-.05C529,12.51,529,12.51,529.17,12.51Zm.11.36c0,.11,0,.12.09.11s.08,0,.09-.07,0-.09,0-.12-.08,0-.12,0-.08,0-.07.12m.29-.24c.07,0,.08,0,.1-.11a.11.11,0,0,0,0-.11s0,0-.11,0a.09.09,0,0,0-.06.09c0,.06,0,.14,0,.16a.11.11,0,0,0,.07,0m-.6,1.71a1.3,1.3,0,0,0,.2-.15c.1-.11,0-.23-.1-.18l-.1.06-.15.13a2.4,2.4,0,0,1-.38.23l-.24.14s0,.1,0,.15l.13,0A6.27,6.27,0,0,0,529,14.34Zm-1-2.78c.18-.52.82-.91,1.17-.18.27.07.4.1.49.39s.29.26.24.57a1.73,1.73,0,0,1-.21,1v.12l.16,0a1.87,1.87,0,0,0,.07-.22c.08-.24.2-.08.17.13-.08.74-1.37,1.48-1.93,1.69,0-.23.07-.46.11-.69,0-.39.07-.79.1-1.18s-.07-.63-.11-.95c-.06-.14-.11-.28-.16-.43Zm.09,3.68a5.33,5.33,0,0,0,1.53-.66,3.37,3.37,0,0,1-1.7.9c-.08,0,.17-.24.17-.24m2.71-.74a.11.11,0,0,0,.09,0c.09,0,.14-.08.09-.16s-.08,0-.13,0-.12.1,0,.16m-.57.56.3-.16c.1-.09.2-.13.21-.22s0-.11-.1-.12-.05,0-.12,0l-.14.1L530,15s-.06,0-.07.06.21.09.27.05m.83-.17c-.1,0-.1.08,0,.12s.09.05.15,0,0-.17-.1-.13m-.4.43c0,.18.13.13.2,0s0-.12,0-.13-.14,0-.15.11m-.4.17a.15.15,0,0,0,.26.15l0-.07c0-.15-.07-.17-.19-.14s-.09,0-.1.06m-.89.34a.23.23,0,0,0-.11.27.11.11,0,0,0,.07.08c.18.06.27-.15.24-.28s0-.06,0-.07-.1,0-.17,0m.59-.19c-.08,0-.1,0-.12.1a.09.09,0,0,0,0,0,.15.15,0,0,0,.13.17c.11,0,.13-.06.14-.14s0-.2-.14-.18m.52,1c0,.1,0,.11.07.16a.15.15,0,0,0,.15,0c0-.06.1-.11,0-.17s0,0-.08,0a.12.12,0,0,0-.1,0A.17.17,0,0,0,530.41,16.61Zm.06-.27a.25.25,0,0,0,.16-.3c0-.08-.08-.08-.17-.08a.13.13,0,0,0-.08,0c-.07.06-.09.08-.08.18v0c0,.09.07.15.17.12m.56-.47c0-.08,0-.13,0-.16a.11.11,0,0,0-.12,0,.11.11,0,0,0-.1.08.18.18,0,0,0,0,.2l.08.05a.13.13,0,0,0,.15,0,.1.1,0,0,0,0-.1Zm.1-.27c0,.12,0,.18.17.17s.07,0,.1-.13,0-.13-.07-.16-.19,0-.2.12Zm-1.34,1.07c.07-.08.07-.06.18-.06a.19.19,0,0,0,.2-.14.25.25,0,0,0,0-.15c0-.1-.06-.14-.2-.07a.19.19,0,0,0-.08.07c0,.05,0,.08-.09.11s-.07,0-.14,0-.08,0-.19,0a.23.23,0,0,0-.14.25c0,.07,0,.08.15.09s.21,0,.31-.11m-2-1.14a3.32,3.32,0,0,0,2.06-.79,5.2,5.2,0,0,0,.44-.38l.15-.23c.13-.32.44-.34.47,0,.24,0,.3.15.28.37.27.09.26.21.26.47a1.18,1.18,0,0,1,.23.55c.05.51-.38.58-.77.69.13.53-.07.79-.65.81a2.31,2.31,0,0,1-.41.16c-.12,0-.19,0-.2,0s.06-.13.13-.16.24,0,.32-.1,0-.05,0-.12l-.41.08a.5.5,0,0,0-.29.18,2.33,2.33,0,0,1-1.07.24,1.43,1.43,0,0,1-.3,0c-.19-.05-.18-.15-.1-.23s.55-.05.74-.07.46-.05.46-.19-.17-.1-.28-.08a3.17,3.17,0,0,1-.55.08c-.22,0-.43,0-.65,0a.43.43,0,0,1-.29-.08s0-.08,0-.12.13-.08.25-.06l.53,0a.88.88,0,0,0,.69-.23c.17-.17.16-.23-.1-.25a1.33,1.33,0,0,0-.35.08,2,2,0,0,1-.95,0l.1-.22.25,0a2,2,0,0,0,.89-.1c.27-.13.55-.23.82-.37a.31.31,0,0,0,.15-.17c.07-.13-.33,0-.38.08a2.47,2.47,0,0,1-1.57.33Zm3.59,16.38a1.27,1.27,0,0,1-.62.8.49.49,0,0,1,.11-.36c.3-.37-.13-.27,0-.45l.34-.06.17.07m.86-.14a1.5,1.5,0,0,1-.8.86.6.6,0,0,1,.16-.41c.39-.39-.13-.32,0-.52l.4,0,.19.1m-1.48.15a2,2,0,0,1-.89,1.12,1.39,1.39,0,0,1,.38-.69c.39-.26-.13-.27,0-.45l.34-.06.17.08m-.76.27a2,2,0,0,1-.89,1.12,1.43,1.43,0,0,1,.38-.68c.4-.26-.13-.27,0-.46l.35-.05.16.07m-.44.39c0-.23-.32.14-.4.24l-.09-.11a1.72,1.72,0,0,1,.11-.29,2.92,2.92,0,0,1,.35-.1s.21,0,.22,0a.68.68,0,0,1,0,.25l-.18,0m.67-.09c.12-.37-.33,0-.41.14l-.09-.1a1.72,1.72,0,0,1,.11-.29l.35-.1s.21,0,.22,0a.68.68,0,0,1,0,.25s-.13.11-.17.11m-8.53,1.68c.45-.29.51-.61.56-1.16.14-1.46-.84-2.36-2.38-2.65-2-.37-3.55,1.33-3.68,3.34a5,5,0,0,0,.69,2.78,2.42,2.42,0,0,0,.9,1l-.29.36c-.06-.39-.25-.31-.51-.11,0-.26-.06-.35-.32-.3,0-.09.09-.17.13-.26s.05-.23,0-.28c-.22-.21-.47.33-.54.46a2.89,2.89,0,0,1-.62-.95,5.13,5.13,0,0,1-.38-2.57,4.05,4.05,0,0,1,4.38-3.71,1.34,1.34,0,0,1-.09-1.46,1.37,1.37,0,0,0,.36,1.47c2.33.28,3,2.19,2.11,4.36l-.25.15c0-.14,0-.28-.07-.42m.76-1.71-.06-.21a5.11,5.11,0,0,1,2.47-.94l-.14.11a4.62,4.62,0,0,0-2.18,1l-.09.06m.4.41c0,.41-.26.53-.62.68l.08-1.13c-.06-.19-.12-.38-.17-.57s-.22-.62-.25-.76a2.65,2.65,0,0,1,.64,1.4.92.92,0,0,0,.05.28c0,.12.06.11.27.1m-5.66,3.49a4,4,0,0,1-.75-3.15A3.71,3.71,0,0,1,518,30.79a2.81,2.81,0,0,1,2.3-.18,3.8,3.8,0,0,0-2.19.36,3.27,3.27,0,0,0-1.56,2.3,5,5,0,0,0,.61,3.09m.91-.54a1.54,1.54,0,0,0,0,.57c.15,1.19,1.09,1.55,2.08,2a2.49,2.49,0,0,1-2.29-2.13,2.74,2.74,0,0,1,0-.64,1.46,1.46,0,0,1,.07-.19c.13-.25.19-.09.19.1a1.18,1.18,0,0,1,0,.27m-.19,1.52-.3.1-.27-.19a2.35,2.35,0,0,1-.55-.54l-.3-.1c0-.18.13-.41.16-.59a1.88,1.88,0,0,0,.67.83c.31.19.13-.15.12-.29s.14-.14.19.06a3.35,3.35,0,0,0,.28.72m2.56-4.57,0-.11c-.05-.11-.15-.3-.1-.42s.19-.09.28.07a.53.53,0,0,1,0,.25c0,.13-.08.39.1.37s.09,0,.12-.19a.73.73,0,0,0-.1-.58c-.11-.16-.2-.21-.22-.32-.05-.28.3-.34.51-.29.39.09.48.66.4,1.1-.17.87-1.46,1.35-1.57.28,0-.34-.23-.47-.52-.12a.89.89,0,0,0-.11.76,1.17,1.17,0,0,0,1.53.91,1,1,0,0,0,.67-.38c.11-.14.1-.24.3-.23l.22,0c-.11.21-.13.43-.37.43a2.21,2.21,0,0,1-1.48.41,1.3,1.3,0,0,1-1.09-1.2c0-.1-.05-.16-.21-.13s-.26-.1-.26-.26-.09-.31-.4-.07l-.15-.07c.25-.35-.08-.31-.25,0-.1-.09-.28-.31-.25-.45.56-.68,2.24-.76,2.58.18.08.21.18.44.3.39s.09-.21.05-.3m-2.81-.39.28.36c0,.1,0,.21-.05.28a.24.24,0,0,1-.21,0c-.21,0-.31.11-.38.29a2.17,2.17,0,0,0-.09.76c0,.2.13.92.22.31a5.81,5.81,0,0,0,0-.59c0-.11,0-.63.18-.56s0,.15,0,.31a2.14,2.14,0,0,0,0,.36c0,.19.17.24.23,0s0-.24,0-.36a1,1,0,0,1,.2-.73h.1l.09.07-.11.3c0,.1,0,.2-.07.3a.41.41,0,0,0,0,.31c0,.09.13.14.17,0a.36.36,0,0,0,0-.17c0-.13,0-.18.06-.29s.12-.08.17,0a.21.21,0,0,1,0,.19.24.24,0,0,0,0,.17c0,.07.06.07.11.06s.08-.07.08-.17a1.22,1.22,0,0,0,0-.27l.12-.1.14,0a1.29,1.29,0,0,0,.45,1.34c.07.07.16.17.15.24s0,.07-.06.08a.11.11,0,0,1-.14,0c-.11-.06-.15,0-.17.16a1.84,1.84,0,0,0,0,.25c-.06.06-.13.09-.18.15a3.06,3.06,0,0,0-.21.29v-.2c.05-.2.14-.38.2-.59a1.51,1.51,0,0,0,0-.32c-.07-.33-.34-.4-.62-.4-.46,0-.69.17-.71.63,0,.17-.07.25-.2.3s-.28-.1-.33-.28l-.09-.36a2.38,2.38,0,0,1,.14-1.53,2.76,2.76,0,0,1,.38-.58l.12-.12m1.8,2.3a1.86,1.86,0,0,0,2.34-.28l.07.12c-.26.27-.73.4-.88.73a.35.35,0,0,1-.29.25c-.18,0-.29.22-.39.43l-.13.2s-.28-.06-.26-.1a1.55,1.55,0,0,1,.23-.31c.13-.14,0-.3-.17-.18l-.07.06a.49.49,0,0,0-.22.29l-.19-.07,0-.12c0-.06.13-.08.16-.14s0-.25-.16-.17-.06.07-.11.17l-.16-.17c0-.1-.06-.21-.08-.31s.09-.17.13-.26l.22-.14m2.29,0a.25.25,0,0,0,0-.07l.17-.08.32.14a3.19,3.19,0,0,0-.49.48c-.07.08-.12.1-.09.2s0,.05.06,0a.44.44,0,0,0,.14-.13,1.76,1.76,0,0,1,.5-.48l.15.2-.39.31a5.07,5.07,0,0,0-.79.88l-.27.41-.24-.1.1-.18.07-.07c.07-.09,0-.16,0-.13a.16.16,0,0,0-.08.08,1,1,0,0,0-.08.11l-.12.12h-.14l-.13-.06a1.44,1.44,0,0,1,.31-.43c.11-.09.19-.11.21-.26a.2.2,0,0,0,0-.16s0-.19,0-.24a1.4,1.4,0,0,1,.24-.16c0,.22.07.24.22.11l.46-.42c.06-.06,0-.1,0-.1m1.79,1.82.12-.23c.06-.12.1-.13,0-.21a.32.32,0,0,0-.27.16c0,.07-.08.32-.12.35s-.48.14-.48.14a1.52,1.52,0,0,1,.43-.77l0-.1c-.16.06-.21,0-.21-.14-.09,0-.28.08-.31,0s0-.13,0-.21,0,0-.1,0-.3.09-.3,0-.07-.06-.14,0-.12-.06-.17-.07l.27-.24.46-.17.52.51,1,.37-.16.51-.31.24-.21,0m-3.79,2.75c-.26,0,0,.41-.38.18,0-.1,0-.15,0-.25l.15-.37.78.28,1,0c.06.11-.33.2-.26.6,0,0-.13,0-.14,0s-.07-.09-.08-.07-.12-.07-.19-.12-.05,0-.08,0-.06.08-.11.12-.16-.08-.2-.13-.12.08-.19,0c-.19.07-.33.06-.37-.09m4.13,3.33a3.59,3.59,0,0,1,.37.42,1.1,1.1,0,0,1-.16,1.55c-1.38,1-3.19-.31-3.53-1.69a5.13,5.13,0,0,1,.63-3.75l.37,0c-.17.26-.33.53-.49.8a.65.65,0,0,1-.13.69l0,.08c-.08.21.17.25.24,0l.05-.15.06-.14c.05-.12.07-.2.2-.25s.3.13.09.32l-.14.13c-.14.13,0,.18.15.1s.18-.12.12-.19,0-.1,0-.1c.11-.16.47-.14.64-.11a3.15,3.15,0,0,1,2.83.26,3.59,3.59,0,0,1,1.74,2.23,2.64,2.64,0,0,1-.44,2.58,3.54,3.54,0,0,1-.75.65,4.21,4.21,0,0,1-5,0,11.69,11.69,0,0,1-1.3-1.22,7,7,0,0,0-.65-.68c-.12-.1-.23-.19-.36-.28l.13-.18a1.31,1.31,0,0,0,.47.27c-.72-1.73-.19-3.53.38-5.19,0,0,.21,0,.25.06-.52,1.65-1.2,3.47-.39,5.15a6.87,6.87,0,0,0,1.6,1.84,4,4,0,0,0,4.44.11,3.29,3.29,0,0,0,.83-.7,2.23,2.23,0,0,0,.51-2.25,3.71,3.71,0,0,0-1.61-2.1,3.18,3.18,0,0,0-2.68-.36l-.64.5a2.28,2.28,0,0,0-.54,1.75c.19,1,1.54,2.07,2.51,1.47.17-.1.17-.3.21-.51.09-.43-.21-.55-.52-.78-.46-.35-.65-.68,0-.79a1.24,1.24,0,0,1,1.24.64c.51.72.25,1.28-.35,1.88.32-.51.62-1.18.16-1.69a1.58,1.58,0,0,0-.5-.39m-.7-2.24c0,.13,0,.12.17.15a2.15,2.15,0,0,1,1,.29c-1.17-.27-2.92.07-2.86,1.63a1.5,1.5,0,0,0,.32.86.94.94,0,0,1-.45-.82,1.9,1.9,0,0,1,1.2-1.78c.17-.09.2-.13.17-.3l.43,0m7.27-21.89.15,0,.14,0c0-.09,0-.09,0-.17a.6.6,0,0,0-.23,0c-.09,0-.08,0-.08.13l0,.06m.53-.46c-.18.15-.11.22.07.27a.2.2,0,0,0,.22-.05l.07-.07c.14,0,.24-.08,0-.18h-.11c-.08.07-.07.08-.17,0Zm0,.53c-.11.1-.09.09,0,.23a.47.47,0,0,0,.33,0c.08,0,.07,0,0-.2l-.12-.05H531m-.57.45h.16c.11,0,.12,0,.13-.13s0-.07,0-.09a.22.22,0,0,0-.19,0c-.14,0-.18.14-.07.24m.55.16c-.08,0-.19.08-.09.17a.14.14,0,0,0,.13,0c.11,0,.15,0,.13-.1a.14.14,0,0,0-.17-.1Zm-.81.17c-.06,0-.12,0-.07.12s.06.05.14.08h.16l.11,0c.23-.08,0-.17-.11-.2l-.23,0M529,17.86l-.18,0c-.17,0-.22,0-.26-.17s0-.18.16-.2h.41a5.27,5.27,0,0,0,.79,0,2.9,2.9,0,0,0,.57-.18.92.92,0,0,1,.52-.15c.11,0,.15.06.12.16s-.16.15-.32.18a3.75,3.75,0,0,0-.67.22,1.11,1.11,0,0,1-.48.11c-.3,0-.47.12,0,.21a3.54,3.54,0,0,0,1.23-.31l.28-.08c.23-.07.32-.38.57,0a1.11,1.11,0,0,1-.2,1.57,1.52,1.52,0,0,1-1.13.52l-.49,0-.07,0c-.16-.11-.09-.12,0-.24s0-.09-.07-.09a.85.85,0,0,1-.28,0c-.22-.06-.2-.22-.07-.28a1.19,1.19,0,0,1,.65,0l.08-.11a2,2,0,0,0-1.21-.14c-.06-.1-.12-.19-.17-.29h.24c.33,0,.65.06,1,.07a.29.29,0,0,0,.16,0c.15-.07,0-.14-.09-.16s-.39,0-.6-.05-.51-.07-.41-.41m3.74,2.58c-.05-.29,0-.44-.28-.61a.34.34,0,0,1,0-.55,1.52,1.52,0,0,0,.31-.8l0,.72c0,.27,0,.53,0,.8s0,.29-.07.44m0-2.84s-.07-.1-.09-.18-.28-.29-.37-.48-.06-.16,0-.24.08,0,.2,0a5.07,5.07,0,0,1,0-1.1l.09.33c0,.24.07.48.1.72s.09.79.1,1m-1,7.31,0-.3a.5.5,0,0,1,.19-.63l.19-.12-.09.39-.15.43-.11.23m-.34-12a.67.67,0,0,0-.3-.19c-.24-.06-.24-.08-.25-.33a2.9,2.9,0,0,0-.29-.68l.27.29c.09.13.18.26.26.39l.22.32.09.2M528.31,10c-.65,0-.83,0-1.25-.44l.49.09.72.26,0,.09m-.25,20.26a3,3,0,0,0,1-1c.24.18,0,.32-.11.53,0,0,0,.38,0,.34a2.4,2.4,0,0,0-.52.1l-.36,0m-.25,0c.05,0,.09,0,.12,0,.23.06-.17.13-.45.2l-1.32.44-1.07.51-.72.08-.63.16c.28-.5,1.07-.07,1.36-.74a.58.58,0,0,0-.41-.07c-.74-.62,1-.14,1.33-.3a1,1,0,0,0-.51-.1c-.31-.56.69-.23,1-.14.07-.26.26-.18.47-.09l.15-.13c-.06-.1-.17-.29-.07-.36s.06-.05.06,0,.5.53.74.56m2.67-9.88c-.15,0-.47.07-.59,0s0-.27.15-.28a2.32,2.32,0,0,0,.79,0,2.18,2.18,0,0,0,.27-.11c.14-.06.2,0,.17.12s-.15.17-.27.22a3,3,0,0,1-.52.13m.45,1c.17-.11.34,0,.45-.15l.07-.06c.11,0,.17.05.19.09s0,.12,0,.14-.25-.06-.41.1l-.19,0c-.15,0-.13,0-.12-.15m.34.46c.17.21.19.18-.06.27l-.27,0-.05-.09c0-.27.21-.23.38-.2m.23.41c.15,0,.14,0,.19.11s0,.05,0,.09-.11.12-.18.06-.1-.08-.07-.22l.08,0m-.72.71h.11c.12,0,.16.11.11.18s-.16.07-.19.1-.11,0-.12-.14,0-.08.09-.15m.08-2.14c.1-.09.26-.19.38-.05s-.07.27-.31.35H530c-.3,0-.28.28,0,.28h.48c.45.1,0,.22-.24.24h-.19c-.2,0-.36.08-.23.32l.42.05c.13,0,.47-.07.46.12a.18.18,0,0,1-.08.14.56.56,0,0,1-.52,0,.48.48,0,0,0-.4.05v.13l.13.1c.19,0,.49.1.65,0a2.43,2.43,0,0,0,.43-.12c.14,0,.21-.07.24.08s0,.15-.21.16a.45.45,0,0,0-.19.09,2.41,2.41,0,0,1-.71,0c-.12,0-.39-.06-.33.14s.11.09.28.1.34,0,.44,0c.32.12,0,.37-.31.27a.22.22,0,0,0-.24.05c-.29.21,0,.33.19.32a1.4,1.4,0,0,0,1-.25,1.41,1.41,0,0,1,.52-.45c.32-.23.26-.34.29-.75.19-1,.19-2-1.23-1.65a1,1,0,0,1-.75,0c-.12,0-.13-.1-.21,0s0,.17.17.23a1.36,1.36,0,0,0,.67,0c.13.08.2.09.28,0m-.31,3,.16.09c.51.25.2.4-.19.56a1.56,1.56,0,0,1-.68.05c-.18,0-.24,0-.2-.19s.19-.29.43-.06a.53.53,0,0,0,.2,0c.17,0,.31-.13,0-.2s-.33-.23-.14-.31a.5.5,0,0,1,.43,0m-.27,2c-.15-.08-.11-.16-.11-.33s.09-.11.16-.12.11,0,.16.05l.06.06v.06a.4.4,0,0,1,0,.18c0,.08,0,.1-.18.1Zm0,.21a.17.17,0,0,1,0,.17.19.19,0,0,1,0,.08l-.1,0c-.07,0-.09,0-.14-.05s0-.13,0-.2.15-.12.22,0m-1-.62.25,0c.13,0,.32,0,.42.07s0,.1,0,.17-.34.1-.53.1-.26-.07-.33.11,0,.09.1.17a.24.24,0,0,0,.22,0c.1,0,.19-.07.26,0,.24.09.3.4,0,.49a.91.91,0,0,1-.49-.06.3.3,0,0,0-.29,0c-.3.13,0,.29.17.32l.17,0h.38a1.21,1.21,0,0,0,.67-.21c.35-.21.64-.38.66-.85,0-.08,0-.15,0-.23s0-.49-.18-.63a.33.33,0,0,0-.4.05c-.13.09-.14.13-.3.12h-.2c-.24,0-.58-.12-.73.12,0,.09,0,.12.1.21h0M529,27.31l-.32,0c-.36-.23,0-.26.27-.3l.45,0c.32,0,.37.1.24.2s-.38.13-.64.12m-.89,1.14c0,.13.51.09.57,0s-.1-.17-.12-.19-.26,0-.35,0-.07,0-.08.06a.26.26,0,0,0,0,.11m0,.41c-.28-.19-.61.36-.25.28,0,0,.07,0,.13-.07s.19-.16.12-.21m-.78,0c-.11-.18-.1-.29,0-.32s.42.08.54,0-.14-.26-.16-.34c0-.24.15-.22.45-.21.53,0,.81.33,1-.13.38-.43.48.08.24.39-.65.87-1.11,1.5-2.4,1.25l-.12-.05c-.29-.12-.22-.38.11-.37a.38.38,0,0,1,.24.08.16.16,0,0,0,.16,0c.06,0,.09,0,.1-.12S527.37,28.94,527.3,28.87ZM518.42,43.8a2.3,2.3,0,0,0-1-.25c.12.59-.29.91-.76,1.14a1.05,1.05,0,0,1-1.26,0,2.61,2.61,0,0,1-1.13-2.16,4.73,4.73,0,0,1,.22-2,25.87,25.87,0,0,1,1.65-3.5l.28-.19.14,0,.06.16-.13.23a10.46,10.46,0,0,0-1.77,3.37,6.18,6.18,0,0,0-.13,1.92,2.43,2.43,0,0,0,.93,1.88.88.88,0,0,0,1.1.1.93.93,0,0,0,.53-.9c-.13-.66,1.17-.1,1.39.07l-.13.18m-2.83.65-.4-.13-.4-.37c-.07-.36-.15-.72-.23-1.08l-.15-.86c.05.09.17.3.28.13a.3.3,0,0,0,0-.21,4.55,4.55,0,0,1,.36-1.7A26.74,26.74,0,0,1,516.76,37l.16-.17a1.82,1.82,0,0,1,.07.25l-.06.21a17.28,17.28,0,0,0-1.62,3,4.1,4.1,0,0,0-.37,1.86,1.07,1.07,0,0,0,.06.31c0,.07.06.07.08,0a2.09,2.09,0,0,0,0-.25,3.37,3.37,0,0,1,.2-1.31c.14-.3.48-.39.33-.06l0,.09a3.94,3.94,0,0,0-.21,1,1.92,1.92,0,0,0,.9,2.17c.21.11.05.26-.13.24a.72.72,0,0,1-.41-.22c-.07,0-.15-.08-.2,0s.11.18.05.27m1.07-.79c-1.75-1.27,0-4.59,1.31-5.95,0,0,.1,0,.13.08a.09.09,0,0,1,0,.13c-1.2,1.28-3,4.39-1.31,5.61a.1.1,0,0,1-.14.13m-.88-2.07h0c-.13.71-.1,1.9.72,2.13a.09.09,0,0,1,.06.12.09.09,0,0,1-.11.06c-.93-.26-1-1.54-.85-2.34h0a.1.1,0,0,1,.11-.08.09.09,0,0,1,.07.11ZM519.09,40a4.48,4.48,0,0,0-.61-.24,3.53,3.53,0,0,0-.64-.11.1.1,0,0,1-.08-.1.11.11,0,0,1,.1-.09,3.94,3.94,0,0,1,1.3.37.09.09,0,0,1-.07.17m.15-.53a2.76,2.76,0,0,0-1.22-.34l-.27,0a.08.08,0,0,1-.08-.1.09.09,0,0,1,.1-.08l.26,0a2.88,2.88,0,0,1,1.29.35.09.09,0,0,1,0,.12.09.09,0,0,1-.12,0m-.33,1.11a3.77,3.77,0,0,0-.69-.27,4,4,0,0,0-.74-.14.09.09,0,0,1-.08-.1.09.09,0,0,1,.1-.09,5.53,5.53,0,0,1,.77.15,5.06,5.06,0,0,1,.72.28.11.11,0,0,1,0,.13.1.1,0,0,1-.12,0m-.09.56-.35-.13a3.23,3.23,0,0,0-1.23-.28.09.09,0,1,1,0-.18,3.23,3.23,0,0,1,1.29.29l.35.13a.08.08,0,0,1,0,.11.08.08,0,0,1-.11.06m-.12.59a3.78,3.78,0,0,0-2.08-.38h-.12a.1.1,0,0,1-.09-.1.09.09,0,0,1,.09-.09h.12a4.07,4.07,0,0,1,2.16.4.1.1,0,0,1,0,.13.1.1,0,0,1-.12,0m0,.51a4.12,4.12,0,0,0-1.33-.33,4.35,4.35,0,0,0-1.36.14.08.08,0,0,1-.11-.06.09.09,0,0,1,.07-.11,4.13,4.13,0,0,1,1.42-.15,4.17,4.17,0,0,1,1.38.34.09.09,0,0,1,.05.12.09.09,0,0,1-.12.05m0,.59a4.14,4.14,0,0,0-1.37-.35,5.72,5.72,0,0,0-1.41.09.08.08,0,0,1-.1-.07.09.09,0,0,1,.07-.11,5.62,5.62,0,0,1,1.46-.09,4.5,4.5,0,0,1,1.42.36.09.09,0,0,1,0,.12.1.1,0,0,1-.12,0m.12.42a9.49,9.49,0,0,0-1.42-.26,4.36,4.36,0,0,0-1.42.12.08.08,0,0,1-.11-.06A.09.09,0,0,1,516,43a4.25,4.25,0,0,1,1.48-.13,9.63,9.63,0,0,1,1.45.26.09.09,0,0,1,0,.18m.32-4.72a8.41,8.41,0,0,0-.56,1.39,6.48,6.48,0,0,0,.05,3.8.08.08,0,0,1-.06.11.08.08,0,0,1-.11,0,6.6,6.6,0,0,1,0-3.91c.07-.25.15-.49.24-.73s.21-.47.33-.7a.1.1,0,0,1,.12,0,.1.1,0,0,1,0,.13Zm-.79.41a4.52,4.52,0,0,0-.23.68,7.38,7.38,0,0,0-.11,3.8.08.08,0,0,1-.06.11.08.08,0,0,1-.11-.06,7.43,7.43,0,0,1,.1-3.9,6.37,6.37,0,0,1,.24-.7,3.73,3.73,0,0,1,.3-.6h0a.09.09,0,0,1,.13,0,.09.09,0,0,1,0,.12A3.92,3.92,0,0,0,518.41,39Zm-.89.92h0l-.12.44c0,.16-.06.31-.08.47a5.94,5.94,0,0,0,.13,2.41.09.09,0,0,1-.07.11.09.09,0,0,1-.11-.06,6.32,6.32,0,0,1-.13-2.49c0-.16.05-.32.08-.48l.12-.46h0a.09.09,0,0,1,.11-.06.09.09,0,0,1,.06.12Zm-.72,1a5.44,5.44,0,0,0-.08,1.24,4,4,0,0,0,.28,1.2.09.09,0,0,1-.17.07,4.12,4.12,0,0,1-.3-1.25,5.88,5.88,0,0,1,.09-1.29.08.08,0,0,1,.1-.08.1.1,0,0,1,.08.11"/></g></g></svg>