<svg xmlns="http://www.w3.org/2000/svg" viewBox="0 0 549.04 45.93"><defs><style>.cls-1{fill:#fff4e4;}.cls-1,.cls-2{fill-rule:evenodd;}.cls-2,.cls-3{fill:#7c6742;}</style></defs><title>title_6</title><g id="Layer_2" data-name="Layer 2"><g id="Layer_1-2" data-name="Layer 1"><path class="cls-1" d="M78.07,7.47H471A15.29,15.29,0,0,1,471.62,38H77.42v0a15.29,15.29,0,0,1,.65-30.56"/><path class="cls-2" d="M17.77,3.35c0-.66,1.93-1.62,2.51-2a3.93,3.93,0,0,1,1,1.68v.67c0,.45-.24.49-.5.67-.31-.64-.29-1.18-1.35-1.18-.6,0-1,.67-1,1.35-.38-.11-.67-.17-.67-.68Zm31.51-.17c0-.51,1.77-1.73,2.18-2a4.44,4.44,0,0,1,1.18,2.52c0,.23-.35.4-.51.5-.45-.33-.58-1-1.17-1h-.17c-.77,0-.52.79-1.34,1a2.41,2.41,0,0,1-.17-.84ZM51.46,5.7a1.29,1.29,0,0,1,1-1h.17a1.8,1.8,0,0,1,1.67,2c0,.52-.15,1-.67,1-1.06,0-.79-1.06-1.84-1.34-.22.44-.17-.14-.17.5,0,.07,1.38,3.15,1.48,3.38.23.49,1.71,3,1.71,3.16,0,.46-.55.81-.84,1C51.89,13,50.39,7,50,6.7c-.46.34-.59,1-1.18,1h-.33c-.33,0-.67-.3-.67-.5a2.25,2.25,0,0,1,1.67-2h.17c.81,0,.49,1,1.84,1ZM20.12,6A.94.94,0,0,1,21,5.2h.67A1.7,1.7,0,0,1,22.8,6.37v.5a1.77,1.77,0,0,1-.5,1.18c-2-.47-.62-1.35-1.68-1.35-.21,0-.5.35-.5.68,0,.09.38.45.47.87.12.57,0,.44.19,1s.38,1.08.62,1.72c.35.92,1.73,2.44,1.73,3.13a6.92,6.92,0,0,1-.67.84c-1.53-1-3.52-4.9-3.52-7.54-.3-.21-.29-.34-.67-.34s-.41.67-1,.67h-.34c-.39,0-.5-.12-.5-.5,0-.81.46-1.85,1.17-1.85h.17C19,5.36,19,6.45,20.12,6.54ZM6,7.21a15.24,15.24,0,0,0,1.18-1c1.43.33,7.49,6.56,8.38,7.88l-1,.87-7-7.5C7,7.81,5.2,9.28,5.2,9.89s2.9,3.19,3.35,3.86l-.71,1c-.52-.34-4.32-4.31-4.32-4.83,0-.12.83-.91,1-1.17L4.32,7.21c0-.07.29-.39.37-.51.48.12,1.19.51,1.34.51m21.46,3.52C27.8,9.39,30.26,7.38,32,7.38h.5A4.18,4.18,0,0,1,35,8.88l-.64.71A3.56,3.56,0,0,0,32,8.72c-1.8,0-2.69,2.34-3.52,2.34-.66,0,0-.25-1-.33M59,10.23c.59-.88,2.6-2.69,4-2.69,2.33,0,2.3.68,3.52,1,0,.44-.27,1-.67,1a1.9,1.9,0,0,1-1-.5l-1.68-.2c-1.16-.13-2.43,2.21-3,2.21A3.34,3.34,0,0,1,59,10.23M28,16.76A40,40,0,0,1,32.9,12c1.19-1.07,3.51-4.24,5.32-4.24a3.65,3.65,0,0,1,2.53.49,32.53,32.53,0,0,1,5.85,5.71L46,14.7c-.93-.18-4.48-4.35-5.13-5.31-1.15,0-.89-.34-1.67-.34h-.67c-1.92,0-8.37,8.22-9.56,8.22h-.33c-.45,0-.5-.25-.68-.51m33.87-3.18c0,.23-.66.71-.84.84-1.41-.95-2.06-2-3.94-2.94s-3.78-.85-3.94-2.76c2.25.18,8.72,3.08,8.72,4.86M7.54,9.89c-.47.11-.28.17-.67.17-.23,0-.33-.23-.33-.51V9.39c0-.39.11-.51.5-.51s.5.12.5.51ZM27.45,13c-.6-.41-1.36-.73-2-1.15-1.28-.79-3.95-1-3.95-2.41V8.88c2.53,0,7.82,3.19,8.71,4.53l-1,1c-.68-.46-1.08-1-1.76-1.5m17-2.39c.82-1.22,3.76-1.85,5.7-2l.38,1.5a11.17,11.17,0,0,0-5.24,1.52Zm-31.18-.17c1.18-.27,3.28-1.67,4.7-1.67h.16c.64,0,.67.84.67,1.51h-.5c-1.12,0-3.43,1.17-4.19,1.17-.54,0-.79-.47-.84-1m4.36.69L16.55,12.5l-.61,1-.18-.11c-.67-1.39-1.18-.55-1.18-1.34,0-.27.46-.39.67-.5l.67.18.51-.48Zm13.08,0a2.55,2.55,0,0,1,.16-.83H32c.38,0,.5.11.5.5v.17c0,.32-.3.67-.5.67s-.3-.06-.5-.17c-.45.22.13.17-.51.17-.23,0-.33-.23-.33-.51m16.43.84c.07-.84.57-.84,1.5-.84-.44.92.32,1.15-1,1.18,0,.79.17.65-.5.83-.11-.38-.17-.67-.68-.67h-.5l.44-.72Zm-2.69,5.37c0-.17,1.33-1.07,1.64-1.39a18.1,18.1,0,0,0,1.35-1.66,13,13,0,0,0,1.4-1.62c.28-.5.5-1.87,1.15-1.87h.5c.27,0,.5.1.5.33a20.59,20.59,0,0,1-2.47,4.07c-.61.61-2.56,3-3.4,3a1.13,1.13,0,0,1-.67-.83M54.5,11.73l-.21-.66c.93.07.39.32,1.36.83v.5c0,.48,0,.31-.33.51-.22-.44-.17.13-.17-.51v-.16c0-.51-.2-.47-.65-.51m8.36-1.5c.44.21,1,.19,1,.83v.17c0,.6-.37.45-.84.67-.36-.19-.84-.29-.84-.84s.31-.64.67-.83M24.64,12.07l-1,1.34c-.38-.79.16-1-.53-1.32s-.73.14-.81-.86c1.41,0,.94.84,1.67.84Zm11.57-.5c.19-.3.54-.84,1-.84.13,0,2.69,2.45,2.69,2.85s-.55.81-.84,1Zm4.53-.34v.17a.65.65,0,0,1-.68.67c-.54,0-.12-.15-.83-.34V10.56a2.66,2.66,0,0,1,.83-.17,1.14,1.14,0,0,1,.68.84m-27.67,6c.32-.48,2.52-2.39,3.15-3.06s1.76-2.9,2.55-3.48l.5.2v.64c0,1.4-3.93,6.7-5,6.7-.47,0-1-.7-1.18-1m37.39-4c0-.07.69-1.21,1.17-1.34l.33.84-.5,1.34c0,.24.23.34.51.34s.11-.34.67-.34c.2,0,.67.75.67,1,0,.09-.24.36-.34.5l-1.32-.4.27,1.25-.75.86-.75-.67c.24-.34.37-.33.37-.71v-.5l-1.33.2v-.53a.64.64,0,0,1,.67-.67H51c0-1.38-.5-.23-.5-1.18M6.37,19.11c.12-1.41,3.82-7,4.69-7a1.55,1.55,0,0,1,.67.67c0,.39-2,2.71-2.37,3.49-.57,1.15-1.35,2.88-3,2.88M51.8,17.77c0-.1,5.13-5.53,5.36-5.53a1.57,1.57,0,0,1,1.18.83L52.69,19c-.32-.45-.89-.79-.89-1.22m-31.52.17c0-.45,4.91-5.37,5.37-5.37.16,0,.73.53.84.67L21,19c-.32-.44-.74-.66-.74-1.07m17.61.83c.78-1.63.62-2.29,1.81-3.88a10.14,10.14,0,0,1,2.71-2.82l.88,1.15c-.67,1-1.46,1.41-2.28,2.64a28.63,28.63,0,0,0-1.78,2.91ZM19.63,12.35c.56.33.82.55.82,1.23,0,.32-.33.11-.33.67v.5c.68-.06.37-.17,1-.17.28,0,.55.49.67.67-.19.29-.36.67-.84.67-.32,0-.11-.33-.67-.33s0,.84,0,1.17-.48.55-.67.67L19.07,17l.25-1-1.05.15c-.1-.14-.33-.39-.33-.49a1,1,0,0,1,.5-.84l1,.42,0-.59c0-.37-.13-.36-.39-.69Zm-7.56,1.73c0-.48,0-.31.33-.5.13.09.34.09.34.33,0,.65-.66.84.84.84l.42,1-1.08-.18c0,.56.39,1.05-.35,1.05-.49,0-.17-.71-.17-1.35l-1,.16-.2-.82h.87Zm45.43,1c0-.38.13-.37.33-.67l.83.2c-.1-.51-.16-.32-.16-.71,0-.23.35-.4.51-.5l.48.36c0,1.88.52.23.86,1.48-.41,0-1-.33-1,.17s.66.74-.5.84v-.67H58c-.38,0-.5-.12-.5-.5m-14.42.67c-.55,0-.63-.34-.67-.84h1l-.15-.82.46-.38.51.38c0,1.22.1.9,1.19,1.15-.23.86-.18.36-1.17.34l-.5,1.11-.21-.11.21-.83Zm-17.43-.67c0-.56.56,0,1-.69.29-.48-.05-.58.85-.65v.5c0,.73.38.36.67.17.26.17.51.22.51.67,0,.23-.23.33-.51.33h-.5v.5c0,.39-.12.51-.5.51s-.43-.39-.51-.67c-.6,0-1-.08-1-.67m10.18-2.73-.12-.12c.75.2,1,2.45,2.68,2.85l-.31.85-1.72.22.18.16-.82,2.19-.18-.07a2.65,2.65,0,0,1-.34-1.34V15.92H33.53c-.45,0-.5-.24-.65-.47ZM10.56,15.42c.58.39,5.36,5.63,5.36,6s-.41.63-.67,1c-.67-.45-5.19-5.38-5.19-6v-.34c0-.45.24-.49.5-.67m16,1.41c.92.69,1,.42,1.78.9,1.47.92,2.81.58,2.81,2.55-1.94-.16-6-2.37-6.9-3.71l.73-.78c.5.32,1,.63,1.58,1m36.27,2.11a2.41,2.41,0,0,1,.17.84v.5c-1.64-.13-6.87-2.56-6.87-3.85a1.13,1.13,0,0,1,.84-.67c.35,0,3.81,3.14,5.86,3.18M41.74,15.76c.63.46,5.53,5.25,5.53,5.7,0,.23-.65.71-.84.83-.69-.46-5.36-5.06-5.36-5.69,0-.17.53-.74.67-.84m-20,6.67c-.77-.5-2.79-2.3-2.82-3.49-.58-.31-2-1.38-2-2.18,0-.09.24-.37.34-.5l.15-.15,5.12,5.44Zm27-6.51a69.63,69.63,0,0,1,5.37,5.37c-.2.38-.45,1-1,1-.12,0-5.36-4.86-5.36-5.53,0-.16.64-.84,1-.84m-17-.2a23.41,23.41,0,0,1,1.68,4.1c.22.85.68,4.82-.13,4.82h-.5c-.68,0-.76-3.47-.86-4.18-.15-1.2-1-2.36-1.19-3.74Zm5.07,2c0-.79-.14-.67.5-.84v.84Zm-3.19-.34c0-.27.1-.5.34-.5s.33.23.33.5v.17c0,.51-.19.47-.67.5Zm-24.81,1c0-.35.4-1.34.68-1.34s.42.69.5,1Zm31.69-1c.37.1.5,0,.5.51s-.35.3-.7.32Zm7.54,1.85c0,.38-.12.5-.5.5s-1-.47-1-.67a1.13,1.13,0,0,1,.84-.67,1.13,1.13,0,0,1,.67.84m6.37-.34c0-.54.61-.84,1.17-.84.21,0,.51.35.51.67v.17a1,1,0,0,1-.84.84h-.17a.65.65,0,0,1-.67-.67Zm-38-.5c.55,0,.8.63,1,1-.22.47-.07.84-.67.84h-.33c-.54,0-.84-.61-.84-1.17a1.13,1.13,0,0,1,.84-.67m8,1c0,.39-.11.51-.5.51H23.3a.65.65,0,0,1-.67-.67v-.34a.65.65,0,0,1,.67-.67h.34c.54,0,.83.61.83,1.17m12.07.17a29.55,29.55,0,0,0,5.2-1l1,.79C42.16,20.33,39,21,37.21,21h-2c-.56,0-1.17-.29-1.17-.83v-.51ZM5.7,19.78c2.35,0,4.52-1.17,5-1.17s.8.7.84,1.17L7.76,21l0-.18a3.62,3.62,0,0,1-2.18.5H4.69a10,10,0,0,1-1.17-.17c0,1-.17,4.36.67,4.36H5c.13.59.68,1.34-.17,1.34H2.68V25.31a1.05,1.05,0,0,0-.17-.67c.24-.34.51-.43.51-.84a.65.65,0,0,0-.67-.67H2c-.39,0-.5.12-.5.51v.16c0,.71.23.09.5.84h-.5A.65.65,0,0,1,.84,24v-.5c0-.59,1.06-1,1.67-1V21a10,10,0,0,1,.17-1.17Zm46.43,5c0-.56,5.18-5.87,5.7-5.87s.24.3,1,.5l-6,6.44c-.35-.26-.74-.43-.74-.9ZM22.3,23.3c.16-.72,3.25-3.79,3.85-4.19l1.17.36c0,1.11-5.19,6-6.2,6.68-.25-.37-.67-.59-.67-1,0-.13,1.29-1.35,1.51-1.67ZM12.74,26c0-.11,5.18-5.68,5.7-6l.88.8-5.67,6.14c-.43-.26-.91-.36-.91-.91m37-6.12c.38.28.93.63.93,1.09,0,0-5.26,5.7-5.7,5.7s-.65-.38-.85-.68ZM30.34,21.62c-.38,0-.5-.11-.5-.5,0-.23.23-.33.5-.33s.47.44.5.83Zm-5,1.18c1.38-.37,2.15-1.63,2.85-2.68.36.19.84.29.84.83v.34c0,2.4,1-.15,2.18,1.68-1.6.84-2-.14-2,1.34A1.19,1.19,0,0,1,28,25.48a4.09,4.09,0,0,0-2.68-2.35ZM41.07,22c-.65-.06-.51.1-.67-.5h.67ZM8.88,21.29c.53-.06,1.18-.45,1.18.33,0,.6-.37.45-.84.67l-.54-.46Zm34.24,4.06.13.13c-1.47-.12-.1-1.5-.9-1.95,0,0-2.19-.17-2.45-.23V23l2.33-.42c0-.61-.15-.29-.15-.93a1.6,1.6,0,0,1,1.17-1s2,2.31,2.18,2.51Zm7.5-2.09.14-.62L50.59,22l1,.41,0-.42c.25.07.5,0,.5.33s-.33.2-.33.51.26-.07.33.84c-.8-.09-.28.23-.67-.51Zm-31-.63c.23,0,.1-.18.67-.34l-.19,1,.61.42c-.46,0-.47-.08-.92-.08-.23,0-.09.18-.67.33l-.21-1.5c.52.1.33.16.71.16m37.72.5c.64-.95,2.05-1.79,2.18-3.35,1.19.32,1.05,1.06,1.36,2s1.86-.36,2,1.2l-.72.43-1.29.2c.06.72.17.41.17,1a1.6,1.6,0,0,1-1.51,1.18,4.06,4.06,0,0,0-2.18-2.69M10.9,22a1.69,1.69,0,0,1,.83-1.68c1,.69,1.15,2.15,2.52,2.52-.37,1.38-2.31,1.33-2.35,3-.74-.2-1-1.12-1-2H9.22c-.52,0-1-.15-1-.67s2-.5,2.69-.5ZM7.57,25.79c0,1.6,1,3.27,1,3.55,0,.55-.71,1-1.17,1.17-.15-.55-.61-1-.88-2-.13-.48-.44-1.5-.64-2A9.11,9.11,0,0,1,5.7,22L7,21.75l.21,3.56Zm31.15-3.66a20.58,20.58,0,0,0,.5,3.69c.16,1,1,2.43,1,3,0,.24-.65.72-.84.84-1.82-1.22-2-5.24-2-7.88a2.79,2.79,0,0,1,.84-.17h.5ZM23.3,29.34a1,1,0,0,1-.84.83c-.54,0-5-5.27-5.39-6.06l.56-.62c.69.46,5.67,5.25,5.67,5.85m35.75-2.9c.48.49,2.64,2.32,2.64,2.9,0,0-.6.9-.67,1l-5.7-6.2c.38-.25.59-.67,1-.67s2.28,2.53,2.72,3m-24.69-2.8h.51l.17.83h-.68Zm14.25.5a1.65,1.65,0,0,1,1-.84c.06,0,5.19,5.36,5.53,5.87l-.8.87c-.75-.51-5.74-5.3-5.74-5.9m13.75.67c-.39,0-.5-.12-.5-.5s.23-.34.5-.34h.5c0,.54.06.84-.5.84M30.84,25c-.37,0-.83.05-.83-.34,0-.23.22-.33.5-.33s.31.34.33.67m9.9-.51h.83c-.18.68,0,.49-.83.51Zm-31-.16c.51,0,.47.19.51.67h-1c0-.48,0-.67.5-.67m14.08.33c0-.46.55-.81.84-1a51,51,0,0,1,5.37,6c0,.26-.33.19-.51.84-.7-.19-5.7-5.47-5.7-5.87M47,29l-1,1.16a28.53,28.53,0,0,0-3.25-2.28c-1.42-.39-2.81-.77-3-2.41L42.4,26,47,28.82ZM15.42,29c-.19.29-.54.84-1,.84-.15,0-2.75-1.66-3.43-1.94-1.61-.69-2.9-.36-2.94-2.25,2.57,0,6.38,1.86,7.37,3.35M28.5,26.49c0-.68,5-1.51,6.37-1.51h.84c1.26,0,1.41.35,1.5,1.51H33.86c-2,0-3.92,1-4.52,1s-.84-.58-.84-1m20.11.67c0,.23-.22.33-.5.33h-.5a.65.65,0,0,1-.67-.67v-.17a.65.65,0,0,1,.67-.67,2.41,2.41,0,0,1,.84.17c0,.69.16.38.16,1m7.21.16c0,.39-.11.51-.5.51a1.68,1.68,0,0,1-1-.84,1.13,1.13,0,0,1,.84-.67h.17c.39,0,.5.11.5.5Zm-38.89-.5V27a1.13,1.13,0,0,1-.67.84c-.43,0-1-.37-1-.84s.22-.84.67-.84h.34a.65.65,0,0,1,.67.67m7.54.34v.16a.74.74,0,0,1-.83.67c-.4,0-.84-.21-.84-.67V27a.65.65,0,0,1,.67-.67h.17a1,1,0,0,1,.83.84m25.58-.41,1.05.94-5.59,5.75-1-.85ZM31.18,28.16c.59-.4.58-1,1.17-1h.84c0,2-3.26,6.7-4.36,6.7-.23,0-.71-.65-.84-.84.37-.54,1.36-1.32,2-2a6.71,6.71,0,0,0,1.21-2.82m-1.34,0c0-.35.62-.47,1-.5l-.35,1.17c-.36-.1-.65-.16-.65-.67m-20.92.66L8.71,28h.85c-.16.66-.08.68-.64.83m9.65-2c.29.42.71.63.71,1V28a38.31,38.31,0,0,1-5.7,5.54c-.23,0-.72-.66-.88-.88ZM36.88,29c0-.74,0-.78.67-.84V29Zm13.91,0a1.13,1.13,0,0,1,.84-.67c.76,0-.19,1.27.17,2,.56-.15.69-.5,1.17-.5a1.63,1.63,0,0,1,.84,1c0,.23-.35.4-.5.51l-1-.4c0,1,.31.92.31,1.4,0,.06-.74,1.48-.84,1.68A2.23,2.23,0,0,1,51,32.35c0-.21.48-.29.5-1.34l-1,.28-.95-1,.14-.14,1.66.22c0-1.28-.5-.6-.5-1.35m-30,4.86a24.56,24.56,0,0,1,2.3-3.23c.55-.54,2.1-2.47,2.89-2.47a1.13,1.13,0,0,1,.67.84s-2.68,2.38-3,2.73a14.43,14.43,0,0,0-2.06,3.47h-.5a5.71,5.71,0,0,1-.33-1.34m13.07-4.69c0-.65,0-.53.5-.67v.67ZM35.71,34c.8-.22,5.55-5.7,6-5.7h.17c.51,0,1,.15,1,.67,0,.12-6,6.2-6.37,6.2s-.79-.7-.83-1.17m16.59.67c.36-1.52,4.58-6.71,5.53-6.71.42,0,.8.7.84,1.18-1.37.36-4.47,4.06-4.86,5.53ZM2.68,37.05c0-.59,7.34-8.55,8.05-8.55.43,0,1,.36,1,.84s-7.37,6.82-7.37,7.71v.16a4.67,4.67,0,0,0,2,2h.17c1.21,0,3.34-4.36,4.52-4.36.26,0,.19.33.84.5l.17.15L7,41l-.14-.13c-.3-.2-1.18-1-1.51-1s-.49.83-1.51.83A.94.94,0,0,1,3,39.9c0-.63.67-.93.67-1.18,0-.88-1-.94-1-1.67m15.93-7h.16c.55,0,.13.14.84.33V29s.17-.33.17-.34c.29.08.67.2.67.51,0,.63-.11.31-.17,1L21.45,30c.29.21.68.38.68.85,0,.24-.23.34-.51.34s-.09-.18-.67-.34v1a2.88,2.88,0,0,1-.5,1.34L19.6,32,20,31l-.57,0c-.32,0-.29.06-.5.17l-.87-1c.48-.26-.1-.2.54-.2m14.25,1c.8-1.19,1.51-.72,2.11-1.07s-.1-1.67.74-2.28c.85.62.26,1.69.63,2.05,0,0,1.69.53,1.88.63-.48.71-1.19.79-1.81,1.38-.39.38-1.16,1.54-1.54,1.64a3.16,3.16,0,0,0-2-2.35M12.07,30c0-.56.3-.49.84-.51v.84c.47-.11.28-.17.67-.17.23,0,.33.23.33.51,0,.58-.53-.11-1,.8-.25.45-.38.71-1,.87.2-2.38-.84.28-.84-1.34,0-.09.24-.37.34-.5l.66.19Zm31.35-.67c.89.07.5.25,1,1,.63-.15.77-.35.84.5h-.5c-1,0,0,1.18-1,1.18-.79,0,0-1.08-1.27-1.26l1.1-1.29Zm17.1,1.5c-.2.27,0,.34-.51.34h-.5c0,.54.05.84-.5.84s.1-.37-.4-.76-.54.13-.78-.75l.77-.25.8-.72.11.13c0,1.53.36.3,1,1.17M28,31.85a.64.64,0,0,1-.67.67c-.23,0-.33-.23-.33-.5,0-.09.24-.37.33-.51l-1,0c-.29-.15-.67-.32-.67-.79s.78-.2,1.17-.17V30c0-.39.12-.51.5-.51s.34.23.34.51v.5h.5c.55,0,.63.34.67.84H28ZM16.6,31.68a1.65,1.65,0,0,1,.83-1c1.11,0,3.86,5.46,3.86,7.21v1.34c.95-.08,1-1,2-1,.24,0,.34.23.34.5v1c0,.49-1,1.34-1.51,1.34-1.28,0-1.11-.92-1.68-1.34-.45.33-.58,1-1.17,1h-1a1,1,0,0,1-.84-.83v-.67c0-.37.68-1,.84-1,1.23,0,.9.73,1.51,1.17.28-.19.34,0,.34-.5,0-.06-1.22-3.49-1.38-4a28.3,28.3,0,0,0-2.14-3.22m11,3.55c-.53-.41-3-2.77-3-3.38,0-.23.23-.34.5-.34.59,0,5,5.37,6.38,5.37h.33a3.34,3.34,0,0,0,1.68-.5l.87.8a2.24,2.24,0,0,1-2,1H31.18c-1.08,0-2.58-2.23-3.55-3m18.3-.7a8.49,8.49,0,0,1,2.59.77c1.21.4,1.48.26,1.6,1.75-2.72,0-9-3.7-9-5.2,0-.28.48-.54.67-.67.65.44,1.29,1.22,2,1.81.51.41,2,1.26,2.15,1.54m2-2.51,1-1c1.31.88,3.52,5.38,3.52,7.71l.67.34c.24-.51.43-1.51,1.17-1.51.55,0,.84.61.84,1.17s-.64,1.51-1.17,1.51h-.5c-.9,0-1.09-.61-1.68-1-.77.51-.51,1.5-1.84,1.5h-.34c-.51,0-1.51-1.06-1.51-1.5v-.34a1.28,1.28,0,0,1,1-1h.67c.59,0,.79.59.84,1.17h.5c0-3.33-2-4.88-3.19-7m8.55,0,.67-.67c1.74.91,4.62,5.7,6,5.7h1c.44,0,1.09-.84,1.35-.84.44,0,.49.24.67.5A2.27,2.27,0,0,1,64,38.05H62.86c-1.7,0-2.59-1.75-3.39-2.81-.91-1.21-2.26-1.86-3-3.22m6.37.33.67-1c2.38,1.59,4,5.7,7.55,5.7a2.91,2.91,0,0,0,1.6-.68,14.28,14.28,0,0,1-3.58-2l-.89,1-.12-.16-.64-.75.78-.84a10.32,10.32,0,0,1-.82-.8l-.5.59c-.53-1-1.2-2.1-2.37-2.37a1,1,0,0,1,.94-.79,15.1,15.1,0,0,1-.93-1.84c-.87,2.1-3.29,5.15-4.2,5.15a1.13,1.13,0,0,1-.67-.84c0-.1,2.19-2.56,2.47-2.89,1.39-1.65.27-1.95,2-2.46-.08-.24-.16-.48-.22-.73L61,27.47l-.83-1.15a33.42,33.42,0,0,0,3.46-1.12,14.1,14.1,0,0,1-.21-2.44A14.84,14.84,0,0,1,63.69,20c-.3-1.37-1-2.24-1-3.4,0-.28.48-.55.67-.68a3.39,3.39,0,0,1,1.12,1.38q.26-.64.57-1.26a.88.88,0,0,0-.52-.28A9.74,9.74,0,0,1,66,14.21c.74-.73.61-1.08,1-2a1.46,1.46,0,0,1,.38.46c.13-.14.27-.28.41-.41a2,2,0,0,1-.46-.72c0-.41.85-.79,1.17-1a6,6,0,0,1,.63.56,15,15,0,0,1,2.7-1.63,2.12,2.12,0,0,0-1.15-.44c-3.59,0-7.29,6.7-10.06,8.55l-1-.84a62.44,62.44,0,0,1,4.73-4.82c1.15-1.15,3.39-4.06,5.33-4.06h.83a5,5,0,0,1,2.67,1.06,6.37,6.37,0,0,1,.66-.21c-.26-.2-.48-.35-.58-.42a9.43,9.43,0,0,0-2.58-1.1h-.67a7.64,7.64,0,0,0-3,1,18.09,18.09,0,0,0-1.82-1,11.56,11.56,0,0,0-2.38-.31c-1.9,0-4,3-4.36,3-.69,0-2.22-1.47-4-1.51.07-.82.51-1,.51-1.51a2.57,2.57,0,0,0-1.85-2.68v-1A19.45,19.45,0,0,0,51.63,0c-.37.27-2.91,2.52-2.85,3L49,4.86c-.54.27-1.7,1.18-1.7,1.84v.51a1.66,1.66,0,0,0,.34,1c-1.16.27-3.43,1.68-3.86,1.68,0,0-1.29-1.16-2.13-2S40.37,7.15,39.06,7C37.51,6.85,36,8.21,35.54,8.21S33.24,6,30.48,7A11.08,11.08,0,0,0,27,10.23L23,8.42c0-.66.28-.7.28-1.55v-.5c0-1-.87-1.49-1.68-1.68.09-1,.34-.35.34-1V3.52c0-.58-.91-2.24-1.17-3.35-1,.08-.34.78-1.92,1.44-.77.32-1.6.74-1.6,1.74v.17a9.73,9.73,0,0,0,.16,1.17A2.83,2.83,0,0,0,15.76,7c0,.76.36.87.67,1.34l-3.85,1.7c-1.33-.91-4-4.72-5.54-4.72-.12,0-.91.84-1.17,1A1,1,0,0,0,5.2,6.2H4.53c-.48,0-1,.7-1,1.18a8.44,8.44,0,0,0,.17,1.17L2.47,10c.63.91,4.91,4.81,4.91,5.4a38.2,38.2,0,0,0-1.85,3.86h-2a3.27,3.27,0,0,1-1-.17c-.26.17-.5.22-.5.67V22c-.6.14-2,.8-2,1.34a2.19,2.19,0,0,0,2,2.18v.84a8,8,0,0,0,.17,1.17H5c.61,0,1.66,2.86,2,3.52-.61.91-5.2,5.37-5.2,6S3,38,3,38.72a2.67,2.67,0,0,0-.51,1.34c0,.53.45,1.35,1,1.35h.33c.79,0,1.38-.68,1.51-.68.64,0,1.16.84,1.68.84.79,0,4.9-5.53,5.53-5.53.18,0,2.65,1.23,3.42,1.44,2.59.73.77.17.77,2.58,0,.56,1.18,1.09,1.18,1.68s-.34.55-.34,1a9.79,9.79,0,0,0,1.51,3.18c.62-.45,0-.69,1.41-1.61.71-.46,1.21-.68,1.44-1.57.5-1.94,2.35-.9,2.35-3.69,0-1.82-1.15-1,.94-1.74.79-.26,1.49-.94,2.24-.94s2,2.51,3.35,2.51h2.35c.81,0,1.13-.63,1.85-1C36.62,39,37.73,40,40.37,39.2c1-.33,3.91-3.33,4.05-3.33s3.81,1.4,4,1.51c-.36.54-.84.67-.84,1.51v.34c0,2.3,2.3,1.39,2.35,2.84a8.72,8.72,0,0,0,1.5,3.69c.7-.5,0-1,1.68-1.84a2.21,2.21,0,0,0,1.34-2c0-.65-.31,0-.33-1.18a1.79,1.79,0,0,0,1.5-1.84v-.5c0-.53-.42-.36-.5-1.34A20.47,20.47,0,0,0,59,35.87c.34,0,2.31,2.85,4,2.85H64.2c1.31,0,2-1,2.69-1.51.74.5,2.39,1.85,3.52,1.85h.67c1.34,0,2.62-1.14,3.59-2.06l-.57-.15a5.8,5.8,0,0,1-3.36,1.54c-2.31,0-6.84-4.48-7.88-6m-31.51.17c0-.46.54-.81.84-1,1,.7,5.24,5.87,5.86,5.87h1.18c1.37,0,2.54-2,3.52-2.69l1,.68c-.46.7-3.31,3.35-4.19,3.35h-1c-.74,0-.6-.33-1.85-.33-.78-.53-5.36-5.4-5.36-5.87m-21.79.17c0-.47.54-.81.83-1,1.16.78,2.56,2.61,4.06,3,1.2.3,1.26.6,2.64.88s1.68.29,1.68,1.83H18.1c-1.44,0-3.77-1.51-5-1.5L11.24,34l.16-.15c-.63,0-1.84-.65-1.84-1.17m37.91.83-.2-.83.67.19v.48c0,1,.73-.14.84,1.17h-.5c-.53,0-.48-.3-.67-.67-.28.14-1.18.39-1.18-.17s.45-.18,1-.17m-24-.33c.08-.16.29-.5.5-.5.5,0,.2.6.17,1,.54,0,1.17-.33,1.17.17,0,.27-.46.39-.67.5A1,1,0,0,0,24,34.2c-.51,0-.46.19-.5.67l-1,.19c.14-1.82,1.47.18,1-1.87M55,34.2a2,2,0,0,1,1-1.51v.67h.84c-.24.88-.33.4-1.18.33-.38.74.13.42-.66.51m-38.23-.67c.82.06,1.11.71,1.18,1.51l-.09.16-1.53-.8.11-.2a10.2,10.2,0,0,1-1.18.16h-.16c-.38,0-.37-.13-.67-.33.17-.26.22-.5.67-.5h.5V33c0-.44.24-.49.5-.67.37.2.67.15.67.67Zm23.3.33c.31,0,.68.92.68,1.34a.65.65,0,0,1-.68.67h-.5a1,1,0,0,1-.84-.83v-.51c0-.59.75-.67,1.34-.67m23.81,1.51c0,.2-.35.5-.67.5a1,1,0,0,1-.84-.83.65.65,0,0,1,.67-.68c.48,0,.84.58.84,1m-32,0c0,.27-.1.5-.33.5s-1.18-.17-1.18-.5a2,2,0,0,1,.34-.84h.5a.65.65,0,0,1,.67.67Zm20.79,1.34c-.06-2.36-.9-.64,1.77-1.58.38-.13,2.84-.93,2.92-.93.43,0,1,.84,1,1.34Zm-31.18-.5c0-.35,1.84-.56,2.31-.7a6.28,6.28,0,0,0,2.05-1l1,1c-.59.79-3.34,1.71-4.73,1.71-.52,0-.67-.49-.67-1m-15.8,1c.51,0,1,.08,1,.5s-.46.32-.83.33Zm45.64,7.2a8.27,8.27,0,0,1-.84-2.18v-.83c.86.23,1,1.17,1.67,1.17a1.28,1.28,0,0,0,1-1v-.5c.52.14.67.33.67,1s-2,2.22-2.51,2.34m-32,.17c-.61,0-1-1.22-1-1.68a1.33,1.33,0,0,1,.84-1.34c.1.39.36,1,.84,1h.33c.54,0,.8-.47.84-1,.28.2.34,0,.34.51v.67c0,.33-2.18,1.84-2.18,1.84"/><path class="cls-2" d="M531.27,3.35c0-.66-1.93-1.62-2.51-2a3.93,3.93,0,0,0-1,1.68v.67c0,.45.24.49.5.67.31-.64.29-1.18,1.34-1.18.61,0,1,.67,1,1.35.38-.11.67-.17.67-.68Zm-31.51-.17c0-.51-1.77-1.73-2.18-2a4.44,4.44,0,0,0-1.18,2.52c0,.23.35.4.51.5.45-.33.58-1,1.17-1h.17c.77,0,.52.79,1.34,1a2.66,2.66,0,0,0,.17-.84ZM497.58,5.7a1.29,1.29,0,0,0-1-1h-.17a1.8,1.8,0,0,0-1.67,2c0,.52.15,1,.67,1,1.06,0,.79-1.06,1.84-1.34.22.44.17-.14.17.5,0,.07-1.38,3.15-1.49,3.38-.22.49-1.7,3-1.7,3.16,0,.46.55.81.84,1,2.09-1.4,3.59-7.4,4-7.72.46.34.59,1,1.18,1h.33c.33,0,.67-.3.67-.5a2.25,2.25,0,0,0-1.67-2h-.17c-.82,0-.49,1-1.84,1ZM528.92,6a.94.94,0,0,0-.83-.83h-.67a1.7,1.7,0,0,0-1.18,1.17v.5a1.77,1.77,0,0,0,.5,1.18c2-.47.62-1.35,1.68-1.35.21,0,.5.35.5.68,0,.09-.38.45-.47.87-.12.57,0,.44-.19,1s-.38,1.08-.62,1.72c-.35.92-1.73,2.44-1.73,3.13a6.92,6.92,0,0,0,.67.84c1.53-1,3.52-4.9,3.52-7.54.3-.21.29-.34.67-.34s.41.67,1,.67h.34c.39,0,.5-.12.5-.5,0-.81-.46-1.85-1.17-1.85h-.17c-1.19,0-1.26,1.09-2.35,1.18ZM543,7.21a15.24,15.24,0,0,1-1.18-1c-1.43.33-7.49,6.56-8.38,7.88l1,.87,7-7.5c.61.36,2.44,1.83,2.44,2.44s-2.9,3.19-3.35,3.86l.71,1c.52-.34,4.32-4.31,4.32-4.83,0-.12-.83-.91-1-1.17l.21-1.51c0-.07-.29-.39-.37-.51-.48.12-1.19.51-1.34.51m-21.46,3.52c-.31-1.34-2.77-3.35-4.53-3.35h-.5A4.18,4.18,0,0,0,514,8.88l.64.71A3.56,3.56,0,0,1,517,8.72c1.8,0,2.69,2.34,3.52,2.34.66,0,0-.25,1-.33M490,10.23c-.59-.88-2.6-2.69-4-2.69-2.33,0-2.3.68-3.52,1,0,.44.27,1,.67,1a1.9,1.9,0,0,0,1-.5l1.68-.2c1.16-.13,2.43,2.21,3,2.21a3.34,3.34,0,0,0,1.17-.83m31,6.53a39.22,39.22,0,0,0-4.9-4.81c-1.19-1.07-3.51-4.24-5.32-4.24h-1.51c-1.15,0-6.35,5.21-6.87,6.2l.57.79c.93-.18,4.48-4.35,5.13-5.31,1.15,0,.89-.34,1.67-.34h.67c1.92,0,8.36,8.22,9.56,8.22h.33c.45,0,.5-.25.67-.51m-33.86-3.18c0,.23.66.71.84.84,1.41-.95,2.06-2,3.94-2.94s3.78-.85,3.94-2.76c-2.25.18-8.72,3.08-8.72,4.86M541.5,9.89c.47.11.28.17.67.17.23,0,.33-.23.33-.51V9.39c0-.39-.11-.51-.5-.51s-.5.12-.5.51ZM521.59,13c.6-.41,1.36-.73,2-1.15,1.28-.79,4-1,4-2.41V8.88c-2.53,0-7.82,3.19-8.71,4.53l1,1c.68-.46,1.08-1,1.76-1.5m-17-2.39c-.82-1.22-3.76-1.85-5.7-2l-.38,1.5a11.17,11.17,0,0,1,5.24,1.52Zm31.18-.17c-1.18-.27-3.28-1.67-4.7-1.67h-.16c-.64,0-.67.84-.67,1.51h.5c1.12,0,3.43,1.17,4.19,1.17.54,0,.79-.47.84-1m-4.36.69,1,1.42.61,1,.18-.11c.67-1.39,1.18-.55,1.18-1.34,0-.27-.46-.39-.67-.5l-.67.18-.51-.48Zm-13.08,0a2.55,2.55,0,0,0-.16-.83H517c-.38,0-.5.11-.5.5v.17c0,.32.3.67.5.67s.3-.06.5-.17c.45.22-.13.17.51.17.23,0,.33-.23.33-.51m-16.43.84c-.07-.84-.57-.84-1.5-.84.43.92-.32,1.15,1,1.18,0,.79-.17.65.5.83.11-.38.17-.67.67-.67h.51l-.44-.72Zm2.69,5.37c0-.17-1.33-1.07-1.64-1.39a18.1,18.1,0,0,1-1.35-1.66,13,13,0,0,1-1.4-1.62c-.28-.5-.5-1.87-1.15-1.87h-.5c-.27,0-.5.1-.5.33a20.59,20.59,0,0,0,2.47,4.07c.62.61,2.56,3,3.4,3a1.13,1.13,0,0,0,.67-.83m-10.08-5.54.21-.66c-.93.07-.39.32-1.36.83v.5c0,.48.05.31.33.51.22-.44.17.13.17-.51v-.16c0-.51.2-.47.65-.51m-8.36-1.5c-.44.21-1,.19-1,.83v.17c0,.6.37.45.84.67.36-.19.84-.29.84-.84s-.31-.64-.67-.83m38.22,1.84,1,1.34c.38-.79-.16-1,.53-1.32s.73.14.81-.86c-1.41,0-.94.84-1.67.84Zm-11.57-.5c-.19-.3-.54-.84-1-.84-.13,0-2.69,2.45-2.69,2.85s.55.81.84,1Zm-4.53-.34v.17a.65.65,0,0,0,.68.67c.54,0,.12-.15.83-.34V10.56a2.66,2.66,0,0,0-.83-.17,1.14,1.14,0,0,0-.68.84m27.67,6c-.32-.48-2.52-2.39-3.15-3.06s-1.76-2.9-2.55-3.48l-.5.2v.64c0,1.4,3.93,6.7,5,6.7.47,0,1-.7,1.18-1m-37.39-4c0-.07-.69-1.21-1.17-1.34l-.33.84.5,1.34c0,.24-.23.34-.51.34s-.11-.34-.67-.34c-.2,0-.67.75-.67,1,0,.09.24.36.34.5l1.32-.4-.27,1.25.75.86.75-.67c-.24-.34-.37-.33-.37-.71v-.5l1.33.2v-.53a.64.64,0,0,0-.67-.67h-.84c0-1.38.5-.23.5-1.18m44.09,5.87c-.12-1.41-3.82-7-4.69-7a1.55,1.55,0,0,0-.67.67c0,.39,2,2.71,2.37,3.49.57,1.15,1.35,2.88,3,2.88m-45.43-1.34c0-.1-5.13-5.53-5.36-5.53a1.57,1.57,0,0,0-1.18.83L496.35,19c.32-.45.89-.79.89-1.22m31.52.17c0-.45-4.91-5.37-5.37-5.37-.16,0-.73.53-.84.67L528,19c.32-.44.74-.66.74-1.07m-17.61.83c-.78-1.63-.62-2.29-1.81-3.88a10.14,10.14,0,0,0-2.71-2.82l-.88,1.15c.67,1,1.46,1.41,2.28,2.64a28.63,28.63,0,0,1,1.78,2.91Zm18.26-6.42c-.56.33-.82.55-.82,1.23,0,.32.33.11.33.67v.5c-.68-.06-.37-.17-1-.17-.28,0-.55.49-.67.67.19.29.36.67.84.67.32,0,.11-.33.67-.33s0,.84,0,1.17.48.55.67.67L530,17l-.25-1,1,.15c.1-.14.33-.39.33-.49a1,1,0,0,0-.5-.84l-1,.42,0-.59c0-.37.14-.36.4-.69ZM537,14.08c0-.48-.05-.31-.33-.5-.13.09-.34.09-.34.33,0,.65.66.84-.84.84l-.42,1,1.08-.18c0,.56-.39,1.05.35,1.05.49,0,.17-.71.17-1.35l1,.16.2-.82H537Zm-45.43,1c0-.38-.13-.37-.33-.67l-.83.2c.1-.51.16-.32.16-.71,0-.23-.35-.4-.51-.5l-.48.36c0,1.88-.52.23-.86,1.48.41,0,1-.33,1,.17s-.66.74.5.84v-.67H491c.38,0,.5-.12.5-.5m14.42.67c.55,0,.63-.34.67-.84h-1l.15-.82-.46-.38-.51.38c0,1.22-.1.9-1.19,1.15.23.86.18.36,1.17.34l.5,1.11.21-.11-.21-.83Zm17.43-.67c0-.56-.56,0-1-.69-.29-.48,0-.58-.85-.65v.5c0,.73-.38.36-.67.17-.26.17-.51.22-.51.67,0,.23.23.33.51.33h.5v.5c0,.39.12.51.5.51s.43-.39.51-.67c.6,0,1-.08,1-.67m-10.18-2.73.12-.12c-.75.2-1,2.45-2.68,2.85l.31.85,1.72.22-.18.16.82,2.19.18-.07a2.65,2.65,0,0,0,.34-1.34V15.92h1.67c.45,0,.5-.24.65-.47Zm25.27,3.06c-.58.39-5.36,5.63-5.36,6s.41.63.67,1c.67-.45,5.19-5.38,5.19-6v-.34c0-.45-.24-.49-.5-.67m-16,1.41c-.92.69-1,.42-1.78.9-1.47.92-2.81.58-2.81,2.55,1.94-.16,6-2.37,6.9-3.71l-.73-.78c-.5.32-1,.63-1.58,1m-36.27,2.11a2.41,2.41,0,0,0-.17.84v.5c1.64-.13,6.87-2.56,6.87-3.85a1.13,1.13,0,0,0-.84-.67c-.35,0-3.81,3.14-5.86,3.18m21.12-3.18c-.63.46-5.53,5.25-5.53,5.7,0,.23.65.71.83.83.7-.46,5.37-5.06,5.37-5.69,0-.17-.53-.74-.67-.84m20,6.67c.77-.5,2.79-2.3,2.82-3.49.58-.31,2-1.38,2-2.18,0-.09-.24-.37-.34-.5l-.15-.15-5.12,5.44Zm-27-6.51a69.63,69.63,0,0,0-5.37,5.37c.2.38.45,1,1,1,.12,0,5.36-4.86,5.36-5.53,0-.16-.64-.84-1-.84m17-.2a23.41,23.41,0,0,0-1.68,4.1c-.22.85-.68,4.82.13,4.82h.5c.68,0,.76-3.47.86-4.18.15-1.2,1-2.36,1.19-3.74Zm-5.07,2c0-.79.14-.67-.5-.84v.84Zm3.19-.34c0-.27-.1-.5-.34-.5s-.34.23-.34.5v.17c0,.51.2.47.68.5Zm24.81,1c0-.35-.4-1.34-.68-1.34s-.43.69-.5,1Zm-31.69-1c-.37.1-.5,0-.5.51s.34.3.7.32Zm-7.54,1.85c0,.38.12.5.5.5s1-.47,1-.67a.76.76,0,0,0-1.51.17m-6.37-.34c0-.54-.61-.84-1.17-.84-.21,0-.51.35-.51.67v.17a1,1,0,0,0,.84.84h.17a.65.65,0,0,0,.67-.67Zm38.05-.5c-.55,0-.8.63-1,1,.22.47.07.84.67.84h.33c.54,0,.84-.61.84-1.17a1.13,1.13,0,0,0-.84-.67m-8,1c0,.39.11.51.5.51h.67a.65.65,0,0,0,.67-.67v-.34a.65.65,0,0,0-.67-.67h-.34c-.54,0-.83.61-.83,1.17m-12.07.17a29.55,29.55,0,0,1-5.2-1l-1,.79c.62.93,3.83,1.55,5.57,1.55h2c.56,0,1.17-.29,1.17-.83v-.51Zm30.84.17c-2.35,0-4.52-1.17-5-1.17s-.8.7-.84,1.17L541.28,21l.05-.18a3.62,3.62,0,0,0,2.18.5h.84a10,10,0,0,0,1.17-.17c0,1,.17,4.36-.67,4.36H544c-.14.59-.68,1.34.17,1.34h2.18V25.31a1.05,1.05,0,0,1,.17-.67c-.24-.34-.51-.43-.51-.84a.65.65,0,0,1,.67-.67H547c.39,0,.5.12.5.51v.16c0,.71-.23.09-.5.84h.5a.65.65,0,0,0,.67-.67v-.5c0-.59-1.06-1-1.67-1V21a10,10,0,0,0-.17-1.17Zm-46.43,5c0-.56-5.18-5.87-5.7-5.87s-.24.3-1,.5l6,6.44c.35-.26.74-.43.74-.9Zm29.83-1.51c-.16-.72-3.25-3.79-3.85-4.19l-1.17.36c0,1.11,5.19,6,6.2,6.68.25-.37.67-.59.67-1,0-.13-1.29-1.35-1.51-1.67ZM536.3,26c0-.11-5.18-5.68-5.7-6l-.88.8,5.67,6.14c.43-.26.91-.36.91-.91m-37-6.12c-.38.28-.93.63-.93,1.09,0,0,5.26,5.7,5.7,5.7s.65-.38.85-.68Zm19.36,1.76c.38,0,.5-.11.5-.5,0-.23-.23-.33-.5-.33s-.47.44-.5.83Zm5,1.18c-1.38-.37-2.15-1.63-2.85-2.68-.36.19-.84.29-.84.83v.34c0,2.4-1-.15-2.18,1.68,1.6.84,2-.14,2,1.34A1.19,1.19,0,0,0,521,25.48a4.13,4.13,0,0,1,2.69-2.35ZM508,22c.65-.06.51.1.67-.5H508Zm32.19-.67c-.53-.06-1.18-.45-1.18.33,0,.6.37.45.84.67l.54-.46Zm-34.24,4.06-.13.13c1.47-.12.1-1.5.9-1.95,0,0,2.19-.17,2.45-.23V23l-2.33-.42c0-.61.15-.29.15-.93a1.6,1.6,0,0,0-1.17-1s-2,2.31-2.18,2.51Zm-7.5-2.09-.14-.62.17-.67-1,.41,0-.42c-.25.07-.5,0-.5.33s.33.2.33.51-.26-.07-.33.84c.8-.09.28.23.67-.51Zm31-.63c-.23,0-.1-.18-.67-.34l.19,1-.61.42c.46,0,.47-.08.92-.08.23,0,.09.18.67.33l.2-1.5c-.51.1-.32.16-.7.16m-37.72.5c-.64-.95-2-1.79-2.18-3.35-1.19.32-1,1.06-1.36,2s-1.86-.36-2,1.2l.72.43,1.29.2c-.06.72-.17.41-.17,1a1.6,1.6,0,0,0,1.51,1.18,4.06,4.06,0,0,1,2.18-2.69M538.14,22a1.69,1.69,0,0,0-.83-1.68c-1,.69-1.15,2.15-2.52,2.52.37,1.38,2.31,1.33,2.35,3,.74-.2,1-1.12,1-2h1.68c.52,0,1-.15,1-.67s-2-.5-2.69-.5Zm3.33,3.83c0,1.6-1,3.27-1,3.55,0,.55.71,1,1.17,1.17.15-.55.61-1,.88-2,.13-.48.44-1.5.63-2a9,9,0,0,0,.17-4.53L542,21.75l-.21,3.56Zm-31.15-3.66a20.58,20.58,0,0,1-.5,3.69c-.16,1-1,2.43-1,3,0,.24.65.72.84.84,1.82-1.22,2-5.24,2-7.88a2.79,2.79,0,0,0-.84-.17h-.5Zm15.42,7.21a1,1,0,0,0,.84.83c.54,0,5-5.27,5.39-6.06l-.56-.62c-.69.46-5.67,5.25-5.67,5.85M490,26.44c-.48.49-2.64,2.32-2.64,2.9,0,0,.6.9.67,1l5.7-6.2c-.38-.25-.59-.67-1-.67s-2.28,2.53-2.72,3m24.68-2.8h-.5l-.17.83h.67Zm-14.24.5a1.65,1.65,0,0,0-1-.84c-.06,0-5.19,5.36-5.53,5.87l.8.87c.75-.51,5.74-5.3,5.74-5.9m-13.75.67c.39,0,.5-.12.5-.5s-.23-.34-.5-.34h-.5c0,.54-.06.84.5.84M518.2,25c.36,0,.83.05.83-.34,0-.23-.23-.33-.5-.33s-.31.34-.33.67m-9.9-.51h-.83c.18.68,0,.49.83.51Zm31-.16c-.51,0-.47.19-.51.67h1c0-.48,0-.67-.5-.67m-14.08.33c0-.46-.55-.81-.84-1a51,51,0,0,0-5.37,6c0,.26.33.19.51.84.7-.19,5.7-5.47,5.7-5.87M502.09,29l1,1.16a28.53,28.53,0,0,1,3.25-2.28c1.42-.39,2.81-.77,2.95-2.41l-2.67.56L502,28.82Zm31.53,0c.19.29.54.84,1,.84.15,0,2.75-1.66,3.43-1.94,1.61-.69,2.9-.36,2.94-2.25-2.57,0-6.38,1.86-7.37,3.35m-13.08-2.51c0-.68-5-1.51-6.37-1.51h-.84c-1.27,0-1.41.35-1.5,1.51h3.35c2,0,3.92,1,4.52,1s.84-.58.84-1m-20.11.67c0,.23.22.33.5.33h.5a.65.65,0,0,0,.67-.67v-.17a.65.65,0,0,0-.67-.67,2.41,2.41,0,0,0-.84.17c0,.69-.16.38-.16,1m-7.21.16c0,.39.11.51.5.51a1.68,1.68,0,0,0,1-.84,1.13,1.13,0,0,0-.84-.67h-.17c-.39,0-.5.11-.5.5Zm38.89-.5V27a1.13,1.13,0,0,0,.67.84c.43,0,1-.37,1-.84s-.22-.84-.67-.84h-.34a.65.65,0,0,0-.67.67m-7.54.34v.16a.74.74,0,0,0,.83.67c.4,0,.84-.21.84-.67V27a.65.65,0,0,0-.67-.67h-.17a1,1,0,0,0-.83.84M499,26.75l-1.05.94,5.59,5.75,1-.85Zm18.87,1.41c-.59-.4-.58-1-1.17-1h-.84c0,2,3.26,6.7,4.36,6.7.23,0,.71-.65.83-.84-.36-.54-1.35-1.32-2-2a6.71,6.71,0,0,1-1.21-2.82m1.34,0c0-.35-.62-.47-1-.5l.35,1.17c.36-.1.65-.16.65-.67m20.92.66.21-.82h-.85c.16.66.08.68.64.83m-9.65-2c-.29.42-.71.63-.71,1V28a38.31,38.31,0,0,0,5.7,5.54c.23,0,.72-.66.88-.88ZM512.16,29c0-.74,0-.78-.67-.84V29Zm-13.91,0a1.13,1.13,0,0,0-.84-.67c-.76,0,.19,1.27-.17,2-.56-.15-.69-.5-1.17-.5a1.63,1.63,0,0,0-.84,1c0,.23.35.4.5.51l1-.4c0,1-.31.92-.31,1.4,0,.06.74,1.48.84,1.68a2.23,2.23,0,0,0,.84-1.68c0-.21-.48-.29-.5-1.34l1,.28.95-1-.14-.14-1.67.22c0-1.28.51-.6.51-1.35m30,4.86a24.56,24.56,0,0,0-2.3-3.23c-.55-.54-2.11-2.47-2.89-2.47a1.13,1.13,0,0,0-.67.84s2.68,2.38,3,2.73a14.77,14.77,0,0,1,2.06,3.47h.5a5.71,5.71,0,0,0,.33-1.34m-13.07-4.69c0-.65,0-.53-.51-.67v.67ZM513.33,34c-.8-.22-5.55-5.7-6-5.7h-.17c-.51,0-1,.15-1,.67,0,.12,6,6.2,6.37,6.2s.79-.7.83-1.17m-16.59.67c-.36-1.52-4.58-6.71-5.53-6.71-.42,0-.8.7-.84,1.18,1.37.36,4.47,4.06,4.86,5.53Zm49.62,2.35c0-.59-7.34-8.55-8.05-8.55-.43,0-1,.36-1,.84s7.37,6.82,7.37,7.71v.16a4.72,4.72,0,0,1-2,2h-.17c-1.21,0-3.34-4.36-4.52-4.36-.26,0-.19.33-.84.5l-.17.15L542,41l.14-.13c.3-.2,1.18-1,1.51-1s.49.83,1.5.83a.94.94,0,0,0,.84-.83c0-.63-.67-.93-.67-1.18,0-.88,1-.94,1-1.67m-15.93-7h-.16c-.55,0-.13.14-.84.33V29s-.17-.33-.17-.34c-.29.08-.67.2-.67.51,0,.63.11.31.17,1L527.59,30c-.29.21-.68.38-.68.85,0,.24.23.34.51.34s.09-.18.67-.34v1a2.88,2.88,0,0,0,.5,1.34l.85-1.17L529,31l.56,0c.33,0,.3.06.51.17l.87-1c-.48-.26.1-.2-.54-.2m-14.25,1c-.8-1.19-1.51-.72-2.11-1.07s.1-1.67-.74-2.28c-.85.62-.26,1.69-.63,2.05,0,0-1.69.53-1.88.63.47.71,1.19.79,1.81,1.38.38.38,1.16,1.54,1.54,1.64a3.16,3.16,0,0,1,2-2.35M537,30c0-.56-.3-.49-.84-.51v.84c-.47-.11-.28-.17-.67-.17-.23,0-.33.23-.33.51,0,.58.53-.11,1,.8a1.32,1.32,0,0,0,1,.87c-.2-2.38.84.28.84-1.34,0-.09-.24-.37-.34-.5l-.66.19Zm-31.35-.67c-.89.07-.5.25-1,1-.63-.15-.77-.35-.84.5h.5c1,0,0,1.18,1,1.18.79,0,0-1.08,1.27-1.26l-1.1-1.29Zm-17.1,1.5c.2.27,0,.34.51.34h.5c0,.54-.06.84.5.84s-.1-.37.4-.76.54.13.78-.75l-.77-.25-.8-.72-.11.13c0,1.53-.36.3-1,1.17m32.52,1a.65.65,0,0,0,.68.67c.23,0,.33-.23.33-.5,0-.09-.24-.37-.33-.51l1,0c.29-.15.67-.32.67-.79s-.78-.2-1.17-.17V30c0-.39-.12-.51-.5-.51s-.34.23-.34.51v.5h-.5c-.55,0-.63.34-.67.84H521Zm11.4-.17a1.65,1.65,0,0,0-.83-1c-1.11,0-3.86,5.46-3.86,7.21v1.34c-1-.08-1-1-2-1-.24,0-.34.23-.34.5v1c0,.49,1,1.34,1.51,1.34,1.28,0,1.11-.92,1.68-1.34.45.33.58,1,1.17,1h1a1,1,0,0,0,.84-.83v-.67c0-.37-.68-1-.84-1-1.23,0-.9.73-1.51,1.17-.28-.19-.34,0-.34-.5,0-.06,1.22-3.49,1.38-4a28.3,28.3,0,0,1,2.14-3.22m-11,3.55c.53-.41,3-2.77,3-3.38,0-.23-.23-.34-.51-.34-.58,0-5,5.37-6.37,5.37h-.33a3.34,3.34,0,0,1-1.68-.5l-.87.8a2.24,2.24,0,0,0,2.05,1h1.17c1.08,0,2.58-2.23,3.55-3m-18.3-.7a8.49,8.49,0,0,0-2.59.77c-1.21.4-1.48.26-1.6,1.75,2.72,0,9.05-3.7,9.05-5.2,0-.28-.48-.54-.67-.67-.65.44-1.29,1.22-2,1.81-.51.41-2,1.26-2.15,1.54m-2-2.51-1-1c-1.31.88-3.52,5.38-3.52,7.71l-.67.34c-.24-.51-.43-1.51-1.17-1.51-.55,0-.84.61-.84,1.17s.64,1.51,1.17,1.51h.5c.9,0,1.09-.61,1.68-1,.77.51.51,1.5,1.84,1.5h.34c.51,0,1.51-1.06,1.51-1.5v-.34a1.28,1.28,0,0,0-1-1h-.67c-.59,0-.79.59-.84,1.17h-.5c0-3.33,2-4.88,3.19-7m-8.55,0-.67-.67c-1.74.91-4.62,5.7-6,5.7h-1c-.44,0-1.09-.84-1.35-.84-.44,0-.49.24-.67.5A2.26,2.26,0,0,0,485,38.05h1.18c1.7,0,2.59-1.75,3.39-2.81.91-1.21,2.26-1.86,3-3.22m-6.37.33-.67-1c-2.38,1.59-4,5.7-7.55,5.7a2.91,2.91,0,0,1-1.6-.68,14.28,14.28,0,0,0,3.58-2l.89,1,.12-.16.64-.75-.78-.84a10.32,10.32,0,0,0,.82-.8l.5.59c.53-1,1.2-2.1,2.37-2.37a1,1,0,0,0-.94-.79,15.1,15.1,0,0,0,.93-1.84c.87,2.1,3.29,5.15,4.2,5.15a1.13,1.13,0,0,0,.67-.84c0-.1-2.19-2.56-2.47-2.89-1.39-1.65-.27-1.95-2-2.46.07-.24.15-.48.21-.73l2.94.86.83-1.15a32.66,32.66,0,0,1-3.46-1.12,14.1,14.1,0,0,0,.21-2.44,14.84,14.84,0,0,0-.26-2.76c.3-1.37,1-2.24,1-3.4,0-.28-.48-.55-.67-.68a3.39,3.39,0,0,0-1.12,1.38q-.26-.64-.57-1.26a.88.88,0,0,1,.52-.28A9.74,9.74,0,0,0,483,14.21c-.74-.73-.61-1.08-1-2a1.36,1.36,0,0,0-.39.46c-.13-.14-.27-.28-.41-.41a2,2,0,0,0,.46-.72c0-.41-.85-.79-1.17-1a6,6,0,0,0-.63.56,15,15,0,0,0-2.7-1.63,2.12,2.12,0,0,1,1.15-.44c3.59,0,7.29,6.7,10.06,8.55l1-.84a62.44,62.44,0,0,0-4.73-4.82c-1.15-1.15-3.39-4.06-5.33-4.06h-.83a5,5,0,0,0-2.67,1.06,6.37,6.37,0,0,0-.66-.21c.26-.2.48-.35.58-.42a9.43,9.43,0,0,1,2.58-1.1H479a7.78,7.78,0,0,1,3,1,16.68,16.68,0,0,1,1.81-1,11.47,11.47,0,0,1,2.38-.31c1.9,0,4,3,4.36,3,.69,0,2.22-1.47,4-1.51-.07-.82-.5-1-.5-1.51a2.56,2.56,0,0,1,1.84-2.68v-1A19.45,19.45,0,0,1,497.41,0c.37.27,2.91,2.52,2.85,3l-.19,1.84c.54.27,1.7,1.18,1.7,1.84v.51a1.66,1.66,0,0,1-.34,1c1.16.27,3.43,1.68,3.86,1.68,0,0,1.13-1,1.95-1.79,1.05-1,1.25-.93,2.74-1.1s3.08,1.21,3.52,1.21S515.8,6,518.56,7a11.08,11.08,0,0,1,3.49,3.22l4-1.81c0-.66-.28-.7-.28-1.55v-.5c0-1,.86-1.49,1.68-1.68-.09-1-.34-.35-.34-1V3.52c0-.58.91-2.24,1.17-3.35,1,.08.34.78,1.92,1.44.77.32,1.6.74,1.6,1.74v.17a9.73,9.73,0,0,1-.16,1.17A2.83,2.83,0,0,1,533.28,7c0,.76-.36.87-.67,1.34l3.85,1.7c1.33-.91,4-4.72,5.54-4.72.12,0,.91.84,1.17,1a1,1,0,0,1,.67-.17h.67c.48,0,1,.7,1,1.18a8.44,8.44,0,0,1-.17,1.17L546.57,10c-.63.91-4.91,4.81-4.91,5.4a38.2,38.2,0,0,1,1.85,3.86h2a3.27,3.27,0,0,0,1-.17c.26.17.5.22.5.67V22c.6.14,2,.8,2,1.34a2.19,2.19,0,0,1-2,2.18v.84a9.66,9.66,0,0,1-.17,1.17H544c-.61,0-1.66,2.86-2,3.52.61.91,5.2,5.37,5.2,6S546,38,546,38.72a2.67,2.67,0,0,1,.51,1.34c0,.53-.45,1.35-1,1.35h-.34c-.78,0-1.37-.68-1.5-.68-.64,0-1.16.84-1.68.84-.79,0-4.9-5.53-5.53-5.53-.19,0-2.65,1.23-3.42,1.44-2.59.73-.77.17-.77,2.58,0,.56-1.18,1.09-1.18,1.68s.34.55.34,1a9.79,9.79,0,0,1-1.51,3.18c-.62-.45,0-.69-1.41-1.61-.71-.46-1.21-.68-1.44-1.57-.5-1.94-2.35-.9-2.35-3.69,0-1.82,1.15-1-.94-1.74-.79-.26-1.49-.94-2.24-.94s-2,2.51-3.35,2.51h-2.35c-.81,0-1.13-.63-1.85-1-1.58,1.06-2.69,2.14-5.33,1.31-1-.33-3.91-3.33-4.05-3.33s-3.81,1.4-4,1.51c.36.54.84.67.84,1.51v.34c0,2.3-2.3,1.39-2.35,2.84a8.72,8.72,0,0,1-1.5,3.69c-.7-.5,0-1-1.68-1.84a2.21,2.21,0,0,1-1.34-2c0-.65.31,0,.33-1.18a1.79,1.79,0,0,1-1.5-1.84v-.5c0-.53.42-.36.5-1.34A20.47,20.47,0,0,1,490,35.87c-.35,0-2.31,2.85-4,2.85h-1.17c-1.31,0-2-1-2.69-1.51-.74.5-2.39,1.85-3.52,1.85H478c-1.34,0-2.62-1.14-3.59-2.06l.57-.15a5.8,5.8,0,0,0,3.36,1.54c2.31,0,6.84-4.48,7.88-6m31.51.17c0-.46-.54-.81-.84-1-1,.7-5.24,5.87-5.86,5.87h-1.18c-1.37,0-2.54-2-3.52-2.69l-1,.68c.46.7,3.31,3.35,4.19,3.35h1c.74,0,.6-.33,1.85-.33.78-.53,5.36-5.4,5.36-5.87m21.79.17c0-.47-.54-.81-.83-1-1.16.78-2.56,2.61-4.06,3-1.2.3-1.26.6-2.64.88s-1.68.29-1.68,1.83h.67c1.44,0,3.77-1.51,5-1.5L537.8,34l-.16-.15c.63,0,1.84-.65,1.84-1.17m-37.92.83.21-.83-.67.19v.48c0,1-.73-.14-.84,1.17h.5c.53,0,.48-.3.67-.67.28.14,1.17.39,1.17-.17s-.44-.18-1-.17m24-.33c-.08-.16-.29-.5-.5-.5-.5,0-.2.6-.17,1-.54,0-1.17-.33-1.17.17,0,.27.46.39.67.5a1,1,0,0,1,.67-.16c.51,0,.46.19.5.67l1,.19c-.14-1.82-1.47.18-1-1.87m-31.51,1c-.05-.52-.54-1.39-1-1.51v.67h-.84c.24.88.33.4,1.18.33.38.74-.13.42.67.51m38.22-.67c-.82.06-1.11.71-1.18,1.51l.09.16,1.53-.8-.11-.2a10.2,10.2,0,0,0,1.18.16H534c.38,0,.37-.13.67-.33-.17-.26-.22-.5-.67-.5h-.5V33c0-.44-.24-.49-.5-.67-.37.2-.67.15-.67.67Zm-23.3.33c-.31,0-.68.92-.68,1.34a.65.65,0,0,0,.68.67h.5a1,1,0,0,0,.84-.83v-.51c0-.59-.75-.67-1.34-.67m-23.81,1.51c0,.2.35.5.67.5a1,1,0,0,0,.84-.83.65.65,0,0,0-.67-.68c-.48,0-.84.58-.84,1m32,0c0,.27.1.5.33.5s1.18-.17,1.18-.5a2,2,0,0,0-.34-.84h-.5a.65.65,0,0,0-.67.67ZM496.4,36.71c.06-2.36.9-.64-1.77-1.58-.38-.13-2.84-.93-2.92-.93-.43,0-1,.84-1,1.34Zm31.18-.5c0-.35-1.84-.56-2.31-.7a6.28,6.28,0,0,1-2-1l-1,1c.59.79,3.34,1.71,4.73,1.71.52,0,.67-.49.67-1m15.79,1c-.5,0-1,.08-1,.5s.46.32.83.33Zm-45.63,7.2a8.27,8.27,0,0,0,.84-2.18v-.83c-.86.23-1,1.17-1.67,1.17a1.28,1.28,0,0,1-1-1v-.5c-.52.14-.67.33-.67,1s2,2.22,2.51,2.34m32,.17c.61,0,1-1.22,1-1.68a1.33,1.33,0,0,0-.84-1.34c-.1.39-.36,1-.84,1h-.33c-.54,0-.8-.47-.84-1-.28.2-.34,0-.34.51v.67c0,.33,2.18,1.84,2.18,1.84"/><path class="cls-3" d="M78.07,7.47H471A15.29,15.29,0,0,1,471.62,38H77.42v0a15.29,15.29,0,0,1,.65-30.56M471,8.77H78.07a14,14,0,1,0,0,28H471a14,14,0,0,0,0-28Z"/><path class="cls-3" d="M78.07,9.36H471a13.4,13.4,0,0,1,0,26.8H78.07a13.4,13.4,0,1,1,0-26.8M471,10H78.07a12.75,12.75,0,0,0,0,25.5H471A12.75,12.75,0,0,0,471,10"/><path class="cls-3" d="M78.07,10.79H471a12,12,0,0,1,0,23.94H78.07a12,12,0,0,1,0-23.94m392.9.92H78.07a11.05,11.05,0,1,0,0,22.1H471a11.05,11.05,0,0,0,0-22.1"/></g></g></svg>