<svg xmlns="http://www.w3.org/2000/svg" viewBox="0 0 549.59 44.12"><defs><style>.cls-1{fill:#fff4e4;}.cls-1,.cls-2{fill-rule:evenodd;}.cls-2{fill:#7c6742;}</style></defs><title>title_3</title><g id="Layer_2" data-name="Layer 2"><g id="Layer_1-2" data-name="Layer 1"><path class="cls-1" d="M478.43,36.61l-.07-.34A1.44,1.44,0,0,1,478.5,34a31.05,31.05,0,0,1-4.5-2.41,59.33,59.33,0,0,1-8.77-7,25.7,25.7,0,0,1-3.69-5.52c-.27-.45-.58-.95-.92-1.49a1.13,1.13,0,0,1-.32.05,1.18,1.18,0,0,1-1.18-1.18,1.16,1.16,0,0,1,.23-.71l-.46-.59A1.52,1.52,0,1,1,456.82,13l-.46-.37a2.27,2.27,0,0,1-3.74,1.18H97a2.27,2.27,0,0,1-3.74-1.18l-.46.37a1.52,1.52,0,1,1-2.07,2.15l-.46.59h0v0h.07l0,0h0v0h0v0h0v0h0v0h0v0h0v0h0v0h0v0h0v0a1.18,1.18,0,0,1-1.18,1.18h-.21l-.11,0c-.34.54-.65,1-.92,1.49a25.7,25.7,0,0,1-3.69,5.52,59.33,59.33,0,0,1-8.77,7A31.05,31.05,0,0,1,71.09,34a1.44,1.44,0,1,1-2.27,1.08l-.7.31a1.84,1.84,0,0,1,.58,1.82,1.79,1.79,0,0,1-.7,1.06H481.58a1.86,1.86,0,0,1-.11-2.88l-.7-.31a1.44,1.44,0,0,1-1.11,1.5,1.41,1.41,0,0,1-1.23-.27Z"/><path class="cls-2" d="M70.92,36.27l88.26.14v.11l-88.26.09ZM92.65,15.88l76.79-.09v-.11l-76.79-.14Zm393.9,25a2.64,2.64,0,0,1-.4-.12H63.44a3.16,3.16,0,0,1-.75.18v.31H486.55v-.37m-1.11-.52a.52.52,0,0,1-.11-.1H64.26a.52.52,0,0,1-.11.1H485.44m-.79-1a2.86,2.86,0,0,1-.15-.41H65.09a2.86,2.86,0,0,1-.15.41H484.65m-.22-.67a3.59,3.59,0,0,1-.05-.46h-.58a1.78,1.78,0,0,1-.68.32,1.86,1.86,0,0,1-1.54-.32H65.2a2.4,2.4,0,0,1,0,.46H484.43M452.32,10.81a2.57,2.57,0,0,0-.27.49H97.53a2.12,2.12,0,0,0-.27-.49H452.32m-.39.89s0,.06,0,.1H97.67a.3.3,0,0,0,0-.1H451.93m0,1a1.72,1.72,0,0,0,.14.4H97.49a1.72,1.72,0,0,0,.14-.4H452m.28.67a2.82,2.82,0,0,0,.38.46H97a2.82,2.82,0,0,0,.38-.46H452.24m26.19,22.92-88.25.14v.11l88.25.09ZM456.71,15.54l-76.79.14v.11l76.79.09Z"/><path class="cls-2" d="M461.44,16.77a24.43,24.43,0,0,0,9.47,3.63c2.7.43,5.82.79,8.32-.57-2.41,0-4.67.4-7.12.11a25.49,25.49,0,0,1-5.57-1.31,28.16,28.16,0,0,1-5.23-2.79,1.14,1.14,0,0,1,.17.61,1.12,1.12,0,0,1,0,.32m.41-3.23,0,0,0,.08-.08,0m-.58.71h0l.07-.07Zm10.2.88a1.05,1.05,0,0,1-.17.85,5.19,5.19,0,0,1-2.54,1.24,5.25,5.25,0,0,1-2.91-.33,10.41,10.41,0,0,1-3.47-1.58,3,3,0,0,1-.33-.31c1.86,1,5.07,2,7.15,1,.29-.14.6-.42.9-.59a10.17,10.17,0,0,1-3.42.28,9,9,0,0,1-2.14-.32c-.9-.25-1.7-.88-2.56-1.11,1.21.33,2.93.53,4-.4-.56.5-3.39-.08-4-.27a3.18,3.18,0,0,1,1.08-.19c.25,0,.5,0,.76-.08l.64-.13a9.87,9.87,0,0,1,1.94-.28c1.67,0,1.13,1.5-.16,1.8a36.9,36.9,0,0,1,3.78-.25c.94.05,1.4.27,1.49.69m4.33,11.78.24-.07a5.5,5.5,0,0,0,.59-.23l0,.11a25.52,25.52,0,0,0,6.87.38,24.25,24.25,0,0,1-7.67-.19m5.24,1-.33.08a12.08,12.08,0,0,1-3.66.23,6.39,6.39,0,0,1-2.74-1.08.39.39,0,0,0,.18,0l0,.06a25.57,25.57,0,0,0,6.57.68m4.23-4.82a2.33,2.33,0,0,0,.81-2.58,5,5,0,0,0-.9-1.41c-.83-1.06-1.38-1.84-.85-2.34a.75.75,0,0,1,.65-.23,4.1,4.1,0,0,1,2.1,1.54c0-.46-.47-.89-.64-1.31a11.13,11.13,0,0,1-.44-1.22,7.47,7.47,0,0,1-.35-1.61c0-.16.1-1.72.12-1.71l.19.11a2.88,2.88,0,0,1,.59.39l.47.44.05-.64c.29-3.09,2.13-4.47,5.76-4.31a4.09,4.09,0,0,0-.08,3.62,13.11,13.11,0,0,1,.43,3.3c.35-.06.92-1.46.69-1.74,1.22,1.49-.42,3.18-.71,4.67.43-.16.87-.74,1.22-1.05a20.88,20.88,0,0,0,1.94-2.43,10.37,10.37,0,0,1,2.39-2.19A22.94,22.94,0,0,1,505,9.67c5.76-.09,11,4.2,11,4.2-.55-1.86-7.19-4.14-7.19-4.14,6,1,12.5,4.85,12.5,4.85-2.23-3-11.19-5-11.19-5a19.51,19.51,0,0,1,7.06.69c-3-1.24-8-1.21-8-1.21l.85-.29c1.44-.18,2.93-.3,4.5-.4a43.06,43.06,0,0,1,10.07,1.13l.14,0c5.43,1.27,10.13,2.36,15.52.72,3.35-1,6.45-2.23,7.47-5.91a2.88,2.88,0,0,0-1.2-3.17A1.57,1.57,0,0,0,545.11,1a1,1,0,0,1,.34-.28,2.81,2.81,0,0,1,2.19.47c1.48.79,1.48,1.76,1.14,3.66-.65,3.68-3.4,5.15-6.39,6.45l-.9.39,1,.2c.21,0,.42.07.62.1a3.83,3.83,0,0,1,.93.19c-.8,1.1-4,2.1-5.24,1.74l-1.14-.34.83.85.23.24c.73.75,2.08,2.14,2.06,3.16a.94.94,0,0,1-.33.68c-1.21,1.13-3.4.34-5.17-.29a15.19,15.19,0,0,0-1.5-.49l-.68-.18.33.62a.59.59,0,0,1,.06.59,1.32,1.32,0,0,1-1.16.3c-1-.13-1.58-1.17-2.14-2.18a8.23,8.23,0,0,0-.85-1.35,10.84,10.84,0,0,0-4.59-3.13A18.32,18.32,0,0,0,519.18,11c.31.14.63.28.94.45,1.92,1,4,2.34,5,4.47.22.51.63,1.77-.33,2.39s-2.1.64-3.64-.08l-.4-.19a14.58,14.58,0,0,1-3.87-2.27c.81.74.95,2.22,2.13,2.65-1.53.69-3.57-1.74-4.39-2.69-.29-.32-.55-.62-.81-.89a8.22,8.22,0,0,0-7.93-2.58A12.8,12.8,0,0,0,501.58,14c-1.47.91-2.18,2.74-3.8,3.47a6.71,6.71,0,0,0,1.57-.66c.48-.37.92-.81,1.36-1.22a12.37,12.37,0,0,1,1.2-1.06,12,12,0,0,1,4-1.65,8.76,8.76,0,0,1,2.64-.09c-1.85.27-4.76.84-6,1.9a25,25,0,0,1-2.78,2c-.51.33-1,.64-1.53,1a7,7,0,0,0-1.34.83c.39-.12.74-.32,1.11-.46s.88-.25,1.32-.4a6.33,6.33,0,0,0,1.18-.68A24.29,24.29,0,0,0,503,15.18a7.9,7.9,0,0,1,3.16-1.29,7,7,0,0,0-2.74,1.66,11.59,11.59,0,0,1-2.85,2.27,9.08,9.08,0,0,1-2,.93c-.16.05-.54.3-.68.29a6.25,6.25,0,0,0,1.58-.28A8.39,8.39,0,0,0,503.93,16a6.88,6.88,0,0,1,3.18-1.71c-.22.06-.5.38-.68.52l-.75.55-1.5,1.1c-.48.35-.93.72-1.38,1.1a16.77,16.77,0,0,1-1.54,1.06,5.67,5.67,0,0,1-1.06.49,3.44,3.44,0,0,1-.39.24,5.24,5.24,0,0,0,1.89-.61c.46-.25.88-.56,1.34-.8a15.8,15.8,0,0,0,1.5-1c1-.73,2.09-1.46,3.09-2.25a5.54,5.54,0,0,1,1.39-.8c.53-.08,1-.13,1.39-.15a3.12,3.12,0,0,0-1,.47c-.36.19-.72.4-1.08.61-.81.47-1.61,1-2.39,1.48s-1.56,1-2.33,1.54a14.47,14.47,0,0,1-2.3,1.51c.5-.21,1.05-.32,1.54-.55s1-.51,1.48-.77.69-.45,1-.64c1-.53,1.9-1.2,2.86-1.78.58-.35,1.27-.63,1.8-1-2,1.5-5.71,4.29-10.1,7.4-3,2.12-6.74,3.25-10.2,4.28a13.59,13.59,0,0,1-3.51.88,3.92,3.92,0,0,0,1.25-.49,11.64,11.64,0,0,0,1.06-.53,12,12,0,0,0,2-1.4,11,11,0,0,0,1.66-1.88,4.35,4.35,0,0,0,.59-1.08,9.4,9.4,0,0,0,.46-1.29,3.66,3.66,0,0,0,0-1.71,3.76,3.76,0,0,1-.1.53c0,.23,0,.45,0,.67a2.81,2.81,0,0,1-.43.95A21,21,0,0,1,491.28,23a10.79,10.79,0,0,1-3.73,2.9,8.55,8.55,0,0,0,3.21-4.14c.26-.63.46-1.28.66-1.93a14.55,14.55,0,0,0,.3-3,5.22,5.22,0,0,0-.34-1.73,7.06,7.06,0,0,1,0,.92,6.07,6.07,0,0,1,0,1.28,15.5,15.5,0,0,1-.54,2.45,11.25,11.25,0,0,1-2.37,4.65,5.72,5.72,0,0,1-1.36,1.09c-3.07,1.71-8.34,1-9.89.73a1,1,0,0,0,.13-.23c1.11.23,7.14,1.37,10.2-1.12a9.6,9.6,0,0,0,3.15-5.68,10,10,0,0,0,.21-2.93c-.05-.51-.23-1-.32-1.51a6.91,6.91,0,0,0-.5-1.66,7.25,7.25,0,0,1,.27,2.55,17.87,17.87,0,0,1-.17,2.73,9.66,9.66,0,0,1-2.55,5.58c-.15.15-.32.3-.49.44-2.88,2.34-9,1.13-9.75,1a1.21,1.21,0,0,0-.15-.44c1.53.37,6.77,1.43,9.68-.67a6.13,6.13,0,0,0,2.18-3.89,8.32,8.32,0,0,0,.2-2.17,7.8,7.8,0,0,0-.15-1.08A6.4,6.4,0,0,0,489,16a7.28,7.28,0,0,0-.54-1.17,3.18,3.18,0,0,1,.17,1.3c0,.38.08.72.09,1.1a15.24,15.24,0,0,1-.14,2.34,6,6,0,0,1-2,4.13c-2.48,1.78-7,1.05-8.8.65.23-.09.53-.26.56-.58a.63.63,0,0,0-.12-.41,10.2,10.2,0,0,0,2.21.06,3.24,3.24,0,0,0,2.26.56,4.28,4.28,0,0,0,2.63-.87m42.78,11a1.13,1.13,0,0,0,1.34-.57v0c1.92.73,2.84.82,3.2.35a1,1,0,0,0-.05-1,3.22,3.22,0,0,0,2.27.15,1.41,1.41,0,0,0,.73-.85l.07-.19-.15-.14c-.19-.18-.39-.35-.59-.52A8,8,0,0,0,539,30a8.39,8.39,0,0,1-3.06,5.46c-2.26,1.69-7.38,2.8-9.82.87-.72-.56-1.9-2-1.7-2.75.08-.31.42-.53,1-.63a1.85,1.85,0,0,1,1.48.53,3.11,3.11,0,0,0,1.16.63m13.54-9.84c.83,4.08.83,7.09,0,9.21a10.75,10.75,0,0,1-4,4.8,10.89,10.89,0,0,1-9.23,1.52,13,13,0,0,1-6.2-3.92l0,0c-.07-.11-1.65-2.65.28-4A5.15,5.15,0,0,1,526,31.1c.3,0,.62.15.93.21s.84.17,1.26.25c-.3,0-.54-.41-.79-.56a2,2,0,0,0-.59-.24,6.94,6.94,0,0,0-1.28-.27,5,5,0,0,0-3.44.81l-.23.19A3.56,3.56,0,0,1,524,29.61a8.22,8.22,0,0,1,4.09.12,15,15,0,0,1,3.2.93c-.26-1-2.31-1.41-3.11-1.63a8,8,0,0,0-4.37,0,4.13,4.13,0,0,0-1.6,1,4.84,4.84,0,0,1,3.62-1.63A16.47,16.47,0,0,1,532,29.64c-.46-.8-1.69-1.16-2.49-1.47a9.9,9.9,0,0,0-3.71-.43,5.58,5.58,0,0,0-5.17,3.67,4.88,4.88,0,0,1,4.07-3.87,12.62,12.62,0,0,1,6,.54,11.56,11.56,0,0,0,1.63.36,7.17,7.17,0,0,0,3-.14c.76-.25,2-.53,2.29-1.37a2.6,2.6,0,0,1-.86.49,10.64,10.64,0,0,1-4.34.4,10.53,10.53,0,0,1-1.54-.35,13.31,13.31,0,0,0-6.34-.54,5.74,5.74,0,0,0-3.85,2.62c.52-1.22,2-2.73,4.77-3.52a11.12,11.12,0,0,1,4.7-.22c.6.09,1.19.22,1.78.36a9.48,9.48,0,0,0,2.22.43c-.27-.45-1.12-.67-1.6-.79a17.92,17.92,0,0,0-3.62-.75,10.71,10.71,0,0,0-3.65.37,10.34,10.34,0,0,0-3.06,1.43A9.08,9.08,0,0,1,524.1,25,10.77,10.77,0,0,1,527,23.44a4.24,4.24,0,0,1,1.42-.1,5.38,5.38,0,0,0-4.73,1.1,13.11,13.11,0,0,0-3.23,4A7.91,7.91,0,0,1,522,24.75c1.6-2.08,4.49-4.1,7-3.61.44.08,1,.37,1.08.68,0,.06.07.22-.17.48l-.69.75,1-.24a5,5,0,0,1,3.47.27c.59.37,1.26,2.22.07,2.19a13,13,0,0,1,1.75.29,5.38,5.38,0,0,0,1.5-.07,4.73,4.73,0,0,0,.83-.18,3.7,3.7,0,0,0,1.32-.57c.41-.28.48-.65.8-1a3.53,3.53,0,0,1,.59,1.78A3.91,3.91,0,0,1,540.1,28a3.13,3.13,0,0,1-1.72,1.65,9,9,0,0,1-1.55.71,4.18,4.18,0,0,1-3.29,0,7.89,7.89,0,0,0-.95-.39,5.21,5.21,0,0,0,1.57,1.6c.24.19.47.39.7.59a.69.69,0,0,1-.32.31c-.58.28-1.64-.11-2.34-.36l-.33-.12-1-.36s.66.85.66.85c.64.82.58,1.05.57,1.06s-.5.27-3.26-.86l-.06,0-.24.57c.19.08.25.15.26.18s0,.05-.09.09a.7.7,0,0,1-.5.07,2.69,2.69,0,0,1-.94-.53,2.45,2.45,0,0,0-2-.65c-.85.15-1.36.52-1.5,1.1-.3,1.19,1.16,2.8,1.91,3.39,2.76,2.18,8.19.92,10.58-.86a9.08,9.08,0,0,0,3.38-6.47A4.8,4.8,0,0,0,541,26.84a5.51,5.51,0,0,0-.08-2.32,2.92,2.92,0,0,0-.41-.92c-.12-.17-.57-.63-.55-.82a2.43,2.43,0,0,1-1.18,1.6c-.55-.92-.85-2-1.42-2.89a14.85,14.85,0,0,0-.92-1.28c-.2-.25-.63-.94-.94-1a7,7,0,0,1,.74.26,6.93,6.93,0,0,0,1.14.38,3.51,3.51,0,0,0,2.12,0c.51.39,2,3.93,2.08,4.49m-21.07,7.4h0v0a0,0,0,0,0,0,0m-32.9-4a.71.71,0,0,0-.08-.15c2.34-.61,9.29-2.55,12.8-5,5.78-4.09,10.41-7.64,11.44-8.43l.38.28a51.9,51.9,0,0,0-5.84,4.17A75.82,75.82,0,0,1,499,23.71c-3.73,2.16-10.15,3.65-11.39,3.92m11.71-3.38A79.34,79.34,0,0,0,506.7,19a42,42,0,0,1,6-4.23,7.68,7.68,0,0,1,.6.56c-2.29.65-6.72,4.33-10.38,7.85-4.25,4.08-15,5.32-15.11,5.34v.05l-.27,0a1,1,0,0,0,.13-.31c1.08-.24,7.7-1.73,11.65-4m-20.45,9.57a4.27,4.27,0,0,1-.75-.55c.9.11,1.81.29,2.71.45a6.68,6.68,0,0,0,.91.2c.18,0,1-.25,1.08-.22-1.48-.79-3.88-.18-5.13-1.34a20.74,20.74,0,0,0,4.09.14c.9-.07,2.27-.06,3-.65-3-.57-6.17.63-9-1,1.72-.37,3.61.35,5.39,0a16.91,16.91,0,0,1,1.76-.19c.22,0,1.68-.51,1.71-.49-.5-.29-1,0-1.57,0s-1.06,0-1.62,0a21.18,21.18,0,0,1-3.9-.08,23.06,23.06,0,0,1-3.78-.6c-4-1.29-7-4.05-9.63-7.24-.29-.35-.56-.72-.84-1.09.12.12.23.24.36.35A24.88,24.88,0,0,0,466.94,24c1.07.69,2.88,2,4.23,1.7-.61-.47-1.46-.46-2.09-.93a13.74,13.74,0,0,0-1.23-.95,40,40,0,0,1-3.71-2.75c2.72,2.09,5.62,3.55,9.09,3.39a15.18,15.18,0,0,1-5.05-1.63,20.17,20.17,0,0,1-2.77-1.61c-1-.71-1.9-1.79-2.93-2.44,3.5,2.18,8.23,3.52,12.31,2.52-2.3.43-5.16-.42-7.37-1.08a19.61,19.61,0,0,1-4.11-1.68,8.83,8.83,0,0,1-1.95-1.6,1.19,1.19,0,0,1-.74.61c.34.54.65,1,.92,1.49a25.7,25.7,0,0,0,3.69,5.52,59.33,59.33,0,0,0,8.77,7A31.05,31.05,0,0,0,478.5,34a1.52,1.52,0,0,1,.38-.2M482.14,35c-.47-.13-1-.28-1.5-.45a1.52,1.52,0,0,1,.09.28,2,2,0,0,1,0,.24l.7.31a1.85,1.85,0,0,1,.67-.38M458.89,15.15l.46.59a1.17,1.17,0,0,1,.95-.48,1.2,1.2,0,0,1,1,.52,23.7,23.7,0,0,0,5.37,2c1,1.6,5.42.67,6.76.32l.46-.12a7,7,0,0,1,3.08-.37c1.11.21,2.14,1.34.36,1.37a9.76,9.76,0,0,1,2.89,1c.66.23,1.86.57,2.13,1.32.05.12.07.32-.18.62a3.28,3.28,0,0,1-2.78,1,34,34,0,0,1-4.38-.21c.15.06,2.77.85,2.58,1s-.82.18-1.24.13c-.21,0-.42-.05-.58-.05-.62,0-1.87.36-2.41.11.77.35,3.51.68,3.41,1.78s-3.79.72-4.44.49A6.39,6.39,0,0,0,477,28.87a12.34,12.34,0,0,0,3.89-.25,35,35,0,0,1,5.12-1,2.14,2.14,0,0,1,.78,0v0h0a.4.4,0,0,1,.26.37c0,.15-.08.27-.26.46a1.78,1.78,0,0,0-.32.43l-.25.52.57-.08c.25,0,.45-.08.64-.12a3.18,3.18,0,0,1,.78-.13,8.23,8.23,0,0,1,2.18.14c1.4.35,1.26,1.75.45,2.66a6.84,6.84,0,0,1-5.32,1.44,11.49,11.49,0,0,1,1.49.57c-.33.9-2.73.43-3.39.22.37.17,1.3.65,1.37,1.1s-.41.48-.91.36a2,2,0,0,1,.35.65,3.66,3.66,0,0,0,.74,0,2.7,2.7,0,0,1,1.25-.72s0,0,0-.07a.75.75,0,0,0-.1-.36A6.13,6.13,0,0,0,487.5,35c.93.34,2.05.37,3,.74a13,13,0,0,1,2.68,1.43c.73.52,1.55.92,2.3,1.41a2.75,2.75,0,0,1,.77.57,13.31,13.31,0,0,0-5.14-3.84,7.36,7.36,0,0,0-2.64-.81,27.88,27.88,0,0,1,4.82.44c.36.05.7.18,1.05.22a5.63,5.63,0,0,1-1.18-.54,7.74,7.74,0,0,0-.95-.36c-.76-.21-1.52-.32-2.27-.58a1.73,1.73,0,0,0,.6,0,6.4,6.4,0,0,1,.88.08c.58.07,1.15.17,1.72.27a20.67,20.67,0,0,1,3.29.77c.63.24,1.33.29,2,.51a8.53,8.53,0,0,0,1.67.43,12,12,0,0,0,2.07.18,8,8,0,0,1-1.91-.6,8.67,8.67,0,0,0-1.68-.54c-1.35-.38-2.7-.81-4.07-1.11-.56-.13-1.11-.24-1.67-.33-.3-.06-.59-.1-.89-.14s-.66-.18-.82-.11a2.68,2.68,0,0,0,.64-.41A38.53,38.53,0,0,1,503.47,35a58.63,58.63,0,0,1,8.5,3.45c.42.22.82.55,1.26.73a4.37,4.37,0,0,0-1.77-1.44,53,53,0,0,0-11.94-4.57c-1.21-.31-2.44-.58-3.68-.79-.6-.1-1.21-.18-1.82-.24a7.43,7.43,0,0,0-1.77-.13,1.72,1.72,0,0,1,.09-.19,31,31,0,0,1,11.35,2,70.8,70.8,0,0,1,9.39,3.93c.38.19.76.38,1.13.58.53.28,1,.71,1.5,1-.1-.27-.38-.42-.6-.6s-.45-.44-.71-.65a23.13,23.13,0,0,0-5-2.7c-1.83-.79-3.7-1.52-5.59-2.14a32,32,0,0,0-11.32-2V31a30.29,30.29,0,0,1,13.28,1.63,26.37,26.37,0,0,1,4.5,2c.23.13.52.44.78.46a5,5,0,0,0-.7-.83c-.95-1.14-2.79-1.67-4.13-2.16a31.82,31.82,0,0,0-5.75-1.51,30.18,30.18,0,0,0-8.11-.23s0-.08,0-.12a48.82,48.82,0,0,1,11.46.33c1.22.2,2.32.62,3.52.91.35.08.62.26,1,.35q-1.16-.66-2.31-1.35A5.75,5.75,0,0,0,504,30a37.38,37.38,0,0,0-5.17-.49,36.78,36.78,0,0,0-4.2,0c1.92-.15,3.85-.32,5.77-.49a14.91,14.91,0,0,1,1.89-.17,11,11,0,0,0,2.33-.41,5,5,0,0,0-1.76,0c-1.37.06-2.71-.07-4.09.05,1-.21,2-.45,3-.71l1.22-.35c.52-.15,1.05-.19,1.56-.38s1-.49,1.55-.64a3.56,3.56,0,0,0-1.58.13,11.67,11.67,0,0,0-1.75.31c-.69.21-1.4.4-2.1.57-1.77.44-3.58.62-5.35,1a44.83,44.83,0,0,0,6.62-2.14c.88-.36,1.74-.73,2.6-1.12.39-.18.71-.42,1.08-.62.52-.27,1.09-.45,1.6-.75a3.7,3.7,0,0,0,1-.72,4.48,4.48,0,0,1-1.41.63c-1,.28-1.94.8-2.92,1.15s-2.2.87-3.3,1.29A39.93,39.93,0,0,1,494,28.11c-.73.15-1.47.26-2.22.34,3.61-.75,8.79-2.22,11.53-4.86,4.67-4.48,8.87-7.6,10.44-7.77l.32.35a8.31,8.31,0,0,0,3.27,2.67,15.73,15.73,0,0,0-2.21,2.53c-.35.46-.67.88-1,1.24a17.88,17.88,0,0,1-3.14,2.88,13,13,0,0,1-1.75,1.07,17.38,17.38,0,0,1-1.74,1l-.69.22a6.67,6.67,0,0,1-2.06.45,11.8,11.8,0,0,0,2.3-.07c.72-.11,1.38-.4,2.09-.55,1.41-.28,3.43-.55,4.61.51.36.33.64.75.05.93a11.6,11.6,0,0,1-1.57.18,4.72,4.72,0,0,1,2.32.78,6.8,6.8,0,0,1,2.13,2,8.61,8.61,0,0,1-1.35-.09,10.89,10.89,0,0,1-1.74-.53c.48.26.91.59,1.41.84a8.49,8.49,0,0,1,1.88,1.06,10.63,10.63,0,0,1,2,2.22c.36,1.35-2,.21-2.54.17a5.86,5.86,0,0,0,1.76,1.1,6.07,6.07,0,0,1,1.69,1.66,6.27,6.27,0,0,0,2.92,2.36,4.89,4.89,0,0,1-3.18,1,15.4,15.4,0,0,1-5.68-.8l-1.15-.44.8.93a3.71,3.71,0,0,0,1.5,1,7.38,7.38,0,0,1-3-.62c-.31-.11-.61-.22-.9-.3l-1.08-.33.76.84a7.5,7.5,0,0,0,1.57,1.39,2.93,2.93,0,0,1-1,.1,10.24,10.24,0,0,1-3.89-1.15c-.57-.28-1.09-.62-1.63-.93a5,5,0,0,1-.88-.62c-.2-.16-.72-.39-.84-.57a5.05,5.05,0,0,1,.87,1.53c.25,1.12-2.1,0-2.46-.24a11.72,11.72,0,0,1-2.69-2.66,8.69,8.69,0,0,0-3-2.71,5.12,5.12,0,0,0-3.72-.34,4.64,4.64,0,0,1,4.22,2.34,1.7,1.7,0,0,1-.13,1.83c-.46.51-1.37.58-2.57.19a15.48,15.48,0,0,1-3.55-2c-.47-.31-.94-.62-1.41-.91l.09.29a3.6,3.6,0,0,1,.07.55l.9.59a16.5,16.5,0,0,0,3.71,2c2,.62,2.86,0,3.23-.37a2.34,2.34,0,0,0,.23-2.5,4.85,4.85,0,0,0-.3-.54,11.93,11.93,0,0,1,1.76,1.9A11.89,11.89,0,0,0,502.27,42c.65.43,3,1.3,3.59.57a.65.65,0,0,0,.15-.41,12.9,12.9,0,0,0,5.4,1.93,2.58,2.58,0,0,0,1.93-.53l.39-.36-.51-.16a3,3,0,0,1-.94-.55c1.27.43,2.75.85,3.87.18l.53-.33-.46-.18a23.09,23.09,0,0,0,3.36.19,5.45,5.45,0,0,0,3.52-1.13l.67-.41.84-.5-1-.08c-1.53-.12-2.36-1.13-3.31-2.28a15.84,15.84,0,0,0-1.16-1.3.59.59,0,0,0,.14-.06c.33-.23.41-.68.24-1.34s-2.18-2.52-2.2-2.54a4,4,0,0,0-.34-.23,1.48,1.48,0,0,0,.37-.2l.24-.18-.16-.24a7.92,7.92,0,0,0-2.77-2.6l0,0c.29-.46.09-1.11-.5-1.64a5.21,5.21,0,0,0-4-.83A17.4,17.4,0,0,0,514.66,23c.33-.37.66-.81,1-1.27A12.33,12.33,0,0,1,518.22,19a3.25,3.25,0,0,0,1.16-.18l.48-.16-.25-.25.22,0,.62.29.39.18a4.15,4.15,0,0,0,4.25.05c.94-.62,1.15-1.8.57-3.17a10.28,10.28,0,0,0-2.72-3.23c2.2.69,4.12,1.37,5.88,3.46a7.94,7.94,0,0,1,.79,1.25c.6,1.09,1.28,2.33,2.6,2.5a1.87,1.87,0,0,0,1.75-.56.86.86,0,0,0,.14-.35,13.3,13.3,0,0,1,4.12,5.89,2.33,2.33,0,0,1-.66.25,6.34,6.34,0,0,1-2.55-.06,3.54,3.54,0,0,0-1-2.3,5.06,5.06,0,0,0-3.31-.46.85.85,0,0,0,0-.46,2,2,0,0,0-1.55-1.1c-2.83-.55-5.88,1.54-7.66,3.84-2.25,2.93-2,7.84-.51,10.71,1.74,3.29,5.65,4.8,7.26,5.3A11.49,11.49,0,0,0,538,38.77a11.35,11.35,0,0,0,4.23-5.08c.86-2.23.86-5.36,0-9.56a20.39,20.39,0,0,0-2.13-4.67,2.78,2.78,0,0,0,.77-.49,1.56,1.56,0,0,0,.52-1.13c0-1.11-1.05-2.36-1.88-3.24,1.8,0,4.73-1.09,5.25-2.44l.09-.24-.22-.14a2.72,2.72,0,0,0-1-.34c2.67-1.25,5.15-2.92,5.79-6.48.33-1.9.43-3.32-1.47-4.32-.53-.28-1.78-.94-2.74-.49a2.17,2.17,0,0,0-1.1,1.62l-.24,1.1.77-.82a1.19,1.19,0,0,1,1.52-.37,2.32,2.32,0,0,1,.9,2.46c-.94,3.38-3.87,4.52-7,5.49-5.24,1.59-9.85.51-15.2-.74l-.14,0a43,43,0,0,0-10.26-1.15c-6,.4-10.92,1-16,4.18a13.61,13.61,0,0,0-3.61,3.72,2.65,2.65,0,0,0-1.08-3.23l-.17-.13c-.06-.2-.12-.39-.17-.58-.38-1.2-.7-2.23.28-3.52l.35-.46-.57,0c-4.13-.34-6.38,1.08-6.89,4.32l-.26-.16a3.18,3.18,0,0,1-.49-.3l-.35-.29-.14.43a6.39,6.39,0,0,0,.26,4.44,1.59,1.59,0,0,0-.47-.14,1.36,1.36,0,0,0-1.17.38c-1,.94,0,2.19.79,3.19a5,5,0,0,1,.79,1.2,1.71,1.71,0,0,1-.61,1.92,3.71,3.71,0,0,1-2.28.74,3.79,3.79,0,0,1-1.24-.2,3.19,3.19,0,0,0,1.28-.93,1.23,1.23,0,0,0,.29-1.24c-.35-1-2.09-1.61-3.39-2v-.2c0-1.13-1.56-1.72-2.46-1.89a7.57,7.57,0,0,0-3.35.37l-.45.12a13.47,13.47,0,0,1-4.53.38c1.15.12,3.13-1,3.19-2.23.08-1.8-2.67-2-3.94-1.74.48-.1,0-1.1-.11-1.26a2.39,2.39,0,0,0-1.58-.48,36.78,36.78,0,0,0-4.42.54c-1.71.15-2.91-.51-4.52-1a6.36,6.36,0,0,0-1-.2,2.07,2.07,0,0,1,.1.66,2.63,2.63,0,0,1-.05.49l.46.37a1.55,1.55,0,0,1,.83-.24,1.52,1.52,0,0,1,1.52,1.52,1.55,1.55,0,0,1-.28.87m-3.46-4.29a1.81,1.81,0,0,0-2.56,2.56h0a1.81,1.81,0,0,0,2.56-2.56m-1.28-1.43a2.71,2.71,0,0,1,1.92.79h0a2.72,2.72,0,0,1,0,3.83h0a2.7,2.7,0,0,1-3.84,0h0a2.72,2.72,0,0,1,0-3.83h0a2.72,2.72,0,0,1,1.92-.79m33.68,31.94a3.21,3.21,0,0,1-2.36-.41A3.17,3.17,0,0,1,484,39v-.06h0a3.19,3.19,0,0,1,.4-2.37h0a3.23,3.23,0,0,1,4.42-1.06h0a3.18,3.18,0,0,1,1.44,2l0,.06h0a3.2,3.2,0,0,1-2.4,3.81l-.06,0Zm-.14-.9h0a2.38,2.38,0,0,0,1.4-1,2.35,2.35,0,0,0,.28-1.75h0a2.28,2.28,0,0,0-1-1.42h0a2.31,2.31,0,0,0-1.75-.28,2.28,2.28,0,0,0-1.43,1h0a2.28,2.28,0,0,0-.28,1.74v0a2.26,2.26,0,0,0,1,1.39,2.29,2.29,0,0,0,1.75.28m-29-26.19a1.07,1.07,0,1,0-1.06,1.07,1.06,1.06,0,0,0,1.06-1.07m-1.06-2a2,2,0,1,1-2,2,2,2,0,0,1,2-2m25.51,26.75a2.28,2.28,0,0,1-1.68-.29h0a2.31,2.31,0,0,1-1-1.43l0-.06h0a2.36,2.36,0,0,1,.29-1.68h0a2.31,2.31,0,0,1,1.44-1,2.28,2.28,0,0,1,1.74.28h0a2.3,2.3,0,0,1,1,1.43v.06h0a2.27,2.27,0,0,1-.29,1.68,2.33,2.33,0,0,1-1.43,1h-.07Zm-.14-.89h0a1.4,1.4,0,0,0,1-1.68h0a1.43,1.43,0,0,0-.63-.86h0a1.41,1.41,0,0,0-1.07-.17,1.36,1.36,0,0,0-.86.63h0a1.48,1.48,0,0,0-.17,1.06v0A1.45,1.45,0,0,0,482,38h0a1.38,1.38,0,0,0,1.06.17M461,16.45a.73.73,0,1,0-.73.72.73.73,0,0,0,.73-.72m-.73-1.64a1.64,1.64,0,1,1-1.64,1.64,1.63,1.63,0,0,1,1.64-1.64M478.81,36a.93.93,0,0,0,.75.12,1,1,0,0,0,.61-.44h0a.94.94,0,0,0,.12-.75,1,1,0,0,0-.44-.62h0a1,1,0,0,0-1.37.33h0a1,1,0,0,0-.12.75,1,1,0,0,0,.45.61m1,1a1.9,1.9,0,0,1-1.43-.22,1.93,1.93,0,0,1-.86-1.18,1.91,1.91,0,0,1,.23-1.43h0a1.93,1.93,0,0,1,1.18-.86,1.91,1.91,0,0,1,1.43.23h0a1.92,1.92,0,0,1,.85,1.18,1.86,1.86,0,0,1-.23,1.43h0a1.87,1.87,0,0,1-1.17.85M455.54,12a1.18,1.18,0,0,1-.13.84,1.55,1.55,0,0,1-2.13.6,2.3,2.3,0,0,0,2.07-2,2.06,2.06,0,0,1,.19.6m0,0a1.18,1.18,0,0,1-.13.84,1.55,1.55,0,0,1-2.13.6,2.3,2.3,0,0,0,2.07-2,2.06,2.06,0,0,1,.19.6M488.9,38a1.41,1.41,0,0,1-.15,1,1.84,1.84,0,0,1-2.53.71,2.71,2.71,0,0,0,2.45-2.41,2.7,2.7,0,0,1,.23.71M458.39,14a.7.7,0,0,1-.08.51.94.94,0,0,1-1.3.37,1.41,1.41,0,0,0,1.27-1.25,1.7,1.7,0,0,1,.11.37m0,0a.7.7,0,0,1-.08.51.94.94,0,0,1-1.3.37,1.41,1.41,0,0,0,1.27-1.25,1.7,1.7,0,0,1,.11.37m2.44,2.32a.48.48,0,0,1-.05.35.63.63,0,0,1-.88.24.94.94,0,0,0,.86-.84,1.44,1.44,0,0,1,.07.25m22.95,20.34a.87.87,0,0,1-.1.63,1.17,1.17,0,0,1-1.62.46,1.76,1.76,0,0,0,1.58-1.55,2.14,2.14,0,0,1,.14.46m-3.72-1.61a.65.65,0,0,1-.07.45.84.84,0,0,1-1.14.32A1.23,1.23,0,0,0,480,34.76a1.33,1.33,0,0,1,.1.32"/><path class="cls-2" d="M88.15,16.77a24.43,24.43,0,0,1-9.47,3.63c-2.7.43-5.82.79-8.32-.57,2.41,0,4.67.4,7.12.11A25.27,25.27,0,0,0,83,18.63a27.93,27.93,0,0,0,5.24-2.79,1.14,1.14,0,0,0-.17.61,1.12,1.12,0,0,0,0,.32m-.41-3.23,0,0,0,.08.08,0m.58.71h0l-.07-.07Zm-10.2.88a1.05,1.05,0,0,0,.17.85,5.19,5.19,0,0,0,2.54,1.24,5.25,5.25,0,0,0,2.91-.33,10.51,10.51,0,0,0,3.47-1.58,3,3,0,0,0,.33-.31c-1.86,1-5.07,2-7.15,1-.29-.14-.6-.42-.9-.59a10.17,10.17,0,0,0,3.42.28,9.15,9.15,0,0,0,2.14-.32c.9-.25,1.69-.88,2.56-1.11-1.21.33-2.94.53-4-.4.56.5,3.39-.08,4-.27a3.18,3.18,0,0,0-1.08-.19c-.25,0-.5,0-.76-.08l-.64-.13a9.87,9.87,0,0,0-1.94-.28c-1.67,0-1.13,1.5.16,1.8a37.09,37.09,0,0,0-3.78-.25c-.94.05-1.4.27-1.49.69M73.78,26.91l-.23-.07a5.5,5.5,0,0,1-.59-.23l0,.11a25.38,25.38,0,0,1-6.86.38,24.17,24.17,0,0,0,7.66-.19m-5.23,1,.33.08a12.06,12.06,0,0,0,3.66.23,6.39,6.39,0,0,0,2.74-1.08.42.42,0,0,1-.18,0l0,.06a25.57,25.57,0,0,1-6.57.68m-4.23-4.82a2.33,2.33,0,0,1-.81-2.58,5,5,0,0,1,.9-1.41c.83-1.06,1.38-1.84.85-2.34a.75.75,0,0,0-.65-.23,4.1,4.1,0,0,0-2.1,1.54c0-.46.47-.89.64-1.31a11.13,11.13,0,0,0,.44-1.22A8.12,8.12,0,0,0,63.94,14c0-.16-.1-1.72-.12-1.71l-.19.11a2.63,2.63,0,0,0-.59.39l-.47.44,0-.64c-.29-3.09-2.13-4.47-5.76-4.31a4.12,4.12,0,0,1,.08,3.62,13.11,13.11,0,0,0-.43,3.3c-.35-.06-.92-1.46-.7-1.74-1.21,1.49.43,3.18.71,4.67-.42-.16-.86-.74-1.21-1.05a20.88,20.88,0,0,1-1.94-2.43,10.37,10.37,0,0,0-2.39-2.19,22.94,22.94,0,0,0-6.24-2.75c-5.76-.09-11,4.2-11,4.2.56-1.86,7.2-4.14,7.2-4.14-6,1-12.5,4.85-12.5,4.85,2.22-3,11.19-5,11.19-5a19.51,19.51,0,0,0-7.06.69c3-1.24,8-1.21,8-1.21l-.85-.29c-1.44-.18-2.93-.3-4.5-.4A43.06,43.06,0,0,0,25.08,9.46l-.14,0c-5.43,1.27-10.13,2.36-15.52.72C6.06,9.21,3,8,1.94,4.31a2.9,2.9,0,0,1,1.2-3.17A1.59,1.59,0,0,1,4.48,1,1,1,0,0,0,4.14.72,2.81,2.81,0,0,0,2,1.19C.47,2,.47,3,.81,4.85,1.46,8.53,4.21,10,7.2,11.3l.9.39-1,.2c-.21,0-.42.07-.62.1a4,4,0,0,0-.94.19c.81,1.1,4,2.1,5.25,1.74L12,13.58l-.82.85-.23.24c-.73.75-2.08,2.14-2.06,3.16a1,1,0,0,0,.32.68c1.22,1.13,3.41.34,5.18-.29a15.19,15.19,0,0,1,1.5-.49l.68-.18-.33.62a.59.59,0,0,0-.06.59,1.31,1.31,0,0,0,1.16.3c1-.13,1.58-1.17,2.14-2.18a7.61,7.61,0,0,1,.85-1.35,10.84,10.84,0,0,1,4.59-3.13A18.25,18.25,0,0,1,30.41,11c-.31.14-.63.28-.94.45-1.92,1-4,2.34-5,4.47-.22.51-.63,1.77.33,2.39s2.1.64,3.64-.08l.4-.19a14.58,14.58,0,0,0,3.87-2.27c-.81.74-.95,2.22-2.13,2.65,1.53.69,3.57-1.74,4.39-2.69.28-.32.55-.62.81-.89a8.21,8.21,0,0,1,7.93-2.58A12.8,12.8,0,0,1,48,14c1.47.91,2.18,2.74,3.8,3.47a6.71,6.71,0,0,1-1.57-.66c-.48-.37-.92-.81-1.36-1.22a12.37,12.37,0,0,0-1.2-1.06,12,12,0,0,0-4-1.65A8.76,8.76,0,0,0,41,12.81c1.85.27,4.76.84,6,1.9a25,25,0,0,0,2.78,2c.5.33,1,.64,1.52,1a6.78,6.78,0,0,1,1.35.83c-.4-.12-.74-.32-1.11-.46s-.88-.25-1.32-.4A6,6,0,0,1,49,17a24.29,24.29,0,0,1-2.45-1.82,8,8,0,0,0-3.16-1.29,6.84,6.84,0,0,1,2.73,1.66A11.64,11.64,0,0,0,49,17.82a9.08,9.08,0,0,0,2,.93c.16.05.54.3.68.29a6.25,6.25,0,0,1-1.58-.28A8.39,8.39,0,0,1,45.66,16a6.88,6.88,0,0,0-3.18-1.71c.22.06.5.38.68.52l.75.55,1.5,1.1c.48.35.93.72,1.38,1.1a16.77,16.77,0,0,0,1.54,1.06,5.67,5.67,0,0,0,1.06.49c.08,0,.32.23.38.24a5.26,5.26,0,0,1-1.88-.61c-.46-.25-.88-.56-1.34-.8a15.8,15.8,0,0,1-1.5-1C44,16.16,43,15.43,42,14.64a5.54,5.54,0,0,0-1.39-.8c-.54-.08-1-.13-1.39-.15a3.24,3.24,0,0,1,1,.47c.36.19.72.4,1.08.61.81.47,1.61,1,2.39,1.48s1.56,1,2.32,1.54a15,15,0,0,0,2.31,1.51c-.51-.21-1-.32-1.55-.55s-1-.51-1.47-.77-.69-.45-1.05-.64c-1-.53-1.89-1.2-2.85-1.78-.58-.35-1.27-.63-1.8-1,2,1.5,5.71,4.29,10.1,7.4,3,2.12,6.74,3.25,10.2,4.28a13.52,13.52,0,0,0,3.5.88,4,4,0,0,1-1.24-.49A11.64,11.64,0,0,1,61,26.07a12,12,0,0,1-2-1.4,11,11,0,0,1-1.66-1.88,4.35,4.35,0,0,1-.59-1.08,9.4,9.4,0,0,1-.46-1.29,3.66,3.66,0,0,1,0-1.71,2.73,2.73,0,0,0,.1.53c0,.23,0,.45,0,.67a3,3,0,0,0,.42.95A21.06,21.06,0,0,0,58.31,23,10.7,10.7,0,0,0,62,25.9a8.63,8.63,0,0,1-3.22-4.14c-.26-.63-.45-1.28-.65-1.93a14.55,14.55,0,0,1-.3-3,5.22,5.22,0,0,1,.34-1.73,7.06,7.06,0,0,0,0,.92,6.07,6.07,0,0,0,0,1.28,15.5,15.5,0,0,0,.54,2.45,11.25,11.25,0,0,0,2.37,4.65,5.53,5.53,0,0,0,1.36,1.09c3.07,1.71,8.34,1,9.89.73a1,1,0,0,1-.13-.23c-1.11.23-7.14,1.37-10.2-1.12a9.67,9.67,0,0,1-3.16-5.68,10.33,10.33,0,0,1-.21-2.93c.06-.51.23-1,.33-1.51a6.91,6.91,0,0,1,.5-1.66,7.25,7.25,0,0,0-.27,2.55,17.87,17.87,0,0,0,.17,2.73A9.71,9.71,0,0,0,62,23.92l.5.44c2.88,2.34,9,1.13,9.75,1a1.21,1.21,0,0,1,.15-.44c-1.53.37-6.77,1.43-9.68-.67a6.19,6.19,0,0,1-2.19-3.89,8.77,8.77,0,0,1-.19-2.17,7.8,7.8,0,0,1,.15-1.08A7.63,7.63,0,0,1,60.6,16a8.32,8.32,0,0,1,.55-1.17,3.18,3.18,0,0,0-.17,1.3c0,.38-.08.72-.09,1.1A15.24,15.24,0,0,0,61,19.58a6,6,0,0,0,2,4.13c2.48,1.78,7,1.05,8.8.65-.23-.09-.53-.26-.56-.58a.58.58,0,0,1,.12-.41,10.2,10.2,0,0,1-2.21.06,3.25,3.25,0,0,1-2.27.56,4.28,4.28,0,0,1-2.62-.87m-42.78,11a1.13,1.13,0,0,1-1.34-.57v0c-1.92.73-2.84.82-3.2.35a1,1,0,0,1,.05-1,3.22,3.22,0,0,1-2.27.15,1.41,1.41,0,0,1-.73-.85L14,31.92l.15-.14c.19-.18.39-.35.59-.52A8,8,0,0,1,10.61,30a8.35,8.35,0,0,0,3.06,5.46c2.26,1.69,7.38,2.8,9.82.87.72-.56,1.89-2,1.7-2.75-.09-.31-.42-.53-1-.63a1.85,1.85,0,0,0-1.48.53,3.11,3.11,0,0,1-1.16.63M8,24.25c-.83,4.08-.83,7.09,0,9.21a10.71,10.71,0,0,0,4,4.8,10.89,10.89,0,0,0,9.23,1.52,13,13,0,0,0,6.2-3.92l0,0c.07-.11,1.65-2.65-.28-4a5.15,5.15,0,0,0-3.54-.71c-.3,0-.63.15-.93.21s-.84.17-1.26.25c.3,0,.54-.41.79-.56a2,2,0,0,1,.59-.24A6.77,6.77,0,0,1,24,30.49a4.94,4.94,0,0,1,3.43.81c.09.06.16.13.24.19a3.55,3.55,0,0,0-2.1-1.88,8.18,8.18,0,0,0-4.08.12,15,15,0,0,0-3.2.93c.26-1,2.31-1.41,3.11-1.63a8,8,0,0,1,4.36,0,4.1,4.1,0,0,1,1.61,1,4.86,4.86,0,0,0-3.62-1.63,16.47,16.47,0,0,0-6.18,1.28c.46-.8,1.69-1.16,2.49-1.47a9.9,9.9,0,0,1,3.71-.43A5.58,5.58,0,0,1,29,31.41a4.9,4.9,0,0,0-4.07-3.87,12.67,12.67,0,0,0-6,.54,11,11,0,0,1-1.63.36,7.13,7.13,0,0,1-3-.14c-.76-.25-2-.53-2.29-1.37a2.6,2.6,0,0,0,.86.49,8.33,8.33,0,0,0,2.1.42,8.4,8.4,0,0,0,2.24,0,10.53,10.53,0,0,0,1.54-.35A13.31,13.31,0,0,1,25,26.93a5.74,5.74,0,0,1,3.85,2.62c-.52-1.22-2-2.73-4.77-3.52a11.13,11.13,0,0,0-4.7-.22c-.6.09-1.19.22-1.78.36a9.46,9.46,0,0,1-2.23.43c.28-.45,1.13-.67,1.61-.79a18,18,0,0,1,3.61-.75,10.75,10.75,0,0,1,3.66.37,10.16,10.16,0,0,1,3,1.43A9,9,0,0,0,25.49,25a10.77,10.77,0,0,0-2.94-1.51,4.24,4.24,0,0,0-1.42-.1,5.38,5.38,0,0,1,4.73,1.1,13.26,13.26,0,0,1,3.23,4,7.91,7.91,0,0,0-1.45-3.67c-1.6-2.08-4.49-4.1-7-3.61-.44.08-1,.37-1.08.68,0,.06-.07.22.17.48l.68.75-1-.24a5,5,0,0,0-3.47.27c-.59.37-1.26,2.22-.07,2.19a13,13,0,0,0-1.75.29,5.38,5.38,0,0,1-1.5-.07,4.73,4.73,0,0,1-.83-.18,3.7,3.7,0,0,1-1.32-.57c-.41-.28-.48-.65-.8-1a3.53,3.53,0,0,0-.59,1.78A3.91,3.91,0,0,0,9.49,28a3.13,3.13,0,0,0,1.72,1.65,9,9,0,0,0,1.55.71,4.18,4.18,0,0,0,3.29,0,8.47,8.47,0,0,1,.94-.39,5.06,5.06,0,0,1-1.56,1.6c-.24.19-.47.39-.7.59a.71.71,0,0,0,.31.31c.59.28,1.65-.11,2.35-.36l.33-.12,1-.36s-.66.85-.66.85c-.64.82-.58,1.05-.58,1.06s.51.27,3.27-.86l.06,0,.24.57c-.19.08-.25.15-.26.18s0,.05.09.09a.7.7,0,0,0,.5.07,2.69,2.69,0,0,0,.94-.53,2.45,2.45,0,0,1,2-.65c.85.15,1.35.52,1.5,1.1.3,1.19-1.16,2.8-1.91,3.39-2.76,2.18-8.2.92-10.58-.86a9.08,9.08,0,0,1-3.38-6.47,4.8,4.8,0,0,1-1.34-2.63,5.51,5.51,0,0,1,.08-2.32,2.92,2.92,0,0,1,.41-.92c.12-.17.57-.63.55-.82a2.43,2.43,0,0,0,1.18,1.6c.55-.92.84-2,1.42-2.89a13,13,0,0,1,.92-1.28c.2-.25.63-.94.94-1a7,7,0,0,0-.74.26,6.93,6.93,0,0,1-1.14.38,3.51,3.51,0,0,1-2.12,0c-.51.39-2,3.93-2.08,4.49m21.06,7.4h0v0m32.91-4a.71.71,0,0,1,.08-.15c-2.34-.61-9.3-2.55-12.8-5C43.47,18.35,38.84,14.8,37.81,14l-.38.28a51.9,51.9,0,0,1,5.84,4.17,77.06,77.06,0,0,0,7.3,5.25c3.74,2.16,10.16,3.65,11.4,3.92M50.26,24.25A78,78,0,0,1,42.89,19a43.13,43.13,0,0,0-6-4.23,7.68,7.68,0,0,0-.6.56c2.29.65,6.72,4.33,10.38,7.85,4.25,4.08,15,5.32,15.11,5.34v.05l.27,0a1,1,0,0,1-.13-.31c-1.08-.24-7.7-1.73-11.65-4m20.45,9.57a3.85,3.85,0,0,0,.74-.55c-.89.11-1.8.29-2.7.45a6.51,6.51,0,0,1-.92.2c-.17,0-1-.25-1.07-.22,1.47-.79,3.88-.18,5.12-1.34a20.61,20.61,0,0,1-4.08.14c-.9-.07-2.27-.06-3-.65,3-.57,6.17.63,9-1-1.72-.37-3.61.35-5.39,0a16.91,16.91,0,0,0-1.76-.19c-.22,0-1.68-.51-1.72-.49.51-.29,1.06,0,1.58,0s1.06,0,1.62,0A21.18,21.18,0,0,0,72,30.1a23.06,23.06,0,0,0,3.78-.6c4-1.29,7-4.05,9.63-7.24.28-.35.56-.72.84-1.09-.12.12-.23.24-.36.35A24.88,24.88,0,0,1,82.65,24c-1.07.69-2.88,2-4.24,1.7.62-.47,1.46-.46,2.1-.93a13.74,13.74,0,0,1,1.23-.95,40,40,0,0,0,3.71-2.75c-2.72,2.09-5.62,3.55-9.09,3.39a15.12,15.12,0,0,0,5-1.63,19.7,19.7,0,0,0,2.78-1.61c1-.71,1.9-1.79,2.93-2.44-3.5,2.18-8.23,3.52-12.32,2.52,2.31.43,5.17-.42,7.38-1.08a19.61,19.61,0,0,0,4.11-1.68,9.06,9.06,0,0,0,2-1.6,1.16,1.16,0,0,0,.74.61c-.34.54-.65,1-.92,1.49a25.7,25.7,0,0,1-3.69,5.52,59.33,59.33,0,0,1-8.77,7A31.05,31.05,0,0,1,71.09,34a1.52,1.52,0,0,0-.38-.2M67.45,35c.47-.13,1-.27,1.5-.45a1.52,1.52,0,0,0-.09.28,2,2,0,0,0,0,.24l-.7.31a1.85,1.85,0,0,0-.67-.38M90.7,15.15l-.46.59a1.17,1.17,0,0,0-.95-.48,1.2,1.2,0,0,0-1,.52,23.7,23.7,0,0,1-5.37,2c-1,1.6-5.42.67-6.77.32l-.45-.12a7,7,0,0,0-3.08-.37c-1.11.21-2.15,1.34-.36,1.37a9.76,9.76,0,0,0-2.89,1c-.66.23-1.86.57-2.13,1.32-.05.12-.07.32.17.62a3.31,3.31,0,0,0,2.79,1,34,34,0,0,0,4.38-.21c-.15.06-2.77.85-2.58,1s.82.18,1.24.13c.21,0,.41-.05.58-.05.62,0,1.86.36,2.41.11-.77.35-3.51.68-3.41,1.78s3.79.72,4.44.49a6.39,6.39,0,0,1-4.67,2.74,12.34,12.34,0,0,1-3.89-.25,35,35,0,0,0-5.12-1,2.13,2.13,0,0,0-.78,0v0h0a.38.38,0,0,0-.26.37c0,.15.08.27.26.46a2.09,2.09,0,0,1,.32.43l.25.52-.58-.08c-.24,0-.44-.08-.63-.12a3.18,3.18,0,0,0-.78-.13,8.23,8.23,0,0,0-2.18.14c-1.41.35-1.26,1.75-.45,2.66A6.84,6.84,0,0,0,64,33.35a12.22,12.22,0,0,0-1.5.57c.34.9,2.74.43,3.4.22-.37.17-1.3.65-1.37,1.1s.41.48.91.36a1.78,1.78,0,0,0-.35.65,3.05,3.05,0,0,1-.74,0,2.82,2.82,0,0,0-1.25-.71s0,0,0-.07a.65.65,0,0,1,.1-.36A6.13,6.13,0,0,1,62.09,35c-.93.34-2.05.37-3,.74a12.77,12.77,0,0,0-2.68,1.43c-.73.52-1.55.92-2.31,1.41a2.86,2.86,0,0,0-.76.57,14.56,14.56,0,0,1,3-2.7,14.14,14.14,0,0,1,2.14-1.14,7.36,7.36,0,0,1,2.64-.81,27.88,27.88,0,0,0-4.82.44c-.36.05-.7.18-1.05.22a5.63,5.63,0,0,0,1.18-.54,7.6,7.6,0,0,1,.94-.36c.77-.21,1.53-.32,2.28-.58a1.73,1.73,0,0,1-.6,0,6.4,6.4,0,0,0-.88.08c-.58.07-1.15.17-1.72.27a20.42,20.42,0,0,0-3.29.77c-.64.24-1.33.29-2,.51a8.72,8.72,0,0,1-1.67.43,12,12,0,0,1-2.07.18,8,8,0,0,0,1.91-.6,8.8,8.8,0,0,1,1.67-.54c1.36-.38,2.71-.81,4.08-1.11.56-.13,1.11-.24,1.67-.33.3-.06.59-.1.89-.14s.66-.18.82-.11a3,3,0,0,1-.65-.41A38.52,38.52,0,0,0,46.12,35a58.63,58.63,0,0,0-8.5,3.45c-.43.22-.82.55-1.26.73a4.37,4.37,0,0,1,1.77-1.44,53,53,0,0,1,11.94-4.57c1.21-.31,2.44-.58,3.67-.79.61-.1,1.21-.18,1.82-.24A7.54,7.54,0,0,1,57.34,32a1.72,1.72,0,0,0-.09-.19,31,31,0,0,0-11.35,2,70.25,70.25,0,0,0-9.39,3.93c-.38.19-.76.38-1.13.58-.53.28-1,.71-1.5,1,.1-.27.38-.42.59-.6s.45-.44.72-.65a23.13,23.13,0,0,1,5-2.7c1.83-.79,3.69-1.52,5.59-2.14a32,32,0,0,1,11.32-2V31A30.29,30.29,0,0,0,43.84,32.6a26,26,0,0,0-4.5,2c-.23.13-.52.44-.78.46a4.6,4.6,0,0,1,.7-.83c1-1.14,2.79-1.67,4.13-2.16a31.6,31.6,0,0,1,5.75-1.51,30.18,30.18,0,0,1,8.11-.23.56.56,0,0,1,0-.12,48.82,48.82,0,0,0-11.46.33c-1.22.2-2.32.62-3.52.91-.35.08-.62.26-1,.35q1.17-.66,2.31-1.35a5.87,5.87,0,0,1,2-.52,37.38,37.38,0,0,1,5.17-.49,36.78,36.78,0,0,1,4.2,0c-1.93-.15-3.85-.32-5.77-.49a15.08,15.08,0,0,0-1.89-.17A11.15,11.15,0,0,1,45,28.42a5,5,0,0,1,1.76,0c1.38.06,2.72-.07,4.1.05-1-.21-2-.45-3-.71l-1.22-.35c-.52-.15-1-.19-1.56-.38s-1-.49-1.55-.64a3.56,3.56,0,0,1,1.58.13,11.32,11.32,0,0,1,1.74.31c.7.21,1.4.4,2.11.57,1.77.44,3.58.62,5.34,1a45.09,45.09,0,0,1-6.61-2.14c-.88-.36-1.74-.73-2.6-1.12-.39-.18-.71-.42-1.08-.62s-1.09-.45-1.6-.75a3.7,3.7,0,0,1-1-.72,4.38,4.38,0,0,0,1.41.63c1,.28,1.94.8,2.92,1.15s2.19.87,3.3,1.29a39.93,39.93,0,0,0,6.52,1.91c.73.15,1.47.26,2.22.34-3.61-.75-8.79-2.22-11.53-4.86-4.67-4.48-8.87-7.6-10.44-7.77l-.32.35a8.31,8.31,0,0,1-3.27,2.67,15.73,15.73,0,0,1,2.21,2.53c.35.46.67.88,1,1.24a17.82,17.82,0,0,0,3.13,2.88,13.77,13.77,0,0,0,1.76,1.07,17.38,17.38,0,0,0,1.74,1l.69.22a6.67,6.67,0,0,0,2.06.45,11.8,11.8,0,0,1-2.3-.07c-.72-.11-1.38-.4-2.1-.55-1.41-.28-3.42-.55-4.6.51-.36.33-.64.75-.05.93a11.6,11.6,0,0,0,1.57.18A4.72,4.72,0,0,0,35,30a6.8,6.8,0,0,0-2.13,2,8.61,8.61,0,0,0,1.35-.09,10.89,10.89,0,0,0,1.74-.53c-.48.26-.91.59-1.41.84a8.49,8.49,0,0,0-1.88,1.06,11,11,0,0,0-2,2.22c-.35,1.35,2,.21,2.54.17a5.69,5.69,0,0,1-1.75,1.1,6.07,6.07,0,0,0-1.69,1.66,6.27,6.27,0,0,1-2.92,2.36,4.89,4.89,0,0,0,3.18,1,15.4,15.4,0,0,0,5.68-.8l1.15-.44-.8.93a3.78,3.78,0,0,1-1.5,1,7.33,7.33,0,0,0,3-.62c.32-.11.62-.22.91-.3l1.08-.33-.76.84a7.33,7.33,0,0,1-1.58,1.39,3,3,0,0,0,1,.1A10.29,10.29,0,0,0,42,42.34c.57-.28,1.09-.62,1.63-.93a5.37,5.37,0,0,0,.88-.62c.2-.16.72-.39.84-.57a5.05,5.05,0,0,0-.87,1.53c-.25,1.12,2.1,0,2.46-.24a11.72,11.72,0,0,0,2.69-2.66,8.69,8.69,0,0,1,3-2.71,5.12,5.12,0,0,1,3.72-.34,4.64,4.64,0,0,0-4.22,2.34A1.72,1.72,0,0,0,52.3,40c.46.51,1.38.58,2.57.19a15.54,15.54,0,0,0,3.56-2c.47-.31.94-.62,1.41-.91l-.09.29a3.6,3.6,0,0,0-.07.55l-.9.59a16.71,16.71,0,0,1-3.71,2c-2,.62-2.86,0-3.23-.37a2.34,2.34,0,0,1-.23-2.5,3.64,3.64,0,0,1,.3-.54,11.93,11.93,0,0,0-1.76,1.9A12.08,12.08,0,0,1,47.32,42c-.65.43-3,1.3-3.59.57a.6.6,0,0,1-.15-.41,13,13,0,0,1-5.4,1.93,2.58,2.58,0,0,1-1.93-.53l-.39-.36.51-.16a3,3,0,0,0,.94-.55c-1.28.43-2.76.85-3.87.18l-.53-.33.46-.18a23.23,23.23,0,0,1-3.37.19,5.49,5.49,0,0,1-3.52-1.13c-.21-.13-.42-.27-.67-.41l-.83-.5,1-.08c1.53-.12,2.36-1.13,3.31-2.28a15.84,15.84,0,0,1,1.16-1.3.59.59,0,0,1-.14-.06c-.33-.23-.41-.68-.24-1.34s2.18-2.52,2.2-2.54l.33-.23a1.62,1.62,0,0,1-.36-.2L32,32.13l.16-.24a7.84,7.84,0,0,1,2.77-2.6l0,0c-.29-.46-.1-1.11.5-1.64a5.21,5.21,0,0,1,4-.83A17.4,17.4,0,0,1,34.93,23c-.33-.37-.66-.81-1-1.27A12.33,12.33,0,0,0,31.37,19a3.22,3.22,0,0,1-1.16-.18l-.48-.16L30,18.4l-.22,0-.62.29-.39.18a4.17,4.17,0,0,1-4.26.05c-.93-.62-1.14-1.8-.56-3.17a10.28,10.28,0,0,1,2.72-3.23c-2.2.69-4.13,1.37-5.88,3.46A7.94,7.94,0,0,0,20,17.18c-.6,1.09-1.28,2.33-2.6,2.5a1.86,1.86,0,0,1-1.75-.56,1,1,0,0,1-.15-.35,13.37,13.37,0,0,0-4.11,5.89,2.22,2.22,0,0,0,.66.25,6.34,6.34,0,0,0,2.55-.06,3.58,3.58,0,0,1,1-2.3,5.09,5.09,0,0,1,3.32-.46.85.85,0,0,1,0-.46,2,2,0,0,1,1.55-1.1c2.83-.55,5.88,1.54,7.66,3.84,2.25,2.93,2,7.84.5,10.71-1.73,3.29-5.64,4.8-7.25,5.3a11.48,11.48,0,0,1-9.76-1.61A11.35,11.35,0,0,1,7.4,33.69c-.86-2.23-.87-5.36,0-9.56a21,21,0,0,1,2.14-4.67A2.78,2.78,0,0,1,8.75,19a1.56,1.56,0,0,1-.52-1.13c0-1.11,1-2.36,1.88-3.24-1.8,0-4.73-1.09-5.25-2.44l-.09-.24L5,11.78a2.72,2.72,0,0,1,1-.34C3.3,10.19.83,8.52.19,5-.15,3.06-.24,1.64,1.66.64,2.19.36,3.43-.3,4.4.15A2.17,2.17,0,0,1,5.5,1.77l.24,1.1L5,2.05a1.17,1.17,0,0,0-1.51-.37,2.32,2.32,0,0,0-.9,2.46C3.49,7.52,6.42,8.66,9.6,9.63c5.23,1.59,9.85.51,15.2-.74l.14,0A43,43,0,0,1,35.2,7.71c6,.4,10.92,1,16,4.18a13.76,13.76,0,0,1,3.61,3.72,2.65,2.65,0,0,1,1.08-3.23l.17-.13c.06-.2.12-.39.17-.58.38-1.2.7-2.23-.28-3.52l-.35-.46.57,0c4.12-.34,6.38,1.08,6.89,4.32a2.26,2.26,0,0,1,.26-.16,3.18,3.18,0,0,0,.49-.3l.35-.29.14.43a6.39,6.39,0,0,1-.26,4.44,1.59,1.59,0,0,1,.47-.14,1.36,1.36,0,0,1,1.17.38c1,.94,0,2.19-.79,3.19a4.67,4.67,0,0,0-.79,1.2,1.71,1.71,0,0,0,.6,1.92,3.73,3.73,0,0,0,2.28.74,3.8,3.8,0,0,0,1.25-.2A3.19,3.19,0,0,1,67,22.25,1.23,1.23,0,0,1,66.67,21c.35-1,2.09-1.61,3.39-2v-.2c0-1.13,1.56-1.72,2.45-1.89a7.59,7.59,0,0,1,3.36.37l.45.12a13.47,13.47,0,0,0,4.53.38c-1.15.12-3.13-1-3.19-2.23-.08-1.8,2.67-2,3.94-1.74-.48-.1,0-1.1.11-1.26a2.39,2.39,0,0,1,1.58-.48,36.78,36.78,0,0,1,4.42.54c1.71.15,2.91-.51,4.52-1a6.36,6.36,0,0,1,1-.2,2.07,2.07,0,0,0-.1.66,2.63,2.63,0,0,0,0,.49l-.46.37a1.55,1.55,0,0,0-.83-.24,1.52,1.52,0,0,0-1.52,1.52,1.55,1.55,0,0,0,.28.87m2.82-4.93a2.72,2.72,0,0,1,3.83,0h0a2.72,2.72,0,0,1,0,3.83h0a2.69,2.69,0,0,1-3.83,0h0a2.69,2.69,0,0,1,0-3.83Zm1.92.12a1.83,1.83,0,0,0-1.28.52,1.81,1.81,0,0,0,2.56,2.56h0a1.8,1.8,0,0,0-1.28-3.08M64.12,41a3.25,3.25,0,0,1-2.36.4h0l-.06,0a3.21,3.21,0,0,1-2.39-3.81h0v-.06a3.23,3.23,0,0,1,1.45-2h0a3.23,3.23,0,0,1,4.42,1.06h0a3.19,3.19,0,0,1,.4,2.37h0V39a3.25,3.25,0,0,1-1.45,2m-2.25-.5h0a2.3,2.3,0,0,0,1.75-.28,2.26,2.26,0,0,0,1-1.39v0A2.28,2.28,0,0,0,64.41,37h0A2.28,2.28,0,0,0,63,36a2.31,2.31,0,0,0-1.75.28h0a2.33,2.33,0,0,0-1,1.42h0a2.31,2.31,0,0,0,.28,1.75,2.38,2.38,0,0,0,1.4,1M90,14.28a2,2,0,1,1,2,2,2,2,0,0,1-2-2m2-1.07A1.07,1.07,0,1,0,93,14.28a1.07,1.07,0,0,0-1.07-1.07M68.1,38.77a2.26,2.26,0,0,1-1.68.29h-.06a2.33,2.33,0,0,1-1.43-1,2.26,2.26,0,0,1-.29-1.68h0v-.06a2.3,2.3,0,0,1,1-1.43h0a2.31,2.31,0,0,1,3.17.75h0a2.31,2.31,0,0,1,.3,1.68h0l0,.06a2.31,2.31,0,0,1-1,1.43Zm-1.55-.61h0A1.38,1.38,0,0,0,67.63,38a1.45,1.45,0,0,0,.63-.84v0a1.39,1.39,0,0,0-.17-1.06h0a1.38,1.38,0,0,0-.87-.63,1.4,1.4,0,0,0-1.06.17,1.43,1.43,0,0,0-.63.86h0a1.4,1.4,0,0,0,1,1.68m21.1-21.71a1.64,1.64,0,1,1,1.64,1.63,1.64,1.64,0,0,1-1.64-1.63m1.64-.73a.73.73,0,1,0,.73.73.73.73,0,0,0-.73-.73m-18,21.1a1.91,1.91,0,0,1-2.61-.63h0a1.86,1.86,0,0,1-.22-1.43,1.88,1.88,0,0,1,.85-1.18h0a1.86,1.86,0,0,1,1.43-.22,1.88,1.88,0,0,1,1.18.85h0a1.86,1.86,0,0,1,.22,1.43,1.92,1.92,0,0,1-.85,1.18M70,36.17a1,1,0,0,0,1.2-.74,1,1,0,0,0-.12-.75h0a1,1,0,0,0-1.37-.33h0a1,1,0,0,0-.33,1.37h0a1,1,0,0,0,.62.45M94.05,12a1.13,1.13,0,0,0,.13.84,1.55,1.55,0,0,0,2.13.6,2.3,2.3,0,0,1-2.07-2,2.06,2.06,0,0,0-.19.6m0,0a1.13,1.13,0,0,0,.13.84,1.55,1.55,0,0,0,2.13.6,2.3,2.3,0,0,1-2.07-2,2.06,2.06,0,0,0-.19.6M60.69,38a1.41,1.41,0,0,0,.15,1,1.84,1.84,0,0,0,2.53.71,2.72,2.72,0,0,1-2.46-2.41,3.34,3.34,0,0,0-.22.71M91.2,14a.7.7,0,0,0,.08.51.94.94,0,0,0,1.3.37,1.41,1.41,0,0,1-1.27-1.25,1.7,1.7,0,0,0-.11.37m0,0a.7.7,0,0,0,.08.51.94.94,0,0,0,1.3.37,1.41,1.41,0,0,1-1.27-1.25,1.7,1.7,0,0,0-.11.37m-2.44,2.32a.48.48,0,0,0,0,.35.63.63,0,0,0,.88.24.94.94,0,0,1-.86-.84,1.44,1.44,0,0,0-.07.25m-23,20.34a.87.87,0,0,0,.1.63,1.17,1.17,0,0,0,1.62.46A1.75,1.75,0,0,1,66,36.23a1.67,1.67,0,0,0-.14.46m3.72-1.61a.65.65,0,0,0,.07.45.84.84,0,0,0,1.14.32,1.23,1.23,0,0,1-1.11-1.09,1.33,1.33,0,0,0-.1.32"/></g></g></svg>