<svg xmlns="http://www.w3.org/2000/svg" viewBox="0 0 549.59 37.66"><defs><style>.cls-1{fill:#fff4e4;}.cls-2{fill:#7c6742;fill-rule:evenodd;}</style></defs><title>title_11</title><g id="Layer_2" data-name="Layer 2"><g id="Layer_1-2" data-name="Layer 1"><polygon class="cls-1" points="75.22 30.43 52.22 30.43 50.81 30.43 51.73 29.38 61.84 17.74 51.73 6.11 50.81 5.05 52.22 5.05 75.22 5.05 75.22 3.29 75.22 2.65 75.87 2.65 473.75 2.65 474.39 2.65 474.39 3.29 474.39 5.05 497.4 5.05 498.8 5.05 497.88 6.11 487.78 17.74 497.88 29.38 498.8 30.43 497.4 30.43 474.39 30.43 474.39 32.17 474.39 32.81 473.75 32.81 75.87 32.81 75.22 32.81 75.22 32.17 75.22 30.43"/><path class="cls-2" d="M505.36,25h0l-.07.05Zm5.07.07.32-.21Zm6.25.58,0,0,0,0m-1,0v0m-5.09.11h0Zm0,0h0m-.48,0,.72-.47Zm-.83,0h0l.8-.52Zm.24-.52-.8.53h0Zm-1.79.54h0l.37-.24Zm-1.42-.88h0l0,.9Zm.39.09s0,0,0,0,0,0,0,0m0-.06a.14.14,0,0,0,0,.06.14.14,0,0,1,0-.06m.66-.05h0l-.69.44Zm1.54.21.41-.27Zm-.85,0h0m-4.08.7h0l1.3-.87Zm-.92-.12h-1.31v.15h1.13Zm.57.12.18-.12Zm.18-.12h-.47l-.17.13.17-.13ZM502.07,25c-.83.89-3-.33-3.91.38v.17l5.1,0L504,25Zm-8.6.22h1.41v0Zm.62.55.09-.24-.22.29v0Zm1.38,1.62-.14-1.14Zm6.79-.39.05,0-.05,0m-.47.31Zm-1.25.81h0Zm-1.84-.68h0Zm-.91,0h0l.09-.19.18.21h.34v0c.23-.25.44-.77.69-.77h1l-.37.67,0,.18h.39l.65-.85h1.07l.41-.3h-3.37c-.4,0-.3.62-.7.62-.18,0-.32-.57-.39-.78l-1.6,0v.15l-.1-.15.13-.33L496,25.6h-.36c.09.49.21,1.13.26,1.58.38-.24.28-.82.92-.82h.5c.38,0,0-.05.3.15a3.85,3.85,0,0,1-.34.94Zm-1,.43Zm-1.92-1-.05-.33Zm-16.14,2.87a.5.5,0,0,0-.17.12l.89-.12Zm47.47-1.43c-.56,0-1.13,0-1.69,0-1.11,0-.46-.1-1,.62l8.65,0,.69,0v.15H527.8v.15H534l-.25-.27-.42,0h-.23v0l-3.32-.29h-.26v0Zm-5.47.31c-.34,0-.38.12-.71.27l.63.22-.62.13-.15,1.11c.54-.1.16-.33.55-.33h.6c.28,0,.18.05.3.31l-.8-.18v.33H526l-.89-.22-2.79.07-.89-.17.21-.25-.81-.05v-.15h2.39v-.31h-.3v-.31h-1.29V29h1.79v-.15l-1.29-.19Zm-.1.43V29h.9v.31Zm-27,3.11v0m-4.81-.55-1.75,0V32l1.23,0,.51-.28m10.84-.33h0l.06,0ZM505,28.44h0Zm-.2.24.16-.1Zm-.69.13h0l.18-.11Zm0,0h0l.38-.25Zm2.44-1.62-.07,0Zm1-.6.13-.09Zm.13-.09h0Zm1,2.95h.16a.23.23,0,0,0,.25-.17l-.41.17m-6.17.33h0l.27-.17Zm4.44.39h.49l-.34.42,1.14.11-.62-.37.52.06v-.31h-.93l-.26.1m-4.88.15Zm3.88.21,1,0v-.11h-.61Zm-4.45,0Zm0,0Zm-.24.21.23-.21Zm-.18,0h0l.3-.21Zm-5.41.6h0v0Zm-5.75-.23c-1.33,0-3,0-3.27.52l2.68-.2.3-.16.29-.16M491.73,30l-.49.09c-.7.21-1.23-.24-2.09,0s-3.84-.15-4,.87a21.52,21.52,0,0,1,4-.61,9.86,9.86,0,0,1,1.89,0c.26-.15.51-.29.72-.39m6.35-.32.24-.14-.24.14m4.65,2,10.55-.22c-.86-.86-6.54-.14-9.79-.07l-.76.29m-1.29.46,3.39-.18c-.12-.17,0-.24-.3-.24h-.2l-2,.11-.16.06-.72.25m-1.34-.71-.35.15.35-.15m13.57-3.95a8.42,8.42,0,0,0-.09,1V29c0,.45,0,.29.2.47a16.06,16.06,0,0,1,0-2Zm-.28.11a6,6,0,0,0-.11,1.19V29c0,.45,0,.29.2.47V27.6Zm-2.5.93v.1h.1v-.14Zm.7.72h-.3l.22-.26L510.7,29l0-.35-.9.36-.46.18h0l-.12,0,.2.5,1.25.11c-.11.17,0,.24-.29.24h-1.89v.31l2.58-.18-.39-.15.39-.2-.48-.31v-.4h.29l-.21.27H512l-.41.46.51,0v.16h-.8l.31.24-3.19.22v.16H510v.15l-3.18.06-2,0-.52.2,2.21,0,.89,0,3.38-.17-.31-.4.61,0V31l8.65.6.06-.14v.31l5.32.07,2.68,0v.26h-2v.16h.6v.15h-.6v.16l5.47-.5,2.29.2h.3l.5,0,4.67,0v-.31h-2.29c-.78,0-1.7.2-1.89-.31H521.34v-.16H522v-.15l-7-.12V31L529,31l.69-.14h1.39v-.15H527v-.16l8.35,0,.4,0c.28,0,.18-.05.3-.31l-7.76.11-.6.05-1.09-.09-.05.4-4.73,0-.59.06-.38.27-.07-.05h-1.34c.12-.71.3-.39.3-.93v-.78h.19l-.46-.55,0,.55h.2v.78l-.35-1.37-.35.1.08-1.38h.12v.31h1.49l2.69-.08-.41-.3.24,0-.57-.2-4.83.05v.25h.79l-.39.18.23.39c-.32-.05-.21-.1-.43-.1s-.14.51-.1.77l-.4-.06-.27-1-.15.83-.12-.52-.06,1.72c-.12.1-.4.57-.4-.15,0-.29.17-.2.3-.31V27l-.29.18V29a1.1,1.1,0,0,1-.2-.77l.12-1.24.3-.26-.52-.05c0,.44,0,.62-.29.62s-.07-.31-.4-.31a2.29,2.29,0,0,0-.66.53,8.09,8.09,0,0,0-.14,1V29.6l.5,0V29l-.29.34v-.8l.58-.39,0,1-.15-.64-.05,1.41c-.31,0-.7.42-.7-.31V28.21h-.19l.19-.18a2.62,2.62,0,0,0-.19-.79l-.4.16v.19h.4l-.2.62h.2V29.6h-.1V28.52h-.1v.77h-.1V27.74c-.16.18-.2,0-.2.47V29.6H513V29l.17.34,0-1.6-.06,0a13.31,13.31,0,0,0-.34,1.39v.62H512l.39-.48v.32h.19a3.39,3.39,0,0,1-.09-.77v-.62a.62.62,0,0,0,.37-.36l-.47.18v1.11h-.1v-.93h-.1l-.1,1.11-.1,0V28.21l-.4.15Zm-5.53-1.57-.13.09ZM519,28.91v1.16l-.21-1h-.13l.16-1.09,0,.88Zm-8.86,0-.21.48.23.1-.51-.39Zm3.94.53c.09.37-.15,0,0-.19s0,.15,0,.16v0m3.57-.42.46-.37a2.75,2.75,0,0,0-.1.76v.46h-.3l-.07.12.57.8-4.38-.19v.2l1,.19-3.4-.24v-.1h1.69v-.16l-1.1-.12v-.18l.79,0c0-.05.2.11.2.11l.07-.48.72-.06.07.13-.17.4,3.69.15-.12-.57.28.47.12-.67h-.18l0-.64-.2.82V28.58Zm-2.33,1c-.18-.28.18.27,0,0m-3.28.35h0Zm-19.74,2.63h-1.94v.27l2,0c0-.09,0-.16,0-.22m32.38.56-1-.13v-.16l2.59-.2v.19l-1.4.23v.09h.49l-.58.38v.09h1.19l-.51-.38c.52-.09.49-.26.91-.24l6.27.33c-.43-.6-1.73-.33-2.49-.33v-.16h3.08v-.16c-.68,0-3.83.26-4.18-.47l2.49.06.9-.06c.22,0,.22.12.39.31l.15-.36L533,33l.28-.35,0,.35.2-.31.8,0v.19h-.7V33h3.28v-.15h-1.49V32.7h2.09v.16H537l.22.27-2.31,0v.15h.9v.47l.37-.51-.18.5h1.5l-.09-.47h4.76v-.46h-1.79V32.7c.56,0,1.45.21,1.69-.31l-11.53,0-.5,0-6.66.38v-.22h2.08v-.31l-7.06.18v-.18h1.4v-.16H518l-.12.46h-2.07l-1.29.19v.12c1.73,0,7.09-.62,7.66,0L507.51,33l-.1-.13-2,.07-3.78-.07V33h-2.51l-.12,0c-.15.06-.64.24-1.29.46l-.05.25h1.39l-.41-.24,3.49-.6.7.06c.22,0,.22.13.4.31l1.88-.19,3,.08.6,0,7.55.14,1.3-.05,3-.25h2.59v-.12l5.47-.17v.14l-5.67.31v.31h.69l-.29.37Zm18.84-.75h-.55v.46h.4v.47h.17Zm-58.25,1v-.19h-.29l-2,0-.3,0c-.64,0-.76.31-1.39.31h-.7v-.17l-4.07.73v.37L480,34.2l-.82.55,2.4-.6,0,.23-1.11.51Zm-3.57.43c-.17.28.18-.27,0,0m.9,1.4s1.26-.53,1.4-.6a9.36,9.36,0,0,1,1.56-.37,15.25,15.25,0,0,1,3.11-.58l-2.92,1,5.39-1v0h-1.79l.24-.41-2.82.45c-.68.09-1.42-.4-2.31.24a7.47,7.47,0,0,1-2,1h-.3v.31ZM486.32,34l-.61.23Zm14.13,2.69c.51-.68.93-.17,1-1.08l-1.58.36v.26h.4l-1.21.66,0,.17,1.29-.4,0,.18-1.3.53v.25l2.36-.89,1.33-.56-.51-.1.79-.36v-.26l-1.51.53.51.09Zm-.09-.41.9-.26Zm-.59-.13-.81-.08.69-.37v-.25a19.54,19.54,0,0,1-5.38.77c-.81,0-2,.47-2.88.48-.56,0-2.56-.12-2.69.61l4.28-.47.05.32,2.14-.49,0,.16-.61.24c.11.18,0,.24.29.24.68,0,2.71-1.24,4.08-1.24l-2.09,1v.29l.51-.21Zm-4.58.62,0-.2,1.43-.24ZM508,12.17c0-.17-.05-.15-.19-.18v.74h-.06c0-.44,0-.93-.37-.93h-.07c-.37,0,.06.39.17.64s.26.66.52.73Zm19.27,2.71-1.52.75.19.17-.14.21.05.06,1.92-1.13,0-.06-1.83.83Zm3.65,10.71c0-.23-.33-.75-.56-.75h-.19v.25c0,.21.13.09.13.31a.31.31,0,0,1-.31.31c0,.22,0,.56.24.56,0,0,.69-.43.69-.68M528.1,25l.06-.16.07,0c.17,0,.1-.06.25-.06.34,0,.55.51.55.87v.06c0,.25-.13.44-.37.44a3.24,3.24,0,0,0-.31-.13l.2.24,0,.05-.39-.36-.06,0,.34.48a.82.82,0,0,1-.54-.77v-.56c0-.17,0-.11.14-.22ZM528,25a1.09,1.09,0,0,0-.1.49.58.58,0,0,0,.19.5ZM487.57.6l.05-.07.21.24Zm2.34.45c-.43-.06-1.05-.29-1.53-.4-.32-.07-1.38-.34-1.52-.34s-.15.13-.19.19l.44.17,2.72.61.19.1,10.62,2.37,0-.07-.57-.16.18,0-1-.24C499,3.1,493.74,1.92,493,1.78c-1-.21-2.23-.62-3.12-.73m10.5,2.4.6.24-.25.07.32.09,0-.12.34.06-.13.11.63.16-.13-.13.19,0V4.1l.74.15.19.1,4.53,1.08V5.28l.26-.06Zm1.79,1.89c-.07-.11-.13-.25-.31-.25s-.06,1.14-.06,1.43h.06V5.9H502l.31,7.76,0,.37c0,.14-.05.14-.12.25V15h-.07l-.14-1.8h0l.09,2.68.28-.07c.07.1.08.19.25.19h.06c.15,0,.19,0,.19-.19V13.66c0-1-.19-2.83-.19-4.16s-.37-2.82-.37-4.16M485.07,1l.37-.19Zm1.48,2A11.73,11.73,0,0,1,487,5.69h-.1Zm11.94,6.37,0-.07-1.4.62c.06.25.49.22.85.22-.12-.3.22-.1.44-.44-.23.06-.67.32-.75.32l-.22-.07ZM532,10.93c-1.3,0-.44-1-1.25-1-.2,1,.38.48-.66.69-.42.09-1,.14-1.39.24l-.15-.68-.15-.14-.25.14.16.81c-.38.26-.83.39-1.24.66s-1,.3-1,.82c.48,0,1.65-.93,2.24-.93.17,0,.26.85.31,1.06.17,0,.25,0,.25-.19v-.06l-.13-.87c.28-.42,1.58-.44,2.3-.44l.11.38c0,.45,0,.73.39.74l-.11-1h.3c.26,0,.25.12.43.12s.11-.13.12-.25ZM495.56,10l-.05.06,2.73,2.74.08-.05,0-2.26Zm20.49,2a12.43,12.43,0,0,0-.12-1.93c-.07-.61-.21-1.38-.25-1.86-.39.1-.19,2.32-.19,2.86l-.14.23h.14v.13l-.13,0,.26,0v.12h-.25v.19l.24-.07v.13h-.19v.25h.25l-.24.15v.1l.31-.06v.12h-.12l.07.31h-.2V13l.31-.07c-.09.16-.19.32,0,.38v.13h-.18v.18c.16-.08,0-.06.18-.06H516c-.07.25,0,.19-.37.19l-.15.42h.46a.44.44,0,0,0,.43-.25c-.48-.17.17-.54-.49-.56v-.12l.29-.21.06,0-.24-.24-.05,0v-.12l.19,0-.19,0v-.19l.11-.25-.23-.07v-.11Zm8.73-.5-.29.23.2,0-.36.23.25,2.62.16.14.19-.08-.06-.24.16-.12Zm.88-.49-.55.23c0,.7.11,1.45.13,2.12,0,.22,0,.87.22.84s.47-.3.47-.65l0-.25Zm7.23.87c0,.19.06.21.06.43v.31c.23-.16.42-.41.74-.44v-.12l-.3-.08v.27l-.36.14.24-.44ZM515,11.74c0,.3-1.37,1-1.81,1l0-.07Zm0-1.37-2.36,1.31.1-.39c-.12,0-.31-.08-.29.07l.15,1.18L515,11.3l0,.06c-.34.63-1.55.88-2.12,1.37l.87.15-.07-.21,1.3-.6c0,.31-.77.71-1.1.72v.13l1.3.17-.16-2a10.22,10.22,0,0,1-2.38,1.31c0-.33.35-.38.59-.52a5.9,5.9,0,0,0,.71-.41l-.05-.08-1.24.67c0-.46,1.83-1.2,2.22-1.46l.13.31Zm.06,2.36c-.14.2-.21.35-.37.12l.2-.09-.63.2,0-.11.77-.46,0,0-.14.3Zm20.56.12h-.19v3.79h-.07l-.08-3.6c-.23.36.08,6.41.08,7.83h.12l-.08-2.61h.07l.15,2.36v.25l.3.14,0-2Zm-22.6.52.05.05-.18.07Zm.52-.17-.46.17.17-.38-.55.1c0,.38-.3.62-.06.7l-.08.37Zm20.66-.93a2.32,2.32,0,0,1-1.13.77v.19l1.41-.84c-.07.36-1,.78-1.22,1l-.18-.13.15,1.38c.33-.21.67-.49,1-.71.5-.34.71-.17.71-.91l-1.65,1c0-.5,1.69-1.11,1.77-1.41l0-.06-1.8,1.16c0-.47,1.38-1.06,1.71-1.36Zm-.94,2,1.55-.93c-.15.3-.35.38-.73.63s-.72.7-.82.3m-10.87-.12c0-.28,0-1.12-.25-1.12s-.07,1-.06,1.3c-.24.35-1.8,1.12-1.8,1.43v.44a5.6,5.6,0,0,1,.85-.77c.29-.17.57-.53,1-.54,0,.26,0,1.06.31,1.06s.12-.24.12-.5v-.81c.23-.06.58-.48.85-.64s.76-.27.77-.72l0-.07Zm-2-2.11-.18.07.13-.12ZM516.55,8.2c-.1,0-.07-.12-.31-.19l.15.36c-.56,0-.22.44-.21,1h.12c.07-.27.64-.61.81-.38l-.26.23c.18,0,.26-.1.38-.1l.13.06-.17.27,0,0c.08-.11,0-.13.2-.13s.18.08.25.18l-.25.13.05.07c.12-.11.12-.14.32-.14s.12.13.13.25l.26.09V10l-1.76.9v-.32l1.47-.68,0-.07c-.31.08-1.21.62-1.3.62h-.19l.12-.31-.24-.07.11,1a19.85,19.85,0,0,1,1.94-1c.19,0,.17.07.18.25l-.26.08c.38,0,.15-.08.39-.08s.11,0,.19.12a14.79,14.79,0,0,1-2.07,1.12c-.27.11-.38,0-.15-.22a6,6,0,0,1,.52-.3,4.63,4.63,0,0,0,1-.54l-1.7.81,0-.06.09,1.12c.39-.47.93-.46,1.17-.81l-1.1.53c0-.41.76-.72,1.06-.87a5.6,5.6,0,0,1,1.34-.59c.17,0,.15.05.19.18l-1,.46a10.94,10.94,0,0,0,1.08-.46c.08,0,.19.13.19.25s-3,1.28-3,1.56c0,.08.07.09.13.12.12-.33,2.52-1.3,3-1.61l.47.35c0,.31-1.21.75-1.56.92s-1.43.78-1.64.84l.43.12-.15-.16,3-1.51.18.07v.11l-2.78,1.46,0,.09.31.08-.06-.2,2.37-1.22v.16l1.32-.91c-.38,0-.6.35-.89.35-.12,0-.11-.12-.12-.24l0,.05-.62-.5,3-1.52c-.42,0-2.85,1.47-3.12,1.47-.08,0-.12-.09-.12-.19,0-.3,2.21-1.19,2.55-1.42-.53,0-2.49,1.3-2.8,1.3-.11,0-.1-.09-.12-.19l1.14-.57c-.34,0-1.07.51-1.27.51s-.12-.08-.12-.19S520.81,9.32,521,9c-.31,0-2,1.06-2.17,1.06h-.19c0-.41.56-.36.75-.62l-1,.43,0-.06c0-.49,1.46-.69,1.55-1.05l-1.83.87,0-.07c.11-.4,1-.7,1.43-.8V8.63h-.31l-1.26.72-.21-.19a.69.69,0,0,1-.46-.53H517V8.45l.37-.15-.05-.17c-.13.09-.26.25-.44.25l-.12-.06.14-.23c-.28.05-.13.11-.33.11m0,5.46a1,1,0,0,0-.06.31v.13c0,.16.48.4.62.49l.81-.8Zm-3-.36c-.19.33-1,.83-1,1.17v.19h.13c0,.36-.16,2.73.25,2.73h.31c.08-.38.24-.46.36-1a4.48,4.48,0,0,1,.4-1,4.84,4.84,0,0,1,.62-.75c.24-.25.73-.36.73-.57v-.31a1.43,1.43,0,0,0-.06-.35ZM485.93,5.65s0,0,0,0h-.08Zm-1.88,0a7.84,7.84,0,0,0,.76-.54,4,4,0,0,0-1,.54h-.43l.79-.51a4.05,4.05,0,0,0-1,.51h-.35l2.2-1.51,0-.06-2.39,1.57h-.38l3.15-2.12.07.07-.42.52h.18c0,.5-.94.68-1.05,1l.87-.48-.19.45.1.07-.39.5Zm.76,0,0,0h-.15Zm35,7.35,0-.06,1.41-.8Zm-2.1,2.12.87-.74,0-.07-1,.68a15.45,15.45,0,0,1,3.53-2.51c-.3.45-.92.55-1.33.92s-1,.55-1.22.94l2.74-1.72.06.06Zm13.64-5.5a7.89,7.89,0,0,0-2.95-.22,11.65,11.65,0,0,0-1.41.15,12.59,12.59,0,0,1-1.41.26c-.32.21-1.8.68-2.25.86a13.6,13.6,0,0,0-2,1.05,26.84,26.84,0,0,0-3.52,2.62l-.13,0-.06,0-.12.25,2.26-1.67,0,.06c-.38.56-2.21,1.44-2.36,2l.24.14v.1l-.2.1.2,0v.12c.86-.57,1.77-1.28,2.68-1.79A29.76,29.76,0,0,1,523.22,12c1-.42,1.76-1.07,2.94-1.53a9.58,9.58,0,0,1,3.43-.92h1ZM512,14.22l-.07-.05L512,14l.14,0Zm.13-1.18a.74.74,0,0,0-.07-.31h.07l.13.94h-.13Zm-.27-5.76-.22.12,0,3.72c-.24-.19-.11-1.38-.1-1.62V8.26c-.09.07-.12,0-.12.19v1.86l.18,2.8h.08l-.09-1.92h.08l.08.87h0v-.56h.13l.13,2.23-.22-1.49-.11,0a3.48,3.48,0,0,1,.08,1c0,.53-.1.45-.13.8l.19.06-.07,3.05a.25.25,0,0,0,.25.25h.5L512.3,16l-.12.56h0c0-.44,0-.59.25-.74l.07-.69c0-.15-.13-.42-.13-.68,0-.08.06,0,.12-.25l-.35.45.27-.8-.06,0-.23.14c.11-.43.29-.19.25-.74L512,7.51Zm23.06,6.44-1.51,1.11,0-.05V15l1.47-1c0,.4-.39.5-.64.67s-.57.45-.83.47v.37c0,.12,0,.11.06.19l1.4-.92c0,.29-.32.41-.55.59a2.49,2.49,0,0,1-.66.39v.19l.55.14a.85.85,0,0,1,.69-.51v.12l-.6.38,0,.06.56.07c.07-.28.13-.12.13-.32v-.38c0-.49-.79.4-1.18.44,0-.4,1.18-.72,1.18-1v-.18c0-.46-1.16.65-1.5.74,0-.34,1.07-1,1.43-1.05ZM531,12.57a7.32,7.32,0,0,0-3.08.76c-.41.26-.8.38-1.24.62-.29.16-.89.64-1.22.64,0,.35.05,2.92.44,2.92S529.5,15,531.27,15h.81a1.27,1.27,0,0,1,1,.56l-.36-2.74Zm-10.76,4.69a13.66,13.66,0,0,0-.17-1.75c-.15-1,.15-1.14-.7-.73l.3,2.49v.37Zm-19.73-1.81-.05,0-.64-.72.07-.07Zm-1-5.14v-.13c.37-.08,1.47-.89,1.71-.55l-1.68.75Zm-2.55-1.8h0m4.47-2.8c-.24.46-.71.48-1.15.77a4.53,4.53,0,0,1-1.27.66c.29-.39,1.64-.78,1.68-1.24l.12.13Zm-.56.13h0m-2.29,1.24h0m-2.05,1.37c-.26.22-1.47,1.18-1.74,1.05l0-.05Zm-7.08-3.23,0,.07.86-.43c-.06.34-.88.67-1.2.82h-1.2c.26-.22.75-.32,1-.49s1.08-.73,1.27-.46ZM493,10.74a2.92,2.92,0,0,1,1-.66l-1.5,1.2Zm1.76-.8A18.66,18.66,0,0,0,492,12.06c-.15.14-.33.29-.52.44l.62-.71a15.54,15.54,0,0,1,2.68-2h.18l3.19,3.28-.07.09c-.18-.27-3.22-3.24-3.3-3.24m5.48,5.51-.61-.64Zm-10.49-1c.71,0,1.44.18,2,.24.79.1,1.44.08,2.2.22s1.49.13,2.19.24l2.07.29s.13-.09.18-.12l0-.62c0-.29,0-.47,0-.88s-.22-.32-.31-.68l.7.73.06,0,0,1.43H499V14.16c.22.16.12.87.12,1.24h.07l0-.74,0-.32.46.48-.27-.17c0,.86,0,1,.92,1l-.07-.18.31.25-.06-.26c.53.35.32.37,1.13.56-.07.1,0,.13-.19.13H501c-1,0-2.19-.43-3.1-.44s-2.17-.37-3.11-.37c-.63,0-2.48-.26-2.89-.34a19,19,0,0,0-2.4-.27Zm4.47-5.14c.11-.05.16,0,.1.23h.31a.75.75,0,0,1-.62.5l.13-.18-.35-.05Zm-3.45-3.64.22-.11,0,.07,0,0Zm-.74,0,.72-.35,0,.06a.55.55,0,0,1-.25.29Zm-.71,0a6.12,6.12,0,0,1,1.21-.54c-.09.36-.51.37-.76.54ZM545.93,15l-1.71,1,.07.11,1.48-.92,0,.06v.18c0,.22-.14.1-.13.31l.21,3.79a10.78,10.78,0,0,1-.33-2.85h-.13l.39,6.08.42-.07-.31-7.44Zm-25.88,3.58-.06-.1,1.41-.87.05.05Zm5.14-3.77-5.92,3.65c.42.11,2.62.3,2.62.7v.19c0,.25-1.58,1.06-1.88,1.22a10.56,10.56,0,0,0-1,.56c-.23.15-.68.57-.92.57v.19c.24-.06,1.5-.89,1.84-1.08.61-.31,1.25-.75,1.84-1s1.26-.75,1.86-1.06a16,16,0,0,0,1.79-1.06Zm-5.57,3.7,0-.05,3.76-2.31Zm13.52-2.25L533,20.12h0l-.05-1.55V17.51L533,17c-.11.07-.14,0-.14.18v.56h-.12v-.31h-.06l-.06,1.12,0,.49c0,.22-.13,1.3.13,1.49l-.07-2.73h.07l0,.26.08,2.49H533v-.25l.16.32.06-4h.09v3.91c0,.41,1,.32,1.4.4.72.14.42-.49.4-1.21a20.16,20.16,0,0,0-.19-3.1Zm-13.92-1.45H519c-.25,0-.38.28-.43.5.14,0,.19,0,.19.19v.24l.31-.12-.24.26v.67l-.18.2,0,.06.2-.08V17l.13.93.18-.31.2.07Zm-2.42,1.62c-.27.07-.2.18-.49.32s-.38,0-.44.3l.37,0a.58.58,0,0,0,.68-.48h-.12Zm-.67.59,0-.07.53-.17Zm.23-.71-.43.24.07.12-.2-.05-.32.14h.19l0,.1,0,.07.7-.38Zm-7.05-1.1.05,0,.38.72ZM511,11c0,.25-.68.54-.92.63-.45.17-.48.43-1.13.43Zm-3.91.13h0m2.5-1.66a10.67,10.67,0,0,1-1.63.85l0-.06,2-1.29-1.1.58A6.68,6.68,0,0,1,511,8.07c0,.31-.78.58-.74.62l.05.08.67-.36c0,.31-1.17.9-1.45,1.05m.18-.82V8.51h.13Zm1-.94-.07,0c-.15.06,0-.09.07,0m-.62.19h0m-3.42,3c.29,0,.07.14,0,.19v-.19h-.18c0-.42.91-.53,1.18-.93l-1.34.73c0-.36,1-.81,1.26-1,.46-.31.93-.56,1.38-.86-.14.53-1.08.79-1.3,1.12h.18Zm-1.61-1.74a22.45,22.45,0,0,1-2,1.2c-.32.13-.16-.19,0-.31a4.55,4.55,0,0,1,.55-.26,4,4,0,0,0,1-.63l-1.72.9,0-.28,1.33-.7c-.42.05-1.09.58-1.27.58-.72,0,1.67-1.18,1.68-1.18s.1.09.13.18L504.1,9l.75-.31.07.08-.36.39c.39,0,.31-.25.5,0m1.24,2-.79.3-.05-.08.22-.22-.54.17c.13-.26.81-.77,1-.55l-.45.35.64-.16Zm-2.76,3.2-.07-.07.44-.31Zm4-1.4c-.65-.48.09-.67-1.3-1l-.55.51-.06-.05.82-.8c.47.24.41,0,.69.56a3,3,0,0,1,.4.78m2.12,3.36-.72-1,.06,0,.73,1ZM502.37,4.86l0,.42h.17l-.19.36.37-.14c0,.34-.05.28-.36.28l.07.18.41-.22,0,0-.15.36c.11-.08.11-.13.25-.13s.11.13.12.25l-.4.2.51-.17.05,0-.18.32v0c.11-.09-.11-.08.14-.08h.18c0,.44-.22.09-.49.5.16,0,.46-.25.55-.25a.22.22,0,0,1,.19.07l-1.08.68,0-.06v.24l1.21-.68,0,.06c-.05.39-.48.28-.69.56.41,0,.83-.65.87-.12l-1.28.66-.08-.1.45-.41-.45.12v.54l1.46-.79c0,.47-.71.49-1,.85.31-.07,1-.56,1.12-.56s0,.14.25.25v.25l-1.72.9c0-.45.21-.25.41-.53l-.42.15-.06-.08.33-.35,0,0v.06l-.37,0,.17,2.15h.07c.05-.38.82-.64,1.11-.81s1-.67,1.25-.55c-.06.25-.45.39-.7.54-.08,0-.8.44-.79.45l.05.07,1.53-.88,0,.06c0,.46-1.11.62-1.43,1.06.45-.12,1.33-.81,1.55-.81l.13.07c-.11.39-1.07.6-1.31.93l1.46-.75,0,.06c0,.36-.48.42-.73.58s-.59.42-.88.42-.05-.18,0-.25c-.29.08-.16.19-.37.19a.79.79,0,0,1-.32-.07v-.12l.37-.19,0-.07-.59.35v.06l1.43.26-.07-.22,1.29-.73c0,.55-.91.64-1.15,1l1.23.22.14.15L503.9,14l-.06-.05,1.91-2a10.2,10.2,0,0,0-2.56-.5h-.43l.15,3.35.07,0,.49-.51.07.07-.51.55c.28.14,2.17-2.41,2.65-2.45-.32.47-2.67,2.61-2.67,2.86v.56c0,.37,1.68.48,2.11.5s.68.1,1.18.12c.32,0,.9.19,1.06.19a1,1,0,0,0,.31-.07l.06-.18L507.52,13c.56.36.46,1,.46,1.92H508V13.79h.12V14l.14,2.36v.25h.12l-.13-2.42h.13l.08,1.74h.05l-.06-1.49.54.78-.29-.05c0,.2,0,.11,0,.26V16.9l1.24.17,0-.08-.37-.64.77.79.07-.05-.79-1.17.08-.05.87,1.3.21,0a.38.38,0,0,1,.24.06l.31-.14L511.34,16l-.17.44,0-.5h.19v-.37L511.21,13l-.14-.11c-.77,0-1.55-.39-2.22-.39h-.07c-.37,0-.23,1.22-.15,1.52s.59,1,.71,1.21a2.2,2.2,0,0,1-.87-1.36l-.18-.07V13l.13.44h0l-.08-.93h0v.37h-.06v-.8l1.12.19c0-.32,1.22-.86,1.55-.94,0,.3-1.06.85-1.37.87l.3.15c.08-.26.75-.58,1.07-.58l-.89.58.33,0,0-.07.63-.35.05,0,0-1.92-.59.32-.42.28c.31,0,.65-.35.82-.35l.13.06-2.2,1.25,0,.06,2.07-1.07,0,.07c0,.33-.78.54-1,.7s-.4.23-.57.3-.22,0-.32.11-.17.21-.24.19l-.49-.07v-.55h-.07v.44H508l0-.56H508v.62c-.26-.07-.19,0-.19-.37h-.06v.31l-.31-.07.18-.18-.07-.24,1.59-.83c-.46,0-2.1,1.19-2.32.88l4.14-2.2c0,.54-1.48.86-1.78,1.27l1.78-.9.05.17,0-.7-4,2.13a9.69,9.69,0,0,1,2-1.27c.48-.23,1.58-1.09,2.06-1V8.63l.07-.8-1.29.71c.09-.44.77-.62,1.1-.84l.19.06V7.51l-.42.21-.06-.08.53-.45,0-.06-2.59,1.51.05.09L510,7.91c-.24.44-3.55,2.62-3.89,2.46l0,0,2.49-1.57,0-.06c-.4.2-2.41,1.65-2.61,1.37l.75-.54c-.35.07-.52.35-.81.35l-.13-.06a15.24,15.24,0,0,1,2.56-1.6c.87-.47,1.71-1.1,2.6-1.57-.12-.15-.37.09-.63.25s-.4.24-.65.4c-.46.28-.85.53-1.31.8a15.16,15.16,0,0,1-2.76,1.47l.32-.36-.43.14c0-.5,2.87-1.63,3-2.07-.42.22-1.24.61-1.61.87a4.43,4.43,0,0,1-1.62.86,12,12,0,0,1,2.2-1.4,23.4,23.4,0,0,1,2.28-1.27l-.24-.15c0,.31-.79.58-1,.74s-.79.43-1.13.61a12.33,12.33,0,0,1-2.25,1.23c0-.55,2.93-1.51,3.1-2-.16,0-2.38,1.22-2.51,1.34-.57.54-1.24.35-.43,0a5.08,5.08,0,0,0,1.14-.73l-1.62.87-.13-.18.28-.17-.39,0c0-.49,2.52-1.35,2.86-1.81l-3,1.58c0-.43.62-.55.89-.74s.77-.34,1-.59c-.37.09-1.79,1-2,1l-.12-.06.12-.25H504l0-.07.65-.44,0-.06a2.34,2.34,0,0,1-.63.32l-.12-.06a8.12,8.12,0,0,1,2.29-1.3V5.4c-.32,0-2,1.2-2.48,1.24,0-.39.11-.2.37-.43l-.43.18-.15-.23.23-.11c-.2,0-.13,0-.27,0L503.26,6l.18-.24h-.31l.05-.26-.3,0,.14-.19-.23,0Zm15.51,12.38,0-.06.35-.13Zm-.52-.16c-.19.21-.4.65-.75.68l.72-.71Zm.12.37c0-.62.37-1.58-.08-2.16a1.66,1.66,0,0,0-3,.05l-.13,1.12-.06-.31h-.06l0,.74-.14-.38c0,.48.24,1.15.65,1.19l-.41-.53.06-.05.21.28-.19-.37c-.09.11-.1.14-.16-.08h.12v-.31l.36.72-.06,0,.06.06h.26c-.21-.31-.37-.21-.37-.74l.17.19-.13-.76,0,.57a.64.64,0,0,1-.12-.44v-.06a1.46,1.46,0,0,1,1.3-1.49H516a1.48,1.48,0,0,1,.87.62,2.39,2.39,0,0,1,.31,1.18h.06l-.08-1h.08c0,.29.13.3.13.62v.06c0,.78-.35.89-.62,1.3l-.19-.06-.12.32.2.09.83-.44c-.08.41-.48.35-.48.65s0,.11.13.19v-.19h.18l0,.14,0-.45,1.24-.87-.05-.07-.25.15.29-.28,0-.06-.68.42c-.12.44,0,.12-.39.4m-8.94.31a21.3,21.3,0,0,1-2.82,2.1c-.45.34-2.66,1.8-2.84,2.06h.31c.15-.39,4.88-3.56,5.59-4H509c-.12.19-2.44,1.71-2.86,2A23.55,23.55,0,0,0,503.38,22c.34,0,1.22-.81,1.52-1,.51-.37,1-.66,1.5-1a22,22,0,0,1,3-2c0,.3-1.1.88-1.37,1.05-.43.27-.92.72-1.35,1s-2.74,1.95-2.81,2v.13c.31,0,1.19-.8,1.47-1,.48-.36,1-.67,1.46-1a26.2,26.2,0,0,1,2.91-2V17.9l-1-.16Zm23.72.25c-.43,0-.26.37-.62.5v.18l0,.44.08-.14a1.49,1.49,0,0,1,.14.57c0,.32-.12.42-.12.75H532c.21,0,0,.05.31.12V18Zm-1.36,1.92c-.19,0-.17-.12-.44-.12s-.08,0-.25.06a.65.65,0,0,0,.63.37.7.7,0,0,0,.74-.74v-.06a2.92,2.92,0,0,0-.06-.44l-.24.15v.23c0,.23-.22.55-.37.55m-13.28-.27-.07,0,.19,3.47v.62c.43,0,.25-.17.25-.74,0-.34,0-.79,0-1.12-.05-.69-.13-1.34-.13-2.11Zm-18.71-3.15h-.31v.12l.37-.07c0,.38-1.57,1.09-1.93,1.25-.18.08-.89.46-1.05.56-.31.2-.66.32-1,.55s-1.48.78-2.06,1.1-1.43.67-2,1.08h.31c.69-.46,1.31-.74,2.07-1.15s1.42-.71,2.06-1.11a38.79,38.79,0,0,1,4.19-2.14,39.49,39.49,0,0,1-3.85,2.23l-2,1.07c-.36.2-1.86.81-1.93,1.1l8-4.3.29,0-1.87,1.17,0,.08,2.19-1.31Zm13.24,1.72.06.21a56.53,56.53,0,0,0-5.35,3.79l.74.07a21.32,21.32,0,0,1,2.58-2A21.87,21.87,0,0,0,513,18.38c-.31,0-1.18.78-1.52,1a13.48,13.48,0,0,0-1.44,1,16.62,16.62,0,0,0-1.44,1c-.25.21-1.14,1-1.44.85.06-.09,2.39-1.8,2.64-2,.46-.27.9-.64,1.36-.94.15-.11,1.32-.89,1.36-1Zm6.08,1.06v.09l.37,0,0,.06-.66.44,1.17-.53c-.1.49-.38.27-.6.61l.8-.44h.38c-.33.28-1.36.64-1.49,1L518,20.5v.24L520,19.51Zm12.18,1.21v.08l-.62-.16Zm-.63-.2-.13.19-.24-.07c.15.23,1,.26,1.3.26l-.25-.09.62,0-.19.09c.52,0,1.58.34,2.13.4a20.82,20.82,0,0,1,2.06.42c.74.14,1.46.14,2.18.3a17.35,17.35,0,0,0,2.08.34c1.3.15,2.86.6,4.17.74.79.09,1.42.3,2.11.38a17,17,0,0,0,2,.37l-.62-.19.13-.1-8.32-1.52,0,.08-.17-.14-7-1.18,0,.09.15.09-.57-.06v-.05l.32-.07Zm-41-.42.47-.24c.71-.41,1.38-.83,2.09-1.21s1.41-.75,2.15-1.14a17.35,17.35,0,0,0,2.08-1.14l.25.07-.51.41.88-.43.25.08-.86.56.05.06,1.12-.63.19.07,0,.06-7.64,4.13-.11-.13c.75-.48,1.87-1.08,2.16-1.23s2.82-1.49,2.94-1.66l-5.18,2.8Zm29.4,1.3c.05-.53,2.1-1.15,2.24-1.68h-.31l.06.19c-.52.14-1.63,1.16-2.11,1.18l.05.56a16.21,16.21,0,0,1,2.68-1.62v-.19Zm-7.39-3.11c.1.24-1,.87-1.27,1-.56.29-.89.68-1.43,1-.37.21-2.68,2-2.82,2s1.05-.95,1.19-1.06c.39-.34,1-.66,1.42-1s2.72-1.8,2.79-2h-.31c0,.38-2.37,1.62-2.77,2.07,0,0-1.35,1-1.41,1-.46.26-1.09.92-1.47,1,.1-.39,2.33-1.66,2.67-2.12l-3,2.08,0,0,1.74.14a21.31,21.31,0,0,1,2.59-2c.28-.2,2.7-1.89,2.82-1.9l-.17-.15,0,.08-5.65,4,0-.06a18.34,18.34,0,0,1,2.64-2,20,20,0,0,1,2.76-1.89v-.13Zm32.33,3.51.06,0,.45.66Zm-2.21-2.93,0,0v-.18c0-.23-.1-.16-.25-.13V18.2l.28-.14,0-.06.18.14,1.34-1,.06.08L541,18.26l0-.06v.31c0,.21,1.82,2,1.9,2.44Zm-1.3-5c0,.32-.58.51-.82.67s-.58.5-.92.51a5.47,5.47,0,0,1,1.74-1.18m-2.81-.07-.09-.12.59-.24ZM537,13l-.38.24-.05-.07Zm-1,.73-.07-.08.3-.33-.31.08,0-.07.37-.31,0,.06-.08.24.28,0Zm1.28.65c0,.31-.63.6-.62.62l0,.07.76-.51.08.25-1.42.85L536,15.6l.54-.45-.54.23c.07-.42.87-.8,1.22-1m1.43,5-.07-.05,1.29-.75ZM537,20.71l1.64-1.22h.24Zm-.08-.16-.07-.05,1.51-.93ZM536.43,13c.05-.24,0-.31-.38-.31-.08,0-.09.07-.12.12h.19c0,.37-.14.22-.32.31,0,.41-.06.75.13.81l0-.05.57-.35-.43.51-.17,0v.49l.26-.16-.2,0v-.18l.74-.44,0,0-.55.57.73-.41.07.1-.84.64-.26-.06,0,.31c.27-.17,1-.81,1.2-.69-.07.25-1,.83-1.18.75l.05.87,1.61-1c0,.35-1.22,1.19-1.6,1.2v.19l1.78-1.1c-.09.45-1.25.87-1.53,1.29l.18.07c0-.36.51-.47.74-.64a4.67,4.67,0,0,1,.82-.49c-.11.41-1.28.86-1.37,1.18.47,0,1.18-1.07,1.62-.87l-1.16.85,0,.08c.39,0,.85-.71,1.3-.74,0,.39-.67.54-.87.8l.31.08-.07-.2.84-.49.05.06-.06.25h.17l-.32.42,0,0v.12l.54-.34.1.27-.28.09L539,17v-.2h.13c-.09.42,0,.12.29.32a1.91,1.91,0,0,1,.31.38c.17.19.55.57.58.85l-.43.21c.09-.16.24-.24.24-.4a7.64,7.64,0,0,0-.6-.76,5.84,5.84,0,0,0-1.09-.22,9.65,9.65,0,0,1-2.16-.51l-.24.15.15,4.08.69-.35,0,.06-.59.39.68-.32,0,.05-.47.33a18.73,18.73,0,0,0,3.68.77h.07c.26,0,.14-.33.1-.6s0-.54,0-.82a13.91,13.91,0,0,1-.12-1.5v-.25l-1.34.85-.06-.1,1.51-1,.21.34.2,1.74h0l-.14-1.74h.09l.08.57h0v-.31c.37,0,.94,1,1.22,1.26a13.4,13.4,0,0,1,1.07,1.35l0,0-2-2.35.13,1.06,0,1.62.15.17,2.41.38-.16-.2,0-.1h.19l-1-1.21c.2,0,1,.91,1.13,1.11.42.57.61.67,1.45.6V21.8l-.27-5.34-.11-.12-.67.06-.18.13a4.77,4.77,0,0,0-1.81.61c.12-.45,3.09-1.84,3.23-2.24a13,13,0,0,0-2.34,1.39,4.53,4.53,0,0,1-.64.3c-.32.19,0,.11-.4.4s-1.28.25-1.28.58v.19l.74-.39a1.56,1.56,0,0,1-.8.58c-.11,0-.12-.15-.19-.25V18h-.25c-.18,0-.71-.66-.8-.81l.15-.3,3.83-2.42c-.65,0-3.49,2.38-4.17,2.54v-.25l3.7-2.37,0-.06c-.26,0-.76.49-1,.64s-.76.37-1,.59-.61.43-.94.68-.74.61-.91.39l2.1-1.49-.06-.08-2.18,1.51-.09-.1.29-.33-.42.15c0-.47,2.65-1.77,3-2.2-.47,0-2.77,1.92-3,1.92l-.13-.06.88-.68-.06-.08-.92.61c0-.48.11-.17.35-.53l-.59.3c0-.48,2.17-1.43,2.27-1.79-.25,0-.88.56-1.15.71s-.74.48-1.09.71h-.24l1.09-.81,0-.07-1.13.75,0-.05c.09-.32,1.41-1.08,1.74-1.31H540l-.76.6,0,0,1-.61-.35-.19-.73-.1c0,.3-.47.45-.73.64a2.84,2.84,0,0,1-.82.48c0-.26,1.21-1,1.43-1.05v-.13l-1.58,1,0-.06c0-.32.95-.73,1.24-1-.54,0-1.08.93-1.49.75.07-.24.87-.69,1.12-.75-.28-.38-1,.81-1.3.44l.88-.6-.26-.1a1,1,0,0,1-.75.51v-.12l.65-.34L537,13l-.37-.12,0,.06ZM501.14,16.8a2.24,2.24,0,0,1-1,.75,5.49,5.49,0,0,0-1.1.71c.5,0,2.28-1.61,2.55-1.24l-7.35,4.32.58,0-.12-.07v-.11c.18-.05,1.63-.89,1.88-1.05A21,21,0,0,1,498.39,19c.77-.38,3.05-2,3.75-2L495,21.33l.48.12-.18-.1a35,35,0,0,1,4.47-2.6c.06-.23,1.08-.72,1.35-.88a13.15,13.15,0,0,1,1.32-.85h.06c.18,0,.11,0,.19.12l-2.21,1.32c.51-.08,2.22-1.38,2.52-1.38l.12.06-.75.56.06.07c.21-.18,1-.73,1.19-.51l-6.91,4.28H497c.08-.3,6.12-3.74,6.9-4.42Zm13.93,5.08.55-.39.06.05Zm2.07-1.4a8.76,8.76,0,0,0-2.27,1.44l.21.1,1.8-1.05-1.22.49Zm-.16.82c-.15.23-1.3,1-1.55.87l0-.06Zm.26-.24-2,1,0,.16.42.28a4.7,4.7,0,0,1,1.7-1.15v-.12l-.39.1Zm13.16-.15.07.2-.76.37.14.19h-.06l0,.49A6.87,6.87,0,0,1,532,21.3l-1.83.86,0,.1,2.23-1L530.9,21c.2.23-.07.26-.39.39s-.49.28-.67.2l0-.06.94-.48,0-.08Zm-.87,3.56a6,6,0,0,0,.06-2.67l-.33.22ZM507.36,22.6l-5.87,4.56a51.82,51.82,0,0,0,6.42-4.48Zm2.85.25a1,1,0,0,0-.31-.06h-.25c-.11,0-.93.95-1.49,1l-.11-.8-.41.21.18,1c-.21.06-1.15.66-1.15.88v.31l1.22-.79,0,.41c0,.11,0,.19.12.19a.84.84,0,0,0,.31-.12l-.08-.56,0-.13a8.11,8.11,0,0,1,1.55-1.18l.18.75c.14,0,.27-.07.26-.25Zm23.67-1.3a8.77,8.77,0,0,1-1.91,1,19.83,19.83,0,0,1-2,.91c.11-.43,1.53-.69,1.8-1l-1.84.8,0-.06a10.45,10.45,0,0,1,3.61-1.61l-.25.19H533l-1.21.64,0,.09Zm-1.36-.27c-.11.4-1.55.65-1.81,1l2-.86H533l-3,1.48c-.14-.29.18-.26.44-.48-.26.07-.11.12-.31.12h-.25V24c0,.39,1.1-.25,1.3-.37.43-.24.92-.44,1.38-.67s2.6-1.09,2.79-1.26l-.31,0c-.2.11-5,2.28-5,2.28.43-.65,4.66-2.09,4.78-2.42-.71,0-.17,0-.58.23-.16.09-.41.13-.63.24-.39.18-.83.44-1.16.58-.59.25-1.94,1-2.41,1.12a16.75,16.75,0,0,1,4.28-2.11v-.13Zm-4.79,2.5c0-.15-.79-.93-1-.93a20.36,20.36,0,0,1-2.3,1v-.13l1.32-.64,0-.08-1.61.81,0,.06.87.05c.1-.21.48-.38.84-.53.18-.08.88-.48,1-.48l.12.07-1.75,1,.39,0a3.42,3.42,0,0,1,1.55-.81,2.61,2.61,0,0,1-1.31.75V24h.31a2.07,2.07,0,0,1,1.25-.62l-1,.6,0,.07,1.09-.51,0,.09L527,24ZM518.91,26c.85-.57.54-2.11-.06-2.11-.1,0-.19.2-.19.31s.23.5.31.25a.35.35,0,0,1,.19.37V25a1.17,1.17,0,0,1-.19.62l-.18,0,0,.07.08,0a.37.37,0,0,1-.38.19.78.78,0,0,1-.31-.07l.15.24.29-.1Zm-.1-1.81,0-.06.11.33Zm19.6-1.85c-.08.33-1,.47-1.35.62l-1.32.62A18.19,18.19,0,0,1,533,24.65l0-.06,4.88-2.15,0-.09-5.27,2.3,0,.07c.2,0,.22.06.44.06h.31s1.1-.56,1.35-.63a13.84,13.84,0,0,0,1.38-.61c.63-.32,2.37-.89,2.79-1.17ZM515.8,24.78a2.81,2.81,0,0,1,.19-.87l.25-.08c.16,0,.06,0,.25,0l.25.54-.06,0,.18-.07a2.92,2.92,0,0,1,.06.44v.06c0,.52-.16,1-.68,1-.13,0-.08,0-.25-.06a6.6,6.6,0,0,1-.19-.93m.31,1.24c-.16,0-.18-.09-.24-.19l.55.08a.33.33,0,0,1-.31.11m1.06-1.43c0-.31-.47-1.18-.68-1.18a.84.84,0,0,0-.87.81l.21-.33-.14,1.69.2.24-.26-.18c0,.36.3.51.67.51.54,0,.87-.63.87-1.19Zm11.93-1.74c-.05.29-.72.64-.81.31Zm-1.4.34,0,0,.21.34Zm.93.64-.07-.12.58-.23Zm.12.18c0-.27.12-.28.43-.24Zm.41-1.28a1,1,0,0,0-.06-.31l-.69.3.05.08.56-.28c0,.37-.6.51-.92.58l.25-.31-.49.08.36-.34,0-.06-.45.21.12.23-.05.06-.55-.57.51.74-.06.05-.49-.57-.05,0,.82,1,.07-.05-.08-.13c.08,0,.38.28.38.37s0,.08-.06.24l.41.29,0-.05-.92-1.4.08-.05,1,1.38.16,0-.22-.14.4-.18v-.67l-.72.35,0-.17.66-.29Zm12.68,2.33,0-.09,2.14-.52Zm-.31-.13c.26-.22,2.18-.88,2.35-.65Zm3.84-1.39A37.08,37.08,0,0,1,540.21,25Zm-6.28,1.64c.1-.33.47-.1.69-.4l-.63.09-.06,0,.92-.31,0,.09-.28.13.44,0-.57.2Zm-1-.13,0-.09.85-.19Zm-1.11,0,0-.1,1.22-.38Zm.06-.25,0-.09,2.78-1Zm4.33-2a5.82,5.82,0,0,1-1.12.43,9.8,9.8,0,0,0-1.05.44c-.27.12-2,.8-2.17.81a20.84,20.84,0,0,1,4.34-1.68m-5.64,2,0-.09.78-.2Zm.91.08-.06,0,.27,0Zm1.69.19h0Zm.62-2.73-.06.21a45.29,45.29,0,0,0-5.22,2.17,20.41,20.41,0,0,0,2.88-1.16,12.11,12.11,0,0,1,2.9-1.08l-1,.45,0,.08,1.41-.5v.16a13.76,13.76,0,0,0-2.4.89,14.6,14.6,0,0,1-2.32,1l0-.07,3.28-1.44a10,10,0,0,0-2.18.84c-.37.12-1.92.67-2,1h.5a1.3,1.3,0,0,0,.37-.06l.37.15v-.15h.25l-.07.18h.19A.22.22,0,0,0,536,25c.07.1,0,.13.19.13s.09-.13.31-.13.09.07.12.13l.25-.07v.13l.44,0v.11h.18c.2,0,0-.05.31-.12l0,.12.34.08v-.14h.12l.06.19,1.49.06h-.18c.07.09,0,.11.18.11a1.14,1.14,0,0,0,.44-.12l0,.12a6,6,0,0,0,2-.43,3.26,3.26,0,0,0,.89-.16c.45-.1.61,0,.54-.34l.55-.07-.25.1,3.42-.6v-.11l-3.16.65,0-.08,2.64-.63,0-.07h-.24l-.18.14-2.55.52,2.35-.72-.18-.13-2.23.67,0-.1,1.82-.5v-.12c-.38,0-.47-.13-.81-.13a3.31,3.31,0,0,1-1.18.37l-.86.29-2.6.76,0-.12,1.33-.41.24,0,.18-.13,2.69-.74,0-.09L540,24.61l0-.1,4-1.18v-.1l-2.59.71-1.83.61-.23,0c.33-.46,3.95-1.14,4.16-1.43l-.31-.06-.06.19c-1.4,0-4.12,1.35-5.53,1.67l0-.07L542,23.32l0-.1-3.88,1.33,0-.09,4.16-1.5,0,.08c-.19-.27-2,.62-2.54.62l2-.79-.79-.14-4.52,1.82,0-.08,3.27-1.39,0-.09-4.5,1.87a44.76,44.76,0,0,1,5-2.19h.25v.12l-.64.21,0,.08,1-.36c-.43-.06-.17-.14-.46-.13Zm-21,2.38a.25.25,0,0,0,.24-.19c0-.2-.28-.07-.43-.06v.25Zm13.29.62c0-.46-.53-.84-.93-.93l-.55.56-.42-.29-.06.06.34.6c0,.54.24,1.12.75,1.12s.87-.5.87-1.12m-1.86-.19c-.16-.22-.5-.7-.86-.67a.79.79,0,0,0-.76.8v.56a1.13,1.13,0,0,0,.56.8l.5,0c.56-.81.56-.17.56-1.53m-18.84.57s.05,0,.06,0,.06,0,.08,0,0,.05.11-.08l.18-.18c.2-.21.25-.17.48-.33l.94-.61c.56-.38,1.43-.82,1.9-1.23l0,.06-3.72,2.5Zm3-1.55.08-.08,0,.06-.06.08Zm1.08-.67.21-.24,0,.05Zm-1.28-.3-2.22,1.57,0-.06Zm-.29,0L504.43,29l-.06-.07a6.11,6.11,0,0,1,.53-.35c.17-.12.36-.23.51-.35a12.05,12.05,0,0,1,1.08-.73c.7-.41,1.49-.95,2.18-1.42.53-.35,4.07-2.71,4.4-2.74m-9.48,5.88,9.1-6,0,.07Zm7.24-5-.06-.06.92-.58,0,.06Zm-2.75,1.41-.71.55,0-.06Zm-.79.52-.27.29,0-.06Zm-.36.3-.9.55.84-.61Zm-2,1.05-.05,0,1.29-.83,0,.06ZM506,24.5l-.71.55,0-.05Zm-3.1,2.05.19-.12ZM497,30.47l-.34.3,0-.06Zm.72,2.1,2-1.34,0,.06Zm5-3-1.28.91,0-.06ZM514,23.22l-6.65,4.38-.05-.07Zm-3.44,2.61-.43.38a11.27,11.27,0,0,0,1.76-.91,12.84,12.84,0,0,1,1.73-1l-.25.25,1.83-1.14,0-.07-1-.11,0,.06,0-.13h-.31l-.28.13,0-.13-.25.13s0-.19-.18-.19,0,0-.22.06l0-.12h-.18l-.78.54-.05-.07.6-.44,0-.07-4.11,2.58V25.5l-1.91,1.14,0-.09.22-.1-.13-2.17-.05-.06-2.94,2.11,2-1.35.06.09-2.17,1.39,0-.14-.31.26c.26.08-.42.35-.62.5s-.53.35-.82.54c-.57.39-1.12.71-1.7,1.1s-1.06.68-1.68,1.05c-.34.2-1.62.81-1.7,1.1l.38-.11-.42.35.23,2.11a4.08,4.08,0,0,0,1.42-.62,5.55,5.55,0,0,0,1.37-.87,3.47,3.47,0,0,0,1.74-.87l0-.06.46-.34,0,.05-.39.35c.46-.12,1-.67,1.52-.84.19-.06,1.43-.68,1.58-.78a3.71,3.71,0,0,1,.74-.44,7.3,7.3,0,0,0,.82-.36,10.08,10.08,0,0,1,1.57-.85l-.26.23a9.54,9.54,0,0,0,.88-.48,6.69,6.69,0,0,1,.93-.44,11.59,11.59,0,0,1,1.66-1.07m-15.87.84c0-.35-.13-.71.1-.77,0,.18.06.56.13,1Zm-.26-.31,0-.34h.15l.06.54Zm5.09,1.86,0-.06.35-.12Zm.48-.34h0m-1.22.59.81-.5Zm-1.94.66L498.75,28l-1.91,1.2Zm-.73-1-.06-.1.57-.2Zm.85,1.1L499,28.11l-2,1.25Zm.15.17,1.61-.91-1.55,1Zm-.75.59,0-.16.14-.08h.26Zm2-1.08.13-.12.06.05Zm-1.16.63,1.14-.67.05.08-1.1.7Zm-1.14-1.9.15.18-.27.1v.17l-.32-.36-.29-2.19h-.08l.26,2.05L495,27c0-.16,0-.32-.05-.46,0-.46-.25-.79.06-.87L495,26l0-.44-1,.54-.16-.18.57-.31c.24-.14.42-.22.63-.37.4-.29.34-.16.41.3s.24,1.35.28,1.83v.07l4,.11h.68a56.92,56.92,0,0,0,6.4-5c-2.63,0-5.24-.36-7.51-.43-1.26,0-2.57-.2-3.86-.25-1.11,0-2.45-.31-3.66-.31-.59,0-1.18-.05-1.77-.1l-.37-.42.41,0v-.09L495,18.31l0-.09-5.23,2.72,0,0A33.16,33.16,0,0,1,493,19c.48-.3,3.26-1.71,3.39-1.89-.46.11-3,1.54-3.65,1.87-.39.21-2.39,1.23-3.18,1.76l-.14-.16a14.86,14.86,0,0,1,1.51-.79c.69-.35,1.43-.75,2.08-1.15.34-.21,4.17-2.27,4.19-2.27h.31l-.2.23.74-.22.05.11-3.1,1.7a13.93,13.93,0,0,0,3.13-1.7l.32-.07-3.67-.52c-.08.33-2.18,1.39-2.18,1.4l.05.07c.18-.13,2.43-1.32,2.5-1.32l.19.07-6.62,3.65-1.79-2.06L489.28,15c1.42.2,5,.56,5.65.64,1,.12,2,.31,3.05.43s2.14.21,3,.39,2.11.21,3.09.4c.8.15,2.24.33,3,.39s2.16.31,3,.48a22.7,22.7,0,0,0,3,.39l.18.14a12.74,12.74,0,0,1,2.07.29l2,.34c.69.12,1.45.12,2.12.25a10,10,0,0,0,2.13.23c-.26-.36-4.13-.75-5-.9s-1.73-.24-2.57-.41a22,22,0,0,0-2.49-.43c-1.38-.05-3.71-.57-5-.76-.68-.11-1.87-.29-2.57-.32-.26,0-2.35-.15-2.35-.48s.13-.09.13-.31v-.56l-.48-3.9c-.23-.41-1.28-.51-2-.51l-.1.38.12,2.85.46.66c-.59-.34-.66-.51-.66-1.4h-.07l0,.63H499l-.07-2.23H499L499,13.1s.12,0,.12-.12L499,10.43h0v1.12h-.07l-.06-.57v-.68l1.67.25c.08-.27.35-.37.62-.44,0,.29-.22.35-.49.37l.3.15.31-.34-.07-.36c-.05,0-1,.49-1,.49s-.11,0-.19-.12l1.22-.55,0,.05V7.76c-.34.36-1.95.78-2,1.18l2-1,0,0-.08.25-1.82.86,0,.07c.3,0,1.58-.81,1.74-.81l.12.07a2.7,2.7,0,0,1-1,.64c-.28.11-.38.2-.58.29s-.37-.07-.37.43a3.62,3.62,0,0,1,.89-.6,6.92,6.92,0,0,1,1-.45c.08,0,.09.07.12.12-.27.37-1.66.66-1.8,1.06l1.78-.87,0,.06c-.08.33-.61.41-.94.61l-1,.51c-.21,0-.18-.11-.19-.31l-.15.26-.1-.58-.06.5-.37,0,.22.24.15,0v.94l.12,2.3h-.12v-.25l-.24.07L495,9.73l.05-.06,1.24.15c.17-.33,1.07-.72,1.55-.94.31-.15.58-.27.87-.43s.29-.15.45-.24a3.39,3.39,0,0,0,.42-.2l0-.07c-.12.08-1.71.84-1.81.88-.36.11-1.43.87-1.81.87-.17,0-.11,0-.18-.13l2.18-1.09-.06-.1-2.47,1.3c.08-.43,2.48-1.32,2.77-1.72l-1.17.58a25.61,25.61,0,0,1,4.4-2.44c-.07.26-1.2.73-1.53,1-.13.09-1.65.84-1.64.85l0,.07,3-1.55c0,.38-.44.43-.7.56s-.51.3-.81.44a9.23,9.23,0,0,0-1.63.85l3.08-1.47c0,.51-.79.51-1,.85l1-.42c-.12.56-4.3,2.1-4.7,2.65h.24a30.67,30.67,0,0,1,3-1.57c.24-.1.55-.31.77-.41l.7-.31a9.94,9.94,0,0,0,.24-2l-.62.27.63-.56-.05-.08-1.68,1-.05-.09,1.72-1-3,1.66,1.31-.61.05.11-2.52,1.41,0,.08,1.17-.61.06.1-3.92,2.17,0,0c0-.46,2-1.05,2.36-1.5-.39.11-2.39,1.25-2.42,1.25h-.06l.34-.39c.92-.56,2.88-1.4,3.07-1.66A32.12,32.12,0,0,0,495,8.47l.31-.35,5.22-2.78,0-.06a12.73,12.73,0,0,0-1.64.84,5.38,5.38,0,0,1-.84.4,7.55,7.55,0,0,0-.76.43l-1.7.87.43-.49c.74-.37,1.45-.71,1.72-.87.73-.43,3.38-1.61,3.72-2.11-.14,0-3.21,1.85-3.8,2a11.4,11.4,0,0,0-1.44.71l.32-.36.81-.41a29,29,0,0,0,3.55-2h.31l-.3-.15c-.08.3-3.15,1.78-3.65,2l-.52.27.37-.42,3.68-1.9-.38-.09c0,.32-.57.45-.81.57s-.57.32-.87.49c-.46.27-.94.47-1.43.7l.14-.16h-.29l3.16-1.61L499.91,4c0,.34-1.33.8-1.64,1a13.78,13.78,0,0,1-1.39.74h-.51l3-1.52,0-.07c-1,.54-2.23,1-3.22,1.59h-.44l3.58-1.81c-.05-.06,0-.09-.17-.09s-.13.18-.35.27a1.74,1.74,0,0,0-.41.2c-.24.14-.57.3-.83.42l-1.69.79-.41.22h-.51a27.81,27.81,0,0,0,3.89-2,8.68,8.68,0,0,0-1.65.77c-.41.25-1.29.49-1.61.74a7.64,7.64,0,0,1-.77.45h-.51a9.91,9.91,0,0,0,1.44-.78,9.47,9.47,0,0,0-1.63.78h-.48c1.65-.86,4.11-2.09,4.28-2.09H498c-.1.36-1.64.72-1.93,1.12l2.26-1.07c-.39-.06-.29-.17-.58-.17h-.19l0,0-4.34,2.16h-.53l.41-.18c.54-.25.85-.44,1.43-.69a22.13,22.13,0,0,1,2.82-1.34l-.31-.15a11.22,11.22,0,0,1-2.49,1.33c-.34.11-1.37.71-2,1h-.48L495.9,3.8l0-.07c-.64.17-3.11,1.52-4.05,2h-.41c.71-.58,4.81-2.24,5-2.52l-.31-.08c0,.37-.85.58-1.15.73s-.87.34-1.25.55l-2.39,1.22c-.12,0-.11,0-.18-.06.4-.56,4.49-2.15,4.72-2.49-.29,0-2.16,1-2.56,1.17s-2.19,1.31-2.41,1l0-.07,4.57-2.21-.32,0a18.56,18.56,0,0,1-2.28,1.14c-.35.17-.8.44-1.1.57s-.92.67-1,.28c.36-.1,1.59-.88,2.06-1.11a14.2,14.2,0,0,0,2.16-1l-.24-.07c-.18.34-1.59.83-2.14,1.11l-1.11.56c-.29.14-.87.65-1,.27l1.64-.89a13.12,13.12,0,0,0-1.76.82c-.09,0-.09-.06-.13-.12l1.94-1.09a15,15,0,0,0-2,1c-.08,0-.09-.07-.12-.13l1.1-.65,0-.09c-.32.08-1.16.79-1.37.49L492,2.77a5.78,5.78,0,0,0-1.25.53c-.25.11-.93.69-1.13.43l.93-.57-.05-.07a6.76,6.76,0,0,1-1,.51c-.09,0-.09-.07-.13-.12L492,2.13l-.28-.1c-.07.26-.86.55-1.15.74-.1.07-1.2.58-1.22.58s-.11,0-.18-.06l0-.06L491.63,2l-.43,0A6.64,6.64,0,0,1,489,3.1c0-.27.66-.52.91-.64A7,7,0,0,1,491,2V1.86c-.31,0-1.91,1-2,1h-.19l0-.26c-.25.07-.29.12-.3-.24l-.26-.08v-.1l1.28-.66c-.33,0-1.12.59-1.38.59S488,2,488,1.86l1-.46c-.18-.12,0-.1-.21-.1h-.18a.68.68,0,0,1-.69.5c-.12,0-.11,0-.18-.06a.83.83,0,0,1,.8-.37c-.06-.1-.08-.19-.24-.19h-.19c0,.33-.19.3-.43.43l-.22-.22.4-.15V1.12h-.31c0,.14,0,.18-.19.18s-.13-.05-.24-.12l-.19.07.2.16-.29.3c.22-.1.69-.31.46.15h.31l-.3.38c.26-.08.1-.13.3-.13h.25a1,1,0,0,1-.74.5v.12l.9-.43,0,.06c0,.49-.73.35-.87.74.31-.08.71-.49,1.05-.49l.13.06-.1.2,0,.06c.21-.14.26-.12.32.11-.23.06-1.07.56-1.12.56h-.19v.25l1.46-.8,0,.05c0,.28-1.11.87-1.43.87v.19c.13-.08,1.48-.81,1.56-.81l.12.06-1.5.92-.17-.12.06.32,1.77-1c0,.35-1.35,1.07-1.71,1.1v.25c.31-.21,1.65-1.15,2-1l-1,.66,1.16-.47,0,.06c-.09.36-1.66.88-1.86,1.18l-.25,0v.24c.37-.1,2-1.12,2.18-1.12h.18a7.28,7.28,0,0,1-2.3,1.24v0h-.28a7.61,7.61,0,0,1-.1-1,7.93,7.93,0,0,0-.74-2.85l0,.18-.11-.26-.16,1.14.06,0,.21,1.25h0l-.08-.62a7.37,7.37,0,0,1,.43,2.21h-.16c-.08-.68-.13-1.22-.13-1.41h-.06l.15,1.41h-.59v0c0-.18,0-.11-.12-.19l0,.07-.26.16h-.38c.3-.22.65-.34.67-.6l-.53.3-.32.3h-.05c0-.4.38-.54.65-.72L486,5l-.05-.24-.73.43-.08-.1.39-.43,0,0-.2,0a.66.66,0,0,1,.63-.51L485.87,4l-.36.23-.08-.09.46-.55-.26.12-.05,0,.27-.42a.71.71,0,0,1,0-.3l0-.5-.52.34.38-.1-.06.32-2.42,1.54.05.08,2.3-1.52c0,.45-.78.76-1.09,1s-.78.54-1.19.79c-.22.14-.71.51-1.21.85h-.51a6.59,6.59,0,0,0,1.59-1.1,15.36,15.36,0,0,0-1.71,1.1H477.3l2.81-1.94A42.1,42.1,0,0,1,485.06.93l-.4.35,1-.56-.15,0V.56c-.64,0-4.72,2.44-5.3,2.89-.35.28-.84.55-1.24.82-.2.14-1.1.72-1.21.84a6.08,6.08,0,0,1-.75.58h-1c1.47-1,3.39-2.22,3.74-2.48.84-.63,5-3.21,6.05-3.21a13.48,13.48,0,0,1,2.38.36c.36.09,2.08.45,2.34.45s8.15,1.9,9.15,2.16c1.51.39,3.11.64,4.57,1.07.66.2,1.6.37,2.26.54a16.28,16.28,0,0,0,2.29.57l.17.14,0-.07,12.29,3a25.67,25.67,0,0,1,2.8.68,6.37,6.37,0,0,0,2.91.38,11.88,11.88,0,0,1,3.17-.19c.76,0,2.55.48,2.55,1,0,.14-.05.14-.12.25l.16.81,0,0,10.12,2.34.18.13a21.54,21.54,0,0,1,2.68.61l2.54.76v.23l-2.08.65L546,16l.15.18.24,6.58a9,9,0,0,0,2.54.62c.29.2.59.15.62.59l-1.05.28a36.92,36.92,0,0,0-4.12.73c-.28.09-3.92.95-4,.95s-.86-.23-1-.25l-1.12-.12c-.64-.07-1.68-.25-2.29-.25-1.73,0-3-.31-4.67-.31,0,.88-.12,1.8-1,1.8-.55,0-.54-.53-.93-.56a1.14,1.14,0,0,1-.87.81,1.44,1.44,0,0,1-1.1-.9c-.21-.52.23-1.55-.09-1.64,0,0-1.67-.24-1.74-.25-.46-.05-1.19,0-1.71-.1-1.83-.26-1.58,0-3,.6a13,13,0,0,0-1.27.72c-.21.28-.57,1.07-1,1.07h-.06a1.24,1.24,0,0,1-1-.31,16.25,16.25,0,0,0-3.26,1c-1,.4-2.07.85-3.06,1.17-.48.16-1.05.41-1.52.59s-1.08.4-1.51.6c-.9.43-2.13.84-3.1,1.19s-2,.79-3.06,1.16-2.12.72-3.15,1.14c-.57.24-6.14,2.13-6.38,2.13a7.79,7.79,0,0,1-.31-1.67c-.22-1.07.25-.75-1.05-.75a32.88,32.88,0,0,1-4-.06,12.49,12.49,0,0,1,2.38-1.47,24.08,24.08,0,0,1,2.53-1.39v-.08h.28v0l.13,0H495l.08,0v0h.08v0a2.79,2.79,0,0,0,.43.06h.33v-.07h.24l.05.39.66-.39h.29l-.79.5,0,.08.9-.58h.17l-.06-.07,2.93-1.86-.4,0-.19,0V28l-.12-.13-.55.27.19-.26-.39.1,0-.11-.9-.08-.81,0,0,.07-.91.59-.05-.06c.14-.28.59-.37.85-.6ZM495.89,33l0,.5h-.13l-.24-2.19-.1,0,.21,2.26-.34.15-.14-1.18h-.06l.08,1.12h-.07l-.13-1.37-.26-.31v.44h-.1l-.14-.43,0,.71-.16-.15V33c-.43-.12,0-.43-.32-.81l.08,1.12h-.08l-.18-1.25c-.23.07.06,1.12.06,1.42-.28-.07-.31-1-.31-1.3h-.07l.2,2.23h-.13l-.19-1.63-.09,0,.16,1.23v.5c-.35-.09-.13-1-.4-1.36l.15,1.55,3.1-1.25-.05-.8h-.07v.68H496l0-.25-.27-1.86h-.1ZM44.23,25h0l.07.05ZM39.16,25l-.32-.21h0Zm-6.25.58,0,0,0,0m1.05,0v0m5.09.11h0Zm0,0h0m.48,0-.72-.47Zm.83,0h0l-.8-.52Zm.56,0h0l-.8-.53Zm1,0h0l-.36-.24Zm1.42-.88h0l0,.9Zm-.39.09s0,0,0,0,0,0,0,0m0-.06a.14.14,0,0,1,0,.06.14.14,0,0,0,0-.06m-.66-.05h0l.69.44Zm-1.54.21-.41-.27h0Zm.85,0h0m4.08.7h0L44.32,25Zm.92-.12h1.31v.15H46.72Zm-.57.12-.18-.12Zm-.18-.12h.46l.18.13-.18-.13ZM47.52,25c.83.89,3-.33,3.91.38v.17l-5.1,0L45.58,25Zm8.6.22H54.71v0Zm-.62.55-.09-.24.22.29v0Zm-1.24.48-.15,1.14ZM47.33,27l0,0,0,0m.47.31Zm1.25.81h0Zm1.84-.68h0Zm.91,0h0l-.09-.19-.18.21h-.34v0c-.23-.25-.44-.77-.69-.77h-1l.37.67,0,.18h-.4l-.64-.85H47.77l-.41-.3h3.37c.39,0,.3.62.7.62.18,0,.32-.57.39-.78l1.6,0v.15l.1-.15-.13-.33.23-.29H54c-.09.49-.21,1.13-.26,1.58-.38-.24-.28-.82-.92-.82h-.5c-.38,0,0-.05-.3.15a3.85,3.85,0,0,0,.34.94Zm1,.43Zm2-1.29,0,.33Zm16.09,3.2a.5.5,0,0,1,.17.12l-.89-.12ZM20.1,28.65v0h-.26L16.52,29v0h-.23l-.42,0-.25.27h6.17v-.15H16.72V29l.69,0,8.65,0c-.53-.72.12-.63-1-.62-.56,0-1.13,0-1.69,0Zm8.75,0c.34,0,.38.12.71.27l-.63.22.62.13.14,1.11c-.53-.1-.15-.33-.54-.33h-.6c-.28,0-.18.05-.3.31L29,30.2v.33H23.58l.89-.22,2.79.07.89-.17L27.94,30l.81-.05v-.15H26.36v-.31h.3v-.31H28V29H26.16v-.15l1.29-.19Zm.09.43V29h-.9v.31Zm27,3.11v0m4.81-.55,1.75,0V32l-1.23,0-.51-.28m-10.84-.33h0l-.06,0Zm-5.32-2.89h0Zm.2.24-.16-.1Zm.69.13h0l-.18-.11Zm0,0h0l-.38-.25Zm-2.38-1.57-.06,0Zm-1-.65-.13-.09Zm-.13-.09h0Zm-1,2.95h-.16a.23.23,0,0,1-.25-.17l.41.17m6.17.33h0l-.27-.17Zm-4.44.39h-.49l.34.42-1.14.11.62-.37-.52.06v-.31h.93l.26.1m4.88.15Zm-3.88.21-1,0v-.11h.61Zm4.45,0Zm0,0Zm.24.21-.23-.21Zm.17,0h0l-.29-.21Zm5.42.6h0v0Zm5.75-.23c1.33,0,3,0,3.27.52l-2.68-.2-.3-.16-.29-.16M57.86,30l.49.09c.7.21,1.23-.24,2.09,0s3.84-.15,4,.87a21.29,21.29,0,0,0-4-.61,9.86,9.86,0,0,0-1.89,0c-.26-.15-.51-.29-.72-.39m-6.36-.32-.23-.14.23.14m-4.64,2-10.55-.22c.86-.86,6.53-.14,9.79-.07l.76.29m1.29.46L44.76,32c.12-.17,0-.24.3-.24h.2l2,.11.16.06.72.25m1.34-.71.35.15-.35-.15M35.92,27.53a8.42,8.42,0,0,1,.09,1V29c0,.45,0,.29-.2.47a18.33,18.33,0,0,0,0-2Zm.28.11a6,6,0,0,1,.11,1.19V29c0,.45,0,.29-.2.47V27.6Zm2.49.93v.1H38.6v-.14Zm-.69.72h.3L38.08,29l.81-.05,0-.35.9.36.46.18h0l.13,0-.2.5-1.26.11c.12.17,0,.24.3.24h1.89v.31L38.5,30.2l.39-.15-.39-.2.48-.31v-.4h-.3l.22.27H37.6l.41.46-.51,0v.16h.8l-.32.24,3.2.22v.16H39.59v.15l3.18.06,2,0,.52.2-2.21,0-.89,0L38.8,31l.3-.4-.6,0V31l-8.65.6-.06-.14v.31l-5.32.07-2.68,0v.26h2v.16h-.6v.15h.6v.16l-5.47-.5-2.29.2h-.3l-.5,0-4.67,0v-.31h2.29c.78,0,1.7.2,1.89-.31H28.25v-.16h-.69v-.15l7-.12V31L20.59,31l-.69-.14H18.5v-.15h4.08v-.16l-8.35,0-.4,0c-.28,0-.18-.05-.3-.31l7.76.11.6.05L23,30.29l.05.4,4.72,0,.6.06.38.27L28.8,31h1.34c-.12-.71-.3-.39-.3-.93v-.78h-.2l.47-.55,0,.55h-.2v.78l.35-1.37.35.1-.08-1.38h-.12v.31H29l-2.69-.08.41-.3-.24,0,.57-.2,4.83.05v.25H31l.39.18L31.2,28c.32-.05.21-.1.43-.1s.14.51.1.77l.4-.06.27-1,.15.83.12-.52.06,1.72c.12.1.39.57.39-.15,0-.29-.16-.2-.29-.31V27l.29.18V29a1,1,0,0,0,.2-.77L33.21,27l-.3-.26.51-.05c0,.44,0,.62.3.62s.07-.31.4-.31a2.29,2.29,0,0,1,.66.53,8.09,8.09,0,0,1,.14,1V29.6l-.5,0V29l.28.34,0-.8-.58-.39,0,1,.15-.64,0,1.41c.31,0,.69.42.69-.31V28.21h.2L35,28a2.56,2.56,0,0,1,.18-.79l.41.16v.19h-.4l.2.62h-.2V29.6h.1V28.52h.1v.77h.1V27.74c.16.18.2,0,.2.47V29.6h.9V29l-.17.34,0-1.6.06,0a13.31,13.31,0,0,1,.34,1.39v.62h.79l-.39-.48v.32H37a2.88,2.88,0,0,0,.1-.77v-.62a.62.62,0,0,1-.37-.36l.47.18v1.11h.1v-.93h.1l.1,1.11.1,0V28.21l.4.15Zm5.52-1.57.14.09ZM30.64,28.91v1.16l.21-1H31L30.82,28l0,.88Zm8.86,0,.2.48-.22.1.51-.39Zm-3.94.53c-.09.37.15,0,0-.19s0,.15,0,.16v0M32,29.06l-.46-.37a2.75,2.75,0,0,1,.1.76v.46h.3L32,30l-.57.8,4.38-.19v.2l-1,.19,3.4-.24v-.1H36.51v-.16l1.1-.12v-.18l-.79,0c0-.05-.2.11-.2.11l-.07-.48-.73-.06-.06.13.17.4-3.69.15.12-.57-.28.47L32,29.75h.18l0-.64.2.82V28.58Zm2.33,1c.18-.28-.18.27,0,0m3.28.35h0Zm19.74,2.63h1.94v.27l-2,0c0-.09,0-.16,0-.22M25,33.61l1-.13v-.16l-2.58-.2v.19l1.4.23v.09h-.5l.59.38v.09H23.68l.51-.38c-.52-.09-.49-.26-.91-.24L17,33.81c.43-.6,1.73-.33,2.49-.33v-.16H16.42v-.16c.68,0,3.83.26,4.17-.47l-2.48.06-.9-.06c-.22,0-.22.12-.4.31l-.14-.36-.06.36-.27-.35,0,.35-.2-.31-.8,0v.19H16V33H12.74v-.15h1.49V32.7H12.14v.16h.5l-.22.27,2.31,0v.15h-.9v.47l-.38-.51.19.5h-1.5l.09-.47H7.46v-.46H9.25V32.7c-.55,0-1.44.21-1.69-.31l11.54,0,.5,0,6.66.38v-.22H24.18v-.31l7.06.18v-.18h-1.4v-.16h1.79l.12.46h2.07l1.29.19v.12c-1.73,0-7.09-.62-7.66,0L42.08,33l.1-.13,2,.07L48,32.86V33h2.51l.12,0c.15.06.64.24,1.29.46l.05.25H50.53l.41-.24L47.45,33l-.7.06c-.22,0-.22.13-.4.31l-1.88-.19-3,.08-.6,0-7.56.14L32,33.26l-3-.25H26.46v-.12L21,32.72v.14l5.67.31v.31H26l.3.37ZM6.1,33.79h.17v-.47h.4v-.46H6.12Zm58.27,0v-.19h.29l2,0,.3,0c.64,0,.76.31,1.39.31H69v-.17l4.07.73v.37l-3.48-.67.82.55-2.4-.6,0,.23,1.11.51Zm3.57.43c.17.28-.18-.27,0,0m-.9,1.4s-1.26-.53-1.4-.6a9.36,9.36,0,0,0-1.56-.37A15.25,15.25,0,0,0,61,34.1l2.91,1-5.38-1v0h1.79L60,33.69l2.82.45c.68.09,1.42-.4,2.31.24a7.47,7.47,0,0,0,2,1h.3v.31Zm-3.16-1.38L63.27,34ZM49.14,36.73c-.51-.68-.93-.17-1-1.08l1.59.36v.26h-.4l1.21.66,0,.17-1.28-.4,0,.18,1.31.53v.25l-2.37-.89-1.33-.56.52-.1-.79-.36v-.26l1.51.53-.51.09Zm.09-.41-.9-.26Zm.59-.13.81-.08-.69-.37v-.25a19.52,19.52,0,0,0,5.37.77c.81,0,2,.47,2.89.48.56,0,2.56-.12,2.68.61l-4.27-.47-.05.32-2.14-.49,0,.16.61.24c-.11.18,0,.24-.29.24-.68,0-2.71-1.24-4.08-1.24l2.08,1v.29l-.51-.21Zm4.58.62,0-.2L53,36.37ZM41.61,13.17c.26-.07.41-.46.52-.73s.53-.64.16-.64h-.06c-.42,0-.37.49-.37.93H41.8V12c-.14,0-.19,0-.19.18ZM23.7,15.71l-1.83-.83,0,.06,1.92,1.13,0-.06-.14-.21.19-.17-1.53-.75Zm-5,9.88c0,.25.64.68.68.68.23,0,.25-.34.25-.56-.19,0-.31-.12-.31-.31s.13-.1.13-.31v-.25h-.19c-.23,0-.56.52-.56.75m2.8-.56-.06-.16-.07,0c-.17,0-.1-.06-.25-.06-.34,0-.56.51-.56.87v.06a.39.39,0,0,0,.38.44,3.24,3.24,0,0,1,.31-.13l-.2.24.05.05.39-.36.06,0-.34.48a.82.82,0,0,0,.53-.77v-.56c0-.17,0-.11-.13-.22Zm.08,0a1.09,1.09,0,0,1,.1.49.61.61,0,0,1-.19.5ZM62,.6l0-.07-.22.24Zm-2.33.45c.43-.06,1-.29,1.53-.4.32-.07,1.38-.34,1.52-.34s.15.13.19.19l-.44.17-2.72.61-.19.1L49,3.75l0-.07.56-.16-.17,0,1-.24c.19-.13,5.48-1.31,6.19-1.45,1-.21,2.23-.62,3.12-.73m-10.5,2.4-.6.24.24.07-.31.09,0-.12-.34.06.14.11-.63.16.13-.13-.2,0V4.1l-.74.15-.18.1L42.11,5.43V5.28l-.26-.06ZM47.39,5.34c.07-.11.13-.25.31-.25s.06,1.14.06,1.43H47.7V5.9h-.08l-.31,7.76,0,.37c0,.14,0,.14.12.25V15h.07l.14-1.8h0l-.09,2.68-.28-.07c-.07.1-.09.19-.25.19H47c-.15,0-.19,0-.19-.19V13.66c0-1,.19-2.83.18-4.16s.38-2.82.38-4.16M64.52,1,64.14.77ZM63,2.92a11.73,11.73,0,0,0-.46,2.77h.1ZM51.1,9.29l0-.07,1.4.62c-.06.25-.49.22-.86.22.13-.3-.21-.1-.43-.44.23.06.67.32.74.32l.22-.07ZM17.57,10.93c1.3,0,.44-1,1.24-1,.21,1-.37.48.67.69.42.09,1,.14,1.38.24l.16-.68.15-.14.25.14-.16.81c.37.26.83.39,1.24.66s1,.3,1,.82c-.48,0-1.65-.93-2.24-.93-.17,0-.26.85-.31,1.06-.18,0-.25,0-.25-.19v-.06l.12-.87c-.28-.42-1.57-.44-2.29-.44l-.11.38c0,.45.05.73-.39.74l.11-1h-.3c-.27,0-.25.12-.43.12s-.12-.13-.13-.25ZM54,10l0,.06-2.73,2.74-.08-.05,0-2.26Zm-20.49,2a13.79,13.79,0,0,1,.11-1.93c.08-.61.22-1.38.26-1.86.39.1.18,2.32.18,2.86l.15.23h-.15v.13l.14,0-.26,0v.12h.25v.19L34,11.79v.13h.19v.25h-.25l.24.15v.1l-.31-.06v.12H34l-.08.31h.2V13l-.3-.07c.09.16.19.32,0,.38v.13H34v.18c-.16-.08.05-.06-.19-.06H33.6c.07.25,0,.19.37.19l.15.42h-.46a.44.44,0,0,1-.43-.25c.48-.17-.17-.54.49-.56v-.12l-.29-.21-.07,0,.25-.24,0,0v-.12l-.19,0,.19,0v-.19l-.12-.25.24-.07v-.11Zm-8.73-.5.29.23-.2,0,.36.23L25,14.65l-.16.14-.19-.08.06-.24-.16-.12Zm-.88-.49.54.23c0,.7-.1,1.45-.13,2.12,0,.22,0,.87-.21.84s-.47-.3-.47-.65l0-.25Zm-7.23.87c0,.19-.06.21-.06.43v.31c-.23-.16-.42-.41-.74-.44v-.12l.3-.08v.27l.36.14L16.33,12Zm17.89-.19c0,.3,1.37,1,1.8,1l0-.07Zm0-1.37L37,11.68l-.1-.39c.12,0,.31-.08.29.07L37,12.54,34.63,11.3l0,.06c.33.63,1.55.88,2.11,1.37l-.86.15.07-.21-1.3-.6c0,.31.77.71,1.1.72v.13l-1.31.17.17-2A10.22,10.22,0,0,0,37,12.36c0-.33-.35-.38-.59-.52a5.2,5.2,0,0,1-.71-.41l.05-.08,1.24.67c0-.46-1.83-1.2-2.22-1.46l-.13.31Zm-.06,2.36c.13.2.21.35.37.12l-.2-.09.62.2.06-.11-.77-.46,0,0,.15.3ZM14,12.85h.19v3.79h.07L14.3,13c.23.36-.08,6.41-.08,7.83h-.13l.09-2.61h-.07L14,20.62v.25l-.3.14,0-2Zm22.6.52,0,.05.18.07Zm-.52-.17.46.17L36.34,13l.55.1c0,.38.3.62.06.7l.07.37Zm-20.66-.93a2.27,2.27,0,0,0,1.13.77v.19l-1.41-.84c.07.36.94.78,1.22,1l.18-.13-.15,1.38c-.33-.21-.67-.49-1-.71-.5-.34-.71-.17-.71-.91l1.65,1c0-.5-1.69-1.11-1.77-1.41l0-.06,1.8,1.16c0-.47-1.38-1.06-1.71-1.36Zm.94,2-1.55-.93c.15.3.35.38.73.63s.71.7.82.3M27.2,14.1c0-.28,0-1.12.25-1.12s.07,1,.06,1.3c.24.35,1.8,1.12,1.8,1.43v.44a5.6,5.6,0,0,0-.85-.77c-.29-.17-.57-.53-1-.54,0,.26-.05,1.06-.31,1.06s-.13-.24-.13-.5v-.81c-.23-.06-.58-.48-.84-.64s-.76-.27-.77-.72l0-.07ZM29.25,12l.18.07-.13-.12ZM33,8.2c.09,0,.07-.12.31-.19l-.15.36c.56,0,.22.44.21,1h-.12c-.07-.27-.64-.61-.81-.38l.26.23c-.18,0-.26-.1-.38-.1l-.13.06.16.27,0,0c-.09-.11,0-.13-.2-.13s-.18.08-.25.18l.25.13-.05.07c-.12-.11-.12-.14-.32-.14s-.12.13-.13.25l-.26.09V10l1.76.9v-.32L31.7,9.88l0-.07c.31.08,1.2.62,1.3.62h.19l-.12-.31.24-.07-.11,1a19.85,19.85,0,0,0-1.94-1c-.19,0-.17.07-.19.25l.27.08c-.38,0-.15-.08-.39-.08s-.11,0-.19.12a14.65,14.65,0,0,0,2.06,1.12c.28.11.39,0,.16-.22a6,6,0,0,0-.52-.3,4.63,4.63,0,0,1-1-.54l1.7.81.05-.06-.09,1.12c-.39-.47-.93-.46-1.17-.81l1.1.53c0-.41-.76-.72-1.06-.87a5.6,5.6,0,0,0-1.34-.59c-.17,0-.15.05-.19.18l1,.46a10.94,10.94,0,0,1-1.08-.46c-.08,0-.19.13-.19.25s3,1.28,3,1.56c0,.08-.07.09-.12.12-.12-.33-2.52-1.3-3-1.61l-.47.35c0,.31,1.21.75,1.55.92s1.43.78,1.65.84l-.43.12.14-.16-3-1.51-.17.07v.11l2.78,1.46,0,.09-.31.08.06-.2-2.37-1.22v.16l-1.32-.91c.38,0,.6.35.88.35s.12-.12.13-.24l0,.05.62-.5-3-1.52c.42,0,2.84,1.47,3.11,1.47.09,0,.13-.09.13-.19,0-.3-2.21-1.19-2.55-1.42.53,0,2.49,1.3,2.8,1.3.11,0,.1-.09.12-.19l-1.14-.57c.34,0,1.07.51,1.27.51s.12-.08.12-.19S28.78,9.32,28.57,9c.31,0,2,1.06,2.17,1.06h.19c0-.41-.56-.36-.75-.62l1,.43,0-.06c0-.49-1.46-.69-1.56-1.05l1.84.87,0-.07c-.11-.4-1-.7-1.43-.8V8.63h.31l1.26.72.21-.19a.69.69,0,0,0,.46-.53h.24V8.45l-.36-.15,0-.17c.13.09.25.25.44.25l.12-.06-.14-.23c.28.05.13.11.33.11m0,5.46a1,1,0,0,1,.06.31v.13c0,.16-.48.4-.62.49l-.81-.8Zm3-.36c.19.33,1,.83,1,1.17v.19h-.12c0,.36.16,2.73-.25,2.73h-.31a10.52,10.52,0,0,1-.36-1,4.48,4.48,0,0,0-.4-1,5.49,5.49,0,0,0-.62-.75c-.25-.25-.73-.36-.73-.57v-.31a1.43,1.43,0,0,1,.06-.35ZM63.66,5.65l0,0h.09Zm1.88,0a7.84,7.84,0,0,1-.76-.54,4,4,0,0,1,1,.54h.43l-.79-.51a4.05,4.05,0,0,1,1,.51h.35l-2.2-1.51,0-.06L67,5.69h.38L64.18,3.57l-.07.07.42.52h-.18c0,.5.94.68,1.05,1l-.87-.48.19.45-.11.07.4.5Zm-.76,0,0,0H65ZM29.74,13l0-.06-1.41-.8Zm2.1,2.12L31,14.38l.05-.07L32,15a15.45,15.45,0,0,0-3.53-2.51c.3.45.92.55,1.32.92s1,.55,1.23.94l-2.74-1.72-.06.06ZM18.19,9.62a8,8,0,0,1,3-.22,11.65,11.65,0,0,1,1.41.15A12.59,12.59,0,0,0,24,9.81c.31.21,1.8.68,2.25.86a13.6,13.6,0,0,1,2,1.05,27.53,27.53,0,0,1,3.52,2.62l.13,0,.06,0,.12.25-2.26-1.67,0,.06c.37.56,2.21,1.44,2.36,2l-.24.14v.1l.2.1-.2,0v.12c-.86-.57-1.77-1.28-2.68-1.79A31.08,31.08,0,0,0,26.37,12c-1-.42-1.77-1.07-2.94-1.53A9.58,9.58,0,0,0,20,9.56H19Zm19.45,4.6.07-.05-.08-.2-.14,0ZM37.51,13a1,1,0,0,1,.06-.31H37.5l-.13.94h.14Zm.27-5.76L38,7.4l0,3.72c.25-.19.12-1.38.11-1.62V8.26c.09.07.12,0,.12.19v1.86l-.18,2.8H38l.09-1.92H38l-.08.87h0v-.56h-.12l-.13,2.23.21-1.49.12,0a3.48,3.48,0,0,0-.08,1c0,.53.1.45.13.8l-.19.06.07,3.05a.25.25,0,0,1-.25.25h-.5L37.28,16l.13.56h0c0-.44,0-.59-.25-.74l-.07-.69c0-.15.13-.42.13-.68,0-.08-.06,0-.12-.25l.35.45-.28-.8.07,0,.23.14c-.11-.43-.29-.19-.25-.74l.37-5.72ZM14.72,13.72l1.51,1.11,0-.05V15l-1.48-1c0,.4.4.5.65.67a2.29,2.29,0,0,0,.83.47v.37c0,.12,0,.11-.06.19l-1.4-.92c0,.29.32.41.55.59a2.49,2.49,0,0,0,.66.39v.19l-.56.14a.83.83,0,0,0-.68-.51v.12l.6.38,0,.06-.56.07c-.07-.28-.13-.12-.13-.32v-.38c0-.49.79.4,1.18.44,0-.4-1.18-.72-1.18-1v-.18c0-.46,1.16.65,1.49.74,0-.34-1.06-1-1.42-1.05Zm3.9-1.15a7.36,7.36,0,0,1,3.08.76c.41.26.8.38,1.24.62.29.16.89.64,1.22.64,0,.35-.05,2.92-.44,2.92S20.09,15,18.32,15h-.81a1.3,1.3,0,0,0-1.06.56l.37-2.74Zm10.76,4.69a13.66,13.66,0,0,1,.17-1.75c.15-1-.16-1.14.69-.73L30,17.27l0,.37ZM49.1,15.45l.06,0,.64-.72-.08-.07Zm1-5.14v-.13c-.38-.08-1.48-.89-1.71-.55l1.68.75Zm2.55-1.8h0M48.2,5.71c.24.46.71.48,1.15.77a4.53,4.53,0,0,0,1.27.66c-.29-.39-1.64-.78-1.68-1.24L48.82,6Zm.55.13h0m2.3,1.24h0M53.1,8.45c.26.22,1.47,1.18,1.74,1.05l0-.05Zm7.08-3.23,0,.07-.86-.43c.06.34.88.67,1.19.82h1.21c-.26-.22-.75-.32-1-.49s-1.08-.73-1.27-.46ZM56.6,10.74a3,3,0,0,0-1-.66l1.5,1.2Zm-1.76-.8a18.66,18.66,0,0,1,2.78,2.12c.15.14.32.29.51.44l-.61-.71a16,16,0,0,0-2.68-2h-.18l-3.19,3.28.07.09c.18-.27,3.22-3.24,3.3-3.24M50,14.81l-.61.64Zm9.87-.34c-.7,0-1.43.18-2,.24-.79.1-1.45.08-2.21.22s-1.48.13-2.18.24l-2.07.29s-.13-.09-.18-.12l0-.62c0-.29,0-.47,0-.88s.22-.32.32-.68l-.7.73-.06,0,0,1.43h-.07V14.16c-.23.16-.13.87-.13,1.24h-.06l0-.74,0-.32-.46.48.27-.17c0,.86-.05,1-.93,1l.08-.18-.31.25.05-.26c-.52.35-.31.37-1.12.56.07.1,0,.13.19.13h.37c1,0,2.19-.43,3.1-.44s2.16-.37,3.11-.37c.63,0,2.47-.26,2.89-.34a19,19,0,0,1,2.4-.27ZM55.38,9.33c-.11-.05-.16,0-.1.23H55a.74.74,0,0,0,.62.5l-.14-.18.36-.05Zm3.44-3.64-.21-.11,0,.07s0,0,0,0Zm.75,0-.72-.35,0,.06a.58.58,0,0,0,.24.29Zm.71,0a6.12,6.12,0,0,0-1.21-.54c.09.36.51.37.76.54ZM3.66,15l1.71,1-.07.11-1.48-.92,0,.06v.18c0,.22.14.1.13.31L3.7,19.56A10.78,10.78,0,0,0,4,16.71h.13l-.39,6.08-.42-.07.31-7.44Zm25.88,3.58.06-.1-1.41-.87-.05.05ZM24.4,14.84l5.92,3.65c-.42.11-2.62.3-2.62.7v.19c0,.25,1.57,1.06,1.88,1.22a10.56,10.56,0,0,1,1,.56c.23.15.68.57.92.57v.19c-.24-.06-1.5-.89-1.85-1.08-.6-.31-1.24-.75-1.83-1s-1.26-.75-1.86-1.06a16,16,0,0,1-1.79-1.06ZM30,18.54l0-.05-3.77-2.31ZM16.45,16.29l.16,3.83h0l.05-1.55V17.51L16.63,17c.11.07.13,0,.13.18v.56h.13v-.31H17L17,18.51,17,19c0,.22.13,1.3-.13,1.49l.07-2.73h-.07l0,.26-.08,2.49h-.08v-.25l-.17.32,0-4h-.09l0,3.54,0,.37c0,.41-1,.32-1.4.4-.72.14-.43-.49-.4-1.21a20.16,20.16,0,0,1,.19-3.1Zm13.91-1.45h.2c.25,0,.38.28.43.5-.14,0-.19,0-.19.19v.24l-.31-.12.24.26v.67l.17.2,0,.06-.2-.08V17l-.13.93-.18-.31-.2.07Zm2.43,1.62c.27.07.2.18.49.32s.38,0,.44.3l-.37,0a.58.58,0,0,1-.68-.48h.12Zm.67.59,0-.07L33,16.81Zm-.23-.71.43.24-.07.12.2-.05.32.14h-.19l0,.1,0,.07-.7-.38Zm7.05-1.1-.05,0-.39.72ZM38.63,11c0,.25.68.54.92.63.45.17.48.43,1.13.43Zm3.91.13h0M40,9.46a10.22,10.22,0,0,0,1.63.85l0-.06L39.67,9l1.11.58a6.68,6.68,0,0,0-2.21-1.47c0,.31.78.58.74.62l-.05.08-.67-.36c0,.31,1.17.9,1.45,1.05m-.18-.82V8.51h-.14Zm-1-.94.07,0c.15.06,0-.09-.07,0m.62.19h0m3.42,3c-.29,0-.07.14,0,.19v-.19h.18c0-.42-.91-.53-1.18-.93l1.34.73c0-.36-1-.81-1.26-1-.47-.31-.93-.56-1.38-.86.14.53,1.08.79,1.3,1.12h-.18Zm1.61-1.74a22.45,22.45,0,0,0,2,1.2c.32.13.16-.19,0-.31A4.55,4.55,0,0,0,46,9.82a4,4,0,0,1-1-.63l1.72.9,0-.28-1.33-.7c.42.05,1.09.58,1.26.58.73,0-1.66-1.18-1.67-1.18s-.1.09-.13.18l.59.34-.75-.31-.08.08.37.39c-.39,0-.31-.25-.5,0m-1.24,2,.78.3.06-.08-.22-.22.54.17c-.13-.26-.81-.77-1-.55l.46.35L43.29,11Zm2.76,3.2.07-.07L45.68,14Zm-4-1.4c.65-.48-.1-.67,1.3-1l.55.51.05-.05-.81-.8c-.47.24-.41,0-.69.56-.13.25-.39.56-.4.78m-2.13,3.36.73-1-.06,0-.73,1Zm7.3-11.48,0,.42H47l.19.36-.37-.14c0,.34,0,.28.36.28L47.13,6l-.41-.22,0,0,.16.36c-.11-.08-.11-.13-.25-.13s-.11.13-.12.25l.4.2-.52-.17,0,0,.18.32v0c-.11-.09.11-.08-.14-.08h-.18c0,.44.22.09.49.5-.16,0-.46-.25-.56-.25s-.11,0-.18.07L47,7.64l0-.06v.24l-1.21-.68,0,.06c0,.39.48.28.69.56-.42,0-.83-.65-.87-.12l1.28.66L47,8.2l-.46-.41.45.12v.54l-1.47-.79c0,.47.71.49,1,.85-.31-.07-1-.56-1.12-.56s0,.14-.25.25v.25l1.72.9c0-.45-.21-.25-.42-.53l.43.15.06-.08-.33-.35,0,0v.06l.38,0-.17,2.15H46.7c0-.38-.81-.64-1.11-.81s-1-.67-1.25-.55c.07.25.45.39.71.54.08,0,.79.44.78.45l0,.07-1.53-.88,0,.06c0,.46,1.1.62,1.43,1.06-.45-.12-1.33-.81-1.55-.81L44,9.94c.11.39,1.07.6,1.31.93l-1.46-.75,0,.06c0,.36.48.42.73.58a2.18,2.18,0,0,0,.88.42c.2,0,.05-.18,0-.25.29.08.16.19.37.19a.74.74,0,0,0,.31-.07v-.12l-.37-.19,0-.07.59.35v.06l-1.43.26.07-.22-1.3-.73c0,.55.92.64,1.16,1l-1.24.22-.13.15L45.69,14l.06-.05-1.91-2a10.21,10.21,0,0,1,2.55-.5h.44l-.15,3.35-.08,0-.48-.51-.07.07.5.55c-.28.14-2.17-2.41-2.64-2.45.31.47,2.67,2.61,2.67,2.86v.56c0,.37-1.68.48-2.11.5s-.69.1-1.18.12c-.33,0-.9.19-1.06.19s-.17,0-.31-.07l-.06-.18L42.07,13c-.57.36-.46,1-.46,1.92h-.06V13.79h-.13V14l-.14,2.36,0,.25h-.12l.13-2.42h-.13L41.1,16h-.05l.06-1.49-.54.78.29-.05c0,.2,0,.11-.06.26V16.9l-1.24.17,0-.08.37-.64-.77.79-.08-.05.8-1.17-.08-.05-.87,1.3-.21,0a.44.44,0,0,0-.25.06l-.3-.14L38.25,16l.17.44,0-.5h-.18v-.37L38.38,13l.14-.11c.77,0,1.55-.39,2.22-.39h.06c.38,0,.23,1.22.15,1.52s-.58,1-.71,1.21a2.16,2.16,0,0,0,.87-1.36l.19-.07V13l-.13.44h0l.08-.93h.05v.37h.06v-.8l-1.12.19c0-.32-1.23-.86-1.55-.94,0,.3,1.06.85,1.37.87l-.31.15c-.07-.26-.74-.58-1.06-.58l.89.58-.33,0,0-.07-.63-.35,0,0,0-1.92.58.32.43.28c-.31,0-.65-.35-.83-.35l-.12.06,2.2,1.25,0,.06-2.07-1.07,0,.07c0,.33.77.54,1.05.7s.4.23.57.3.22,0,.32.11.17.21.24.19l.49-.07v-.55h.06v.44h.13l0-.56h.08v.62c.26-.07.19,0,.19-.37h.06v.31l.31-.07L42,11.55l.07-.24-1.59-.83c.46,0,2.1,1.19,2.32.88l-4.15-2.2c0,.54,1.49.86,1.79,1.27l-1.78-.9,0,.17,0-.7,4,2.13a9.34,9.34,0,0,0-2-1.27c-.48-.23-1.58-1.09-2.06-1V8.63l-.08-.8,1.3.71c-.09-.44-.77-.62-1.1-.84l-.19.06V7.51l.43.21.06-.08-.54-.45,0-.06L41,8.64,41,8.73l-1.39-.82c.25.44,3.56,2.62,3.89,2.46l0,0L41,8.75l0-.06c.4.2,2.41,1.65,2.61,1.37l-.75-.54c.34.07.52.35.81.35l.13-.06a15.24,15.24,0,0,0-2.56-1.6c-.87-.47-1.71-1.1-2.6-1.57.12-.15.37.09.62.25s.4.24.66.4c.45.28.84.53,1.31.8A15.09,15.09,0,0,0,44,9.56l-.31-.36.43.14c0-.5-2.88-1.63-3-2.07a16.31,16.31,0,0,1,1.61.87A4.51,4.51,0,0,0,44.34,9a11.31,11.31,0,0,0-2.2-1.4,22.19,22.19,0,0,0-2.27-1.27l.24-.15c0,.31.79.58,1,.74s.79.43,1.12.61a12.74,12.74,0,0,0,2.26,1.23c0-.55-2.93-1.51-3.11-2,.16,0,2.39,1.22,2.51,1.34.57.54,1.25.35.43,0a5,5,0,0,1-1.13-.73l1.61.87L45,8.08l-.27-.17.39,0c0-.49-2.52-1.35-2.86-1.81l3,1.58c0-.43-.62-.55-.89-.74s-.78-.34-1-.59c.37.09,1.79,1,2,1l.12-.06-.12-.25h.25l0-.07L45,6.63l0-.06a2.34,2.34,0,0,0,.63.32l.12-.06a8.18,8.18,0,0,0-2.3-1.3V5.4c.33,0,2,1.2,2.49,1.24,0-.39-.11-.2-.37-.43l.43.18.15-.23-.23-.11c.2,0,.13,0,.27,0L46.33,6l-.18-.24h.31l-.06-.26.31,0-.14-.19.23,0ZM31.71,17.24l0-.06-.35-.13Zm.52-.16c.19.21.4.65.75.68l-.72-.71Zm-.12.37c0-.62-.37-1.58.07-2.16a1.84,1.84,0,0,1,1.6-.95,1.82,1.82,0,0,1,1.43,1l.13,1.12.06-.31h.06l0,.74.14-.38c0,.48-.25,1.15-.66,1.19l.42-.53-.06-.05-.21.28L35.3,17c.09.11.1.14.16-.08h-.12v-.31l-.37.72.07,0-.06.06h-.26c.21-.31.37-.21.37-.74l-.18.19.14-.76,0,.57a.64.64,0,0,0,.12-.44v-.06a1.47,1.47,0,0,0-1.3-1.49H33.6a1.48,1.48,0,0,0-.87.62,2.39,2.39,0,0,0-.31,1.18h-.06l.08-1h-.08c0,.29-.13.3-.13.62v.06c0,.78.35.89.62,1.3l.19-.06.11.32-.19.09-.83-.44c.08.41.47.35.47.65s0,.11-.12.19v-.19h-.19l0,.14,0-.45L31,16.89l.05-.07.25.15L31,16.69l0-.06.68.42c.11.44,0,.12.39.4m8.94.31a21.15,21.15,0,0,0,2.81,2.1c.46.34,2.67,1.8,2.84,2.06h-.31c-.14-.39-4.87-3.56-5.59-4h-.24c.12.19,2.44,1.71,2.86,2A24.41,24.41,0,0,1,46.21,22c-.34,0-1.22-.81-1.52-1-.51-.37-1-.66-1.5-1a22,22,0,0,0-3-2c0,.3,1.09.88,1.37,1.05.43.27.91.72,1.35,1s2.74,1.95,2.81,2v.13c-.31,0-1.2-.8-1.47-1-.48-.36-1-.67-1.46-1a26.2,26.2,0,0,0-2.91-2V17.9l1-.16ZM17.32,18c.43,0,.27.37.62.5v.18l0,.44L17.84,19a1.49,1.49,0,0,0-.14.57c0,.32.11.42.12.75h-.19c-.2,0,0,.05-.31.12V18Zm1.37,1.92c.19,0,.17-.12.44-.12s.08,0,.24.06c-.05.22-.36.37-.62.37A.7.7,0,0,1,18,19.5v-.06a2.92,2.92,0,0,1,.06-.44l.24.15v.23c0,.23.22.55.37.55M32,19.66l.07,0-.19,3.47v.62c-.43,0-.25-.17-.25-.74,0-.34,0-.79,0-1.12.05-.69.13-1.34.13-2.11Zm18.71-3.15H51v.12l-.37-.07c0,.38,1.57,1.09,1.93,1.25.18.08.89.46,1.05.56s.66.32,1,.55c.5.33,1.49.78,2.07,1.1s1.43.67,2,1.08h-.31c-.69-.46-1.31-.74-2.07-1.15s-1.42-.71-2.06-1.11a38.79,38.79,0,0,0-4.19-2.14,39.49,39.49,0,0,0,3.85,2.23l2,1.07c.36.2,1.85.81,1.93,1.1l-8-4.3-.29,0,1.87,1.17-.06.08-2.18-1.31ZM37.44,18.23l-.06.21a56.53,56.53,0,0,1,5.35,3.79L42,22.3a20.41,20.41,0,0,0-2.57-2,21.87,21.87,0,0,1-2.77-1.89c.31,0,1.18.78,1.52,1a13.48,13.48,0,0,1,1.44,1,16.62,16.62,0,0,1,1.44,1c.25.21,1.14,1,1.44.85-.06-.09-2.39-1.8-2.65-2-.45-.27-.89-.64-1.35-.94-.15-.11-1.33-.89-1.36-1Zm-6.08,1.06v.09l-.37,0,0,.06.66.44-1.17-.53c.1.49.38.27.6.61l-.81-.44h-.37c.33.28,1.36.64,1.49,1l.19-.06v.24l-1.93-1.23ZM19.18,20.5v.08l.62-.16Zm.63-.2.13.19.24-.07c-.16.23-.95.26-1.3.26l.25-.09-.63,0,.2.09c-.52,0-1.58.34-2.13.4a20.82,20.82,0,0,0-2.06.42c-.74.14-1.47.14-2.18.3a17.69,17.69,0,0,1-2.08.34c-1.3.15-2.86.6-4.17.74-.79.09-1.42.3-2.11.38a17,17,0,0,1-2.05.37l.62-.19-.13-.1,8.32-1.52,0,.08.17-.14,7-1.18,0,.09-.15.09.57-.06v-.05l-.32-.07Zm41-.42-.47-.24c-.72-.41-1.38-.83-2.09-1.21l-2.15-1.14A18.34,18.34,0,0,1,54,16.15l-.24.07.51.41-.88-.43-.25.08.86.56L54,16.9l-1.12-.63-.19.07,0,.06,7.64,4.13.11-.13c-.75-.48-1.88-1.08-2.16-1.23s-2.82-1.49-2.94-1.66l5.18,2.8Zm-29.41,1.3c0-.53-2.09-1.15-2.23-1.68h.31l-.06.19c.52.14,1.62,1.16,2.11,1.18l-.06.56a15.74,15.74,0,0,0-2.67-1.62v-.19Zm7.4-3.11c-.1.24,1,.87,1.27,1,.56.29.89.68,1.43,1,.36.21,2.68,2,2.82,2s-1.05-.95-1.19-1.06c-.4-.34-1-.66-1.43-1s-2.71-1.8-2.78-2h.31c0,.38,2.37,1.62,2.77,2.07,0,0,1.35,1,1.41,1,.45.26,1.09.92,1.47,1-.1-.39-2.33-1.66-2.67-2.12l3,2.08,0,0-1.74.14a21.48,21.48,0,0,0-2.6-2c-.27-.2-2.69-1.89-2.81-1.9l.17-.15,0,.08,5.64,4,0-.06a18.34,18.34,0,0,0-2.64-2,20,20,0,0,0-2.76-1.89v-.13ZM6.49,21.58l-.06,0L6,22.19ZM8.7,18.65l.05,0v-.18c0-.23.1-.16.25-.13V18.2l-.28-.14,0-.06-.17.14-1.34-1-.06.08,1.41,1.08.05-.06v.31c0,.21-1.82,2-1.9,2.44Zm1.29-5c0,.32.59.51.82.67s.59.5.92.51A5.36,5.36,0,0,0,10,13.6m2.82-.07.09-.12-.59-.24Zm-.18-.5.38.24.05-.07Zm1,.73.08-.08-.3-.33.31.08,0-.07-.37-.31-.05.06.08.24-.28,0Zm-1.28.65c.05.31.64.6.63.62l-.06.07-.75-.51-.08.25,1.42.85.07-.09L13,15.15l.54.23c-.07-.42-.88-.8-1.23-1m-1.42,5,.07-.05-1.3-.75Zm1.66,1.34L11,19.49h-.24Zm.08-.16.07-.05-1.51-.93ZM13.16,13c-.05-.24,0-.31.37-.31.09,0,.1.07.13.12h-.19c0,.37.14.22.31.31,0,.41.07.75-.12.81l0-.05-.57-.35.43.51.17,0v.49l-.26-.16.2,0v-.18l-.74-.44,0,0,.55.57-.73-.41-.07.1.84.64.25-.06,0,.31c-.27-.17-.95-.81-1.2-.69.07.25,1,.83,1.18.75l-.06.87-1.6-1c0,.35,1.22,1.19,1.6,1.2v.19l-1.78-1.1c.08.45,1.25.87,1.53,1.29l-.18.07c-.05-.36-.51-.47-.74-.64a4.67,4.67,0,0,0-.82-.49c.11.41,1.28.86,1.37,1.18-.47,0-1.18-1.07-1.62-.87l1.15.85,0,.08c-.39,0-.85-.71-1.3-.74,0,.39.67.54.87.8l-.31.08.07-.2L11,16l-.06.06.07.25h-.18l.33.42.05,0v.12l-.54-.34-.1.27.28.09-.26.12v-.2h-.13c.09.42,0,.12-.3.32a2.28,2.28,0,0,0-.3.38c-.17.19-.56.57-.58.85l.42.21c-.08-.16-.23-.24-.23-.4a7.64,7.64,0,0,1,.6-.76,5.84,5.84,0,0,1,1.09-.22,9.79,9.79,0,0,0,2.16-.51l.23.15-.14,4.08-.69-.35,0,.06.59.39-.68-.32,0,.05.47.33a18.83,18.83,0,0,1-3.69.77H9.31c-.26,0-.15-.33-.1-.6s0-.54,0-.82a13.77,13.77,0,0,0,.11-1.5v-.25l1.34.85.07-.1-1.51-1-.21.34-.2,1.74h0L9,18.69H8.87l-.08.57h0v-.31c-.37,0-.94,1-1.22,1.26a13.57,13.57,0,0,0-1.08,1.35l.06,0,2-2.35L8.36,20.3l0,1.62-.15.17-2.41.38.15-.2,0-.1H5.77l1-1.21c-.21,0-1,.91-1.13,1.11-.42.57-.61.67-1.45.6V21.8l.26-5.34.12-.12.67.06.18.13a4.84,4.84,0,0,1,1.81.61C7.08,16.69,4.11,15.3,4,14.9a13,13,0,0,1,2.34,1.39,5,5,0,0,0,.63.3c.33.19,0,.11.41.4s1.28.25,1.28.58v.19l-.74-.39a1.56,1.56,0,0,0,.8.58c.11,0,.11-.15.19-.25V18h.24c.19,0,.72-.66.81-.81l-.15-.3L6,14.48c.65,0,3.49,2.38,4.17,2.54v-.25L6.42,14.4l0-.06c.27,0,.77.49,1,.64s.76.37,1,.59.61.43.94.68.74.61.91.39l-2.1-1.49.06-.08,2.18,1.51.09-.1-.3-.33.43.15c0-.47-2.66-1.77-3-2.2.47,0,2.77,1.92,3,1.92l.12-.06L10,15.28l.06-.08.92.61c0-.48-.11-.17-.35-.53l.59.3c0-.48-2.17-1.43-2.27-1.79.25,0,.88.56,1.15.71s.74.48,1.08.71h.25l-1.09-.81.05-.07,1.13.75,0-.05c-.09-.32-1.41-1.08-1.74-1.31H9.56l.76.6,0,0-1-.61.35-.19.73-.1c0,.3.47.45.73.64a2.84,2.84,0,0,0,.82.48c0-.26-1.22-1-1.43-1.05v-.13l1.58,1,0-.06c0-.32-.95-.73-1.25-1,.55,0,1.09.93,1.49.75-.06-.24-.86-.69-1.11-.75.27-.38,1,.81,1.3.44l-.88-.6.26-.1a1,1,0,0,0,.75.51v-.12L12,13.14,12.6,13l.37-.12,0,.06ZM48.45,16.8a2.24,2.24,0,0,0,1,.75,5.49,5.49,0,0,1,1.1.71c-.5,0-2.28-1.61-2.55-1.24l7.35,4.32-.58,0,.12-.07v-.11c-.17-.05-1.63-.89-1.87-1.05-.53-.34-1.27-.81-1.83-1.09-.77-.38-3.05-2-3.75-2l7.19,4.31-.48.12.18-.1a35.74,35.74,0,0,0-4.47-2.6c-.06-.23-1.08-.72-1.35-.88A13.15,13.15,0,0,0,47.2,17h-.06c-.18,0-.11,0-.19.12l2.2,1.32c-.5-.08-2.21-1.38-2.51-1.38l-.12.06.75.56-.06.07c-.21-.18-1-.73-1.19-.51l6.9,4.28h-.31c-.08-.3-6.12-3.74-6.9-4.42ZM34.52,21.88,34,21.49l-.06.05Zm-2.07-1.4a8.76,8.76,0,0,1,2.27,1.44l-.21.1L32.71,21l1.22.49Zm.15.82c.16.23,1.31,1,1.56.87l0-.06Zm-.25-.24,2,1v.16l-.41.28a4.7,4.7,0,0,0-1.7-1.15v-.12l.39.1Zm-13.17-.15-.07.2.77.37-.14.19h.06l-.05.49a6.67,6.67,0,0,0-2.12-.87l1.84.86,0,.1-2.23-1,1.5-.25c-.21.23.07.26.39.39s.49.28.67.2l0-.06-.94-.48,0-.08Zm.88,3.56A6,6,0,0,1,20,21.8l.33.22ZM42.23,22.6l5.87,4.56a51.82,51.82,0,0,1-6.42-4.48Zm-2.85.25a1,1,0,0,1,.31-.06h.24c.12,0,.93.95,1.49,1l.12-.8.4.21-.17,1c.21.06,1.15.66,1.15.88v.31l-1.22-.79,0,.41c0,.11,0,.19-.12.19a.77.77,0,0,1-.31-.12l.07-.56v-.13a8.11,8.11,0,0,0-1.55-1.18l-.18.75c-.14,0-.28-.07-.26-.25Zm-23.67-1.3a8.68,8.68,0,0,0,1.9,1,19.93,19.93,0,0,0,2,.91c-.11-.43-1.53-.69-1.8-1l1.84.8,0-.06a10.31,10.31,0,0,0-3.6-1.61l.25.19h.31l1.21.64-.05.09Zm1.36-.27c.11.4,1.54.65,1.81,1l-2.06-.86h-.24l3.05,1.48c.13-.29-.19-.26-.44-.48.26.07.11.12.31.12h.25V24c0,.39-1.1-.25-1.31-.37-.42-.24-.91-.44-1.37-.67s-2.6-1.09-2.79-1.26l.31,0c.19.11,5,2.28,5,2.28-.44-.65-4.66-2.09-4.78-2.42.71,0,.17,0,.58.23.16.09.41.13.63.24.39.18.83.44,1.16.58.59.25,1.94,1,2.41,1.12a16.91,16.91,0,0,0-4.28-2.11v-.13Zm4.79,2.5c0-.15.79-.93,1-.93a20.36,20.36,0,0,0,2.3,1v-.13l-1.33-.64.05-.08,1.61.81,0,.06-.87.05a1.79,1.79,0,0,0-.84-.53c-.18-.08-.88-.48-1-.48l-.12.07,1.75,1L24,24a3.48,3.48,0,0,0-1.55-.81,2.62,2.62,0,0,0,1.3.75V24h-.31a2,2,0,0,0-1.24-.62l1,.6,0,.07-1.08-.51-.05.09.54.36ZM30.68,26c-.85-.57-.54-2.11.06-2.11.1,0,.19.2.19.31s-.23.5-.31.25a.35.35,0,0,0-.19.37V25a1.17,1.17,0,0,0,.19.62l.17,0,0,.07-.08,0a.35.35,0,0,0,.37.19.74.74,0,0,0,.31-.07l-.14.24L31,26Zm.1-1.81,0-.06-.11.33ZM11.17,22.3c.09.33,1,.47,1.36.62l1.32.62a18.19,18.19,0,0,0,2.79,1.11l0-.06-4.89-2.15.05-.09,5.27,2.3,0,.07c-.2,0-.23.06-.44.06h-.31s-1.1-.56-1.35-.63a13.84,13.84,0,0,1-1.38-.61c-.64-.32-2.37-.89-2.79-1.17Zm22.61,2.48a2.83,2.83,0,0,0-.18-.87l-.25-.08c-.17,0-.06,0-.25,0l-.25.54.06,0-.18-.07a2.92,2.92,0,0,0-.06.44v.06c0,.52.16,1,.68,1,.13,0,.08,0,.25-.06a6.68,6.68,0,0,0,.18-.93M33.47,26c.17,0,.19-.09.25-.19l-.55.08a.32.32,0,0,0,.3.11m-1-1.43c0-.31.47-1.18.68-1.18a.84.84,0,0,1,.87.81l-.21-.33.14,1.69-.2.24.26-.18c0,.36-.3.51-.67.51-.54,0-.87-.63-.87-1.19ZM20.49,22.85c.05.29.72.64.81.31Zm1.4.34-.05,0-.21.34Zm-.93.64.07-.12-.58-.23Zm-.12.18c0-.27-.12-.28-.44-.24Zm-.41-1.28a1,1,0,0,1,.06-.31l.69.3-.06.08-.55-.28c0,.37.6.51.92.58l-.25-.31.49.08-.36-.34,0-.06.44.21-.12.23.06.06.55-.57-.51.74.05.05.49-.57.06,0-.83,1-.06-.05.08-.13c-.08,0-.38.28-.38.37s0,.08.06.24l-.41.29-.05-.05.92-1.4-.08-.05-1,1.38-.16,0,.22-.14-.4-.18v-.67l.72.35,0-.17-.66-.29ZM7.75,25.06l0-.09-2.14-.52Zm.31-.13c-.26-.22-2.18-.88-2.35-.65ZM4.22,23.54A36.92,36.92,0,0,0,9.37,25Zm6.28,1.64c-.1-.33-.47-.1-.69-.4l.62.09.07,0-.92-.31,0,.09.28.13-.45,0L10,25Zm1-.13,0-.09-.85-.19Zm1.11,0,0-.1-1.22-.38Zm-.06-.25,0-.09-2.77-1Zm-4.33-2a5.82,5.82,0,0,0,1.12.43,10.75,10.75,0,0,1,1,.44c.27.12,2,.8,2.17.81a21.06,21.06,0,0,0-4.34-1.68m5.64,2,0-.09-.78-.2Zm-.91.08.06,0-.27,0Zm-1.69.19h0Zm-.62-2.73.06.21A45.29,45.29,0,0,1,16,24.78a20.41,20.41,0,0,1-2.88-1.16,12.27,12.27,0,0,0-2.9-1.08l1,.45,0,.08-1.41-.5v.16a13.76,13.76,0,0,1,2.4.89,14.23,14.23,0,0,0,2.32,1l0-.07-3.28-1.44a10.21,10.21,0,0,1,2.18.84c.36.12,1.92.67,2,1h-.5a1.24,1.24,0,0,1-.37-.06l-.37.15v-.15h-.25L14,25h-.2c-.12,0-.11,0-.18-.07s0,.13-.19.13S13.32,25,13.1,25,13,25,13,25.09L12.73,25v.13l-.44,0v.11h-.18c-.21,0,0-.05-.31-.12l0,.12-.33.08v-.14H11.3l-.06.19-1.49.06h.18c-.07.09,0,.11-.18.11a1.14,1.14,0,0,1-.44-.12l0,.12a6,6,0,0,1-2-.43,3.26,3.26,0,0,1-.89-.16c-.45-.1-.61,0-.54-.34l-.55-.07.25.1L2.11,24v-.11l3.16.65,0-.08-2.64-.63,0-.07h.24l.18.14,2.55.52-2.35-.72.18-.13,2.23.67,0-.1-1.81-.5v-.12c.38,0,.47-.13.81-.13a3.23,3.23,0,0,0,1.18.37l.85.29,2.61.76,0-.12L8.06,24.3l-.24,0-.18-.13L5,23.41l0-.09,4.59,1.29,0-.1-4-1.18v-.1l2.6.71,1.83.61.23,0c-.33-.46-3.95-1.14-4.16-1.43l.31-.06.06.19c1.4,0,4.12,1.35,5.53,1.67l0-.07L7.56,23.32l0-.1,3.88,1.33,0-.09L7.35,23l0,.08c.2-.27,2,.62,2.55.62l-2-.79.79-.14,4.52,1.82,0-.08L9.92,23.08,10,23l4.51,1.87a44.76,44.76,0,0,0-5-2.19H9.25v.12l.63.21,0,.08-1-.36c.43-.06.17-.14.46-.13Zm21,2.38c-.12,0-.25-.11-.25-.19s.29-.07.44-.06v.25Zm-13.29.62c0-.46.52-.84.93-.93l.55.56.42-.29.06.06-.34.6c0,.54-.25,1.12-.75,1.12s-.87-.5-.87-1.12m1.86-.19c.16-.22.49-.7.86-.67a.79.79,0,0,1,.76.8v.56a1.16,1.16,0,0,1-.56.8l-.5,0c-.56-.81-.56-.17-.56-1.53m18.83.57s0,0,0,0-.06,0-.08,0,0,.05-.11-.08-.12-.12-.18-.18-.26-.17-.48-.33l-.94-.61a21.48,21.48,0,0,1-1.9-1.23l0,.06L39,25.84Zm-3-1.55L36,24.15l0,.06.06.08Zm-1.09-.67-.2-.24,0,.05Zm1.29-.3,2.22,1.57,0-.06Zm.29,0L45.16,29l.05-.07a4.63,4.63,0,0,0-.52-.35c-.17-.12-.36-.23-.52-.35a10.65,10.65,0,0,0-1.07-.73c-.7-.41-1.49-.95-2.18-1.42-.53-.35-4.07-2.71-4.4-2.74M46,29.17l-9.09-6,0,.07Zm-7.23-5,.06-.06-.92-.58,0,.06Zm2.74,1.41.71.55,0-.06Zm.8.52.27.29,0-.06Zm.36.3.89.55-.83-.61Zm2,1.05,0,0-1.28-.83,0,.06ZM43.55,24.5l.71.55,0-.05Zm3.11,2.05-.19-.12Zm5.9,3.92.34.3,0-.06Zm-.72,2.1-2-1.34,0,.06Zm-5-3,1.28.91,0-.06ZM35.63,23.22l6.64,4.38,0-.07Zm3.43,2.61.44.38a11.27,11.27,0,0,1-1.76-.91,13.49,13.49,0,0,0-1.73-1l.24.25-1.82-1.14,0-.07,1.05-.11,0,.06,0-.13h.31l.28.13,0-.13.25.13s0-.19.18-.19,0,0,.22.06l0-.12h.18l.78.54,0-.07-.61-.44.06-.07,4.11,2.58V25.5l1.92,1.14,0-.09-.22-.1.13-2.17,0-.06,2.94,2.11-2-1.35-.06.09,2.16,1.39,0-.14.31.26c-.26.08.42.35.62.5s.53.35.82.54c.57.39,1.12.71,1.7,1.1s1.05.68,1.68,1.05c.34.2,1.62.81,1.69,1.1l-.38-.11.43.35-.23,2.11a4.21,4.21,0,0,1-1.43-.62,5.67,5.67,0,0,1-1.36-.87,3.47,3.47,0,0,1-1.74-.87l0-.06-.46-.34,0,.05.39.35c-.46-.12-1-.67-1.52-.84-.19-.06-1.43-.68-1.58-.78a4,4,0,0,0-.74-.44,7.3,7.3,0,0,1-.82-.36,10.08,10.08,0,0,0-1.57-.85l.26.23a8.4,8.4,0,0,1-.88-.48,6.69,6.69,0,0,0-.93-.44,11.14,11.14,0,0,0-1.67-1.07m15.87.84c.06-.35.14-.71-.09-.77,0,.18-.07.56-.13,1Zm.27-.31,0-.34h-.15l-.07.54Zm-5.09,1.86,0-.06L49.79,28Zm-.49-.34h0m1.23.59L50,28Zm1.94.66L50.84,28l1.91,1.2Zm.72-1,.06-.1-.56-.2Zm-.84,1.1-2.08-1.16,2,1.25Zm-.15.17-1.61-.91,1.55,1Zm.74.59,0-.16-.14-.08h-.26Zm-2-1.08-.13-.12-.05.05Zm1.17.63-1.14-.67,0,.08,1.1.7Zm1.14-1.9-.15.18.27.1v.17l.32-.36.28-2.19h.09l-.26,2.05.52-.6c0-.16,0-.32,0-.46,0-.46.25-.79-.06-.87l-.05.25,0-.44,1,.54.16-.18-.57-.31c-.24-.14-.42-.22-.63-.37-.4-.29-.34-.16-.41.3s-.25,1.35-.29,1.83v.07l-4,.11h-.69a57.72,57.72,0,0,1-6.39-5c2.62,0,5.24-.36,7.51-.43,1.26,0,2.56-.2,3.86-.25,1.11,0,2.44-.31,3.66-.31.59,0,1.18-.05,1.77-.1l.36-.42-.4,0v-.09l-4.81-2.61,0-.09,5.24,2.72,0,0A33.16,33.16,0,0,0,56.62,19c-.48-.3-3.26-1.71-3.39-1.89.46.11,3,1.54,3.65,1.87.39.21,2.39,1.23,3.17,1.76l.15-.16a14,14,0,0,0-1.52-.79c-.68-.35-1.42-.75-2.07-1.15-.34-.21-4.17-2.27-4.19-2.27h-.31l.2.23-.74-.22-.06.11,3.11,1.7a13.71,13.71,0,0,1-3.13-1.7l-.32-.07,3.67-.52c.08.33,2.18,1.39,2.18,1.4L57,17.4c-.17-.13-2.42-1.32-2.49-1.32l-.19.07L60.9,19.8l1.79-2.06L60.31,15c-1.42.2-5,.56-5.66.64-1,.12-2,.31-3,.43s-2.14.21-3,.39-2.1.21-3.08.4c-.8.15-2.24.33-3,.39s-2.16.31-3,.48a22.7,22.7,0,0,1-3,.39l-.18.14a12.74,12.74,0,0,0-2.07.29l-2,.34c-.68.12-1.44.12-2.11.25a10,10,0,0,1-2.13.23c.26-.36,4.13-.75,5-.9s1.73-.24,2.57-.41A22,22,0,0,1,38,17.64c1.38-.05,3.71-.57,5-.76.69-.11,1.88-.29,2.58-.32.26,0,2.35-.15,2.35-.48s-.13-.09-.13-.31v-.56l.48-3.9c.22-.41,1.28-.51,2-.51l.1.38L50.22,14l-.45.66c.59-.34.66-.51.66-1.4h.06l0,.63h.08l.08-2.23h-.07l-.09,1.42s-.11,0-.11-.12l.15-2.55h0v1.12h.07l.05-.57v-.68l-1.67.25c-.08-.27-.35-.37-.63-.44,0,.29.23.35.5.37l-.3.15-.31-.34.07-.36c.05,0,1,.49,1,.49s.11,0,.18-.12l-1.21-.55,0,.05V7.76c.34.36,1.95.78,2,1.18l-2-1,0,0,.07.25,1.83.86,0,.07c-.3,0-1.58-.81-1.74-.81l-.13.07a2.75,2.75,0,0,0,1,.64c.28.11.38.2.58.29s.37-.07.37.43a3.62,3.62,0,0,0-.89-.6,7.49,7.49,0,0,0-1-.45c-.09,0-.1.07-.13.12.28.37,1.66.66,1.81,1.06l-1.78-.87,0,.06c.09.33.61.41,1,.61l1,.51c.21,0,.18-.11.19-.31l.15.26.1-.58.06.5.37,0-.22.24-.15,0v.94l-.12,2.3h.12v-.25l.24.07,3.53-3.63,0-.06-1.24.15c-.18-.33-1.08-.72-1.55-.94-.32-.15-.58-.27-.87-.43s-.29-.15-.45-.24a2.81,2.81,0,0,1-.42-.2l0-.07c.12.08,1.71.84,1.81.88.36.11,1.43.87,1.8.87.18,0,.12,0,.19-.13L51.72,8.47l.07-.1,2.47,1.3c-.08-.43-2.48-1.32-2.77-1.72l1.17.58a26,26,0,0,0-4.4-2.44c.07.26,1.2.73,1.53,1,.13.09,1.64.84,1.64.85L51.37,8l-3-1.55c0,.38.45.43.71.56s.51.3.8.44a9,9,0,0,1,1.64.85L48.4,6.79c0,.51.79.51,1,.85l-1-.42c.12.56,4.3,2.1,4.7,2.65h-.25a28.58,28.58,0,0,0-3-1.57c-.23-.1-.54-.31-.76-.41l-.7-.31a9.94,9.94,0,0,1-.24-2l.62.27-.64-.56.06-.08,1.68,1,0-.09-1.72-1,3,1.66-1.31-.61-.06.11,2.53,1.41,0,.08L51.14,7.1l-.06.1L55,9.37l0,0c0-.46-2-1.05-2.36-1.5.38.11,2.39,1.25,2.42,1.25h.06l-.34-.39c-.92-.56-2.88-1.4-3.07-1.66a32.12,32.12,0,0,1,2.89,1.45l-.31-.35L49.09,5.34l0-.06a12.73,12.73,0,0,1,1.64.84,5.38,5.38,0,0,0,.84.4,7.55,7.55,0,0,1,.76.43l1.7.87-.44-.49c-.73-.37-1.44-.71-1.71-.87C51.19,6,48.53,4.85,48.2,4.35c.14,0,3.21,1.85,3.8,2a11.41,11.41,0,0,1,1.43.71l-.31-.36-.81-.41a29.91,29.91,0,0,1-3.56-2h-.31l.31-.15c.08.3,3.15,1.78,3.65,2l.52.27-.37-.42-3.68-1.9.38-.09c0,.32.57.45.81.57s.57.32.87.49c.46.27.94.47,1.43.7l-.14-.16h.29L49.35,4.08,49.68,4c0,.34,1.32.8,1.64,1a12.78,12.78,0,0,0,1.39.74h.51l-3-1.52,0-.07c1,.54,2.23,1,3.22,1.59h.44L50.32,3.88c.06-.06,0-.09.17-.09s.14.18.35.27a1.63,1.63,0,0,1,.42.2c.24.14.57.3.83.42l1.69.79.41.22h.51a28.12,28.12,0,0,1-3.9-2,8.48,8.48,0,0,1,1.66.77c.41.25,1.28.49,1.61.74a7.64,7.64,0,0,0,.77.45h.51a9.91,9.91,0,0,1-1.44-.78,9.47,9.47,0,0,1,1.63.78H56c-1.65-.86-4.11-2.09-4.28-2.09h-.19c.1.36,1.63.72,1.93,1.12L51.22,3.65c.39-.06.29-.17.58-.17H52l0,0L56.3,5.69h.52l-.41-.18c-.53-.25-.84-.44-1.42-.69a22.13,22.13,0,0,0-2.82-1.34l.3-.15A11.31,11.31,0,0,0,55,4.66c.33.11,1.37.71,2,1h.48L53.68,3.8l0-.07c.64.17,3.1,1.52,4.05,2h.4c-.71-.58-4.8-2.24-5-2.52l.31-.08c0,.37.84.58,1.15.73s.87.34,1.25.55c.21.12,2.39,1.22,2.39,1.22s.11,0,.18-.06C58,5,53.88,3.38,53.66,3c.28,0,2.16,1,2.56,1.17s2.19,1.31,2.41,1l0-.07L54.09,2.94l.32,0a18.37,18.37,0,0,0,2.27,1.14c.35.17.81.44,1.11.57s.92.67,1,.28c-.36-.1-1.59-.88-2.06-1.11a14.83,14.83,0,0,1-2.17-1l.25-.07c.18.34,1.59.83,2.13,1.11l1.12.56c.29.14.87.65,1,.27l-1.64-.89a13.74,13.74,0,0,1,1.76.82c.08,0,.09-.06.12-.12L57.38,3.38a15.68,15.68,0,0,1,2,1c.08,0,.09-.07.12-.13l-1.1-.65,0-.09c.32.08,1.15.79,1.37.49l-2.19-1.2a5.78,5.78,0,0,1,1.25.53c.25.11.93.69,1.13.43L59,3.16l.05-.07a6.3,6.3,0,0,0,1,.51c.08,0,.09-.07.12-.12L57.6,2.13l.28-.1c.07.26.86.55,1.15.74.1.07,1.19.58,1.22.58s.11,0,.18-.06l0-.06L58,2l.42,0A6.69,6.69,0,0,0,60.62,3.1c0-.27-.67-.52-.91-.64A7.38,7.38,0,0,0,58.63,2V1.86c.31,0,1.91,1,2,1h.19l0-.26c.25.07.29.12.3-.24l.26-.08v-.1l-1.28-.66c.33,0,1.12.59,1.38.59s.11-.13.12-.25l-1-.46c.18-.12,0-.1.2-.1H61a.67.67,0,0,0,.68.5c.12,0,.11,0,.19-.06a.84.84,0,0,0-.81-.37c.07-.1.09-.19.25-.19h.19c0,.33.19.3.43.43l.22-.22-.4-.15V1.12h.31c0,.14,0,.18.18.18s.14-.05.25-.12l.18.07-.19.16.29.3c-.22-.1-.69-.31-.46.15H62l.3.38c-.26-.08-.1-.13-.3-.13h-.25a1,1,0,0,0,.74.5v.12l-.9-.43,0,.06c0,.49.73.35.87.74-.31-.08-.71-.49-1.06-.49l-.12.06.1.2,0,.06c-.21-.14-.26-.12-.32.11.23.06,1.07.56,1.12.56h.19v.25l-1.47-.8,0,.05c0,.28,1.12.87,1.43.87v.19c-.12-.08-1.47-.81-1.55-.81l-.12.06,1.5.92.17-.12-.06.32-1.78-1c0,.35,1.36,1.07,1.72,1.1v.25c-.31-.21-1.65-1.15-2-1l1,.66L60,4.1l0,.06C60,4.52,61.6,5,61.8,5.34l.25,0v.24c-.37-.1-2-1.12-2.18-1.12h-.18A7.17,7.17,0,0,0,62,5.65v0h.27a7.66,7.66,0,0,0,.11-1A7.93,7.93,0,0,1,63.1,1.8l0,.18.11-.26.16,1.14-.07,0-.2,1.25h0l.08-.62a7.25,7.25,0,0,0-.44,2.21h.17C63,5,63,4.47,63,4.28h.06L63,5.69h.59v0c0-.18,0-.11.12-.19l0,.07.27.16h.38c-.31-.22-.65-.34-.67-.6l.53.3.32.3h0c0-.4-.38-.54-.65-.72L63.6,5l0-.24.73.43.07-.1-.38-.43,0,0,.2,0a.67.67,0,0,0-.63-.51L63.72,4l.35.23.09-.09-.46-.55.26.12.05,0-.27-.42a.71.71,0,0,0,0-.3l0-.5.52.34-.38-.1L64,3,66.4,4.52l-.06.08L64.05,3.08c0,.45.77.76,1.09,1s.78.54,1.19.79c.22.14.71.51,1.21.85H68a6.71,6.71,0,0,1-1.58-1.1,14.57,14.57,0,0,1,1.7,1.1h4.13L69.48,3.75a42.1,42.1,0,0,0-5-2.82l.39.35-1-.56.14,0V.56c.65,0,4.73,2.44,5.31,2.89.35.28.84.55,1.23.82.21.14,1.11.72,1.21.84a6.39,6.39,0,0,0,.76.58h1c-1.46-1-3.39-2.22-3.73-2.48C69,2.58,64.87,0,63.79,0a13.34,13.34,0,0,0-2.38.36c-.36.09-2.08.45-2.34.45S50.92,2.71,49.92,3c-1.52.39-3.11.64-4.57,1.07-.66.2-1.6.37-2.26.54a16.28,16.28,0,0,1-2.29.57l-.18.14,0-.07-12.28,3a25.67,25.67,0,0,0-2.8.68,6.42,6.42,0,0,1-2.92.38,11.78,11.78,0,0,0-3.16-.19c-.76,0-2.55.48-2.55,1,0,.14.05.14.12.25l-.16.81,0,0L6.69,13.47l-.17.13a21.54,21.54,0,0,0-2.68.61L1.3,15v.23l2.09.65.15.18-.14.18-.24,6.58a9,9,0,0,1-2.55.62c-.28.2-.58.15-.61.59l1.05.28A37.34,37.34,0,0,1,5.17,25c.28.09,3.91.95,3.95.95s.87-.23,1-.25l1.12-.12c.64-.07,1.68-.25,2.29-.25,1.73,0,3-.31,4.66-.31,0,.88.12,1.8,1,1.8.55,0,.54-.53.93-.56a1.14,1.14,0,0,0,.87.81,1.44,1.44,0,0,0,1.09-.9c.21-.52-.22-1.55.09-1.64,0,0,1.68-.24,1.75-.25.46-.05,1.19,0,1.71-.1,1.83-.26,1.58,0,3,.6a13,13,0,0,1,1.27.72c.21.28.57,1.07,1,1.07h.06a1.24,1.24,0,0,0,1-.31,16.25,16.25,0,0,1,3.26,1c1,.4,2.06.85,3,1.17.49.16,1.06.41,1.53.59s1.08.4,1.51.6c.9.43,2.13.84,3.09,1.19s2,.79,3.07,1.16,2.12.72,3.14,1.14c.58.24,6.15,2.13,6.38,2.13s.28-1.48.32-1.67c.22-1.07-.25-.75,1-.75a32.88,32.88,0,0,0,4-.06A12.49,12.49,0,0,0,60,31.26a24.08,24.08,0,0,0-2.53-1.39v-.08h-.28v0l-.14,0H54.61l-.08,0v0h-.07v0a2.92,2.92,0,0,1-.44.06H53.7v-.07h-.25l0,.39-.66-.39h-.29l.79.5,0,.08-.9-.58h-.17l.06-.07-2.93-1.86.4,0,.18,0V28l.13-.13.54.27-.18-.26.39.1,0-.11.89-.08.81,0,0,.07.91.59.05-.06c-.14-.28-.59-.37-.85-.6ZM53.69,33l0,.5h.14l.24-2.19.1,0L54,33.63l.35.15.13-1.18h.07l-.08,1.12h.07l.13-1.37L54.9,32v.44H55l.15-.43,0,.71.17-.15V33c.42-.12,0-.43.32-.81l-.09,1.12h.09l.18-1.25c.23.07-.06,1.12-.07,1.42.29-.07.31-1,.31-1.3h.08L56,34.47h.12l.19-1.63.09,0-.15,1.23v.5c.35-.09.13-1,.39-1.36l-.14,1.55-3.1-1.25,0-.8h.07v.68h.12l0-.25.27-1.86h.09Zm-.07-3.88H75.19V6.33H53.62l9.55,11,.37.41-.37.42Zm22.21,1.28h-25l.92-1.05L61.84,17.74,51.73,6.11l-.92-1.06H76.47V30.43Zm0-3.2-9.08.46,9,.42Zm0-1.83-9.08.47,9,.41c0-.29,0-.59.08-.88m0-1.82L66.79,24l9,.42c0-.3,0-.59.08-.88m0-1.83-9.08.47,9,.41c0-.29,0-.59.08-.88m0-1.83-9.08.47,9,.41c0-.29,0-.58.08-.88m0-1.82-9.08.46,9,.42c0-.29,0-.59.08-.88m0-1.83-9.08.47,9,.41c0-.29,0-.58.08-.88m0-1.82-9.08.46,9,.42c0-.3,0-.59.08-.88m0-1.83-9.08.47,9,.41c0-.29,0-.59.08-.88m0-1.83-9.08.47,9,.42c0-.3,0-.59.08-.89m0-1.82-9.08.47,9,.41c0-.29,0-.59.08-.88m0-1.83-9.08.47,9,.41ZM497.4,30.43H473.15V5.05H498.8l-.92,1.06-10.1,11.63,10.1,11.64.92,1.05Zm-23-1.28H496l-9.56-11-.36-.42.36-.41,9.56-11H474.43V29.15Zm-.6-1,9-.42-9.08-.46Zm-.08-2.71c0,.29.05.59.08.88l9-.41-9.08-.47m0-1.82c0,.29.05.58.08.88l9-.42-9.08-.46m0-1.83c0,.29.05.59.08.88l9-.41-9.08-.47m0-1.83c0,.3.05.59.08.88l9-.41-9.08-.47m0-1.82c0,.29.05.59.08.88l9-.42-9.08-.46m0-1.83c0,.3.05.59.08.88l9-.41-9.08-.47m0-1.82c0,.29.05.58.08.88l9-.42-9.08-.46m0-1.83c0,.29.05.59.08.88l9-.41-9.08-.47m0-1.83c0,.3.05.59.08.89l9-.42-9.08-.47m0-1.82c0,.29.05.59.08.88l9-.41L473.75,9m.08-1,9-.41-9.08-.47Zm-.08,24.8H75.22V2.65H474.39V32.82ZM76.51,31.53h396.6V3.93H76.51Zm-.64-.79,197-.26v-.3l-197-.38Zm0-25.08,197-.26V5.1l-197-.38ZM473.78,29.8l-202.14.38v.3l202.14.26Zm0-25.08L271.64,5.1v.3l202.14.26Z"/></g></g></svg>