<svg xmlns="http://www.w3.org/2000/svg" viewBox="0 0 549.59 38.5"><defs><style>.cls-1{fill:#fff4e4;}.cls-1,.cls-2{fill-rule:evenodd;}.cls-2,.cls-3{fill:#7c6742;}</style></defs><title>title_5</title><g id="Layer_2" data-name="Layer 2"><g id="Layer_1-2" data-name="Layer 1"><path class="cls-1" d="M83.3,11.51l.06,0a15.83,15.83,0,0,0,5.29.95h1c3.42,0,10.15-1.66,13.65-2.39l1.42-.31,1.5-.22H444.17l2.06.3a29.69,29.69,0,0,1,3.49.75,55.33,55.33,0,0,0,11,1.87h1a19.07,19.07,0,0,0,4.52-.65l.83,1.63A82.08,82.08,0,0,0,455,22.17c-.5.44-1.11.92-1.11,1.65v.1a1.66,1.66,0,0,0,.89,1.48c-.25.3-.46.63-.65.9s-.52.8-.8,1.18a3,3,0,0,0-.42.82h0c-.65.37-1.5.81-1.78,1.55l-1.5.57a2.54,2.54,0,0,0-1.52.44h-.34a1.44,1.44,0,0,0-.46,0,2.36,2.36,0,0,0-2.68-.53,2,2,0,0,0-.93.68H106.74a2.44,2.44,0,0,0-2-.88l-.65.07-.26.17a2.94,2.94,0,0,0-.62.52l-.15-.05a3.57,3.57,0,0,0-2.28-.16l-.16,0-.21-.09,0,0-2-.75c-.28-.74-1.13-1.18-1.78-1.55h0a2.56,2.56,0,0,0-.42-.82c-.27-.38-.53-.79-.79-1.18s-.4-.6-.65-.9a1.66,1.66,0,0,0,.89-1.48v-.1c0-.73-.61-1.21-1.11-1.65a82,82,0,0,0-12.56-8.92Z"/><path class="cls-2" d="M507.6,21.3c-.05.21-.14.65-.37.65-.06,0-.27-.21-.38-.28,0-.44-.31-1,.19-1h.1c.31,0,.32.37.46.65m-1.6-.36c-1.28.29-.47.28-.83,1,.24.27.44.65.94.65a.85.85,0,0,0,.77-.39ZM502.65,24c.45-.3,2.2-.86,2.24-1.4a3.13,3.13,0,0,0-.81.22c-.35.2-.37.38-.54.49-.42.28-.9.15-1.27.69h.38m-1.59.66c.39-.1.79-.22.84-.66a1.09,1.09,0,0,0-.84.66M514,18.52,513.2,20l.11.06a4,4,0,0,0-.56,2c-.12,1.1-.38,1-.41,1.91l-.45.33.11.37h-.28s-1-.53-1.16-.62c-.43-.19-1-.31-1.18-.69-1.43,0-1.11-.84-1.59-.84h-.09c-.31,0-.07.08-.47.18a2.51,2.51,0,0,0,1,1c.34,0,.27-.19.18-.37l.06-.1,3.78,2.25a17.94,17.94,0,0,1,1-3.56c.52-1.07.54-2.37,1.12-3.45ZM497.69,33.36c-.14.19-.75.61-.75.93a.48.48,0,0,0,.28.28c.41,0-.18-.13.36-.47.32-.2.13-.26.39-.63Zm51.9-31.22c-1-1.47-2.4.09-3.56-.47a2.51,2.51,0,0,1-2.15.47c-.78.41-1.5,0-2.43.65l-.74-.11c-.2,0-.47.36-.66.49a17.27,17.27,0,0,0-3.35.76c-1.23.54-1.68.14-3,.45-.13-.09-.21-.21-.37-.18l-1.4.21-1.22.09-.36.27a1.25,1.25,0,0,0-.48-.11A40.11,40.11,0,0,0,526,5.74a17.41,17.41,0,0,1-1.8.64,6.2,6.2,0,0,0-.93.28,4.75,4.75,0,0,1-.78.43V6.91l-.64.23-.13.23c-.24-.06-.14-.09-.35-.09a2.76,2.76,0,0,0-.94.47c-.75-.16-1.21.52-1.72.71a7.2,7.2,0,0,0-1.77.75c-.32.19-.51.31-.84.47-.58.28-.42.31-.76.55a5.24,5.24,0,0,1-.84.48c-.49,0-.05-.34-.05-.72V9.52c0-.3-.26-.44-.56-.46a6.16,6.16,0,0,0-.52-2.76c-.26-.53-.16-.91-.42-1.36s-.61-.55-.65-1L510.5,2.79h-1.4l-.27.21c-.57-.27,0,.06-.48,0l-.84-.1a3.36,3.36,0,0,0-1.62,1.74c-.18.66-.63,1.47-.89,2.3a6.53,6.53,0,0,0,.07,2.89,2.57,2.57,0,0,0,.36,1.33,1.11,1.11,0,0,1,.3,1.09h-.37c-.34,0-1.87.4-1.87.94,0,.36.66-.08,1.12-.09l-1.07,1-.61.09.13-.59-.32,0s-1.77.77-1.88.83c-.54.28-1.07,1-1.67,1l-.06-1c-.06-.17-.13-.17-.13-.38v-.37c0-.49.37-.61.37-1.41.64-.42.47-1.28,1.13-1.12.13-.19.28-.24.28-.46,0-.05-.14-.21-.19-.28.45-.52-.31-2.33-.56-2.81-.69-1.36-.91-.92-2.16-1.49-.42-.19-.47-.43-1.18-.69s-.86-.3-1.35-.52-1-.39-1.3-.57-.71-.13-1.21-.37a2.79,2.79,0,0,1-2.06.56c-.68.45-.7,0-1.53.34l-1.53.53a26.58,26.58,0,0,1-3.11.9l-.11.28c-.68-.33-1.29.35-1.77.46-.65.17-.39.25-.83.39s-.63,0-.9.21a15.23,15.23,0,0,1-1.48.86c-.73.3-1.05.85-1.46.89l.09.28c-.39-.11-.16-.19-.46-.19h-.09c-.56,0-1,.64-1.59.65l-.11.28-.05-.1-3.13,1.85-.45,0c-.28.41-1.26.67-1.66,1-.84.61-1,.08-1.52,1.1h-.47c-.38.25-1,.4-1,.93a.81.81,0,0,0-.93.19c-.51.48-.31.2-.78.53-.17.13-1.54,1.06-1.56,1.06h-.38c-.15.57-1.08.71-1.64,1-.32.16-.39.44-.65.65a7.22,7.22,0,0,1-.81.51c-.28.18-.52.5-.7.61a4,4,0,0,0-.79.52c-.37.29-1.28.76-1.3,1.32-.91,0-.93.63-1.53,1.08a9.45,9.45,0,0,0-1.37,1.25v.1a.36.36,0,0,0,.38.37,18.09,18.09,0,0,0,3.37-1.59l.55.12c.18-.69.84-.4,1.41-.4a14.74,14.74,0,0,0,3-1.21c.64,0,1.05-.08,1.31-.47l.05.1,1.39-.69-.51-.25-1.5.54c.27-.7,4.59-1.92,5.15-2.69l-.2-.27a56.8,56.8,0,0,1-7.19,3.45l6.28-3.44c.87.17,1.23-.77,1.58-.77s.09.4.09.75l-.2.27c.48,0,.66,0,.67-.55.27.06.16.09.37.09a6.35,6.35,0,0,0,2.34-1.21c1.1,0,1.6-.83,2.43-.84l-.21-.36c.27-.14-.05-.11.31-.11.17,0,.24.21.28.37l1.73-.84,1.51-.73,1-.6.52-.07.43-.34,0,.09-1.3.89.07.11,1.11-.41c-.23.39-3.89,1.9-4.61,2.14a19.65,19.65,0,0,0-2.42.94c-.36.19-.79.37-1.13.56l-1.18.51.11.27h-1.05l-.21.46c-.76.08-3.52.88-3.71,1.6-.27-.06-.16-.09-.38-.09s-.22.19-.28.28c.17.11.17.19.38.19.49,0,1.28-.32,1.4-.75a1.51,1.51,0,0,0,.75.18,1.43,1.43,0,0,0,.93-.28.52.52,0,0,0,.38.1c.21,0,.2-.08.37-.19a13.11,13.11,0,0,0,3.65-1.4h-.47c.25-.93,1.15-.39,1.22-1.12h.74a10,10,0,0,0,2.72-1.31c.75,0,3.29-1.47,4.05-1.84,1.3-.63,2.43-1.53,4.27-1.53l1.38-.44.29-.13,0,.12,2.53-.57,0-.1.46.12-.22.22.32,0c.47,0,2.54-1.11,2.8-.75-.28.06-1.37.5-1.78.65a3.32,3.32,0,0,1-1.87.38l.42-.31c-1.14.23-2.41.57-3.52.85L486,12.5c-.62.17-1,.38-1.58.56-.83.27-1.94,1.08-2.9,1.5a20.69,20.69,0,0,0-2.88,1.51c1.35,0,1.16-.66,2.24-.75a13.88,13.88,0,0,1-1.65,1l-1.53,1c-.2,0-.12,0-.37-.09-.26.24-.35.56-.85.56a1.57,1.57,0,0,1-.46-.09c.48-.67,2.32-.83,2.52-1.59l-3.86,1.5.5.09L475,18c.3.63,0,.83.84,1a.94.94,0,0,1,.56-.19h.19a.61.61,0,0,1,.37.09,1.21,1.21,0,0,1,.47-.18l.37.18,3.87-1.22,1.19-.33c.08,1,.38.63.74,1.18l1.51-.12,0-.11,1.15.79-.06.09c0,.6.59,1.59.75,1.13h.18c.06.61.4.4.66.74.25-.12-.08-.09.28-.09h.09l.37,0a9.1,9.1,0,0,0,.29,1v.28l.28.09c0,.77.67.9,1.31.75v.19h.46l.47,0,.56,0,.23,1.22,1.37,0c-.61,1.06-.95,2.42-2,3.13A16.65,16.65,0,0,0,490,28.82c-.68.57-.73.24-1.35,1.17h-.56c-.41.62-1.49,1-2.11,1.54-.41.32-1.49,1.61-1.91,1.64-.05.56-1.34.78-1.4,1.4-.91,0-2.25,1.75-2.25,2.53a1.25,1.25,0,0,0,.6,1,5,5,0,0,0,1.18.32h.37a4.55,4.55,0,0,0,.66-.1v.19h.28c.26,0,.22-.07.28-.28a1.31,1.31,0,0,0,.47.09h.28l.74,0c.28,0,.25-.16.66-.16.2,0,.12,0,.37.09V38h.38a1,1,0,0,1,.56.19,1.77,1.77,0,0,1,.56-.09h.37v.18l.48-.17,1-.14.36.13.27-.2h.95l.27-.2c.31.15.93-.17,1.24-.35s.73-.06,1.32-.26.77,0,1.26-.52c.33-.33.73-.4.77-.91.44-.05.76-.79.94-1.13l-.47-.09-1.45,1.36c.12-.66,1-1.23,1.37-1.71a10.7,10.7,0,0,1,1.29-1.71c.13.23.1,0,.1.19s0,.12-.1.37l.11.19.27.09c.33-.17.5-.65.84-.65h.37a3.17,3.17,0,0,1,1.31.28l.27-.2c.55.36.76-.11.76.76l1.12.38c.24-.13,1.5-.92,1.5-.56,0,.19,0,.12-.09.37.14.16.2.37.46.37h.1c.56,0,.48-.29.65-.65.48.13.55.56.84.56h.38a2.11,2.11,0,0,0,1-.94c0-.35-1.88-1.31-2.25-1.4.12-.45.58-.08,1.31-.46l1.55,1.08.41-.06c.17.12.17.19.38.19s.14-.19.47-.19.28.24.28.56c.17.12.16.19.37.19l.19-.09c-.12-.17-.19-.17-.19-.38v-.28c.38.09.44.28.66.28s.28-.06.28-.28v-.28c.2-.05.28,0,.28-.28v-.37c0-.26-.31-.45-.47-.56l-.38.08c-.29-.44-.85-.46-1.58-.46l-.17-.2.6-.77a8.93,8.93,0,0,0,1.21-.65c.38-.29,0-.23.52-.42s.31-.07.57-.36l.91-1c.28-.3.43-.7.73-1a4,4,0,0,0,.78-1.09c.11-.21.28-.33.38-.55s0-.39.23-.71A5.61,5.61,0,0,0,515.92,21c.13-.19.29-.24.29-.47s-.17-.31-.38-.37c.11-.42.11-.27.47-.19l.1-.37a6.66,6.66,0,0,0,.89.06c.32-.08.21-.19.69-.25a13.88,13.88,0,0,0,1.52-.35c.94-.23,2-.79,2.78-1s4.35-2.57,4.4-3.18l.07.09L529,13.24l-.36-.22.28-.34.21.3c.59-.14.89-.23,1-.84h.37c.21,0,.21.07.38.19l.27-.2h.47l.2-.27a15.35,15.35,0,0,0,3.82-1.6c.59.28,1.1-.54,1.61-.64,1.23-.24.74-.57,1.76-.57a12.35,12.35,0,0,1,2.59-1.81c.29-.16.39-.38.61-.51s.51-.26.73-.4c.43-.27.93-.49,1.36-.78A9.89,9.89,0,0,1,547.14,4a13.11,13.11,0,0,0,1.5-.65,1.34,1.34,0,0,0,1-1.2M510.54,5.28l-.79-.9H510a.63.63,0,0,1,.38.19Zm31.38.41c-.93,0-1.19.49-1.5,1.13l-.37-.19c-.22.3-.27.14-.46.37s-.14.38-.31.54c-.37.34-1,.18-1.11.69l-.48-.31-.52.57.09.41-.8.23.32-.57-.47-.09,0,.1L535,9.52h.19v.19h-.75V9.43a11.59,11.59,0,0,1-1.83.51,3.79,3.79,0,0,0-1.54.8h-.37c-.17.11-.17.19-.38.19h-.46c.15-.58,1.3-.62,1.74-.88a2.91,2.91,0,0,1,2-.61l.26-.66c.25.06.48.28.75.28a1.23,1.23,0,0,0,1.12-.56c.41,0,.43,0,.51-.31l1-.72c.12.06.1.09.29.09.49,0,1.45-.87,1.68-1.21,1.36,0,1.8-1.31,2.52-1.5l0,.25,1.39-.64.09.09s-.32.19-.37.22c-.25.13-.16.13-.37.29s-.45.15-.58.63M505.69,6.86l1.07-.79a4.26,4.26,0,0,1-.93,1.21Zm20.43.32L525,7.09l-.19,0h-.57V7c.39,0,.29-.18.77-.24.22,0,.75.15,1,.13s2-.45,2-.45h.46c.27,0,.29.11.29.37-.74,0-1.62.38-2.16.38Zm-2.72.76c-.66,0-.59,0-1.3,0a1.79,1.79,0,0,1,1.21-.37c.36,0,0,0,.28.09a1.63,1.63,0,0,1,.75-.18h.09c.17,0,.26,0,.28.18-.53.13-.51.32-1.31.29m-23.75.65c-.4-.05-.27-.11-.46-.47h-.38V7.93h-.28c-.23,0-.4.29-.56.29s-.11,0-.37-.1l0-.22.33-.34h.38a1.45,1.45,0,0,1,1.3,1M524.06,9a1.82,1.82,0,0,0-.56-.09,2.54,2.54,0,0,0-1.21.22L521.8,9l-.26.13-1.22-.11V8.85l1.95-.31.94,0a7.56,7.56,0,0,0,1.5-.09c.55-.07,1.2-.22,1.49.18-.33.08-.31.19-.65.19l-.1,0-.93-.12-.47.28m-34.22.84c.16.17-.17-.16,0,0m.26.81-.08-.06v-.18h-.56a19.51,19.51,0,0,1-2.62,1l0-.09.69-.19.11-.23.73-.33-.28-.09c-.39,0-.45.19-.94.19l-.31,0,.33-.4.55-.23a1.72,1.72,0,0,0,.56.09H489c.29,0,1.09-.4,1.13-.84h-.56a.58.58,0,0,0-.38.1.94.94,0,0,0-.65-.28c-.4,0-2.82,1.88-3.74,2,.14-.55.61-.24,1.08-.79a5.13,5.13,0,0,1,1.21-.66c.42-.21.59-.43,1.13-.74s-.41-.36,1.1-.7l-.23.64,1.52.09-.12-.19.1-.08.21.31.36-.22c0,.09.06.19.18.19.39,0,.45-.22.66-.21l.84.12c-.63.39-2.19.26-2.25.91l-.65.11V10l.27.12.79-.38,0-.09a2.54,2.54,0,0,0,2.17-.11l.82-.27.47.1v.28c-.25-.06-.18-.1-.38-.1a7.81,7.81,0,0,0-2.15.66c-.32,0-.33-.13-.56-.11l-.91.13Zm-15.66,1.47c-.49.19-.76.45-1.34.71a19.91,19.91,0,0,1-2.71,1.41v-.28a11,11,0,0,0,2.93-1.7l.85-.36,0-.09A5.92,5.92,0,0,0,476,11a8.85,8.85,0,0,1,.84-.47c.51-.17.59-.09.84-.56,1.35,0,2.55-1.46,3.93-1.49v.37l-.47-.09c-.21.31-4.62,2.35-5.33,2.71a12,12,0,0,1-1.37.59m38.7-3.41L513.05,10l.4.23.23,1.31c-.17.11-.16.18-.37.18h-.19c-.53,0-.12-.57,0-.75l0-.55c0-.19-.09-.23-.17-.38l-.12-1.13.21-.29Zm-16.76,2.07c-.26,0-.64-.46-.29-.53.07,0,.8-.13,1-.14l.48-.17V9.6l.25.18,1.51-.72c-.61.91-.37.49-1.25,1.08a4.86,4.86,0,0,1-1.74.6m23.48-1.07-1.5-.33V9.15h1.12c.36,0,.93,0,1,.37Zm-8.42-.24c0,.21-.08.21-.19.4l-.53-.12.06,1.12c-.7,0-.53-.2-.75-.65.24-.49.45-1.34,1-1.5.1.38.38.39.38.75m7.38.49c-.83.7-.67.17-1.4.24l-1,.11c.35-.52,1.07-.3,1.77-.43Zm-20.29,2.59c-.21,0-.28-.06-.28-.28s.43-.66.56-.93c-.45,0-1.17.72-2.33.75.39-.28.91-.36,1.28-.68s.51-.65,1.26-.81l0,.59.51-.78-.16,1.11.05.29c-.35.09-.62.74-.84.74m8-1.21-.27.28-.22-.77.39-.35Zm-18.51,2.43v-.19a25.38,25.38,0,0,0,3.68-1.36c.61-.21,1.51-.37,2-.61.29-.14,1.58-.66,1.88-.74-.11.44-1,.78-1.43,1-.93.45-1,.2-2,.44a7.3,7.3,0,0,0-1.6.84,8.62,8.62,0,0,1-1.9.62Zm6.67-1.56a13.37,13.37,0,0,0,1.37-.78v.47L493.48,13c.12-.44.78-.65,1.25-.81m-13.22.44c.31-.27,1.48-.85,1.69-.56l-1.69.56m48.07-.56a1,1,0,0,0-.56.18v.47l-.11-.18h-.36c-.45,0-.25.5-.84.66.1.48.11.24-.34.41s-.16.23-.49.45-.74.63-1.14.63a2.33,2.33,0,0,1,.79-1.17c.13-.1,1.19-.76,1.2-.77.42-.48.58-.51,1.3-.66.55-.12.78-.42,1.48-.48l-.45.22-.13.24h-.35m-46,3.74A9.55,9.55,0,0,1,481,17.06c-.51.22-2.44,1.22-2.77.78.17-.08.86-.28,1.05-.35.83-.29.35-.14.9-.51.23-.15.75-.23,1-.36s.41-.29,1-.54c.33-.15.62-.3.95-.44.54-.24.43-.4.8-.6a6.73,6.73,0,0,0,1-.44c.17-.16.58-.68.81-.68s0,0,.28.09c.59-.4,2.91-1.95,3.65-2-.2.73-5.5,3.06-5.7,3.83Zm30.72-2.45.14,0v-.28l.1-.05.09.42.29.65v1a.88.88,0,0,1-.38.75c-.53-.39-.37-1.09-.47-2-.06-.55-.64-1.31-.37-1.87l.11,0Zm-7-1,.07.45-.05.2c-.9-.24-.53-.91-.47-1.68.42.11.28.21.28.75Zm-10.36.18.27,0,.76-.26c-.05.64-.24.14-.56.75-.7,0-1.17.38-1-.23ZM509,15.6c-.17-.17.16.17,0,0m.28,1.4c-.2.13-.25.28-.47.28h-.56c-.3,0-.77-1.09-.72-1.4l.11-1.64.68-.72-.07-.07c.41.3.09.05.09.28,0,.68-.37.9-.37,1.68a7.81,7.81,0,0,1,.37,1.59c.38-.1.28-.07.28-.56a3.57,3.57,0,0,0,.37-1.22c.14-.83.15-.62.77-1l-.2-.27a5.55,5.55,0,0,0,1.87-1.69,2.2,2.2,0,0,1-1.5,2v.56c0,.08-.49.92-.54,1Zm16.83-4.2a2.72,2.72,0,0,1-1,2c0-.64.86-1.21.54-1.89l.49-.54Zm-29.55,1.3c-.61,0,.06-.56.19-.74l0,.11,1.53-.43.4-.24a1.91,1.91,0,0,1-.66,1.49v-.93c-.56,0-.75.74-1.49.74m-7.95,1.31a35.85,35.85,0,0,1,4.86-2.15h.19c.36,0,0,.18.65.19l-2.44,1.12.11-.37c-.53.12-1.27.31-1.51.71l-1.86.5m.58-.91c-.47.37-1.64,1-1.79,1.57.72.33,1.85-.2,2.61-.38-.26,1.11-2.13.88-2.79.56V15.6c.34-.23.36-.4.8-.69a10.29,10.29,0,0,0,.91-.59,5.14,5.14,0,0,1,2.12-1h.19a.51.51,0,0,1,.28.09c-.33.49-1.8.65-2.32,1.05m34.87-1,.26.21-.49,1.69-.1-.29.15-1.39Zm-27.88,1.41c0-.31.12-.25.29-.18a.67.67,0,0,1,.56-.38c.17,0,.25,0,.28.19l-1.13.75Zm-3.34,1.4-.12-.37,1.78-.93h.56c-.62.54-1.44.51-1.87,1.31ZM498,16c-.06-.28.19-1.59.47-1.59s.28.07.28.28v.19c0,.81-.43.81-.57,1.32l-.37-.1v.18h-.19L497.5,16Zm-10.58-.9c-.14.62-1.73,1-2.32,1.18,0-.64,1.22-.8,1.68-1.49Zm9.37.62c.1-.38.55-.55,1.06-.53l-.34.52Zm-15.82-.4-.1,0,.32-.08Zm17.78,1.15a3.82,3.82,0,0,1,1.78-1.31c-1.35,1.17-.5.75-1.31,2l.66.58-.38.08.09.25-1.5-.06c.19-.69.69,0,.66-1.5m23.56-1.12c0-.36,0,0,.1-.28.14.1.28.12.28.37a.9.9,0,0,1-.28.66,1.35,1.35,0,0,1-.1-.47v-.28m-.92.65-.85,1.5a10.24,10.24,0,0,0,.37-1.68v-.27l.28-.11Zm-35.92.66a.66.66,0,0,0-.28.09,2.74,2.74,0,0,1,1.12-.75.5.5,0,0,1,.28.1l-.37.45Zm21.69.28c.24.35.2.63.48.83s.57.3.87.52l1.37-1.06,2.43.27c.22,0,.24,0,.46-.09l.66.46c-1,.23-5,2.81-5.24,2.81s-.07-.24-.73-.24l.45.8c1.3-.11,2.2-1.33,3.43-1.9a14.19,14.19,0,0,0,3.4-2.12,6.13,6.13,0,0,0-2.81-.38c-.64,0-1.11-.26-1.77-.28.31-.43,2.14-.28,3-.28l.38.07,1.12-.16h.09c.45,0,.19.45.93.47-.07.93-2.09,3.89-1.65,4.92l-.52,1,0,.34-.67,1.62V25l-.2.27v.56l-.2.41-1.2-.49-1.31.17c-.07,0-1.5-.18-1.59-.14l-2.9-.14h-.19c-.26,0-.17,0-.28.19l.3.08-.58.1c-.1,0-.19,0-.37-.09.13.47,1.4.45,2,.38l4.76.09h.38c.28,0,.31.16.38.45l-1.69.16h-1.69l-3.08-.14a.58.58,0,0,0-.39.1l-.25-.21,0,.1-3.46,0-3.46-.35c0-.37-.09-.22-.09-.47,0-.45.66-1.51.66-2.33l.11.05.63-1.45a1.36,1.36,0,0,1-.09-.47,3.48,3.48,0,0,1,.62-1.12l0-.75a4.18,4.18,0,0,0,.67-2l.27-.2A1.67,1.67,0,0,1,502,15.74l1.37.15a3.7,3.7,0,0,0,1.51.08l.09,0,1.69,0h.09c.15,0,.28.06.28.19,0,.57-1.62.3-2,.29-.51,0-1.86.18-2.24.18h-1.31c0,.47-1,2-1.12,3-.09.87-1,2.45-1,2.9a1.3,1.3,0,0,0,.1.46,3.28,3.28,0,0,0-.76,1.77c-.26,1.65-.77,1.21.66,1.31.9.07,1.64,0,2.25.1a23.77,23.77,0,0,0,2.52-.09c-.32-.44-2.49,0-3.36-.47a1.36,1.36,0,0,1-.47.09c-.44,0-.21-.36-.2-.68l-1.2.4V25a7.84,7.84,0,0,0,.47-1.15l.93-2.93-.09,0a12.23,12.23,0,0,0,1.26-3.24l.32-.6c.8.22,3.63,3.67,4.49,3.28a3.72,3.72,0,0,0-1.71-1.75c-.79-.36-.6-.52-1-.75s-.76-.29-.91-.93l4,.06a1.25,1.25,0,0,0,.46-.09m-17.76,1.31c1.12,0,1.48.79,3,0l.31.56-.45.2-1.12-.07c-.2,0-.22.08-.38.19-.67-.36-1.87-.06-1.87-.66s1.71-2.16,2.53-1.87c-.29.4-1.89,1.06-2.06,1.69M486,17l1.17-.46c0,.91-1.18,1-2.05,1,.05-.46.42-.47.93-.47Zm32.13.1c-.32.47-.36.8-.85,1.13a5.6,5.6,0,0,1,.56-1.69c.21,0,.19.36.29.56m-22.82,1.59c0,.34.52.44.84.47v.18l-1-.09c-.05-.09-.37-.55-.37-.56A2.07,2.07,0,0,1,496.57,17c-.13.37-1.31.94-1.31,1.68m24.59-1.3v.18l-.56.28c0-.44.19-.46.19-.93v-.28c0-.36,0,0,.09-.28.19.13.15,0,.19.28Zm-32,.09c-.07.91-2.45.72-2.71.37l2.71-.37m9.54,1.4a1.82,1.82,0,0,1,1-.65c-.15.63-.33.35-.47.74Zm-15.05-8.79a30.59,30.59,0,0,1-4.21,2.07,2.64,2.64,0,0,0-1,.59,5.3,5.3,0,0,1-1,.58c-.77.43-1.32.69-2,1.16l.1.37h-.28l-.08-.24-.39.71c-.09-.11-.16-.28-.28-.28a5.17,5.17,0,0,0-1.59.84,8.26,8.26,0,0,0-2.62.93c-.35.2-.81.46-1.17.7s-.88.27-1.35.52l.19.37h-.19v-.28a4.63,4.63,0,0,0-2.15,1.22,2.27,2.27,0,0,0-1.59.93h-.28c-.29,0-.41.23-.52.39l-.57.35.06.1a1.18,1.18,0,0,0-1.31.94L460,22l-.22-.35c.53-.73.67-.5,1.45-.89.35-.17,1.35-.76,1.26-1,.53,0,1.44-.78,1.87-1s.38-.44.89-.61.71-.3,1.07-.42a8.1,8.1,0,0,0,2-1c.56-.52,1.52-.53,1.89-1.08l.38.06,1.5-.83c-1,.09-2.2.93-2.84.92l.32-.54a.38.38,0,0,0,.28.09l.33-.07.74-.4,1.08-.56-.19-.37h.28v.15L473,14l2-.9v.12l.21.25.49-.18-.2-.56c.69,0,1-.5,1.34-.62.64-.19,1.11-.4,1.56-.5v-.47l.25,0,.22.26c.5-.33,2.29-.88,2.43-1.4.41.1.78-.15,1.21-.37.85-.45.89-.18,1.31-.38-.17.63-.76.27-1.21.94Zm10.15,11.19c-.62.11-1-.63-1-.81,0-.43,1.17-1.29,1.59-1.4-.34.46-1.15,1.07-1.22,1.87l1.78-.28c-.13.47-.61.52-1.16.62M489.56,21a.48.48,0,0,1-.28-.28,2.48,2.48,0,0,1,1.21-.84,4.1,4.1,0,0,1-.49.53c-.17.18-.3.59-.44.59m5.21-.38.12-.38.56.19c-.36.54-.43.42-.94.76-.53-.26-.41.29-.55-.27Zm1,1.78h-.28c-.33,0-.81.71-1.38.7L494.8,22l.37.1c0-.13.78-.93,1.12-.93s.2.07.37.18c.44-.23,1-.25,1.12-.74h.28c.28,0,.11.08.47.18-.13.51-.93.63-1.39.86-.28.14-1.12.84-1.41.92ZM462.34,21h0Zm33,3.86c.12.07.38.13.38.28s-.57.47-.75.54l-.47-.07.84-.75m-.84,1.31c.86,0,.37-.31.94-.37,0,.32-.07.65-.38.65s-.17-.06-.56-.09Zm-2.74,2.41A20,20,0,0,1,490,29.71c.15-.54,1.67-1,1.69-1.87.62,0,.54-.4.84-.83l.55.11c-.09.34-.5.39-.75.62s-.23.53-.58.83m15.08.12v-.25l.65,0a.59.59,0,0,1,.38.11l.46-.29.4.07-2.08.86a5.6,5.6,0,0,1-2.25-.18v-.19h.3l-.1-.39.36.12v-.28c.26-.06.18-.1.38-.1a.5.5,0,0,1,.28.1l-.16.26-.18-.23-.4.42.27.11c.25-.06.18-.09.38-.09a1.82,1.82,0,0,1,.64.16Zm-18.32,4.48c-.76.06-4.39,3.46-5.52,3.55.07-.1,2.56-2.07,2.71-2.15a13.55,13.55,0,0,0,1.44-1c.39-.24.19-.36.63-.58s.54-.14.55-.67c.57,0,.8-.45,1.1-.77s.06-.37.34-.59.38.08.43-.51h.28a28.5,28.5,0,0,0,2.62-2.15c.17.81-1.16,1.17-1.22,1.87l-2.71,2.43c-.5,0-.55.13-.65.56m15-3.37.26-.1L505,30c.17-.11.17-.18.38-.18h.26l.11-.27c.17.11.17.18.38.18h.74a1.31,1.31,0,0,0,.47-.09c-.19.54-1.38.47-2,.47-.17.11-.17.18-.38.18h-.46c-.33,0-.15-.18-.47-.18h-.28c-.38,0-.49.08-.56.37.38,0,.21-.09.56-.09.17,0,.24.21.28.37a16.39,16.39,0,0,1-1.86-.28c-.78-.14-1-.69-1.63-.53l-.81-.78c.78.19,1.73.94,2.13.77l.3.26c.27,0,.8.09.86,0,.28-.28-.22-.36-.49-.3-.42-.57-1.43-.57-1.51-1.27ZM502.55,31c.36,0,0,0,.29-.1l.29.21.26-.19.57.18a.73.73,0,0,1-.66.28c-1.05,0-2.89-.65-3.06-.44l1.47.62a5.5,5.5,0,0,1-1.12-.18c-.36,0,0,0-.26.06l-.49-.34c-.17,0-2.13-.6-2.24-.66-.39-.19-1.49-1-1.5-1.51l.75.11c-.1.43.18.64.75.65.26.49.51.52,1.12.66-.36-.55-1.22-.72-1.4-1.4l.18-.1a3.31,3.31,0,0,1,1.07.72c.3.3.85.38,1.26.6a6.1,6.1,0,0,0,2.72.83m-5.67-.23.71.58-.63.22-.11.27V31.5l-.28-.1h.56v-.19c-.91-.21-1-.51-1.22-1.4h.19c0,.39.46.62.84.65Zm-4,.23h-.47c-.15,0-.28-.05-.28-.19a.22.22,0,0,1,.19-.18c.32,0,.2.05.56.09Zm1.86.65.2-.55.56.18.37-.18v.18c-.75.06-.24.5-.84.66v-.28Zm5.81.19s0-.07,0-.05-.1,0-.15,0h-.65c-.56,0-1.88-.24-2.06-1,.52.14.57.48,1.4.57a4.18,4.18,0,0,1,1.59.46Zm4,.1.19-.1.39.26-1.14.21c0-.43.07-.31.38-.48Zm-.47.58c-.1.38-.84.8-.84.26v-.18l.37-.17ZM493,33.19c-1,.65-3.64,3.35-4.76,3.44V37l-.66.09c.13-.49,2.41-1.81,2.91-2.23.9-.75,1.57-1.94,2.89-2l.23.33,0,.17Zm.57,2.22c.52.33.52-.26.85-.45s.53-.28.64-.76l.07.07.82-.78.05.43c0,.24-1.37,1.28-1.65,1.63l-.86.73c-.29.23-.62.62-.95.63.15-.55.27-.42.63-.68s.28-.7.3-.72l.1-.1m-7.39,1.31c-.17-.16.17.17,0,0m6.25-4.57c-.89.2-1.49,1.47-2.29,1.52l-.69.9a3.86,3.86,0,0,0-1.71,1c-.55.55-1,.63-1.56,1.14.72,0,2.84-1.65,3.09-1.68-.13.46-.93.63-1.18,1a2,2,0,0,1-1.44.8c-.05.19-1.3,1.08-1,.06l-1.67.78a7.16,7.16,0,0,1,1.48-1l.74-.48c.49-.38.64-.13.68-.63.92-.08.95-.88,1.59-.94v-.18h-.28c-.36,0,0,0-.28.09v-.37c.45.1,1.65.17,1.4-.47h.47c.23-.35.32-.23.58-.54a4.66,4.66,0,0,0,.39-.83,7.49,7.49,0,0,1,1.53-.78Zm2.25,4-.1-.07.51-.26Zm-12,1A9.42,9.42,0,0,0,485,35.87a18,18,0,0,1,2.06-1.3l-2.31,1.88-1.5.88,0,.23H483v-.18a1,1,0,0,1-.56.18h-.09c-.63,0,.14-.62.31-.75Zm10.4-2.43c-.17.16.17-.17,0,0m1-.1c-.39.11-1.57,1.45-2,1.69s-.7.4-1.14.72a4.34,4.34,0,0,1-.55.2,2,2,0,0,0-.34.13l-.11.07s-.07.12-.1.09l-.11-.08c.55-.29,1.18-.59,1.33-1.23L492,36V35.6l.07.1,1.1-.87-.24-.07v-.19h.38c.51,0,.63-.34.84-.65l-.2-.05.29,0c0-.37.27-.43.66-.46-.14.5-.75.47-.75.84v.28m40-23.51-.26.11-.06.23.13.56c.44,0,.43-.39.53-.83Zm-.79.33c-.38.15-.74.28-1,.37h0c.07.12.13.38.28.38.31,0,.6-.39.74-.76m1.62-.71.1.2,0-.23Zm-.42-1.63h0m-.3-.12a.82.82,0,0,0,.19.09.82.82,0,0,1-.19-.09M534,8.81h0a1,1,0,0,1,.21.1,1,1,0,0,0-.21-.1l.35.68h0Zm.75.24h0Zm1.44-.6Zm.8,1.31a3.91,3.91,0,0,1-.88.55,2.36,2.36,0,0,0,0,.34h-.28l-.14-.3-.23.39h.28V11l1.23-.33-.08-.06.13-.88m.25-1.07h0l0,.21Zm1-.56h0v0Zm-.4,1.35a2.2,2.2,0,0,1-.46.13l-.1.76c0,.21.06.25.11.47l-.77,1.2c.8-.19.38-1,1.33-1.11v.47h.47v-.28c0-.45.94-.17.94-1.31a8,8,0,0,0-.26-.82l-.05.07a1.47,1.47,0,0,0-.64.09l0,.28c0,.08.16.24.16.29a4.39,4.39,0,0,1-.75.74l0-1m1.42,2.67c0-.54.07-.82-.37-.94-.38,1.64-1.05.79-1.4,2.43.65-.05.25-.44.76-.73s.39-.55.83-.67c.12.25.09-.08.09.28v.09c0,.2-.4.57-.56.66,0,.34-.16,1.4-.47,1.4a.61.61,0,0,1-.37-.09l-.94.55a4.08,4.08,0,0,1-.84,1.69l.76-.73.07.08,0,.83c-.07.27-1,1.24-.3,1,.45-.18.54-.55,1.2-.87,0-.79.38-1.1-.37-1.12.1-.44.32-.56.65-.75.61-.35.36-.12.66-.75l.37.19a23.57,23.57,0,0,0,1.87-2.06l-.57-1.11-1,.65m.3,1.68-.39-.11-.38.64-.12-.07.24-1.11.07.08.9-.82Zm-4.6-2.24-.46.11a1.11,1.11,0,0,0-.1.45v.18l-.36.3.07.09c.23-.2.85-.56.85-.85Zm6,3.45c.39-1.47.12-.7.09-2h-.19c-.1.38-1.31,2-1.31,2.24s0,.17.1.28l.84-1.27.07.8h.4m-8.51-.93c-.35,0-.13-1.12-.84-1.12-.41,0-.64,1.73-.66,2.15V16a.94.94,0,0,0-.29.65v.1L530.49,18s0,.19,0,.28c-.72-.06-.26-.47-.75-.47-.21,0-.19.37-.3.54s-.19.08-.34.4c-.27.55-.57.63-.58,1l.81-.43,0,.34c.4-.11.28-.14.28-.66l.2-.17.47.43-.26,1.34c-.61-.28-.5.46-.88,1l.19,1c.62-.42.43-1.12.82-1.79a5,5,0,0,0,.69-1.75c.05-.16.29-2.19.29-2.21a2.09,2.09,0,0,1,.16-1.07c.15-.55,0-.45,0-1,0-.16.29-.42.47-.47l.38.55-.21.28c.3.61-.49,1,0,1.32l.11,0,.14-.85.24-.27-.19-.59c.08,0,1.34-.93.45-.93-.18,0-.06.19-.37.19M542,15c-.84.2-.83-.26-.94.74-.06.55-.5.67-.56,1.32.57-.15.07-.06.29-.37s.32-.21.49-.36.72-.49.72-1Zm-1.87,1.31c.44,0,.65-.67.75-1-.54,0-.71.51-.75,1m2.8,1.31c-.57.05-.29.26-.74.56,0,.47-.26.86.29.68.36-.12.45-.42.45-.87Zm-56.72,2.05a2,2,0,0,1-.06-.32l-.72-.09-.19,0a.38.38,0,0,0-.28.09.54.54,0,0,0,.56.28h.69m45.58-1.39c-.63.17-.65.56-.47,1.13a7.9,7.9,0,0,0,.39,1.39l.18-2.25Zm-3.82.55c-.19-.18-.55-.75-.84-.75-.73,0-.76,1.14-.75,1.69l.29-.09.1.58.29-1.42H528m9.63-1c.23-.06.64-.73.92-.95s.81-.51.58-1a5.36,5.36,0,0,0-1.39,1.42c-.24.67,0,.39-.5.9-.25.24-.51.34-.54.77l.45-.14c.27.59-.73.69-.73,1.16v.57a1.92,1.92,0,0,0-1.22,1.12l.33-.24,1.06-.46,0-.33c.9.07.28.13.74-.56l-.2-.27c.47-.69.45-.56,1.06-1a3.22,3.22,0,0,0,.92-1.14c.6,0,.58,0,.47-.47-1.05,0-.84.94-1.87,1.22l-.1-.57m-53.48,1.78a.54.54,0,0,0-.56-.28l-1.41,0-6,.73-3.09.06-.29-.07-1.21.11c-.26.37-1.58.36-2.25.36l-.27.2-1.22.08c-.77.51-.7.14-1.63.33S465,20.8,465,21.4a22.71,22.71,0,0,0,2.72-.18c1.19-.14,1.28-.22,2.25-.36a25,25,0,0,1,2.51-.4,8.64,8.64,0,0,0,2.34-.09c.17.11.16.19.37.19h.19c.21,0,.2-.08.37-.19,1,0,1.76-.12,2.5-.11,1.1,0,1.55-.44,2.08-.45l2.34,0,.27-.22,1.23-.08m12,1.7h0m-.14.06a.38.38,0,0,1,.13-.06.38.38,0,0,0-.13.06m-.05,0,0,0,0,0m.63.05Zm19.28-.14a2.21,2.21,0,0,1,0,.25l.56,0,2.34,0a10.35,10.35,0,0,0-2.85-.27m-2,.22Zm-7-.8h0m-.09,0h0m0,0h0m-.09.09a.11.11,0,0,1,.06-.07.11.11,0,0,0-.06.07m0,.13a.28.28,0,0,1,0-.09,0,0,0,0,0,0,0,0,0,0,0,1,0,0,.28.28,0,0,0,0,.09m0,.17a.92.92,0,0,1,0-.16.92.92,0,0,0,0,.16m-1.52.32s0,0,0-.06,0,0,0,.06m0,.4a.83.83,0,0,0,0-.34.83.83,0,0,1,0,.34M499,21.72a.43.43,0,0,0,0,0,.43.43,0,0,1,0,0m0,.27a.08.08,0,0,0,0,0,.08.08,0,0,1,0,0m.18-.7a2.1,2.1,0,0,0-.13.26,2.1,2.1,0,0,1,.13-.26h0m-2-.13a1.3,1.3,0,0,0,.29-.14,1.3,1.3,0,0,1-.29.14m-.53.21.2-.08-.2.08m1,.08h0ZM494,21.17a.41.41,0,0,1,0-.15.41.41,0,0,0,0,.15m.12,0h0m-2.63-.69a.13.13,0,0,1,0-.06.13.13,0,0,0,0,.06m-2.19.18.16-.15-.16.15m0,.05v0Zm0,.17Zm.77-.81a2.57,2.57,0,0,0-.44.29h0a3.35,3.35,0,0,1,.44-.29h0m50.62,1.54a5.81,5.81,0,0,0,2-1.2c.38-.45.46-.14.81-.78a3.77,3.77,0,0,0,.3-1.2l-1.52,1.13-.07-.1v-.19c-.54.26-.56.49-.93,1-.09.13-.41.53-.44.59-.17.37,0,.41-.13.71m2.52.09c-.08-.15-.14-.28-.37-.28a10.38,10.38,0,0,0-1,1.4l1.08-.63.32-.49M512.51,23.1Zm.09-.25,0,.09,0-.09m0,0-2.45,0h-1.59v.18h.66l3.29,0Zm6.62.33c-.14-.55-1.54-.38-2-.38h-.19l-1.85,0-.19.3h1.67l2.52.05m4.39-.23-.26.15-3.47-.18-.56,0,.1.37.92,0,.94,0,2.52.14.57-.05c.47,0,.62.31.45-.28Zm-19.24.21-.22.12.22-.12h0m33.18,2c-.21-.5.36,0,.56-.75l-.83.3v.45h.28m-62.84.28c-.15-.07-5.25-.64-5.51-.28a18.06,18.06,0,0,1,2.46.43c1,.2,1.31-.06,2.21.13l.27-.2.57-.08m.94-.24v.15l-.75-.06c.28.44,3,.59,3.68.47a9.55,9.55,0,0,1,1.93.05c.2,0,1.72.09,1.78.1l3.56.58a1.76,1.76,0,0,0-1.51-.77c-.19,0-.12,0-.37.09a1.1,1.1,0,0,0-.47-.18l-1.32-.09v-.1c-.12,0-.37.14-.46.19a4.66,4.66,0,0,0-1-.24Zm68.07-3.6.09.06-1,1.63-.47-.18c-.49.25-.45.46-.64.94s-.61.24-.67.92c-.19-.13-.24-.28-.47-.28s-.2.08-.37.19v.65l-.37.19c-.08,0-.81-.28-.85-.28h-.56a.94.94,0,0,0-.56.19h-1.4l.06-.1-.58-.36-.38-.42-2.56.1a2.88,2.88,0,0,0-.92.88c-.47.91-.38.38-1,.81-.42.3-.41.62-.58,1.2-.09.31-.62.81-.62,1.06v.28h.38l.31-.82.25,0,.74.06.06-.12-.65-.65c0-.47.41-.51.78-.69a6.17,6.17,0,0,0,.94.38c.13,0,.18-.13.18-.28,0-.37-.5-.64-.65-.85a5.11,5.11,0,0,1,.84-.65c.28,0,.48.28.75.28s.45-.37.56-.47v.11l1.31,0,.82,1,.67-.13c.43-.26.53,0,.57-.54l1.58.43.9.66.83-.87.16-.87.64-.09.3-.94.83.16.82-.74c0-1.61.74-.37.85-1.74ZM499.45,22.9s0,0,0,0ZM495,26.06l0,0,0,0m-.1.05.05,0-.05,0m.29.3-.08,0,.08,0m.06,0-.06,0,.06,0m0,0,0,0,0,0m.09-.19a.64.64,0,0,1,0,.07.64.64,0,0,0,0-.07m.05-.32a.41.41,0,0,0,0,.11.41.41,0,0,1,0-.11m-3.33,1.26a3.81,3.81,0,0,0,.29-.41l-.88.28-.25-.15-.6.34c.13.19,0,.23.3.23s.21-.07.38-.19l.76-.1m6.59-2.34,0,.21,0-.21m.08-.39Zm.26.37ZM485.75,27h-.66c-.33,0-.36.32-.37.65l-.27.11v.17c.3,0,1.31-.36,1.31-.65Zm-20,1.4c-.55,0-.61-.33-.75.19a2.66,2.66,0,0,0,.84.18h.28l.15.31c.16-.27.13.05.13-.31v-.37h-.65m26.39,3.14a.87.87,0,0,1,.21-.06.87.87,0,0,0-.21.06m0,0Zm14.65-.44c-.61.32-1,.11-1.22.3a13.2,13.2,0,0,0,1.55-.07Zm-7.72.57Zm1.25-.1.13.06-.13-.06m-1-.26.16,0-.16,0m-.57-.09.24.05-.24-.05h0Zm-1.77.35,0,.12Zm-1.45-.15,0,0,0,0m.15-.09,0,0,0,0m0,0h0m-.63-.19h0l.47.15Zm-5.16-.25.14,0-.14,0m-.22.16,0,0,0,0m0,.08s0,0,0-.05,0,0,0,.05m0,.05s0,0,0-.05,0,0,0,.05m-.12.28a.38.38,0,0,0,.12-.28.38.38,0,0,1-.12.28Zm.59-.63-.06,0,.06,0h0m-8.66-.56.76.08.27.15,2.44.43V31l.25-.21V31l1.42.14.61-.36a11.56,11.56,0,0,1-4.08-.82c-.17.11-.17.18-.38.18s0,0-.28-.09l-.07-.1,1.5-1.11.05.08.25-.73c-.79,0-2.17,1.56-2.75,1.77Zm11.38,3,.14-.1-.14.1m4.44-.33-.28.41.54.06c.08-.06.23-.19.28-.13l3.09-.15a.69.69,0,0,0-.09-.38l-.13.09a1.3,1.3,0,0,0-.33-.14,1.86,1.86,0,0,1-.72,0,4.67,4.67,0,0,0-1.05.1,1.93,1.93,0,0,1-.42.39l-.27-.09-.11-.19a1.13,1.13,0,0,1,.06-.16l0,0-.38.2h-.16m-6.63-.3s0-.09.05-.13,0,.09-.05.13m0,.07,0-.06,0,.06m-.22.37Zm-2.11-.46a.71.71,0,0,0,.06-.3.71.71,0,0,1-.06.3m0,.06,0-.06,0,.06m-.16.13a.4.4,0,0,0,.16-.13.4.4,0,0,1-.16.13m-16.84-6.15.66,0a33.45,33.45,0,0,1,4.16.13,18.8,18.8,0,0,1,2,.24c.64.17.43-.05,1,0,.24,0,1,.25,1.07.25.35,0,0,0,.28-.09a1.86,1.86,0,0,0,1.12.28,6,6,0,0,0,.65-.09c-.09,1.1-3.3,2.17-3.83,3.17.11.17.19.17.19.38,0,.43,0,.66-.38.74v.17l6.24,1a13.84,13.84,0,0,0,1.19-1.13,3.87,3.87,0,0,0-.48,0c-.76,0-.83-.24-1.37-.48s-1,0-1.66-.39l-.59.11.22.32,3.27.87v.17l-.84,0A6.57,6.57,0,0,1,482.1,32c-.18.09-2.8-.27-2.8-.75v-.28c0-.21.78-.86,1-1,.68-.32.55-.6,1-1,.77-.67,1.57-1,2-2l-.36.14-1.4.07-1.8-.35a18.33,18.33,0,0,0-2.05-.28,28.33,28.33,0,0,0-3.91-.18l-5.8-.12a11.59,11.59,0,0,0,3.09.47Zm-9.72,7.5c.52-.35,1.43-1.4,1.87-1.41v-.46c-1.45.69-1.2.17-2.17,1.61ZM452,33.64l-.07.47c.45,0,.41,0,.47-.37Zm5.88-.37a4.25,4.25,0,0,0-2.52,1.87.38.38,0,0,0,.28.09,3.06,3.06,0,0,0,1.4-1.12,1.14,1.14,0,0,0,1.12-.84h-.28m-3.46-.09c-.36,0,0,.17-.62.22l-.41.24c.05.16.11.38.28.38s.93-.65,1-.84Zm47.29.13c0-.06,0-.12,0-.16a.34.34,0,0,0-.06.12l.07,0m2.31-.56-.07.08.07-.08m.11-.18a.51.51,0,0,1-.09.16.51.51,0,0,0,.09-.16m9.8-15.64a7.25,7.25,0,0,0-1.46-.12,7.25,7.25,0,0,1,1.46.12m1.9,3.25c.19.05.34.08.37.29l.78,0,4.68.33v.11c-.25-.94-3.76-.31-4.4-.76l-.27.2a2.83,2.83,0,0,0-1.13-.24Zm-2,.23h0Zm.33-.22a1,1,0,0,0,0,.16,1,1,0,0,1,0-.16m-.89,0a2.25,2.25,0,0,0-.12.21,2.25,2.25,0,0,1,.12-.21m-5.82.23.05.09Zm.41.07,0,0,0,0m.05,0,0,0,0,0m1.21-.36-.62.34.62-.34h0m2.31-2.79h0l-.68-.07Zm4,.06-.14.3.14-.3m-2.34.54a4.7,4.7,0,0,0-.48.22,4.7,4.7,0,0,1,.48-.22m0,0,.1,0Zm.27-.1-.07,0,.07,0m-1.28.6-.77.43.77-.43h0m2.8.13c-.07.14-.13.27-.19.41.06-.14.12-.27.19-.41M513,18.43Zm-.7.39Zm6.55,11.55-.45.2.4-.09-.4.45.08.44-.55.22a3.3,3.3,0,0,0-1.87-.38,25.88,25.88,0,0,1-3-.31c-.08,0-1,.05-1.52,0l-.2,0a.47.47,0,0,1,.16.32v0c.28,0,.54.06.77.07,1.74.07,3.85.5,5.45.39l-.5.52-.71.1-.22-.26a6.14,6.14,0,0,1-1.76,0c-.44,0-1.28-.22-1.32.3.38-.27.39-.2.26.34l-2-.44,0,.25-1.14,0c0,.11.09.13.18.27l-.19.09c-.21,0-.2-.07-.37-.19v-.16l-1.94.08-.19,0-.39,0c.22.16.37.31.37.4a.24.24,0,0,1-.06.13l1.58,0v.13l.37-.13,1.31,0,2.52.1,2.42.06L516,33l-.1-.21-.55-.14,1-.2-.22.92c.11,0,.25.1.28.1.28,0,.76-.62,1.31-.84s0-.15.49-.54.46,0,.38-.56l.72-.87h.37a1.67,1.67,0,0,0,.62-.12l.22.5a7.24,7.24,0,0,0-2.34,1.68h.38c-.13.46-.24.31-.64.48s-.34.37-.68.54a9.89,9.89,0,0,0-1.41,1,12.7,12.7,0,0,1-1.24,1.19c-.89.55-.48,1.26-1,1.44v.17l.56.12,1-.84.13.06-.35-.73.2-.27c1,0,.7-.38,1.31-.38h.18c.31,0,.36.19.38.45l-.93.12-.19.37.51,0,.42.52c-.4.54-.66,0-.84.65.11.07.1.1.28.1h.19a1.35,1.35,0,0,0,.47-.1c0-.33,1.14-1,1.3-1-.1-.16,0-.19-.28-.19h-.37c.18-.66.64-.42,1.12-.75-.11-.17-.19-.16-.19-.37s.22-.36.38-.47l.46,0,2.53-1.2.74.08,1-.36c-.55.83-2.27.92-2.62,2.25,1.9-.16,1.46-1.5,3.47-1.48l.28-.23.36.11.85-.74-.19-.09c-.85,0-.94.56-1.89.54l.67-.74h1.87c.31,0,.54-.2,1-.25s.56.17.9.25c.26-.49.31-.68-.28-.37-.78-.69-1.15-.37-2.15-.28a1.58,1.58,0,0,0-1.77-1c-.36,0,0,0-.31-.11l.47-.83.12-1.21c.19-1.31,1.63-.66.93-3.65.36-.67,0-.83.19-1.2s.42-.54.55-1.12l-.4-.37.32-1.23c.3,0,.46,0,.46-.28,0-.52-.35-.08-.65,0-.07-.18-.67-.75-.94-.75a1.91,1.91,0,0,1-1.3.18c-.25,0-.88-.35-1.3-.48a5.06,5.06,0,0,1-1.44-.34c-.53-.39-.79-.26-1.19-.57l-.39-.2-.47.13a7.06,7.06,0,0,1,.67.35c.62.37,1.51.46,2,.73a7.87,7.87,0,0,0,2,.66c1.34.15,1.1.17,1.89.75l-.08,1.56-.5.88-1.21-.13v.13l1.27.08,0,.79-4.3-.14-.65-.08c-.23,0-.3.19-.56.19-.06,0-.2-.13-.29-.14l-.84-.05h-.65c.14.53,1.84.15,2.41.42l.58-.23c.73.63,4.3-.05,4.3.65a1.36,1.36,0,0,1-.09.47v-.1l-1.78,0L521.37,26a18.2,18.2,0,0,0-3-.08,23,23,0,0,1-3.19,0l-1.77,0h-.07l-.08.11h.24l1.49.08.2-.08,2,.27c.07-.05.23-.19.28-.19.46,0,.85.18,1.4.21l2,.07,0-.22.33.21.21-.17a10.78,10.78,0,0,0,2,.2c1.64-.14,1.71.73,1.2.73l-.56-.06-5.52,0v.12L518.3,27,518,27c.12.45.37.26.94.27.32,0,.88.16,1.13.17.68,0,1.53-.07,2.14-.07l.46,0,1.41,0h.18c.36,0,0,0,.31.12l-.49.62-.39-.19-.27.21-1.22-.05-1.68-.15-.18.47c.42,0,3.61,0,3.64,0l.09,0-.73,1.69-.11-.05c0,.85,0,.49-.52.72l-.22-.25a.8.8,0,0,1-1.13-.37h.38c.37,0,0,0,.18.09.17-.11.17-.19.38-.19h.37v-.18c-.26-.07-.16-.09-.37-.06l-.94,0-.47,0-1,.19-.41.19-.32-.11-.17-.15.08.24Zm2.82,1.5a5.1,5.1,0,0,1-1.87,1l-.72,0,.82-1c.54,0,.44-.07.56-.54l1.69-.28,0,.09-1,.5Zm0,.84a12.64,12.64,0,0,1-1.87,1.4c-.35,0-.17-.06-.56-.09v-.28c-.38.26-1.35,1.21-1.77,1.21h-.66l.34-.81c.71-.21,1-.74,2.1-.87s1.36-.56,2.42-.56m-27.58,4.42c-.59.2-.85,0-1.32.26l-.1.06c.87.07,1.72.21,2.54.21h.47a.7.7,0,0,0-.66-.56h-.86Zm-1.33-.26.19-.11-.19.11m-.17,0,.17,0-.17,0m-8.3-.55-.2.11.2-.11m3.2.21Zm1.92-.47.12-.08-.12.08m-1.42.08Zm.55-.49-.14.09.14-.09m.38-.22-.07,0,.07,0h0m-2,.21a.64.64,0,0,0,0-.07.64.64,0,0,1,0,.07m0,.09,0-.06,0,.06m-.16.12.07,0-.07,0m-1.26.76.06,0-.06,0m1.08-.2h0l.06,0Zm.21-.14-.09.06.09-.06m.47-.3-.13.09.13-.09m.58-.48-.05,0,.05,0h0m-2.74,0-.62.44h0l.62-.44m.38-.28-.37.27.37-.27m0,0,.08-.06h0Zm-6.17.31-.05.16-.32.43c-.63,0-1.91.63-1.71,1l3.36-1.16.05.09.09.06a3.46,3.46,0,0,1,.31-.47c-.93-.19-1-.79-1.44-.79h-.38c.14-.57.37-.58-.4-.79s0-.33-1.09-.33c-.17,0-.15-.14-.19-.29l-1,.2-.1.3-.26-.3c-.26.06-.18.09-.38.09s0-.84-2-.85l-.56-.27v-.65c0-.27-.73-1-.93-1.13a2.89,2.89,0,0,0-1.59-.28,7,7,0,0,1-3.28-.74c0-.65-.19-.5-.19-.94s.7-.47,1.11-.48l.2-.27A2.84,2.84,0,0,1,467,27c-.57-.67-1.09-.08-2-.3-.09.06-.28.15-.28.28s.07.3.28.3l1.15-.14.81.95-.37.1v.28c0,1.14-1,.86-1.75,1.18l-.31-.15V28.32c.24.05.47.19.47-.19V28c0-.22-.07-.28-.28-.28h-.39l.11-.93c0-.21-.09-.28-.28-.28-.48,0-.11,1.22-.38,1.78H464c0,.4,0,1.32-.19,1.3h-.56c-1.27-.1-.63-.2-.55-1,0-.41.08-1.41-.29-1.68a.93.93,0,0,0-.27.84l.08,1.49c0,.18,0,.14-.09.4l-.87.14-.91.68c-.69-.47-.15-.92-.62-1.72-.36-.62-.78-.93-.78-1.74-.28-.19-1.12-1.12-1.68-1.09l-1.12,0a14.37,14.37,0,0,0-1.77,2.35c-.52.73,0,.7-.85,1.2-.24.14-1.22.66-1.22.93s0,.11.1.38l-.28.11.09.05-.33.41-.38,1,.07.06,1.13-.31-.21.45.47.28c.31-.16.71-.78.28-.74l-.56,0,0-.12,2-1.62.67,0,.26-.2.31.17-1.43.39c-.37.71-1,.46-1,1.12s.78-.28.84-.37h.48l.09-.26,1-.12c.24-.45.59-.41,1.22-.47-.44.61-2,1-2.81,1.31-.6.27-1,1-.28.86.53-.16.74-.65,1.51-.66l-.46.36.26.94c-.38.26-1.07.63-1.12,1.21.51-.34,1.27-.59,1.85-1a14.11,14.11,0,0,1,1.8-1.1h.56l-.05-.1.61-.28c-.05.64-.56.61-.56.84,0,.42.43.11,1,0a6.27,6.27,0,0,0,1.07-.53c.35-.33.59-.31,1-.61s.27-.49,1.2-.49l.37-.19v.29l0-.09-1,.55v.47l-.93.65a4.7,4.7,0,0,0-2.46.91c-.42.19-1.72,1.06-1.84,1.52a9.35,9.35,0,0,0,1.87-.74h.37l0-.09.38-.18.07.12-1.16,1.17c.78.19,3.07-.83,3.09-1.68a4,4,0,0,0-1,.28h-.37c-.47,0-.33-.46.44-.49l1.61-1.38c.72.16,1-.66,1.59-.94s.63-.06,1.05-.15.55-.31.92-.31.3.19.56.19a.51.51,0,0,0,.46-.28v-.12l-.84,0v-.18c.52,0,.48-.19.75-.19.06,0,.2.13.28.19-.07.35-.12.52.38.56-.36.48-1.21.51-1.8.73a10.53,10.53,0,0,0-1.55,1c-.44.37-.86.84-1.33,1.2s-.91.5-1.12,1.4c-.34,0-.75.22-.75.56v.37h.37c.49,0,.47-.53.52-.77s.6-.15,1-.35a.38.38,0,0,0,.28.09c.6,0,2.82-2.15,3.65-2,.11-.42,3.12-2,4-2,.4,0,.48.18,1.16.23l-.32.23c.28.42.5.33.6.51s-.22.35.52.52v.19c-.57.13-1,.38-1.55.5-.86.2-.88.53-1.53.53-.34.49-2.25,1-2.25,1.58,0,1,3.44-1.45,3.65-1.58l0,.09,2-.82.63-.07,1.38.53.05-.12.46.39a3.62,3.62,0,0,1-2.16.54l1-.63L474,34a1.64,1.64,0,0,1-.28-.12l-1,.12c-.58.39-2.08.41-2.25,1l-.47-.12a5.39,5.39,0,0,1-1.51,1,16.2,16.2,0,0,0-1.29,1.33,8.26,8.26,0,0,0,1.83-.78c.48-.36,1.43-.74,1.44-1.46.6.28,1-.56,2-.58l.29-.27-.08.57h.28l0,.09-2.94,1,.08,0-.35,1c1.15,0,2.3-1.57,3.64-1.69v.19c-.93,0-1.1.55-1.61,1s-.17.55-.65.67-.58.21-.09.44l1.33-.43c.16-.62,1.34-1.14,1.92-1.43l-1.44,1.25.08.07.28.11a7.93,7.93,0,0,0,2.33-1.4c.27-.42-.23-.47.9-.78a4.6,4.6,0,0,0,1.49-.5l.61.53h.65a7.14,7.14,0,0,1-3.55,1.13c-.12.16-.19.16-.19.37l0,.41.45-.22a2.91,2.91,0,0,0,1.37-.41c.7-.36.76.12,1.15-.64Zm-21.78-7c-.21,0-.21-.08-.34-.2l-.32-1c.54.05.7.87.94,1.22Zm1.25,0c-.51,0-.58,0-.78-.25.36,0,.28.05.41-.31Zm-2,.21c0,.31-.08.07-.19.47a1.3,1.3,0,0,0-.46-.09,2,2,0,0,0-.57.28l-.83-.21-.11-.05,1.33-1.95.08.06c.11.23.75,1.41.75,1.49m2.15.85h-.28a1.51,1.51,0,0,0-.75.18l-.65-.46c.35-.53,1.23-.39,1.77-.1Zm5.24,1.21c.09-.34,1.08-.84,1.4-.84h.37c.17,0,.26.05.28.19a4.11,4.11,0,0,1-2.05.65m-8.33-.65h0m5.62,1a1,1,0,0,1-.1-.18c0-.56.49-.69,1-.73s.22.14.69,0,.26-.15.78-.15c-.14.55-.5.55-1.1.67s-.76.23-1.23.35m-4.11-.7.09.07-.39,0Zm1.67,0c.05.5.19.27.19.46,0,.63-1,.88-1.48.87a4.62,4.62,0,0,0-1.6.72c0-.54,2.37-1.71,2.89-2.05m4.31,3.64.65-.65h.28a11.13,11.13,0,0,0,1.7-1c.54-.34,1.59-.58,1.76-1.06l.56.12-.84.92c-1.35,0-2.79,1.49-4,1.78ZM465.55,36h-.2l.2-.27c1.54,0,1.86-1.35,3-1.49,1.33-.17.74-.13,1.61-.63a7.81,7.81,0,0,0,1.38-.88l-.11-.19-.27.2h-.65c-.31.2-1.35.94-1.46.43L470.79,32a5.1,5.1,0,0,0-2.37.72,7.49,7.49,0,0,1-1.06.53c-.39.18-.61.52-.95.64a4.44,4.44,0,0,0-1.11.48c-.44.24-.63.42-1,.62-.5.31-1.63.87-1.77,1.4h.94l-.49,1,.11.08c.07.06.9-.67,1.13-.74.54-.18,1-.5,1.3-.57Zm-.85-.38-.18.57h-.65l-.36.22-.05-.09Zm15.36,1.59a.84.84,0,0,0,.34,0,.11.11,0,0,1,0,0,1.24,1.24,0,0,1,.05-.31.29.29,0,0,0-.21-.06c-.36,0,0,0-.26.09Zm3.67-.56.12-.05Zm-.67.09h0m.05,0h0m.2-.24h0l0,0Zm62.94.17c0-1.16-.24-.85-.7-.42s-.89.46-1.17.88a.66.66,0,0,0,.65.38c.41,0,1.22-.4,1.22-.84M521.56,37c-.36,0,0,0-.28.09l.22.41.39-.46Zm18.6.86c0-.76-.64-.47-.74-.12Zm-8.22-.21c.25,0,.22,0,.5.13l.49-.44a2.44,2.44,0,0,0-.71-.15c-.23,0-.55.31-.65.5ZM528,37.48c0,.26,0,.37.28.37h.38c.33,0,.18-.09.28-.28a5.86,5.86,0,0,0-.66-.09H528m-1.68-.19c0,.18,0,.37.19.37s.24-.3.28-.37Zm13.84-2.24c-.34.5-.46.34-.7.7s-.32.58-.52.89h-.55l-.66,1,.41.15.34-.5c1,0,1.52-1.5,2.89-1.5-.06.74-1,.51-1.12,1.41.53-.13,1-.22,1.06-.8l1-.61,0-.09a2.17,2.17,0,0,0,1.34-.43c.31-.19.24-.23.46-.39s.33-.1.63-.28l.37.07a1.4,1.4,0,0,1-.82.86c-.62.27-.59.61-.9.79s-.71,0-1.16.52c-.13.14-.78.92-.39.92a3.21,3.21,0,0,0,2-.85c.93-.57.94-.33,1.5-1.4h.47c.17-.26.37-.32.37-.74v-.1a5.28,5.28,0,0,0-.35-1.42c-.34-.62-.45-.45-1.17-.68l-.81-1.07c-.12.06-.1.09-.29.09h-.37l.09-.84c-.54-.15-2-1.64-2.61-2a2.62,2.62,0,0,0-1.42.36,5.65,5.65,0,0,1-1.11,1.23v.47c-.9.61-1.46.11-2.27,1-.6.66.19.43-.9.88a2.68,2.68,0,0,0-.94.83.53.53,0,0,1-.26.77,3.21,3.21,0,0,0-.78.46L531.41,34l0,.11-.67.15a3.41,3.41,0,0,1-.84.75c-.71,0,0-1.69-1.77-1.69-1,0-.89.66-1.13.66s0,0-.28-.09a2,2,0,0,1-1.31.37s-.19-.13-.28-.19c-.31.43-.54.44-1,.67s-.61.62-1,.73v.28c0,.38-.49.2-.84.94,1-.08,2.24-2.21,4-2.06v.19a5.55,5.55,0,0,0-1.66,1.24c-.52.46-.36,0-.73.68a1.33,1.33,0,0,1-.79.7c.15.56.79-.23,1.17-.51s1.11-.66,1.17-1.18l1.12.1c-.33.28-.79.24-1,.63a7.6,7.6,0,0,0-.64,1v.28c1.06-.09,1.19-1.49,2.15-1.49.56,0,.08.56,0,.84.79,0,1.2-.94,1.5-.94a3.3,3.3,0,0,1,.75.19c.4-.27.63-.76.92-.86.56-.2.72-.3,1.22-.5l1.32.24c.13.35.28.28.76.23l-.29-.05c.29-1.08,1.77-.22,1.77-2.15,0-.45,1.41-.47,1.41-1.12V32l.07-.07.3.39.66.07.3-.18-.31.54h-.74l-.57.93c.47,0,1.7-1.12,2-1.12l.42,0L537,34.28l-.08-.07c0,1,.56,0,.82-.12a2.67,2.67,0,0,0,.95-.91c2.43,0,.79.19.33,1-.26.45-.32.66-.59,1.09s-.6.34-.86.78l-3.27.33v-.28c0-.36,0,0-.1-.29-.43.12-.23.29-.56.29H532.5a1.48,1.48,0,0,1-.73-.18l-1.23.92a1.3,1.3,0,0,0,.09-.46c0-.16-.06-.28-.19-.28-.29,0-.84.45-.84.65s.42.29.76.47l-.38.56c1.15,0,2.08-1.5,2.61-1.5a1.2,1.2,0,0,1,.94.66l-.47.84c1,0,1.47-.62,2.25-1l.18.09c.22,0,.11,0,.32,0l.43.42c-.4,0-.53,0-.56.46.46-.12.59-.56,1-.75.64-.27.67-.08,1.27-.59.43-.38,1.62-1.55,2.19-1.27m-1.5-3.55h-.18l-.1,0,.56-1.55,1.78-.38c-.22.41-.51.56-1.12.56Zm3.46-.29c0,.47-.65.58-1,.91a4.45,4.45,0,0,1-1.29.78c-.15,0-.28-.06-.28-.19s.38-.65,0-.65-.19.28-.93.28a6.59,6.59,0,0,1,2.15-2.15l.84.18c-.33.5-1.7.68-1.78,1.59h.29c.29,0,.49-.65,1.68-.65.21,0,.11,0,.37-.1m-.91,2.08a7.57,7.57,0,0,0-.69.81c-.52.66-.41.19-1,.48.28-1.16.76-.89,1.31-1.6s1-.62,1.87-1l.28.1c-.18.24-1.36.85-1.75,1.22m-.32,2.22.11-.93V34.3c1-.27.9-1.4,2.43-1.4h.28c-.1.37-2.31,1.24-2.34,2.33Zm1.34-.28-.11-.28c.74-.49.5-1,1.69-1,.52-.35.41-.25.37.28-1.17,0-1.09,1.22-2.16,1.29Zm-15.58-.5c.41-.63.52-.26,1.06-.5l.93.39-1.25.62,0-.1c.07.11.31.37,0,.37s-.23-.07-.31-.32l-.44.31-.75-.08c.45-.39.4-.06.8-.69m0,1.25c.12-.44.62-.22,1.13-.55l.84-.1s.18.08.18.09-.58.57-.74.56ZM519,37.36l-.46-.06-.11.27c.06.09.15.28.28.28a3.71,3.71,0,0,0,.66-.56Zm-6.09-.16c-.45,0-.81,0-.93.28a17.25,17.25,0,0,1-1.87-.38c-.42-.11-1.65.06-2.15,0L506.79,37h-.38v-.1l-3,.38h-.09c-.41,0-.38-.19-.66-.19-.5,0-.71.24-1.19.17-.18,0-1.1-.26-1.15-.26-.36,0-.74.19-1,.19a.59.59,0,0,1-.37-.09l-.85.46c-.17-.41-1.1-.23-1.21.24l1.68-.08,1,0a.55.55,0,0,0,.37-.1l.37.12,3-.08,4.67.07,5.24-.2c-.06-.21-.09-.37-.38-.37"/><path class="cls-2" d="M42,21.3c.14-.28.15-.65.46-.65h.1c.49,0,.18.58.18,1-.1.07-.31.28-.37.28-.23,0-.33-.44-.37-.65m.72.92a.85.85,0,0,0,.77.39c.5,0,.7-.38.94-.65-.36-.74.45-.73-.83-1ZM46.94,24h.37c-.36-.54-.84-.41-1.27-.69-.17-.11-.18-.29-.53-.49a3.13,3.13,0,0,0-.81-.22c0,.54,1.79,1.1,2.24,1.4m1.59.66a1.09,1.09,0,0,0-.84-.66c.05.44.45.56.84.66M35.16,18.5c.57,1.08.59,2.38,1.12,3.45a17.94,17.94,0,0,1,1,3.56l3.77-2.25.06.1c-.08.18-.15.37.19.37a2.51,2.51,0,0,0,1-1c-.4-.1-.16-.18-.47-.18H41.8c-.49,0-.16.84-1.59.84-.2.38-.75.5-1.18.69-.21.09-1.15.62-1.16.62h-.28l.11-.37L37.25,24c0-.88-.3-.81-.42-1.91a3.94,3.94,0,0,0-.55-2l.1-.06-.79-1.51Zm16.46,15c.26.37.07.43.38.63.55.34,0,.47.36.47a.48.48,0,0,0,.28-.28c0-.32-.6-.74-.74-.93ZM0,2.14c1-1.47,2.39.09,3.55-.47a2.53,2.53,0,0,0,2.15.47c.79.41,1.5,0,2.44.65l.74-.11c.2,0,.47.36.66.49a17.27,17.27,0,0,1,3.35.76c1.23.54,1.68.14,3,.45.13-.09.21-.21.37-.18l1.4.21,1.21.09.37.27a1.25,1.25,0,0,1,.48-.11,40.11,40.11,0,0,1,3.88,1.08,18.1,18.1,0,0,0,1.79.64,5.87,5.87,0,0,1,.93.28,5.26,5.26,0,0,0,.79.43V6.91l.64.23.12.23c.25-.06.14-.09.36-.09a2.63,2.63,0,0,1,.93.47c.75-.16,1.22.52,1.73.71a7.2,7.2,0,0,1,1.77.75c.32.19.51.31.84.47.57.28.42.31.76.55a5.65,5.65,0,0,0,.83.48c.5,0,.06-.34.06-.72V9.52c0-.3.26-.44.56-.46a6.29,6.29,0,0,1,.51-2.76c.27-.53.17-.91.42-1.36s.62-.55.66-1l1.78-1.13h1.4l.27.21c.57-.27,0,.06.48,0l.84-.1A3.44,3.44,0,0,1,43.7,4.62c.17.66.63,1.47.89,2.3a6.53,6.53,0,0,1-.07,2.89,2.67,2.67,0,0,1-.36,1.33,1.12,1.12,0,0,0-.31,1.09h.38c.34,0,1.87.4,1.87.94,0,.36-.67-.08-1.12-.09l1.07,1,.61.09-.13-.59.32,0,1.88.83c.54.28,1.07,1,1.67,1l.05-1c.06-.17.14-.17.14-.38v-.37c0-.49-.38-.61-.38-1.41-.63-.42-.46-1.28-1.12-1.12-.13-.19-.28-.24-.28-.46,0-.05.14-.21.19-.28-.45-.52.31-2.33.56-2.81.69-1.36.91-.92,2.16-1.49.42-.19.47-.43,1.18-.69s.86-.3,1.35-.52,1-.39,1.3-.57.71-.13,1.21-.37a2.79,2.79,0,0,0,2.06.56c.67.45.7,0,1.52.34.53.19,1,.34,1.53.53a27.29,27.29,0,0,0,3.12.9l.11.28c.67-.33,1.29.35,1.76.46.66.17.4.25.83.39s.64,0,.91.21a14.13,14.13,0,0,0,1.48.86c.73.3,1,.85,1.45.89l-.09.28c.4-.11.16-.19.47-.19H72c.55,0,1,.64,1.59.65l.11.28,0-.1,3.14,1.85.45,0c.27.41,1.26.67,1.66,1,.83.61,1,.08,1.52,1.1H81c.37.25,1,.4,1,.93a.82.82,0,0,1,.93.19c.5.48.3.2.78.53.17.13,1.53,1.06,1.56,1.06h.37c.16.57,1.08.71,1.64,1,.33.16.4.44.66.65a6.32,6.32,0,0,0,.8.51c.28.18.53.5.71.61a3.92,3.92,0,0,1,.78.52c.38.29,1.29.76,1.3,1.32.92,0,.94.63,1.54,1.08a9.33,9.33,0,0,1,1.36,1.25v.1a.35.35,0,0,1-.37.37A17.8,17.8,0,0,1,90.7,22.7l-.56.12c-.18-.69-.83-.4-1.4-.4a14.51,14.51,0,0,1-3-1.21c-.64,0-1-.08-1.31-.47l-.06.1L83,20.15l.5-.25,1.5.54c-.26-.7-4.58-1.92-5.15-2.69l.21-.27a57.35,57.35,0,0,0,7.18,3.45L81,17.49c-.88.17-1.24-.77-1.58-.77s-.1.4-.1.75l.2.27c-.48,0-.65,0-.66-.55-.27.06-.16.09-.38.09a6.38,6.38,0,0,1-2.33-1.21c-1.1,0-1.6-.83-2.44-.84l.22-.36c-.28-.14,0-.11-.31-.11-.17,0-.24.21-.28.37l-1.73-.84-1.51-.73-1-.6-.52-.07-.43-.34-.06.09,1.31.89-.07.11-1.11-.41c.23.39,3.89,1.9,4.61,2.14a20.29,20.29,0,0,1,2.42.94c.36.19.79.37,1.13.56l1.18.51-.11.27h1l.21.46c.77.08,3.53.88,3.72,1.6.27-.06.16-.09.37-.09s.23.19.28.28c-.16.11-.16.19-.37.19-.49,0-1.29-.32-1.4-.75a1.51,1.51,0,0,1-.75.18,1.43,1.43,0,0,1-.93-.28.52.52,0,0,1-.38.1c-.21,0-.2-.08-.37-.19a13.11,13.11,0,0,1-3.65-1.4h.47c-.25-.93-1.16-.39-1.22-1.12h-.75A10.11,10.11,0,0,1,71,15.32c-.75,0-3.29-1.47-4-1.84-1.3-.63-2.43-1.53-4.27-1.53l-1.38-.44L61,11.38l0,.12-2.52-.57,0-.1L58,11l.22.22-.32,0c-.47,0-2.54-1.11-2.8-.75.28.06,1.36.5,1.77.65a3.34,3.34,0,0,0,1.87.38l-.41-.31c1.14.23,2.41.57,3.52.85l1.77.47c.63.17,1,.38,1.59.56.83.27,1.94,1.08,2.9,1.5A21.28,21.28,0,0,1,71,16.07c-1.36,0-1.16-.66-2.24-.75a14.53,14.53,0,0,0,1.64,1l1.54,1c.19,0,.12,0,.37-.09.25.24.35.56.84.56a1.57,1.57,0,0,0,.47-.09c-.49-.67-2.32-.83-2.52-1.59l3.86,1.5-.5.09.19.37c-.31.63,0,.83-.84,1a1,1,0,0,0-.56-.19H73a.61.61,0,0,0-.37.09,1.21,1.21,0,0,0-.47-.18l-.38.18L68,17.74l-1.19-.33c-.08,1-.38.63-.74,1.18l-1.51-.12,0-.11-1.16.79.07.09c0,.6-.6,1.59-.75,1.13h-.19c-.05.61-.4.4-.65.74-.25-.12.08-.09-.28-.09h-.1l-.37,0a7.62,7.62,0,0,1-.28,1v.28l-.28.09c0,.77-.67.9-1.31.75v.19h-.47l-.47,0-.56,0-.22,1.22-1.37,0c.61,1.06.94,2.42,2,3.13a14.21,14.21,0,0,1,1.49,1.13c.69.57.73.24,1.36,1.17h.56c.41.62,1.48,1,2.11,1.54.41.32,1.49,1.61,1.91,1.64,0,.56,1.33.78,1.4,1.4.91,0,2.25,1.75,2.25,2.53a1.28,1.28,0,0,1-.6,1,5,5,0,0,1-1.18.32H67a4.22,4.22,0,0,1-.65-.1v.19h-.28c-.26,0-.23-.07-.28-.28a1.36,1.36,0,0,1-.47.09h-.28l-.75,0c-.27,0-.25-.16-.65-.16-.2,0-.12,0-.38.09V38h-.37a.94.94,0,0,0-.56.19,1.82,1.82,0,0,0-.56-.09h-.38v.18L61,38.14l-1-.14-.36.13-.28-.2h-.94l-.27-.2c-.31.15-.93-.17-1.25-.35s-.73-.06-1.32-.26-.77,0-1.25-.52c-.33-.33-.73-.4-.77-.91-.45-.05-.76-.79-.94-1.13l.47-.09,1.45,1.36c-.12-.66-1-1.23-1.38-1.71a9.63,9.63,0,0,0-1.29-1.71c-.13.23-.09,0-.09.19s0,.12.09.37l-.11.19-.26.09c-.33-.17-.51-.65-.84-.65h-.38a3.24,3.24,0,0,0-1.31.28l-.27-.2c-.55.36-.75-.11-.75.76l-1.12.38c-.24-.13-1.5-.92-1.5-.56,0,.19,0,.12.09.37-.14.16-.2.37-.47.37h-.09c-.57,0-.48-.29-.66-.65-.47.13-.55.56-.84.56h-.37a2.11,2.11,0,0,1-1-.94c0-.35,1.88-1.31,2.24-1.4-.12-.45-.57-.08-1.3-.46L41.27,32.2l-.41-.06c-.17.12-.16.19-.37.19s-.14-.19-.47-.19-.28.24-.28.56c-.17.12-.16.19-.37.19l-.19-.09c.11-.17.19-.17.19-.38v-.28c-.38.09-.44.28-.66.28s-.28-.06-.28-.28v-.28c-.21-.05-.28,0-.28-.28v-.37c0-.26.3-.45.47-.56l.38.08c.29-.44.85-.46,1.58-.46l.17-.2-.6-.77a9.67,9.67,0,0,1-1.22-.65c-.37-.29,0-.23-.51-.42s-.32-.07-.57-.36l-.91-1c-.28-.3-.44-.7-.73-1a3.79,3.79,0,0,1-.78-1.09c-.12-.21-.28-.33-.39-.55s0-.39-.22-.71A5.51,5.51,0,0,1,33.66,21c-.13-.19-.28-.24-.28-.47s.16-.31.38-.37c-.11-.42-.12-.27-.47-.19l-.11-.37a6.53,6.53,0,0,1-.88.06c-.32-.08-.21-.19-.7-.25a14.26,14.26,0,0,1-1.51-.35c-.94-.23-1.95-.79-2.78-1s-4.35-2.57-4.4-3.18l-.07.09-2.23-1.79L21,13l-.28-.34-.22.3c-.58-.14-.88-.23-1-.84h-.37c-.21,0-.21.07-.38.19l-.27-.2H18l-.2-.27a15.67,15.67,0,0,1-3.82-1.6c-.58.28-1.09-.54-1.6-.64-1.23-.24-.74-.57-1.76-.57A12.35,12.35,0,0,0,8,7.25c-.29-.16-.39-.38-.61-.51s-.51-.26-.73-.4c-.43-.27-.94-.49-1.37-.78A9.7,9.7,0,0,0,2.45,4,12.39,12.39,0,0,1,1,3.34,1.34,1.34,0,0,1,0,2.14M39.05,5.28l.78-.9h-.28a.63.63,0,0,0-.37.19ZM7.67,5.69c.93,0,1.19.49,1.5,1.13l.37-.19c.22.3.27.14.46.37s.14.38.31.54c.37.34,1,.18,1.11.69l.48-.31.52.57-.09.41.79.23-.31-.57.46-.09,0,.1,1.36.95H14.4v.19h.75V9.43A11.59,11.59,0,0,0,17,9.94a3.68,3.68,0,0,1,1.53.8h.38c.17.11.16.19.37.19h.47c-.15-.58-1.3-.62-1.74-.88a2.92,2.92,0,0,0-2-.61l-.25-.66c-.25.06-.48.28-.75.28a1.21,1.21,0,0,1-1.12-.56c-.42,0-.43,0-.52-.31l-1-.72a.38.38,0,0,1-.28.09c-.49,0-1.45-.87-1.68-1.21C9,6.35,8.58,5,7.85,4.85l0,.25L6.44,4.46l-.1.09s.33.19.38.22c.25.13.16.13.37.29s.45.15.58.63M43.89,6.86l-1.06-.79a3.93,3.93,0,0,0,.93,1.21Zm-20.42.32,1.12-.09.19,0h.56V7c-.39,0-.29-.18-.77-.24-.22,0-.75.15-1,.13s-2-.45-2-.45h-.47c-.26,0-.28.11-.28.37.74,0,1.62.38,2.15.38Zm2.72.76c.66,0,.59,0,1.3,0a1.82,1.82,0,0,0-1.22-.37c-.35,0,0,0-.28.09a1.55,1.55,0,0,0-.74-.18h-.1c-.17,0-.25,0-.28.18.54.13.52.32,1.32.29m23.74.65c.41-.05.28-.11.47-.47h.37V7.93h.28c.24,0,.41.29.57.29s.1,0,.37-.1l0-.22-.33-.34h-.38a1.47,1.47,0,0,0-1.31,1M25.53,9a1.77,1.77,0,0,1,.56-.09,2.54,2.54,0,0,1,1.21.22L27.78,9l.26.13,1.23-.11V8.85l-2-.31-.93,0a7.7,7.7,0,0,1-1.51-.09c-.54-.07-1.19-.22-1.48.18.32.08.31.19.65.19l.1,0,.93-.12.47.28m34.22.84h0m-.26.81.07-.06v-.18h.56a20.66,20.66,0,0,0,2.62,1l0-.09-.7-.19-.1-.23-.73-.33.28-.09c.39,0,.44.19.93.19l.31,0-.32-.4L61.9,10a1.77,1.77,0,0,1-.56.09h-.75c-.28,0-1.08-.4-1.12-.84H60a.58.58,0,0,1,.38.1.94.94,0,0,1,.65-.28c.4,0,2.82,1.88,3.74,2-.15-.55-.62-.24-1.08-.79a5.34,5.34,0,0,0-1.21-.66c-.42-.21-.59-.43-1.13-.74s.41-.36-1.1-.7l.23.64L59,8.86l.12-.19L59,8.59l-.21.31-.36-.22c0,.09-.06.19-.19.19-.39,0-.44-.22-.65-.21l-.84.12c.63.39,2.19.26,2.25.91l.65.11V10l-.28.12-.79-.38.05-.09a2.54,2.54,0,0,1-2.17-.11l-.82-.27-.47.1v.28c.25-.06.18-.1.37-.1a7.61,7.61,0,0,1,2.15.66c.32,0,.33-.13.57-.11l.9.13Zm15.65,1.47c.49.19.76.45,1.35.71A19.91,19.91,0,0,0,79.2,14.2v-.28a11,11,0,0,1-2.93-1.7l-.85-.36,0-.09A5.92,5.92,0,0,1,73.59,11c-.31-.16-.63-.4-.84-.47-.51-.17-.6-.09-.84-.56C70.56,10,69.35,8.53,68,8.5v.37l.47-.09c.2.31,4.62,2.35,5.33,2.71a12.59,12.59,0,0,0,1.36.59M36.45,8.67,36.54,10l-.41.23-.22,1.31c.17.11.16.18.37.18h.19c.52,0,.11-.57.05-.75l-.05-.55c0-.19.08-.23.17-.38l.12-1.13-.21-.29Zm16.76,2.07c.26,0,.63-.46.29-.53-.08,0-.81-.13-1-.14L52,9.9V9.6l-.26.18-1.51-.72c.62.91.38.49,1.26,1.08a4.79,4.79,0,0,0,1.74.6M29.72,9.67l1.51-.33V9.15H30.11c-.36,0-.93,0-1,.37Zm8.43-.24c0,.21.07.21.19.4l.53-.12-.06,1.12c.69,0,.52-.2.74-.65-.23-.49-.44-1.34-1-1.5-.1.38-.37.39-.37.75m-7.38.49c.82.7.66.17,1.4.24l1,.11c-.34-.52-1.07-.3-1.77-.43Zm20.28,2.59c.22,0,.29-.06.29-.28s-.44-.66-.57-.93c.46,0,1.18.72,2.34.75-.39-.28-.91-.36-1.28-.68s-.52-.65-1.27-.81l.06.59-.52-.78.16,1.11,0,.29c.36.09.62.74.84.74M43,11.3l.27.28.22-.77-.39-.35Zm18.51,2.43v-.19a25.38,25.38,0,0,1-3.68-1.36c-.61-.21-1.51-.37-2-.61-.29-.14-1.59-.66-1.89-.74.12.44,1,.78,1.44,1,.93.45,1,.2,2,.44a7,7,0,0,1,1.59.84,8.79,8.79,0,0,0,1.9.62Zm-6.67-1.56a11.53,11.53,0,0,1-1.37-.78v.47L56.1,13c-.11-.44-.77-.65-1.24-.81m13.21.44c-.3-.27-1.47-.85-1.68-.56l1.68.56M20,12.05a1,1,0,0,1,.56.18v.47l.11-.18H21c.45,0,.24.5.84.66-.1.48-.11.24.34.41s.16.23.48.45.74.63,1.14.63a2.26,2.26,0,0,0-.78-1.17c-.14-.1-1.19-.76-1.2-.77-.42-.48-.58-.51-1.3-.66-.55-.12-.79-.42-1.48-.48l.45.22.12.24H20m46,3.74a9.4,9.4,0,0,0,2.56,1.27c.51.22,2.44,1.22,2.77.78-.18-.08-.86-.28-1-.35-.84-.29-.36-.14-.9-.51a10.47,10.47,0,0,0-1-.36c-.3-.14-.4-.29-1-.54-.34-.15-.63-.3-1-.44-.54-.24-.43-.4-.8-.6a6.59,6.59,0,0,1-1-.44c-.17-.16-.58-.68-.81-.68s0,0-.29.09c-.59-.4-2.9-1.95-3.64-2,.19.73,5.5,3.06,5.7,3.83ZM35.3,13.34l-.14,0v-.28L35.05,13l-.08.42-.29.65v1a.9.9,0,0,0,.37.75c.54-.39.38-1.09.48-2,.06-.55.64-1.31.37-1.87l-.11,0Zm7-1-.08.45,0,.2c.91-.24.54-.91.47-1.68-.41.11-.28.21-.28.75Zm10.36.18-.27,0-.76-.26c.05.64.23.14.56.75.7,0,1.16.38,1-.23ZM40.58,15.6c.17-.17-.16.17,0,0M40.3,17c.19.13.24.28.47.28h.56c.29,0,.76-1.09.72-1.4l-.11-1.64-.68-.72.07-.07c-.42.3-.09.05-.09.28,0,.68.37.9.37,1.68A7.81,7.81,0,0,0,41.24,17c-.39-.1-.28-.07-.28-.56a3.57,3.57,0,0,1-.37-1.22c-.15-.83-.16-.62-.77-1l.2-.27a5.46,5.46,0,0,1-1.87-1.69,2.2,2.2,0,0,0,1.5,2v.56c0,.08.49.92.54,1ZM23.47,12.8a2.72,2.72,0,0,0,1,2c0-.64-.86-1.21-.54-1.89l-.49-.54ZM53,14.1c.6,0-.07-.56-.19-.74l0,.11L51.27,13l-.4-.24a1.94,1.94,0,0,0,.65,1.49v-.93c.57,0,.75.74,1.5.74M61,15.41a36,36,0,0,0-4.87-2.15h-.18c-.37,0,0,.18-.66.19l2.44,1.12-.1-.37c.53.12,1.26.31,1.51.71l1.86.5m-.59-.91c.48.37,1.65,1,1.8,1.57-.73.33-1.86-.2-2.62-.38.26,1.11,2.14.88,2.8.56V15.6c-.34-.23-.37-.4-.8-.69a10.29,10.29,0,0,1-.91-.59,5.14,5.14,0,0,0-2.12-1h-.19a.51.51,0,0,0-.28.09c.32.49,1.8.65,2.31,1.05m-34.86-1-.26.21.48,1.69.11-.29-.15-1.39Zm27.87,1.41c0-.31-.12-.25-.28-.18a.67.67,0,0,0-.56-.38c-.17,0-.26,0-.28.19l1.12.75Zm3.35,1.4.12-.37L55.08,15h-.57c.63.54,1.45.51,1.87,1.31ZM51.62,16c.06-.28-.2-1.59-.47-1.59s-.28.07-.28.28v.19c0,.81.43.81.56,1.32l.37-.1v.18H52l.09-.29Zm10.58-.9c.13.62,1.73,1,2.32,1.18,0-.64-1.22-.8-1.68-1.49Zm-9.37.62c-.1-.38-.55-.55-1.07-.53l.34.52Zm15.82-.4.09,0-.31-.08ZM50.87,16.44a3.87,3.87,0,0,0-1.78-1.31c1.34,1.17.5.75,1.31,2l-.66.58.37.08L50,18l1.5-.06c-.18-.69-.69,0-.65-1.5M27.3,15.32c0-.36,0,0-.09-.28-.15.1-.28.12-.28.37a.9.9,0,0,0,.28.66,1.36,1.36,0,0,0,.09-.47v-.28m.92.65.86,1.5a10.24,10.24,0,0,1-.37-1.68v-.27l-.28-.11Zm35.93.66a.66.66,0,0,1,.28.09A2.77,2.77,0,0,0,63.3,16a.53.53,0,0,0-.28.1l.38.45Zm-21.7.28c-.23.35-.19.63-.47.83s-.57.3-.87.52L39.74,17.2l-2.43.27c-.23,0-.24,0-.46-.09l-.66.46c1,.23,5,2.81,5.23,2.81.4,0,.07-.24.73-.24l-.45.8c-1.29-.11-2.19-1.33-3.42-1.9a14.19,14.19,0,0,1-3.4-2.12,6.11,6.11,0,0,1,2.8-.38c.64,0,1.12-.26,1.78-.28-.31-.43-2.15-.28-3-.28l-.39.07L35,16.16h-.09c-.45,0-.19.45-.94.47.08.93,2.1,3.89,1.66,4.92l.51,1,0,.34.67,1.62,0,.48.21.27v.56l.21.41,1.2-.49,1.31.17c.07,0,1.5-.18,1.59-.14l2.89-.14h.19c.27,0,.18,0,.28.19l-.29.08.57.1c.1,0,.2,0,.38-.09-.13.47-1.4.45-2,.38l-4.77.09h-.37c-.28,0-.32.16-.38.45l1.69.16h1.68l3.09-.14a.54.54,0,0,1,.38.1l.26-.21v.1l3.47,0,3.45-.35c0-.37.1-.22.1-.47,0-.45-.66-1.51-.66-2.33l-.11.05-.64-1.45a1.35,1.35,0,0,0,.1-.47A3.32,3.32,0,0,0,50,20.65l0-.75a4.28,4.28,0,0,1-.66-2l-.27-.2a1.67,1.67,0,0,0-1.42-1.92l-1.37.15A3.7,3.7,0,0,1,44.7,16l-.1,0-1.68,0h-.09c-.16,0-.28.06-.28.19,0,.57,1.62.3,2,.29.51,0,1.86.18,2.23.18h1.31c0,.47,1,2,1.13,3,.09.87,1,2.45,1,2.9a1.3,1.3,0,0,1-.09.46,3.44,3.44,0,0,1,.76,1.77c.26,1.65.77,1.21-.66,1.31-.9.07-1.64,0-2.25.1a24.05,24.05,0,0,1-2.53-.09c.32-.44,2.49,0,3.37-.47a1.36,1.36,0,0,0,.47.09c.44,0,.21-.36.19-.68l1.21.4V25a9.07,9.07,0,0,1-.48-1.15L49.28,21l.09,0a12.58,12.58,0,0,1-1.27-3.24l-.32-.6c-.79.22-3.63,3.67-4.49,3.28A3.79,3.79,0,0,1,45,18.62c.78-.36.6-.52,1-.75s.75-.29.91-.93l-4,.06a1.36,1.36,0,0,1-.47-.09m17.77,1.31c-1.12,0-1.49.79-3,0l-.31.56.45.2,1.12-.07c.19,0,.22.08.38.19.67-.36,1.87-.06,1.87-.66S59,16.24,58.16,16.53c.29.4,1.89,1.06,2.06,1.69M63.64,17l-1.18-.46c0,.91,1.19,1,2.06,1,0-.46-.42-.47-.94-.47Zm-32.13.1c.32.47.35.8.84,1.13,0-.06-.39-1.69-.56-1.69s-.18.36-.28.56m22.82,1.59c0,.34-.52.44-.84.47v.18l1-.09c.05-.09.38-.55.38-.56A2.07,2.07,0,0,0,53,17c.13.37,1.31.94,1.31,1.68m-24.6-1.3v.18l.56.28c0-.44-.19-.46-.19-.93v-.28c0-.36,0,0-.09-.28-.19.13-.15,0-.19.28Zm32,.09c.07.91,2.45.72,2.71.37l-2.71-.37m-9.54,1.4a1.86,1.86,0,0,0-1-.65c.15.63.32.35.47.74Zm15.05-8.79a31,31,0,0,0,4.2,2.07,2.6,2.6,0,0,1,1,.59,5,5,0,0,0,1,.58c.76.43,1.32.69,2,1.16l-.1.37h.28l.07-.24.4.71c.09-.11.16-.28.28-.28a5.12,5.12,0,0,1,1.58.84,8.18,8.18,0,0,1,2.62.93c.36.2.81.46,1.18.7s.88.27,1.35.52l-.19.37h.19v-.28a4.73,4.73,0,0,1,2.15,1.22,2.29,2.29,0,0,1,1.59.93h.28c.29,0,.4.23.51.39l.58.35-.06.1a1.19,1.19,0,0,1,1.31.94l.15,0,.22-.35c-.53-.73-.67-.5-1.45-.89-.35-.17-1.35-.76-1.26-1-.54,0-1.44-.78-1.87-1s-.39-.44-.89-.61-.71-.3-1.07-.42a8.34,8.34,0,0,1-2-1c-.55-.52-1.51-.53-1.89-1.08l-.37.06-1.5-.83c1,.09,2.2.93,2.84.92L80,15.32a.38.38,0,0,1-.28.09l-.33-.07-.74-.4-1.08-.56L77.8,14h-.28v.15L76.6,14l-2-.9v.12l-.21.25-.5-.18.21-.56c-.69,0-1-.5-1.34-.62-.65-.19-1.12-.4-1.56-.5v-.47l-.25,0-.22.26c-.5-.33-2.29-.88-2.43-1.4a1.81,1.81,0,0,1-1.21-.37c-.85-.45-.89-.18-1.31-.38.16.63.76.27,1.21.94ZM57.08,21.27c.62.11,1-.63,1-.81,0-.43-1.17-1.29-1.59-1.4.33.46,1.15,1.07,1.21,1.87l-1.77-.28c.12.47.61.52,1.16.62M60,21a.48.48,0,0,0,.28-.28,2.48,2.48,0,0,0-1.21-.84,3.05,3.05,0,0,0,.49.53c.16.18.29.59.44.59m-5.21-.38-.12-.38-.56.19c.36.54.43.42.94.76.53-.26.4.29.55-.27Zm-1,1.78h.28c.33,0,.8.71,1.38.7L54.79,22l-.37.1c-.05-.13-.79-.93-1.12-.93s-.21.07-.38.18c-.43-.23-1-.25-1.12-.74h-.28c-.27,0-.1.08-.47.18.14.51.94.63,1.4.86.28.14,1.12.84,1.41.92ZM87.24,21h0Zm-33,3.86c-.11.07-.37.13-.37.28s.57.47.74.54l.48-.07-.85-.75m.85,1.31c-.86,0-.38-.31-.94-.37,0,.32.07.65.37.65s.18-.06.57-.09Zm2.73,2.41c.16.13,1.63,1.11,1.75,1.14-.14-.54-1.66-1-1.68-1.87-.63,0-.55-.4-.84-.83l-.56.11c.1.34.51.39.76.62s.22.53.57.83m-15.08.12v-.25l-.65,0a.62.62,0,0,0-.39.11l-.45-.29-.41.07,2.09.86A5.53,5.53,0,0,0,45.16,29v-.19h-.3l.11-.39-.37.12v-.28c-.25-.06-.17-.1-.37-.1a.5.5,0,0,0-.28.1l.15.26.19-.23.4.42-.27.11c-.26-.06-.18-.09-.38-.09a1.82,1.82,0,0,0-.64.16Zm18.33,4.48c.75.06,4.39,3.46,5.52,3.55-.07-.1-2.56-2.07-2.71-2.15a13.55,13.55,0,0,1-1.44-1c-.39-.24-.2-.36-.63-.58s-.54-.14-.55-.67c-.57,0-.81-.45-1.11-.77s-.06-.37-.34-.59-.37.08-.42-.51H59.1a28.5,28.5,0,0,1-2.62-2.15c-.17.81,1.16,1.17,1.21,1.87l2.72,2.43c.5,0,.55.13.65.56m-15-3.37-.26-.1L44.6,30c-.17-.11-.16-.18-.37-.18H44l-.12-.27c-.16.11-.16.18-.37.18h-.75a1.36,1.36,0,0,1-.47-.09c.2.54,1.38.47,2,.47.17.11.16.18.37.18h.47c.33,0,.14-.18.47-.18h.28c.38,0,.48.08.56.37-.38,0-.21-.09-.56-.09-.17,0-.24.21-.28.37a16.75,16.75,0,0,0,1.86-.28c.78-.14,1-.69,1.62-.53l.82-.78c-.79.19-1.74.94-2.13.77l-.3.26c-.28,0-.8.09-.87,0-.27-.28.23-.36.49-.3.42-.57,1.44-.57,1.52-1.27ZM47,31c-.35,0,0,0-.28-.1l-.29.21-.26-.19-.57.18a.73.73,0,0,0,.66.28c1.05,0,2.89-.65,3.06-.44l-1.47.62A5.65,5.65,0,0,0,49,31.4c.35,0,0,0,.25.06l.5-.34c.17,0,2.13-.6,2.24-.66.39-.19,1.48-1,1.49-1.51l-.74.11c.1.43-.18.64-.75.65-.26.49-.52.52-1.12.66.36-.55,1.22-.72,1.4-1.4a.85.85,0,0,0-.19-.1,3.27,3.27,0,0,0-1.06.72c-.3.3-.86.38-1.26.6A6.1,6.1,0,0,1,47,31m5.68-.23-.71.58.63.22.11.27V31.5l.28-.1h-.56v-.19c.91-.21,1-.51,1.21-1.4h-.18c0,.39-.47.62-.84.65Zm4,.23h.46c.16,0,.28-.05.28-.19a.21.21,0,0,0-.18-.18c-.33,0-.2.05-.56.09Zm-1.86.65-.2-.55-.56.18-.38-.18v.18c.75.06.24.5.84.66v-.28ZM49,31.86s0-.07,0-.05.09,0,.14,0h.66c.56,0,1.87-.24,2.06-1-.52.14-.57.48-1.4.57a4.29,4.29,0,0,0-1.6.46ZM45,32l-.19-.1-.38.26,1.14.21c0-.43-.08-.31-.38-.48Zm.48.58c.1.38.84.8.84.26v-.18l-.36-.17Zm11.13.65c1,.65,3.64,3.35,4.76,3.44V37l.66.09c-.14-.49-2.41-1.81-2.91-2.23-.9-.75-1.57-1.94-2.89-2l-.24.33,0,.17ZM56,35.41c-.52.33-.52-.26-.85-.45s-.53-.28-.65-.76l-.06.07-.82-.78-.05.43c0,.24,1.37,1.28,1.64,1.63l.86.73c.29.23.63.62,1,.63-.15-.55-.28-.42-.63-.68s-.28-.7-.31-.72l-.09-.1m7.39,1.31h0m-6.25-4.57c.89.2,1.49,1.47,2.29,1.52l.68.9a3.75,3.75,0,0,1,1.71,1c.55.55,1,.63,1.57,1.14-.73,0-2.85-1.65-3.09-1.68.12.46.93.63,1.17,1a2.05,2.05,0,0,0,1.45.8c0,.19,1.29,1.08,1,.06l1.67.78a7.44,7.44,0,0,0-1.48-1l-.74-.48c-.49-.38-.64-.13-.68-.63-.92-.08-.95-.88-1.59-.94v-.18h.28c.36,0,0,0,.28.09v-.37c-.46.1-1.65.17-1.4-.47h-.47c-.23-.35-.32-.23-.58-.54a4.66,4.66,0,0,1-.39-.83,7.49,7.49,0,0,0-1.53-.78Zm-2.25,4,.1-.07-.51-.26Zm12,1a9.54,9.54,0,0,1-2.25-1.23,18.92,18.92,0,0,0-2.06-1.3l2.3,1.88,1.51.88,0,.23h.19v-.18a1,1,0,0,0,.56.18h.09c.62,0-.14-.62-.31-.75ZM56.48,34.67c.17.16-.17-.17,0,0m-1-.1c.39.11,1.57,1.45,2,1.69a12.88,12.88,0,0,1,1.15.72,4.34,4.34,0,0,0,.55.2,1.89,1.89,0,0,1,.33.13l.12.07s.07.12.1.09l.11-.08c-.55-.29-1.18-.59-1.33-1.23L57.6,36V35.6l-.07.1-1.1-.87.24-.07v-.19h-.38c-.52,0-.63-.34-.84-.65l.2-.05-.3,0c0-.37-.26-.43-.65-.46.13.5.75.47.75.84v.28M15.13,11.13c.1.44.09.79.53.83l.13-.56-.06-.23-.27-.11Zm1.12.26c.15.37.43.76.74.76.15,0,.22-.26.29-.38h0c-.28-.09-.64-.22-1-.37m-1.61-.71-.1.2,0-.23Zm.42-1.63h0m.3-.12L15.17,9l.19-.09m.26-.12h0a1,1,0,0,0-.21.1,1,1,0,0,1,.21-.1l-.36.68h0Zm-.77.24Zm-1.42-.6Zm-.8,1.31a3.91,3.91,0,0,0,.88.55,1.57,1.57,0,0,1,0,.34h.28l.15-.3.23.39h-.28V11l-1.23-.33.08-.06-.13-.88m-.25-1.07h0l-.05.21Zm-1-.54v0h0Zm.38,1.33a2.64,2.64,0,0,0,.46.13l.11.76c0,.21-.07.25-.12.47L13,12c-.81-.19-.38-1-1.34-1.11v.47H11.2v-.28c0-.45-.94-.17-.94-1.31A8,8,0,0,1,10.52,9l.05.07a1.5,1.5,0,0,1,.64.09l0,.28c0,.08-.16.24-.16.29a4.39,4.39,0,0,0,.75.74v-1m-1.42,2.67c0-.54-.06-.82.38-.94.38,1.64,1,.79,1.4,2.43-.65-.05-.25-.44-.76-.73s-.39-.55-.83-.67c-.12.25-.09-.08-.09.28v.09c0,.2.4.57.56.66,0,.34.16,1.4.47,1.4a.61.61,0,0,0,.37-.09l.94.55a4.08,4.08,0,0,0,.84,1.69l-.76-.73-.08.08.06.83c.07.27,1,1.24.3,1-.46-.18-.54-.55-1.21-.87,0-.79-.38-1.1.38-1.12-.1-.44-.32-.56-.66-.75-.6-.35-.35-.12-.65-.75l-.37.19a25.88,25.88,0,0,1-1.88-2.06l.58-1.11,1,.65m-.29,1.68.38-.11.39.64.12-.07-.24-1.11-.07.08-.9-.82Zm4.6-2c0,.29.62.65.85.85l.07-.09-.36-.3v-.18a1.11,1.11,0,0,0-.1-.45l-.46-.11ZM8.67,15h.4l.06-.8L10,15.51a.38.38,0,0,0,.09-.28c0-.26-1.2-1.86-1.3-2.24H8.58c0,1.35-.3.58.09,2m8.51-.93c-.31,0-.2-.19-.37-.19-.89,0,.37.88.45.93l-.19.59.24.27.14.85.1,0c.51-.37-.28-.71,0-1.32l-.21-.28.38-.55c.18,0,.47.31.47.47,0,.58-.15.48,0,1A2.2,2.2,0,0,1,18.37,17s.24,2.05.29,2.21a4.81,4.81,0,0,0,.69,1.75c.39.67.2,1.37.82,1.79l.19-1c-.38-.56-.27-1.3-.88-1l-.26-1.34.47-.43.2.17c0,.52-.12.55.28.66l0-.34.8.43c0-.39-.3-.47-.57-1-.16-.32-.22-.18-.34-.4s-.09-.54-.3-.54c-.49,0,0,.41-.75.47,0-.09.1-.28.05-.28L19,16.73v-.1a.94.94,0,0,0-.29-.65v-.84c0-.42-.25-2.15-.66-2.15-.71,0-.49,1.12-.84,1.12M7.55,15.32c0,.47.41.68.72,1s.38.2.49.36-.28.22.29.37c-.06-.65-.5-.77-.56-1.32-.11-1-.1-.54-.94-.74Zm1.87.94c0-.52-.22-1-.75-1,.1.36.31,1,.75,1M6.61,17.94c0,.45.09.75.46.87.55.18.29-.21.29-.68-.45-.3-.17-.51-.75-.56Zm56.73,1.68H64a.55.55,0,0,0,.56-.28c-.12-.06-.1-.09-.28-.09l-.19,0-.72.09a2,2,0,0,1-.06.32M17.65,18.5l.19,2.25a7.21,7.21,0,0,0,.38-1.39c.18-.57.17-1-.46-1.13Zm3.93.28h.91l.29,1.42.1-.58.28.09c0-.55,0-1.69-.74-1.69-.29,0-.65.57-.84.75m-9.64-1-.09.57c-1-.28-.82-1.2-1.87-1.22-.11.47-.13.47.47.47a3.31,3.31,0,0,0,.91,1.14c.62.46.59.33,1.06,1l-.2.27c.47.69-.16.63.75.56l0,.33,1.06.46.33.24a1.92,1.92,0,0,0-1.22-1.12V19.9c0-.47-1-.57-.73-1.16l.45.14c0-.43-.29-.53-.54-.77-.51-.51-.26-.23-.51-.9a5.48,5.48,0,0,0-1.38-1.42c-.23.5.26.76.58,1s.69.89.91.95m53.49,1.78,1.23.08.27.22,2.33,0c.54,0,1,.45,2.08.45.75,0,1.54.11,2.51.11.16.11.16.19.37.19h.19c.21,0,.2-.08.37-.19a8.64,8.64,0,0,0,2.34.09,24.81,24.81,0,0,1,2.5.4c1,.14,1.07.22,2.26.36a22.57,22.57,0,0,0,2.72.18c0-.6-.38-.14-1.27-.32s-.87.18-1.63-.33l-1.23-.08-.27-.2c-.66,0-2,0-2.24-.36L76.75,20l-.29.07L73.37,20l-6-.73-1.4,0a.54.54,0,0,0-.56.28m-12,1.7h0m.14.06-.13-.06.13.06m.05,0-.05,0,.05,0m-.63.05Zm-19.28-.14a1.11,1.11,0,0,0,0,.25l-.56,0-2.34,0a10.35,10.35,0,0,1,2.85-.27m2,.22Zm7-.8h0m.09,0h0m0,0h0m.09.09a.22.22,0,0,0-.06-.07.22.22,0,0,1,.06.07m0,.13a.29.29,0,0,0,0-.09v0a.29.29,0,0,1,0,.09m0,.17a.92.92,0,0,0,0-.16.92.92,0,0,1,0,.16m1.52.32v0m0,.4a.69.69,0,0,1,0-.34.69.69,0,0,0,0,.34m6.23-.07,0,0,0,0m0,.27v0m-.18-.7.13.26-.13-.26h0m2-.13a1.3,1.3,0,0,1-.29-.14,1.3,1.3,0,0,0,.29.14m.52.21-.19-.08.19.08m-1,.08h0Zm3.71-.28a.81.81,0,0,0,0-.15.81.81,0,0,1,0,.15m-.12,0h0m2.63-.69a.13.13,0,0,0,0-.06.13.13,0,0,1,0,.06m2.18.18-.15-.15h0l.15.15m0,.05v0Zm0,.17h0Zm-.77-.81a3,3,0,0,1,.44.29h0a4.17,4.17,0,0,0-.44-.29h0M8.86,21.59c-.14-.3,0-.34-.13-.71,0-.06-.35-.46-.44-.59-.37-.55-.39-.78-.93-1v.19l-.07.1L5.77,18.41a3.77,3.77,0,0,0,.3,1.2c.35.64.43.33.81.78a5.72,5.72,0,0,0,2,1.2m-2.53.09.33.49,1.08.63a11.31,11.31,0,0,0-1-1.4c-.24,0-.3.13-.38.28M37.07,23.1ZM37,22.85l0,.09,0-.09m0,0,2.45,0H41v.18h-.66l-3.3,0Zm-6.62.33c.14-.55,1.53-.38,2-.38h.19l1.84,0,.2.3H32.89l-2.52.05m-5.61-.1c-.16.59,0,.28.46.28l.56.05,2.53-.14.93,0,.93,0,.1-.37-.56,0-3.47.18L26,23Zm20.46.08h0l.22.12-.22-.12M12,25.14h.28v-.45l-.83-.3c.19.74.77.25.56.75m62.83.28.58.08.27.2c.9-.19,1.24.07,2.2-.13a18.48,18.48,0,0,1,2.47-.43c-.27-.36-5.37.21-5.52.28m-6-.05a4.42,4.42,0,0,0-1,.24c-.09-.05-.34-.21-.47-.19l0,.1-1.33.09a1.11,1.11,0,0,0-.46.18c-.25-.06-.18-.09-.38-.09-.59,0-1.37.36-1.5.77l3.56-.58c.06,0,1.58-.1,1.77-.1A9.58,9.58,0,0,1,71,25.74c.7.12,3.41,0,3.69-.47l-.75.06v-.15Zm-64-3.67c.12,1.37.84.13.85,1.74l.83.74L7.44,24l.3.94.63.09.17.87.83.87.9-.66,1.58-.43c0,.5.14.28.56.54l.68.13.82-1,1.31,0v-.11c.1.1.41.47.56.47s.47-.28.75-.28a5.11,5.11,0,0,1,.84.65c-.15.21-.66.48-.66.85,0,.15.06.28.19.28a5.68,5.68,0,0,0,.93-.38c.38.18.8.22.79.69l-.66.65.07.12.74-.06.25,0,.31.82h.37v-.28c0-.25-.53-.75-.61-1.06-.17-.58-.16-.9-.58-1.2-.59-.43-.5.1-1-.81a3,3,0,0,0-.92-.88l-2.56-.1-.39.42-.57.36.06.1h-1.4a1,1,0,0,0-.56-.19h-.56s-.77.24-.85.28l-.37-.19v-.65c-.17-.11-.16-.19-.37-.19s-.28.15-.47.28c-.06-.68-.45-.34-.67-.92s-.16-.69-.64-.94l-.47.18-1-1.63.09-.06Zm45.21,1.2s0,0,0,0Zm4.42,3.16,0,0,0,0m.1.05,0,0,0,0m-.29.3.08,0-.08,0m-.06,0,0,0,0,0m0,0,0,0,0,0m-.09-.19a.14.14,0,0,0,0,.07.14.14,0,0,1,0-.07m0-.32s0,.07,0,.11,0-.07,0-.11m3.33,1.26a3.81,3.81,0,0,1-.29-.41l.88.28.25-.15.6.34c-.13.19,0,.23-.31.23s-.2-.07-.37-.19l-.76-.1m-6.59-2.34,0,.21,0-.21m-.09-.39Zm-.26.37Zm13.31,2.56c0,.29,1,.63,1.31.65v-.17l-.27-.11c0-.33,0-.65-.38-.65h-.65Zm20,1.12H83.2v.37c0,.36,0,0,.13.31l.15-.31h.28a2.72,2.72,0,0,0,.84-.18c-.14-.52-.2-.19-.75-.19m-26.4,3.14a.82.82,0,0,0-.2-.06.82.82,0,0,1,.2.06m0,0Zm-14.64-.44c.61.32,1,.11,1.22.3a13.2,13.2,0,0,1-1.55-.07Zm7.72.57Zm-1.25-.1-.13.06.13-.06m1-.26-.16,0,.16,0m.57-.09-.23.05.23-.05h0Zm1.78.35,0,.12Zm1.44-.15,0,0,0,0m-.14-.09,0,0,0,0m0,0h0m.63-.19h0l-.47.15Zm5.16-.25-.14,0,.14,0m.22.16,0,0,0,0m0,.08s0,0,0-.05,0,0,0,.05m0,.05v0m.12.28a.49.49,0,0,1-.12-.28.49.49,0,0,0,.12.28h0Zm-.58-.63.06,0-.06,0h0m8.66-.56-.76.08-.28.15-2.43.43V31l-.26-.21V31L63,31.09l-.61-.36a11.61,11.61,0,0,0,4.08-.82c.17.11.16.18.37.18.36,0,0,0,.28-.09l.08-.1-1.51-1.11,0,.08-.25-.73c.78,0,2.17,1.56,2.75,1.77Zm-11.38,3-.14-.1.14.1M52.32,33l.28.41-.54.06c-.08-.06-.23-.19-.28-.13l-3.09-.15a.69.69,0,0,1,.09-.38l.12.09a1.39,1.39,0,0,1,.34-.14,1.82,1.82,0,0,0,.71,0,4.7,4.7,0,0,1,1.06.1,1.73,1.73,0,0,0,.42.39l.27-.09.1-.19a.6.6,0,0,0,0-.16l0,0,.37.2h.17m6.63-.3s0-.09-.05-.13,0,.09.05.13m0,.07,0-.06,0,.06m.21.37Zm2.11-.46a.74.74,0,0,1,0-.3.74.74,0,0,0,0,.3m0,.06,0-.06,0,.06m.17.13a.34.34,0,0,1-.16-.13.34.34,0,0,0,.16.13m16.84-6.15-.66,0a33.62,33.62,0,0,0-4.17.13,18.91,18.91,0,0,0-2,.24c-.64.17-.44-.05-1,0-.24,0-1,.25-1.07.25-.36,0,0,0-.28-.09a1.86,1.86,0,0,1-1.12.28,6.57,6.57,0,0,1-.66-.09c.1,1.1,3.3,2.17,3.84,3.17-.11.17-.19.17-.19.38,0,.43,0,.66.37.74v.17l-6.24,1A12.51,12.51,0,0,1,64,31.84a3.87,3.87,0,0,1,.48,0c.76,0,.82-.24,1.37-.48s1,0,1.66-.39l.59.11-.23.32-3.26.87v.17l.84,0A6.57,6.57,0,0,0,67.49,32c.18.09,2.8-.27,2.8-.75v-.28c0-.21-.78-.86-1-1-.68-.32-.55-.6-1-1-.77-.67-1.57-1-2-2l.36.14,1.4.07,1.79-.35a18.5,18.5,0,0,1,2.06-.28,28.33,28.33,0,0,1,3.91-.18l5.8-.12a11.59,11.59,0,0,1-3.09.47Zm10,7.24c-1-1.44-.72-.92-2.17-1.61v.46c.44,0,1.35,1.06,1.87,1.41Zm8.83-.21c0,.42,0,.36.47.37l-.07-.47Zm-5.48-.47h-.28a1.14,1.14,0,0,0,1.12.84A3.06,3.06,0,0,0,94,35.23a.38.38,0,0,0,.28-.09,4.28,4.28,0,0,0-2.52-1.87m3.18-.09c.1.19.79.84,1,.84s.24-.22.28-.38l-.4-.24c-.61,0-.26-.22-.62-.22Zm-47,.13a.76.76,0,0,1,0-.16.61.61,0,0,1,0,.12l-.06,0m-2.32-.56.07.08-.07-.08m-.1-.18a.51.51,0,0,0,.09.16.51.51,0,0,1-.09-.16M35.65,16.93a7.41,7.41,0,0,1,1.47-.12,7.41,7.41,0,0,0-1.47.12m-1.89,3.25c-.19.05-.34.08-.37.29l-.79,0-4.67.33v.11c.26-.94,3.77-.31,4.41-.76l.27.2a2.8,2.8,0,0,1,1.13-.24Zm2,.23h0Zm-.33-.22s0,.11,0,.16,0-.11,0-.16m.89,0,.12.21-.12-.21m5.81.23,0,.09Zm-.4.07,0,0,0,0m-.06,0,0,0,0,0m-1.2-.36h0l.62.34-.62-.34m-2.31-2.79h0l.68-.07Zm-4,.06c0,.1.09.2.14.3-.05-.1-.1-.2-.14-.3m2.34.54a4.7,4.7,0,0,1,.48.22,4.7,4.7,0,0,0-.48-.22m0,0-.1,0Zm-.27-.1.07,0-.07,0m1.27.6h0l.78.43-.78-.43m-2.79.13c.06.14.13.27.19.41-.06-.14-.13-.27-.19-.41m1.86-.16h0Zm.69.39ZM30.76,30.37l.44.2-.39-.09.4.45-.09.44.55.22a3.31,3.31,0,0,1,1.87-.38,26,26,0,0,0,3.05-.31c.08,0,.95.05,1.52,0l.19,0a.5.5,0,0,0-.15.32v0c-.28,0-.54.06-.77.07-1.74.07-3.85.5-5.45.39l.49.52.72.1.22-.26a6.07,6.07,0,0,0,1.75,0c.45,0,1.29-.22,1.33.3-.39-.27-.39-.2-.26.34l2-.44,0,.25,1.14,0c0,.11-.09.13-.18.27l.19.09c.21,0,.2-.07.37-.19v-.16l1.94.08.19,0,.39,0c-.22.16-.37.31-.37.4a.24.24,0,0,0,.06.13l-1.58,0v.13L40,33.15l-1.3,0-2.53.1-2.41.06-.2-.27.09-.21.55-.14-1-.2.22.92c-.11,0-.25.1-.28.1-.28,0-.76-.62-1.31-.84s0-.15-.49-.54-.46,0-.38-.56l-.72-.87H29.9a1.67,1.67,0,0,1-.62-.12l-.22.5a7.2,7.2,0,0,1,2.33,1.68H31c.12.46.24.31.64.48s.34.37.68.54a10.49,10.49,0,0,1,1.41,1A11.66,11.66,0,0,0,35,35.94c.88.55.48,1.26,1,1.44v.17l-.56.12-.95-.84-.14.06.36-.73-.2-.27c-1,0-.7-.38-1.31-.38H33c-.3,0-.35.19-.37.45l.93.12.19.37-.51,0L32.8,37c.39.54.66,0,.84.65-.12.07-.1.1-.28.1h-.19a1.35,1.35,0,0,1-.47-.1c0-.33-1.15-1-1.31-1,.11-.16,0-.19.28-.19h.38c-.18-.66-.64-.42-1.12-.75.11-.17.18-.16.18-.37s-.21-.36-.37-.47l-.46,0-2.53-1.2-.75.08-1-.36c.55.83,2.26.92,2.62,2.25-1.91-.16-1.46-1.5-3.47-1.48l-.28-.23-.36.11-.85-.74.19-.09c.85,0,.94.56,1.89.54L25,33H23.16c-.3,0-.53-.2-1-.25s-.56.17-.9.25c-.26-.49-.3-.68.29-.37.78-.69,1.15-.37,2.15-.28a1.58,1.58,0,0,1,1.77-1c.36,0,0,0,.31-.11l-.47-.83-.12-1.21c-.19-1.31-1.63-.66-.93-3.65-.36-.67,0-.83-.2-1.2s-.41-.54-.54-1.12l.4-.37-.32-1.23c-.3,0-.47,0-.47-.28,0-.52.36-.08.66,0,.06-.18.67-.75.93-.75a2,2,0,0,0,1.31.18c.25,0,.88-.35,1.3-.48a5.06,5.06,0,0,0,1.44-.34c.52-.39.79-.26,1.19-.57l.38-.2.47.13c-.29.14-.55.28-.66.35-.62.37-1.51.46-2,.73a7.87,7.87,0,0,1-2,.66c-1.35.15-1.1.17-1.9.75l.09,1.56.5.88,1.21-.13v.13l-1.27.08,0,.79,4.29-.14.66-.08c.23,0,.3.19.56.19.06,0,.2-.13.28-.14l.84-.05h.66c-.15.53-1.84.15-2.41.42l-.58-.23c-.73.63-4.31-.05-4.31.65a1.35,1.35,0,0,0,.1.47v-.1l1.77,0L28.21,26a18.36,18.36,0,0,1,3-.08,23,23,0,0,0,3.19,0l1.77,0h.06l.09.11h-.24l-1.5.08L34.38,26l-2.05.27c-.08-.05-.23-.19-.28-.19-.47,0-.85.18-1.4.21l-2,.07,0-.22-.33.21-.21-.17a10.78,10.78,0,0,1-2,.2c-1.64-.14-1.71.73-1.2.73L25.5,27,31,27v.12l.26-.15.29,0c-.12.45-.37.26-.94.27-.32,0-.88.16-1.13.17-.69,0-1.53-.07-2.14-.07l-.46,0-1.41,0h-.18c-.36,0,0,0-.31.12l.49.62.39-.19.27.21,1.22-.05,1.68-.15.18.47c-.42,0-3.62,0-3.64,0l-.09,0,.73,1.69.1-.05c0,.85,0,.49.53.72l.22-.25a.79.79,0,0,0,1.12-.37h-.37c-.38,0,0,0-.19.09-.17-.11-.16-.19-.37-.19h-.37v-.18c.25-.07.16-.09.37-.06l.93,0,.47,0,1,.19.41.19.32-.11.17-.15-.08.24Zm-2.83,1.5a5.26,5.26,0,0,0,1.87,1l.73,0-.82-1c-.54,0-.45-.07-.57-.54l-1.68-.28-.05.09,1,.5Zm0,.84a13.77,13.77,0,0,0,1.87,1.4c.36,0,.18-.06.57-.09v-.28C30.75,34,31.72,35,32.14,35h.66l-.34-.81c-.71-.21-1-.74-2.1-.87s-1.36-.56-2.43-.56m27.58,4.42c.59.2.86,0,1.33.26l.1.06c-.87.07-1.72.21-2.54.21h-.47a.7.7,0,0,1,.65-.56h.87Zm1.34-.26-.19-.11.19.11m.16,0-.16,0,.16,0m8.31-.55.2.11-.2-.11m-3.2.21h0ZM60.2,36.1,60.08,36l.12.08m1.41.08Zm-.54-.49.13.09-.13-.09m-.38-.22.06,0-.06,0h0m2,.21a.2.2,0,0,0,0-.07.2.2,0,0,1,0,.07m0,.09,0-.06,0,.06m.16.12-.07,0,.07,0m1.26.76-.06,0,.06,0m-1.08-.2h0l-.06,0Zm-.21-.14.09.06-.09-.06m-.47-.3.13.09L62.37,36m-.58-.48,0,0,0,0h0m2.74,0,.62.44h0l-.62-.44m-.38-.28.37.27-.37-.27m0,0-.08-.06h0Zm6.16.31,0,.16.33.43c.63,0,1.91.63,1.71,1L69,36.06l0,.09-.09.06a4.76,4.76,0,0,0-.31-.47c.92-.19,1-.79,1.44-.79h.38c-.14-.57-.37-.58.4-.79s0-.33,1.09-.33c.17,0,.15-.14.19-.29l1,.2.11.3.26-.3c.25.06.18.09.38.09s0-.84,2-.85l.57-.27v-.65c0-.27.73-1,.93-1.13a2.89,2.89,0,0,1,1.59-.28,7,7,0,0,0,3.28-.74c0-.65.19-.5.19-.94s-.71-.47-1.11-.48l-.2-.27A2.88,2.88,0,0,0,82.56,27c.57-.67,1.09-.08,2-.3.08.06.28.15.28.28s-.07.3-.28.3l-1.15-.14-.81.95.37.1v.28c0,1.14,1,.86,1.75,1.18l.31-.15V28.32c-.24.05-.47.19-.47-.19V28c0-.22.06-.28.28-.28h.39l-.11-.93c0-.21.09-.28.28-.28.48,0,.11,1.22.38,1.78h-.19c0,.4,0,1.32.18,1.3h.57c1.27-.1.63-.2.55-1,0-.41-.08-1.41.29-1.68a1,1,0,0,1,.27.84l-.09,1.49c0,.18,0,.14.1.4l.87.14.91.68c.69-.47.14-.92.61-1.72.36-.62.79-.93.79-1.74.27-.19,1.11-1.12,1.68-1.09l1.12,0a13.81,13.81,0,0,1,1.76,2.35c.53.73,0,.7.86,1.2.24.14,1.22.66,1.22.93s0,.11-.1.38l.28.11-.1.05.34.41.37,1-.06.06-1.13-.31.21.45-.47.28c-.31-.16-.71-.78-.28-.74l.56,0L97,32l-2-1.62-.67,0-.26-.2-.31.17,1.43.39c.37.71,1,.46,1,1.12s-.77-.28-.84-.37h-.47l-.09-.26-1-.12c-.23-.45-.58-.41-1.21-.47.44.61,2,1,2.8,1.31.61.27,1,1,.29.86-.53-.16-.75-.65-1.51-.66l.46.36-.27.94c.39.26,1.08.63,1.13,1.21-.52-.34-1.27-.59-1.85-1a14.84,14.84,0,0,0-1.8-1.1h-.56l.05-.1-.61-.28c0,.64.56.61.56.84,0,.42-.44.11-1,0a6.17,6.17,0,0,1-1.06-.53c-.35-.33-.59-.31-1-.61S88,31.4,87,31.4l-.37-.19v.29l0-.09,1,.55v.47l.93.65a4.74,4.74,0,0,1,2.46.91c.42.19,1.72,1.06,1.84,1.52a8.86,8.86,0,0,1-1.87-.74h-.37l0-.09-.38-.18-.07.12,1.16,1.17c-.78.19-3.07-.83-3.09-1.68a4,4,0,0,1,1,.28h.37c.47,0,.33-.46-.44-.49l-1.61-1.38c-.72.16-1-.66-1.59-.94s-.63-.06-1-.15-.55-.31-.92-.31-.3.19-.56.19A.53.53,0,0,1,83.1,31v-.12l.83,0v-.18c-.51,0-.47-.19-.74-.19-.06,0-.2.13-.28.19.07.35.12.52-.38.56.35.48,1.2.51,1.79.73a10.12,10.12,0,0,1,1.56,1c.43.37.86.84,1.33,1.2s.91.5,1.12,1.4c.34,0,.75.22.75.56v.37h-.38c-.48,0-.46-.53-.51-.77s-.6-.15-1-.35c-.12.06-.1.09-.28.09-.61,0-2.83-2.15-3.65-2-.11-.42-3.12-2-4-2-.4,0-.48.18-1.16.23l.32.23c-.28.42-.51.33-.61.51s.22.35-.51.52v.19c.56.13,1,.38,1.55.5.86.2.88.53,1.53.53.33.49,2.25,1,2.25,1.58,0,1-3.44-1.45-3.65-1.58l0,.09-2-.82-.63-.07-1.38.53,0-.12-.46.39a3.62,3.62,0,0,0,2.16.54l-1-.63.06-.1a1.49,1.49,0,0,0,.29-.12l1,.12c.58.39,2.08.41,2.25,1l.46-.12a5.6,5.6,0,0,0,1.52,1,16.2,16.2,0,0,1,1.29,1.33,8.26,8.26,0,0,1-1.83-.78c-.49-.36-1.43-.74-1.44-1.46-.6.28-1-.56-2-.58l-.3-.27.09.57h-.28l0,.09,2.94,1-.08,0,.35,1c-1.15,0-2.3-1.57-3.65-1.69v.19c.94,0,1.11.55,1.62,1s.17.55.65.67.58.21.09.44l-1.33-.43c-.16-.62-1.34-1.14-1.92-1.43l1.44,1.25-.09.07-.27.11A7.81,7.81,0,0,1,74,35.7c-.28-.42.23-.47-.9-.78a4.6,4.6,0,0,1-1.49-.5L71,35h-.65a7.14,7.14,0,0,0,3.55,1.13c.11.16.19.16.19.37l0,.41-.45-.22a2.91,2.91,0,0,1-1.37-.41c-.7-.36-.76.12-1.16-.64Zm21.79-7c.21,0,.21-.08.33-.2l.32-1c-.53.05-.69.87-.93,1.22Zm-1.25,0c.5,0,.58,0,.78-.25-.36,0-.28.05-.41-.31Zm2,.21c0,.31.08.07.19.47a1.25,1.25,0,0,1,.46-.09,1.84,1.84,0,0,1,.56.28l.84-.21.11-.05-1.33-1.95-.08.06c-.11.23-.75,1.41-.75,1.49m-2.15.85H91a1.51,1.51,0,0,1,.75.18l.65-.46c-.35-.53-1.23-.39-1.78-.1Zm-5.24,1.21C85.35,30.5,84.36,30,84,30h-.38c-.16,0-.25.05-.28.19a4.18,4.18,0,0,0,2.06.65m8.32-.65c-.16-.17.17.16,0,0m-5.61,1,.1-.18c0-.56-.49-.69-1-.73s-.22.14-.69,0-.26-.15-.78-.15c.14.55.5.55,1.1.67.45.09.75.23,1.23.35m4.1-.7-.08.07.39,0Zm-1.67,0c0,.5-.18.27-.18.46,0,.63,1,.88,1.48.87a4.71,4.71,0,0,1,1.6.72c0-.54-2.38-1.71-2.9-2.05m-4.31,3.64-.64-.65h-.28a11.7,11.7,0,0,1-1.71-1c-.53-.34-1.58-.58-1.76-1.06l-.55.12.84.92c1.35,0,2.79,1.49,4,1.78ZM84,36h.2L84,35.7c-1.54,0-1.86-1.35-3-1.49-1.34-.17-.74-.13-1.61-.63a7.46,7.46,0,0,1-1.38-.88l.11-.19.27.2h.65c.31.2,1.35.94,1.46.43L78.8,32a5.1,5.1,0,0,1,2.37.72,7,7,0,0,0,1.06.53c.38.18.61.52,1,.64a4.6,4.6,0,0,1,1.11.48c.44.24.63.42,1,.62.51.31,1.64.87,1.78,1.4h-.94l.49,1-.11.08c-.07.06-.91-.67-1.13-.74-.54-.18-1-.5-1.3-.57Zm.84-.38.19.57h.65l.36.22,0-.09ZM69.62,36.82c-.23-.12.09-.09-.26-.09a.34.34,0,0,0-.22.06.94.94,0,0,1,.06.31.43.43,0,0,0,0,0,.82.82,0,0,0,.33,0Zm-3.76-.19-.12-.05Zm.66.09h0m0,0h0m-.17-.22,0,0h0Zm-63,.15c0,.44.8.84,1.22.84a.66.66,0,0,0,.65-.38c-.28-.42-.66-.39-1.17-.88s-.7-.74-.7.42m24.36.41.39.46.22-.41C28.06,37,28.38,37,28,37Zm-17.53.7c-.1-.35-.73-.64-.75.12Zm7.85,0c-.1-.19-.42-.5-.65-.5a2.38,2.38,0,0,0-.71.15l.49.44c.27-.09.24-.15.5-.13Zm3.56-.22h-.29a6,6,0,0,0-.65.09c.1.19-.06.28.28.28h.37c.29,0,.26-.11.29-.37m1.21-.19c0,.07.07.37.28.37s.17-.19.19-.37ZM9.42,35.05c.33.5.46.34.7.7s.31.58.52.89h.55l.66,1-.41.15-.34-.5c-1,0-1.52-1.5-2.9-1.5.06.74,1.05.51,1.13,1.41-.53-.13-1-.22-1.06-.8l-1-.61,0-.09a2.14,2.14,0,0,1-1.34-.43c-.32-.19-.25-.23-.46-.39s-.33-.1-.63-.28l-.38.07a1.44,1.44,0,0,0,.83.86c.62.27.59.61.89.79s.71,0,1.16.52c.14.14.79.92.4.92a3.21,3.21,0,0,1-2-.85c-.93-.57-.94-.33-1.5-1.4H3.81c-.18-.26-.38-.32-.38-.74v-.1a5.28,5.28,0,0,1,.36-1.42c.34-.62.44-.45,1.17-.68l.81-1.07c.12.06.1.09.28.09h.37l-.09-.84c.55-.15,2-1.64,2.62-2a2.62,2.62,0,0,1,1.42.36,5.39,5.39,0,0,0,1.11,1.23v.47c.9.61,1.45.11,2.27,1,.6.66-.19.43.89.88a2.71,2.71,0,0,1,.95.83.53.53,0,0,0,.26.77,3.42,3.42,0,0,1,.78.46L18.18,34l0,.11.66.15a3.81,3.81,0,0,0,.84.75c.72,0,.06-1.69,1.78-1.69,1,0,.89.66,1.12.66s0,0,.28-.09a2,2,0,0,0,1.31.37c.06,0,.2-.13.28-.19.32.43.55.44,1,.67s.6.62,1,.73v.28c0,.38.49.2.84.94-1-.08-2.24-2.21-4-2.06v.19A5.55,5.55,0,0,1,25,36.1c.52.46.36,0,.72.68a1.38,1.38,0,0,0,.8.7c-.15.56-.79-.23-1.18-.51s-1.1-.66-1.16-1.18l-1.12.1c.33.28.79.24,1.05.63a7.44,7.44,0,0,1,.63,1v.28c-1.05-.09-1.18-1.49-2.15-1.49-.55,0-.07.56,0,.84-.78,0-1.2-.94-1.49-.94a3.18,3.18,0,0,0-.75.19c-.4-.27-.63-.76-.92-.86-.56-.2-.72-.3-1.22-.5l-1.32.24c-.13.35-.29.28-.76.23l.29-.05c-.29-1.08-1.77-.22-1.77-2.15,0-.45-1.41-.47-1.41-1.12V32l-.07-.07-.3.39-.67.07-.3-.18.31.54H13l.56.93c-.46,0-1.69-1.12-2-1.12l-.42,0,1.46,1.72.08-.07c0,1-.56,0-.82-.12a2.59,2.59,0,0,1-.95-.91c-2.43,0-.79.19-.33,1,.26.45.32.66.59,1.09s.6.34.86.78l3.27.33v-.28c0-.36,0,0,.09-.29.43.12.24.29.56.29h1.13a1.48,1.48,0,0,0,.73-.18l1.23.92a1.3,1.3,0,0,1-.09-.46c0-.16.05-.28.18-.28.3,0,.85.45.85.65s-.42.29-.76.47l.38.56c-1.15,0-2.09-1.5-2.62-1.5a1.23,1.23,0,0,0-.94.66l.48.84c-1,0-1.47-.62-2.25-1l-.19.09c-.21,0-.1,0-.32,0l-.42.42c.4,0,.52,0,.56.46-.47-.12-.59-.56-1-.75-.64-.27-.67-.08-1.27-.59-.43-.38-1.62-1.55-2.19-1.27m1.5-3.55h.18l.1,0-.57-1.55-1.77-.38c.21.41.5.56,1.12.56Zm-3.46-.29c0,.47.64.58,1,.91a4.4,4.4,0,0,0,1.28.78c.16,0,.28-.06.28-.19s-.38-.65,0-.65.19.28.94.28a6.69,6.69,0,0,0-2.15-2.15L8,30.37c.33.5,1.7.68,1.77,1.59H9.51c-.29,0-.49-.65-1.68-.65-.21,0-.11,0-.37-.1m.91,2.08a7.57,7.57,0,0,1,.69.81c.52.66.41.19,1,.48-.27-1.16-.75-.89-1.3-1.6s-1-.62-1.87-1l-.28.1c.18.24,1.36.85,1.75,1.22m.31,2.22-.1-.93V34.3c-1-.27-.9-1.4-2.43-1.4H5.87c.1.37,2.31,1.24,2.33,2.33Zm-1.34-.28L7.46,35c-.74-.49-.5-1-1.69-1-.52-.35-.42-.25-.37.28,1.17,0,1.08,1.22,2.16,1.29Zm15.58-.5c-.4-.63-.51-.26-1.05-.5l-.93.39,1.25.62,0-.1c-.07.11-.31.37,0,.37s.22-.07.31-.32l.44.31.75-.08c-.45-.39-.4-.06-.81-.69m0,1.25c-.11-.44-.61-.22-1.12-.55l-.84-.1c-.05,0-.18.08-.19.09s.59.57.75.56Zm7.39,1.31a3.39,3.39,0,0,0,.66.56c.12,0,.22-.19.28-.28l-.11-.27-.46.06Zm6.45-.09c-.28,0-.31.16-.37.37l5.24.2,4.67-.07,3,.08.36-.12a.59.59,0,0,0,.38.1l1,0,1.68.08c-.11-.47-1.05-.65-1.21-.24l-.85-.46a.59.59,0,0,1-.37.09c-.29,0-.66-.19-1-.19,0,0-1,.24-1.14.26-.48.07-.7-.17-1.19-.17-.28,0-.25.19-.66.19h-.09l-3-.38V37H42.8l-1.12.06c-.5.09-1.73-.08-2.15,0a17.25,17.25,0,0,1-1.87.38c-.12-.32-.49-.28-.94-.28"/><path class="cls-3" d="M249.7,32.3H444.75v2.39H106.06V32.3H249.7Zm194.6.46H106.52v1.47H444.3Zm-338,.55h-.23v1.38H444.75V33.31H106.29Zm0-.86c-.11,0-.15-.15-.4-.45s-.61-.63-1-.59l-.35,0a1.89,1.89,0,0,0-.85,1.35c-.31-.17-.47-.55-1-.73a2.42,2.42,0,0,0-1.49-.16,1.9,1.9,0,0,0-1.09.68,1.47,1.47,0,0,0-.42,1.28c.23.86,1,1.76,2,1.09a1,1,0,0,0,.35-1.21.59.59,0,0,0-.52-.36c-.3,0-.38.13-.48.35l.09.19h.25a.27.27,0,0,1,.07.19.39.39,0,0,1-.35.35H101c-.45,0-.62-.48-.62-.95,0-.21.39-.61.58-.7a1.93,1.93,0,0,1,1-.1,1.8,1.8,0,0,1,1.31,1.18c-.19.1-.27.12-.41,0,.08-.17,0-.35-.19-.35h0a.47.47,0,0,0-.41.47v0c0,.5.27.54.54.72.32,0,.13.09.49,0a1.31,1.31,0,0,0,.39-.21c.34.65.81,1.21,1.74.86.35-.14.5-.46.71-.74a.66.66,0,0,1,.19-.21Zm-2.11,1c.1-.14.09,0,.15-.2s.07-.16.1-.25.19-.34.32-.34h.09c.19,0,.49.65.57.82-.08.15-.41.75-.6.75h-.06c-.19,0-.49-.61-.57-.78m339.94,1c.11,0,.16.15.4.44s.61.64,1,.59l.34,0a1.84,1.84,0,0,0,.85-1.34c.31.16.47.55,1,.73a2.52,2.52,0,0,0,1.49.15,1.86,1.86,0,0,0,1.09-.67,1.49,1.49,0,0,0,.42-1.28c-.22-.87-1-1.76-2-1.1a1,1,0,0,0-.35,1.22.61.61,0,0,0,.53.36c.29,0,.37-.13.48-.36l-.1-.18h-.25a.39.39,0,0,1-.06-.19.39.39,0,0,1,.34-.35h.1c.45,0,.63.48.63.94,0,.22-.4.61-.59.71a2,2,0,0,1-1,.1A1.83,1.83,0,0,1,447.14,33c.19-.1.28-.13.41,0-.08.17,0,.34.19.34h0a.46.46,0,0,0,.41-.47v0c0-.5-.27-.55-.53-.72-.33,0-.14-.09-.5,0a1.25,1.25,0,0,0-.38.21c-.35-.65-.82-1.21-1.75-.86-.35.13-.5.45-.7.74a1,1,0,0,1-.2.21Zm2.11-1c-.09.14-.08,0-.15.2s-.06.15-.1.24-.18.34-.32.34h-.09c-.18,0-.48-.64-.57-.81.09-.16.41-.76.6-.76h.06c.19,0,.49.62.57.79M203.77,6.64h-99.7V7.82H446.34V6.64H203.77Zm-99.92-.46h343v2.1H103.62V6.18Zm336.69.66h.24c.82,0,1.42,0,2.33,0,.72,0,1.65,0,2.37,0s1.75,0,2.47,0c.92,0,1.71.09,2.37.12a20.48,20.48,0,0,1,2.36.15c1.42.24,3.37.13,4.68.4a25.35,25.35,0,0,0,4.69.25c.92,0,1.64,0,2.43,0s1.65-.1,2.42-.1a17.5,17.5,0,0,0,4.39-.6c1-.26,2.77-1.13,3-2.07a3.9,3.9,0,0,0-.85.51,4.23,4.23,0,0,1-.92.38,9.74,9.74,0,0,1-2.2.42h-1.65c-.79,0-1.63,0-2.23-.09S464.76,6,464.19,6a15.11,15.11,0,0,1-2.26-.17c-.67-.11-1.68,0-2.33-.09a32.77,32.77,0,0,0-4.38-.18c-1.61,0-3.11,0-4.75,0h-3v0l-.13.11c-.53-.25-5.59.14-6.41.14h0l-6.94.51-4.35-.17a3.89,3.89,0,0,1,1.3-.1c.46,0,1.08-.09,1.56-.09a27.3,27.3,0,0,0,2.9-.34l-3,.12h-2.77c0-.13-.09-.2-.09-.29s0-.06.05-.19l5.72-.07h.53c.45,0,.69.08,1.06,0a8.12,8.12,0,0,1,1.13.08,8.83,8.83,0,0,0,2.12,0c.74,0,1.39-.15,2.18-.15s1.55-.1,2.13-.1h3.35l2.37,0c1.39,0,3.21,0,4.6,0,1.63,0,3,.09,4.32.1a17.86,17.86,0,0,1,2.34.07,16.07,16.07,0,0,0,2.21.17c.53,0,1.67.17,2.1.22s1.91.14,2.17.12l.92-.07c0-.29.19-.42.19-.66V5c0-.29-.19-.39-.48-.39-.7,0-1.28.63-1.75.63a.72.72,0,0,1-.63-.53c0-.2.84-1,1-1.22a3.55,3.55,0,0,0,.41-.71c.12-.39,0-.52,0-.83l-.11,0c.28,0,.5-.36,1.17-.36h.54a1.91,1.91,0,0,1,1.2.78A4.2,4.2,0,0,1,471,3.64v.63a3.75,3.75,0,0,1-.34,1.3c.67.32,3.44-.75,3.44-1.3v0c0-.26-.32-.78-.63-.78-.92,0-.88.78-1.21.78s-.44-.28-.44-.58V3.3a7.51,7.51,0,0,1,.45-1.1c.1-.24.17-.29.26-.52s.07-.42.16-.61-.19-.17-.19-.29V.58c0-.29.44-.58.77-.58a2.67,2.67,0,0,1,2.29,1.88A3.89,3.89,0,0,1,475,5.05a5.22,5.22,0,0,1-2.23,2,10.34,10.34,0,0,1-3.22,1,9.1,9.1,0,0,1-3.07,2.45,15.45,15.45,0,0,1-4.68.79h-1a18,18,0,0,1-3.56-.4c-.56-.13-1.2-.15-1.73-.26s-1.19-.25-1.64-.3c-.66-.07-1.11-.23-1.65-.33s-1.09-.17-1.62-.32-1.08-.29-1.63-.42l-.52-.51Zm34.11-2.57c.23-.07.33-.8.46-1a1.42,1.42,0,0,0,0-1.11c-.17-.54-.86-1.43-1.48-1.43h-.19c-.25,0-.12.47-.14.63a1.35,1.35,0,0,1-.23.6c-.08.14-.6,1-.6,1.1v.24c.24-.07.58-.44,1.07-.44h.14c.58,0,1,.86,1,1.46m-4.84,1.3h-.2l-.05-.29c-.19,0-.19.2-.19.44h.34l.43-.06c0-.51.4-1.11.35-1.55l-.05-.58a6.74,6.74,0,0,0-.57-.94,1.44,1.44,0,0,0-1.08-.47h-.05c-.53,0-.48.18-.54.58a3,3,0,0,1-.38.73,7.86,7.86,0,0,1-.45.67s-.77.62-.24.39.74-.7,1.62-.44c.44.14,1.2.56,1.2,1.08,0,.19,0,.43-.14.43m-2,2.58-.58.82a1.94,1.94,0,0,0,1.35-.89ZM465.54,9.6a35.33,35.33,0,0,1-4.94-.49c-.7-.08-1.51-.48-2.23-.53-.18,0-.85-.18-1.12-.24l-1.15-.25c-1.62-.33-3.3-.31-4.91-.52a45.47,45.47,0,0,0-5-.3h-1.94l-1,.09,4.95,1.12,0-.14h.09v.14c2,.47,4.05.91,6.1,1.32,1,.21,2.09.32,3.15.53a16.61,16.61,0,0,0,3.3.33,27.16,27.16,0,0,0,3.43-.2c.61-.09,2.56-.52,2.68-.92Zm-1.45-1.26-.39,0h-.58l-3.88-.08a32.84,32.84,0,0,0,3.4.62,27,27,0,0,0,3.79.12l.61-.69L467,8.23Zm4.5-.26a1.94,1.94,0,0,1-1.35.89l.58-.82Zm1.22-2.51c.15,0,.14-.24.14-.43,0-.52-.76-.94-1.2-1.08-.88-.26-1,.18-1.62.44s.23-.38.24-.39a7.86,7.86,0,0,0,.45-.67,3,3,0,0,0,.38-.73c.06-.4,0-.58.54-.58h.05a1.44,1.44,0,0,1,1.08.47,6.74,6.74,0,0,1,.57.94l.05.58c.05.44-.35,1-.35,1.55l-.43.06h-.34c0-.24,0-.39.19-.44l.05.29Zm-3,4c-.12.4-2.07.83-2.68.92a27.16,27.16,0,0,1-3.43.2,16.61,16.61,0,0,1-3.3-.33c-1.06-.21-2.13-.32-3.15-.53-2.05-.41-4.1-.86-6.1-1.32V8.34h-.09l0,.14-4.95-1.12,1-.09h1.94a45.47,45.47,0,0,1,5,.3c1.61.21,3.29.19,4.91.52l1.15.25c.27.05.94.22,1.12.24.72.05,1.53.45,2.23.53a35.33,35.33,0,0,0,4.94.49ZM115.42,7.19c-5.29.48-10.21,1.2-15.06,2l-.34,0,.09-.34c0-.06-.12.06-.28,0-.46-.12-1.22-.22-1.94-.32a5.29,5.29,0,0,1-2.09-.48c-.12-.14-.1-.27.06-.4a26.5,26.5,0,0,1,3.94-1c2.88-.58,6.48-1.23,7.51-1.37A41.35,41.35,0,0,1,111.59,5c1.63-.06,3.47-.07,5.61-.07h316c2.13,0,4,0,5.6.07a40.9,40.9,0,0,1,4.28.34c1,.14,4.63.79,7.51,1.37a26.8,26.8,0,0,1,3.95,1,.26.26,0,0,1,.06.41,5.67,5.67,0,0,1-2.1.47c-.72.1-1.48.2-1.93.32-.16,0-.3-.08-.28,0l.09.34-.35,0c-4.85-.75-9.76-1.47-15.06-1.95a145,145,0,0,0-17.38-.55H132.8a145,145,0,0,0-17.38.55M112,6.88c-.71,0-1.56,0-2.32,0s-1.42,0-2.33,0c-.72,0-1.66,0-2.37,0s-1.76,0-2.48,0c-.91,0-1.71.09-2.37.12a20.62,20.62,0,0,0-2.36.15c-1.42.24-3.37.13-4.68.4a25.26,25.26,0,0,1-4.69.25c-.92,0-1.64,0-2.42,0s-1.66-.1-2.42-.1a17.59,17.59,0,0,1-4.4-.6c-1-.26-2.77-1.13-3-2.07a3.9,3.9,0,0,1,.85.51,4.31,4.31,0,0,0,.93.38,9.55,9.55,0,0,0,2.19.42h1.65c.79,0,1.63,0,2.23-.09S85.65,6,86.23,6a15.11,15.11,0,0,0,2.26-.17c.66-.11,1.67,0,2.32-.09a32.77,32.77,0,0,1,4.38-.18c1.62,0,3.12,0,4.75,0h3v0l.14.11c.52-.25,5.59.14,6.4.14h.05l9.3.68,2-.13V6.15c0-.27-1-.18-1.36-.19s-1.07-.09-1.55-.09a27.82,27.82,0,0,1-2.91-.34l3,.12h2.76c0-.13.1-.2.1-.29s0-.06-.05-.19l-5.72-.07h-.53c-.46,0-.69.08-1.07,0a8.23,8.23,0,0,0-1.13.08,8.82,8.82,0,0,1-2.12,0c-.74,0-1.39-.15-2.18-.15S106.58,5,106,5h-3.34l-2.38,0c-1.39,0-3.21,0-4.6,0-1.63,0-3,.09-4.31.1A18,18,0,0,0,89,5.26a16.07,16.07,0,0,1-2.21.17c-.52,0-1.66.17-2.1.22s-1.9.14-2.16.12l-.92-.07c0-.29-.2-.42-.2-.66V5c0-.29.2-.39.49-.39.7,0,1.27.63,1.74.63a.72.72,0,0,0,.63-.53c0-.2-.83-1-1-1.22a3.51,3.51,0,0,1-.4-.71c-.13-.39,0-.52,0-.83l.1,0c-.27,0-.49-.36-1.17-.36h-.53A2,2,0,0,0,80,2.33a4.18,4.18,0,0,0-.63,1.31v.63a3.54,3.54,0,0,0,.34,1.3c-.67.32-3.45-.75-3.45-1.3v0c0-.26.33-.78.63-.78.92,0,.89.78,1.22.78s.43-.28.43-.58V3.3a7.51,7.51,0,0,0-.45-1.1C78,2,78,1.91,77.86,1.68s-.07-.42-.16-.61c.06-.08.19-.17.19-.29V.58c0-.29-.44-.58-.77-.58a2.68,2.68,0,0,0-2.29,1.88,3.86,3.86,0,0,0,.63,3.17,5.14,5.14,0,0,0,2.22,2A10.43,10.43,0,0,0,80.9,8,9.2,9.2,0,0,0,84,10.4a15.5,15.5,0,0,0,4.68.79h1a17.86,17.86,0,0,0,3.56-.4c.56-.13,1.2-.15,1.73-.26s1.19-.25,1.64-.3c.67-.07,1.11-.23,1.66-.33s1.08-.17,1.62-.32c1-.29,2.13-.53,3.18-.75.59-.12,1-.24,1.63-.35.28-.06.48-.12.8-.17s.48-.16.76-.21l.24,0,.46-.49,6.25-.69H112ZM75.76,4.27c-.23-.07-.33-.8-.46-1a1.38,1.38,0,0,1,0-1.11c.16-.54.85-1.43,1.47-1.43H77c.25,0,.12.47.14.63a1.48,1.48,0,0,0,.23.6c.08.14.6,1,.6,1.1v.24c-.24-.07-.58-.44-1.06-.44h-.15c-.58,0-1,.86-1,1.46m4.85,1.3h.19l0-.29c.19,0,.19.2.19.44H80.7l-.43-.06c0-.51-.39-1.11-.35-1.55L80,3.54a5.24,5.24,0,0,1,.57-.94,1.41,1.41,0,0,1,1.08-.47h0c.54,0,.48.18.55.58a3,3,0,0,0,.37.73c.18.26.24.4.45.67,0,0,.77.62.24.39s-.74-.7-1.61-.44c-.45.14-1.21.56-1.21,1.08,0,.19,0,.43.15.43m2,2.58.59.82a2,2,0,0,1-1.36-.89ZM84.87,9.6a35.18,35.18,0,0,0,4.94-.49c.7-.08,1.51-.48,2.23-.53.18,0,.85-.18,1.12-.24l1.16-.25c1.61-.33,3.3-.31,4.9-.52a45.8,45.8,0,0,1,5-.3h1.93l1,.09-5,1.12,0-.14h-.1v.14c-2,.47-4,.91-6.09,1.32-1,.21-2.1.32-3.15.53a16.71,16.71,0,0,1-3.31.33,27.16,27.16,0,0,1-3.43-.2c-.61-.09-2.56-.52-2.68-.92Zm1.46-1.26.38,0h.58l3.88-.08a32.35,32.35,0,0,1-3.4.62A27,27,0,0,1,84,9l-.61-.69.1-.06Zm-3.74-.19.59.82a2,2,0,0,1-1.36-.89ZM80.8,5.57l0-.29c.19,0,.19.2.19.44H80.7l-.43-.06c0-.51-.39-1.11-.35-1.55L80,3.54a5.24,5.24,0,0,1,.57-.94,1.41,1.41,0,0,1,1.08-.47h0c.54,0,.48.18.55.58a2.68,2.68,0,0,0,.38.73,7.66,7.66,0,0,0,.44.67s.77.62.24.39-.74-.7-1.61-.44c-.44.14-1.21.56-1.21,1.08,0,.19,0,.43.15.43Zm4.07,4a35.18,35.18,0,0,0,4.94-.49c.7-.08,1.51-.48,2.23-.53.18,0,.85-.19,1.12-.24l1.16-.25c1.61-.33,3.3-.31,4.9-.52a45.8,45.8,0,0,1,5-.3h1.93l1,.09-5,1.12,0-.14h-.1v.14c-2,.46-4,.91-6.09,1.32-1,.21-2.1.32-3.15.53a16.71,16.71,0,0,1-3.31.33,27.16,27.16,0,0,1-3.43-.2c-.61-.09-2.56-.52-2.68-.92Zm324.7-2.46H435.5l6.26.34v.1h0l-32.19-.35Zm-294.33,0,25.93,0v.09L109,7.59h0v-.1l6.27-.33Z"/></g></g></svg>