<?xml version="1.0" encoding="utf-8"?>
<!-- Generator: Adobe Illustrator 22.0.0, SVG Export Plug-In . SVG Version: 6.00 Build 0)  -->
<svg version="1.1" id="Layer_1" xmlns="http://www.w3.org/2000/svg" xmlns:xlink="http://www.w3.org/1999/xlink" x="0px" y="0px"
	 viewBox="0 0 13.3 4.8" style="enable-background:new 0 0 13.3 4.8;" xml:space="preserve">
<style type="text/css">
	.st0{fill:#623C25;}
</style>
<path class="st0" d="M11.6,0.5C11-0.2,9.4,0.2,8.5,0.1L7.6,0H7.3C6.2,0,5.4,1.2,4.6,1.9v0.2c-0.2-1.1-1.1-2-2.3-2S0,1.1,0,2.4
	s1,2.3,2.3,2.4c1.3,0,2.4-1,2.4-2.3c0.6,0.4,2,2,2.2,2h4.3c0.7-0.6,1.5-1.2,2.1-2V2.3C13,1.7,11.9,0.8,11.6,0.5z M9.8,3l-1,0.5H8.7
	C8,3.2,7.3,2.7,6.8,2.2C7.3,1.6,8,1.2,8.7,1c0.7,0.3,1.3,0.7,1.9,1.3C10.4,2.6,10.1,2.8,9.8,3z"/>
</svg>
