<svg xmlns="http://www.w3.org/2000/svg" viewBox="0 0 252.27 5.34"><defs><style>.cls-1{fill:#7c6742;fill-rule:evenodd;}</style></defs><title>line_h</title><g id="Layer_2" data-name="Layer 2"><g id="Layer_1-2" data-name="Layer 1"><path class="cls-1" d="M1.66.29H3.33C4.19.27,5,.62,5,1.41l0,2.6a1.12,1.12,0,0,1-1,1H3.33L.9,5c-.35-.2-.84-.2-.85-.84L0,1.34C0,.89.46.58.75.4Zm16,1.24c0,.16,0,.08.08.29.48-.05,1.24-.66,1.78-.83A7.38,7.38,0,0,1,21.87.6h.3V.38c0-.3-.72-.28-1.06-.27h-.45c-1,0-3,.82-3,1.41m-11.16,1v.36c0,.47,1.25.28,1.65.27l2.18,0c.06-.25.14-.2.14-.29,0-.24-.44-.46-.61-.57-.58,0-1.3,0-1.87,0-.24,0-1.5-.14-1.5.23M18,2.17A1.48,1.48,0,0,0,19.14,3l2.92,0c.17,0,.22,0,.22-.22V2.54c0-.71-2-.47-2.48-.47h-.08ZM7,4.71H6.54l0,.5h.75A4.36,4.36,0,0,0,9.59,4.7c.33-.16,1.61-.91,1.61-1.2s-.06-.22-.23-.21h-.15s-1.32.84-1.65,1A10.67,10.67,0,0,1,7,4.71M6.5.32c0,.2.17.28.3.36a5,5,0,0,1,2.85.91,26.09,26.09,0,0,1,2.2,1.63,7.28,7.28,0,0,0,5.59,2l3.3,0c.27,0,1.35,0,1.35-.31,0-.16-.06-.15-.16-.28-3.11,0-4.28-2.64-6.5-3.66a9,9,0,0,0-4.29-.8C10.51.1,6.49-.24,6.5.32m27,1.21c0,.16,0,.08.08.29.48-.05,1.24-.66,1.79-.83A7.33,7.33,0,0,1,37.71.6H38V.38c0-.3-.72-.28-1-.27H36.5c-1,0-3,.82-3,1.41m-11.15,1v.36c0,.47,1.25.28,1.66.27l2.17,0c.07-.25.15-.2.15-.29,0-.24-.44-.46-.61-.57-.59,0-1.31,0-1.87,0-.25,0-1.51-.14-1.5.23m11.46-.31A1.48,1.48,0,0,0,35,3l2.92,0c.18,0,.23,0,.23-.22V2.54c0-.71-2-.47-2.48-.47h-.07Zm-11,2.54h-.47l0,.5h.75a4.39,4.39,0,0,0,2.27-.51c.32-.16,1.61-.91,1.6-1.2s-.05-.22-.23-.21h-.15s-1.32.84-1.64,1a10.77,10.77,0,0,1-2.16.47M22.33.32c0,.2.18.28.31.36a5,5,0,0,1,2.84.91,23.21,23.21,0,0,1,2.2,1.63,7.32,7.32,0,0,0,5.6,2l3.3,0c.27,0,1.35,0,1.34-.31,0-.16-.06-.15-.15-.28-3.11,0-4.29-2.64-6.51-3.66A9,9,0,0,0,27,.11c-.64,0-4.66-.35-4.65.21m27,1.21c0,.16,0,.08.08.29.48-.05,1.24-.66,1.78-.83A7.38,7.38,0,0,1,53.54.6h.3V.38c0-.3-.72-.28-1.06-.27h-.45c-1,0-3,.82-3,1.41m-11.16,1v.36c0,.47,1.25.28,1.65.27l2.18,0c.06-.25.14-.2.14-.29,0-.24-.43-.46-.61-.57-.58,0-1.3,0-1.87,0-.24,0-1.5-.14-1.5.23m11.47-.31A1.48,1.48,0,0,0,50.81,3l2.92,0c.17,0,.22,0,.22-.22V2.54c0-.71-2-.47-2.48-.47h-.08Zm-11,2.54h-.48l0,.5H39a4.32,4.32,0,0,0,2.26-.51c.33-.16,1.61-.91,1.61-1.2s-.06-.22-.23-.21h-.15s-1.32.84-1.64,1a10.92,10.92,0,0,1-2.16.47M38.17.32c0,.2.18.28.3.36a5,5,0,0,1,2.85.91,26.09,26.09,0,0,1,2.2,1.63,7.29,7.29,0,0,0,5.6,2l3.29,0c.27,0,1.35,0,1.35-.31,0-.16-.06-.15-.16-.28-3.11,0-4.28-2.64-6.5-3.66a9,9,0,0,0-4.29-.8c-.63,0-4.65-.35-4.64.21m27,1.21c0,.16,0,.08.08.29.48-.05,1.24-.66,1.79-.83A7.33,7.33,0,0,1,69.38.6h.3V.38c0-.3-.72-.28-1-.27h-.45c-1,0-3,.82-3,1.41M54,2.48v.36c0,.47,1.24.28,1.65.27l2.17,0c.07-.25.15-.2.15-.29,0-.24-.44-.46-.61-.57-.59,0-1.3,0-1.87,0-.24,0-1.51-.14-1.5.23M65.5,2.17A1.48,1.48,0,0,0,66.64,3l2.93,0c.17,0,.22,0,.22-.22V2.54c0-.71-2-.47-2.48-.47h-.07Zm-11,2.54h-.47l0,.5h.75A4.39,4.39,0,0,0,57.1,4.7c.33-.16,1.61-.91,1.6-1.2s-.05-.22-.22-.21h-.15s-1.33.84-1.65,1a10.62,10.62,0,0,1-2.16.47M54,.32c0,.2.17.28.3.36a5,5,0,0,1,2.84.91,23.21,23.21,0,0,1,2.2,1.63,7.32,7.32,0,0,0,5.6,2l3.3,0c.27,0,1.35,0,1.35-.31,0-.16-.07-.15-.16-.28-3.11,0-4.28-2.64-6.5-3.66a9,9,0,0,0-4.29-.8C58,.1,54-.24,54,.32M81,1.53c0,.16,0,.08.08.29.48-.05,1.24-.66,1.78-.83A7.44,7.44,0,0,1,85.21.6h.3V.38c0-.3-.72-.28-1.05-.27H84c-1,0-3,.82-3,1.41m-11.15,1v.36c0,.47,1.25.28,1.65.27l2.18,0c.06-.25.15-.2.14-.29,0-.24-.43-.46-.6-.57-.59,0-1.31,0-1.88,0-.24,0-1.5-.14-1.49.23m11.46-.31A1.48,1.48,0,0,0,82.48,3L85.4,3c.17,0,.23,0,.22-.22V2.54c0-.71-2-.47-2.48-.47h-.08Zm-11,2.54h-.47l0,.5h.75a4.32,4.32,0,0,0,2.26-.51c.33-.16,1.61-.91,1.61-1.2s-.06-.22-.23-.21h-.15s-1.32.84-1.64,1a10.77,10.77,0,0,1-2.16.47M69.84.32c0,.2.18.28.31.36A5,5,0,0,1,73,1.59a23.21,23.21,0,0,1,2.2,1.63,7.3,7.3,0,0,0,5.6,2l3.3,0c.26,0,1.35,0,1.34-.31,0-.16-.06-.15-.15-.28C82.17,4.61,81,1.93,78.77.91a9,9,0,0,0-4.29-.8c-.63,0-4.65-.35-4.64.21m27,1.21c0,.16,0,.08.08.29.48-.05,1.24-.66,1.78-.83A7.38,7.38,0,0,1,101.05.6h.3V.38c0-.3-.72-.28-1.06-.27h-.45c-1,0-3,.82-3,1.41m-11.16,1v.36c0,.47,1.24.28,1.65.27l2.17,0c.07-.25.15-.2.15-.29,0-.24-.44-.46-.61-.57-.59,0-1.3,0-1.87,0-.24,0-1.51-.14-1.5.23m11.47-.31A1.48,1.48,0,0,0,98.31,3l2.93,0c.17,0,.22,0,.22-.22V2.54c0-.71-2-.47-2.49-.47H98.9Zm-11,2.54h-.48l0,.5h.75a4.36,4.36,0,0,0,2.27-.51c.33-.16,1.61-.91,1.61-1.2s-.06-.22-.23-.21H90s-1.32.84-1.65,1a10.67,10.67,0,0,1-2.15.47M85.68.32c0,.2.17.28.3.36a5,5,0,0,1,2.85.91A26.09,26.09,0,0,1,91,3.22a7.28,7.28,0,0,0,5.59,2l3.3,0c.27,0,1.35,0,1.35-.31,0-.16-.06-.15-.16-.28-3.11,0-4.28-2.64-6.5-3.66a9,9,0,0,0-4.29-.8c-.63,0-4.65-.35-4.64.21m27,1.21c0,.16,0,.08.08.29.48-.05,1.24-.66,1.79-.83A7.33,7.33,0,0,1,116.89.6h.3V.38c0-.3-.72-.28-1.05-.27h-.45c-1,0-3,.82-3,1.41m-11.15,1v.36c0,.47,1.25.28,1.66.27l2.17,0c.06-.25.15-.2.14-.29,0-.24-.43-.46-.6-.57-.59,0-1.31,0-1.88,0-.24,0-1.5-.14-1.49.23M113,2.17a1.48,1.48,0,0,0,1.14.85l2.92,0c.18,0,.23,0,.23-.22V2.54c0-.71-2-.47-2.48-.47h-.07ZM102,4.71h-.47l0,.5h.75a4.32,4.32,0,0,0,2.26-.51c.33-.16,1.62-.91,1.61-1.2s0-.22-.23-.21h-.15s-1.32.84-1.64,1a10.77,10.77,0,0,1-2.16.47M101.51.32c0,.2.18.28.31.36a5,5,0,0,1,2.84.91,23.21,23.21,0,0,1,2.2,1.63,7.3,7.3,0,0,0,5.6,2l3.3,0c.27,0,1.35,0,1.34-.31,0-.16-.06-.15-.15-.28-3.11,0-4.29-2.64-6.51-3.66a9,9,0,0,0-4.29-.8c-.63,0-4.65-.35-4.64.21m27,1.21c0,.16,0,.08.08.29.48-.05,1.24-.66,1.78-.83A7.38,7.38,0,0,1,132.72.6h.3V.38c0-.3-.72-.28-1.06-.27h-.45c-1,0-3,.82-3,1.41m-11.16,1v.36c0,.47,1.25.28,1.65.27l2.18,0c.06-.25.14-.2.14-.29,0-.24-.44-.46-.61-.57-.58,0-1.3,0-1.87,0-.24,0-1.5-.14-1.5.23m11.47-.31A1.48,1.48,0,0,0,130,3l2.92,0c.17,0,.22,0,.22-.22V2.54c0-.71-2-.47-2.48-.47h-.08Zm-11,2.54h-.48l0,.5h.75a4.35,4.35,0,0,0,2.26-.51c.33-.16,1.61-.91,1.61-1.2s-.06-.22-.23-.21h-.15s-1.32.84-1.64,1a10.92,10.92,0,0,1-2.16.47M117.35.32c0,.2.17.28.3.36a5,5,0,0,1,2.85.91,26.09,26.09,0,0,1,2.2,1.63,7.29,7.29,0,0,0,5.6,2l3.29,0c.27,0,1.35,0,1.35-.31,0-.16-.06-.15-.16-.28-3.11,0-4.28-2.64-6.5-3.66A9,9,0,0,0,122,.11c-.63,0-4.65-.35-4.64.21m27,1.21c0,.16,0,.08.08.29.48-.05,1.24-.66,1.79-.83A7.33,7.33,0,0,1,148.56.6h.3V.38c0-.3-.72-.28-1-.27h-.45c-1,0-3,.82-3,1.41m-11.15,1v.36c0,.47,1.25.28,1.66.27l2.17,0c.07-.25.15-.2.15-.29,0-.24-.44-.46-.61-.57-.59,0-1.3,0-1.87,0-.25,0-1.51-.14-1.5.23m11.46-.31a1.48,1.48,0,0,0,1.14.85l2.92,0c.18,0,.23,0,.23-.22V2.54c0-.71-2-.47-2.48-.47h-.07Zm-11,2.54h-.47l0,.5H134a4.39,4.39,0,0,0,2.27-.51c.32-.16,1.61-.91,1.6-1.2s0-.22-.23-.21h-.15s-1.32.84-1.64,1a10.62,10.62,0,0,1-2.16.47M133.18.32c0,.2.18.28.31.36a5,5,0,0,1,2.84.91,23.21,23.21,0,0,1,2.2,1.63,7.32,7.32,0,0,0,5.6,2l3.3,0c.27,0,1.35,0,1.34-.31,0-.16-.06-.15-.15-.28-3.11,0-4.28-2.64-6.5-3.66a9,9,0,0,0-4.29-.8c-.64,0-4.65-.35-4.65.21m27,1.21c0,.16,0,.08.08.29.48-.05,1.24-.66,1.78-.83A7.38,7.38,0,0,1,164.39.6h.3V.38c0-.3-.72-.28-1.05-.27h-.45c-1,0-3,.82-3,1.41m-11.16,1v.36c0,.47,1.25.28,1.65.27l2.18,0c.06-.25.14-.2.14-.29,0-.24-.43-.46-.61-.57-.58,0-1.3,0-1.87,0-.24,0-1.5-.14-1.5.23m11.47-.31a1.48,1.48,0,0,0,1.14.85l2.92,0c.17,0,.22,0,.22-.22V2.54c0-.71-2-.47-2.48-.47h-.08Zm-11,2.54h-.48l0,.5h.75a4.32,4.32,0,0,0,2.26-.51c.33-.16,1.61-.91,1.61-1.2s-.06-.22-.23-.21h-.15s-1.32.84-1.64,1a10.92,10.92,0,0,1-2.16.47M149,.32c0,.2.18.28.31.36a5,5,0,0,1,2.84.91,26.09,26.09,0,0,1,2.2,1.63,7.29,7.29,0,0,0,5.6,2l3.29,0c.27,0,1.35,0,1.35-.31,0-.16-.06-.15-.16-.28-3.11,0-4.28-2.64-6.5-3.66a9,9,0,0,0-4.29-.8C153,.1,149-.24,149,.32m27,1.21c0,.16,0,.08.07.29.49-.05,1.24-.66,1.79-.83A7.38,7.38,0,0,1,180.23.6h.3V.38c0-.3-.73-.28-1.06-.27H179c-1,0-3,.82-3,1.41m-11.16,1v.36c0,.47,1.24.28,1.65.27l2.17,0c.07-.25.15-.2.15-.29,0-.24-.44-.46-.61-.57-.59,0-1.3,0-1.87,0-.24,0-1.51-.14-1.5.23m11.47-.31a1.45,1.45,0,0,0,1.13.85l2.93,0c.17,0,.22,0,.22-.22V2.54c0-.71-2-.47-2.48-.47h-.07Zm-11,2.54h-.47l0,.5h.75A4.39,4.39,0,0,0,168,4.7c.33-.16,1.61-.91,1.6-1.2s-.05-.22-.22-.21h-.15s-1.32.84-1.65,1a10.62,10.62,0,0,1-2.16.47M164.86.32c0,.2.17.28.3.36a5,5,0,0,1,2.84.91,23.21,23.21,0,0,1,2.2,1.63,7.32,7.32,0,0,0,5.6,2l3.3,0c.27,0,1.35,0,1.35-.31,0-.16-.07-.15-.16-.28-3.11,0-4.28-2.64-6.5-3.66a9,9,0,0,0-4.29-.8c-.63,0-4.65-.35-4.64.21m27,1.21c0,.16,0,.08.08.29.48-.05,1.24-.66,1.79-.83A7.33,7.33,0,0,1,196.07.6h.3V.38c0-.3-.72-.28-1.05-.27h-.45c-1,0-3,.82-3,1.41m-11.15,1v.36c0,.47,1.25.28,1.65.27l2.18,0c.06-.25.15-.2.14-.29,0-.24-.43-.46-.6-.57-.59,0-1.31,0-1.88,0-.24,0-1.5-.14-1.49.23m11.46-.31a1.48,1.48,0,0,0,1.14.85l2.92,0c.17,0,.23,0,.22-.22V2.54c0-.71-2-.47-2.48-.47h-.08Zm-11,2.54h-.47l0,.5h.75a4.32,4.32,0,0,0,2.26-.51c.33-.16,1.61-.91,1.61-1.2s-.06-.22-.23-.21H185s-1.32.84-1.64,1a10.77,10.77,0,0,1-2.16.47M180.69.32c0,.2.18.28.31.36a5,5,0,0,1,2.84.91A24.57,24.57,0,0,1,186,3.22a7.3,7.3,0,0,0,5.6,2l3.3,0c.27,0,1.35,0,1.34-.31,0-.16-.06-.15-.15-.28-3.11,0-4.29-2.64-6.51-3.66a9,9,0,0,0-4.29-.8c-.63,0-4.65-.35-4.64.21m27,1.21c0,.16,0,.08.08.29.48-.05,1.24-.66,1.78-.83A7.38,7.38,0,0,1,211.9.6h.3V.38c0-.3-.72-.28-1.06-.27h-.45c-1,0-3,.82-3,1.41m-11.16,1v.36c0,.47,1.25.28,1.65.27l2.17,0c.07-.25.15-.2.15-.29,0-.24-.44-.46-.61-.57-.58,0-1.3,0-1.87,0-.24,0-1.5-.14-1.5.23M208,2.17a1.48,1.48,0,0,0,1.13.85l2.93,0c.17,0,.22,0,.22-.22V2.54c0-.71-2-.47-2.49-.47h-.07Zm-11,2.54h-.48l0,.5h.75a4.36,4.36,0,0,0,2.27-.51c.33-.16,1.61-.91,1.61-1.2s-.06-.22-.23-.21h-.15s-1.32.84-1.65,1a10.67,10.67,0,0,1-2.15.47M196.53.32c0,.2.17.28.3.36a5,5,0,0,1,2.85.91,26.09,26.09,0,0,1,2.2,1.63,7.29,7.29,0,0,0,5.6,2l3.29,0c.27,0,1.35,0,1.35-.31,0-.16-.06-.15-.16-.28-3.11,0-4.28-2.64-6.5-3.66a9,9,0,0,0-4.29-.8c-.63,0-4.65-.35-4.64.21M224,1.53c0,.16,0,.08.09.29A17,17,0,0,0,226,1,7.94,7.94,0,0,1,228.38.6h.32V.38c0-.3-.75-.28-1.1-.27h-.46c-1,0-3.12.82-3.11,1.41m-11.62,1v.36c0,.47,1.3.28,1.73.27l2.26,0c.07-.25.16-.2.15-.29,0-.24-.45-.46-.63-.57-.61,0-1.36,0-1.95,0-.25,0-1.57-.14-1.56.23m11.95-.31a1.53,1.53,0,0,0,1.18.85l3.05,0c.18,0,.23,0,.23-.22V2.54c0-.71-2.12-.47-2.59-.47h-.08ZM212.9,4.71h-.49l0,.5h.79a4.72,4.72,0,0,0,2.36-.51c.34-.16,1.67-.91,1.67-1.2s-.06-.22-.24-.21h-.15s-1.38.84-1.72,1a11.51,11.51,0,0,1-2.25.47M212.36.32c0,.2.19.28.32.36a5.3,5.3,0,0,1,3,.91,24.83,24.83,0,0,1,2.3,1.63,7.77,7.77,0,0,0,5.83,2l3.44,0c.28,0,1.41,0,1.4-.31,0-.16-.06-.15-.16-.28-3.24,0-4.47-2.64-6.78-3.66a9.75,9.75,0,0,0-4.47-.8c-.66,0-4.85-.35-4.84.21m28.11,1.21c0,.16,0,.08.09.29A16.13,16.13,0,0,0,242.41,1,8,8,0,0,1,244.83.6h.32V.38c0-.3-.75-.28-1.1-.27h-.47c-1,0-3.11.82-3.1,1.41m-11.62,1v.36c0,.47,1.3.28,1.73.27l2.26,0c.07-.25.15-.2.15-.29,0-.24-.45-.46-.63-.57-.61,0-1.36,0-2,0-.25,0-1.57-.14-1.56.23m12-.31A1.52,1.52,0,0,0,242,3L245,3c.18,0,.23,0,.23-.22V2.54c0-.71-2.12-.47-2.59-.47h-.08ZM229.35,4.71h-.49l0,.5h.78A4.69,4.69,0,0,0,232,4.7c.34-.16,1.68-.91,1.68-1.2s-.06-.22-.24-.21h-.16s-1.37.84-1.71,1a11.66,11.66,0,0,1-2.25.47M228.81.32c0,.2.18.28.32.36a5.33,5.33,0,0,1,3,.91,26.25,26.25,0,0,1,2.3,1.63,7.77,7.77,0,0,0,5.83,2l3.44,0c.28,0,1.4,0,1.4-.31,0-.16-.07-.15-.16-.28-3.25,0-4.47-2.64-6.78-3.66a9.75,9.75,0,0,0-4.47-.8c-.66,0-4.85-.35-4.84.21M248,.7c-.29.18-.75.49-.74.94l0,2.81c0,.64.51.64.85.84l2.44,0h.76a1.11,1.11,0,0,0,1-1l0-2.6c0-.79-.83-1.14-1.69-1.13h-1.68Z"/></g></g></svg>