<svg xmlns="http://www.w3.org/2000/svg" viewBox="0 0 85.25 17.98"><defs><style>.cls-1{fill:#7c6742;fill-rule:evenodd;}</style></defs><title>venz_d</title><g id="Layer_2" data-name="Layer 2"><g id="Layer_1-2" data-name="Layer 1"><path class="cls-1" d="M43.11,5.35a.48.48,0,0,1-.47-.48.47.47,0,1,1,.94,0,.48.48,0,0,1-.47.48M43.24,4h-.13L43,4a3.65,3.65,0,0,0,.14-.35,3.45,3.45,0,0,0,.14.34m-.14,13.1a2.72,2.72,0,0,1-.28-.57,7.39,7.39,0,0,1-.28-1.56l0-.38-.19.33a3,3,0,0,1-.39.54,3.38,3.38,0,0,1-.35.31,3.67,3.67,0,0,1,0-.74,9.09,9.09,0,0,1,.58-1.93l.18-.49-.37.37a6,6,0,0,0-.46.54,2.34,2.34,0,0,1-.73.58c0-.14,0-.3,0-.42a2.47,2.47,0,0,1,.21-.75l.22-.43-.39.29a1.08,1.08,0,0,1-.62.21.56.56,0,0,1-.31-.09,2.06,2.06,0,0,0,.71-.3A1.87,1.87,0,0,1,42,12.24a.82.82,0,0,1,.8.52,1.59,1.59,0,0,1-.1.83c-.1.2-.48.58-.64.81a2.54,2.54,0,0,0-.35.65c-.13.35.16.41.27.12a1.85,1.85,0,0,1,.45-.66,3.28,3.28,0,0,1,.45-.37c0,.51.09,1,.08,1.56,0,.11,0,.81.17.81s.16-.7.16-.81c0-.52.05-1,.09-1.56a4.14,4.14,0,0,1,.46.37,2.15,2.15,0,0,1,.45.66c.1.29.39.23.26-.12a2.87,2.87,0,0,0-.34-.65,9.76,9.76,0,0,1-.64-.81,1.41,1.41,0,0,1-.1-.83.8.8,0,0,1,.79-.52,1.87,1.87,0,0,1,1.38.33,2.06,2.06,0,0,0,.71.3A.56.56,0,0,1,46,13a1.08,1.08,0,0,1-.62-.21L45,12.46l.22.43a2.47,2.47,0,0,1,.21.75c0,.12,0,.28,0,.42a2.34,2.34,0,0,1-.73-.58,6,6,0,0,0-.46-.54l-.37-.37.18.49A8.54,8.54,0,0,1,44.63,15a3.67,3.67,0,0,1,0,.74,3.38,3.38,0,0,1-.35-.31,3,3,0,0,1-.39-.54l-.18-.33,0,.38a6.81,6.81,0,0,1-.28,1.56,2.31,2.31,0,0,1-.28.57m0-5.09a.48.48,0,1,1,0-1,.48.48,0,0,1,0,1m-.05-1.42a.63.63,0,0,0-.19,0,7,7,0,0,0-1.43-1.72,6.1,6.1,0,0,0-4.3-1.67,4.63,4.63,0,0,0-2.62.9,1.36,1.36,0,0,1,.56-.89c1.07-.76,3-.42,4.16,0A10.36,10.36,0,0,1,43,10.48ZM51.7,8.09a4.66,4.66,0,0,0-2.63-.9,6.12,6.12,0,0,0-4.3,1.67,7,7,0,0,0-1.43,1.72.63.63,0,0,0-.19,0l0-.07A10.36,10.36,0,0,1,47,7.2c1.13-.42,3.09-.76,4.16,0a1.41,1.41,0,0,1,.57.89M38.92,9.26a1.2,1.2,0,0,0,.45,1.12c.71.46,1.78-.1,2.34-.64l.11.12a3,3,0,0,1-1.85,1,6,6,0,0,1-2.62-.45,2.47,2.47,0,0,0-1.45,0c-.32.13-.17.45.1.39l.3,0a.27.27,0,0,1,0,.31.49.49,0,0,1-.85.08A.68.68,0,0,1,36,10a2.68,2.68,0,0,1,1.25.17l.46.18L37.35,10a4.27,4.27,0,0,1-.45-.6,1.92,1.92,0,0,1-.14-.29,2,2,0,0,1,.86.42,4.66,4.66,0,0,1,.83.71l.31.45-.11-.54a1,1,0,0,1,.07-.66.88.88,0,0,1,.2-.24m4.54.14-.36.41-.36-.41a4.41,4.41,0,0,0,.36-.64,4.41,4.41,0,0,0,.36.64m-1-.33L42.31,9A7.57,7.57,0,0,0,43.1,7.2,8,8,0,0,0,43.89,9l-.12.12a4.83,4.83,0,0,1-.56-1.33l-.11-.5-.11.5a4.83,4.83,0,0,1-.56,1.33m4.85.19a.73.73,0,0,1,.2.24,1,1,0,0,1,.07.66l-.11.54.31-.45a5.11,5.11,0,0,1,.83-.71,2.1,2.1,0,0,1,.86-.42c0,.1-.08.19-.13.29a5.3,5.3,0,0,1-.46.6l-.32.36.45-.18A2.7,2.7,0,0,1,50.24,10a.68.68,0,0,1,.47,1.1.49.49,0,0,1-.85-.08.27.27,0,0,1,0-.31l.3,0c.28.06.42-.26.1-.39a2.47,2.47,0,0,0-1.45,0,6,6,0,0,1-2.62.45,3,3,0,0,1-1.85-1l.11-.12c.56.54,1.63,1.1,2.34.64a1.2,1.2,0,0,0,.45-1.12M43,5.79l0,.3a8.32,8.32,0,0,1-1,2.56,8.67,8.67,0,0,0-2.87-1.94,5,5,0,0,0,1.92-.62,4.55,4.55,0,0,0,1.17-1,.92.92,0,0,0,.81.67m1.15,2.86a8.32,8.32,0,0,1-1-2.56l-.05-.3A.91.91,0,0,0,44,5.14a4.39,4.39,0,0,0,1.15,1,5,5,0,0,0,1.93.62,8.61,8.61,0,0,0-2.88,1.94m-9-5.09a3.79,3.79,0,0,1,1,.35,3.45,3.45,0,0,1,1.18,1l.21.27V4.85a1.58,1.58,0,0,1,.37-1,1,1,0,0,1,.63-.23,1.64,1.64,0,0,0-.32.9,1.26,1.26,0,0,0,1.61,1.21C41,5.51,42,4.24,42.42,3.27a14.57,14.57,0,0,0,.68-1.65,14.57,14.57,0,0,0,.68,1.65c.47,1,1.43,2.24,2.57,2.42A1.26,1.26,0,0,0,48,4.48a1.57,1.57,0,0,0-.32-.9,1,1,0,0,1,.64.23,1.62,1.62,0,0,1,.36,1v.33l.21-.27a3.54,3.54,0,0,1,1.18-1,3.86,3.86,0,0,1,1-.35A2.2,2.2,0,0,1,51,4.2a2.56,2.56,0,0,1-.58.77L50,5.33l.48-.17a2.46,2.46,0,0,1,1.75-.07.73.73,0,0,1-.19,1.37c-.55.07-.75-.63-.78-1.06V5.22l-.16.09a12,12,0,0,1-1.75.81,5.37,5.37,0,0,1-4-.41,5.06,5.06,0,0,1-2.13-3.17L43.1,2,43,2.54a5.08,5.08,0,0,1-2.12,3.17,5.4,5.4,0,0,1-4,.41,12.52,12.52,0,0,1-1.75-.81l-.16-.09V5.4c0,.42-.23,1.13-.78,1.06A.73.73,0,0,1,34,5.09a2.46,2.46,0,0,1,1.75.07l.48.17L35.83,5a2.38,2.38,0,0,1-.57-.77,1.69,1.69,0,0,1-.12-.64m-.09,3.11A1.09,1.09,0,0,0,35.37,6l.75.3a3.71,3.71,0,0,0-1.07.34m16.1,0a3.71,3.71,0,0,0-1.07-.34l.75-.3a1.09,1.09,0,0,0,.32.64M44,15.87a2.42,2.42,0,0,0,.31.25,2.69,2.69,0,0,0,.5.28l.12.05,0-.12a3.81,3.81,0,0,0,.14-1.06,4,4,0,0,0-.12-.88,1.25,1.25,0,0,0,.18.11,3.17,3.17,0,0,0,.49.17l.12,0,0-.12a3.31,3.31,0,0,0,.1-.63,2.77,2.77,0,0,0,0-.5,1.37,1.37,0,0,0,.82-.22,1.23,1.23,0,0,0,.45-.81l0-.25-.21.15a.88.88,0,0,1-1-.08,2.63,2.63,0,0,0-1.9-.46l-.13,0a.86.86,0,0,0,0-.32.93.93,0,0,0-.32-.71,5.57,5.57,0,0,1,.37-.57,3.69,3.69,0,0,0,1.2.83,3.83,3.83,0,0,0,2.27.17c.54-.1,1-.31,1.53-.42l.27,0a.79.79,0,0,0,.09.54,1,1,0,0,0,1.61.1,1.16,1.16,0,0,0-.36-1.78,1.92,1.92,0,0,0-.9-.11,1.78,1.78,0,0,0,.12-.29,3.78,3.78,0,0,0,.1-.46l0-.12h-.12a2.35,2.35,0,0,0-1.25.29,4.8,4.8,0,0,0-.7.45,1,1,0,0,0-.34-.47,1.08,1.08,0,0,0-.74-.22h-.12l0,.13c.07.33.12,1-.22,1.24-.54.34-1.37-.2-1.78-.61l.26-.24a5.55,5.55,0,0,1,4-1.56A4.45,4.45,0,0,1,51.9,8.82l.15.16,0-.21a1.87,1.87,0,0,0-.56-1.85,1.24,1.24,0,0,0,.52.07,1.22,1.22,0,0,0,.88-2,1.89,1.89,0,0,0-1.52-.58,2.77,2.77,0,0,0,.13-.57,4.52,4.52,0,0,0,.06-.74V3l-.13,0a6.43,6.43,0,0,0-1.5.42A4.44,4.44,0,0,0,49,4a1.25,1.25,0,0,0-.86-.85,1.28,1.28,0,0,0-1.25.26l-.11.11.14.07a1.13,1.13,0,0,1,.57.73c.11.61-.4,1-1,.93-1-.07-2-1.45-2.38-2.26A16,16,0,0,1,43.21.49L43.1.08,43,.49A15.31,15.31,0,0,1,42.07,3c-.38.79-1.41,2.17-2.37,2.24-.57,0-1.08-.31-1-.93a1.16,1.16,0,0,1,.57-.73l.14-.07-.11-.11a1.3,1.3,0,0,0-1.24-.26,1.24,1.24,0,0,0-.87.85,4.61,4.61,0,0,0-1-.6A6.51,6.51,0,0,0,34.73,3L34.6,3V3.1a4.52,4.52,0,0,0,.06.74,3.63,3.63,0,0,0,.13.57A1.86,1.86,0,0,0,33.28,5a1.22,1.22,0,0,0,.87,2,1.24,1.24,0,0,0,.52-.07,1.89,1.89,0,0,0-.56,1.85l0,.21.14-.16a4.45,4.45,0,0,1,2.83-1.18,5.55,5.55,0,0,1,4,1.56l.26.24c-.41.41-1.24,1-1.78.61-.34-.21-.29-.91-.22-1.24l0-.13h-.12a1.1,1.1,0,0,0-.74.22,1,1,0,0,0-.34.47,5.34,5.34,0,0,0-.69-.45,2.41,2.41,0,0,0-1.26-.29h-.12l0,.12a3.84,3.84,0,0,0,.11.46,1.72,1.72,0,0,0,.11.29,1.86,1.86,0,0,0-.89.11,1.16,1.16,0,0,0-.37,1.78,1,1,0,0,0,1.62-.1.85.85,0,0,0,.08-.54l.27,0c.51.11,1,.32,1.53.42A3.83,3.83,0,0,0,40.91,11a3.59,3.59,0,0,0,1.2-.83,5.57,5.57,0,0,1,.37.57.94.94,0,0,0-.33.71.87.87,0,0,0,.06.32l-.13,0a2.63,2.63,0,0,0-1.9.46.88.88,0,0,1-1,.08l-.2-.15,0,.25a1.23,1.23,0,0,0,.45.81,1.37,1.37,0,0,0,.82.22,2.77,2.77,0,0,0,0,.5,3.31,3.31,0,0,0,.1.63l0,.12.12,0A3.17,3.17,0,0,0,41,14.5a.87.87,0,0,0,.18-.11,4,4,0,0,0-.12.88,3.81,3.81,0,0,0,.14,1.06l0,.12.12-.05a3.15,3.15,0,0,0,.51-.28,3.31,3.31,0,0,0,.3-.25c0,.2.08.4.12.58A5.54,5.54,0,0,0,43,17.84l.09.14.1-.14a5.85,5.85,0,0,0,.7-1.39c0-.18.09-.38.12-.58M80.19,9.13a2.6,2.6,0,0,0,2.28.89C84,10,85.16,8.67,85.24,6.61a1.22,1.22,0,0,0,0-.27v0a4.54,4.54,0,0,0-3.75-4.22,11.12,11.12,0,0,0-2.89.05A5.38,5.38,0,0,0,79,1.39c.1-.35.25-.8.25-.8h-.09l.09-.3S77.92.1,76.81,0A7.06,7.06,0,0,0,73,.63,6.47,6.47,0,0,0,70.72,3a5.2,5.2,0,0,1-.67.71A3,3,0,0,0,70.26,3c0-.38,0-.85,0-1.07h0V1.48a11.66,11.66,0,0,0-3.24.36,6,6,0,0,0-2.78,2,3.4,3.4,0,0,0-1-2,3.75,3.75,0,0,0-4.72.07,3.41,3.41,0,0,0-1.3,2.73,4.09,4.09,0,0,0,.05.77,3.43,3.43,0,0,0-2-.16,2.16,2.16,0,0,0-1.66,2.27,2.3,2.3,0,0,0,.13.95,2.09,2.09,0,0,0,3,1.3,1.32,1.32,0,0,0,.58-1.25,1.45,1.45,0,0,0-.21-.92l.17,0a4.18,4.18,0,0,1,.53.21,3.25,3.25,0,0,1,.73.47,5.08,5.08,0,0,0,2.65,1.59,12.56,12.56,0,0,0,7.06-.62c2.54-.95,4.64-3,7.67-3.68s5.1-.11,5.59,1a2.07,2.07,0,0,1,.18.64,1.61,1.61,0,0,1-.62,1.14c-.16.1-.7.42-.91.52a1,1,0,0,0,.19.2l-.19.1M67.09,6.81c.25-.14.28-.36.18-.46.16-.23,0-.49-.38-.28a11.44,11.44,0,0,1-1.58.87,7.44,7.44,0,0,1-1.9.46c-.42,0-.44.14.13.14a9.08,9.08,0,0,0,1.85-.33l-.08,0a7.44,7.44,0,0,1-1.9.46c-.42,0-.44.15.13.15a9.57,9.57,0,0,0,2.68-.62,8.3,8.3,0,0,0,.87-.42m-7-4.32a2.58,2.58,0,0,1,.61-.16l-.17,0a2.06,2.06,0,0,0-.44.14m3.12,2.67c-.16.3-.33.13-.24-.13l0,0s-.06-.14,0-.26a.9.9,0,0,0,0-.22,2,2,0,0,0-.57-1.25,2.35,2.35,0,0,0-1.92-.6,1.89,1.89,0,0,0-1.15.68c-.24.3-.35.13-.19-.14h0c-.1,0-.12-.11,0-.29A2.13,2.13,0,0,1,61.13,2,2.43,2.43,0,0,1,63.4,3.75a2.63,2.63,0,0,1,0,.48,1.46,1.46,0,0,1-.18.93M68.7,3.21c.35,0,.45-.14,0-.14a5.07,5.07,0,0,0-1.65.34l.26-.13a4.11,4.11,0,0,1,1.35-.37c.35,0,.45-.14,0-.14a4.63,4.63,0,0,0-2.27.66c-.79.53-.77.62-.92.81a.23.23,0,0,0,0,.28l0,0c-.14.19.11.56.44.19a3.44,3.44,0,0,1,1.36-1.14,4,4,0,0,1,1.35-.38m7.92-1.84c.24.08.18.31-.2.36a10.67,10.67,0,0,0-1.78.3,7.22,7.22,0,0,0-1.78.82c-.34.24-.44.15,0-.2a8.78,8.78,0,0,1,1.89-1l-.12,0a7.6,7.6,0,0,0-1.78.82c-.34.24-.44.16,0-.2a8.84,8.84,0,0,1,2.19-1.06A6.67,6.67,0,0,1,76.38,1c.41,0,.49.22.24.33M76.72,4c.33-.19.23-.37-.11-.24l.11-.06c.33-.19.23-.38-.13-.24s-1,.47-1.69.71-1.25.64-.26.3c.62-.21,1.15-.38,1.54-.53-.36.16-.83.37-1.28.54-.66.24-1.25.63-.26.3A16.75,16.75,0,0,0,76.72,4M77,2.68c.28-.25.2-.4-.1-.21l.1-.09c.29-.26.19-.41-.12-.2s-.49.47-.79.65-.6.56-.17.3c.26-.15.5-.3.71-.45a3.37,3.37,0,0,1-.54.46c-.3.18-.6.55-.17.3A5.66,5.66,0,0,0,77,2.68M61.22,3.9c-.61,0-.9.48-.84,1.15a1.61,1.61,0,0,0,0,.38A1.56,1.56,0,0,0,62.06,7c1.21,0,1.71-1,2.3-2.13a5.08,5.08,0,0,1,2.78-2.32,6.07,6.07,0,0,1,2.72-.27.42.42,0,0,0,0,.07,4,4,0,0,1-.25,1.18,8.76,8.76,0,0,1-1.21,1.92s.18-.1.44-.27c-.24.34-.44.58-.44.58a11,11,0,0,0,2.16-1.65c.92-.94,1.24-2.06,2.57-2.77A6.6,6.6,0,0,1,76.82.68a7.59,7.59,0,0,1,1.64.26,4.41,4.41,0,0,1-.3.86c-.22.46-.72,1.25-.72,1.25L77.68,3l-.24.4a9.07,9.07,0,0,1,3.72-.56,4.11,4.11,0,0,1,3.65,3.59A3.34,3.34,0,0,1,84,8.6a2.68,2.68,0,0,0,.49-1.71v-.3a2.23,2.23,0,0,0-.86-1.88c-.24-.14-.39,0-.11.2L83.6,5h0c-.24-.15-.39,0-.11.19a2,2,0,0,1,.64,1.12,2,2,0,0,1,0,.26A2.63,2.63,0,0,1,83.66,8a1.92,1.92,0,0,1-1.56.77c-.3,0-.59.09-.26.22a2.59,2.59,0,0,0,.61.07,1.5,1.5,0,0,1-.35,0c-.28,0-.56.07-.31.19a3.14,3.14,0,0,1-.67-.16l.28-.18a2,2,0,0,0,.73-1.75,2.45,2.45,0,0,0-.16-1c-.5-1.33-3-2-6-1.3s-5.37,2.83-7.78,3.73a12.44,12.44,0,0,1-6.73.63,4.56,4.56,0,0,1-2.52-1.47,3.22,3.22,0,0,0-2-.84c-.42,0-.71.27-.53.52-.1.13-.08.3.15.45a1,1,0,0,1,.41.61,1.09,1.09,0,0,1-.48.67c-.78.55-2-.12-2.31-1.2a1.4,1.4,0,0,1-.08-.34,1.76,1.76,0,0,1,.59-1.13,1.83,1.83,0,0,0-.33,1.19,1.33,1.33,0,0,0,.14.75,1.62,1.62,0,0,0,1.25.91c.25,0,.37-.26.23-.39a.22.22,0,0,0-.19-.37,1.44,1.44,0,0,1-1.13-1,.59.59,0,0,1,0-.13,1,1,0,0,1,.35-.7c.28-.23.11-.31-.16-.1l-.07.07A1,1,0,0,1,55,6.38c.16-.13.17-.21.1-.22a2.07,2.07,0,0,1,.64-.2,4.33,4.33,0,0,1,2.25.59c0-.11,0-.23-.08-.35l.08,0a7.08,7.08,0,0,1-.21-1.38A3.21,3.21,0,0,1,63,2.57a2.09,2.09,0,0,1,.76,1.49c0,.13,0,.26,0,.39-.07.63-.72,1.73-1.68,1.76a1.14,1.14,0,0,1-1.27-1v0a.65.65,0,0,1,.41-.61c.28,0,.35-.3.13-.35.2-.1.18-.33-.12-.31M5.06,9.13A2.64,2.64,0,0,1,2.77,10C1.26,10,.09,8.67,0,6.61v-.3A4.56,4.56,0,0,1,3.76,2.09a11.12,11.12,0,0,1,2.89.05,5.38,5.38,0,0,1-.35-.75L6.05.59h.09L6.05.28S7.33.1,8.44,0a7,7,0,0,1,3.81.6A6.43,6.43,0,0,1,14.53,3a5.2,5.2,0,0,0,.67.71A3,3,0,0,1,15,3,7,7,0,0,1,15,1.9h0c0-.24,0-.42,0-.42a11.66,11.66,0,0,1,3.24.36A5.93,5.93,0,0,1,21,3.8a3.5,3.5,0,0,1,1-2,3.74,3.74,0,0,1,4.71.07A3.35,3.35,0,0,1,28,4.61a3.37,3.37,0,0,1,0,.77,3.41,3.41,0,0,1,2-.16,2.16,2.16,0,0,1,1.66,2.27,2.48,2.48,0,0,1-.13.95,2.09,2.09,0,0,1-3,1.3,1.33,1.33,0,0,1-.57-1.25,1.45,1.45,0,0,1,.21-.92l-.17,0c-.2.06-.36.14-.54.21a3.77,3.77,0,0,0-.73.47A5,5,0,0,1,24,9.88,12.6,12.6,0,0,1,17,9.26c-2.54-.95-4.64-3-7.66-3.67s-5.1-.12-5.59.94a1.82,1.82,0,0,0-.18.64,1.64,1.64,0,0,0,.61,1.14c.16.1.7.42.92.52a1.42,1.42,0,0,1-.19.2l.19.1m13.1-2.32c-.26-.14-.28-.35-.18-.46-.16-.23,0-.49.37-.28a11.59,11.59,0,0,0,1.59.87,7.44,7.44,0,0,0,1.9.46c.42,0,.44.14-.14.14a9,9,0,0,1-1.84-.33l.08,0a7.44,7.44,0,0,0,1.9.46c.42,0,.44.15-.14.15A9.65,9.65,0,0,1,19,7.23a8.54,8.54,0,0,1-.86-.42m7-4.32a2.55,2.55,0,0,0-.62-.16l.18,0a2.25,2.25,0,0,1,.44.14M22,5.16c.17.3.34.13.24-.13,0,0,0,0,0,0a.25.25,0,0,0,0-.26c0-.05,0-.13,0-.22a2,2,0,0,1,.57-1.25,2.35,2.35,0,0,1,1.92-.6,1.89,1.89,0,0,1,1.15.68c.24.3.34.13.19-.14h0c.1,0,.11-.11,0-.29A2.14,2.14,0,0,0,24.12,2a2.41,2.41,0,0,0-2.27,1.74,4.27,4.27,0,0,0,0,.48,1.46,1.46,0,0,0,.18.93M16.54,3.21c-.34,0-.45-.13,0-.13a5,5,0,0,1,1.66.33l-.27-.13a4,4,0,0,0-1.35-.37c-.34,0-.45-.14,0-.14a4.58,4.58,0,0,1,2.27.66c.8.53.78.62.92.81a.21.21,0,0,1,0,.28v0c.15.19-.1.56-.44.19a3.3,3.3,0,0,0-1.36-1.14,3.94,3.94,0,0,0-1.35-.38M8.63,1.37c-.24.08-.18.31.2.36a10.84,10.84,0,0,1,1.78.3,7.22,7.22,0,0,1,1.78.82c.34.24.44.15,0-.2a8.34,8.34,0,0,0-1.89-1l.13,0a7.6,7.6,0,0,1,1.78.82c.34.24.44.16,0-.2a9,9,0,0,0-2.18-1.06A6.63,6.63,0,0,0,8.86,1c-.4,0-.48.22-.23.33M8.53,4c-.33-.2-.24-.38.11-.25l-.11-.06c-.34-.19-.23-.38.12-.24s1,.47,1.7.71,1.24.64.26.3C10,4.22,9.46,4.05,9.06,3.9c.37.16.83.37,1.29.54.66.24,1.24.63.26.3A18.35,18.35,0,0,1,8.53,4M8.22,2.68c-.28-.25-.19-.4.11-.21l-.11-.09c-.28-.26-.19-.41.13-.2s.49.47.79.65.6.56.16.3a7.68,7.68,0,0,1-.7-.45,3,3,0,0,0,.54.46c.3.18.6.55.16.3a6,6,0,0,1-1.08-.76M24,3.9c.6,0,.9.48.84,1.15a1.64,1.64,0,0,1,0,.38A1.55,1.55,0,0,1,23.19,7c-1.21,0-1.71-1-2.3-2.13a5.08,5.08,0,0,0-2.78-2.32,6.07,6.07,0,0,0-2.72-.27.17.17,0,0,0,0,.07,4,4,0,0,0,.25,1.18,8.48,8.48,0,0,0,1.2,1.92l-.43-.27c.24.34.43.58.43.58a11.28,11.28,0,0,1-2.16-1.65C13.75,3.13,13.44,2,12.11,1.3A6.63,6.63,0,0,0,8.43.68,7.46,7.46,0,0,0,6.79.94a4.36,4.36,0,0,0,.29.86c.22.46.73,1.25.73,1.25L7.57,3c.13.23.24.4.24.4A9.09,9.09,0,0,0,4.08,2.8,4.12,4.12,0,0,0,.43,6.39,3.34,3.34,0,0,0,1.3,8.6,2.68,2.68,0,0,1,.81,6.89V6.82a.88.88,0,0,1,0-.23,2.23,2.23,0,0,1,.85-1.88c.25-.14.39,0,.12.2L1.64,5h0c.25-.14.39,0,.12.19a2,2,0,0,0-.65,1.12l0,.26A2.63,2.63,0,0,0,1.59,8a1.9,1.9,0,0,0,1.56.77c.3,0,.59.09.26.22A2.59,2.59,0,0,1,2.8,9a1.5,1.5,0,0,0,.35,0c.28,0,.56.07.31.19a3,3,0,0,0,.66-.16L3.85,8.9a2,2,0,0,1-.73-1.75,2.3,2.3,0,0,1,.16-1c.5-1.33,3-2,6-1.3s5.38,2.83,7.79,3.73a12.44,12.44,0,0,0,6.73.63,4.6,4.6,0,0,0,2.52-1.47,3.22,3.22,0,0,1,2-.84c.41,0,.71.27.53.52.1.13.07.3-.15.45a1,1,0,0,0-.41.61,1.06,1.06,0,0,0,.48.67c.77.55,1.95-.12,2.31-1.19a2.49,2.49,0,0,0,.08-.35,1.81,1.81,0,0,0-.59-1.13,2,2,0,0,1,.33,1.19,1.33,1.33,0,0,1-.14.75,1.62,1.62,0,0,1-1.26.91c-.24,0-.37-.26-.22-.39a.22.22,0,0,1,.19-.37,1.44,1.44,0,0,0,1.13-1s0-.09,0-.13a1,1,0,0,0-.35-.7c-.29-.23-.11-.31.15-.1a.23.23,0,0,1,.07.07,1,1,0,0,0-.22-.28c-.16-.13-.18-.21-.11-.22a1.94,1.94,0,0,0-.63-.2,4.33,4.33,0,0,0-2.25.59c0-.11.05-.23.07-.35l-.07,0a7.93,7.93,0,0,0,.21-1.38,3.21,3.21,0,0,0-5.3-2.3,2.05,2.05,0,0,0-.76,1.49c0,.13,0,.26,0,.39.08.63.72,1.73,1.69,1.76a1.14,1.14,0,0,0,1.27-1v0c0-.29-.18-.56-.41-.61s-.35-.3-.13-.35c-.2-.1-.18-.33.12-.31"/></g></g></svg>