<svg xmlns="http://www.w3.org/2000/svg" viewBox="0 0 10.51 38"><defs><style>.cls-1{fill:#623c25;}</style></defs><title>17_l_c</title><g id="Layer_2" data-name="Layer 2"><g id="Layer_1-2" data-name="Layer 1"><path class="cls-1" d="M3.7,14.19V12.77l.15-2a1.6,1.6,0,0,1,.74,1.6V13A1.07,1.07,0,0,1,3.7,14.19Zm2-1.42a2.17,2.17,0,0,0,.9,1.6l.18-3.74A2.74,2.74,0,0,0,5.65,12.77ZM5.33,28.36,3.74,29.62c0,.62,0,3.7,0,8.38H6.5c0-4.42,0-7.33,0-7.95ZM3.84,8.67l1.39,1.68.23.1c.3-.85,1.24-.87,1.23-1.6S6.68,5,6.68,0H3.85C3.85,4.9,3.85,8.11,3.84,8.67ZM2.39,38H1.84c0-7.46,0-12.71,0-14C1.12,23,0,22.11,0,20.43v-.71c0-2.59,1-3,1.89-4.46,0-1.24,0-7,.05-15.26h.65c0,5.86,0,9.57,0,9.74,0,1.66,0,3.33,0,5,0,2.4.85,2.15,1.27,3.92.34-.09.89-.35.89-.71s-.9-1.3-.91-2c0-.11.25-.37.38-.56l.51.38c2.14,0,.92,1.81.23,2.71-1,1.37-1.33,1.33-1.78,3.33l1.06.55a13.37,13.37,0,0,1,.84-2,21.51,21.51,0,0,0,1.15-1.87c.65-1.38,1.53-2.6,1.52-4.51l0-5.35c0-.39,0-3.63,0-8.67h.94c0,3.76,0,6.11,0,6.41,0,4.16.33,6-.36,9,1.12,1.66,2.14.78,2.17,4.64,0,2-1.24,2.51-1.93,3.56.63,2.64.26,6.38.24,9,0,.42,0,2.36,0,5.38H7.91c0-4.76,0-7.93,0-8.66l0-4.81a5.63,5.63,0,0,0-1.88-4l-.68.92c.48.67,1.48,1.84,1.49,2.88l0,3.39c-.45-.12-.89-.34-.89-.89l0-1.78h-1v1.24l0,1-1.21.6,0-2.32c0-.55-.8-1-1.25-1.07C2.36,25.73,2.38,30.78,2.39,38ZM7.64,17.22c0,.39,1.07.78,1.08,1.43v.71A4.08,4.08,0,0,1,8,21.5a6,6,0,0,0,.36,1.43c.44-.51,1.59-1.67,1.59-2.5v-1.6c0-.89-.85-2.5-1.8-2.5C7.89,16.33,7.64,16.93,7.64,17.22ZM2.56,23.6c.77.77,3.71,1.72,3.7.75a2.43,2.43,0,0,0-.18-.89,3.8,3.8,0,0,1-2.93-.81,5.79,5.79,0,0,1-1.54-2.4V19.9a3.59,3.59,0,0,1,.89-2.32l-.2-1.25A3.19,3.19,0,0,0,.53,19.19v1.06C.55,21.69,1.79,22.82,2.56,23.6Z"/></g></g></svg>