<svg xmlns="http://www.w3.org/2000/svg" viewBox="0 0 46 23.94"><defs><style>.cls-1{fill:#623c25;}</style></defs><title>17_l_d</title><g id="Layer_2" data-name="Layer 2"><g id="Layer_1-2" data-name="Layer 1"><path class="cls-1" d="M44,18.78c.21-.33.35-.32.35-.72A3,3,0,0,0,44,16.63a2.65,2.65,0,0,0,.89.18H46v2Zm-2.67-2.15h-.18c-.64,0-.83.79-1.07,1.25.2.38.31.89.89.89h.89a3.85,3.85,0,0,0,1.07-.54l0-.91.38-.49Zm-23-1.6H46v.71H19c-1.09,0-3.37,1.41-4,2A7.13,7.13,0,0,1,13.15,19c-1.7.78-1.55-.18-2.32-.18a.68.68,0,0,0-.71.71c0,.73,1,1.07,1.78,1.07h.36c1.22,0,4-2.71,5.76-3.32,1.56-.53,6.31-.6,8.48-.6H38.61c.82,0,.36.55.46,1.33l.61.81H35.23L32.38,19,32,18.9l-2,.05L29,18.9,26.86,19H20.27c-1.84,0-4.09-.54-4.81.53.88,1.31,5.22.72,7.3.72H46v.89H28.46c-2.62,0-4.63-.18-7.3-.18s-5,.5-6.06-1.07a7.16,7.16,0,0,1-3,1.25,6.73,6.73,0,0,1-2.65-.85l-1.81,1c.06.71.18.43.18.9a1.46,1.46,0,0,1-1.24,1.42c.24-.36.71-.72.71-1.25a2.65,2.65,0,0,0-.18-.89H6.56C6.05,21.44,5,21.05,5,22v.35a1.82,1.82,0,0,0,.54,1.25h.89c-.21.3,0,.36-.54.36H5.49a1.37,1.37,0,0,1-1.07-1.07v-.54a1.81,1.81,0,0,1,.38-1.09L3.56,19.79l.09-.22-1.55,1c-1.61-.77-1,.21-2.1-1.42l.18-1.39L.9,17l0-.19,2.56.46,1-2.1a7.29,7.29,0,0,1-.89-2.85A9.14,9.14,0,0,1,4.6,10c-1.07-1.6-1.07-.43-1.54-3.11A33.84,33.84,0,0,1,3,2.19V0h.56c0,3,0,5.75,0,7.36,0,2.2,3.92,3.7,3.92,5,0,.66-.28.86-.6,1.4l1.31.38c.19-2.29.7-2.52-1.11-4.24C5.68,8.59,5,9.32,4.61,6.1,4.47,4.84,4.38,2.57,4.33,0H7.4c0,3.54-.06,6.85-.09,8.79L7,8.89l1,.43a26.1,26.1,0,0,0,.71-7.84c0-.34,0-.86,0-1.48h.71V1.12c0,2.37.4,7.94-1.25,8.38,0,.51.89,2.49.89,2.67v.72c0,.84-.36,1.14-.36,1.6s1,1.52,1.25,2a8.94,8.94,0,0,1,1.42-.71h1.79a4.64,4.64,0,0,1,1.95.89C15.65,16.27,17.58,15,18.31,15ZM3.17,18.23a1,1,0,0,0-.89-.89H1.92a7.7,7.7,0,0,0-1.24.18c-.06.71-.18.43-.18.89,0,.62.26,1.43.89,1.43h.36c.65,0,1.42-.49,1.42-1.07ZM5,14.81c1.37,1.21,2.44.49,3.53,2.53.24-.13.89-.39.89-.71,0-2-4.1-1.41-4.1-4.1,0-.77.28-.55.28-1.35L5,10.57C3.78,11.43,4,14,5,14.81Zm9.4,2.53c-.14-1.69-3-1-4-.39-.66.43-2.94,2.53-3.34,2.53H6c-.59,0-1.07-.87-1.07-1.42,0-1.29.66-1.1.89-2-.73-.06-.39-.18-1.07-.18-.46,0-.88,1.88-.88,2.49a2.57,2.57,0,0,0,1.46,2.11,3.64,3.64,0,0,0,2.74-.21c1.69-.72,2.05-3,4.34-3h.36c.59,0,.37.36.71.36C14.08,17.7,13.64,17.55,14.39,17.34Z"/></g></g></svg>