<svg xmlns="http://www.w3.org/2000/svg" viewBox="0 0 45 21.64"><defs><style>.cls-1{fill:#613c25;}</style></defs><title>17_l_u</title><g id="Layer_2" data-name="Layer 2"><g id="Layer_1-2" data-name="Layer 1"><path class="cls-1" d="M3.86,21.64h-1c0-1.2,0-2.19,0-2.74l-.06-.73.42-2.84C3.28,15.22,4.37,13,4.38,13c.11-.92-.64-1.68-.64-3,.59.85.89,2.39,2.14,2.5.1,1.19,1.14,2,1.24,3.21s.2,3.44.27,6h-3c0-1.8,0-3.31,0-4.16,0-.06.24-1.72.28-1.86.13-.37.78-1.26.78-1.36,0-.29-.26-.89-.53-.89C4.43,13.37,4.08,17.09,3.86,21.64Zm30-17.9c-.2.76-.36.32-.36.9V5.7c1.05.09.37.36,1.07.36h.54c.46,0,1.06-.79,1.06-1.07a1.35,1.35,0,0,0-1.42-1.25ZM45,6.06V3.75H41.5l-.89,0-1.25,0-.89,0-1.25,0c.15.63.36.6.36,1.25s-.12.34-.18,1.07ZM0,5.88c0-.75.6-1.11,1.07-1.42L2,4.34,4,2.19l.14.13c-.06-.21-.18-.49-.18-.54A1.63,1.63,0,0,1,5.52,0H5.7C6.84,0,6.77,1.18,6.77,1.78A4.77,4.77,0,0,0,8.73,3c.53,0,.47-.36,1.24-.36h.89a2.93,2.93,0,0,1,1.61.72l1.66-1.17-.06-.31L45,2V2.7l-10.09,0H21c-1.05,0-6.45-.18-6.71-.12-1.36.32-2.68,3.32-3.8,3.15L8.93,5.53,8.55,6.77a1.78,1.78,0,0,0,1.07.36h.71c1.9,0,3.48-3.39,5-3.39H31.7c.82,0,.36.52.36,1.07,0,.84.34.72.53,1.43l-4.27,0-1.43,0-2.67,0-8.7-.57L14,5.1l-.61,1.14a26.59,26.59,0,0,0,3,.9,38,38,0,0,1,4,.1c1.66.3,6.14.07,8.11.07,5.22,0,10.74.18,16.21.18H45v.74l-7.24,0c-7,0-20.95.89-24.94-1.78C12,7,11.72,7.66,10.15,7.66H9.62a3,3,0,0,1-1.47-.57L7.3,8a16.7,16.7,0,0,1,.36,2.14v.36c0,.93-.36,1-.36,1.78,0,0,1.21,2.71,1.39,3.42.36,1.44.66,3,.91,4.74,0,.23.06.64.09,1.18H8.8a31.55,31.55,0,0,0-.66-6.08c-.59-1.71-.48-1.8-1.56-3.07a4.6,4.6,0,0,1-1.42-3.4,2.14,2.14,0,0,0-.89-.36c-.44,0-.35.63-.35,1.07H3.74L3.69,8.43,2.31,7.13C1.2,7.13,0,6.8,0,5.88ZM6.05,7c0,.51.41.69.72.89,2.12-1.42,1-4.28,4.85-3.34l.85-.93A2.28,2.28,0,0,0,10.86,3H10C8.42,3,6.05,6.4,6.05,7ZM2.56,6C3.29,9.1,4.8,7.65,5.88,9.27l-.06,1.66L7,11.77C8.2,6.38,3.56,8.63,3.56,5.17c0-.83,1.24-1.6,2.14-1.6.71,0,.89.35,1.6.35.48,0,.53-.26.79-.69l-2-.91a2.1,2.1,0,0,0,.54-1.07A.69.69,0,0,0,5.88.53H5.16a.69.69,0,0,0-.71.72l.09.62L5,2.5A2.77,2.77,0,0,0,2.56,6Zm-2-.11c0,.47.64.89.89.89.41,0,.21-.06.72-.18V5.53a.69.69,0,0,0-.72-.72H.89C.78,5.3.53,5.54.53,5.88Z"/></g></g></svg>