<svg xmlns="http://www.w3.org/2000/svg" viewBox="0 0 44.64 21.64"><defs><style>.cls-1{fill:#613c25;}</style></defs><title>17_r_u</title><g id="Layer_2" data-name="Layer 2"><g id="Layer_1-2" data-name="Layer 1"><path class="cls-1" d="M7.42,3.74c-.15.63-.36.6-.36,1.25s.12.34.18,1.07H0V3.74H3.14l.9,0,1.24,0,.89,0ZM41.86,18.17l-.42-2.84c-.08-.11-1.17-2.31-1.18-2.37-.11-.92.64-1.68.64-3-.58.85-.88,2.39-2.13,2.5-.1,1.19-1.15,2-1.25,3.21s-.2,3.44-.27,6h3c0-1.8,0-3.31,0-4.16,0-.06-.24-1.72-.28-1.86-.13-.37-.78-1.26-.78-1.36,0-.29.26-.89.54-.89.55,0,.9,3.72,1.12,8.27h1c0-1.2,0-2.19,0-2.74ZM44.64,5.88c0,.92-1.2,1.25-2.31,1.25L41,8.43,40.9,9.8h-.18c0-.44.09-1.07-.35-1.07a2.2,2.2,0,0,0-.89.36,4.63,4.63,0,0,1-1.41,3.4c-1.09,1.27-1,1.36-1.57,3.07a31.55,31.55,0,0,0-.66,6.08H35c0-.54.06-.95.09-1.18.25-1.7.56-3.3.91-4.74.18-.71,1.39-3.4,1.39-3.42,0-.75-.36-.85-.36-1.78v-.36A16.7,16.7,0,0,1,37.34,8l-.85-.93A3,3,0,0,1,35,7.66h-.53c-1.57,0-1.84-.69-2.67-1.24C27.83,9.09,13.9,8.2,6.89,8.2H0V7.49c5.46,0,11-.18,16.15-.18,2,0,6.45.23,8.12-.07a37.7,37.7,0,0,1,4-.1,26.59,26.59,0,0,0,3-.9L30.67,5.1l-1.54.55-8.71.57-2.67,0-1.43,0-4.27,0c.19-.71.53-.59.53-1.43,0-.55-.46-1.07.36-1.07H29.33c1.5,0,3.08,3.39,5,3.39H35a1.78,1.78,0,0,0,1.07-.36l-.38-1.24-1.58.17c-1.11.17-2.44-2.83-3.8-3.15-.25-.06-5.66.12-6.7.12H9.73L0,2.69V2.34c4.12-.11,8.44-.4,30.57-.43l-.06.31,1.67,1.17a2.89,2.89,0,0,1,1.6-.72h.89c.77,0,.72.36,1.25.36a4.8,4.8,0,0,0,1.95-1.25c0-.6-.07-1.78,1.07-1.78h.18a1.63,1.63,0,0,1,1.6,1.78c0,.05-.12.33-.17.54l.14-.13,1.94,2.15.94.12C44,4.77,44.64,5.13,44.64,5.88Zm-6.77,2c.31-.2.72-.38.72-.89S36.22,3,34.67,3h-.89a2.23,2.23,0,0,0-1.6.54L33,4.5C36.91,3.56,35.76,6.42,37.87,7.84ZM39.66,2.5l.44-.63.09-.62a.69.69,0,0,0-.71-.72h-.71a.69.69,0,0,0-.72.72,2.1,2.1,0,0,0,.54,1.07l-2,.91c.26.43.31.69.79.69.71,0,.9-.35,1.6-.35.9,0,2.14.77,2.14,1.6,0,3.46-4.64,1.21-3.38,6.6l1.12-.84,0-1.66C39.84,7.65,41.35,9.1,42.08,6A2.77,2.77,0,0,0,39.66,2.5Zm4.45,3.38c0-.34-.24-.58-.36-1.07h-.53a.69.69,0,0,0-.71.72V6.59c.5.12.3.18.71.18C43.47,6.77,44.11,6.35,44.11,5.88Zm-34,.18c.7,0,0-.27,1.07-.36V4.64c0-.58-.15-.14-.36-.9H9.91A1.35,1.35,0,0,0,8.49,5c0,.28.6,1.07,1.07,1.07Z"/></g></g></svg>