<svg xmlns="http://www.w3.org/2000/svg" viewBox="0 0 10.51 38"><defs><style>.cls-1{fill:#623c25;}</style></defs><title>17_r_c</title><g id="Layer_2" data-name="Layer 2"><g id="Layer_1-2" data-name="Layer 1"><path class="cls-1" d="M7.91,9.74c0,1.66,0,3.33,0,5,0,2.4-.85,2.15-1.28,3.92-.34-.09-.89-.35-.88-.71s.89-1.3.9-2c0-.11-.25-.37-.37-.56l-.52.38c-2.14,0-.92,1.81-.23,2.71,1,1.37,1.33,1.33,1.78,3.33l-1.06.55a13.37,13.37,0,0,0-.84-2c-.33-.54-.91-1.35-1.15-1.87C3.58,17.15,2.7,15.93,2.71,14l0-5.35c0-.39,0-3.63,0-8.67H1.8c0,3.76,0,6.11,0,6.41,0,4.16-.33,6,.36,9C1.05,17.1,0,16.22,0,20.08c0,2,1.24,2.51,1.94,3.56-.64,2.64-.27,6.38-.25,9,0,.42,0,2.36,0,5.38H2.6c0-4.76,0-7.93,0-8.66l0-4.81a5.6,5.6,0,0,1,1.89-4l.67.92c-.48.67-1.48,1.84-1.49,2.88l0,3.39c.45-.12.89-.34.89-.89l0-1.78H5.65v1.24l0,1,1.21.6,0-2.32c0-.55.8-1,1.25-1.07,0,1.2,0,6.25,0,13.47h.55c0-7.46,0-12.71,0-14,.69-1,1.79-1.89,1.81-3.57v-.71c0-2.59-1-3-1.89-4.46,0-1.24,0-7,0-15.26H7.92C7.91,5.86,7.91,9.57,7.91,9.74ZM1.79,18.65v.71a4.08,4.08,0,0,0,.69,2.14,6,6,0,0,1-.36,1.43c-.44-.51-1.59-1.67-1.59-2.5v-1.6c0-.89.85-2.5,1.8-2.5.28,0,.53.6.53.89S1.8,18,1.79,18.65Zm8.19.54v1.06c0,1.44-1.25,2.57-2,3.35s-3.71,1.72-3.7.75a2.43,2.43,0,0,1,.18-.89,3.79,3.79,0,0,0,2.93-.81,5.92,5.92,0,0,0,1.55-2.4V19.9A3.54,3.54,0,0,0,8,17.58l.2-1.25A3.19,3.19,0,0,1,10,19.19ZM4.86,12.77a2.17,2.17,0,0,1-.9,1.6l-.18-3.74A2.68,2.68,0,0,1,4.86,12.77Zm1.82-2,.14,2v1.42A1.07,1.07,0,0,1,5.93,13v-.54A1.59,1.59,0,0,1,6.68,10.81Zm.09,18.81c0,.62,0,3.7,0,8.38H4V30.05l1.16-1.69ZM6.66,0c0,4.9,0,8.11,0,8.67L5.28,10.35l-.23.1c-.3-.85-1.24-.87-1.23-1.6S3.83,5,3.83,0Z"/></g></g></svg>