<svg xmlns="http://www.w3.org/2000/svg" viewBox="0 0 45.64 23.94"><defs><style>.cls-1{fill:#623c25;}</style></defs><title>17_r_d</title><g id="Layer_2" data-name="Layer 2"><g id="Layer_1-2" data-name="Layer 1"><path class="cls-1" d="M2.75,18.23l0-.91-.38-.49,2-.2h.17c.64,0,.83.79,1.07,1.25-.2.38-.31.89-.89.89H3.82C3.56,18.77,3,18.38,2.75,18.23Zm-2-1.42H0v2H1.68c-.21-.33-.35-.32-.35-.72a3,3,0,0,1,.35-1.43A2.6,2.6,0,0,1,.79,16.81ZM42.65,0V2.19a33.84,33.84,0,0,1-.07,4.74c-.47,2.68-.47,1.51-1.53,3.11a9.47,9.47,0,0,1,1.06,2.31,7.29,7.29,0,0,1-.89,2.85l1,2.1,2.57-.46,0,.19.71.71.18,1.39c-1.06,1.63-.49.65-2.1,1.42l-1.55-1,.09.22-1.24,1.45a1.81,1.81,0,0,1,.38,1.09v.54a1.37,1.37,0,0,1-1.06,1.07H39.8c-.51,0-.33-.06-.54-.36h.9a1.86,1.86,0,0,0,.53-1.25V22c0-.93-1.1-.54-1.6-.54h-.54a2.65,2.65,0,0,0-.18.89c0,.53.48.89.72,1.25a1.46,1.46,0,0,1-1.25-1.42c0-.47.12-.19.18-.9l-1.81-1a6.73,6.73,0,0,1-2.65.85,7.16,7.16,0,0,1-3-1.25c-1.05,1.57-3.49,1.07-6.06,1.07s-4.68.18-7.3.18H0V20.2H22.88c2.08,0,6.43.59,7.3-.72-.72-1.07-3-.53-4.81-.53H18.78l-2.13-.05L15.58,19l-2-.05-.36.05-2.85-.18H6L6.57,18c.1-.78-.35-1.33.46-1.33H19.14c2.18,0,6.93.07,8.48.6,1.79.61,4.54,3.32,5.77,3.32h.35c.8,0,1.78-.34,1.78-1.07a.68.68,0,0,0-.71-.71c-.77,0-.62,1-2.32.18a7.13,7.13,0,0,1-1.82-1.21c-.67-.59-3-2-4.05-2H0V15H27.33c.73,0,2.67,1.24,3.21,1.6a4.68,4.68,0,0,1,2-.89h1.78a8.54,8.54,0,0,1,1.42.71C36,16,37,15,37,14.49s-.36-.76-.36-1.6v-.72c0-.18.85-2.16.89-2.67-1.65-.44-1.24-6-1.24-8.38,0-.27,0-.65,0-1.12H37V1.48a26.1,26.1,0,0,0,.71,7.84l1-.43-.29-.1c0-1.94-.06-5.25-.09-8.79h3.07c-.05,2.57-.13,4.84-.27,6.1C40.68,9.32,40,8.59,38.59,9.89c-1.81,1.72-1.3,1.95-1.11,4.24l1.31-.38c-.32-.54-.59-.74-.59-1.4,0-1.29,3.93-2.79,3.91-5,0-1.61,0-4.35,0-7.36Zm-.18,18.77c0,.58.77,1.07,1.42,1.07h.36c.64,0,.89-.81.89-1.43,0-.46-.12-.18-.18-.89a7.7,7.7,0,0,0-1.24-.18h-.36a1,1,0,0,0-.89.89Zm-1.6-2.85c-.67,0-.34.12-1.07.18.23.86.89.67.89,2,0,.55-.48,1.42-1.07,1.42H38.55c-.4,0-2.68-2.1-3.34-2.53-.92-.6-3.82-1.3-4,.39.76.21.31.36.89.36.34,0,.12-.36.71-.36h.36c2.29,0,2.65,2.25,4.34,3a3.64,3.64,0,0,0,2.74.21,2.58,2.58,0,0,0,1.47-2.11C41.76,17.8,41.33,15.92,40.87,15.92Zm-.18-5.35-.64.61c0,.8.28.58.28,1.35,0,2.69-4.09,2.09-4.09,4.1,0,.32.65.58.89.71,1.08-2,2.15-1.32,3.52-2.53C41.63,14,41.86,11.43,40.69,10.57Z"/></g></g></svg>