<svg xmlns="http://www.w3.org/2000/svg" viewBox="0 0 38 12.67"><defs><style>.cls-1{fill:#623c25;}</style></defs><title>17_u_c</title><g id="Layer_2" data-name="Layer 2"><g id="Layer_1-2" data-name="Layer 1"><path class="cls-1" d="M7.55,7.23a8.36,8.36,0,0,0-1,3.14c-.32,1.91-.46,1.32-2.78,1.31-1.29,0-2.56,0-3.82,0v.85c2.33,0,4.66.08,7,.09l.21-3.74L8,7.72a4.62,4.62,0,0,0,1.68.42h2.13a1.71,1.71,0,0,0,1.07-.35c0-.62-.11-1.07.54-1.07s1.6,3,1.6,4.11v1.78l7.48,0V8.89a4.39,4.39,0,0,1,1.42-2.67,1.8,1.8,0,0,1,.36,1.07v.89L27,8.41l2.5,0V9.8l.17,1.43v1.43H38V11.62l-7.82,0V8.38h.89c1.21,0-.14,1.79,1.07,1.79l5.86,0V7.86l-12.63,0c-.45,0-1.07-1.93-1.07-2,0-.52.94-.71,1.6-.71l.58,1.23L38,6.7V5.8l-6.57-.23C31,4.07,28.81,2.67,27,2.67h-.35c-2.8,0-2,.22-4.48-.53-1.07-.32-3.09-1-3.36-2L18.64,0,17,1.58l.17.16c-.55.05-2.91,1.23-3.84,1.5-.28.07-4.65.26-5.07.26-.94.63-2.2,1.42-2.49,2.66L0,6.12v.72l5.42,0v.53c0,.95-3.11.35-3.56.35H0v2.53l5.24.1c0-3.61,1.9-6.53,5.53-6.52h.89a2.43,2.43,0,0,1,.89.18c-1.16,1-.81,1.07-2.64,1.45A4.49,4.49,0,0,0,7.55,7.23Zm23.7-1.16H29.82c-.47,0-1.13-1.61-3.2-1.61h-.89C24.14,4.44,22,7.56,22,9.24c-.07,2.19.73,2.89-1.42,2.86-1.33,0-2.89,0-3.74,0-.05,0-.32.12-.53.18-1.29-1.13-.38-1.58-1-3.31-.7-2-.64-1.26-1.53-2.58l1-1a5.61,5.61,0,0,1,1.61,2.24c.3.86.24,2.82.93,2.82h.89V7.63c0-.41-.13-.54-.54-.54h-.89L16.6,5.67h1.47V4.06c0-.41.12-.53.53-.53h.71v.89a10.72,10.72,0,0,0,.18,1.25H20a2.43,2.43,0,0,1,.89.18v.71c0,.41-.13.53-.54.53h-.89v3c0,.41.13.53.54.54.9,0,.35-1.26.7-2.15.26-.66.49-1.22.78-1.9A6.35,6.35,0,0,1,24.09,3.7C26.62,2.6,30.58,3.57,31.25,6.07ZM14.47,3.31c.7-.34,1.35-.69,2.12-1.09S18,.86,18.42.86h.18c.13,0,1.72,1,2.34,1.23.85.28,1.82.73,2.65.92-.12.45-.35.89-.89.89h-.54A12.55,12.55,0,0,1,18.6,2.46c-1.74.92-6.05,2.71-6.05,5-.32.22-.32.36-.72.36h-2c-.54,0-1.06-.17-1.06-.71V6.53l2.31-.17A8.52,8.52,0,0,1,14.47,3.31Z"/></g></g></svg>