<?xml version="1.0" encoding="utf-8"?>
<!-- Generator: Adobe Illustrator 22.1.0, SVG Export Plug-In . SVG Version: 6.00 Build 0)  -->
<svg version="1.1" id="Layer_1" xmlns="http://www.w3.org/2000/svg" xmlns:xlink="http://www.w3.org/1999/xlink" x="0px" y="0px"
	 viewBox="0 0 128.9 95.6" style="enable-background:new 0 0 128.9 95.6;" xml:space="preserve">
<style type="text/css">
	.st0{fill:#623C25;}
</style>
<path class="st0" d="M61.7,1.3c0-0.5,0.9-0.7,1.4-0.7h1.3c0.6,0.1,1.2,0.3,1.7,0.6c0,1.9-0.6,9.1-2,9.1c-0.7,0-1.7-4.8-1.7-5.8
	c-0.4-0.9-0.7-1.9-0.7-2.8V1.3z M74.7,3.7h-0.6c-0.6,0-1-0.6-2-0.7c-0.2,0-2,0-2.4,0l-0.3-0.6C70.4,2,74.4,2.8,74.7,3.7 M72.1,3.5
	C73,4,74.4,4.7,74.6,5.9h-1.9c-0.6,0-0.4-0.2-1.1-0.3l-1.3-1.9L72.1,3.5z M72.3,3.8L72.3,3.8 M86.4,11.3c0-1.8-3.5-3.4-5.6-3.4
	c-0.6-0.4-0.3-0.5-1.1-0.7c-0.5-0.1-0.9-0.3-1.3-0.5c-1-0.4-2-0.7-3-0.7l-1.1-1.6l0.2-0.1h0.7c0.6,0,0.5-0.3,1.1-0.3h0.4
	c1.8,0.4,3.5,1.2,4.8,2.4c-1.5-0.4-2.1-1.4-4.4-1.4V5c2.7,0,4.7,2.7,4.8,2.7s0.3-0.3,0.4-0.4l-0.5-0.7l1-0.1c1,0.4,2,0.8,3,1.4
	c0.9,0.4,2.1,1,2.1,2.2c-0.9-0.2-3.2-2.9-4.6-3c0.2,0.3,1.9,1.3,2.6,2c0.5,0.5,1.8,2,2.5,2v0.7h-0.6C87.6,11.8,87,11.3,86.4,11.3
	 M50.2,5c0-0.3,0.7-0.7,1.1-0.7h0.4v0.6c-0.4,0-0.6,0-0.6,0.4c0,0.1,0.2,0.3,0.3,0.4C51,6.1,51,6.5,50.3,6.8
	c-0.3,0.1-1.6,0.1-1.6-0.5c0.3-0.4,0.6-0.8,1-1.1l-0.1,0.1l0.7,0.6C50.3,5.4,50.2,5.4,50.2,5 M43.8,6.8c2-1.4,1.7-0.1,2.8-0.8
	c0.6-0.4,1.7-1.7,2.2-1.7c0.1,0,0.3,0.1,0.3,0.3c-0.8,1.4-1.8,2.7-2.8,3.8c-0.3,0-0.1-0.3-0.6-0.3h-0.7l-0.1-0.1L46.6,7l-0.1-0.2
	l-2.3,1c0,0.6,0,2.1-0.7,2.1l-1.7-0.1c-0.3,0.1-0.6-0.1-0.7-0.4c0,0,0-0.1,0-0.1C41.1,7.9,43.8,9,43.8,6.8 M55.8,5.7
	c0-0.5-0.2-0.5-0.3-1c0.5,0,0.9,0.5,0.9,1c0,0.1,0,0.1,0,0.2l-0.2,1.4c-0.9-0.1-0.4-0.3-0.4-1.1V5.7z M70.3,5.4c0.5,0.5-0.6,1,1,1
	l0.4,0.7l-1.3,0.2c-0.8,0.1-2.5-1.5-1.9-2C69.1,5.2,69.7,5.2,70.3,5.4 M56.9,5.6c0-0.3,0.1-0.4,0.4-0.4h0.4c0.4,0,0.7,0.3,0.7,0.7
	c0,0.4-0.9,1-1.3,1s-0.3-0.2-0.3-0.4L56.9,5.6z M50.1,7.4c0.8,0,2.1-1.8,2.6-1.8c0.2,0,0.5,0.6,0.6,0.7C52,8.1,51.5,7.1,50.1,8
	C49,8,48,9.1,47.2,9.6c-0.2-0.4-0.1,0.1-0.1-0.4V8.9c0-0.7,0.8-1.7,1.4-1.7h0.6C49.7,7.1,49.6,7.4,50.1,7.4 M72.6,6.6
	c1.3-0.4,2.7-0.5,4-0.2c1.1,0.3,2.2,0.7,3.2,1.3l-1.8-0.2h-1.6c-0.6-0.4-1.2-0.7-1.8-1c-0.1,0-0.2,0.1-0.3,0.2
	c0.5,0.8,2.7,1.3,3.8,1.6c-0.2,0.2-0.6,0.6-0.8,0.6h-0.4C76,8.6,75.1,8.4,74.4,8C73.4,7.7,72.6,7.8,72.6,6.6 M54,6.3
	c0.5,0,0.3-0.4,1-0.6v1.4c0,0.5,0.4,0.3,0.4,0.9c0,0.2-0.2,0.3-0.4,0.3c-0.6,0-0.4-0.7-1.1-1.1L53,7.2h-0.2l0.7-0.8L54,6.3z
	 M47.4,10.4c0-1.7,3.7-2,5-2.7l-0.1,1.1c-0.7,0.1-0.5,0.3-1.2,0.3s-0.2-0.3-0.7-0.3C49.2,8.9,48.4,9.9,47.4,10.4 M84.1,11.4
	c-1.3,0-4.1-2.3-4.3-3h2c0.8,0.3,1.7,0.6,2.5,0.9c0.8,0.3,1.4,1,1.7,1.8C84.4,11,83.3,9.1,82.3,9c0.1,1.1,1.8,1.2,2.1,2.3
	C84.1,11.5,84.6,11.4,84.1,11.4 M60.9,10.6c0-0.8,0.9-2.2,1.7-2.3c0,1.1-0.6,0.6-0.6,1.6V10c0,1.2,0.5,2.3,1.7,2.3h1.1
	c1.2,0,1.3-1.7,1.3-2.7c0-0.3,0.3-0.4,0.6-0.4c0,3.8-0.8,2.2-2.1,4.1L64.4,16L64,16.1c-1.2-0.7-0.5-2.1-1.2-3c-0.4-0.5-2-1-2-2.2
	L60.9,10.6z M53.3,9.1c-0.8,0-0.3-1.3,0.3-1.3c0.3,0,1,0.9,1.1,1.3H53.3z M46.7,9.6v1c-0.5-0.3-0.8-0.8-0.8-1.4L46.7,9.6z
	 M77.2,10.3c-0.3,0-0.3,0.4-0.3,0.7h-0.6l-2.3-0.4c-0.3-0.1-1.4-0.9-1.4-1.3s0.8-0.6,1.3-0.6h0.3c1,0,2.3,1.5,2.6,1.6V9.4
	c1.4-0.3,1.1-1,2.7-0.2c0.6,0.3,1.8,1.1,1.8,1.9c-0.8-0.4-1.6-0.6-2.4-0.9h-0.3c-0.5,0-0.3,0.3-0.6,0.3S77.6,10.3,77.2,10.3
	 M46.4,12.3c0.1-0.8,1-1.2,1.6-1.5s0.6-0.1,1.1-0.5c0.3-0.3,0.5-0.5,0.8-0.7l1.4,0.2c-1,1.5-1.6,1.3-3,2.2h-0.6
	c-0.3,0.2-0.2,0.3-0.6,0.3L46.4,12.3z M55.1,10c-0.7,0.2-1.5,0.4-2.2,0.5c-0.5-0.2-1-0.5-1.4-0.9c0.5-0.2,0.3-0.3,0.7-0.3
	c0.3,0,0.1,0.3,0.6,0.3h0.8c0.3,0,0.6,0,0.8-0.1L55.1,10z M38.7,10.4c0.1-0.4,0.8-0.8,1.1-0.9v0.6c-0.6,0.2-0.2,0.3-0.7,0.3H38.7z
	 M40.4,9.7l0.2,0.1l0.7,0.5l-0.3,1.5l-0.2,0.3l-1.5,0.1L40.4,9.7z M64.6,10.8c0.5,0,0.7-0.4,0.7-0.9h0.4v0.4c0,0.4-0.7,1.4-1.1,1.4
	h-0.1c-0.8,0-1.3-0.2-1.3-1c0-0.1,0.1-0.3,0.3-0.3c0.4,0,0.4,0.3,1,0.3H64.6z M82.6,13.6c-0.8,0-3.6-2-3.8-2.9h0.7
	c0.8,0,1,0.6,2.7,0.6c0.6,0,0.7,0.6,1.4,0.6l1.7-0.2l1.2,2.2h-1.2c-0.6-0.2-1.2-0.3-1.7-0.6c-0.3,0.2-0.2,0.3-0.6,0.3L82.6,13.6z
	 M96.9,18.8c-1-0.5-0.7-0.6-1-1.9l-0.6,0.9c-1.7-0.4-1.2-0.6-1.8-1.6c-0.2-0.3-1.2-1.2-1.6-1.7c-0.4-0.6-1-1.2-1.6-1.7
	c-0.8-0.6-1.3-0.6-1.3-1.9c0.8,0,2,1.3,2.7,1.8c0.3,0.2,2.6,1.8,2.7,1.9l-0.2,0.1l1,1.9c1.6,0,1.7,0.9,2.2,1.8l0.4-0.3
	c1.2,1.1,1.9,2.6,2.1,4.2v0.3l-0.2,1.6c-1.2-0.3-2.3-3.4-3-4.4L96.9,18.8z M56,2.5l-0.3,0.2l1.6-0.1h0.3c0.3,0,0.6,0.2,0.6,0.5
	c0,0,0,0,0,0c0,0.7-0.7,0.8-1.1,1l0.3,0.6l-0.7,0.1c-0.3-0.4-0.8-0.7-1.3-0.7c-0.3,0-1.1,1.3-1.1,1.6h-0.4c-0.3,0-1.1-0.7-1.1-1V4.3
	c0-0.5,0.9-1,1.4-1h1.1c0.3,0,0.7,0.6,1.7,0.7c0.2-0.6,0.4-0.1,0.4-0.7V2.9l-0.6,0.3h-0.9l-0.3-0.5h-2.3l-1.1,0.9l-1.5,0.2l-0.7,1
	h-0.3c0-0.5-0.1-0.8-0.6-0.8h-0.1c-0.8,0-2,1.4-2.7,1.9l-1.4-0.2c-0.3,0-1.7,1-1.7,1.4v0.7h-0.9c-0.8,0.4-1.5,0.9-2.2,1.4
	c-0.5,0.3-1,0.2-1.4,0.5c-0.3,0.4-0.5,0.7-0.7,1.1c0,0.3,0.1,0.4,0.4,0.4h0.4c-0.2,0.7-0.5,1.4-0.9,2c0,0.5,0.3,0.4,0.7,0.4v0.7
	c-0.8-0.1-0.3-0.3-0.8-0.3h-1c0.2-0.8,1-0.7,1-2.1v-0.2c0-0.5-0.2-1-0.7-1H37c-0.8,0-0.3,1.1-1.7,1.4s-1.2,0.5-1.3,2l-0.4,0.3
	c-0.3-0.1-0.6-0.1-0.9-0.1c-0.7,0-1,1.4-1.1,2c-1.1,0-2,0.9-2,2c0,0.2,0,0.3,0,0.5c-1,0.5-0.9,0-1.6,1.1c-0.4,0.6-0.6,1.4-0.5,2.2
	h-0.7c-0.9,0-1.5,1.6-1.9,2.1c0.1,0.3,0.1,0.7,0.1,1c0,0.5-1.1,1.1-1.9,1.1c-0.5,0.9-0.9,1.8-1,2.9v0.7c1.2-0.1,0-1.5,1.1-2.8
	c0.8-0.9,1.3-0.5,2.3-1.7c-0.3-0.7-0.2-1.9,0.5-2.1l0.9,1.2c-0.1,0.2-0.1,0.5-0.1,0.7c0,1.7,0.6,1.1-0.9,1.8
	c-0.6,0.3-1.4,0.8-1.4,1.7c0,0.5,1.6,1.3,0.4,1.3h-1.2l0.5-1.1l-0.1,0l-0.3,0.1v-0.6c0-0.5,0.3-0.2,0.4-0.9h0.6v-0.3
	c-1.6,0.1-1.2,3-2.1,3H19c-0.6,0-1.6-0.7-2.3-0.7h-0.1c-0.4,0-1.1,0.6-1.5,0.8c-0.8,0.2-1.4-0.1-2.2-0.1c-1.4,0-2.8-0.2-4.2-0.5
	c-1.3-0.2-2.5-0.5-3.8-0.9c-0.6-0.2-1.1-0.5-1.7-0.8c-0.3-0.2-1-1-1.4-1H1.6C0.8,27,0.1,27.6,0,28.4c0,0.1,0,0.2,0,0.3v0.4
	c0,0.5,1.2,1.7,1.9,1.9v0.4c0,2.1,2.9,3.3,4.7,3.7v0.7c0,1.4,3.4,1.8,4.7,2.1c0.1,1.2,3.1,2.1,4.3,2.1h3v0.6c0,0.3,0.2,0.4,0.4,0.7
	c-0.1,0.3-0.1,0.7-0.1,1c0,0.5,0.3,0.7,0.3,0.9c0,0.5-0.4,0.5-0.4,1s0.7,3.1,0.7,3.1c0,0.6-1,0.4-1,1.6v0.7c0,1.2,1.3,1.2,1.6,2.1
	c-0.4,0.2-1.1,0.4-1.1,1V53c0,0.8,0.6,1,1,1.6c-0.3,0.5-0.7,0.6-0.7,1.3s1.6,0.7,1.6,2c0,0.4-0.3,0.4-0.3,1V59c0,0.8,0.5,1,1,1.3
	c-0.1,0.6-0.4,0.7-0.4,1.3v0.6c-0.1,0.5,0.2,0.9,0.7,1c0,0,0,0,0,0c1.1,0.3,0.5,0,0.5,0.9v1c0,0.3,0.2,0.4,0.4,0.7
	c0,1.2,0.9,2.6,1.6,2.5h1c-0.1,0.5-0.7,0.9-0.7,1.3v0.3c0.1,0.6,0.3,1.1,0.7,1.6h0.7c0.4,0.6,0.6,0.4,1,0.9s0.3,0.8,0.6,1.2
	s0.6,0.5,1.2,0.6c1,0.3,0,0.6,0,1c0,2.2,2.8,1.4,2.8,3.8c0.9,0.6,1.1,1.4,2.7,1.4c0.5,0.8,0.6,1.6,1.6,2.1c0.5,0.2,0.9,0.3,1.4,0.4
	c0.8,0.2,0.5,0.5,0.9,1.1c0.7,0.9,1.7,0.5,2.3,1.5s1.1,1.1,2.7,1.1c0.4,0.2,1.3,1.3,1.7,1.3s0.4-0.1,0.7-0.1l1.5,0.8l0.1-0.2
	c0.2,0.2,1.1,0.6,1.1,0.7c0,0.4-0.3,0.6-0.6,0.7l-3.4,0.1H44c0.1,1.6,3.4,1.5,3.4,2.4c0,0.1-0.8,2.4-0.8,2.4v0.5l0.7,0.4l1.7-0.8
	c0.2,0.1,0.5,0.1,0.7,0.1c1.1-0.6,2.2-1.1,3.4-1.3c0.9-0.1,1.4,0,2.3-0.1c1.1-0.2,0.7-0.6,1.6-0.8c0.6,0,1.3-0.2,1.9-0.4
	c0.6-0.3,1.2-0.5,1.9-0.5c1.8-0.1,2.9-0.1,4.4-0.1h0.6c0.6,0,0.5-0.2,1-0.3s0.6,0.1,1,0.1s0.3-0.1,0.8-0.1l0.5,0.5
	c0.6,0,0.4-0.2,0.8,0l3.8,0.3v0.3c-0.4,0-0.7,0-0.7,0.4V93c0,0.3,0.1,0.3,0.3,0.6c1.6,0,2.3,0.3,3.4,0.4s1.9,0.8,3.2,0.8h0.4
	c0.3,0,0.3-0.1,0.6-0.3l2.6-0.1c0.2-0.3,0.3-0.2,0.3-0.6c0-0.7-1.2-0.5-1.7-1.3c0.4-0.5,3.6-1.6,3.6-2.3c0-0.3-0.2-0.6-0.5-0.6
	c0,0,0,0,0,0h-0.7c-0.6,0-0.7,0.3-1.3,0.5c-0.8,0.3-0.7,0-1.6,0l-2-1.1c0.3-1.2,1-0.9,2-1.6c0.6-0.7,1.4-1.2,2.2-1.4
	c2.2-0.6,3.7-0.6,5.2-2.1c0.9-0.8,0.5-1.1,1.7-1.9c0.9-0.6,1.6-0.8,2.4-1.3c1.4-1,2.7-2.2,3.8-3.4c0.5-0.7,1-1.4,1.6-2
	c0.7-0.6,1.3-1.1,1.9-1.8c0-0.1,1.5-1.8,1.6-1.9c0.7-0.5,1.3-1.3,1.6-2.1c1.3-2.6,4.5-6.6,4.5-10c1.1-1.6,0.7-2.4,1-4.6
	c0.1-0.8,0.2-1.6,0.5-2.4c0.6-1.5,0.3-0.6,0.5-2.4c0.1-1.8,0.1-3.6,0-5.4c0.1-0.9,0-1.9-0.1-2.8c-0.2-1-0.6-1.8-0.7-2.3
	c2.1-0.5,1.2-1.4,5-1.4c0.6-0.4,1.8-0.6,2.6-1.1c0.4-0.2,0.9-0.4,1.2-0.6c0.6-0.4,0.3-0.7,0.9-1.1c1.4-1,4.2-0.5,4.2-3.3
	c1.7-0.4,3.8-1.2,3.8-3.3c1.1-0.7,2-1.1,2-3c-0.1-0.9-0.9-1.6-1.8-1.5h-0.4c-1.2,0-1.3,1.2-2,1.8s-2.2,0.7-3,1c-2.2,0.6-4.5,1-6.8,1
	h-1.4c-1.3,0-1.5-1-2.1-1h-0.8c-0.5,0-0.9,0.1-1.3,0.4l-3.7,0.8c-0.6-1.2-1-2.7-1.7-3.8c-1-1.6-1.4-1.2-2.4-3.2
	c-0.8-1.6-3.4-5.5-5.4-5.7c-0.2-1-5.9-6-6.5-6c-0.3,0-0.3,0.1-0.6,0.3c-0.4-0.6-0.3,0-0.7-0.5c-0.2-0.2-0.1-0.4-0.4-0.8
	c-0.4-0.4-1-0.8-1.6-1c-1.2-0.6-2.4-1-3.6-1.5C82,5.8,82,5.5,81,5.1c-0.6-0.2-1.1-0.6-1.7-0.8c-1.2-0.7-2.6-1-3.9-0.9
	c-1.9-1.3-3.5-1.4-6.3-1.4L68.3,2l0.8,0.8l-0.6,0.5l0.3,0.4h0.8l0.8,1l-0.1,0.1l-3-0.2l0.8,1.9l-0.1,0.1c0.9,0.6,2.2,1.3,3.5,0.7
	L73,8.4l-0.5,0.5c-0.8,0-0.7-0.3-1.1-0.3S71,8.8,70.9,9.1L69.8,9l-0.2-0.4L70,8c-0.6,0-1.4,0.5-1.4,1.1S70,10,70.7,10
	c0.8,0,1.6,0.3,2.2,0.8c1,0.7,3.5,0.9,5.2,0.9c1.1,0.7,1.2,1.3,2.7,2c1.2,0.5,1.7,1.3,3.5,1.3c0.8,1.2,2.8,3.7,4.7,3.7
	c0.5,0.7,1.2,1.1,1.7,1.9c0.4,0.8,0.9,1.6,1.5,2.2c0.7,0.7,1.3,0.7,1.8,1.7c0.4,0.8,0.7,1.8,1.5,2.3l-1.1-2.6l0.1,0
	c2.6,0.1,2.2,1.3,3.1,2.7c-1,0.6-4.7,1-6.4,1c-0.8,0-1.6-0.1-2.4-0.1c-1.1-0.1-0.4-0.9-1.4-1.1l-0.2,0.7c-0.3-0.1-0.6-0.1-0.6-0.6
	V26c0-0.8,0.4-1.2,0.4-1.6s-0.4-1.1-0.7-1.1c-0.8,0.1-1.6,0.4-2.3,0.9c-0.6,0-0.5-0.9-1-0.9c-2.1,0-2.2,0.8-3.4,1.6
	c-0.2-0.5-1.6-0.7-2-0.6c-0.3,0.1-0.7,0.2-1,0.4c-0.3,0.1-0.6,0.6-0.8,0.6c-0.5,0-0.2-0.3-0.7-0.3h-0.6c-0.6,0-0.4,0.2-1.1,0.3
	c0-2.3-0.8-1.5-1.7-2c-0.3-0.2,0-2.6-1-2.6c-0.5,0-0.3,0.1-0.8,0.1c-0.1-1.3-0.2-3.4-1.3-3.8c-1.3-0.5-0.5-2.8-2.3-3l0.4,0.4
	l-0.4,0.2c0.7,0.1,0.6,0.5,0.8,1l0.2-0.4l0.2,0.7h-0.3l0.8,2.2l-0.8,0.6l-0.1-0.1c0.3-0.6,0.5-2-0.5-1.7l-0.9-1h-0.3V16L65,15.9
	l0-0.5h-0.4v-0.3l0.5,0.2l-0.2-1.9c0.9-1.4,2.4-0.3,2.4-4.1h0.2c0,3.6-0.8,2.5-2,4.3l0.1,2l0.2-0.7l0.7-0.8L66,13.8
	c0.2-0.7,1.8-1.4,1.8-2.7v-0.9c0-2.2-1.6-2.3-1.6-3.4V6.6l0.4-5c0.2-2-5.7-2-5.7-0.4v0.6c0.3,1.6,0.8,3.2,1.3,4.8c-0.5,2-2,2-2,4.3
	c0,1.8,1.8,2.1,2,3h-0.4c-0.6,0-1.4,1.7-1.4,2.4v0.9c-0.5-0.1-0.5-0.4-0.7-0.4c-1.1,0-1.6,1.8-1.6,3v0.4C57.8,20,57.9,20,57.6,20
	c-1.1,0-1.1,2.1-1,3c-0.6,0-0.3-0.1-0.9-0.1c-0.7,0-1.6,2.1-1.6,3L53,25.6l-0.7,0.6c-0.5-0.4-1.2-1.3-2-1.3h-0.8
	c-0.4,0-0.6,0.4-0.7,0.8L48,25.3l0.3-0.4c-0.8-0.4-1.7-0.6-2.6-0.9c-0.8,0-0.8,0.5-1.1,1c-0.6-0.4-1.2-1.1-1.9-1.2s-2,0-2,0.8v0.1
	c0,0.7,0.3,0.6,0.4,1.1l-0.2-0.1l-1.4,2.3l0.2,0.1l-5.7,0.7l-0.3,0.3v-0.3h-1.2c0.1-0.7,0.5-1.3,0.9-1.8c0.8-0.9,0.5-0.8,1.1-1.7
	c0.7-1.1,1.8-2,2.4-3.3c0.3-0.6,0.9-0.8,1.4-1.3s0.7-1.1,1.2-1.6c0.3-0.4,1-0.6,1.6-1.2c0.4-0.6,1.1-1,1.9-1
	c0.3-0.4,0.7-0.8,1.1-1.2c0.7-0.7,1-0.5,1.4-0.9c0.9-0.7-0.3-0.4,1.4-0.9c0.5-0.2,0.9-0.6,1.2-1.1c1.4,0,3.6-1.6,3.7-1.6h0.6
	c1,0,0.3,0.5,1.7,0.1c0.6-0.1,1.2-0.3,1.8-0.5c1-0.4,1.9-0.9,2.8-1.6c-0.1-0.4-0.1-0.9-0.6-0.9h-0.6c-0.5,0-0.3,0.3-0.6,0.3
	c-0.5,0-0.1-0.3-1.1-0.3C56.5,7.7,59,6.8,59,6c0-0.7-0.5-1.2-1.1-1.4c0.2-0.7,0.7-0.6,0.7-1.1V2.7c0-0.3-1-0.9-1.1-0.9
	C57,1.9,57,2.4,56,2.5 M91,16.1c-0.8,0.1-0.3,0.3-0.9,0.3c-1.2,0-5-4.7-3.7-4.7c0,0,1.8,0.7,2.2,0.8c1.3,0.5,0.9,0.3,1.8,1.1
	c1,1,1.9,2.2,2.7,3.3l-1-0.1c0-1.1-2.5-3-3.7-3.3C88.6,14.3,90.6,14.5,91,16.1 M44.4,11.7h0.8V12l0.2-0.1c-0.1,0.3-0.2,0.5-0.5,0.5
	h-0.3c-0.5,0-0.5,0.4-0.6-0.4h0.3V11.7z M36.6,12.3c0-0.4,0.1-0.9,0.6-0.9c0.2,0,0.3,0.2,0.3,0.4V12c0,0.6-0.2,0.4-0.3,1.1
	c-0.3-0.1-0.6-0.1-0.6-0.6V12.3z M39.1,13.8c0-0.6,0.3-1.3,0.9-1.3h0.3c0.2,0,0.4,0.1,0.4,0.3c-0.4,0.5-0.8,1-1.3,1.4
	C39.2,14.3,39.1,14.1,39.1,13.8 M45.2,12.8c0.3,0,0.6,0,0.8-0.1l0.8,0.4c-0.2,0.2-0.4,0.2-0.7,0.2h-0.6c-0.6,0-0.4,0.2-1.1,0.3
	l-0.1-0.4C44.6,12.9,44.9,12.8,45.2,12.8 M34.4,13.3c0.3-0.5,0.9-0.9,1.6-0.8c0.3,0,0.5,0.8,0.6,1.1c-0.7,0.3-1.2,1-1.8,1h-0.4
	L34.4,13.3z M34.1,14.5c-0.3,1.2-0.2,1.5-0.9,2.3c-0.6,0.6-1,1.2-1.3,2l0.1,0.1l1.3-1l0,1.2c0,0.3-0.1,0.3-0.3,0.6
	c-0.9-0.2-1.8,0.5-2,1.4c0,0.1,0,0.3,0,0.4c-0.4,0-0.6,0-0.6-0.4v-0.4c0-0.1,0.6-1.6,0.7-1.8c0.5-1-0.2-1.6,1-1.6l-0.3-0.6l0.8-1.9
	h1L34.1,14.5z M91.1,17.1l1,1.8c-2.2-0.5-6.8-2.4-7-4.6l0.6,0.4c0.1-0.3,0-0.4,0.4-0.4c0,0,3.2,2.3,3.6,2.6L91.1,17.1z M37.5,14.5
	c0.3,0,0.6,0.1,0.8,0.3v0.6l0.3,0.5c-1.1,0-0.4-0.7-1.9-0.7C36.9,14.9,37.1,14.5,37.5,14.5 M62,14.5l-0.1-0.2l0.8,0.3l0.2,1.5
	L62,16.7L61.7,16l-0.4,0.2l0.6,0.6L61,17.7l0-2.4L62,14.5z M40.7,13.9L40.7,13.9 M41,15c0.9-0.2,0.9-1,1.3-1s0.6,0.4,1,0.4
	c0.3,0,0.5-0.2,0.8-0.3L44,13.4l-0.5,0.3l-1.1-0.2h-0.2C41.3,13.5,41,14.1,41,15 M44.9,9.2c1,0.2,0,1.4,1.6,1.5l-0.8,1
	c-0.3-0.2-0.6-0.4-0.9-0.5h-0.1c-0.5-0.1-0.9,0.3-1,0.8c0,0.1,0,0.2,0,0.2c0,1.1,0.9,1.2,0.9,1.7v0.1c-0.4,0.5-0.9,1-1.4,1.5
	c-0.6,0.5-1.4,0.8-2.2,0.7h-0.4l1.1-1.2l-0.1-0.1l-2.6,1.8l-0.1-0.1l1.5-1.2l-0.9,0.1c0.1-1.7,3.7-3.2,3.8-4.5l-0.1-0.1l-1.7,1.6
	l-0.1-0.1l0.2-1.1l0.5-0.6l1.7,0.1L44.9,9.2z M36.4,16h0.9c0.5,0,0.3,0.4,1,0.6l-1.5,0.9l0.1,0.1v1.3l-0.3,0.3h-1.4H35l-0.4,2l0.1,0
	L34,21.9c-0.3-0.1-0.7-0.1-1-0.2c-0.4,0-0.7,1.2-1,0.1c0.7-0.2,1.6-1.8,2.2-2.4c0.3-0.3,2.2-1.9,2.2-2.2L36.4,16z M33.7,17
	c1-1.1,0.4-2.4,2.6-2.6l-0.6,2.4h-1.5l-0.3,0.3L33.7,17z M68.8,23.3L68.8,23.3 M69,17.1l-0.1,0.5l0.6,0.7l-0.2,5.4h-0.7l0.3-0.2
	c-1.6-0.1-1.3-1-1.1-2.2c0.2-1.1,0.4-2.2,0.3-3.2L69,17.1z M33.9,18.4c0.1-0.4,0.3-0.8,0.7-1h1.1L34,18.8
	C33.8,18.4,33.8,18.9,33.9,18.4 M39,17.4c0.5,0,0.4-0.4,1.1-0.4c0,1.2-0.9,0.9-1.5,1.3c-0.4,0.3-0.1,0.6-0.3,1.1
	c-0.1,0.3-0.4,0.5-0.6,0.8c-0.7,0-2,0.4-2,1c0,0.2,0.1,0.5,0.1,0.7L34.9,23c-0.3,0-0.2-0.1-0.5-0.1c-0.1,0-0.9,1-2,1.1
	c0.3-1.2-0.1-1.1,0.8-1.7c0.8,0.1,1.6-0.4,2-1.1c0.6-1.4-0.8-1.5,1.6-1.5l0.6-0.9v-1.1l0.7-0.5C38.4,17.3,38.7,17.4,39,17.4
	 M96.6,22.3c-1.6,0-4.2-3.5-4.2-4.6c0-0.5,1.6,0,2.1,0.2c1,0.4,0.9,0.5,1.5,1.2c0.8,1.1,1.4,2.3,1.9,3.5L96.6,22.3z M31,18h-0.9
	c-0.1,0-0.2,0.1-0.2,0.1s0,0.1-0.1,0.1L29.8,18l0.5-0.7h0.2H31V18z M62.6,16.9c1,0,0.8-0.3,1.4-0.3h1.1c1.2,0,1.7,1.3,1.7,2.6
	c-0.1,0.6-0.4,1.1-0.8,1.4c0.2-0.6,0.4-0.8,0.4-1.6v-0.3c0-0.4-0.2-0.4-0.6-0.4C66,18.5,66,18.7,66,19c0,1.4-1.2,1.6-1.8,2.6
	l0.2,1.4h-1v-0.7c0-2.1-1.6-1.2-1.6-3.1v-0.7C61.8,17.8,62.3,17.3,62.6,16.9 M96.8,24.1c-1.3-0.3-3-0.7-3.9-1.5
	c-0.5-0.5-2.1-2.3-2.1-3.2c0-0.2,0.3-0.3,0.4-0.4c2.2,1.2,1.5,1.5,2.9,2.5c0.7,0.6,0.5,0.8,1.6,1.1C96.3,22.9,96.7,23.2,96.8,24.1
	 M28.2,21.1c-0.1-1.3,1.1-1.8,2.1-2c-0.1,1.4-0.7,2.8-1.6,3.8c0,0.2,0.1,0.5,0.1,0.7l-0.5,0.5L28.2,21.1z M58.8,19.5
	c0-0.6,0.3-2.1,0.8-2.1c0.3,0,0.6,0.1,0.9,0.3c0,1.7,0.3,3.4,1,5c-0.3,0.4-0.7,0.6-1.1,0.7C59.7,23.4,58.8,20.4,58.8,19.5
	 M58.2,21.7c0-0.2,0-0.5-0.3-0.5s-0.2,0-0.6,0.2L58.2,21.7z M57,22.1c0-0.7,0.5-1.8,0.9-1.9l-0.2,0.4l0.7,0.3l0.9,2.6h-0.1l-1.3,0.3
	c-0.5-0.4-0.8-0.9-0.9-1.5V22.1z M31.8,21.1c0-0.6,0.3-0.8,1-0.9C32.8,20.7,32.3,21.1,31.8,21.1 M62.7,21.6l-0.2,1.1l-0.7,0.1
	l-0.5-2.3C61.8,21,62.3,21.3,62.7,21.6 M66.8,20.7c1,0,0.3,1.4,0.3,2.5L66.4,23l0.6-1.8l-0.5-0.3c0.4,0.2,0.5,0.5,0.8,0.1L66.8,20.7
	z M70,23.6c-0.8,0-0.2-1.9-0.2-2.7h0.7c1.5,0,0.4,2.3,0.3,2.7H70z M31.7,22.6c0,0.2-0.5,0.4-0.7,0.4s-0.5-0.5-0.6-0.9h0.4
	C31.2,22.2,31.7,22.4,31.7,22.6 M27.9,23.2c0,0.2-0.4,0.5-0.6,0.6l-0.6-1.1l0.7-0.1C27.6,22.6,27.9,22.9,27.9,23.2
	C27.9,23.2,27.9,23.2,27.9,23.2 M27.6,25.4c1.1-0.4-0.5-0.1,0.4-0.5c0.4-0.2,0.4,0,0.8-0.3c0.8-0.6,0.5-0.7,0.9-1.5
	c0.8,0.5,0.7,0.9,2,0.6l-1.1,0.7l0.2,1.7l-1.4,0.5l-0.1-0.1l-0.8,1.8l0.2,0.1c-0.2,0.3-1.2,1.6-1.6,1.6h-0.6l0.2-0.6l-0.5,0.6
	l-0.5,0c0.1-0.4,0.1-0.2,0.1-0.6s-0.4-0.2-0.4-0.7c0-1.5,2.3-0.9,2.3-2.4V25.4z M55.5,23.8c0-0.3,0.2-0.6,0.4-0.6s0.3,0.2,0.3,0.4
	s-0.3,0.2-0.3,0.4c0,0.3,0.1,0.5,0.3,0.7h0.6l0.2,1.3c-0.6-0.5-1.1-1.1-1.5-1.9V23.8z M56.6,23.4c0.4,0.3,0.4,0.2,0.4,0.9
	c-0.3,0-0.6,0-0.6-0.3S56.5,23.7,56.6,23.4 M73,25.1c0,0.2,0,0.3-0.1,0.4c-0.2-0.1-1.3-1.9-0.4-1.9h0.2c0.3,0,0.4,0.1,0.4,0.4V25.1z
	 M62.6,25.8c0-0.6,0.7-0.4,1.1-1.3c-0.1-0.2-0.3-0.9,0.1-0.9c0.3,0,0.5,0.1,0.7,0.3c0,0.6-0.2,1.1,0.4,1.1h0.8v1h-0.4
	c-0.5,0-1.1,0.4-1.1,0.9s0.8,1.2,0.8,1.6v0.7c0,0.8-0.3,1-0.3,2.3s0.3,1.7-0.7,1.7c0.4-1.8-0.7-3.3-0.7-4.8v-0.1
	c0-0.5,0.4-0.4,0.4-1.1v-0.3c0-0.4-0.4-0.6-0.8-0.6h-0.4L62.6,25.8z M59.8,23.9c0.9,0,0.9-0.4,1.8-0.4h1.1l0.3,1
	c-1.4-0.6-0.9,0.5-0.9,1.3v1.3l1.1-0.4c0.2,0.4,0.2-0.1,0.2,0.4c0,0.2-0.1,0.4-0.3,0.4h-1.8h-1.1L59.8,23.9z M65.6,26.5
	c0.3,0,0,0.3,0.8,0.3v-2c0-0.3-0.1-0.4-0.4-0.4h-0.1c-0.2,0-0.5,0.1-0.7,0.1l0.2-1h0.5c0.7,0,3.3,0.2,3.3,0.9v2.2
	c0,0.4-0.8,0.7-1,0.7h-1.5c-0.5,0-0.2-0.3-0.7-0.3h-0.8C65.2,26.6,65.1,26.5,65.6,26.5 M79.1,26.5c0.2-0.9,2.6-2.9,3.8-2.9
	c0.3,0,0.4,0.7,0.4,1l-0.6,0.8c0.6,0,1.2-0.7,1.7-1c0.6-0.3,1.2-0.5,1.8-0.7l0.3,0.6c-0.3,0.7-0.1,1-0.8,1.6s-0.4,0.5-1.3,1
	c-0.8-0.4-1.7-0.6-2.6-0.7L79.1,26.5z M100.6,28.2c-0.4,0-0.7-0.2-1-0.4v-1l-1.7-0.5c-0.4-0.8-0.6-1.6-0.6-2.5v-0.4
	c1.4,0.1,3.7,2.9,3.7,4.4C101,28.1,100.9,28.2,100.6,28.2 M31.4,25.2c0-0.3,0.6-0.5,1-0.6c-0.1,0.6-0.4,0.6-0.9,0.9
	C31.4,25.1,31.4,25.5,31.4,25.2 M100.6,22.5c0.6,0,1.7,1.5,2.2,2c1,1,0.8,1.5,0.8,3.3l-1.8-2.8l-0.2,0.1l1.5,3l-0.2,0.1h-0.7
	c-0.5,0-1.8-3-1.7-3.8L100.6,22.5z M57.7,29.9c-1-0.2-2.6-3.8-3.1-4.8c0.9,0,1.6,1,2,1.6c0.5,0.7,0.9,1.5,1.3,2.2l-0.5,0.2
	L57.7,29.9z M43.2,26.3h0.8l-0.3,0.5h0.6l1.3,0.2v0.4l-1.1-0.4l0.1,0.6c-0.7,0-3.1-2.2-3.1-2.7v-0.1c0-0.5,0.8-0.5,1.3-0.6l2.1,1.8
	l-0.1,0.2l-1.5-0.5V26.3z M46.5,27.2c-0.1-0.5-0.4-0.6-0.8-0.9s-0.3-0.6-0.7-1c0.2-0.2,0.3-0.6,0.7-0.6h0.4c1.1,0.5,2,1.3,2.6,2.4
	h-0.6v-0.5l-0.6,0.1l0.4,0.9l-0.1,0l-0.1-0.3L46.5,27.2z M29.3,27.8c0-1.1,0.9-1,1.8-1.3c0.7-0.3,1.4-1,2-1.1L31.8,27l0,1
	c-0.2,0.3-0.7,1-1.1,1c-0.5-0.3-1-0.7-1.4-1.1L29.3,27.8z M73.4,28.8c0.7-0.9,3-4.1,4.3-4.1h0.6c0.5,0,0.9,0.2,1.1,0.6
	c-0.1,0.2-1.5,1.8-1.7,1.9c-1.4,0.9-0.8,0.8-1.8,1.8c-0.6,0.6-1.1,1.2-1.6,1.9c-0.5,0.8-2,1.8-1,0.4c-0.1-0.2-0.2-0.4-0.1-0.6v-0.9
	C73.2,29.2,73.3,29.3,73.4,28.8L73,28.9l-0.2-0.4c-1.3,0.1-0.8,0.6-0.7-0.7l0.6,0.1c0-2.5,2.4-2.6,2.5-2.4
	C75.5,26.3,73.4,27.1,73.4,28.8 M70.3,24.6c0-0.7,0.8-0.3,1.1-0.1l0.2,2c-0.3,0.2-0.3,0.3-0.6,0.3h-0.1c-0.5,0-0.6-0.6-0.6-1.1V24.6
	z M57.5,24.9c0-0.5,0.5-0.5,1-0.6c0,0.9,0.3,0.9,0.3,1.7v0.7c0,0.3-0.2,0.6-0.5,0.6c0,0,0,0,0,0c-0.5,0-0.7-1-0.7-1.6L57.5,24.9z
	 M112.1,28.5h4.6c1.3,0,2.6-0.2,3.8-0.6c1.2-0.3,2.4-0.6,3.6-1c1-0.4,1.9-1,2.7-1.7h0.6c0.4,0,0.6,0.3,0.7,0.6V27l-1.4,1.1
	c-0.7,0-5.6,1.2-6.5,1.5c-2.3,0.5-4.7,0.7-7.1,0.7h-1.3c-0.8,0-1.2-0.1-1.6-0.6L112.1,28.5z M43.3,27.8c-1.1,0-1.8-0.2-2-1.1h0.6
	C42.5,26.7,43.1,27.1,43.3,27.8 M49.5,25.5h0.7c1.3,0,2,2.3,3.1,2.4c-0.2-0.2-0.4-0.5-0.4-0.9c0-0.4,0.1-0.1,0.1-0.7h0.7
	c1.3,0,5.5,8,6.3,9.5c-1.6-0.1-2.9-2.5-3.7-3.7c-0.3-0.5-2.9-4.1-3-4.2L53,28.3l0.5,0.2c0,1,4.3,6.2,4.3,6.7
	c-0.1,0.2-0.2,0.3-0.3,0.4c-0.9-0.1-1.7-0.7-2.1-1.5c-0.7-0.6-1.1-1.5-1.2-2.4l0.9,0.5l0.1-0.5h-0.6c0.4-0.8-0.1-0.3-0.5-0.6
	c-0.3-0.2-0.2-0.6-0.3-1c-0.2-0.6-0.5-1.2-1-1.6c-0.6-0.6-3.2-1.1-3.2-2.2L49.5,25.5z M104,28.8c1.3,0,2.5-0.1,3.8-0.5
	c0.5-0.1,3.1-0.8,3.3-0.8h0.3c0.4,0,0.5,0.2,0.6,0.6l-0.5-0.5c0.1,0.4,0.1,0.3,0.1,0.6s-0.8,0.4-1.2,0.5c-0.3,0.1-0.6,0.3-0.8,0.7
	c-0.4,0.2-0.8,0.4-1.3,0.6c-0.5,0-0.3-0.1-1-0.1v0.4h-0.6c-0.2,0-0.4,0-0.6,0.1l-0.4-0.3c-1.1,0.1-8.1,0.7-8.1-0.5
	c0.4-0.4,0.9-0.7,1.4-1l2.1,0.3L104,28.8z M88.2,28.1c3.8,0,7.5,0.8,10.2-1c0.2,0.1,0.4,0.2,0.4,0.6c0,0.9-2.4,1.7-3.6,1.7
	c-1.6,0.1-3,0.4-4.8,0.4h-2.2c-0.4,0-0.8-0.1-1.1-0.3L88.2,28.1z M76.9,29.5c0-0.8,1-1.7,1.6-2c0.4-0.2,0.8-0.3,1.3-0.2
	c0.5,0,1-0.4,1.2-0.4l6.7,1c-0.5,0.4-0.6,1-1.5,1.2s-2-0.1-2.6,0.2c-0.2-0.1-0.6-0.4-0.8-0.4h-2.7c-0.5,0-0.4,0.3-0.4,0.7l1.3-0.2
	h0.3c0.9,0,4.3,0.1,4.3,0.9c0,1.4-4,0.7-4.8,0.7c0,0-0.3,0.1-0.4,0.1c0.1,0.8,1,0.5,2.1,0.6s1.2,0.5,0.3,1.1c-0.8,0-2-0.2-2,0.6
	c0,0.5,0.7,0,1.4,0l0.1,0.8l-1.1,0.5c0.1,0.8,0.3,0.3,0.3,0.8v0.2c0,1.2-0.7-0.7-0.7,1.3c-0.5,0.6-1.2,1.1-1.8,1.6
	c-0.3,0-0.4-0.2-0.7-0.4c-0.2,0.2-0.2,0.3-0.6,0.3h-0.3c-0.3,0-0.5-0.4-0.8-0.6h-1c-0.6-1.2-1.5-0.3-1.8-1.8c1.8,0,2.1,1.6,4,1.6
	h0.3c2,0,2.1-2.1,1.2-3.6c-0.7-1.2-2.1-2.4-2.1-3.9L76.9,29.5z M0.6,28.4c0.2-0.2,0.3-0.6,0.7-0.6h0.9c0.5,1.7,10.1,3.3,13.1,3.3
	c0.4,0,0.1-0.1,0.7-0.1c0.6,1.1,1.4,1.2,1.6,1.7h-3.1l0.2-0.4l1.1-0.2v-0.4c-1.4,0-2.8-0.1-4.2-0.3c-0.9-0.3-3.3-0.2-4-0.5
	c-1.5-0.6-1.9-0.3-3.3-1.2c-0.4-0.3-2.8-1.8-2.8-0.9v0.3c0,1.3,4.2,2.3,5.8,2.6c1.1,0.2,2.6,0.1,3.8,0.3c1,0.2,3.2-0.2,3.3,0.8
	l-8-0.8c-0.8-0.4-2.1-0.5-3.1-1c-0.8-0.5-1.7-1.1-2.4-1.6L0.6,28.4z M67.6,28.6c0.4-0.5,1.1-0.7,1.7-0.7h0.2c1,0,1.9,0.8,1.9,1.9
	c0,0,0,0.1,0,0.1c0,1.2-1.4,3.2-2.4,3.3c0.3-1.2,1.7-1.1,1.7-3.5c0-0.4-0.3-0.9-0.7-0.9c-0.2,0-0.3,0.2-0.3,0.4
	c0,0.5,0.3,0.2,0.3,0.7v0.1c0,1.9-1.5,1.9-1.6,3h-0.8l-0.6-1C67.2,30.8,67.9,29.8,67.6,28.6 M65.4,30.7c0-0.5,0.2-1.1,0.4-1.6
	c0.6,0.2,0.2,0.3,0.7,0.3h0.6c-0.3,1.2-0.8,1.5-0.8,2.8c0,0.2,0.2,0.1,0.3,0.6c-0.4,0.2,0.1,0.1-0.4,0.1h-0.3
	c-0.3,0-0.4-0.1-0.4-0.4V30.7z M110.7,30.8c2.2,0,5-0.1,7.5-0.1c2.3,0,4.6-1.4,6.7-1.4h0.8c0.3,0,0.4,0.1,0.4,0.4s-1.7,1.1-2,1.6
	c-1.1,0-1.9,0.6-2.9,0.8c-1.1,0.3-2.1,0.4-3.2,0.5c-1.1,0.1-2.2,0.6-3.1,0.6c-1.2,0-2.1,0.1-3.4,0.1h-3.3l-1.6-0.2l0.3-0.7
	C109.3,32.3,110.2,30.8,110.7,30.8 M30.4,29.8c0,0.3-0.2-0.1-0.3,0.7c-0.6-0.2-1-0.4-1-1.1l0.6-0.1C29.7,29.2,30.4,29.6,30.4,29.8
	 M96.3,29.7c-0.4,2.1-5,2.2-7.7,2.2c-1.1-0.1-2.1-0.2-3.1-0.6l0.5-0.6c0-1.4,0.7-0.4,2.3-0.4h2.3l3.7-0.3L96.3,29.7z M18.5,32.5
	c-0.5-0.7-1.3-1.2-2.1-1.1c0-1.8,0-1.5,1-1c0.8,0.3,1.7,0.4,2.6,0.4h0.6c1.8,0.1,3.7-0.1,5.5-0.3c1.8-0.4,3.6-0.2,4.5,0.9
	C28.9,32.2,21.2,32.4,18.5,32.5 M62.7,28.9c0.1,0,0.3,0.2,0.4,0.3c0,1.2,0.6,1.7,0.6,3.1c0,0.2-0.7,0.7-0.9,0.8
	c-0.9-0.2-0.7-0.6-1.1-0.6c-0.3,0-0.2,0.2-0.3,0.4h-0.7c-0.6-0.2-1.1-0.6-1.6-1c-0.4-0.5-0.7-1.1-0.8-1.7v-0.1
	c0-0.9,0.7-1.6,1.6-1.6c0.6,0,1,0.9,1.6,0.9h0.1C62,29.5,62.2,28.9,62.7,28.9 M109.4,30l0.5,0.8c-0.6,0.1-2,1.3-3,0.9l-0.8,0.4v0.3
	l-0.4-0.3v0.1l-1.3-0.1h-0.7l-2.4,0.3l-0.2,0L95.4,32l-0.1-0.2l1.8-1.5L102,31l1-0.1l-0.2,0.6h0.4v0.3h-0.9v0.1
	c1.6,0,5.2-0.3,5.8-1.1l-4.8,1c0.2-0.5,0.1,0,0.1-0.6c0,0-0.1-0.3-0.1-0.2L109.4,30z M32.7,31c0.3,0.1,0-0.2-0.2-0.1
	S32.7,31,32.7,31L32.7,31 M32.1,30.2c-0.4-1,2.1-0.6,3.2-0.8c1.3-0.3,2.6-0.5,3.9-0.5H40c0.9,0,1.7,0.6,2.1,1.4
	c-1.4,0.1-2.8,0.6-4.4,0.7c-0.8,0-4.2,0.2-4.5,0.3v-0.3v0.2l-1.4-0.5v-0.2L32.1,30.2z M17.8,34.2c-0.2-0.3,0-0.3-0.4-0.3H17
	c-3.5,0-9.8,0-12-1.5l-0.4,0.7c0.9,0.6,1.9,1,3,1.1c0.4,0.1,3.4,0.3,3.5,0.3L17.8,34.2z M20.3,34.8l-4,0.4h-3c-4,0-9.1-0.7-10.6-3
	c-0.7-1.1,1.2-0.2,1.8,0c0.9,0.4,1.9,0.6,2.9,0.5c2.3,0,3.8,0.6,6.1,0.6h3.3l2.2-0.3C19.3,34.5,19.7,33.9,20.3,34.8 M30.9,31.6
	c0-0.4,0.2-0.4,0.4-0.6l0.5,0.5h0.9l0.4,0.3l9.3-0.8c0.3,0.3,0.7,0.5,1.1,0.7c-0.5,0.7-4.7,1-5.8,1.1c-1.1,0.1-2.2,0.1-3.3,0
	c-1-0.2-2-0.3-3-0.4l1.4,0.8v0.2c-2.1,0.5-4.2,0.8-6.4,1c-2.2,0.3-5.4-0.6-6.5-0.3l-0.5-0.5l0.3-0.1c-0.1-0.3-0.2-0.6,0.3-0.6h1.4
	c1.6,0,3.2,0,4.7-0.2c1.5-0.3,3.1-0.5,4.7-0.6L30.9,31.6z M71.9,35.2c0.1-1.6,1.1-2.3,2-3.2c0.5-0.5,1.9-2.4,2.4-2.5
	c0.1,0.7,0.2,1.4,0.4,2.1C76.7,32,72.5,35.1,71.9,35.2 M83.4,33.2c0.2-0.4,0.7-1.4,1-1.4c0.3,0.2,0.6,0.3,0.9,0.4
	c0.4,0.1,0.7,0,1.1,0.1c1,0.2,0.8,0.3,1.8,0.2c1.3-0.1,3.2,0,4.6,0c-0.8,0.9-2,1.5-3.2,1.5h-0.6l-5-0.3L83.4,33.2z M44.6,32.4V33
	c0,0.9-9,2.2-10,0.9l0.3-0.5l2,0.1L44.6,32.4z M72.8,35.4c0.3-1,1.3-0.6,2-1.7c0.7-0.6,1.4-1.1,2.2-1.5l0.9,0.8
	c-0.9,1.3-3.2,1.3-3.3,2.5l-0.8-0.2L72.8,35.4z M93.9,32.2c0.5,0.1,2.3,0.5,2.8,0.5c1.1-0.1,2.2,0,3.3,0.1c1.3,0.4,4.5-0.3,6.1-0.3
	l-0.3,0.2h0.2l0.3,0.6l-0.3-0.3l-0.2,0.5c-0.2,0-2.7,0.5-3.1,0.7c-1,0.3-2.1,0.4-3.2,0.2c-1.9-0.1-5.4-0.1-6.8-0.8L93.9,32.2z
	 M102.3,35.3c0-0.4,1.5-0.8,2-0.9c0.7-0.3,1.4-0.6,2.1-0.8c1.5-0.2,4.1,0,5.7,0c1.8,0,3.5-0.1,5.2-0.4c0.8-0.1,1.8-0.1,2.6-0.3
	c0.8-0.3,1.6-0.4,2.4-0.4c0,0.6-1,1.4-1,1.4l-0.2-0.1l0.3-0.3l-0.1-0.1l-0.5,0.5L121,34c-0.9,0.2-1.3,0.8-2.7,0.8
	c-1.2,0.1-2,0.3-3.1,0.4c-2.1,0.3-4.3,0.5-6.4,0.6H106C105.2,35.8,102.3,36,102.3,35.3 M37.3,35.4c0-0.6,1.8-0.5,2.4-0.6
	c0.8-0.1,1.6-0.2,2.5-0.4c0.8-0.2,1.6-0.4,2.3-0.6c1.9-0.4,1-0.1,1,1c-0.4,0.1-1.2,0.5-2,0.7c-0.5,0.2-1.5,0.4-2,0.5
	c-0.9,0.2-4.1,0.6-4.1-0.4L37.3,35.4z M65.8,33.3h1c0.9,0,1.8,0.4,2.4,1l-0.3,0.4L65,34.4l-0.6,0L61,34.9v-0.2
	c0.2-0.6,1.7-1.1,2.3-1.1l0.2,0.1L65.8,33.3z M85.3,35.6c-1,0-2.6-0.3-2.6-1.1V34c0.8,0,4.8,0.6,5.1,1c-0.3,0.3-0.8,0.6-1.3,0.6
	L85.3,35.6z M76,35.5c0.2-0.6,1.7-1.4,2.3-1.6c0.2,0.6,0.3,0.2,0.3,0.7V35c-0.8,0.1-1,0.6-2.3,0.6L76,35.5 M53.8,34.3
	c0-0.3,0.1-0.7,0.4-0.8l1.4,1.9l-1,0.6c-0.3-0.2-0.9-0.6-0.9-1L53.8,34.3z M88.8,35.2c0.1-0.8,1.8-0.9,2.6-0.9h1l8.7,0.9
	c-0.1,0.8-2.2,1.1-3.3,0.9v0.2L88.8,35.2z M23.3,35L23,35.6c0.1,0.2,0.1,0.5,0.1,0.7c0,0.4-4.5,0.9-5.1,0.9h-6l-4.5-0.6L8,36.4v-0.3
	H7.4v-0.7l5.7,0.3l4-0.1L23.3,35z M34,33.9c0.2,0.7,1.4,1.2,2.1,1.2c-0.2,0.6-1.4,0.5-2.2,0.6c-0.7,0.1-1.6,0.4-2.3,0.5
	c-1.6,0.3-3.3,0.5-4.9,0.6c-0.6,0-2.9-0.5-2.9-1.1c0-0.2,0.1-0.1,0.3-0.6h2L34,33.9z M54,36c-0.4,0.2,0.1,0.1-0.4,0.1
	s-0.5-0.5-0.6-1h0.6L54,36z M77.3,36.1c0.3-0.4,0.9-0.6,1.4-0.6c-0.1,0.4-0.3,0.7-0.7,0.7h-0.2C77.6,36.3,77.5,36.2,77.3,36.1
	 M106.4,36.4c1.7-0.2,4.2,0.1,6-0.2s3.4-0.5,5.2-0.9l0.6,0.4c-0.8,1.2-6.5,2.3-8.9,2.3c-2,0-3.9-0.1-5.8-0.3
	c-1.4-0.2-4.1-0.7-5.2-0.7v-0.3c2.5-0.7,5-0.8,7.5-0.3c-0.2,1,0.6,0.7,1.9,0.9c0.4,0.1,2.5,0.2,2.9,0.2c1.8,0.1,3.5-0.4,5-1.3
	l-5.8,0.8l-1-0.1C108,37,106.7,36.8,106.4,36.4 M85.4,36.5c-0.2,0.2-0.4,0.7-0.7,0.7c-0.8,0-2.7-0.5-2.7-1.3v-0.7l3,0.8L85.4,36.5z
	 M88.9,35.9l6.1,0.7h1.3L96,37.3c-1.7,0-3.6,0.7-5.2,0.2c-1-0.4-3.5-0.7-4.7-1v-0.3h0.6c0.6,0,0.5-0.3,1.1-0.3L88.9,35.9z
	 M40.8,37.5c0-1,1.7-1.1,2.5-1.3c0.5-0.1,2.7-0.9,2.7-0.1v0.4c0,0.8-2.7,1.6-3.4,1.6h-0.1C42,38,40.8,37.8,40.8,37.5 M28.4,37.3
	c1.4-0.1,2.8-0.4,4.1-0.7c0.5-0.1,3.8-0.6,4-0.7l1.3,1.1c-2.6,1-5.4,1.5-8.1,1.7h-0.1c-0.5-0.1-1-0.3-1.4-0.6l0.1-1.2L28.4,37.3z
	 M40.3,36.9c-0.3,1.4-0.6,1.2-2,1.7c-0.9,0.4-1.8,0.6-2.7,0.8h-1.1c-0.6,0-0.8-0.2-0.9-0.7L40.3,36.9z M47.1,37.4l0.1-0.1L47,37.2
	L47,37.3L47.1,37.4z M48.1,27.7h1.1c0.7,0,1.4,0.2,1.9,0.8c0.4,0.5,0.7,1.1,1,1.7v1.1c0,3.3-2.8,2.2-2.8,5c0.2,0.4,0.4,0.9,0.6,1.3
	c0.5,0.2,1.1,0.3,1.6,0.4c3,0,3-2,4.3-2h0.6l-1,0.9l0.2,1l-1,0.5L54,38.6l0.1,0.2l-1.3,0.8l-0.1-0.1v-0.3h-0.6
	c-0.1,0.4-0.3,0.7-0.7,0.7h-0.2c-0.8,0-1.1-0.5-1.6-0.8l-1.6-0.3c0-0.7,0.2-1.2-0.4-1.2h-0.1c-0.2,0-0.5,0.1-0.7,0.2l-0.3-0.8
	l0.3,0.4v-1c0.2-0.2,0.3-0.2,0.3-0.6s-0.5-0.3-0.8-0.3c-0.2-0.3-0.3-0.2-0.3-0.6v-0.1c0-0.3,0.1-0.4,0.4-0.4c0.5,0,0.2,0.3,0.7,0.3
	c0.3,0,0.4-0.3,0.4-0.6l-1.8-0.4v0.1l-0.1-0.1c0.3-0.5-0.3-0.3-0.3-0.9s1.2-0.3,1.6-0.3h1.6c-0.1-1-0.3-0.4-1.1-0.4
	c-1.4,0-4.1-0.5-4.4-1.6c0.6-0.3,0.8,0.1,1.6,0.1h0.6l4-0.2v-0.3l-1,0.2h-1.3h-2.6c-0.7,0-2.8-1.2-3.5-1.4c0-1.4,1-0.1,2.1-0.2
	L48.1,27.7z M13.5,37.9c2,0,3.6-0.3,5.6-0.3c0.9-0.1,1.7-0.2,2.5-0.3c0.4,0,2.4-0.4,2.4-0.4c0.6,0,1.5,0.4,2.7,0.4h0.9l-0.5,1.2
	l-9.8,1.2l-1.7-0.1l-2.1-0.4l-2.1-1.5c0.4,0,0.5,0.1,1,0.1L13.5,37.9z M84.1,38.2c0,0.3-0.1,0.2-0.2,0.6c-0.3,0.1-0.7,0.1-1,0.2
	c-0.7,0-1.8-0.7-1.8-1.3s0.1-0.1,0.3-0.7l2.4,0.8C83.9,37.8,84.1,37.8,84.1,38.2 M89.2,37.7l0.4,0.2l1.4,0.2c-0.2,1.1-0.8,1.3-2,1.3
	h-0.1c-2.2,0-2.5-1.1-3.7-1.4c0.1-0.5,0.6-0.9,1.1-0.9c0.1,0,0.1,0,0.2,0L89.2,37.7z M44,38.6c0-0.4,2-1.1,2.6-1.1
	c0.2,0.1,0.3,0.2,0.4,0.4c0,0.7-1.3,1.4-2,1.6C44.6,39.2,44,39.1,44,38.6 M95.3,38c0.3-0.1,1.6-0.5,1.6-0.5h0.4
	c1.1,0.1,2.2,0.2,3.2,0.5c1,0.2,2.1,0.2,3.2,0.4s2.4,0,3.4,0.2c1.4,0.2,2.7-0.7,2.7,0.6l-0.7,0.4c-1.4-0.1-2.8-0.1-4.1,0
	c-0.9,0-1.3,0.2-2,0.2c-0.6-0.1-1.2-0.2-1.8-0.3c-1.4,0-7.2-0.4-7.7-1C94,38.3,94.7,38.1,95.3,38 M40.8,38.2l1.8,0.5
	c-1.3,0.8-2.8,1.3-4.4,1.6c-0.6,0-0.8-0.2-1-0.7L40.8,38.2z M76.1,39.2c0,0.7,0.2,0.8,0.3,1.4c-0.7,0-1.1-1.5-1.1-2.3l0.8,0.3
	L76.1,39.2z M81.9,40.3h-0.3c-0.8-0.2-1.5-0.8-1.7-1.6v-0.1c0-0.3,0.1-0.4,0.4-0.4c0.2,0,2.1,1.1,2.1,1.6
	C82.5,40.1,82.3,40.3,81.9,40.3C81.9,40.4,81.9,40.4,81.9,40.3 M19.1,40.3c0-0.4,5.6-0.7,6.3-1c1-0.3,2-0.4,3-0.5
	c0.8,0.2,0.6,0.3,1.5,0.4s1.1-0.2,1.4,0.3c-0.5,0.1-1,0.3-1.5,0.5c-0.9,0.3-0.6,0.1-1.6,0.2c-0.6,0.1-2.4,0.5-3,0.7
	C24,41.2,19,41.8,19.1,40.3 M74.5,37.9c0,1,0.4,1.3,0.4,2c-0.1,0.2-0.2,0.4-0.4,0.4c-0.4,0-0.6-1-0.6-1.6v-0.8L74.5,37.9z
	 M54.3,39.8c0-0.5,0.8-0.6,1.1-0.7v0.6l-1,0.7c-0.2-0.4-0.2,0.1-0.2-0.4L54.3,39.8z M102.7,40.9c-2.5,0-3.4,0.8-6.1,0
	c-0.7-0.2-5.3-1.2-5.3-1.5s0-0.2,0.1-0.6l11.8,1.3L102.7,40.9z M78.8,40.9c0,0.2-0.2,0.3-0.4,0.3c-0.9-0.2-1.6-0.9-1.7-1.8
	c0-0.2,0.3-0.3,0.4-0.4C77.4,39.2,78.8,40.6,78.8,40.9 M80.6,40.8c-0.4,0.1-0.2,0.1-0.6,0.1c-0.8-0.2-1.5-0.9-1.6-1.7h0.6
	C79.5,39.2,80.5,40.4,80.6,40.8 M83.8,39.7c0.2-0.3,0.7-1,1.1-1h0.3c0.3,0,1,0.6,1.3,0.8c0.5,0.2,1,0.4,1.5,0.5
	C88,41.9,84.4,41,83.8,39.7 M39.8,40.9c0.4-0.5,1.1-0.9,1.7-1c0.4-0.1,1.8-0.7,1.8-0.7s1,0.6,1.1,0.7c-1,0.7-2.1,1.3-3.3,1.7H41
	C40.5,41.6,40.1,41.3,39.8,40.9 M46.1,39.7c0-0.2,1.2-1,1.4-1.1c0.2,0.2,1.1,0.8,1.1,1.1c0,0.6-0.9,1-1.6,1H47
	C46.6,40.7,46.1,40.1,46.1,39.7 M25.6,41.2c2.9,0,5-1.2,7.4-1.7l1.7,0.7c-0.3,0.4-5.5,2-6.5,2h-1.3c-0.5,0-1.1-0.2-1.6-0.4
	L25.6,41.2z M49.6,39.7l1,0.6c-0.1,0.4-0.6,1.3-1.1,1.3h-0.2c-0.4,0-0.8-0.2-1-0.6L49.6,39.7z M53.7,40v0.5
	c-0.1,0.3-0.3,0.6-0.6,0.7c-0.2,0-0.3-0.2-0.3-0.4v-0.5L53.7,40z M29.3,42.9c0.6-0.8,2.6-1.1,3.8-1.5c0.2-0.1,1.5-0.6,2-0.8
	c1.1-0.4-0.1-0.8,1.6-0.9l-0.1,0.1l1.3,1.1c-2.1,1.2-4.4,2.1-6.8,2.6C30.5,43.7,29.7,43.4,29.3,42.9 M50.6,41.5
	c0-0.6,0.8-1.1,1.7-1.1v0.4c-0.1,0.6-0.4,1.1-1,1.3C51,42.1,50.6,41.9,50.6,41.5 M42,42c0-0.3,3.3-1.7,3.5-1.7
	c0.3,0.2,0.6,0.5,0.7,0.8c0,0.4-2.3,1.9-3.2,1.9h-0.4C42.2,43,42,42.5,42,42 M75,41.7c0,0.7,0.3,0.5,0.3,1.4
	c-0.9,0.2-0.6,0.1-0.8-0.8c-0.2-0.5-0.3-1-0.3-1.5H75L75,41.7z M82,40.9c0.8-0.2,0.8-0.7,1.3-0.7c0.8,0.6,1.7,1,2.7,1.3
	C85.5,43.1,82.1,42.4,82,40.9 M88.9,40c1.3,0,7.4,1,7.4,1.8c0,0.4-1.1,0.9-1.7,0.9h-1.3c-1.4,0-4.7-0.7-5.3-1.4L88.9,40z
	 M103.1,41.6c0.1-0.4,1.3-1.6,1.8-1.6h0.7l0.3,2.6c0,0.3-0.2,0.9-0.6,0.9c-0.2,0-0.5-0.7-0.6-0.8l-0.6,0.3L103.1,41.6z M55,40.8
	l-0.4,2c-0.8-0.6-0.3-0.9-0.3-1.8L55,40.8z M44.4,43.4c0.9-0.8,1.8-1.5,2.8-2.1h0.6L47.7,42l0.3,0.2c-0.4,0.6-1.6,1.7-2.5,1.7h-0.3
	C44.8,44,44.4,43.9,44.4,43.4 M81.1,41.2c0.2,0,0.6,0.7,0.9,1s0.7,0.3,1.1,0.6c-0.2,0.4-0.6,0.6-1,0.6h-0.7c-1-0.3-1.7-1-1.8-2
	l0.7,0.1C80.5,41.3,80.8,41.2,81.1,41.2 M106.4,40l0.6-0.1c0.5,0,0.3,0.1,0.9,0.1c0,1,0.3,0.5,0.3,1v0.4c0,1-0.7,0.8-1,1.8
	c-0.1,0.7-0.5,1.4-1,1.9c-0.3-0.3-0.4-0.6-0.4-1c0.4-0.5,0.7-1.1,0.7-1.7L106.4,40z M20.9,43.9L20.3,43v-0.7
	c-0.6-0.9-0.1-0.6,0.9-0.6l0.3,0.3C21.4,43.1,22.1,43.8,20.9,43.9 M76.4,41.3c0.4,0.6,0.7,1.2,0.9,1.8l-0.7,0.1l-0.8-0.6
	C75.7,42,75.2,40.7,76.4,41.3 M80.3,43.3c-0.4,0.2-0.8,0.4-1.2,0.4c-0.8-0.5-1.4-1.3-1.7-2.3l1.4,0.3L80.3,43.3z M53,44.7h-0.4v-1
	c0-0.6-0.4-2,0-2c0.6-0.1,1.2,0.4,1.3,1c0,0.1,0,0.2,0,0.2v0.4C53.9,43.9,53.5,44.7,53,44.7 M39.2,41.1l1.2,1c-0.2,0.8-6.8,4-7,1.7
	L39.2,41.1z M86.9,41.6c0.1,0,2.2,0.9,2.9,1c1,0.3,2.1,0.5,3.2,0.7c-0.1,0.9-1.1,1.3-2,1.3h-0.3c-0.9,0-4.8-1.1-4.8-2
	C85.9,42.6,86.6,41.6,86.9,41.6 M21.9,42.8c0.3-1.4,0.4-1.3,2.3-1.3c0.4,0.3,0.5,0.5,0.9,0.8s1,0.2,1,0.5c0,1-1.1,0.9-1.3,1.6
	L24.4,44C23.4,44.1,22.5,43.7,21.9,42.8 M46.9,44.1c0.6-0.8,1.3-1.5,2.1-2h0.8v1c0,0.8-1.7,1.5-2.6,1.6
	C47.1,44.5,46.9,44.5,46.9,44.1 M35.7,45.7c0.8-1.2,1.2-1.2,2.7-1.7c1-0.4,2-0.9,2.9-1.5l0.8,1.2c-1.2,1.5-2.9,2.5-4.8,2.7h-0.6
	C36.3,46.3,35.9,46.1,35.7,45.7 M88.7,46.3c-1.1-0.1-2.2-0.5-3.2-1c-0.5-0.3-2.1-1.2-2.1-1.9c0-0.4,0.2-0.4,0.4-0.6l1.3,0.2
	c0.4,0.6,4.1,1.9,5.1,2C90.2,46,89.4,45.9,88.7,46.3 M77.2,44.3c0-0.6,0-0.7,0.6-0.7c-0.1,0.2-0.1,0.5-0.1,0.7v1.1
	c0,1.1,1.1,2.7,1.1,3s-0.1,0.4-0.4,0.4h-0.4c-0.9,0-1.6-1.7-1.6-2.7v-0.6C76.3,45,76.7,44.5,77.2,44.3 M49.3,44.9
	c0.6-0.9,1-0.8,1.1-2.4c0.6,0,0.3,0.2,0.7,0.2s0.2-0.1,0.7-0.2c0,1,0.3,0.8,0.3,1.4c0,0.4-0.8,1.1-1.4,1.1h-0.7
	C49.8,45,49.6,45,49.3,44.9 M107.9,43.3c0.4,0.2,0.7,0.5,0.8,1c0,0.4-0.2,0.8-0.4,1.1L107.9,43.3z M19.6,44.8
	c-0.3,0-0.4-0.5-0.4-0.7c0.1-0.1,0.2-0.1,0.3-0.1c0.3,0,0.4,0.5,0.4,0.7C19.6,44.9,19.9,44.8,19.6,44.8 M22.9,45.3
	c-0.2,0-0.7-0.8-0.9-1c0.1-0.1,0.3-0.1,0.4-0.1H23c0.7,0,0.6,0.3,1.1,0.4C23.9,45,23.4,45.3,22.9,45.3 M101.4,41.6
	c0.2-0.1,0.5-0.1,0.7-0.1c0.6,0.4,1,1,1.3,1.7v0.1c0,1.4-0.1,3.8-0.8,4.4c-0.3-0.2-0.6-0.5-0.6-0.8c0-2.3-0.9-2-0.9-2.6V43
	C101.1,42.3,101.3,42.2,101.4,41.6 M76.1,43.6V44c0,0.9-0.3,1.1-0.3,2v0.4c0,0.7,0.4,0.8,0.4,1.7c0,0.1-0.1,0.3-0.3,0.3
	c-1.5,0-1.3-2.9-1.3-4.6L76.1,43.6z M87.7,46.9c-0.4,0.6-1,0.9-1.7,0.8h-0.4c-1.5,0-3.8-2-3.8-3.4c0-0.3,0.1-0.4,0.4-0.4h0.1
	c1,0.4,1.9,0.9,2.7,1.6C85.7,46,87.3,46.3,87.7,46.9 M94.7,44.5c-0.1,0.5,0,1.1-0.5,1.1l-0.8-0.1L94.7,44.5z M39,46.3
	c0.8-0.3,1.6-0.6,2.4-1c0.4-0.3,1.4-1.5,1.7-1.5h0.7c0.2,0.7,0.4,0.4,0.4,0.9v0.1c0,1.1-3.3,2.7-5,2.7h-0.2c-0.3,0-0.4-0.1-0.4-0.4
	S38.9,47,39,46.3 M81,43.9c0.1,1.7,2.3,3.5,3.6,4.1c-0.2,0.4-0.6,0.6-1,0.6h-0.2c-1.3,0-3.6-2.5-3.6-4v-0.4L81,43.9z M22.8,47.6
	c0-1.1-1.1-1.4-1.1-2v-0.4c0.8,0.2,0.5,0.7,0.9,0.7c1,0,1.4-0.6,1.9-0.6c0.2,0,0.3,0.2,0.3,0.4V46c0,0.4-0.7,0.7-1,0.9
	c0,1-0.3,0.6-0.3,1.1v0.3l-0.2,3c0.6,1,0.5,1.5,0.5,3l-0.3-0.4c-0.9,0-1.1-0.8-1.1-1.7c0.4-0.4,0.6-1,0.7-1.6c0-0.2-1-0.8-1.3-1.1
	c0.3-0.6,1.1-1.5,1.1-1.7V47.6z M78.8,44.1c0.4,0.9,0.9,1.9,1.4,2.7c0.5,0.7,1.8,1.1,1.9,2.1c-0.4,0.2-0.8,0.3-1.3,0.3
	c-1.2,0-2.6-2.9-2.6-3.8v-0.6c0-0.5,0.1-0.1,0.3-0.7H78.8z M25.1,44.7c1-0.3,0.3-1,1.1-1c0.1,0,0.9,0.7,0.9,1v1
	c0,0.4-0.6,0.7-0.6,1.1v0.3l0.2,1.6L26.1,48c-0.1,0.9,0.2,0.7,0.2,1.4s-0.4,0.8-0.4,1.6c0.3-0.3,0.5-0.6,0.6-1v-0.4h0.3l0.2,1.7
	l-0.6,0.7v2.7c-0.4-0.2-1.4-0.6-1.4-1c0-0.8,0.6-0.8,0.9-1.8c-0.3-0.5-1-1.1-1-1.4v-0.1c0-0.7,0.9-0.4,0.9-1.1v-0.8
	c0-0.6-0.8-0.7-1.1-1.1c0.3-0.4,0.7-0.4,0.7-1.1L25.1,44.7z M41,47.8c0.1-0.3,1.9-0.9,2.4-1.3c0.3-0.2,1.7-2,1.8-2h0.8
	c0.6,0,0.7,0.7,0.7,1.3c-0.6,0.9-3.7,3-5.1,3c-0.2,0-0.4-0.3-0.4-0.6v-0.4H41z M106.4,46.3c0,0,0.7-1.7,0.8-2.1h0.3l0.2,1.4l0.4,0.2
	l-1.5,2c-0.2-0.4-0.2,0.1-0.2-0.5V46.3z M19.4,53.1V53c0-0.5,0.8-0.8,1.1-1.3c-0.3-1.5-1.6-1.4-1.6-2.1v-0.4c0-0.6,0.4-1.1,1-1.3
	l-0.4-2l0.3-0.4l0.6,0.1l0.2-0.4c0.6,0.7,1.2,1.5,1.7,2.3c0,0.9-1.3,0.8-1.3,2.1c0,0.7,1,0.7,1.4,1.3c-0.2,0.4-0.9,1-0.9,1.3v0.1
	c0,0.8,0.8,1.6,1.1,2.1l-0.9,1l0,1.2L21.2,56c0.2-0.3,0.3-0.3,0.3-0.6v-0.1c-0.3-0.8-0.5-1.7-0.6-2.6c0-0.5,0.5-0.5-0.3-0.7l0.2,3.1
	C20.3,54.5,19.8,53.8,19.4,53.1 M44.2,48.7c0.6-0.4,1.5-1.2,2.1-1.7c1-0.7,0.9-1.8,2-1.8c0.3,0,0.6,0.2,0.6,0.5c0,0,0,0,0,0v0.7
	c0,1.2-2.1,3.1-3.4,3.1h-0.4C44.6,49.6,44.4,49,44.2,48.7 M93.6,46.1l0.2,1c-1,0.1-1.5,0.6-2.6,0.6H90v-0.3c0.2,0.1,0.5,0.1,0.7,0.2
	c0.3,0,0.2-0.3,0.1-0.6l0.9-0.7L93.6,46.1z M32.4,47.1c0.3-0.5,0.8-0.8,1.4-0.8h0.7c0.2,0,1.5,1,1.6,1.6h-1.6
	C33.8,47.7,33.1,47.4,32.4,47.1 M49.5,45.6h1.3c0.3,0,0.4,0.1,0.4,0.4v0.9c0,1.4-1.7,2.7-3.1,2.7l-0.3-0.1c0.3-1.1,1.7-1.4,1.7-3
	L49.5,45.6z M103.4,48.1c0-1,0.9-3.8,1.6-3.8c1.1,0,1,4.9,0.7,6c-0.9-0.7,0.5-2.9-0.8-3l0.2,3v0.1c0,0.3-0.1,0.7-0.1,1h-0.3
	c-0.2-0.8-1.1-2.1-1.1-3L103.4,48.1z M106.8,48.4c0,0,1.2-1.6,1.6-1.7c0.2,0.4,0.1-0.1,0.1,0.4c0,0.3-0.1,0.3-0.3,0.6l0.2,1.1v0.4
	c0,0.9-0.1,1.8-1,1.8c0,1.8-1.7,1.9-1.7,3.1c0,0.1,0.2,0.3,0.3,0.4l-1,0.9l-0.1-0.2v-0.6c0-0.4-0.1-0.9-0.3-1.3
	c1.3-0.6,0.6-0.4,1.2-1.8c0.3-0.8,0.7-1,0.7-2.2l0.6-0.2C106.9,49,106.9,48.7,106.8,48.4 M52.2,45c0.3,0.2,0.9,0.4,0.9,0.9v1.6
	c0,1.8-1,1.9-2.3,1.8c0.4-1.8,0.8-0.9,0.8-4L52.2,45z M53.9,45.2l0.6,0.3l0.3,2.7c-0.8,0.1-0.5,0.7-1.2,0.7c-0.5,0-0.1-0.7-0.1-1.1
	v-2.4L53.9,45.2z M23.8,47.8h0.6c0.3,0.1,0.6,0.2,0.9,0.4L25,49.1c-0.6,0-1,0.4-1,1c0,0.1,0,0.1,0,0.1c0,1.3,1,1,1,1.7
	s-0.9,0.3-0.9,2c-0.5-0.4-0.3-1.5-0.5-2.2c-0.4-1.4,0.1-0.8,0.1-2.2L23.8,47.8z M37,49.3h0.8c-0.2-0.2,0-0.3-0.4-0.3H37V49.3z
	 M36.7,49c0.8-0.2,0.3-0.7,1-0.7h0.1c2.1,0,1.6,0.1,1.6,1.4l-2.7-0.4V49z M78.8,50c-0.4,0-0.6,0-0.6-0.4s0.3-0.3,0.6-0.3V50z
	 M76.9,51.3c-0.7-0.3-1.4-0.8-1.8-1.4c0.6,0,2.7,0.4,2.7,1C77.8,51.1,77.3,51.3,76.9,51.3 M100.4,53.1c0.6-2.7,0.2-2.4,1.4-4.7
	c0.5,0.5,0.9,1.1,1.2,1.8c0,0-1,1.4-1,1.6c0,1.5,0.6,3.5-0.7,3.8L100.4,53.1z M53.7,51.7C53.7,51.7,53.7,51.7,53.7,51.7L53.7,51.7z
	 M53.3,51.7c0.6-0.2-0.1-0.4,1.2-0.8c0.4-0.1,1.2-0.6,1.4-0.6h0.4c-0.5,0.6-1.1,1.1-1.8,1.4h-0.6v0.4L53.3,51.7z M39.8,51
	c0-0.6,1.7-1.1,2.6-1.1h1.3l0.3,0.9l0.2-0.1c-0.4,0.5-1.2,0.3-1.4,1.1h-1.4l-0.4-0.3h-0.7C39.9,51.3,39.8,51.3,39.8,51 M83.9,53.1
	h-0.4c-0.7,0-4.7-2.2-4.7-2.6v-0.2c0-0.7,2.1,0.1,2.8,0.4c1,0.5,2.1,0.8,3.2,0.8c0.2,0.3,0.3,0.2,0.3,0.6v0.1c0,0.5-0.4,0.6-0.7,0.4
	C84.3,53,84.3,53.1,83.9,53.1 M76,51.4c-0.6,0-0.3,0.1-0.8,0.1s-1-0.5-1-0.8c0.1-0.2,0.2-0.4,0.4-0.4C75.1,50.6,75.6,51,76,51.4
	 M106.2,54.2c0.1-0.7,2-2.7,2.6-3.3C108.6,52.2,107.2,54.2,106.2,54.2 M44.2,54c0-0.7,5.4-3.1,6.3-3.1l0.1,0.6l0.1,0.1l-1.4,1
	c-1.2,0.1-1.7,1-2.1,1h-0.4c-0.3,0.7-1.1,0.1-1.7,1.3l-0.7-0.2C44.2,54.5,44.2,54.2,44.2,54 M55.8,51.7c0.2-0.3,0.6-0.8,1-0.8
	c0.2,0,0.8,0.4,0.8,0.6s-0.2,0.3-0.4,0.3H55.8z M66.8,36.9c0.9-0.1,1.7-0.2,2.5-0.5c0.7-0.2,1.4-0.5,2-0.8c0.6,0,0.4,0.8,1.8,0.9
	l-0.6,0.2l0.3,0.1l-0.2,1.8v0.1c0,1.3,1.4,2.9,1.4,5.5v1.4c0.1,1.2-0.3,2.5-1.1,3.4c-0.5,0.5-0.5,0.9-1,1.3s-0.9,0.3-1.3,1l0.1,0.1
	l-0.1-0.1c-0.2,0-3,1.2-3.4,1.4c-0.5,0.2-1.1,0.5-1.6,0.8c-0.6,0.4-0.6,1-1.4,1C64,54.7,63,53,62,52.6s-1.9-1-3-1.4
	c-1.8-0.7-3.9-2.5-3.9-4.9v-2.1l0.5-2.5h-0.2c0.8-0.5,1-3.2,1-4.5c0.2-0.1,1.9-1.1,2-1.1s1.7,0.6,2.3,0.7c0.9,0.2,1.8,0.3,2.7,0.3
	H66.8z M58,51.5c2.2,0.2,0.5,1.8-0.2,1.8l0.3-0.7L58,51.5z M73.6,51.8c-0.2,0-0.4-0.1-0.4-0.3s0.2-0.3,0.4-0.3s0.4,0.2,0.6,0.4
	c-0.4,0.2,0.1,0.2-0.4,0.2H73.6z M55.9,55.4c-1.1,0-4-3.1-4.1-3.7c2.1,0.2,1,1.3,2,1.3h1c0,0.9,1.2,1,1.8,1.8
	C56.5,54.9,56,55.4,55.9,55.4 M73.7,52.7c0.2-0.7,1-0.5,1.8-0.6c0.6-0.2,1.2-0.3,1.9-0.4c-0.1,0.8-3.1,3.4-4,3.4
	c-0.3,0-0.4-0.3-0.4-0.6l-0.3,0.6l-0.2-0.5l2.2-1.7l-0.1-0.1c-0.4-0.2,0.1-0.1-0.4-0.1L73.7,52.7z M102.3,52.5
	c0.2-0.8,0.7-1.6,1.3-2.1c0.1,0.2,0.6,1.2,0.6,1.3V52c0,0.8-1,2.8-1.6,3v-1.5C102.6,52.9,102.3,53,102.3,52.5 M55.3,53.1
	c0.2-0.3,0.6-0.9,1-0.9h0.4c-0.1,0.4-0.5,0.8-1,0.9H55.3z M71.5,53.6l-1.3-1.3c0.7,0,1.3,0.5,1.3,1.2C71.5,53.6,71.5,53.6,71.5,53.6
	 M72.6,53.6c-0.3,0-1.1-0.9-1.1-1.3l1.4,0.3c0.2,0.2,0.3,0.2,0.3,0.5S72.8,53.6,72.6,53.6 M51.6,53.6c0-0.3-0.4-0.7-0.6-0.9l0.6-0.1
	c0.3,0,1.3,1.4,1.6,1.7c0.5,0.6,1.1,1.1,1.8,1.4l-0.3,0.8C54.1,56,53.5,55,52.9,55s0.1,2.3-1.4,2.4l0.2-1.8L51.6,53.6z M44.2,56.5
	c0-1,2.1-2,2.8-2.4c0.4-0.2,3.3-1.7,3.5-1.7s0.3,0.2,0.3,0.4v0.3c0,0.7-0.5,0.1-1,0.8c-0.4-0.1-0.2-0.1-0.6-0.1s-0.3,0.4-0.3,0.7
	h-0.7c0,0.4,0,0.6-0.4,0.6h-0.7c0.1,0.4,0.3,0.7-0.3,0.7h-0.7c0,0.4,0,0.6-0.4,0.6c-2,0,0.3,0.7-1.1,0.7
	C44.5,57,44.2,56.7,44.2,56.5 M60.3,54.7c0-0.5,1-1.4,1.4-1.6l-0.5,1.1c-0.1,0.4,0,0.8-0.5,0.8C60.5,55,60.3,54.9,60.3,54.7
	 M61.7,54.4c0.1-0.4,0.4-0.8,0.8-0.9C62.4,54.1,62.4,54.3,61.7,54.4 M25.9,57.1c0.3-0.6,0.4-1.2,0.5-1.8c0-0.6,0.3-1.2,0.8-1.6
	l-0.4,3.8h-0.4C26,57.5,25.9,57.4,25.9,57.1 M82.9,55.4L82.9,55.4 M81.7,55.1h0.7l-1.3-0.5L81.7,55.1z M78.5,51.3
	c1.1,0.1,1.2,0.2,1.2,1l1-0.2l-0.1,0.7c0.6-0.2,0.2-0.3,0.7-0.3s-0.2,0.5,1,0.6l0.1,0.4c1.6,0,0.4,1.1,1.6,1.1
	c0.1,0,0.3-0.2,0.4-0.3c0.1,0.1,0.3,0.3,0.3,0.4c0,0.4-0.3,0.9-0.7,0.9s-0.3-0.1-0.8-0.1l1.2,1.5h0.5l-0.3,0.2
	c0.8,1.2,2.5,1.3,1.3,3c-1.7-0.8-6.8-6-7.5-6.1v-0.8c0-1.4,2.3,1.5,3.1,1.1L78.3,52l0.1-0.2l1.1,0.2L78.5,51.3z M105.5,55.9
	c0-0.4,1.6-1.9,2-2l0.3,1.3l-0.7-0.2c0,0.5,0.1,0.5,0.1,1c0,2.2-2.3,2.7-2.4,4.4h-0.4l0.5-4h0.6L105.5,55.9z M43.7,59.5
	c0-1.5,6.1-5.1,7.4-5.4c0.1,0.2,0.1,0.5,0.1,0.7v0.4h-0.8l-0.1,0.6c-0.4-0.1-0.3-0.2-0.6-0.2c-0.8,0,0.6,0.7-1,0.7c-0.5,0,0,1-0.6,1
	c-1.6,0,0,0.1-1.1,0.8l-0.7-0.3l0.1,0.8L46,59c-0.3-0.2-0.3-0.3-0.6-0.3l-0.3,0.1l0.3,0.6c-0.2,0.2-1,1-1.4,1
	c-0.2,0-0.3-0.2-0.3-0.4L43.7,59.5z M58.3,55.5c3.1,0,3,0,4.8-1.3l1.9,2.3c0.9-0.6,0.5-1.7,2.4-1.7c0.6,0,0.5,0.3,1.1,0.3h1
	c0.5,0,1-0.1,1.4-0.3c0.5,0.3,0.9,0.2,0.9,1s-5.9,2.1-7.3,2.1h-0.3c-2,0-5.9-0.7-6.7-1.7L58.3,55.5z M50.7,56.7v0.7l-0.9-0.3
	l0.3,0.5l-0.4,0.3L49,57.8v0.6h-0.7c0,0.5-0.1,0.9-0.6,0.9h-0.6l0.2,0.7l-0.4,0.3L46,60.1l0.4,0.6l-0.6,0.5
	c-1.2-0.3-0.7-0.1-0.7,0.6c0,0.2-0.3,0.3-0.4,0.4c-0.6-0.1-0.7-0.4-0.8,0.3l0.5,0.1l-0.6,0.8l-0.7-0.1l0.2,0.5l-0.8,0.6v-0.6
	c0-1.8,3-3.3,4.1-4.3c0.6-0.6,4.2-3.5,5-3.5L50.7,56.7z M20.5,56c0.8,0.2,1.4,2.1,1.9,2.8C21.5,58.8,20.5,56.9,20.5,56 M53.3,56
	c0.3,0,0.5,0.5,0.6,0.9c-0.4,0-1-0.1-1-0.4C53,56.2,53.1,56.1,53.3,56 M101.4,63c0.4-1.7,0.3-3.5,0.6-5.3c0.6-1.3,1.3-2.5,2.1-3.6
	l0.3,2.3c0.2,1.7-1.1,5.5-2,6.1c0-1.1,1.4-3.6,0.9-4C102.4,59.2,102.4,62.7,101.4,63 M56,57.4c0-0.4,0.3-0.7,0.7-0.7
	c0.6,0.1,1.1,0.3,1.7,0.6c0.6,0.3,1.2,0.5,1.8,0.6c1.4,0.3,2.9,0.5,4.3,0.5H66c1.9,0,4.9-1.8,6.1-1.8l0.2,1L72,58.1
	c-0.8,0-2.6,1-3.7,1.3c-1.3,0.2-2.4,0.8-3.4,1.5c-1.3-0.7-2.7-1.4-4.2-1.9C59.8,58.8,56,58.2,56,57.4 M27.3,56.2c0-0.3,0.2-1,0.5-1
	c1.1,0,1,1.6,1,2.7c0,2.1,1.4,1.7,1.4,2.4s-0.4,1-0.4,1.1c0,0.5,0.9,1.1,0.9,3l0.3,0.2l0.2,2.6l-0.7-0.5c0-1.6-0.9-3.5-0.9-4v-1
	h-0.3v1c0,0.3,1,3.4,1,3.7S29.7,67,29.4,67l0.4-1.5l-1.5-1.3c0-0.8-0.3-0.7-0.3-0.9l0.2-1.8C28,61.2,27,60.3,27,60.2
	c0-0.3,0.2-0.4,0.5-0.7L27.3,56.2z M78.2,56.7c0.4,0.1,0.9,0.4,0.9,0.9s-0.6,0.8-0.9,1V56.7z M99.7,64.2v-0.9c0-1,0.4-1.5,0.4-2.6
	h-0.3v0.4c0,0-0.4,1.4-0.5,1.8c-0.2,0.8,0,1.6-0.6,1.8v-1c0-2.4-0.4-2.2,0.1-4.4c0.2-1,0.6-3.7,1.6-3.7c0.4,0,0.5,0.4,0.7,0.7v0.9
	l0.3,0.4C101.4,59.4,101.5,64.2,99.7,64.2 M49.2,59.4c0.1-0.8,0.8-0.8,1.3-1.6l1.4,0.2l0.3,0.5c-0.7,0.3-1.1,0.1-1.2,1
	c-0.4-0.2-0.9-0.7-1.1-0.7C49.7,58.9,49.4,59.1,49.2,59.4 M80.2,58.6c0,0.2-0.2,0.3-0.4,0.3s-0.6-0.2-0.6-0.4s0.3-0.4,0.6-0.4
	S80.2,58.3,80.2,58.6 M53.2,60.6l0.1-0.1l0.2-0.2l0.6-0.8l0.8,1.2l-0.6,0.2c0.1,0.4,0.3,0.7-0.3,0.7h-0.2c-0.3,0-0.4-0.2-0.7-0.4
	l-0.1-0.1l-0.7,0.1c0.2-0.7-0.1-0.5-0.6-1.1c0.2-0.8,1.5-2.3,2.2-2.4l0.2,1l-1.5,1.8L53.2,60.6z M55.6,58.1c0.4,0,0.8,0.1,0.8,0.4
	c-0.1,0.3-0.2,0.6-0.4,0.9c-0.2-0.2-0.4-0.2-0.4-0.6V58.1z M105.5,59.9c0.1-0.6,0.7-1,1.3-1C106.6,59.4,106.1,59.8,105.5,59.9
	 M56.6,59.5c0,0,0.3-0.8,0.7-0.8c0.2,0,0.1,0.2,0.6,0.3v0.3h-0.4l0.2,0.6H57C56.8,59.8,56.6,59.7,56.6,59.5 M21,59.1v-0.4
	c1,0.3,1.7,1.2,1.7,2.3c0.4,0.6,0.7,0.7,1.7,0.7c0.2,0.3,0.3,0.2,0.3,0.6v0.2c0,0.3-0.1,0.6-0.3,0.8c-0.4-0.1-0.7-0.2-1.1-0.1
	c-0.2,0-1.9-0.7-1.9-1.1s0.6-1.3,0.6-1.7C22,59.4,21,59.9,21,59.1 M58.4,59.8c0-0.8,0.4-0.5,1-0.4c-0.1,0.3,0,0.4-0.4,0.4H58.4z
	 M70.6,60.8c-0.4-0.1-0.7-0.5-0.7-1c0-0.3,0.5-0.4,0.8-0.4h0.5L70.6,60.8z M80.3,60.5c0.2-1.9,2.8,1,3.3,1.5s0.8,1.1,1.5,1.8
	c0.4,0.4,1.6,1.3,1.6,1.8c0,0.1-0.1,0.3-0.3,0.3c-0.6,0-2.5-2-3-2.5c-0.8-0.8-2.3-1.8-2.3-3.1L80.3,60.5z M61.7,67.5l0.1-0.4
	L61.7,67.5z M60.3,61.1h0.3v-0.3h-0.3L60.3,61.1z M61.3,61.1l0.5-0.8h0.7v1.4c0,0.5,0,0.1,0.1,0.4l-0.3,0.1h0.2l0.1,0.8l-0.4,0.2
	l-0.6,3.3l0.4,0.7c0-0.8,0.5-2,0.6-3.1c0.1-0.5,0.3-3.1,0.7-3.1c0.3,0.1,0.6,0.3,0.7,0.6l-0.2,1.8c-1.2,0.1-1.1,3.2-1.4,4.5
	c-0.2,0.9-0.9,4.4-0.9,4.9s0.2,1.1,0.7,1.1H63c0,0.5-0.3,0.8-0.7,0.8h-0.1c-1.4,0-1.1-2.6-1.1-3.9c-0.2,0.2-0.5,0.4-0.8,0.4
	c-1.5,0-0.7-3.8-0.3-4.7c0.6-1.6,1.1-3.3,1.4-5L61,62.1l-0.2-0.1l-0.2,1.3c-1.1,0.3-1,5-2.1,5h-0.1c-0.4,0-1-0.3-1-0.6
	c0.3-1.6,0.7-3.1,1.2-4.6c0.2-0.7,0.6-1.3,0.9-1.9c0.1-0.1,1.8-1.2,1.8-1.2L61.3,61.1z M68.3,60.4l1-0.4c0.5,0.3,2.1,4.8,2.1,5.3V66
	c-0.1,0.3-0.3,0.6-0.6,0.7c-0.5,0-1.2-2.5-1.3-3.1C69.4,63.1,68.5,61,68.3,60.4 M56.5,61v-0.6c0.7,0,0.6-0.1,0.7,0.4L56.5,61z
	 M47.8,62.7c0,0.6,0.4,0.1,0.4,1.2L47,63.2l-3.1,2.6l-0.1-0.2l-0.3-0.5c1.3-0.8,5.6-5.5,6.5-5.5c0.8,0.6,1.5,1.3,2.1,2
	c0,0.3-0.2,0.6-0.5,0.6c0,0,0,0,0,0h-0.1c-0.5,0-1.1-1.1-1.4-1.1C49.2,61.4,48.4,62,47.8,62.7 M103.9,65c1-0.9,1.6-2,1.9-3.3L105,62
	v0.7L103.9,65z M102.9,67.2l-1.7,1c-0.1-0.4-0.2-0.3-0.2-0.6c0.6-1,1.5-1.7,2.6-2.3l0.3-1l-2.8,2.7l-0.2-0.1l0.2-1.8
	c1.8-1,1.8-3.9,5.3-4.7c-0.1,1.4-0.5,2.8-1.2,4.1C104.5,65.9,102.7,65.8,102.9,67.2 M56.2,66.4c-1-0.7-0.4-0.8-0.8-1.7
	c0.3-0.6,1.8-3.3,2.4-3.3h0.9c-0.1,0.5-0.8,2-1,2.7C57.1,65.7,57.6,66.1,56.2,66.4 M55.6,63.9c-0.4,0.6-0.5,1.1-1.3,1.1h-0.6
	c-0.4,0-0.7-0.3-0.7-0.7c0.7-1.1,1.6-2.2,2.4-3.3c0.5,0.1,1,0,1,0.6C56.4,62.3,55.4,62.8,55.6,63.9 M65.3,62.7
	c0.1,0.6-0.4,0.3-0.8,0.3v-0.7c0-0.4,0.2-0.7,0.4-0.9l0.1,0.1l-0.1,0.1l0.3,0.2L65.3,62.7z M49.6,63.6L49.3,63
	c0.2-0.3,0.4-0.9,0.9-0.9c0.2,0,0.4,0.1,0.4,0.3C50.6,62.9,49.9,63.5,49.6,63.6 M53.1,63.7l-0.4-0.1c-0.3,0.5-2.1,2.8-2.7,2.8h-0.5
	c-0.4,0-0.7-0.3-0.7-0.7c0.7-1,1.5-1.9,2.4-2.7c0.5,0.4,0.4,0.8,0.7,0.8c0.5,0,0,0,0.4-0.1c-0.1-0.1-0.3-0.3-0.3-0.4
	c0-0.4,0.3-0.5,0.6-0.7l0.6,0.3c-0.1-0.4-0.1-0.3-0.1-0.6s0.1-0.3,0.3-0.6l0.6,0.5L53.2,63h0.4L53.1,63.7z M98,63.6
	c0,2.7-0.6,2.2-2.1,3.8c-0.8,1.3-1.3,2.8-1.5,4.3l-1.6,0.7l0.6-3.2h0.1c0.1-1.5,0.6-3,1.5-4.2c0.4-0.5,2.5-2.8,2.9-3V63.6z
	 M43.7,66.8l-0.5-0.3l0.4,0.4L43.7,66.8z M42.7,65.3l1.1,1v0.5l-1.2,1.1L41,68.1c0-2.2,1.8-2.7,2.6-4.2l0.4,0.2
	c0.1-0.2,1.2-1.3,1.2-1.3c0.5-0.3,1.5-0.9,1.3-1.2l0.2-0.1l0.1,0.1l1.2-1.1l1.1-1l0.1,0.2L42.7,65.3z M22.8,64.5v-0.3
	c0-0.5,0.9-0.7,1.4-0.7c0.2,0.7,0.5,1.2,1.3,1.3c1.4,0.1,0.1,0.7,0.1,1.4c0,1.7,1.3,0.9,2,2c-0.1,0.4-0.2,0.8-0.3,1.1
	c0,1.7,2.1,1.2,2.1,2.1c0,0.6-0.3,0-0.3,1c-0.6-0.2-0.8-0.8-1.6-0.4c-0.5-0.3-1-0.8-1.4-1c-0.6-0.3-1.1-0.3-1.1-1.3v-0.2
	c0-0.6,0.7-0.6,0.7-1.1v-0.1c0-0.7-0.7-0.7-1.5-0.6l-1-1.4l0.1-0.1l0.6-0.4C23.8,64.6,22.8,65.4,22.8,64.5 M26.4,64.3
	c-0.6,0-1.2,0-1.2-0.6v-0.3c0-0.5,0.1-0.9,0.3-1.3l-0.9-1.1h-0.7c-0.2-0.3-0.3-0.2-0.3-0.6v-0.3c0-0.6,0.3-0.5,0.3-1.1v-0.3
	c0-0.7-1.1-2.1-1.1-2.1c0-0.2,0-0.4,0.1-0.7c1.3,0.4,0.5,0.4,0.7-0.4L23,55.1l0.9-0.1l0.5-0.3l-0.3,1.4l-0.5,0.3
	c0.9,0,1.1-0.3,1.1-1.1l0.9-0.2c0.1,0.2,0.1,0.5,0.1,0.7c0,0.6-0.6,0.4-0.6,1v0.3c0,1.1,1.7,0.6,1.7,1.6V59c0,0.5-0.6,0.4-0.6,1.3
	v0.1c0,0.5,0.9,0.9,1.3,1.4L27.5,63v0.6c0,0.6,0.7,0.3-0.1,0.9l-1.5-2.7l0.2-0.1l-0.9-2.8L24.3,58c0.6,1,0.9,2.1,1.1,3.3
	c0.1,1.7,1.3,2.2,1.3,3.3c0,0.5,0,0.1-0.2,0.4L26.4,64.3z M96.4,71l2.8-3.6c-1.2,0.1-2.6,3.6-4.3,4c0.3-1.6,1-3,2-4.2
	c0.7-0.7,2.6-2.6,3.8-2.6c-0.1,1.3-0.5,3.5-1.2,4.2C98.9,69.4,97.2,71,96.4,71 M44.3,67.4l0.6-0.1l-0.1-0.1L44.3,67.4z M46.7,66.9
	h-0.4c0,0.4-0.2,0.8-0.6,0.8l-1.4,0.1c0-0.8,2.5-3,2.8-3c0.8,0,0.2,0.6,0.8,0.9C47.8,66,47.1,66.9,46.7,66.9 M28.7,66.8
	c0,0.4,0.1,0.8,0.6,0.8c0.6,0,0.6-0.3,1-0.3s1,0.7,1,1.3s-0.4,0.3-0.4,0.8c0,0.2,1,1.4,1.3,1.4h0.2c0.5,0,0.3-0.3,0.6-0.3
	s0.5,0.4,0.7,0.7c-0.2,0.3-0.4,0.7-0.4,1.1v0.1c0,0.6,0.6,0.3,0.6,0.7s-0.1,0.3-0.4,0.4c-0.2-0.7-2.7-2.9-3.1-4.7h-0.3
	c0,2.1,2,2.2,2.1,3.8h-1.6c-0.3,0-0.5-0.3-0.6-0.6c0-0.6,0.3-0.7,0.3-1.3c0-0.7-2.1-0.6-2.1-1.6v-0.3c0-0.6,0.3-0.6,0.3-1
	c0-0.6-1.2-1.1-1.4-1.4c0.4-0.6,1.4-0.3,1.7-1.4c0.2,0.1,0.6,0.2,0.6,0.4C29.2,66.3,28.7,66.3,28.7,66.8 M77.1,57.9l0.1,0.2l0.1,0.1
	l0.1,0.1l0.2,0.1l0.1,0.2l0.1,0.1l0.1,0.1l0.1,0.1l0.2,0.2l0.1,0.1l0.1,0.1l0.1,0.1c0.2,0.3,0.4,0.4,0.6,0.7c0.1,0.3,0.2,0.7,0.2,1
	c0.2,0.2,0.9,0.1,1.5,1.3l-0.2,0.7h0.6c0.7,0,0.3,0.7,0.8,0.9c0.8,0.5,0.6-0.4,0.5,0.9c0.3,0.1,1.3,1.1,1.3,1.4v0.4
	c-1.3-0.3-4.2-3.5-4.8-4.5c-0.4-0.7-4-5.3-4-5.5c0-0.5,0,0,0.2-0.5l1.3,1.2l0.1,0.1c0.3-0.6-0.7-0.9-0.7-1.6V56c0-0.3,0.1-0.7,0.2-1
	L74,56.9l0.2,0l1.9,2.2L76,59.1l-0.4-0.2l0.1,0.5H76v-0.3c1.4,0.9,3.9,6,5.3,6v1.1l-0.4-0.5l-0.1,0.3l0.1-0.4c-1,0-0.4,0.3-1,0.3
	s-1.6-2-2.3-2.4l-0.1,0.6l0.6,0.8c-1.4,0-2.7-0.9-3.2-2.2c-0.3-0.7-1.6-3-1.6-3.8c-0.1-0.4,0.2-0.8,0.6-0.9c0.1,0.3,1.5,2.4,1.8,2.9
	c0.6,0.9,1,2.2,1.9,2.6l-3.3-5.7L73.9,58l0.2-0.5L74,57.3h-0.3L74,57l-0.1-0.1l-0.3,0.2l0.2-1.4c0.9-0.6,1.4-1,2.3-1.7
	c0.4-0.3,1.7-1.7,2.1-1.7c-0.2,0.6-0.3,0.2-0.3,0.7v1c0,0.5,2.2,1.9,2.7,2.8l-0.6,0.1l0.9,0.8l0.1-0.1l0.1,0.1L81,57.8l0.7,0.7
	l0.2-0.1L81.5,58l-0.2,0.1c-0.1-1.2-1.2-0.3-0.7-1.3c1.2,0.8,6.1,5,6.7,6.1l-0.6-0.4L85.9,63l-3.5-3.6l0.5-0.3l-0.5-0.2v0.5
	c-1.4-0.7-0.2,0.1-1.1-0.9c-0.3-0.3-0.6-0.5-1-0.8c-0.8-0.8-1.1-0.7-1.9-1.8h0.6l-0.4-0.5l-0.2,0.5l-0.4-0.3c0-0.8,0.2-0.8-0.4-1
	C77.8,55.7,77.6,56.8,77.1,57.9 M87.6,67.2l0.3,0.8l-1.1-0.5c0.4-0.8,0.2-0.7,1-1.2L88,67L87.6,67.2z M70.3,68.7l-0.2,0.2l0.2,0.1
	l0.2-0.1L70.3,68.7z M70.3,67.6L70.3,67.6 M70.5,68.3l-0.1,0.5l0.4,0.2c-0.5,0.7-0.4,0.2-0.7,0.6c-0.1,0.1-0.2,0.6-0.4,0.9l-0.6-0.4
	c0-1.4-1.7-8.7-2.4-9l0.2-0.7l0.6-0.2l1.1,2.1l1.6,5.4l0.1-0.4l0.7,0.5L70.5,68.3z M70.8,67.6L70.8,67.6 M94.6,74.2l0.6-1.4h0.4
	c0.2,0,2.1-2,2.8-2.3c1.3-0.7,1.4-1.9,3.3-1.9c0.3-0.2,0.9-0.8,0.9,0v0.2c0,1-1.2,0.3-1.7,1.5c-0.3,0.8-1.1,1.1-1.9,1.5
	c-0.7,0.4-1.5,0.8-2.2,1.3c-0.4,0.4,0,0.8-0.8,0.9S95.4,73.7,94.6,74.2 M63.4,70.8v1.7H63c-0.2,0-0.5-0.1-0.7-0.1
	c0.1-1.5,0.4-3,0.7-4.5c0.2-0.8,0.2-4.1,1.1-4.1H65c1.4,0,1.3,3,1.6,4.2c0.1,0.8,0.3,1.7,0.5,2.5c0.2,0.5,1.1,1.9,0.2,1.9h-0.4
	c-0.6,0-0.6-1.3-0.6-1.8c-0.3-0.2-0.2-0.3-0.6-0.3h-0.8C64.3,70.2,63.4,70.2,63.4,70.8 M34.3,69.8l0.8-0.1l0.1-0.1l1.2,2.6
	c-0.1,0.1-0.2,0.1-0.3,0.2C35.3,72.3,34.3,70.7,34.3,69.8 M32.4,69.8v0.4h-0.4l-0.3-0.7c0.2-0.4,0.3-0.9,0.3-1.3l-0.1-0.4l0.2-1.7
	l1,0.3l0.1-0.2l0.1,0.2c0,0,0,0,0,0.1c0,0,0,0.1,0,0.1c0.1,0.2-0.1-0.1,0.2,0.2s0.4,0.2,0.4,0.6v1.4c0,0.3-0.1,0.3-0.3,0.6l0.6,1.4
	l-0.2,0.1c0,0-0.1-0.1-0.1-0.2l-0.1-0.2c-0.1-0.2-0.2-0.2-0.4-0.3C33,69.8,33.2,69.8,32.4,69.8 M64.9,71.6l0.4-0.1l0.1-0.1l1.2,1.8
	c-0.8,0-0.7,0.4-0.7,1.4c0.3,0.1,0.4,0,0.4,0.4v0.4c-0.8-0.2-0.6,0.6-1.1,1.4c-1-0.5-0.8,0.1-1.3-1.2c-0.3-0.6-0.4-1.2-0.4-1.8
	L63,73.3h0.6v0.3H64c0.7,0,0.6-0.9,0.6-1.6v-0.3l-0.3,0.2v-0.3H64l0.1-0.4h0.5l0.4-0.4L65,70.9l0.2,0.1h0.1L64.9,71.6z M92.3,72.3
	L92.2,73c-0.7,0.3-1.3,0.6-2,1s-1,1-1.6,1.4c0.5-2.1,1.8-2.1,2-2.8c-1.3,0.1-1.2,0.7-1.8,1.5c-0.5,0.7-0.9,1.5-1.1,2.3v0.5l0.4-0.2
	c-0.1,0.7-0.8,1-1.6,1c0.3-1.2,1-1.7,1-3.7c0.5-0.8,1.1-2.2,1.9-2.7c1-0.7,2.1-1.2,3.3-1.4L92.3,72.3z M36.4,72.3
	c1.2,0,1.6,0.2,1.6,1.4v0.8h0.4v-1c1.5,0,1.4,1.1,1.8,2.1c0.3,0.7,1.2,1.8,1.3,2.7c-1.5-1-0.2-1.6-3-1.6c-0.5-0.7-0.1-0.9-0.8-1.4
	c-1-0.8-0.2-1.1-0.9-1.6l0.2,0.8c-0.2,0.1-0.5,0.2-0.7,0.3c-0.6,0-0.6-0.7-0.6-1.2L35,73.1h-0.7c-0.2-0.1-0.6-0.3-0.6-0.6
	c0-0.6,0.4-0.8,0.5-1.6l2.6,2.6l-0.1,0.1l0.7-0.2L36.4,72.3z M88.9,78.3h-0.5l0.4-1.6c0.2,0,0.4,0.1,0.4,0.1c0.4,0,2.9-1.2,3-2
	c-0.7,0.1-1.7,1.5-3.3,1.6c0.4-1.7,4.3-4,6.1-4.4C94.9,73.8,91.1,78.3,88.9,78.3 M98.1,72.9c1.7,0.1,2.5-1.8,3.5-2.6
	c0,1-2.5,3-3.3,3.4c-0.3-0.2-0.2-0.3-0.6-0.3h-0.4c0.1-0.5,1.7-1.5,2.1-1.6l0.1,0.2L98.1,72.9z M68.7,72.4L67,64.8l-0.4-0.2l0.3-0.1
	c0-1.7-1.1-1-1.1-2.3v-0.4c0-0.5,0.3-0.5,0.7-0.6c1.3,3.5,2.1,7.1,2.4,10.8l0.1,0.7l0.7-0.4l0.2,0.6c0-2,0.7-1.8,1.1-3.1
	c0.2-0.5,0.4-1.1,0.6-1.6c0.2-0.7,0.9-0.8,0.7-1.3h0.2l0.7-0.4l-0.2-0.4l0.1,0.1l0.4-0.8c-0.2,0.1-0.5,0.2-0.7,0.3
	c-0.3,0-0.4-0.3-0.4-0.6L72,65l-0.3,0.4c0.2-0.8-0.1-1.7-0.7-2.3c0.2-0.3,0.1-0.6,0.6-0.6s0.3,0.1,0.6,0.3l0.3-0.6l0.6,0.4l-0.3-0.7
	c-0.1-0.7-0.6-0.9-0.6-1.4c0.2-0.3,0.3-0.7,0.6-1l0.4,0.1c-0.3,0.7,0.4,1.6,1,1.9L74,62l1,2.4l0.1-0.1V65L74,64.3l-0.3-0.1l0.1,0.8
	l0.4,0.6H74l-0.3,0.7l0.3-0.2c1-0.5,2.1-0.7,3.1-0.6c0.4,0,0.7-0.2,1-0.4c0.5,0.8,1.3,1.4,2.3,1.6h0.1c0.4,0,0.9-0.1,1.3-0.3
	c0.5,0.3,1.6,1.3,2.3,1.3H85c0.3,0,0.3-0.1,0.6-0.3c0.4,0.2,1.8,1.3,2.4,1.3h0.4c0.7,0,0.9-1.3,0.9-2c0-0.9-0.3-1.8-0.9-2.6
	c-0.2-0.4-0.4-2-0.8-2.7c-0.8-1.4-0.3-1.5-0.8-2.7c-0.2-0.5-1.2-2.3-1.2-2.4v-1.9c0-2,1.1-1.9,2.1-2.6l0.3-0.3l-0.1-0.1l-0.3,0.2
	v-0.7h-0.1v0.4l-0.6-0.2l-0.3,0.4l-0.2-0.1l0.3-0.3c-1.1,0.2-3.5,0.1-4-0.6c0.2-0.2,0.3-0.6,0.7-0.6s0,0.3,0.9,0.3L84,49.8l3,0.2
	c0.2,0.2,0.3,0.6,0.7,0.6h0.4l-0.1,0.6v0.2l0.4-0.5l0.2-0.2l1.5-0.4l-0.8-0.6l-3.3-0.1c0.2-0.8,2-1.4,3-1.4c0.2,0,0.3,0.2,0.3,0.4
	S89.2,49,89,49.3c0.9-0.1,0.7-1,1.3-1h0.2c0.2,0,0.4,0.1,0.4,0.3c0,0.4-0.2,0.4-0.4,0.6c0.1,0.4,0.1,0.3,0.1,0.6
	c0,0.1-0.2,0.3-0.3,0.4c0.8-0.1,1-0.8,1.5-1.2c0.6-0.7,1.2-0.5,1.9-0.9s0.8-1.3,1.3-1.6c0.7-0.3,1.4-0.5,1.5-1.4
	c-0.7-0.2,0.3,0-0.6-0.6c-0.2-0.2-0.9-0.3-0.9-0.6c0-0.7,1.7-1,2-2.1h3.1c0.7,0,0.3,0.4,0.3,0.9v1.3c0,1.5,1,1.3,1,2v1.3
	c-0.3,1.3-0.8,2.6-1.4,3.8l-0.2,1.7v0.4c0,0.7,0.4,0.8,0.4,1.3c0,0.9-1.1,1.3-1.5,2.6c-0.3,0.9-0.6,2.5-0.7,3.4
	c-0.4,2-2.8,3.5-3.5,4.9c-0.5,0.9-0.9,1.9-1.2,2.9c-0.3,1-1.4,1.5-2.4,1.9c-1.7,0.8-3.8,2.3-3.8,4.6c-0.9,0.6-3,1.3-4.2,1.9
	c-2.4,1.2-1.8,2.4-3,3.1l-3.4,0.5c-0.6,0.1,0.2-1.3-0.8-1.9s-1-0.2-2.2-0.2c-0.3,0.3-0.6,0.4-1,0.4L72,78.5l-4,0
	c-0.6,0.3-0.9,0.8-1,1.4v0.4c0,1.1,1.4,1.4,1.4,2.1V83c0,0.3-0.2,0.6-0.4,0.6c-0.6-0.1-1.2-0.3-1.7-0.7c-0.7,0-0.5,0.1-1,0.1
	s-1-0.3-1.3-0.3c-0.7,0-2.1,1-2.1,0.1s0.6-1,0.6-1.8c0-2.4-2.8-1.6-4.5-2.2c-0.9-0.3-1.8-0.5-2.8-0.5c-0.9,0-1.7,0.5-2,1.4
	c0,0.7,0.2,0.8,0.3,1.4c-0.6-0.1-1.2-0.3-1.7-0.6c-0.5-0.4-1.1-0.7-1.7-0.7c-1.8-0.1-0.7-2.1-2.8-1.6c-1.2-0.7-2.2-1.5-3.2-2.4
	c-0.9-0.9-1.3-0.5-1.9-1s-0.3-1.2-1.3-1.6c-1.3-0.4-0.8-0.1-1.7-1c-0.6-0.6-1.3-0.9-1.6-1.2c-0.9-0.9-1.5-2.3-2.6-3.1
	c0-1.8-1.7-2.3-2.5-3.7c-0.4-0.6-0.8-1.3-1.1-2c-0.3-1.3,0-1.5-0.6-2.7c-0.3-0.7-1-1.2-1.2-2c-0.3-1.6,0.2-1.2-0.6-2.5
	s-0.5-0.8-0.5-2.6c0-0.7-0.4-2.5-0.4-2.8v-1.2c0-0.6,0.3-0.5,0.3-1.1l-0.1-0.8l0.2-3.7h-0.7l-0.1-0.2c0,0,0.2-0.1,0.2-0.1
	c0.2-0.1-0.1,0,0.2,0h0.4c0.5,2,2,1.4,3.8,1.4c0.6,0.8,1.5,1.2,2.4,1.1l0.3,0.7h-1.3c-0.8,0-2,0.5-2,1.3s2.4,1.4,3.4,1.4h1
	c-0.1,0.4-0.3,0.6-0.3,0.9c0,0.6,1.1,0.8,1.7,0.8h0.1h1.4v0.4c0,1,1,1.4,1.9,1.5c1.3,0.3,1,1,2.3,1.1l-0.8-0.8l-0.1,0.1
	c0.1-1,0.6-0.7,1.4-0.9c0.5-0.3,1.1-0.6,1.6-0.8h1.6c0.3,0,0.5,0.3,0.7,0.4l-2.4,1c0.7,0.7-0.1,0.3-0.3,0.3c-0.4,0-0.8,0.2-1.1,0.4
	L43.1,53l0.6,0.3l-0.5,0.1l0.9,1.8l0.2-0.1c-0.3,0.5-0.6,0.5-0.6,1.4v0.1c0.1,0.3,0.3,0.7,0.4,1c-0.3,0.5-1,1-1,1.7v0.8
	c0,0.4,0.1,0.3,0.4,0.4c-0.2,0.9-2,1.7-2,3.8v0.1c0,0.2,0,0.4,0.1,0.6c-0.3,0.5-1.4,1.8-1.4,2.4c0,1.4,1.6,1,2.6,1.4
	c1.1-0.3,2.2-0.5,3.3-0.6c0.9-0.3,1.8-0.7,2.5-1.3c0.3,0.1,0.7,0.1,1,0.2c1.1-0.1,2.2-0.5,3-1.3c0.4,0.1,0.3,0.1,0.6,0.1
	c0.5-0.1,1-0.3,1.4-0.6c0.5,0,0.8,1.9,2.1,1.3V68c0.4,0.4,0.9,0.6,1.4,0.7h0.4c0,1.5,0.2,2.8,1.7,2.8V72c0,1.7,0.5,3,2.1,3.1
	c1,0.1,0.6,0.6,1.1,1.4c0.4,0.5,1,0.9,1.6,1.1h0.3c1.1,0,1.3-1.9,2.2-2.3c1.1-0.5,2-0.8,2.1-2.3c-0.2-0.5,0.2-0.2-0.6,0L69,72.9
	l-0.1,0.5l0.4,0.3H69c0.1,0.5,0.1,0.8-0.6,0.4c-0.6,0-1,0.6-1.6,0.6c-0.3,0-0.4-0.1-0.4-0.4V74c0-0.9,1.1,0,2-0.4L68,73.5V73
	c0-0.2,0.1-0.5,0.2-0.7c0.2,0.1,0.4,0,0.4,0.3c0,0.5-0.1,0.3-0.1,0.9h0.3L68.7,72.4L68.7,72.4z M30.7,73.7c0-0.2,0.2-0.3,0.4-0.3
	h0.6c0.5,0,0.5,0.4,0.7,0.7c-0.1,0.2-0.2,0.6-0.4,0.6S30.7,74,30.7,73.7 M34.3,75h-0.7L33,75.5c-0.1-0.2-0.2-0.2-0.2-0.4v-0.3
	c0-0.3,1.7-1.3,1.7-1.3C35.5,73.6,34.4,74.7,34.3,75 M29.6,74C29.6,74,29.5,73.9,29.6,74C29.5,73.9,29.5,74,29.6,74 M29.4,73.7
	l-1.3-0.4L28,72.6c0.9,0.4,0.9,1,2.1,1c-0.1,0.3-0.1,0.5-0.5,0.5C29.1,74.2,29.4,73.9,29.4,73.7 M29.4,75.2c0-0.4,0.4-0.6,0.7-0.6
	s1,0.7,2.1,0.7c0.3,0.6,0.4,1.4,1.4,1.4c0.2,0,0.5-0.1,0.7-0.1l-0.1,1.2L33.1,77c-0.4,0.1-0.3,0.2-0.6,0.2
	C31.4,76.7,30.3,76,29.4,75.2 M79.8,82.8h-0.5l1-2.4l-0.2-0.1c1.2-0.6,0.9-1.8,2.2-2.8s2.2-1,3.3-1.8h0.6l0.6-0.3
	c0.3,0.7-0.5,1.8-0.9,2.3c-0.7,0.5-1.5,1-2.4,1.3c-0.8,0.3-1.6,0.8-2.1,1.4C80.9,81.1,80.3,82.8,79.8,82.8 M41.2,76.3
	c0.7,0.6,1.3,1.5,1.6,2.4C41.9,78.2,41.4,77.3,41.2,76.3 M42.6,77.2l0.7-0.8c1,0.7,2.5,3.3,3,3.3c0.7,0,0.1-0.5,0.9-1
	c1.7,0.9,0.5,0.3,1.3,1.2c0.6,0.5,1.3,0.7,2,0.6c0,1.8,1.7,1.7,2,2.8c-0.8,0-0.7,0.3-1.1,0.3c-0.6,0-0.4-1.3-2.3-1.3
	c-0.4-0.4-0.8-0.8-1.3-1.2l-1.3,0.2c-0.2-0.3-0.7-1.1-1.1-1.1h-0.6c-0.5,0-0.3,0.3-0.6,0.3c-0.4,0-0.7-0.3-0.7-0.7v-0.4L44,79
	L42.6,77.2z M38.2,77.5l1.3-0.2c0.4-0.1,1.5,1.4,1.8,1.8l-1.4,1L39.8,80v-0.3c-1,0-0.4,0.3-1,0.3s-0.7-0.3-1.1-0.6
	c0-0.5,0-1.4-0.4-1.4c-0.8,0-0.8,0.3-1.6,0.3c-0.5,0-0.7-0.6-0.7-1s0.3-0.5,0.3-0.9c0-0.2-0.6-0.6-0.8-0.6c-0.5,0-0.3,0.1-0.8,0.2
	l-0.1-0.2l1.6-1L35,74.7h0.3c0,0.4,0.1,0.8,0.6,0.8H36c0.3,0,0.6-0.1,0.9-0.2l1.1,1.1l-0.2,0.7l-1.4-0.8c0.1,0.9,1.2,1.4,1.8,1.8
	c0.8,0.5,1.3,1,2.1,1.6l0.1-0.1L38.2,77.5z M85,80.3l0.1-0.2L85,80l-1.4,0.9l0.1,0.2L85,80.3z M82.5,83.1c-1.4,0-1.4,0.5-1.4-0.4
	v-0.4l2.6-1.3l-0.1-0.2l-2.2,0.8c0.2-1.7,4.9-3.1,6.4-3.8C87,80.9,84.7,81.6,82.5,83.1 M32.6,78.4c0-0.3,0-0.2,0.1-0.6
	c1,0.3,1.8,0.9,2.4,1.7h-0.6C34.1,79.6,32.6,78.7,32.6,78.4 M36.1,79.1c0.3-0.2,0.3-0.3,0.6-0.3h0.4L37,79.9L36.1,79.1z M93.3,77.9
	l0.6-0.9l-0.7,0.8L93.3,77.9z M90.9,80.3l-0.4-0.1c0.6-0.8,2.3-1,2.7-2.3c-1.3,0.9-1.2,1.1-3.2,1.6l0.2,0.8l-2,0.1l-1,0.2
	c0.3-1.1,0.6-1.1,1.7-1.3c0.7-0.3,1.4-0.6,2-1c1.2-0.8,2.2-1.8,3-3.1h0.7l0.5-0.4c1,0,0.9-0.3,1.6-0.3c0.2,0,0.4,0.1,0.4,0.3
	c0,0.9-2.4,4.2-3.4,4.3c-0.1-0.4-0.1-0.1-0.9,0.2c-0.4,0.2-0.9,0.6-0.8,0.8l-0.1,0.2l-0.1-0.1L90.9,80.3z M40.5,81
	c0.1-0.8,0.7-1.5,1.6-1.5v0.4v0.3L40.5,81z M35.3,79.8c0.7,0.4,1.8,1,2,1.8h-0.4C35.9,81.5,35.2,80.7,35.3,79.8 M67.6,80.2
	c0-0.6,1.5-1.3,2-1.2l3.8-0.1c0.3-0.2,0.2-0.3,0.6-0.3h0.8c0.2,0,1,0.3,1,0.7v1c0,0.3-0.6,0.8-0.8,1.3c-0.1,0.5-0.3,1.1-0.6,1.6
	c-0.8,1-1.8,0.9-3.2,1.2c0.5-1,1.4-0.9,2.1-1.7c1.2-1.4-0.1-1.4-1.4-1.4h-0.4c-0.3,0-1.1,1.1-1.3,1.4l-0.8-0.1c0,0.3,0,0.7,0.3,0.7
	c0.3,0,0.7-0.1,1-0.1l0.1,0.1L68.4,85l-1.2,0.2l-0.4-0.3c0-1.3-0.5-0.8,0.7-0.8h0.7c0.4,0,0.7-0.6,0.7-0.7l-0.2-1.4
	C68.4,81.6,67.6,80.9,67.6,80.2 M37.7,80.3c1.1,0.5,0.8,0.3,2,0.3c0.1,0.2,0.1,0.5,0.1,0.7v0.4C39,81.7,37.8,81.1,37.7,80.3 M54,80
	c0-0.5,0.3-0.9,0.7-1.1c0.8,0.4,2.3,0.2,3.8,1c0.2-0.1,0.4-0.2,0.6-0.1h0.1c1-0.1,2,0.2,2.7,1l-1,2.4l1,1.2l0.1-0.1l-0.6,2.3
	c-0.8-0.5-0.2-0.4-1.3-0.8c-0.7-0.2-1.1-0.3-1.4-0.7l-0.6,0.1l-0.1-0.9l0.4,0.6l0.3-1.1v-0.1l-2-0.3v0.2C54.6,83.1,54.1,82.5,54,80
	 M78,82.8h-1.6c-0.2,0-0.4-0.1-0.4-0.3c0-1.4,2.5-0.8,2.6-2.3h1.1C79.6,81.2,78.6,82.8,78,82.8 M40.8,81.6l1.7-1.1v-0.9
	c0.3,0.3,0.6,1.6,1.6,1.6c0.5,0,0.3-0.4,0.8-0.4c0.9,0,0.6,1.4,1.4,1.4h0.1c0.5,0,0.2-0.3,0.7-0.3h0.1c0.3,0,1.3,0.9,1.4,1.1
	l-0.4,0.8l-4.2-2.1c0.1,0.9,0.8,1.1,1.6,1.4c0.7,0.4,1.5,0.7,2.2,0.9c-0.1,0.9-0.4,0.4-0.4,1v0.6c0,0.4,0.5,0.7,0.7,0.8h1.8l0.4,1
	c-0.4-0.1-0.3-0.1-0.6-0.1c-0.2,0-0.5,0.1-0.7,0.1c-1-0.5-2.4-0.9-3-1.6l-3.5-1.2l-0.1,0.3c-0.7-0.5,0.5-0.4-0.7-0.4v0.4
	c0,0.8,0.7,0,1,0.8h-1c-0.6,0-0.8-1-0.8-1.7l0.7-0.2c0.5,0.2,1,0.4,1.6,0.6c1,0,0.5-0.5,1.4-0.6c0.1,0.5,0.2,1.3,0.9,1.3h0.3
	c0.6,0,1.2-0.3,1.4-0.8c-0.9,0-0.9,0.3-1.3,0.3c-0.9,0-0.4-1.3-1.3-1.3h-0.4c-0.5,0-0.4,0.4-0.7,0.4c-0.7,0-0.4-0.9-0.7-1.6
	C42,82.2,41.3,82.2,40.8,81.6 M52.6,81.7l1.1,0.2l0.2,0.8l-0.1,0.1L52.6,81.7z M71.3,82.4c0.1-0.3,0.1-0.6,0.6-0.6s0.3,0.1,0.4,0.4
	L71.3,82.4z M39.3,82.4l0.1-0.3H40c0.7,0,1.2,0.6,1.8,0.6h0.9C42.5,83.6,39.6,82.9,39.3,82.4 M87.5,83.9l-0.7-0.1l-3.3,1.4
	c0.2-0.8,0.8-1.1,1.8-1.1l1-0.7c0.9,0.2,1.9-0.8,2.1-1.6l-0.1-0.1l-1,1.1c-1.3,0-1,0.6-2.4,1c-0.4,0.1-2.4,0.7-2.7,0.7
	s-0.5-0.3-0.6-0.6h0.4c1.4,0,4.3-2.4,5.4-3.1l1.1,0.2h1.1c-0.1,0.9-0.9,0.8-1.1,1.6C88.5,83.6,88.2,82.5,87.5,83.9 M88.6,82.7
	c-0.2-0.2-0.5,0.2-0.2,0.1l0,0C88.5,82.8,88.6,82.8,88.6,82.7 M49.5,83.6l0.2,0.4c-0.2,0.5-0.6,0.8-1.1,0.8c0.3-0.7,0.4-1.5,1.1-1.7
	L49.5,83.6z M75.5,85.4l1.4-1L74.4,85c0.3-0.5,1.1-0.8,1.1-1.3v-0.4h1.1l2.7,0.2c-0.2,0.6-0.1,0.4-0.8,0.5L75.5,85.4z M52.8,85.9
	c-0.3,0.5-0.7,0.8-1.2,0.9c-0.3,0-0.3-0.1-0.6-0.3c0-0.4,0.1-0.9-0.3-0.9c-0.7,0-0.9,0.3-1.3,0.3c-0.3,0-0.5-0.1-0.7-0.3
	c0.5-0.8,1.4-0.6,1.4-2c0.3,0.3,0.6,0.5,0.9,0.7c0.5,0,0.6-0.4,1.3-0.4h0.1c0.7,0,0.6,1,1.3,1.4c0.4-0.2,0.6-0.8,0.8-0.8
	s1,0.5,1,0.7c0,0.5-0.6,0.6-1,0.9l-2.8-1l-0.1,0.2L52.8,85.9z M53.1,86.3l1,0.3v0.6C53.5,87.1,53.3,86.7,53.1,86.3 M64.6,87.7V88
	l0.2,1.6c-0.3-0.1-0.4,0-0.4-0.4v-1.6H64l-0.1,2.3c-0.4,0.2-0.8,0.4-1.3,0.6H62c0-1.1-0.4-0.6-0.1-2c0-0.7,0.2-1.4,0.4-2
	c0.3-0.6,0.9-3.1,1.8-3.1c0.6,0,0.5,0.3,1.1,0.3h0.4c0,2.1,1.7,4.3,1.7,5.8v0.4c-1.6-0.4-1.6-0.8-1.6-2.7c-0.3-0.2-0.2-0.3-0.6-0.3
	S64.6,87.3,64.6,87.7 M81.7,84.9L80.1,86l0.1,0.2l1.6-1.2L81.7,84.9z M78.2,87l1.8-1c-0.8,0.1-0.7,0.4-1.4,0.4h-1.6
	c0.5-1.1,1.6-1.8,2.8-1.8h1.4c0.4,0.1,0.7,0.3,0.9,0.6l-1.5,1L78.2,87z M71.4,89.5l0.7,0.1c0.4-0.2,1.4-1,2-1c0.2,0,0.5,0.1,0.7,0.1
	c0.9-0.6,1.9-0.9,3-1h0.3c0.3,0,0.6,0.2,0.6,0.4c0,0.8-1.8,1.5-2.1,2c0.5,0.7,1-0.6,1.4-0.6h1.4c0.2,0.1,0.7,0.3,0.7,0.6
	S78,92,79.4,92c0.5,0,1.1-0.9,1.4-1.1c1.7,0,2.1,0,3.1-0.7h0.7c-0.8,1.2-2.7,1.4-4.1,2.1l-0.1,0.2l2.2,1.3h-0.6
	c-0.7,0-1.4,0.4-2.1,0.4c-1.7,0-1.5-0.5-1.5-2l-2,1.2l-2-0.5c0-1.9-1.4-1.4-2.7-1.4H71c-0.6,0-0.5-0.3-1.1-0.3h-0.6
	c0.2-0.5,0.3-1,0.3-1.6v-0.3c0-1.5-2.5-0.7-2.6-2.5l2.6-0.4v0.1l0.7-0.6H71c0.1-0.1,0.4-0.3,0.4-0.3c0.3,0,0.3,0.1,0.6,0.3h1.7
	c0.3,0.3,0.4,0.6,0.4,1c0,1-2.8,1.7-2.8,2.7 M55.9,87v-0.1c0-0.6,2.3-0.9,2.9-1c1-0.1,1.9,1.1,2.5,1.2c0,0.9-0.9,1.2-1.7,1.3l0.5,1
	c-0.7-0.2-1.6-0.7-2-0.7c-0.2,0-0.4,0.1-0.4,0.3c0,0.5,0.7,0.8,1,1l0.2,1.1c0.1,0.3-1,0.4-1.4,0.4H55c-0.8-0.2-1.4-0.6-1.8-1.3h-0.7
	c-0.1-0.1-0.8-1.1-0.8-1.1c0-0.3,0.1-0.4,0.4-0.4h0.4c0.4,0,0.5,0.4,1.2,0.6c0.5,0.1,1.1,0.1,1.6,0c0.3-0.2,1.3-0.7,1.3-1.1
	C56.6,87.6,55.9,87.6,55.9,87 M45.8,90.4c0.8-0.4,1.1,0,1.8,0c1.1,0,1.1-0.6,1.6-0.6h0.1c0.7,0,0.6,0.4,1.6,0.4
	c0.8,0,0.9,0.2,1.3,0.7h0.7l2,2l-0.1,0.1h-0.9c-0.8,0-1.2,0.2-1.7,0.2c-0.5-0.1-1-0.2-1.4-0.4h-0.2c-0.3,0-0.6,0.2-0.6,0.5
	c0,0,0,0,0,0c0,0.5,0.1,0.1,0.3,0.8l-1.6,0.2c-0.2,0.1-0.7,0.6-1,0.6h-0.6c0.2-0.9,0.4-1.7,0.7-2.6c0-0.6-0.3-0.7-0.6-1.1
	C46.3,91.2,46.1,91,45.8,90.4"/>
</svg>
