<svg xmlns="http://www.w3.org/2000/svg" viewBox="0 0 17.55 17.61"><defs><style>.cls-1{fill:#623c25;fill-rule:evenodd;}</style></defs><title>4_d_h</title><g id="Layer_2" data-name="Layer 2"><g id="Layer_1-2" data-name="Layer 1"><path class="cls-1" d="M11.87,11.19h-.15c-.13-1.58-.8-2-2.29-2.4v-.1a1,1,0,0,1,.44-.1H10a1.9,1.9,0,0,1,2,1.86v.3a1.49,1.49,0,0,1-.1.45m-.7.3h-.4a2.33,2.33,0,0,1-1.4-.85c-.24-.31-.72-1.45.06-1.45h.14a2.37,2.37,0,0,1,1.8,1.9c0,.18,0,.4-.2.4m-.7.66-.9-.05c-.52-.36-1.14-.68-1.14-1.56v-.15c0-.31,0-.68.25-.7a2.06,2.06,0,0,0,2.14,2.16c0,.17-.13.31-.35.3M6.23,6.88H6.18c-.4,0-.69-.2-.69-.55a.64.64,0,0,1,.64-.7h.1c.69,0,.69,1.25,0,1.25M16.85,2.67a2,2,0,0,0-1.39.55,4.69,4.69,0,0,0-.9,1c.34-.08.9-.65,1.35-.65h.35a.87.87,0,0,1,.79.8v.15c0,.27-.23.6-.49.6s-.42-.45-1.3-.45h0c-.86,0-2.27,1.32-2.9,1.75a5.44,5.44,0,0,1-3.53,1c.94.83,2.67.27,3.57-.22a6.34,6.34,0,0,1,1.73-.55c.88.06,1.51.06,1.68-.68h.15c.14,0,.35.27.35.45v.35a1.05,1.05,0,0,1-.9,1c.1.16.68.31,1,.49.68.46.22.21,1.08.42,0,.64-.34.95-1,.95l-.1.15c.37,0,.89.78.89,1.25v.35c0,.23-.19.4-.19.61a2.41,2.41,0,0,0,.2.8c-.06.11-.05.2-.2.2h-.35a1,1,0,0,1-.9-1.05c-.28.07-.81,1-1.87.87a2.08,2.08,0,0,1-1-.41,2,2,0,0,1-.58-.82v-.55A1.44,1.44,0,0,1,14.47,10a1.09,1.09,0,0,1,.47,1.24,1.22,1.22,0,0,1-1,.88h-.1a.89.89,0,0,1-.89-.91v0a.87.87,0,0,1,.79-.75H14a1.69,1.69,0,0,1,.53.22c.14.12-.05.37.17.53,0-.74-.26-1.1-.95-1.1a1.26,1.26,0,0,0-1.14,1v.4a1.37,1.37,0,0,0,1.37,1.19,1.6,1.6,0,0,0,1.59-.91,2,2,0,0,0-.14-2,2.85,2.85,0,0,0-1.6-1c-1.18-.4-3.28-.16-4.41-.58a4,4,0,0,1-1.59-1,3.32,3.32,0,0,1-.91-1.74V4.77c-.3,0-.53.61-1.69.61a6.1,6.1,0,0,0-.25.85c-.1.41-.35.55-.38.77s.43,0,.68.07a4.64,4.64,0,0,1,.9.25A3.78,3.78,0,0,1,8.06,10a13.51,13.51,0,0,1,.27,2c.09.71.14,1.23.25,1.91a3.68,3.68,0,0,0,.83,1.42,1.89,1.89,0,0,0,1.56.54,1.6,1.6,0,0,0,1.55-1.61v0a1.43,1.43,0,0,0-1.41-1.47c-.54.07-.76.14-1,.48-.4.53-.18.59-.15,1.13l.64.51,0-.05c0-.12-.45-.44-.45-.7V13.8a.93.93,0,0,1,.95-.8c1.07,0,1.06,2.06-.3,2.06h-.25a1.17,1.17,0,0,1-1-1.21c0-1.93,3.2-1.9,3.2.2,0,1.24-.59,1.23-.7,1.66.49.11,1,.39,1,.95V17a.5.5,0,0,1-.34.35c-.29,0-.31-.21-.78-.13a2.22,2.22,0,0,1-.88,0c-.42-.13-.36-.06-.68-.32-.14-.11-.42-.37-.61-.39a1.25,1.25,0,0,1-.89,1.1c-.32-.21-.08-.56-.52-1-.25-.28-.46-.88-.6-1l0,.2c-.32.22-.4.6-1,.6h-.2c-.25,0-.6-.06-.6-.3v-.05c0-.24.51-.18.48-1.27a6.06,6.06,0,0,1,.16-1.5c.3-.92,1-1.44,1-2.65,0-.56-.13-1.64-.45-1.85a4.42,4.42,0,0,1-.12,1.88,6.68,6.68,0,0,1-.74,1.62c-.35.56-1.73,2.31-1.73,2.92v.1c0,1.1.6,1,.6,1.35s-.66.65-1,.65-.75-.57-.75-1c0-.65.59-1.13.7-1.56a3.69,3.69,0,0,0-.84.67c-.31.29-.35.68-.69.89l.08.7v.3c0,.27-.51.35-.8.35s-.5-.34-.57-.62a.91.91,0,0,1,.19-.92c.22-.34,1.18-1,1.23-1.22a4.37,4.37,0,0,1-1.14.36C1,15.25.93,15,.55,15s-.46.26-.49,0a1,1,0,0,1,.17-.54c.34-.51.65-.47.82-.73C.71,13.47.1,13.09.1,12.6v-.15c0-.9,1.25-1.47,1.64-.71-.1.2-.34.43-.34.66v.45c0,.42.53.9.86,1a3.13,3.13,0,0,0,1.53.17A3.14,3.14,0,0,0,6,12.45c-.32,0-.87.9-2.09.9h-.2c-.61,0-1.57-.7-1.58-1.24s.52-1.57,1.21-1.57l-.08.65c0,.44.68,1.16,1.1,1.16h.15c.23,0,.5-.06.55-.25-.44,0-1-.13-1-.66,0-.36.2-.75.55-.75.15,0,.33.3.85.3h.1a1.55,1.55,0,0,0,1.4-1.86c-.1-.86-.76-1.8-1.6-1.8h-.2c-.43,0-.59.15-.95.15-.28.42-.7.48-.7,1.36v.1A1.18,1.18,0,0,0,4,9.86c.48.33.91.06,1.27.23-.06.21-.25.25-.5.25A1.57,1.57,0,0,1,3.36,8a8.63,8.63,0,0,1,1-1.13,2,2,0,0,0,.52-1.64l.09-.11c2.26,0,1.92-1.9,3.54-1.9h.1a1.67,1.67,0,0,1,1.69,1.55c0,.59-.46,1.31-1,1.31h-.1c-.61,0-1.33-.56-1.26-1.11L8,4.52c.29-.19.3-.5.9-.5H9a.88.88,0,0,1,.74.75v.3c0,.17-.32.49-.39.61.95,0,.88-2.16-.8-2.16H8.53c-.56,0-.74.31-1,.55s-.22,1.1-.35,1.31c.37.55.06.79.83,1.37.61.48.88.37,1.66.33a1.62,1.62,0,0,0,1.22-1c.47-.95-.37-1.49-.37-1.63V4.32c0-.22.43-.5.7-.5h.1c.43,0,.44.23.7.4l-.05-.45c-.29-.2-.24-.39-.72-.58s-.82.13-1,.06.54-1.13,1.33-1.13h.1a1.53,1.53,0,0,1,1.4,1.4v.6c0,.27,0,.31-.21.41l.1.14c-.14.28-.18.49-.29.76s-.33.35-.4.65a3.17,3.17,0,0,0,1.49-2.61c0-.83-.36-2.16-1.39-2.16h-.2c-.37,0-.46.35-.65.35h-.1c-.15,0-.2-.14-.2-.3V1.21a.54.54,0,0,1,.1-.3.9.9,0,0,1-.05-.3v0c0-.23.52-.58.8-.56l.65.06a2.68,2.68,0,0,1,.48.42c.16.22.15.46.41.48a1.2,1.2,0,0,1,.9-.9c.11.23.19.64.3.8a1.35,1.35,0,0,1,.35.8c0,.51-.2.81-.2,1.21.44,0,.73-1.61,1.8-1.61.45,0,.69.27.69.76v.35c0,.33-.42.3-.6.3M14.56,4.32h0M5.79,9.24c-.32.08-.29.5-1,.5S4,9.31,4,8.74a1,1,0,0,1,.39-.57A.82.82,0,0,1,5.1,8a1.22,1.22,0,0,1,1,1,1.16,1.16,0,0,1-.48,1c-.54.3.17-.57.19-.77M1.19,7.62A1.53,1.53,0,0,0,.3,8.84v.25c0,.09,0,.09,0,.15.15-.12.33-.7.85-.71h.1c1.4,0,1.08,2,.2,2H1.15A1.28,1.28,0,0,1,0,9.14C0,7.89.91,7.77,1,7.33.66,7.31.1,7,.1,6.73s1-.8,1-1C.91,5.71.3,5.24.3,5V5c0-.4,1.14-.63,1.58-.53.25.06,1.46,1,1.46.53S2.23,4.19,1.6,4.12A2.41,2.41,0,0,1,.1,3.07a1.09,1.09,0,0,1,1-.55h.35c0-.25-.65-.32-.92-.78C.48,1.65.15.51.15.46V.36c0-.31,1.21,0,1.37.13.46.24.65.86.87.92,0-.42.29-1.2.6-1.2.62,0,1,.94,1.15,1.51s.2,1.8.75,1.8h.2c0-.14,0-.09,0-.2,0-.3-.72-.88-.8-1.46a.82.82,0,0,1,.13-.76c.09-.16.3-.64.47-.64s.54.43.6.65c.33,0,.45-.85,1-.85.28,0,.44.64.55.85.14-.09.41-.56.69-.76a1.24,1.24,0,0,1,1-.27c.83.11,1.47.46,1.47,1.33v.05a1.08,1.08,0,0,1-.89.91H9.13c-.52,0-.6-.35-.9-.56.09-.45,0-1.19.75-1.25V.41A1.3,1.3,0,0,0,7.61,1c-.53.72-.28.59-.45,1.56A2.87,2.87,0,0,1,6.55,4a2.28,2.28,0,0,1-1.26.73l-.8-.06C4.49,6.05,4.21,6.8,3,7.3c-.52.21-1.35.15-1.82.32m15.57,7.49c-.76,0-.78-.48-1.29-.6l-.11.09c.28,1.2,2.14.16,2.14,2.71,0,.13-.18.25-.25.25l-.94-.25a1.33,1.33,0,0,1-.69-.52c-.27-.59-.26-1.33-1.11-1.33,0,.31.23.31.38.52a2,2,0,0,1,.23.67.81.81,0,0,1-.81.91h-.15c-.23,0-.15-.4-.15-.65a10.16,10.16,0,0,1-.51-1,3.21,3.21,0,0,1-.19-1.37c0-1.61-.86-1.6-1-2.1.26-.13.61.46,1,.62a4,4,0,0,0,1.46.28,2.6,2.6,0,0,1,1.33.27,6,6,0,0,1,.57.28c.4.19.31-.05.64-.05.17,0,.2.14.25.25-.17.37-.12,1-.79,1"/></g></g></svg>