<svg xmlns="http://www.w3.org/2000/svg" viewBox="0 0 17.55 18.46"><defs><style>.cls-1{fill:#623c25;fill-rule:evenodd;}</style></defs><title>4_l_v</title><g id="Layer_2" data-name="Layer 2"><g id="Layer_1-2" data-name="Layer 1"><path class="cls-1" d="M11.87,11.73h-.15c-.13-1.65-.8-2.15-2.29-2.52V9.1A1.42,1.42,0,0,1,9.87,9H10a1.92,1.92,0,0,1,2,1.94v.32a1.56,1.56,0,0,1-.1.47m-.7.32h-.4a2.33,2.33,0,0,1-1.4-.89c-.24-.34-.72-1.53.06-1.53h.14a2.44,2.44,0,0,1,1.8,2c0,.19,0,.42-.2.42m-.7.68-.9-.05c-.52-.37-1.14-.71-1.14-1.63v-.16c0-.33,0-.71.25-.73.1,1.32.78,2.26,2.14,2.26,0,.18-.13.33-.35.31M6.23,7.21H6.18c-.4,0-.69-.2-.69-.58a.65.65,0,0,1,.64-.73h.1c.69,0,.69,1.31,0,1.31M16.85,2.8a2,2,0,0,0-1.39.57,5,5,0,0,0-.9,1.11c.34-.08.9-.69,1.35-.69h.35a.9.9,0,0,1,.79.85v.15c0,.28-.23.63-.49.63S16.14,5,15.26,5h0c-.86,0-2.27,1.38-2.9,1.83a5.24,5.24,0,0,1-3.53,1c.94.87,2.67.29,3.57-.23A6.09,6.09,0,0,1,14.08,7c.88.07,1.51.06,1.68-.71h.15c.14,0,.35.28.35.47v.37a1.09,1.09,0,0,1-.9,1.1c.1.17.68.32,1,.52.68.47.22.22,1.08.43a.88.88,0,0,1-1,1l-.1.15c.37,0,.89.82.89,1.32V12c0,.23-.19.41-.19.63a2.66,2.66,0,0,0,.2.84c-.06.11-.05.21-.2.21h-.35a1,1,0,0,1-.9-1.11c-.28.08-.81,1.08-1.87.92a2,2,0,0,1-1-.43,2.16,2.16,0,0,1-.58-.85v-.58a1.44,1.44,0,0,1,2.15-1.17,1.18,1.18,0,0,1,.47,1.31,1.24,1.24,0,0,1-1,.91h-.1a.91.91,0,0,1-.89-.95v-.05a.89.89,0,0,1,.79-.79H14a1.51,1.51,0,0,1,.53.24c.14.11-.05.38.17.55,0-.78-.26-1.15-.95-1.15a1.27,1.27,0,0,0-1.14,1.05V12a1.4,1.4,0,0,0,1.37,1.24,1.6,1.6,0,0,0,1.59-1,2.18,2.18,0,0,0-.14-2.1,2.82,2.82,0,0,0-1.6-1c-1.18-.42-3.28-.16-4.41-.61A3.78,3.78,0,0,1,7.79,7.46a3.49,3.49,0,0,1-.91-1.83V5c-.3,0-.53.63-1.69.63a7.35,7.35,0,0,0-.25.9c-.1.43-.35.58-.38.81s.43,0,.68.07a4,4,0,0,1,.9.27,3.9,3.9,0,0,1,1.92,2.76,14.74,14.74,0,0,1,.27,2.08c.09.74.14,1.29.25,2A4,4,0,0,0,9.41,16a1.85,1.85,0,0,0,1.56.56,1.63,1.63,0,0,0,1.55-1.68v-.05c0-.82-.66-1.63-1.41-1.54-.54.06-.76.13-1,.5-.4.55-.18.62-.15,1.18l.64.54,0,0c0-.14-.45-.47-.45-.74v-.26a.94.94,0,0,1,.95-.84c1.07,0,1.06,2.15-.3,2.15h-.25a1.2,1.2,0,0,1-1-1.26c0-2,3.2-2,3.2.21,0,1.3-.59,1.29-.7,1.74.49.12,1,.4,1,1v.32c0,.13-.22.37-.34.37-.29,0-.31-.23-.78-.14a1.9,1.9,0,0,1-.88,0c-.42-.14-.37-.07-.68-.33-.14-.12-.42-.4-.61-.41a1.29,1.29,0,0,1-.89,1.15c-.32-.22-.08-.58-.52-1.09-.25-.29-.46-.92-.6-1l0,.21c-.32.23-.4.63-1,.63h-.2c-.25,0-.6-.06-.6-.31v-.06c0-.25.51-.18.48-1.32a6.67,6.67,0,0,1,.16-1.58c.3-1,1-1.51,1-2.77,0-.6-.13-1.73-.45-1.95a4.9,4.9,0,0,1-.12,2,7.2,7.2,0,0,1-.74,1.69c-.35.59-1.73,2.43-1.73,3.06v.11c0,1.15.6,1.1.6,1.41s-.66.69-1,.69-.75-.61-.75-1.11c0-.68.59-1.18.7-1.63a3.59,3.59,0,0,0-.84.7c-.31.31-.35.72-.69.94l.08.73v.32c0,.28-.51.36-.8.36s-.5-.36-.57-.65a1,1,0,0,1,.19-1c.22-.36,1.18-1.08,1.23-1.28a4.36,4.36,0,0,1-1.14.37c-.78,0-.82-.26-1.2-.26s-.46.26-.49,0a1,1,0,0,1,.17-.56c.34-.54.65-.5.82-.77-.34-.19-.95-.59-.95-1.1v-.16c0-.94,1.25-1.54,1.64-.74-.1.21-.34.44-.34.69v.47a1.51,1.51,0,0,0,.86,1.08,2.92,2.92,0,0,0,1.53.18A3.16,3.16,0,0,0,6,13.05c-.32,0-.87.94-2.09.94h-.2c-.61,0-1.57-.73-1.58-1.29s.52-1.65,1.21-1.65l-.08.68a1.48,1.48,0,0,0,1.1,1.21h.15c.23,0,.5-.06.55-.26-.44,0-1-.13-1-.68,0-.39.2-.79.55-.79.15,0,.33.31.84.31h.11a1.61,1.61,0,0,0,1.4-1.95c-.1-.9-.76-1.89-1.6-1.89h-.2c-.43,0-.59.16-.95.16-.28.44-.7.51-.7,1.42v.11a1.26,1.26,0,0,0,.53,1c.48.35.91.06,1.27.24-.06.22-.25.26-.5.26A1.64,1.64,0,0,1,3.36,8.39a8.91,8.91,0,0,1,1-1.19,2.1,2.1,0,0,0,.52-1.71l.09-.12c2.26,0,1.92-2,3.54-2h.1A1.71,1.71,0,0,1,10.27,5c0,.61-.46,1.37-1,1.37h-.1c-.61,0-1.33-.58-1.26-1.16L8,4.74c.29-.2.3-.53.9-.52H9A.9.9,0,0,1,9.77,5v.32c0,.17-.32.51-.39.63.95,0,.88-2.26-.8-2.26H8.53c-.56,0-.74.32-1,.58s-.22,1.15-.35,1.36c.37.58.06.84.83,1.45.61.5.88.38,1.66.34a1.62,1.62,0,0,0,1.22-1,1.56,1.56,0,0,0-.37-1.7V4.53c0-.24.43-.52.7-.52h.1c.43,0,.44.23.7.41L11.92,4c-.29-.2-.24-.4-.72-.61s-.82.14-1,.07.54-1.19,1.33-1.19h.1a1.57,1.57,0,0,1,1.4,1.47v.63c0,.29,0,.33-.21.43l.1.15c-.14.29-.18.51-.29.8s-.33.36-.4.67c.69-.19,1.49-1.68,1.49-2.73,0-.87-.36-2.26-1.39-2.26h-.2c-.37,0-.46.36-.65.36h-.1c-.15,0-.2-.15-.2-.31V1.27a.54.54,0,0,1,.1-.31,1,1,0,0,1-.05-.32V.59c0-.24.52-.61.8-.59l.65.06A3.29,3.29,0,0,1,13.2.5c.16.23.15.48.41.51a1.23,1.23,0,0,1,.9-.95c.11.24.19.67.3.84a1.44,1.44,0,0,1,.35.84c0,.53-.2.85-.2,1.27.44,0,.72-1.69,1.8-1.69.45,0,.69.29.69.79v.37c0,.35-.42.32-.6.32M14.56,4.53h0M5.79,9.68c-.32.09-.29.53-1,.53S4,9.76,4,9.16a1.11,1.11,0,0,1,.39-.6.86.86,0,0,1,.72-.21,1.2,1.2,0,0,1,.5,2.15c-.54.31.17-.6.19-.82M1.19,8A1.6,1.6,0,0,0,.3,9.26v.27c0,.1,0,.09,0,.15C.5,9.56.68,9,1.2,9h.1C2.7,9,2.38,11,1.5,11H1.15A1.32,1.32,0,0,1,0,9.58c0-1.31.91-1.44,1-1.9C.66,7.66.1,7.37.1,7.05s1-.83,1-1C.91,6,.3,5.49.3,5.27V5.21c0-.42,1.14-.66,1.58-.55.25.06,1.46,1.06,1.46.55S2.23,4.39,1.6,4.32A2.4,2.4,0,0,1,.1,3.22a1.07,1.07,0,0,1,1-.58h.35c0-.26-.65-.33-.92-.82C.48,1.73.15.54.15.48V.38c0-.33,1.21,0,1.37.13.46.25.65.91.87,1C2.39,1,2.68.22,3,.22c.62,0,1,1,1.15,1.58s.2,1.89.75,1.89h.2c0-.15,0-.09,0-.21,0-.31-.72-.92-.8-1.53a.9.9,0,0,1,.13-.8c.09-.17.3-.67.47-.67s.54.45.6.69c.33,0,.45-.9,1-.9.28,0,.44.67.55.9.14-.1.41-.6.69-.8a1.22,1.22,0,0,1,1-.29c.83.12,1.47.49,1.47,1.4v.05a1.11,1.11,0,0,1-.89,1H9.13c-.52,0-.6-.36-.9-.58.09-.47,0-1.25.75-1.31V.43A1.28,1.28,0,0,0,7.61,1c-.53.75-.28.62-.45,1.63a3.05,3.05,0,0,1-.61,1.51A2.26,2.26,0,0,1,5.29,5l-.8-.06c0,1.45-.28,2.24-1.48,2.76-.52.23-1.35.16-1.82.34m15.57,7.84c-.76,0-.78-.5-1.29-.62l-.11.1c.28,1.26,2.14.16,2.14,2.84,0,.13-.18.26-.25.26l-.94-.27a1.27,1.27,0,0,1-.69-.54c-.27-.62-.26-1.4-1.11-1.4,0,.33.23.33.38.55a2.14,2.14,0,0,1,.23.7.84.84,0,0,1-.81,1h-.15c-.23,0-.15-.42-.15-.68a9.14,9.14,0,0,1-.51-1,3.5,3.5,0,0,1-.19-1.43c0-1.7-.86-1.69-1-2.21.26-.13.61.48,1,.65a4,4,0,0,0,1.46.3,2.41,2.41,0,0,1,1.33.28,6.1,6.1,0,0,1,.57.29c.4.2.31-.05.64-.05.17,0,.2.15.25.26-.17.38-.12,1.05-.79,1.05"/></g></g></svg>