<svg xmlns="http://www.w3.org/2000/svg" viewBox="0 0 17.55 18.46"><defs><style>.cls-1{fill:#623c25;fill-rule:evenodd;}</style></defs><title>4_r_v</title><g id="Layer_2" data-name="Layer 2"><g id="Layer_1-2" data-name="Layer 1"><path class="cls-1" d="M5.68,11.73h.15c.13-1.65.8-2.15,2.3-2.52v-.1A1.29,1.29,0,0,0,7.68,9H7.53a1.92,1.92,0,0,0-1.95,1.94v.32a1.56,1.56,0,0,0,.1.47m.7.32h.4a2.38,2.38,0,0,0,1.4-.89c.24-.33.72-1.53,0-1.53H8a2.44,2.44,0,0,0-1.8,2c0,.19,0,.42.2.42m.7.68.9-.05c.53-.37,1.14-.71,1.14-1.63v-.16c0-.33,0-.71-.24-.73-.11,1.32-.79,2.26-2.15,2.26,0,.18.14.33.35.31m4.24-5.52h0c.4,0,.7-.2.7-.58a.65.65,0,0,0-.65-.73h-.1c-.69,0-.69,1.31,0,1.31M.7,2.8a2,2,0,0,1,1.4.57A5.23,5.23,0,0,1,3,4.48c-.33-.08-.9-.69-1.35-.69H1.3a.91.91,0,0,0-.8.85v.15c0,.28.23.63.5.63S1.41,5,2.29,5h0c.87,0,2.27,1.38,2.91,1.83a5.21,5.21,0,0,0,3.53,1c-.95.87-2.68.29-3.58-.23A6.09,6.09,0,0,0,3.47,7C2.59,7.05,2,7,1.79,6.27H1.64c-.14,0-.34.28-.34.47v.37a1.08,1.08,0,0,0,.89,1.1c-.1.17-.68.32-.95.52C.55,9.2,1,9,.15,9.16a.89.89,0,0,0,1,1l.11.15c-.38,0-.9.82-.9,1.32V12c0,.23.2.41.2.63a2.66,2.66,0,0,1-.2.84c.06.11,0,.21.2.21H.9a1,1,0,0,0,.89-1.11c.28.08.81,1.08,1.87.92a2,2,0,0,0,1-.43,2.18,2.18,0,0,0,.59-.85v-.58a1.44,1.44,0,0,0-2.16-1.17,1.18,1.18,0,0,0-.47,1.31,1.25,1.25,0,0,0,1,.91h.1a.92.92,0,0,0,.9-.95v-.05a.9.9,0,0,0-.8-.79H3.59a1.6,1.6,0,0,0-.53.24c-.14.11,0,.38-.17.55,0-.78.26-1.16.95-1.16A1.3,1.3,0,0,1,5,11.58V12a1.41,1.41,0,0,1-1.38,1.24,1.6,1.6,0,0,1-1.59-1,2.18,2.18,0,0,1,.14-2.1,2.82,2.82,0,0,1,1.6-1C4.94,8.71,7.05,9,8.17,8.52A3.78,3.78,0,0,0,9.76,7.46a3.42,3.42,0,0,0,.91-1.83V5c.3,0,.54.63,1.7.63.07.17.2.69.25.9.09.43.34.58.38.81s-.44,0-.69.07a4.16,4.16,0,0,0-.9.27C10.42,8,9.8,9.3,9.49,10.44a16.37,16.37,0,0,0-.27,2.08c-.08.74-.14,1.29-.24,2A4.12,4.12,0,0,1,8.14,16a1.83,1.83,0,0,1-1.56.56A1.63,1.63,0,0,1,5,14.89v-.05c0-.82.65-1.63,1.4-1.54a1.17,1.17,0,0,1,1,.5c.4.55.17.62.15,1.18L7,15.52l0,0c0-.14.45-.47.45-.74v-.26a.93.93,0,0,0-1-.84c-1.07,0-1.06,2.15.3,2.15H7a1.2,1.2,0,0,0,1-1.26c0-2-3.19-2-3.19.21,0,1.3.58,1.29.7,1.74-.5.12-1,.4-1,1v.32a.52.52,0,0,0,.35.37c.28,0,.31-.23.78-.14a1.85,1.85,0,0,0,.87,0c.42-.14.37-.07.68-.33.14-.12.42-.4.61-.41a1.3,1.3,0,0,0,.9,1.15c.32-.22.07-.58.51-1.09.25-.29.47-.92.61-1l0,.21c.33.23.41.63.95.63h.2c.26,0,.6-.06.6-.31v-.06c0-.25-.51-.18-.48-1.32a6.67,6.67,0,0,0-.16-1.58c-.3-1-1-1.51-1-2.77,0-.6.14-1.73.45-1.95a4.9,4.9,0,0,0,.12,2,7.2,7.2,0,0,0,.74,1.69c.35.59,1.73,2.43,1.73,3.06v.11c0,1.15-.59,1.1-.59,1.41s.65.69.94.69S14,17.54,14,17c0-.68-.58-1.18-.7-1.63a3.4,3.4,0,0,1,.84.7c.31.31.35.72.69.94l-.08.73v.32c0,.28.51.36.8.36s.5-.36.58-.65a1,1,0,0,0-.2-1c-.21-.36-1.18-1.08-1.23-1.28a4.32,4.32,0,0,0,1.15.37c.77,0,.82-.26,1.19-.26s.46.26.5,0a1.14,1.14,0,0,0-.18-.56c-.34-.54-.64-.5-.82-.77.35-.19.95-.59.95-1.1v-.16c0-.94-1.24-1.54-1.64-.74.1.21.35.44.35.69v.47c0,.44-.54.94-.87,1.08a2.91,2.91,0,0,1-1.53.18,3.18,3.18,0,0,1-2.24-1.68c.33,0,.88.94,2.09.94h.2c.61,0,1.57-.73,1.58-1.29s-.51-1.65-1.21-1.65l.08.68a1.48,1.48,0,0,1-1.1,1.21H13c-.23,0-.49-.06-.54-.26.43,0,1-.13,1-.68,0-.39-.19-.79-.55-.79-.14,0-.32.31-.84.31H12a1.6,1.6,0,0,1-1.4-1.95c.09-.9.76-1.89,1.6-1.89h.2c.43,0,.58.16.94.16.28.44.7.51.7,1.42v.11a1.29,1.29,0,0,1-.52,1c-.49.35-.92.06-1.27.24.05.22.24.26.49.26a1.64,1.64,0,0,0,1.43-2.45,8.91,8.91,0,0,0-1-1.19,2.07,2.07,0,0,1-.51-1.71l-.09-.12c-2.27,0-1.93-2-3.55-2H9A1.72,1.72,0,0,0,7.28,5c0,.61.46,1.37,1,1.37h.1c.61,0,1.33-.58,1.25-1.16l-.06-.47c-.29-.2-.29-.53-.89-.52H8.53A.9.9,0,0,0,7.78,5v.32c0,.17.32.51.4.63-1,0-.89-2.26.8-2.26H9c.57,0,.75.32,1.05.58s.22,1.15.35,1.36c-.37.58-.06.84-.82,1.45s-.89.38-1.67.34c-.57,0-1-.58-1.22-1a1.56,1.56,0,0,1,.37-1.7V4.53c0-.24-.42-.52-.7-.52h-.1c-.43,0-.43.23-.7.41l0-.47c.3-.2.24-.4.72-.61s.82.14,1,.07S6.77,2.22,6,2.22h-.1A1.56,1.56,0,0,0,4.49,3.69v.63c0,.29,0,.33.2.43l-.1.15c.14.29.18.51.29.8s.34.36.41.67c-.7-.19-1.5-1.68-1.5-2.73,0-.87.37-2.26,1.4-2.26h.2c.36,0,.46.36.64.36h.1c.16,0,.2-.15.2-.31V1.27A.48.48,0,0,0,6.23,1a1,1,0,0,0,0-.32V.59C6.28.35,5.77,0,5.49,0L4.84.06A2.51,2.51,0,0,0,4.36.5C4.19.73,4.2,1,3.94,1A1.23,1.23,0,0,0,3,.06c-.11.24-.19.67-.3.84a1.5,1.5,0,0,0-.35.84c0,.53.2.85.2,1.27C2.16,3,1.87,1.32.8,1.32c-.46,0-.7.29-.7.79v.37c0,.35.42.32.6.32M3,4.53H3m8.78,5.15c.31.09.29.53.94.53s.85-.45.85-1.05a1.15,1.15,0,0,0-.38-.6.87.87,0,0,0-.72-.21,1.26,1.26,0,0,0-1,1.07A1.28,1.28,0,0,0,12,10.5c.54.31-.16-.6-.18-.82M16.36,8a1.57,1.57,0,0,1,.89,1.27v.27a.17.17,0,0,1-.05.15c-.15-.12-.32-.73-.84-.73h-.1C14.85,9,15.17,11,16.06,11h.34a1.32,1.32,0,0,0,1.15-1.42c0-1.31-.91-1.44-.95-1.9.3,0,.85-.31.85-.63s-1-.83-1.05-1c.24,0,.85-.51.85-.73V5.21c0-.42-1.14-.66-1.57-.55-.26.06-1.47,1.06-1.47.55s1.11-.82,1.74-.89a2.4,2.4,0,0,0,1.5-1.1,1.06,1.06,0,0,0-1-.58h-.35c0-.26.65-.33.91-.82.05-.09.38-1.28.38-1.34V.38c0-.33-1.21,0-1.36.13-.47.25-.66.91-.88,1,0-.44-.29-1.26-.6-1.26-.62,0-1,1-1.14,1.58s-.21,1.89-.75,1.89h-.2c0-.15-.05-.09-.05-.21,0-.31.71-.92.8-1.53a.9.9,0,0,0-.14-.8C13,1,12.78.48,12.62.48s-.55.45-.6.69c-.34,0-.46-.9-1-.9-.27,0-.44.67-.55.9-.14-.1-.41-.6-.69-.8a1.22,1.22,0,0,0-1-.29C7.93.2,7.28.57,7.28,1.48v.05a1.12,1.12,0,0,0,.9,1h.25c.51,0,.59-.36.89-.58-.09-.47,0-1.25-.74-1.31V.43A1.27,1.27,0,0,1,9.94,1c.53.75.29.62.45,1.63A3.25,3.25,0,0,0,11,4.18,2.25,2.25,0,0,0,12.27,5l.79-.06c0,1.45.28,2.24,1.48,2.76.53.23,1.35.16,1.82.34M.8,15.83c.75,0,.77-.5,1.28-.62l.11.1c-.27,1.26-2.14.16-2.14,2.84,0,.13.18.26.25.26l.94-.27a1.24,1.24,0,0,0,.69-.54C2.21,17,2.2,16.2,3,16.2c0,.33-.23.33-.38.55a2.4,2.4,0,0,0-.23.7.85.85,0,0,0,.81,1h.15c.23,0,.15-.42.15-.68a9.14,9.14,0,0,0,.51-1,3.5,3.5,0,0,0,.19-1.43c0-1.7.86-1.69,1-2.21-.27-.13-.62.48-1,.65a4.08,4.08,0,0,1-1.47.3,2.41,2.41,0,0,0-1.33.28,4.92,4.92,0,0,0-.56.29c-.4.2-.32-.05-.65-.05-.16,0-.19.15-.25.26.17.38.12,1.05.8,1.05"/></g></g></svg>