<svg xmlns="http://www.w3.org/2000/svg" viewBox="0 0 17.55 17.61"><defs><style>.cls-1{fill:#623c25;fill-rule:evenodd;}</style></defs><title>4_u_h</title><g id="Layer_2" data-name="Layer 2"><g id="Layer_1-2" data-name="Layer 1"><path class="cls-1" d="M11.87,6.42h-.15c-.13,1.58-.8,2.06-2.29,2.41v.1a1.42,1.42,0,0,0,.44.1H10a1.89,1.89,0,0,0,2-1.86v-.3a1.49,1.49,0,0,0-.1-.45m-.7-.3h-.4A2.37,2.37,0,0,0,9.37,7c-.24.32-.72,1.46.06,1.46h.14a2.38,2.38,0,0,0,1.8-1.91c0-.18,0-.4-.2-.4m-.7-.65-.9,0c-.52.35-1.14.68-1.14,1.55v.15c0,.32,0,.68.25.71a2.06,2.06,0,0,1,2.14-2.16c0-.18-.14-.32-.35-.3M6.23,10.73H6.18c-.4,0-.69.2-.69.56a.64.64,0,0,0,.64.7h.1c.69,0,.69-1.26,0-1.26M16.85,15a2.08,2.08,0,0,1-1.39-.55,4.74,4.74,0,0,1-.9-1.06c.34.08.9.65,1.35.65h.35a.87.87,0,0,0,.79-.8V13c0-.26-.23-.6-.49-.6s-.42.45-1.3.45h0c-.86,0-2.27-1.32-2.9-1.74a5.44,5.44,0,0,0-3.53-1c.94-.82,2.67-.27,3.57.22a5.72,5.72,0,0,0,1.73.55c.88-.06,1.51,0,1.68.69h.15c.14,0,.35-.28.35-.46v-.35a1.06,1.06,0,0,0-.9-1.05c.1-.16.68-.31,1-.49.68-.46.22-.21,1.08-.41,0-.65-.34-1-1-1l-.1-.15c.37,0,.89-.78.89-1.25V6.17c0-.23-.2-.39-.2-.6a2.6,2.6,0,0,1,.2-.8c-.05-.12,0-.21-.2-.2h-.35a1,1,0,0,0-.89,1c-.28-.08-.81-1-1.87-.88a2.08,2.08,0,0,0-1,.41,2.14,2.14,0,0,0-.58.82v.55a1.44,1.44,0,0,0,2.15,1.11,1.09,1.09,0,0,0,.47-1.24,1.21,1.21,0,0,0-1-.87h-.1a.9.9,0,0,0-.9.9v0a.87.87,0,0,0,.8.75H14A1.48,1.48,0,0,0,14.49,7c.14-.11-.05-.37.17-.53,0,.74-.26,1.1-.95,1.1a1.25,1.25,0,0,1-1.14-1v-.4A1.38,1.38,0,0,1,13.94,5a1.61,1.61,0,0,1,1.59.92,2,2,0,0,1-.14,2,2.92,2.92,0,0,1-1.6,1c-1.18.39-3.28.15-4.41.57a4,4,0,0,0-1.59,1,3.28,3.28,0,0,0-.91,1.75v.6c-.3,0-.53-.6-1.69-.6a6.53,6.53,0,0,1-.25-.85c-.1-.41-.35-.56-.38-.78s.43,0,.68-.07a4,4,0,0,0,.9-.25A3.74,3.74,0,0,0,8.06,7.65a13.32,13.32,0,0,0,.27-2c.08-.7.14-1.23.25-1.91a3.68,3.68,0,0,1,.83-1.42A1.92,1.92,0,0,1,11,1.81a1.6,1.6,0,0,1,1.55,1.6v0a1.43,1.43,0,0,1-1.41,1.47c-.54-.06-.76-.13-1-.48-.4-.53-.18-.59-.15-1.12l.64-.52,0,0c0,.13-.45.45-.45.7v.25a.93.93,0,0,0,.95.81c1.07,0,1.06-2.06-.3-2.06h-.25a1.16,1.16,0,0,0-1,1.2c0,1.93,3.2,1.9,3.2-.2,0-1.24-.59-1.23-.7-1.66.49-.11,1-.38,1-.95V.65A.5.5,0,0,0,12.77.3c-.29,0-.31.22-.78.13a2.22,2.22,0,0,0-.88,0,1.27,1.27,0,0,0-.68.32c-.14.12-.42.38-.61.39A1.25,1.25,0,0,0,8.93,0c-.32.21-.08.56-.52,1-.25.28-.46.88-.6,1l0-.2c-.32-.22-.4-.61-1-.61h-.2c-.25,0-.6.06-.6.31v.05c0,.23.51.17.48,1.26a6,6,0,0,0,.16,1.5c.3.93,1,1.45,1,2.65,0,.57-.13,1.65-.45,1.86a4.47,4.47,0,0,0-.12-1.89,6.6,6.6,0,0,0-.74-1.61C6.07,4.77,4.69,3,4.69,2.41v-.1c0-1.11.6-1.06.6-1.36S4.63.3,4.34.3s-.75.58-.75,1.05c0,.65.59,1.13.7,1.56a3.93,3.93,0,0,1-.84-.66c-.31-.3-.35-.69-.69-.9l.08-.7V.35C2.84.08,2.33,0,2,0s-.5.35-.57.62a.91.91,0,0,0,.19.92c.22.34,1.18,1,1.23,1.22a4,4,0,0,0-1.14-.35c-.78,0-.82.25-1.2.25s-.46-.25-.49,0a.94.94,0,0,0,.17.53c.34.51.65.48.82.73C.71,4.14.1,4.52.1,5v.15c0,.89,1.25,1.46,1.64.7-.1-.2-.34-.42-.34-.65V4.77c0-.43.53-.9.86-1a3.13,3.13,0,0,1,1.53-.17A3.16,3.16,0,0,1,6,5.17c-.33,0-.87-.91-2.09-.91h-.2c-.61,0-1.57.7-1.58,1.24s.52,1.57,1.21,1.57l-.08-.65c0-.44.68-1.15,1.1-1.15h.15c.23,0,.5.06.55.25-.44,0-1,.12-1,.65,0,.37.19.75.55.75.15,0,.32-.3.84-.3h.11a1.55,1.55,0,0,1,1.4,1.86c-.1.86-.76,1.8-1.6,1.8h-.2c-.43,0-.59-.15-.95-.15-.28-.41-.7-.48-.7-1.35v-.1A1.19,1.19,0,0,1,4,7.75c.48-.33.91,0,1.27-.23-.06-.21-.25-.25-.5-.25A1.57,1.57,0,0,0,3.36,9.61a8,8,0,0,0,1,1.13,2,2,0,0,1,.52,1.64l.09.11c2.26,0,1.92,1.91,3.54,1.91h.1a1.67,1.67,0,0,0,1.69-1.56c0-.58-.46-1.3-1-1.3H9.18c-.61,0-1.33.55-1.26,1.1l.06.45c.29.2.3.5.9.5H9a.87.87,0,0,0,.74-.75v-.3c0-.16-.32-.49-.4-.6,1,0,.89,2.15-.79,2.15H8.53c-.56,0-.74-.3-1-.55s-.22-1.09-.35-1.3c.37-.55.06-.79.83-1.38.61-.48.88-.36,1.66-.33a1.63,1.63,0,0,1,1.22,1c.47.94-.37,1.48-.37,1.62v.15c0,.23.43.5.7.5h.1c.43,0,.44-.22.7-.4l-.05.45c-.3.2-.24.39-.72.59s-.82-.14-1-.07.54,1.14,1.33,1.14h.1a1.53,1.53,0,0,0,1.4-1.41v-.6c0-.27,0-.31-.21-.4l.1-.15a7,7,0,0,1-.29-.76c-.1-.27-.33-.35-.4-.64.69.18,1.49,1.6,1.49,2.6,0,.84-.36,2.16-1.39,2.16h-.2c-.37,0-.46-.35-.65-.35h-.1c-.15,0-.2.15-.2.3v.15a.54.54,0,0,0,.1.3.9.9,0,0,0-.05.3v.05c0,.23.52.59.8.56l.65-.05a3.8,3.8,0,0,0,.48-.42c.16-.23.15-.47.41-.49a1.21,1.21,0,0,0,.9.91c.11-.23.19-.64.3-.8a1.38,1.38,0,0,0,.35-.81c0-.5-.2-.81-.2-1.2.44,0,.72,1.6,1.8,1.6.45,0,.69-.27.69-.75v-.35c0-.33-.42-.3-.6-.3m-2.29-1.66h0M5.78,8.38c-.31-.09-.28-.51-.94-.51S4,8.3,4,8.88a1,1,0,0,0,.39.56.86.86,0,0,0,.72.21,1.23,1.23,0,0,0,1-1,1.19,1.19,0,0,0-.48-1c-.54-.3.17.57.18.78M1.19,10A1.49,1.49,0,0,1,.3,8.78V8.53c0-.1,0-.09,0-.15.15.11.33.7.85.7h.1c1.4,0,1.08-2,.2-2H1.15A1.28,1.28,0,0,0,0,8.48c0,1.24.91,1.36,1,1.8-.3,0-.85.31-.85.6s1,.8,1,1c-.24,0-.85.49-.85.7v.05c0,.41,1.14.64,1.58.53.25-.06,1.46-1,1.46-.53s-1.11.79-1.74.86A2.34,2.34,0,0,0,.1,14.55a1.09,1.09,0,0,0,1,.55h.35c0,.24-.66.31-.92.78C.48,16,.15,17.1.15,17.15v.1c0,.31,1.21-.05,1.37-.13.46-.23.65-.86.87-.92,0,.42.29,1.2.6,1.2.62,0,1-.94,1.15-1.5s.2-1.81.75-1.81h.2c0,.15,0,.09,0,.2,0,.3-.72.88-.8,1.46a.84.84,0,0,0,.13.77c.09.15.3.63.47.63s.54-.43.6-.65c.33,0,.45.86,1,.86.28,0,.44-.65.55-.86.14.1.41.57.69.76a1.29,1.29,0,0,0,1,.28c.83-.11,1.47-.47,1.47-1.34v-.05a1.07,1.07,0,0,0-.9-.9H9.13c-.52,0-.6.34-.9.55.09.45,0,1.19.75,1.25v.15a1.3,1.3,0,0,1-1.37-.58c-.53-.72-.28-.59-.45-1.55a2.91,2.91,0,0,0-.61-1.45,2.31,2.31,0,0,0-1.26-.73l-.8.06c0-1.38-.28-2.13-1.48-2.63-.52-.22-1.35-.16-1.82-.33M16.76,2.51c-.76,0-.78.48-1.29.59L15.36,3c.28-1.2,2.14-.15,2.14-2.71,0-.13-.18-.25-.25-.25l-.94.26a1.26,1.26,0,0,0-.69.51c-.27.59-.26,1.34-1.11,1.34,0-.31.23-.32.38-.52A2,2,0,0,0,15.12,1a.82.82,0,0,0-.81-.91h-.15c-.23,0-.15.4-.15.65a9.2,9.2,0,0,0-.51,1,3.23,3.23,0,0,0-.19,1.37c0,1.62-.86,1.61-1,2.11.26.12.61-.46,1-.62a4,4,0,0,1,1.46-.29A2.6,2.6,0,0,0,16.09,4c.21-.08.37-.2.56-.29.41-.19.32,0,.65,0,.17,0,.2-.14.25-.25-.17-.36-.12-1-.79-1"/></g></g></svg>