<?xml version="1.0" encoding="utf-8"?>
<!-- Generator: Adobe Illustrator 22.1.0, SVG Export Plug-In . SVG Version: 6.00 Build 0)  -->
<svg version="1.1" id="Layer_1" xmlns="http://www.w3.org/2000/svg" xmlns:xlink="http://www.w3.org/1999/xlink" x="0px" y="0px"
	 viewBox="0 0 213.4 13.6" style="enable-background:new 0 0 213.4 13.6;" xml:space="preserve">
<style type="text/css">
	.st0{fill:#FFFFFF;}
	.st1{fill:#7C6742;}
</style>
<rect class="st0" width="213.1" height="13.2"/>
<path class="st1" d="M0,0.4h213.4V0H0V0.4z M0,12h213.1v-0.6H0V12z M0,4.2h213.4V3.6H0V4.2z M0,6.1h213.4V5.3H0V6.1z M0,10.4h213.4
	V9.5H0V10.4z M0,8.5h213.4V7.2H0V8.5z M2.9,1.3h0.5v0.9H2.9V1.3z M2.4,2.2H1.8V1.3h0.5L2.4,2.2z M3.9,1.3h0.5v0.9H3.9V1.3z M4.9,1.3
	h0.6v0.9H5L4.9,1.3z M5.9,1.3h0.5v0.9H6L5.9,1.3z M7,1.3h0.5v0.9H7.1L7,1.3z M8,1.3h0.5v0.9H8.1L8,1.3z M9,1.3h0.5v0.9H9.2L9,1.3z
	 M10,1.3h0.5v0.9H10V1.3z M0.8,1.3h0.5v0.9H0.8V1.3z M11.5,1H0v0.3h0.3v0.9H0v0.3h11.5V2.2h-0.3V1.3h0.3V1z M14.4,1.4h0.5v0.9h-0.5
	L14.4,1.4z M13.9,2.3h-0.5v-1h0.5V2.3z M15.5,1.3H16v0.9h-0.5L15.5,1.3z M16.5,1.3H17v0.9h-0.5V1.3z M17.5,1.3H18v0.9h-0.5V1.3z
	 M18.5,1.3h0.5v0.9h-0.5V1.3z M19.6,1.3h0.5v0.9h-0.5V1.3z M20.6,1.3h0.5v0.9h-0.5V1.3z M21.6,1.3h0.5v0.9h-0.5V1.3z M12.2,1.3h0.5
	v0.9h-0.4L12.2,1.3z M23,1H11.5v0.3h0.3v0.9h-0.3v0.3H23V2.2h-0.3V1.3H23V1z M25.9,1.4h0.5v0.9h-0.5V1.4z M25.4,2.3h-0.5v-1h0.5V2.3
	z M27,1.3h0.5v0.9H27V1.3z M28,1.3h0.5v0.9H28V1.3z M29,1.3h0.5v0.9H29V1.3z M30,1.3h0.5v0.9H30V1.3z M31.1,1.3h0.5v0.9h-0.5V1.3z
	 M32.1,1.3h0.5v0.9h-0.5V1.3z M33.1,1.3h0.5v0.9h-0.5V1.3z M23.7,1.3h0.5v0.9h-0.5V1.3z M34.6,1H23v0.3h0.3v0.9H23v0.3h11.6V2.2
	h-0.3V1.3h0.3V1z M37.4,1.4H38v0.9h-0.5L37.4,1.4z M36.9,2.3h-0.5v-1h0.5L36.9,2.3z M38.5,1.3H39v0.9h-0.5L38.5,1.3z M39.5,1.3H40
	v0.9h-0.5V1.3z M40.5,1.3h0.5v0.9h-0.5V1.3z M41.5,1.3h0.5v0.9h-0.5V1.3z M42.5,1.3h0.5v0.9h-0.5V1.3z M43.5,1.3h0.5v0.9h-0.5V1.3z
	 M44.6,1.3h0.5v0.9h-0.5V1.3z M35.2,1.3h0.5v0.9h-0.5V1.3z M46.1,1H34.6v0.3h0.2v0.9h-0.2v0.3h11.5V2.2h-0.3V1.3h0.3V1z M49,1.3h0.5
	v0.9H49V1.3z M48.5,2.2H48V1.3h0.5V2.2z M50,1.3h0.5v0.9H50V1.3z M51,1.3h0.5v0.9H51V1.3z M52,1.3h0.5v0.9H52V1.3z M53,1.3h0.5v0.9
	H53V1.3z M54,1.3h0.5v0.9h-0.4L54,1.3z M55,1.3h0.5v0.9H55V1.3z M56,1.3h0.5v0.9h-0.3L56,1.3z M46.6,1.3h0.5v0.9h-0.5V1.3z M57.6,1
	H46.1v0.3h0.3v0.9h-0.3v0.3h11.5V2.2h-0.3V1.3h0.3V1z M60.5,1.4H61v0.9h-0.5L60.5,1.4z M60,2.2h-0.5V1.3H60V2.2z M61.6,1.3h0.5v0.9
	h-0.5V1.3z M62.6,1.3h0.5v0.9h-0.5V1.3z M63.6,1.3h0.5v0.9h-0.5V1.3z M64.7,1.3h0.5v0.9h-0.5V1.3z M65.7,1.3h0.5v0.9h-0.5V1.3z
	 M66.7,1.3h0.5v0.9h-0.5V1.3z M67.7,1.3h0.5v0.9h-0.5V1.3z M58.2,1.3h0.5v0.9h-0.5V1.3z M69.1,1H57.6v0.3h0.3v0.9h-0.3v0.3h11.5V2.2
	h-0.3V1.3h0.3V1z M72,1.3h0.5v0.9H72V1.3z M71.5,2.2H71V1.3h0.5L71.5,2.2z M73.1,1.3h0.5v0.9h-0.5V1.3z M74.1,1.3h0.5v0.9h-0.5V1.3z
	 M75.1,1.3h0.5v0.9h-0.5V1.3z M76.1,1.3h0.5v0.9h-0.4L76.1,1.3z M77.1,1.3h0.5v0.9h-0.5V1.3z M78.1,1.3h0.5v0.9h-0.3L78.1,1.3z
	 M79.1,1.3h0.5v0.9h-0.5V1.3z M69.6,1.3h0.5v0.9h-0.5V1.3z M80.7,1H69.1v0.3h0.3v0.9h-0.3v0.3h11.5V2.2h-0.3V1.3h0.3V1z M83.5,1.4
	h0.5v0.9h-0.5V1.4z M83,2.2h-0.5V1.3H83V2.2z M84.6,1.3h0.5v0.9h-0.5V1.3z M85.6,1.3h0.5v0.9h-0.5V1.3z M86.6,1.3h0.5v0.9h-0.5V1.3z
	 M87.6,1.3h0.5v0.9h-0.5V1.3z M88.6,1.3h0.5v0.9h-0.5V1.3z M89.6,1.3h0.5v0.9h-0.5V1.3z M90.6,1.3h0.5v0.9h-0.5V1.3z M81.2,1.3H82
	v0.9h-0.5L81.2,1.3z M92.2,1H80.7v0.3h0.3v0.9h-0.3v0.3h11.5V2.2h-0.3V1.3h0.3V1z M95,1.4h0.5v0.9H95V1.4z M94.5,2.3H94v-1h0.5V2.3z
	 M96.1,1.3h0.5v0.9h-0.5V1.3z M97.2,1.3h0.5v0.9h-0.5V1.3z M98.2,1.3h0.5v0.9h-0.5L98.2,1.3z M99.2,1.3h0.5v0.9h-0.5V1.3z
	 M100.2,1.3h0.5v0.9h-0.5V1.3z M101.2,1.3h0.5v0.9h-0.5V1.3z M102.2,1.3h0.5v0.9h-0.5V1.3z M93,1.3h0.5v0.9H93V1.3z M103.7,1H92.2
	v0.3h0.3v0.9h-0.3v0.3h11.5V2.2h-0.3V1.3h0.3V1z M106.6,1.4h0.5v0.9h-0.5V1.4z M106,2.3h-0.5v-1h0.5V2.3z M107.6,1.3h0.5v0.9h-0.5
	V1.3z M108.6,1.3h0.5v0.9h-0.5V1.3z M109.6,1.3h0.5v0.9h-0.5V1.3z M110.6,1.3h0.5v0.9h-0.5V1.3z M111.6,1.3h0.5v0.9h-0.5V1.3z
	 M112.6,1.3h0.5v0.9h-0.5V1.3z M113.6,1.3h0.5v0.9h-0.5V1.3z M104.2,1.3h0.8v0.9h-0.5L104.2,1.3z M115.2,1h-11.5v0.3h0.3v0.9h-0.3
	v0.3h11.5V2.2H115V1.3h0.3L115.2,1z M118.1,1.4h0.5v0.9h-0.5V1.4z M117.6,2.3h-0.5v-1h0.5V2.3z M119.1,1.3h0.5v0.9h-0.5V1.3z
	 M120.1,1.3h0.5v0.9h-0.5V1.3z M121.1,1.3h0.5v0.9h-0.5V1.3z M122.2,1.3h0.5v0.9h-0.5V1.3z M123.2,1.3h0.5v0.9h-0.5V1.3z M124.2,1.3
	h0.5v0.9h-0.5V1.3z M125.2,1.3h0.8v0.9h-0.5L125.2,1.3z M116,1.3h0.5v0.9H116V1.3z M126.7,1h-11.5v0.3h0.3v0.9h-0.3v0.3h11.5V2.2
	h-0.3V1.3h0.3L126.7,1z M129.6,1.4h0.5v0.9h-0.5V1.4z M129.1,2.3h-0.5v-1h0.5V2.3z M130.7,1.3h0.5v0.9h-0.5V1.3z M131.7,1.3h0.5v0.9
	h-0.5V1.3z M132.7,1.3h0.5v0.9h-0.5V1.3z M133.7,1.3h0.5v0.9h-0.5V1.3z M134.8,1.3h0.5v0.9h-0.5V1.3z M135.8,1.3h0.5v0.9h-0.5V1.3z
	 M136.8,1.3h0.5v0.9H137L136.8,1.3z M127.3,1.3h0.5v0.9h-0.5V1.3z M138.3,1h-11.5v0.3h0.3v0.9h-0.3v0.3h11.5V2.2H138V1.3h0.3V1z
	 M141.1,1.4h0.5v0.9h-0.5V1.4z M140.6,2.3h-0.5v-1h0.5V2.3z M142.2,1.3h0.5v0.9h-0.5V1.3z M143.2,1.3h0.5v0.9h-0.5V1.3z M144.2,1.3
	h0.5v0.9h-0.5V1.3z M145.3,1.3h0.5v0.9h-0.5V1.3z M146.3,1.3h0.5v0.9h-0.5V1.3z M147.3,1.3h0.7v0.9h-0.5L147.3,1.3z M148.3,1.3h0.7
	v0.9h-0.5L148.3,1.3z M138.9,1.3h0.5v0.9h-0.5V1.3z M149.8,1h-11.5v0.3h0.3v0.9h-0.3v0.3h11.5V2.2h-0.3V1.3h0.3V1z M152.7,1.4h0.5
	v0.9h-0.5V1.4z M152.1,2.3h-0.5v-1h0.5V2.3z M153.7,1.3h0.5v0.9h-0.5V1.3z M154.7,1.3h0.5v0.9h-0.5V1.3z M155.8,1.3h0.5v0.9h-0.5
	V1.3z M156.8,1.3h0.5v0.9h-0.5V1.3z M157.8,1.3h0.5v0.9h-0.5V1.3z M158.8,1.3h0.5v0.9H159L158.8,1.3z M159.9,1.3h0.5v0.9H160
	L159.9,1.3z M150.4,1.3h0.5v0.9h-0.5V1.3z M161.3,1h-11.5v0.3h0.2v0.9h-0.3v0.3h11.5V2.2H161V1.3h0.3L161.3,1z M164.2,1.4h0.5v0.9
	h-0.5V1.4z M163.7,2.3h-0.5v-1h0.5V2.3z M165.2,1.3h0.5v0.9h-0.5V1.3z M166.3,1.3h0.5v0.9h-0.5V1.3z M167.3,1.3h0.5v0.9h-0.5V1.3z
	 M168.3,1.3h0.5v0.9h-0.5V1.3z M169.3,1.3h0.7v0.9h-0.5L169.3,1.3z M170.4,1.3h0.6v0.9h-0.5L170.4,1.3z M171.4,1.3h0.6v0.9h-0.5
	L171.4,1.3z M162,1.3h0.5v0.9H162V1.3z M172.8,1h-11.5v0.3h0.3v0.9h-0.3v0.3h11.5V2.2h-0.3V1.3h0.3V1z M175.7,1.4h0.5v0.9h-0.5V1.4z
	 M175.2,2.3h-0.5v-1h0.5V2.3z M176.8,1.3h0.5v0.9h-0.5V1.3z M177.8,1.3h0.5v0.9h-0.5V1.3z M178.8,1.3h0.5v0.9h-0.5V1.3z M179.8,1.3
	h0.5v0.9h-0.5V1.3z M180.8,1.3h0.5v0.9H181L180.8,1.3z M181.8,1.3h0.5v0.9H182L181.8,1.3z M182.8,1.3h0.5v0.9H183L182.8,1.3z
	 M173.4,1.3h0.5v0.9h-0.5V1.3z M187,1.3h0.5v0.9H187V1.3z M186.5,2.3h-0.5v-1h0.5V2.3z M188.1,1.3h0.5v0.9h-0.5V1.3z M189.1,1.3h0.5
	v0.9h-0.5V1.3z M190.1,1.3h0.5v0.9h-0.5V1.3z M191.1,1.3h0.5v0.9h-0.5V1.3z M192.2,1.3h0.8v0.9h-0.5L192.2,1.3z M193.2,1.3h0.8v0.9
	h-0.5L193.2,1.3z M194.2,1.3h0.5v0.9h-0.5V1.3z M184.8,1.3h0.5v0.9h-0.5V1.3z M184,1.3h0.3v0.9h-0.5v-1L184,1.3z M198.4,1.3h0.5v0.9
	h-0.5V1.3z M197.9,2.3h-0.5v-1h0.5V2.3z M199.4,1.3h0.5v0.9h-0.5V1.3z M200.4,1.3h0.5v0.9h-0.5V1.3z M201.4,1.3h0.5v0.9h-0.5V1.3z
	 M202.5,1.3h0.5v0.9h-0.5V1.3z M203.5,1.3h0.5v0.9H204L203.5,1.3z M204.5,1.3h0.5v0.9H205L204.5,1.3z M205.5,1.3h0.5v0.9h-0.5V1.3z
	 M196.1,1.3h0.5v0.9h-0.5V1.3z M195.3,1.3h0.3v0.9h-0.5v-1L195.3,1.3z M209.7,1.3h0.5v0.9h-0.5V1.3z M209.2,2.3h-0.5v-1h0.5V2.3z
	 M210.8,1.3h0.5v0.9h-0.5V1.3z M211.8,1.3h0.5v0.9h-0.5V1.3z M207.6,1.3h0.5v0.9h-0.5V1.3z M206.8,1.3h0.3v0.9h-0.5v-1L206.8,1.3z
	 M213.2,1h-40.4v0.3h0.3v0.9h-0.3v0.3h40.4L213.2,1z M0,13.6h213.1v-0.4H0V13.6z"/>
</svg>
