<?xml version="1.0" encoding="utf-8"?>
<!-- Generator: Adobe Illustrator 22.1.0, SVG Export Plug-In . SVG Version: 6.00 Build 0)  -->
<svg version="1.1" id="Layer_1" xmlns="http://www.w3.org/2000/svg" xmlns:xlink="http://www.w3.org/1999/xlink" x="0px" y="0px"
	 viewBox="0 0 42.4 42.4" style="enable-background:new 0 0 42.4 42.4;" xml:space="preserve">
<style type="text/css">
	.st0{fill:#FFFFFF;}
	.st1{fill:#7C6742;}
</style>
<polygon class="st0" points="6,42.4 6.4,37.1 4.9,35.8 4,34.3 4.4,32.6 5.2,31.2 5.9,30.1 6.3,29.5 6.4,26.4 5,24.6 4,22.6 
	3.6,21.1 1.4,19.7 0.7,18.2 0.4,16.7 0.5,15.7 1.3,14.3 1.8,13.3 2.5,12.8 2.8,11.2 3.7,11.5 3.4,9.9 3.1,8 2.9,5.4 3.9,4.5 
	4.8,3.7 5.6,2.6 7.2,2.8 8.2,2.9 9.3,3 10.2,3.1 10.9,3.3 11.5,3.3 11.9,2.5 13.4,2 14.6,0.9 16,0.2 17.4,0.1 18.5,0.4 19.5,1.1 
	20.4,2.3 21,3 23.2,4.1 24.8,4.7 27.5,6 30.3,6.1 31.4,5 32.8,4.2 34.2,4 35.7,4.4 36.4,4.9 37.4,5.7 42.4,5.7 42.4,19.3 19.6,19.3 
	19.2,42.4 "/>
<path class="st1" d="M9.1,28.9c0-0.1,0.5-0.7,0.8-0.7c-0.3,0.3-0.4,0.8-0.2,1.2c0-0.8,0.5-1.6,1.3-1.9l-0.1-0.1
	C10.8,27.5,8.9,27.7,9.1,28.9z M10.4,25.3l0.2-0.1c-3.7-0.5-3.3,1.1-3.3,1.6c0.1-0.3,0.4-0.5,0.7-0.6c-0.3,0.3-0.4,0.7-0.4,1.1
	C8.1,26.1,9,25.1,10.4,25.3z M10.8,31.4c0.1-0.6,0.5-1.1,1-1.3c0,0-1.5-0.1-1.4,1.1c0.1-0.3,0.3-0.5,0.6-0.6
	C10.8,30.7,10.7,31.1,10.8,31.4z M25.8,11.8c3.5,1.1,4.4,2.8,4.4,4.1c0.3-2.4,1.7-0.5,2,0.3c-0.7-2.7,1.2-0.4,1.3-0.1
	C32.8,13.4,27.7,11.6,25.8,11.8z M40.3,17h2.1v0.4h-0.2v0.9h0.2v0.4h-5.7c-0.5,0.2-1,0.2-1.5,0h-2.8c-0.4,0.3-0.9,0.3-1.3,0h-0.8
	c-0.2,0.2-0.4,0.4-0.6,0.6h12.8v0.4H28.8c-0.6,0.3-1.3,0.3-1.8,0h-7.4V27c0.3,0.6,0.3,1.3,0,1.8v13.6h-0.4V29.6
	c-0.2,0.2-0.4,0.4-0.6,0.6v0.8c0.3,0.4,0.3,0.9,0,1.3v2.8c0.2,0.5,0.2,1,0,1.5v5.7h-0.4v-0.2h-0.9v0.2H17v-2.1
	c-0.3,0.1-0.8-0.7-1.1-1v3.1h-0.6V39c-0.3-0.2-0.7-0.3-1.1-0.3v3.7h-0.8v-3.7c-0.4,0.1-0.7,0.2-1.1,0.3v3.4h-1.3v-2.7
	c-0.3,0.2-0.7,0.4-1.1,0.5v2.3H9.2v-2.2c-0.4,0.1-0.8,0-1.1-0.3v2.5H7.5v-3c-0.1-0.3,0-0.6,0.3-0.8c5.1-3.7,1.9-8.4-1.5-11.2v2.3
	c0.3-0.4,0.5-0.9,0.6-1.4c0,0.6-0.1,1.2-0.4,1.7h2.1l0.2,0.3H6.2l-0.7,0.8l3.8,0.1l0.2,0.2l-4.3,0c-0.3,0.3-0.5,0.6-0.7,1l5.3,0.1
	v0.2l-5.5,0.1c-0.1,0.3-0.2,0.7-0.2,1l5.8-0.2v0.1l-5.8,0.4c0,0.3,0.1,0.6,0.1,0.8l5.7-0.5v0.2l-5.6,0.6c0.1,0.3,0.2,0.5,0.4,0.7
	l5.1-0.3L9.7,36l-4.7,0.5c0.4,0.3,0.8,0.6,1.2,0.9l3-0.5L9,37.2l-2.4,0.5c0.8,0.7,0.8,1.9,0.6,1.8C7.1,39.2,7,39,7,38.8
	c0-0.1,0-0.1,0-0.2c-0.2-0.3-0.4-0.6-0.7-0.9v4.7H5.9v-5c-1.3-0.6-2.1-2-2-3.4c-0.1-1.9,1.2-2.6,2-3.7V27C5,26.1,4.4,24.9,4,23.7
	c-0.7-3.5,1.7-7.4,5.5-7.7l0.1,0.1c-3.4,0.7-5.4,4.4-4.8,7.6c0.7,2.8,3.1,4.2,4.9,6.5c1.3,1.6,1.7,3.6,1.1,5.6
	c-0.6,2-2.4,2.7-2.7,3.4s0.8,0.9,1.4,0.8c1.3,0.1,2.7-2.2,5.6-1.3c0.7,0.2,1.2,0.7,1.5,1.3c0.1,0.3,1.2-0.1,0.3-1.7
	c-2.3-0.1-1.9-1.6-1.8-1.5c1.3,0.7,2.3-0.4,1.7-1.2c-0.3-0.3-0.6-0.6-0.9-0.8c-1.1-0.7-2-1.5-2.9-2.4c-0.3-0.4-0.5-0.8-0.8-1.3
	c-1.8-3.1-2.6-7.4-0.7-10.4v-0.3c-0.2-0.5-0.4-1-0.4-1.6c0-0.4-0.2-0.7-0.6-0.9c-0.1-0.1-0.4,0-0.4,0.2c0.1,0.4,0.3,0.3,0.5,0.3
	c-0.1,0.2-0.4,0.2-0.6,0.1c-0.1-0.1-0.1-0.1-0.2-0.2c-0.1-0.3,0.1-0.5,0.3-0.6c0,0,0,0,0.1,0c0.5,0,0.9,0.3,1,0.7
	c0.4,0.8,0.4,2,1.3,2.5c0.6,0.2,1.3,0.1,1.9-0.2c2.6-1,4.7-3.1,5.7-5.7c0.3-0.6,0.4-1.3,0.2-1.9c-0.4-0.9-1.6-0.9-2.5-1.3
	c-0.4-0.1-0.7-0.5-0.7-1c0.1-0.3,0.3-0.5,0.6-0.4c0,0,0,0,0,0c0.2,0.1,0.4,0.3,0.3,0.5c0,0.1-0.1,0.2-0.2,0.2c0-0.2,0.1-0.4-0.3-0.5
	c-0.2,0-0.2,0.3-0.2,0.4c0.2,0.3,0.5,0.5,0.9,0.6c0.5,0,1.1,0.2,1.6,0.4h0.3c3-1.9,7.3-1.1,10.4,0.7c0.5,0.3,0.9,0.5,1.3,0.8
	c0.9,0.8,1.8,1.8,2.4,2.9c0.2,0.3,0.5,0.6,0.8,0.9c0.8,0.5,2-0.4,1.2-1.7c-0.1-0.2,1.4-0.5,1.5,1.8c1.6,0.9,2-0.1,1.7-0.3
	c-0.6-0.3-1.1-0.9-1.3-1.5c-0.9-2.9,1.4-4.3,1.3-5.6C40,9,39.7,7.9,39.1,8.2c-0.6,0.2-1.4,2.1-3.4,2.7c-1.9,0.6-4,0.1-5.6-1.1
	c-2.2-1.9-3.7-4.3-6.5-5c-3.2-0.7-7,1.4-7.6,4.8L16,9.5c0.3-3.8,4.2-6.2,7.7-5.5c1.2,0.4,2.4,1,3.3,1.9h3.3c1.1-0.8,1.8-2.1,3.7-2
	c1.4-0.1,2.7,0.7,3.4,2h5v0.4h-4.7c0.2,0.3,0.5,0.5,0.9,0.7C38.6,7,38.7,7,38.7,7c0.2,0,0.4,0.1,0.6,0.2c0.1,0.2-1.1,0.2-1.8-0.6
	l-0.5,2.4l-0.3,0.2l0.5-3c-0.3-0.4-0.6-0.8-0.9-1.2l-0.5,4.7l-0.2,0.1L36,4.8c-0.2-0.2-0.5-0.3-0.7-0.4l-0.6,5.6h-0.1l0.4-5.7
	c-0.3-0.1-0.6-0.1-0.8-0.1L33.7,10h-0.1l0.2-5.8c-0.3,0-0.7,0-1,0.2l-0.1,5.5h-0.2l-0.1-5.3c-0.4,0.2-0.7,0.4-1,0.7l0.1,4.3
	l-0.2-0.2l-0.1-3.8l-0.8,0.7v2.5L30,8.6V6.5c-0.5,0.3-1.1,0.5-1.6,0.4c0.5-0.1,1-0.3,1.4-0.6h-2.3c2.8,3.4,7.5,6.6,11.2,1.5
	c0.2-0.2,0.5-0.3,0.8-0.3h3V8h-2.5c0.3,0.3,0.4,0.7,0.3,1.1h2.2V10h-2.3c-0.1,0.4-0.3,0.7-0.5,1.1h2.7v1.3H39
	c-0.2,0.3-0.3,0.7-0.3,1.1h3.7v0.8h-3.7c0,0.4,0.2,0.8,0.3,1.1h3.4v0.6h-3.1C39.6,16.2,40.3,16.6,40.3,17z M20.7,15.4H29
	c-0.2-0.5-0.5-0.8-0.9-1.1h-7L20.7,15.4z M21.3,13.4h5.5c-0.7-0.5-1.5-0.8-2.4-1.1H21C21.2,12.7,21.4,13,21.3,13.4z M19.7,17h5.9
	c0.3-0.6,0.8-0.5,1,0h2.2c0.3-0.3,0.4-0.7,0.3-1.1h-8.7L19.7,17z M27.9,17.4v0.3c0.3,0,0.5-0.1,0.7-0.3H27.9z M26.9,17.4
	c0.1,0.1,0.3,0.2,0.5,0.3v-0.3H26.9z M24.8,17.4v0.9h0.5v-0.9L24.8,17.4z M23.8,17.4v0.9h0.5v-0.9L23.8,17.4z M22.8,17.4v0.9h0.5
	v-0.9H22.8z M21.8,17.4v0.9h0.5v-0.9L21.8,17.4z M20.8,17.4v0.9h0.5v-0.9H20.8z M19.8,18.3h0.5v-0.9h-0.6L19.8,18.3z M18.8,18.3h0.5
	v-0.5L18.8,18.3z M17.8,19.3h0.5v-0.5L17.8,19.3z M17.4,20.3h0.9v-0.6h-0.9V20.3z M17.4,21.3h0.9v-0.5h-0.9V21.3z M17.4,21.8v0.5
	h0.9v-0.5H17.4z M18.3,24.3v-0.5h-0.9v0.5H18.3z M17.4,24.8v0.5h0.9v-0.5L17.4,24.8z M18.3,23.3v-0.5h-0.9v0.5H18.3z M15.9,29.1
	c0.4,0.1,0.8,0,1.1-0.3v-2.2c-0.5-0.2-0.6-0.8,0-1v-5.9l-1.1,0.6L15.9,29.1z M14.3,28.1c0.3,0.4,0.6,0.7,1.1,0.9v-8.4l-1.1,0.5V28.1
	z M12.3,24.5c0.2,0.8,0.6,1.6,1.1,2.4v-5.5c-0.4,0-0.8-0.1-1.1-0.3L12.3,24.5z M18.2,41.2h-0.9v0.5h0.9V41.2z M18.2,40.2h-0.8
	l-0.1,0.1v0.4h0.9V40.2z M18.2,39.2h-0.5c0,0.2,0,0.3,0,0.5h0.5L18.2,39.2z M18.2,38.2h-0.9l0.2,0.5h0.7V38.2z M18.2,37.4L18,37.6
	h0.3V37.4z M18.2,26.2c-0.2-0.1-1.3-0.5-1.2,0.1c0,0.3,0.5,0.5,0.6,0.7c0.6,0.5,0.7,1.4,0.2,2c0,0.1-0.1,0.1-0.2,0.2
	c-1.8,1.4-3,0.1-3,0.1c-1.8-1.8-2.9-4.3-3-6.9c-0.7,3-0.2,6.1,1.3,8.7c1.5,2.5,2,2.4,4.3,4c0.5,0.4,0.7,1.1,0.4,1.7
	c-0.6,1-2,0.3-2.1,0.5s0.1,0.4,0.5,0.6c1.6,0.8,2.6-1,2.4-2c-0.3-1.2-0.7-1.8-2.3-2.6c0.9,0.2,1.7-0.2,2.2-0.9
	c0.2-0.2,0.3-0.9-0.1-0.8c-0.2,0.1-0.3,0.2-0.5,0.4c-1.5,0.7-2.1-1-2.1-1c1.8-0.1,2.3-0.2,3.4-1.6C19.7,28.1,19.3,26.7,18.2,26.2
	L18.2,26.2z M17.3,31v0.6c0.3,0,0.7-0.2,0.9-0.5V31L17.3,31z M16.2,31c0.1,0.3,0.4,0.5,0.8,0.6V31C16.7,31,16.5,31,16.2,31z
	 M18.2,33.5V33H18c-0.2,0.1-0.4,0.2-0.7,0.3v0.2L18.2,33.5z M17.7,34c0.2,0.2,0.4,0.3,0.5,0.5V34L17.7,34z M16.7,33.3l0.2,0.1v-0.2
	L16.7,33.3z M17.2,27.9v0.7c0.2-0.2,0.3-0.4,0.3-0.7H17.2z M17.5,27.4c0-0.2-0.1-0.4-0.3-0.5v0.5H17.5z M26.3,19.2
	c-0.2-0.2-0.3-0.4-0.5-0.6h-7.2v7.3c0.2,0.1,0.4,0.3,0.6,0.5v-7.2L26.3,19.2z M31,18.2c0.2-0.2,0.4-0.6,0.4-0.9h-0.6v0.9H31z
	 M31.6,17c0-0.3-0.2-0.6-0.6-0.8c0,0.3,0,0.5,0,0.8H31.6z M33.5,17.4h-0.2c-0.1,0.2-0.2,0.4-0.3,0.6v0.2h0.5L33.5,17.4z M33.5,17
	l-0.1-0.2V17H33.5z M34.5,18.3c-0.2-0.1-0.4-0.3-0.5-0.5v0.5L34.5,18.3z M37.5,18l-0.3,0.2h0.3V18z M37.7,16
	c-0.2-0.4-0.5-0.7-0.6-0.5s0.6,1.4-0.5,2.1c-0.6,0.2-1.2,0.1-1.6-0.4c-1.7-2.4-1.6-2.9-4-4.4c-2.6-1.5-5.7-2-8.7-1.3
	c2.6,0.1,5,1.2,6.9,3c0,0,1.2,1.2-0.1,3c-0.5,0.6-1.4,0.7-2,0.2c-0.1,0-0.1-0.1-0.2-0.2c-0.1-0.2-0.4-0.6-0.7-0.6
	c-0.5,0-0.2,1-0.1,1.2c0.6,1.1,2,1.5,3.1,0.9c1.4-1.1,1.5-1.6,1.6-3.4c0,0,1.7,0.6,1,2.1c-0.1,0.2-0.2,0.3-0.4,0.5
	c-0.1,0.3,0.6,0.2,0.8,0.1c0.7-0.5,1-1.4,0.9-2.2c0.8,1.6,1.4,2,2.6,2.3C36.7,18.6,38.5,17.6,37.7,16L37.7,16z M38.5,18.2v-0.6
	L38,17.4v0.9H38.5z M39.5,17.7c-0.2,0-0.3,0-0.5,0v0.5h0.5V17.7z M41,18.2h0.5v-0.9H41V18.2z M40.5,17.3h-0.3l-0.1,0.1v0.8h0.5
	L40.5,17.3z M5.5,24.6C5.7,24.2,6.1,24,6.4,24C6.2,24.3,6,24.7,6,25.1c0.6-1,1.9-1.9,4.4-1.9l0.2-0.2c-5.1-0.9-5,1-5,1.5L5.5,24.6z
	 M19.7,11.1l0.1,0.1L19.7,11.1z M19.7,11.1c-1.1-1.2-1.3-2.9-0.6-4.4c-0.3,0.2-0.6,0.6-0.7,1c-0.1-0.3-0.1-0.7,0.1-1
	C17.1,8.7,18.1,9.4,19.7,11.1z M11.1,19.7l0.1,0.1L11.1,19.7z M6.8,18.5c0.3-0.1,0.7-0.1,1,0c-0.4,0.1-0.8,0.3-1,0.7
	c1.5-0.7,3.2-0.4,4.4,0.6C9.4,18.1,8.7,17.1,6.8,18.5z M11,21.5c-4.6-2.4-5.9-0.3-6,0.2c0.3-0.2,0.6-0.4,1-0.3
	c-0.4,0.2-0.7,0.5-0.8,0.9c0.8-0.9,2.9-1.3,5.6-0.7C10.9,21.5,10.9,21.5,11,21.5L11,21.5z M24.5,5.6c-0.5,0-2.4-0.1-1.5,5l0.2-0.2
	C23.1,7.9,24,6.6,25.1,6c-0.4,0-0.8,0.2-1.1,0.5C24,6.1,24.2,5.8,24.5,5.6z M11.8,25.8c-0.2,1.9,1.7,7,4.3,7.8
	c-0.2-0.1-2.6-2,0.1-1.3c-0.9-0.4-2.7-1.7-0.3-2C14.6,30.1,12.8,29.2,11.8,25.8z M21.6,5c-0.5,0.1-2.6,1.4-0.2,6c0-0.1,0-0.2,0-0.2
	c-0.6-2.7-0.2-4.8,0.7-5.6c-0.4,0.2-0.7,0.4-0.9,0.8C21.3,5.6,21.4,5.3,21.6,5z M26.8,7.3c-0.5,0-2.1-0.4-1.6,3.3l0.1-0.2
	c-0.2-1.4,0.8-2.2,2-2.7c-0.4,0-0.8,0.1-1.1,0.3C26.3,7.7,26.5,7.4,26.8,7.3z M11.9,2.8c0.4-0.1,0.8-0.2,1.2-0.4l0.1,0.9l0.3,0.1
	l-0.1-1.2l0.9-0.7l0.2,2.4h0.2l-0.1-2.7c0.3-0.3,0.6-0.5,1-0.6v3.9h0.2l0.2-4c0.3-0.1,0.7-0.1,1-0.1l-0.6,7l0.8-7
	c0.3,0,0.6,0.1,0.8,0.2l-0.6,5.2l0.1-0.1l0.8-5c0.3,0.1,0.5,0.2,0.7,0.4l-0.4,3.7l0.2-0.1l0.5-3.3c0.3,0.4,0.6,0.8,0.9,1.3l-0.4,1.6
	L20.3,4l0.3-1c0.2,0.2,0.5,0.4,0.7,0.6c0.1,0.1,0.2,0.1,0.4,0.1h0.6c0-0.1-0.3-0.2-0.5-0.2c-0.1,0-0.2-0.1-0.4-0.1
	c-1.7-1.1-1.1-3-4.3-3.3C14.6-0.2,14,2.2,12,2.5c-0.2,0.1-0.4,0.2-0.5,0.3C11.6,2.9,11.6,2.8,11.9,2.8z M13.6,14.1l0.2-0.2l0.2-0.2
	c1.6-1.7,3.8-2.1,4.9-0.9s0.7,3.5-0.9,5.1l-0.1,0.1L17.8,18c-1.7,1.6-4,2-5.1,0.9S12,15.6,13.6,14.1z M13.2,18.4
	c1.1,1,3.1,0.8,4.5-0.6l0.1-0.1l0.1-0.1c1.3-1.4,1.6-3.4,0.6-4.5s-2.9-0.8-4.3,0.6L14,14l-0.2,0.2C12.4,15.5,12.1,17.4,13.2,18.4z
	 M31.1,10.4c-1.2-0.1-1.1,1.4-1.1,1.4c0.2-0.5,0.7-0.9,1.3-1c-0.3-0.1-0.6,0-0.8,0.2C30.6,10.8,30.8,10.6,31.1,10.4L31.1,10.4z
	 M28.9,9.1c-1.3-0.3-1.5,1.6-1.5,1.6l0.1,0.1c0.3-0.8,1.1-1.3,1.9-1.3c-0.4-0.1-0.9-0.1-1.2,0.2C28.2,9.6,28.8,9.1,28.9,9.1z
	 M5.5,5.5L4.9,5.6l4.4,3.8L5.5,4.9L5.5,5.5z M3,7.2C2.2,7.5,2.2,8,2.4,8.3C2.6,8.7,2.9,9,3.2,9.2c-0.8,0.2-0.7,0.8-0.5,1
	c0.2,0.3,0.5,0.5,0.9,0.7c-0.8,0.3-0.6,0.8-0.4,1c0.2,0.2,0.5,0.4,0.8,0.5c-0.7,0.4-0.5,0.8-0.3,1c0.2,0.2,0.5,0.3,0.8,0.4
	c-0.5,0.4-0.3,0.8-0.1,0.9c0.2,0.1,0.5,0.2,0.8,0.2c-0.4,0.4-0.2,0.7,0,0.8c0.3,0.1,0.6,0.2,0.9,0.1c0.4,0,0.9-0.1,1.3-0.1
	c0.7-0.1,3.1-0.5,4.5-0.5l0,0l0.1-0.1c-1.5,0-2.9,0.1-4.4,0.3c-0.7,0.2-1.5,0.2-2.2,0.1c-0.2-0.1-0.3-0.2,0.1-0.5c0.4,0,1,0,1.4,0
	c1.7-0.1,3.4,0,5.2,0.1l0.1-0.2l0,0c-1.7-0.2-3.3-0.3-5-0.3c-0.8,0.1-1.6,0-2.4-0.2c-0.2-0.1-0.3-0.3,0.2-0.6C5.4,14,6,14,6.4,14
	c1.9,0.1,3.8,0.4,5.8,0.8l0.1-0.1c-1.8-0.5-3.6-0.8-5.5-0.9c-0.9,0-1.8-0.2-2.7-0.5c-0.2-0.1-0.3-0.3,0.2-0.6
	C4.9,12.8,5.6,12.9,6,13c2.1,0.4,4.2,0.9,6.3,1.6l0.1-0.2c-1.9-0.8-3.9-1.3-5.9-1.8c-1-0.1-2-0.4-2.9-0.9c-0.2-0.2-0.3-0.4,0.3-0.6
	c0.6,0.2,1.3,0.4,1.8,0.6c2.3,0.7,4.6,1.6,6.8,2.6l0.1-0.2c-2-1.1-4.1-2-6.3-2.7c-1.1-0.3-2.1-0.7-3-1.4C3.1,9.9,3.1,9.7,3.7,9.5
	c0.6,0.4,1.4,0.6,1.9,0.9c2.5,1.1,4.9,2.3,7.2,3.7c0-0.1,0.1-0.1,0.2-0.2c-2.1-1.5-4.3-2.7-6.6-3.8c-1-0.5-2.5-1-3.2-1.9
	C2.9,8,2.9,7.7,3.4,7.6c0.6,0.5,1.3,0.9,2,1.2c1.2,0.8,5.7,3.2,7.5,5l0.2-0.2c-2-1.9-4.3-3.6-6.7-5C5.4,8,3.7,7.3,3.1,6.1
	c-0.2-0.4,0-0.8,1.3-0.8c0-0.3,0-0.5,0.1-0.8c0.3-0.1,0.5-0.1,0.8-0.1c0-1.4,0.4-1.5,0.8-1.3c1.1,0.6,1.8,2.2,2.5,3.3
	c1.4,2.4,3.1,4.7,5,6.7l0.2-0.2c-1.7-1.8-4.2-6.2-5-7.5C8.4,4.8,8,4.1,7.5,3.5c0.2-0.5,0.4-0.5,0.6-0.4C9.1,3.8,9.6,5.3,10,6.3
	c1,2.3,2.3,4.6,3.8,6.6l0.2-0.2c-1.4-2.3-2.6-4.7-3.7-7.2c-0.3-0.6-0.6-1.3-0.9-1.9c0.2-0.6,0.4-0.6,0.6-0.4c0.6,0.9,1.1,1.9,1.4,3
	c0.7,2.2,1.6,4.3,2.7,6.3l0.2-0.1c-1-2.2-1.9-4.5-2.6-6.8c-0.2-0.4-0.4-1.2-0.6-1.8c0.2-0.6,0.4-0.6,0.6-0.3
	c0.5,0.9,0.8,1.9,0.9,2.9c0.4,2,1,4,1.8,5.9l0.2-0.1C13.9,10.3,13.4,8.1,13,6c-0.1-0.4-0.2-1.1-0.4-1.6c0.3-0.5,0.5-0.5,0.6-0.2
	c0.3,0.8,0.5,1.7,0.5,2.7c0.2,1.8,0.5,3.7,0.9,5.5l0.1-0.1c-0.4-1.9-0.6-3.8-0.8-5.8C14,6,14,5.4,13.9,4.9c0.3-0.4,0.5-0.4,0.6-0.2
	c0.2,0.8,0.3,1.6,0.2,2.4c-0.1,1.7,0,3.3,0.3,5l0,0l0.2-0.1C15,10.3,14.9,8.6,15,6.9c0-0.3,0-0.9,0-1.4c0.3-0.4,0.5-0.3,0.5-0.1
	c0.1,0.7,0.1,1.5-0.1,2.2c-0.2,1.5-0.3,2.9-0.3,4.4l0.1-0.1l0,0c0-1.4,0.4-3.8,0.5-4.5c0.1-0.4,0.1-0.9,0.1-1.3c0-0.3,0-0.6-0.1-0.9
	c-0.1-0.2-0.4-0.4-0.8,0c0-0.3-0.1-0.5-0.2-0.8c-0.1-0.2-0.5-0.4-0.9,0.1c-0.1-0.3-0.2-0.6-0.4-0.8c-0.2-0.2-0.6-0.4-1,0.3
	c-0.1-0.3-0.2-0.6-0.4-0.9c-0.2-0.2-0.7-0.3-1,0.4c-0.2-0.3-0.4-0.6-0.7-0.9c-0.2-0.2-0.8-0.3-1,0.5C9.1,2.8,8.8,2.5,8.4,2.3
	C8,2.2,7.5,2.2,7.2,3C6.9,2.7,6.5,2.4,6.1,2.3C5.7,2.1,4.8,2.4,4.8,3.9C4.5,3.9,4.3,3.9,4,4C3.9,4.2,3.9,4.5,3.8,4.8
	C2.3,4.8,2.1,5.7,2.2,6.1C2.4,6.5,2.7,6.9,3,7.2z M3.3,21.5c0.1,0.1,0.1,0.2,0.1,0.4c0,0.2,0.1,0.5,0.2,0.5s0-0.4,0-0.6
	c0-0.1,0-0.3-0.1-0.4c-0.2-0.3-0.4-0.5-0.6-0.7l1.1-0.3l0.1-0.3l-1.6,0.4c-0.4-0.3-0.9-0.6-1.3-0.9l3.3-0.5l0.1-0.2l-3.7,0.4
	c-0.2-0.2-0.3-0.5-0.4-0.7l5-0.8l0.1-0.1l-5.2,0.6c-0.1-0.3-0.1-0.5-0.2-0.8l7-0.9l-7,0.6c0-0.3,0-0.7,0.1-1l4.1-0.2v-0.2H0.7
	c0.2-0.4,0.4-0.7,0.6-1L4,14.6v-0.2l-2.4-0.2l0.7-0.9l1.2,0.1l-0.1-0.3L2.5,13c0.2-0.4,0.3-0.8,0.4-1.2c0-0.2,0.1-0.3,0-0.4
	c-0.1,0.2-0.2,0.3-0.3,0.5C2.2,14-0.2,14.6,0,17.2C0.4,20.4,2.2,19.8,3.3,21.5L3.3,21.5z M10,10c1,1.3,2.1,2.5,3.3,3.6l0.3-0.3
	C12.5,12.1,11.3,11,10,10z"/>
</svg>
