<?xml version="1.0" encoding="utf-8"?>
<!-- Generator: Adobe Illustrator 22.1.0, SVG Export Plug-In . SVG Version: 6.00 Build 0)  -->
<svg version="1.1" id="Layer_1" xmlns="http://www.w3.org/2000/svg" xmlns:xlink="http://www.w3.org/1999/xlink" x="0px" y="0px"
	 viewBox="0 0 42.4 42.4" style="enable-background:new 0 0 42.4 42.4;" xml:space="preserve">
<style type="text/css">
	.st0{fill:#FFFFFF;}
	.st1{fill:#7C6742;}
</style>
<polygon class="st0" points="6.1,0 6.4,5.4 4.9,6.7 4,8.1 4.4,9.9 5.3,11.2 5.9,12.4 6.3,12.9 6.4,16.1 5,17.8 4,19.9 3.6,21.4 
	1.4,22.7 0.7,24.2 0.4,25.8 0.5,26.8 1.3,28.2 1.8,29.2 2.5,29.6 2.9,31.2 3.7,30.9 3.4,32.6 3.2,34.4 2.9,37.1 3.9,37.9 4.9,38.8 
	5.7,39.8 7.3,39.7 8.2,39.6 9.3,39.5 10.2,39.4 11,39.1 11.5,39.1 11.9,39.9 13.5,40.5 14.7,41.5 16,42.3 17.4,42.4 18.5,42.1 
	19.5,41.4 20.4,40.1 21.1,39.4 23.2,38.3 24.9,37.7 27.5,36.4 30.3,36.4 31.5,37.4 32.8,38.3 34.2,38.4 35.7,38.1 36.4,37.6 
	37.4,36.8 42.4,36.8 42.4,23.1 19.6,23.1 19.2,0 "/>
<path class="st1" d="M6.8,23.9c2,1.4,2.6,0.4,4.4-1.3c-1.2,1.1-2.9,1.3-4.4,0.6c0.2,0.3,0.6,0.6,1,0.7C7.4,24.1,7.1,24,6.8,23.9z
	 M32.2,26.2c-0.4,0.9-1.7,2.7-2,0.3c0,1.3-0.9,3-4.4,4.1c1.9,0.2,7-1.7,7.8-4.3C33.4,26.6,31.5,29,32.2,26.2z M42.2,24.2v0.9h0.2
	v0.4h-2.1c0.1,0.3-0.7,0.8-1,1.1h3.1V27H39c-0.2,0.3-0.3,0.7-0.3,1.1h3.7V29h-3.7c0.1,0.4,0.2,0.7,0.3,1h3.4v1.3h-2.8
	c0.2,0.3,0.4,0.7,0.5,1.1h2.3v0.8h-2.2c0.1,0.4,0,0.8-0.3,1.1h2.5v0.5h-3c-0.3,0.1-0.6-0.1-0.8-0.3c-3.6-5.1-8.4-1.9-11.2,1.5h2.3
	c-0.4-0.3-0.9-0.5-1.4-0.6c0.6,0,1.1,0.1,1.6,0.4v-2.1l0.3-0.2v2.5l0.8,0.7l0.1-3.8l0.2-0.2l-0.1,4.3c0.3,0.3,0.6,0.5,1,0.7l0.1-5.3
	h0.2l0.1,5.4c0.3,0.1,0.7,0.1,1,0.2l-0.2-5.8h0.1l0.4,5.8c0.3,0,0.6,0,0.8-0.1l-0.4-5.7h0.2l0.6,5.7c0.3-0.1,0.5-0.2,0.7-0.4
	l-0.3-5.1l0.2,0.1l0.5,4.7c0.3-0.4,0.6-0.8,0.9-1.2l-0.5-3l0.3,0.2l0.5,2.4c0.7-0.8,1.9-0.8,1.8-0.6c-0.2,0.1-0.4,0.2-0.6,0.2
	c-0.1,0-0.1,0.1-0.2,0.1c-0.3,0.2-0.6,0.4-0.9,0.7h4.7v0.4h-5c-0.6,1.3-2,2.1-3.4,2c-1.9,0.1-2.6-1.2-3.7-2H27
	c-0.9,0.9-2.1,1.5-3.3,1.9c-3.5,0.7-7.4-1.7-7.7-5.5l0.1-0.1c0.7,3.4,4.4,5.5,7.6,4.8c2.8-0.7,4.2-3.1,6.5-4.9
	c1.6-1.3,3.6-1.7,5.6-1.1c2,0.6,2.7,2.4,3.4,2.7s0.9-0.8,0.8-1.4c0.1-1.3-2.2-2.7-1.3-5.6c0.2-0.7,0.7-1.2,1.3-1.5
	c0.3-0.1-0.1-1.2-1.7-0.3c-0.1,2.3-1.6,2-1.5,1.8c0.7-1.3-0.4-2.3-1.2-1.7c-0.3,0.3-0.5,0.6-0.8,0.9c-0.7,1.1-1.5,2-2.4,2.9
	c-0.4,0.3-0.8,0.5-1.3,0.8c-3.1,1.8-7.4,2.6-10.4,0.7h-0.3c-0.5,0.2-1,0.4-1.6,0.4c-0.4,0-0.7,0.2-0.9,0.6c-0.1,0.1,0,0.4,0.2,0.4
	c0.4-0.1,0.3-0.3,0.3-0.5c0.2,0.1,0.2,0.4,0.1,0.6c-0.1,0.1-0.2,0.1-0.3,0.2c-0.3,0.1-0.6-0.1-0.6-0.4c0,0,0,0,0,0
	c0-0.5,0.3-0.9,0.7-1c0.8-0.4,2-0.4,2.5-1.3c0.2-0.6,0.1-1.3-0.2-1.9c-1-2.6-3.1-4.7-5.7-5.7c-0.6-0.3-1.3-0.4-1.9-0.2
	c-0.9,0.4-0.9,1.6-1.3,2.5c-0.2,0.4-0.5,0.8-1,0.7c-0.3,0-0.5-0.3-0.4-0.6c0,0,0,0,0-0.1c0.1-0.2,0.3-0.4,0.5-0.3
	c0.1,0,0.2,0.1,0.2,0.2c-0.2,0-0.4-0.1-0.5,0.3c0,0.2,0.3,0.2,0.4,0.2c0.3-0.2,0.5-0.5,0.6-0.9c0-0.5,0.2-1.1,0.4-1.6v-0.3
	c-1.9-3-1.1-7.3,0.7-10.4c0.3-0.5,0.5-0.9,0.8-1.3c0.8-1,1.8-1.8,2.8-2.5c0.3-0.2,0.6-0.4,0.9-0.7c0.5-0.8-0.4-2-1.7-1.2
	c-0.2,0.1-0.5-1.3,1.8-1.4c0.9-1.6-0.1-2-0.3-1.7c-0.3,0.6-0.9,1.1-1.5,1.3c-2.9,0.9-4.3-1.4-5.6-1.3C9,2.4,7.9,2.6,8.1,3.2
	c0.2,0.6,2.1,1.4,2.7,3.4c0.6,1.9,0.1,4-1.1,5.6c-1.8,2.3-4.2,3.7-4.9,6.5c-0.7,3.2,1.4,7,4.8,7.6l-0.1,0.1
	c-3.8-0.3-6.2-4.3-5.5-7.7c0.4-1.3,1-2.4,1.9-3.3v-3.3c-0.8-1.1-2.1-1.8-2-3.7C4,6.1,5,5.7,5.9,5V0h0.4v4.7C6.6,4.5,6.8,4.2,7,3.8
	c0-0.1,0-0.1,0-0.2c0-0.2,0.1-0.5,0.2-0.6s0.2,1.1-0.6,1.8L9,5.3l0.2,0.3l-3-0.5C5.9,5.4,5.5,5.7,5.1,6l4.7,0.5l0.1,0.2L4.8,6.4
	C4.7,6.6,4.5,6.8,4.5,7.1l5.6,0.6v0.2L4.3,7.5C4.3,7.7,4.3,8,4.2,8.3L10,8.7v0.1L4.2,8.7c0,0.3,0.1,0.6,0.2,0.9l5.5,0.1v0.2L4.5,10
	c0.2,0.4,0.4,0.7,0.7,1l4.3-0.1l-0.2,0.2l-3.8,0.1l0.7,0.8h2.5l-0.2,0.3H6.5c0.3,0.5,0.5,1,0.4,1.5c-0.1-0.5-0.3-1-0.6-1.4V15
	c3.4-2.8,6.6-7.5,1.5-11.1C7.5,3.6,7.4,3.3,7.5,3V0h0.6v2.5c0.3-0.3,0.7-0.4,1.1-0.3V0H10v2.3c0.4,0.1,0.7,0.3,1.1,0.5V0h1.3v3.4
	c0.3,0.2,0.7,0.3,1.1,0.3V0h0.8v3.7c0.4,0,0.7-0.1,1.1-0.3V0h0.6v3.1c0.3-0.2,0.7-1,1.1-1V0h0.4v0.2h0.9V0h0.4v5.8
	c0.2,0.5,0.2,1,0,1.5V10c0.3,0.4,0.3,0.9,0,1.3v0.8c0.2,0.2,0.4,0.4,0.6,0.6V0h0.4v13.6c0.3,0.6,0.3,1.3,0,1.8v7.4H27
	c0.6-0.3,1.3-0.3,1.8,0h13.6v0.4H29.6c0.2,0.2,0.4,0.4,0.6,0.6h0.8c0.4-0.3,0.9-0.3,1.3,0h2.8c0.5-0.2,1-0.2,1.5,0h5.7v0.4
	L42.2,24.2z M37.3,24.2c0.1,0.1,0.2,0.2,0.3,0.3v-0.3H37.3z M34,24.7c0.2-0.2,0.3-0.4,0.5-0.5H34L34,24.7z M33,24.4
	c0.1,0.2,0.2,0.4,0.3,0.7h0.2v-0.9H33L33,24.4z M33.4,25.4v0.2l0.1-0.2H33.4z M31,24.1V25h0.6c0-0.3-0.2-0.7-0.4-0.9H31z M31,25.4
	c0,0.3,0,0.5,0,0.8c0.3-0.1,0.5-0.4,0.6-0.8H31z M17.3,1.3h0.9V0.8h-0.9V1.3z M17.4,2.3h0.8V1.8h-0.9v0.4L17.4,2.3z M17.7,3.3h0.5
	V2.8h-0.5C17.8,3,17.8,3.1,17.7,3.3L17.7,3.3z M17.4,4.3h0.9V3.8h-0.7L17.4,4.3z M18,4.8l0.3,0.3V4.8L18,4.8z M13.4,15.5
	c-0.5,0.7-0.8,1.5-1.1,2.4v3.5c0.3-0.2,0.7-0.4,1.1-0.3V15.5z M15.3,13.3c-0.5,0.2-0.8,0.5-1.1,0.9v7l1.1,0.5V13.3z M17,16.8
	c-0.6-0.2-0.5-0.8,0-1v-2.2c-0.3-0.3-0.7-0.4-1.1-0.3V22l1.1,0.7V16.8z M18.3,23.2h-0.5l0.5,0.5V23.2z M18.3,22.2h-0.9v0.5h0.9V22.2
	z M18.3,21.2h-0.9v0.5h0.9V21.2z M18.3,20.2h-0.9v0.5h0.9V20.2z M18.3,19.2h-0.9v0.5h0.9V19.2z M18.3,18.2h-0.9v0.5h0.9V18.2z
	 M18.3,17.2h-0.9v0.5h0.9V17.2z M19.1,13.3c-1.1-1.4-1.6-1.5-3.4-1.6c0,0,0.6-1.7,2.1-1c0.2,0.1,0.3,0.2,0.5,0.4
	c0.3,0.1,0.2-0.6,0.1-0.8c-0.5-0.7-1.4-1-2.2-0.9c1.6-0.8,2-1.4,2.3-2.6C18.6,5.8,17.7,4,16,4.7c-0.4,0.2-0.7,0.4-0.5,0.6
	s1.4-0.6,2.1,0.5c0.3,0.6,0.1,1.3-0.4,1.7c-2.4,1.6-2.9,1.5-4.4,4c-1.5,2.6-2,5.7-1.3,8.7c0.1-2.6,1.2-5,3-6.9c0,0,1.2-1.2,3,0.1
	c0.6,0.5,0.7,1.4,0.2,2c0,0.1-0.1,0.1-0.2,0.2c-0.2,0.1-0.6,0.4-0.6,0.7c0,0.5,1,0.2,1.2,0.1c1.1-0.6,1.5-2,0.9-3.1L19.1,13.3z
	 M17.3,15v0.5c0.1-0.1,0.2-0.3,0.3-0.5H17.3z M17.6,14.5c0-0.3-0.1-0.5-0.3-0.7v0.7H17.6z M18.2,8.4V7.9c-0.1,0.2-0.3,0.4-0.5,0.5
	L18.2,8.4z M17.3,8.9v0.2c0.2,0.1,0.5,0.2,0.7,0.3h0.2V8.9L17.3,8.9z M16.8,9H17V8.9L16.8,9z M17.3,10.8v0.6h0.9v-0.2
	C18,11,17.7,10.9,17.3,10.8L17.3,10.8z M16.2,11.4c0.3,0,0.5,0,0.8,0v-0.6C16.6,10.8,16.3,11.1,16.2,11.4L16.2,11.4z M18.6,23.8h7.3
	c0.1-0.2,0.3-0.4,0.5-0.6h-7.2V16c-0.2,0.2-0.4,0.3-0.6,0.5L18.6,23.8z M24.8,24.1V25h0.5v-0.9H24.8z M24.3,24.1h-0.5V25h0.5V24.1z
	 M22.8,24.1V25h0.5v-0.9H22.8z M21.8,24.1V25h0.5v-0.9H21.8z M20.8,24.1V25h0.5v-0.9H20.8z M19.2,24.1h-0.5l0.5,0.5V24.1z M19.7,25
	h0.5v-0.9h-0.5L19.7,25z M29.2,26.5c0.1-0.4,0-0.8-0.3-1.1h-2.2c-0.2,0.5-0.8,0.6-1,0h-5.9l0.6,1.1H29.2z M27.4,25v-0.2
	c-0.2,0-0.4,0.1-0.5,0.3L27.4,25z M28.6,25c-0.2-0.2-0.4-0.3-0.7-0.3V25H28.6z M21.2,28.1h7c0.4-0.3,0.7-0.6,0.8-1.1h-8.3L21.2,28.1
	z M21,30h3.5c0.8-0.2,1.6-0.6,2.4-1h-5.5C21.4,29.4,21.2,29.8,21,30z M35.8,24c-1.2,0.3-1.8,0.7-2.6,2.3c0.2-0.9-0.2-1.7-0.9-2.2
	c-0.2-0.2-0.9-0.3-0.8,0.1c0,0,0.2,0.3,0.4,0.5c0.7,1.5-1,2.1-1,2.1c-0.1-1.8-0.2-2.3-1.6-3.4c-1.1-0.6-2.5-0.2-3.1,0.9
	c-0.1,0.2-0.5,1.2,0.1,1.2c0.3,0,0.5-0.5,0.7-0.6c0.5-0.6,1.4-0.7,2-0.2c0.1,0,0.1,0.1,0.2,0.2c1.4,1.8,0.1,3,0.1,3
	c-1.8,1.8-4.3,2.9-6.9,3c3,0.7,6.1,0.2,8.7-1.3c2.5-1.5,2.4-2,4-4.4c0.4-0.5,1.1-0.7,1.7-0.4c1,0.6,0.3,2,0.5,2.1s0.4-0.1,0.6-0.5
	C38.5,24.8,36.7,23.8,35.8,24z M38.6,24.2h-0.5V25l0.5-0.2V24.2z M39.6,24.2h-0.5v0.5c0.2,0,0.3,0,0.5,0V24.2z M40.6,24.2h-0.5V25
	l0.1,0.1h0.4L40.6,24.2z M41.6,25.1v-0.9h-0.5v0.9H41.6z M7.3,15.6c0,0.5-0.4,2.1,3.3,1.6l-0.2-0.1c-1.4,0.2-2.2-0.8-2.7-2
	c0,0.4,0.1,0.8,0.3,1.1C7.8,16.2,7.2,15.7,7.3,15.6z M5.6,17.9c0,0.5-0.1,2.4,5,1.5l-0.2-0.2c-2.6,0.1-3.8-0.8-4.4-1.9
	c0,0.4,0.2,0.8,0.5,1.1C6.1,18.4,5.8,18.2,5.6,17.9z M5,20.8c0.1,0.5,1.4,2.6,6,0.2l-0.2,0c-2.7,0.6-4.8,0.2-5.6-0.7
	c0.1,0.4,0.4,0.7,0.8,0.9C5.6,21.1,5.3,21,5,20.8z M10.4,11.3c-0.1,1.2,1.4,1.1,1.4,1.1c-0.5-0.2-0.9-0.7-1-1.3
	c-0.1,0.3,0,0.6,0.2,0.8C10.8,11.8,10.6,11.6,10.4,11.3z M9.1,13.5c-0.3,1.3,1.6,1.5,1.6,1.5l0.1-0.1c-0.7-0.3-1.2-1-1.3-1.9
	c-0.1,0.4,0,0.9,0.2,1.2C9.6,14.2,9.1,13.6,9.1,13.5z M11.1,22.7l0.1-0.1C11.2,22.6,11.2,22.6,11.1,22.7L11.1,22.7z M29.4,32.8
	c-0.8,0-1.6-0.5-1.9-1.3l-0.1,0.2c0,0,0.2,1.9,1.5,1.6c-0.1,0-0.7-0.5-0.7-0.8C28.5,32.8,29,32.9,29.4,32.8L29.4,32.8z M21.4,31.4
	c-2.4,4.6-0.3,5.9,0.2,6c-0.2-0.3-0.4-0.6-0.3-1c0.2,0.4,0.5,0.7,0.9,0.8c-0.9-0.8-1.3-2.9-0.7-5.6C21.5,31.5,21.5,31.5,21.4,31.4
	L21.4,31.4z M19.7,31.3l0.1-0.1L19.7,31.3z M23.2,32L23,31.8c-0.9,5.1,1,5,1.5,5c-0.3-0.2-0.5-0.5-0.6-0.8c0.3,0.3,0.7,0.5,1.1,0.5
	C24,35.8,23.1,34.5,23.2,32L23.2,32z M25.2,31.9c-0.5,3.6,1.1,3.3,1.6,3.3c-0.1,0-0.6-0.5-0.6-0.8c0.3,0.3,0.7,0.4,1.1,0.4
	c-1.2-0.5-2.2-1.3-2-2.7L25.2,31.9z M31.4,31.6c-0.6-0.1-1.1-0.5-1.3-1c0,0-0.1,1.5,1.1,1.4c-0.1,0-0.6-0.4-0.6-0.6
	C30.7,31.6,31.1,31.7,31.4,31.6L31.4,31.6z M18.5,35.7c-0.1-0.3-0.2-0.7-0.1-1c0.1,0.4,0.3,0.8,0.7,1c-0.7-1.5-0.4-3.2,0.6-4.4
	C18.1,33,17.1,33.7,18.5,35.7z M21.7,38.7c-0.1,0-0.3,0-0.4,0.1c-0.3,0.2-0.5,0.4-0.7,0.6l-0.3-1.1l-0.4-0.1l0.4,1.6
	c-0.3,0.4-0.6,0.8-0.9,1.2l-0.5-3.3l-0.2-0.1l0.4,3.7c-0.2,0.2-0.5,0.3-0.7,0.4l-0.8-5l-0.1-0.1l0.6,5.2c-0.3,0.1-0.5,0.1-0.8,0.2
	l-0.9-7l0.6,7c-0.3,0-0.7,0-1-0.1l-0.2-4.1h-0.2v3.9c-0.4-0.2-0.7-0.4-1-0.6l0.1-2.7h-0.2l-0.2,2.4l-0.9-0.7l0.2-1.1l-0.3,0.1
	L13.1,40c-0.4-0.2-0.8-0.3-1.2-0.4c-0.2-0.1-0.3-0.1-0.4,0c0.2,0.1,0.3,0.2,0.5,0.3c2.1,0.2,2.7,2.7,5.2,2.4
	c3.2-0.3,2.6-2.2,4.3-3.3c0.1-0.1,0.2-0.1,0.4-0.1c0.2,0,0.5-0.1,0.5-0.2C22.1,38.7,21.9,38.7,21.7,38.7z M5.5,36.9l0.1,0.5L9.4,33
	l-4.4,3.8L5.5,36.9z M16.2,10.2c-2.7,0.7-0.4-1.2-0.1-1.3c-2.6,0.7-4.5,5.9-4.3,7.8c1.1-3.4,2.8-4.4,4.1-4.4
	C13.5,11.9,15.3,10.6,16.2,10.2z M13.5,29.2l-0.3-0.3C12.1,30,11,31.2,10,32.4C11.3,31.5,12.5,30.4,13.5,29.2L13.5,29.2z M2.8,31
	c0.1-0.1,0.1-0.2,0-0.4c-0.1-0.4-0.2-0.8-0.4-1.2l0.9-0.1l0.1-0.3L2.2,29l-0.7-0.9L3.9,28v-0.2l-2.7,0.1c-0.3-0.3-0.5-0.6-0.6-1h3.9
	v-0.2l-4-0.2c-0.1-0.3-0.1-0.7-0.1-1l7,0.6l-7-0.9c0-0.3,0.1-0.6,0.2-0.8l5.2,0.6l-0.1-0.1l-5-0.8c0.1-0.3,0.2-0.5,0.4-0.7l3.7,0.4
	l-0.1-0.2L1.4,23c0.4-0.3,0.8-0.6,1.3-0.9l1.6,0.4l-0.1-0.3L3,21.8c0.2-0.2,0.4-0.5,0.6-0.8c0.1-0.1,0.1-0.2,0.1-0.4
	c0-0.2,0-0.6,0-0.6s-0.2,0.3-0.2,0.5c0,0.1-0.1,0.2-0.1,0.4C2.2,22.6,0.4,22,0,25.2c-0.3,2.5,2.2,3.2,2.4,5.2
	C2.5,30.6,2.6,30.8,2.8,31z M13.6,28.4c-1.7-1.6-2.1-3.8-0.9-4.9s3.5-0.7,5.1,0.9l0.1,0.1l0.1,0.1c1.6,1.7,2,4,0.9,5.2
	s-3.3,0.7-4.9-0.9l-0.2-0.2L13.6,28.4z M13.8,28.3l0.2,0.2l0.2,0.2c1.3,1.4,3.2,1.7,4.3,0.6s0.8-3.1-0.6-4.5l-0.1-0.1l-0.1-0.1
	c-1.4-1.3-3.4-1.6-4.5-0.6S12.4,26.9,13.8,28.3L13.8,28.3z M12,39.3c0.2-0.2,0.4-0.5,0.5-0.8c0.4,0.7,0.8,0.5,1,0.3
	c0.2-0.2,0.3-0.5,0.4-0.8c0.4,0.5,0.8,0.3,0.9,0.1c0.1-0.2,0.2-0.5,0.2-0.8c0.4,0.5,0.7,0.2,0.8,0C16,37,16,36.6,16,36.3
	c0-0.4-0.1-0.9-0.2-1.3c-0.1-0.7-0.5-3.1-0.5-4.5l0,0l-0.1-0.1c0,1.5,0.1,2.9,0.3,4.4c0.2,0.7,0.2,1.5,0.1,2.2
	c-0.1,0.2-0.2,0.3-0.5-0.1c0-0.4,0-1,0-1.4c-0.1-1.7,0-3.4,0.1-5.2l-0.2-0.1l0,0c-0.2,1.7-0.3,3.3-0.3,5c0.1,0.8,0,1.6-0.2,2.4
	c-0.1,0.2-0.3,0.3-0.6-0.2C14,37.1,14,36.4,14,36c0.1-1.9,0.4-3.8,0.8-5.8l-0.1-0.1c-0.5,1.8-0.8,3.6-0.9,5.5c0,0.9-0.2,1.8-0.5,2.7
	c-0.1,0.2-0.3,0.3-0.6-0.2c0.2-0.5,0.3-1.2,0.4-1.6c0.4-2.1,0.9-4.2,1.6-6.3L14.4,30c-0.8,1.9-1.3,3.9-1.8,5.9c-0.1,1-0.4,2-0.9,2.8
	c-0.2,0.2-0.4,0.3-0.6-0.3c0.2-0.5,0.4-1.3,0.6-1.8c0.7-2.3,1.6-4.6,2.6-6.8l-0.2-0.1c-1.1,2-2,4.1-2.7,6.3c-0.3,1.1-0.7,2.1-1.4,3
	c-0.2,0.2-0.4,0.2-0.6-0.3c0.3-0.6,0.6-1.2,0.9-1.9c1.1-2.5,2.3-4.9,3.7-7.2l-0.2-0.2c-1.5,2.1-2.7,4.3-3.8,6.6
	c-0.5,1-1,2.5-1.9,3.2C8,39.5,7.8,39.5,7.6,39c0.5-0.6,0.9-1.3,1.2-2c0.8-1.2,3.2-5.7,5-7.5l-0.2-0.2c-1.9,2-3.6,4.3-5,6.7
	c-0.7,1-1.4,2.7-2.5,3.3c-0.4,0.2-0.8,0-0.8-1.3c-0.3,0-0.5,0-0.8-0.1c-0.1-0.3-0.1-0.5-0.1-0.8c-1.4,0-1.5-0.4-1.3-0.8
	c0.6-1.1,2.2-1.8,3.3-2.5c2.4-1.4,4.7-3.1,6.7-5c0-0.1-0.1-0.1-0.2-0.2c-1.8,1.7-6.2,4.2-7.5,5c-0.7,0.4-1.4,0.8-2,1.2
	C3,34.7,3,34.5,3.1,34.2c0.7-0.9,2.2-1.4,3.2-1.9c2.3-1,4.6-2.3,6.6-3.8l-0.2-0.2C10.5,29.7,8,31,5.5,32c-0.5,0.2-1.3,0.5-1.9,0.9
	c-0.6-0.2-0.6-0.4-0.4-0.6c0.9-0.6,1.9-1.1,3-1.4c2.2-0.7,4.3-1.6,6.3-2.7c0-0.1-0.1-0.1-0.1-0.2c-2.2,1-4.5,1.9-6.8,2.6
	c-0.4,0.2-1.2,0.4-1.8,0.6c-0.6-0.2-0.6-0.5-0.3-0.6c0.9-0.5,1.9-0.8,2.9-0.9c2-0.4,4-1,5.9-1.7l-0.1-0.2C10.3,28.5,8.1,29,6,29.4
	c-0.4,0.1-1.1,0.2-1.6,0.4c-0.5-0.3-0.5-0.5-0.2-0.6c0.8-0.3,1.7-0.5,2.7-0.5c1.8-0.2,3.7-0.5,5.5-0.9l-0.1-0.2
	c-1.9,0.4-3.8,0.6-5.8,0.8c-0.4,0-1,0.1-1.5,0.2c-0.4-0.3-0.4-0.5-0.2-0.5c0.8-0.2,1.6-0.3,2.4-0.2c1.7,0,3.3,0,5-0.3l0,0
	c0-0.1-0.1-0.1-0.1-0.2c-1.7,0.1-3.4,0.1-5.2,0.1c-0.3,0-0.9,0-1.4,0c-0.4-0.3-0.3-0.5-0.1-0.5c0.7-0.1,1.5-0.1,2.2,0.1
	c1.5,0.2,2.9,0.3,4.4,0.3l-0.1-0.1l0,0c-1.4,0-3.8-0.4-4.5-0.5c-0.4-0.1-0.9-0.1-1.3-0.1c-0.3,0-0.6,0-0.9,0.1
	c-0.2,0.1-0.4,0.4,0,0.8c-0.3,0-0.5,0.1-0.8,0.2c-0.2,0.1-0.4,0.5,0.1,0.9c-0.3,0.1-0.6,0.2-0.8,0.4c-0.2,0.2-0.4,0.6,0.3,1
	c-0.3,0.1-0.6,0.3-0.8,0.5c-0.2,0.2-0.3,0.7,0.4,1c-0.3,0.2-0.6,0.4-0.9,0.7c-0.2,0.2-0.3,0.8,0.5,1c-0.3,0.2-0.6,0.5-0.8,0.9
	c-0.2,0.3-0.1,0.8,0.6,1.1c-0.3,0.3-0.6,0.7-0.7,1.1c-0.1,0.4,0.1,1.3,1.6,1.3c0,0.3,0.1,0.5,0.2,0.8c0.2,0.1,0.5,0.1,0.8,0.2
	c0.1,1.5,0.9,1.8,1.3,1.6c0.4-0.2,0.8-0.4,1.1-0.7c0.3,0.8,0.8,0.8,1.1,0.7c0.4-0.2,0.7-0.5,0.9-0.8c0.2,0.8,0.8,0.7,1,0.5
	c0.3-0.2,0.5-0.5,0.7-0.9C11.2,39.6,11.7,39.5,12,39.3z"/>
</svg>
