<?xml version="1.0" encoding="utf-8"?>
<!-- Generator: Adobe Illustrator 22.1.0, SVG Export Plug-In . SVG Version: 6.00 Build 0)  -->
<svg version="1.1" id="Layer_1" xmlns="http://www.w3.org/2000/svg" xmlns:xlink="http://www.w3.org/1999/xlink" x="0px" y="0px"
	 viewBox="0 0 13.7 363.8" style="enable-background:new 0 0 13.7 363.8;" xml:space="preserve">
<style type="text/css">
	.st0{fill:#FFFFFF;}
	.st1{fill:#7C6742;}
</style>
<rect x="0.1" y="0.5" class="st0" width="13.6" height="362.9"/>
<path class="st1" d="M11.5,11.9h0.9v0.5h-0.9V11.9z M12.4,17.6h-0.9v-0.5h0.9V17.6z M12.4,16.5h-0.9V16h0.9V16.5z M12.4,15.5h-0.9
	V15h0.9V15.5z M12.4,14.4h-0.9v-0.5h0.9V14.4z M12.4,13.4h-0.9v-0.5h0.9V13.4z M12.4,20.8h-0.9v-0.5h0.9V20.8z M11.5,21.4h0.9v0.5
	h-0.9V21.4z M12.4,19.7h-0.9v-0.5h0.9V19.7z M12.4,18.7h-0.9v-0.5h0.9V18.7z M12.4,22.9h-0.9v-0.5h0.9V22.9z M12.4,9.1h-0.9V8.6h0.9
	V9.1z M11.5,9.7h0.9v0.5h-0.9V9.7z M12.4,8.1h-0.9V7.6h0.9V8.1z M12.4,7.1h-0.9V6.6h0.9V7.1z M12.4,6h-0.9V5.6h0.9V6z M12.4,5h-0.9
	V4.6h0.9V5z M12.4,11.4h-0.9v-0.5h0.9V11.4z M12.4,4h-0.9V3.5h0.9V4z M12.4,3h-0.9V2.5h0.9V3z M12.4,2h-0.9V1.5h0.9V2z M12.7,0.5
	h-0.3v0.3h-0.9V0.5h-0.3v23.3h0.3v-0.3h0.9v0.3h0.3V0.5z M9.6,24.5h0.5v-24H9.5v11.6L9.6,24.5z M7.6,24.3h0.8V0.5H7.6
	C7.6,0.5,7.6,24.3,7.6,24.3z M13.7,58.8h-0.4v11.6h0.4V58.8z M10.1,58.8H9.6v11.6h0.5V58.8z M8.4,58.8H7.6v11.6h0.8L8.4,58.8z
	 M12.4,67.5h-0.9V67h0.9V67.5z M11.5,68.1h0.9v0.5h-0.9V68.1z M12.4,66.4h-0.9v-0.5h0.9V66.4z M12.4,65.4h-0.9v-0.5h0.9V65.4z
	 M12.4,64.3h-0.9v-0.5h0.9V64.3z M12.4,63.3h-0.9v-0.5h0.9V63.3z M12.4,62.2h-0.9v-0.5h0.9V62.2z M12.4,61.1h-0.9v-0.5h0.9V61.1z
	 M12.4,60.1h-0.9v-0.5h0.9V60.1z M12.4,69.6h-0.9v-0.5h0.9V69.6z M12.4,58.7V59h-0.9v-0.2h-0.3v11.7h0.3v-0.3h0.9v0.3h0.3V58.8
	L12.4,58.7z M0.4,105.5H0v11.7h0.4V105.5z M13.7,105.5h-0.4v11.7h0.4V105.5z M2.3,105.5H1.7v11.7h0.5L2.3,105.5z M10.1,105.5H9.5
	v11.7h0.6V105.5z M8.4,105.5H7.6v11.7h0.8L8.4,105.5z M4.2,105.5H3.4v11.7h0.8L4.2,105.5z M6.5,105.5H5.2v11.7h1.3L6.5,105.5z
	 M12.4,114.2h-0.9v-0.5h0.9V114.2z M11.5,114.8h0.9v0.5h-0.9V114.8z M12.4,113.1h-0.9v-0.5h0.9V113.1z M12.4,112.1h-0.9v-0.5h0.9
	V112.1z M12.4,111h-0.9v-0.5h0.9V111z M12.4,110h-0.9v-0.5h0.9V110z M12.4,108.9h-0.9v-0.5h0.9V108.9z M12.4,107.8h-0.9v-0.5h0.9
	V107.8z M12.4,106.8h-0.9v-0.5h0.9V106.8z M12.4,116.3h-0.9v-0.5h0.9V116.3z M12.4,105.5v0.3h-0.9v-0.3h-0.3v11.7h0.3v-0.3h0.9v0.3
	h0.3v-11.7H12.4z M0.4,152.2H0v11.7h0.4V152.2z M13.7,152.2h-0.4v11.7h0.4V152.2z M2.3,152.2H1.7v11.7h0.5L2.3,152.2z M10.1,152.2
	H9.5v11.7h0.6V152.2z M8.4,152.2H7.6v11.7h0.8L8.4,152.2z M4.2,152.2H3.4v11.7h0.8L4.2,152.2z M6.5,152.2H5.2v11.7h1.3L6.5,152.2z
	 M12.4,161h-0.9v-0.6h0.9V161z M11.5,161.5h0.9v0.5h-0.9V161.5z M12.4,159.9h-0.9v-0.5h0.9V159.9z M12.4,158.8h-0.9v-0.5h0.9V158.8z
	 M12.4,157.7h-0.9v-0.5h0.9V157.7z M12.4,156.7h-0.9v-0.5h0.9V156.7z M12.4,155.6h-0.9v-0.5h0.9V155.6z M12.4,154.5h-0.9V154h0.9
	V154.5z M12.4,153.5h-0.9V153h0.9V153.5z M12.4,163h-0.9v-0.5h0.9V163z M12.4,152.2v0.3h-0.9v-0.3h-0.3v11.7h0.3v-0.3h0.9v0.3h0.3
	v-11.7L12.4,152.2z M0.4,198.9H0v11.7h0.4V198.9z M13.7,198.9h-0.4v11.7h0.4V198.9z M2.3,198.9H1.7v11.7h0.5L2.3,198.9z M10.1,198.9
	H9.5v11.7h0.6V198.9z M8.4,198.9H7.6v11.7h0.8L8.4,198.9z M4.2,198.9H3.4v11.7h0.8L4.2,198.9z M6.5,198.9H5.2v11.7h1.3L6.5,198.9z
	 M12.4,207.6h-0.9v-0.5h0.9V207.6z M11.5,208.2h0.9v0.5h-0.9V208.2z M12.4,206.6h-0.9v-0.5h0.9V206.6z M12.4,205.5h-0.9V205h0.9
	V205.5z M12.4,204.5h-0.9V204h0.9V204.5z M12.4,203.4h-0.9v-0.5h0.9V203.4z M12.4,202.3h-0.9v-0.5h0.9V202.3z M12.4,201.3h-0.9v-0.5
	h0.9V201.3z M12.4,200.2h-0.9v-0.5h0.9V200.2z M12.4,209.8h-0.9v-0.5h0.9V209.8z M12.4,198.9v0.3h-0.9v-0.3h-0.3v11.7h0.3v-0.3h0.9
	v0.3h0.3v-11.7L12.4,198.9z M0.4,245.6H0v11.7h0.4V245.6z M13.7,245.6h-0.4v11.7h0.4V245.6z M2.3,245.6H1.7v11.7h0.5L2.3,245.6z
	 M10.1,245.6H9.5v11.7h0.6V245.6z M8.4,245.6H7.6v11.7h0.8L8.4,245.6z M4.2,245.6H3.4v11.7h0.8L4.2,245.6z M6.5,245.6H5.2v11.7h1.3
	L6.5,245.6z M12.4,254.4h-0.9v-0.5h0.9V254.4z M11.5,254.9h0.9v0.5h-0.9V254.9z M12.4,253.3h-0.9v-0.5h0.9V253.3z M12.4,252.2h-0.9
	v-0.5h0.9V252.2z M12.4,251.2h-0.9v-0.5h0.9V251.2z M12.4,250.1h-0.9v-0.5h0.9V250.1z M12.4,249.1h-0.9v-0.5h0.9V249.1z M12.4,248
	h-0.9v-0.5h0.9V248z M12.4,247h-0.9v-0.6h0.9V247z M12.4,256.5h-0.9V256h0.9V256.5z M12.7,245.7h-0.3v0.3h-0.9v-0.3h-0.3v11.6h0.3
	V257h0.9v0.3h0.3V245.7z M0.5,292.3H0.1V304h0.4V292.3z M13.7,292.3h-0.4V304h0.4V292.3z M2.3,292.3H1.7V304h0.5L2.3,292.3z
	 M10.1,292.3H9.5V304h0.6V292.3z M8.4,292.3H7.6V304h0.8L8.4,292.3z M4.2,292.3H3.4V304h0.8L4.2,292.3z M6.5,292.3H5.2V304h1.3
	L6.5,292.3z M12.4,301.1h-0.9v-0.5h0.9V301.1z M11.5,301.7h0.9v0.5h-0.9V301.7z M12.4,300h-0.9v-0.5h0.9V300z M12.4,299h-0.9v-0.5
	h0.9V299z M12.4,297.9h-0.9v-0.5h0.9V297.9z M12.4,296.8h-0.9v-0.5h0.9V296.8z M12.4,295.8h-0.9v-0.5h0.9V295.8z M12.4,294.7h-0.9
	v-0.5h0.9V294.7z M12.4,293.6h-0.9v-0.5h0.9V293.6z M12.4,303.2h-0.9v-0.5h0.9V303.2z M12.4,292.3v0.3h-0.9v-0.3h-0.3V304h0.3v-0.3
	h0.9v0.3h0.3v-11.7L12.4,292.3z M0.4,339H0v11.7h0.4V339z M13.7,339h-0.4v11.7h0.4V339z M2.3,339H1.7v11.7h0.5L2.3,339z M10.1,339
	H9.5v11.7h0.6V339z M8.4,339H7.6v11.7h0.8L8.4,339z M4.2,339H3.4v11.7h0.8L4.2,339z M6.5,339H5.2v11.7h1.3L6.5,339z M12.4,347.8
	h-0.9v-0.5h0.9V347.8z M11.5,348.4h0.9v0.5h-0.9V348.4z M12.4,346.7h-0.9v-0.5h0.9V346.7z M12.4,345.7h-0.9v-0.5h0.9V345.7z
	 M12.4,344.6h-0.9v-0.5h0.9V344.6z M12.4,343.5h-0.9V343h0.9V343.5z M12.4,342.5h-0.9V342h0.9V342.5z M12.4,341.4h-0.9v-0.5h0.9
	V341.4z M12.4,340.4h-0.9v-0.5h0.9V340.4z M12.4,349.9h-0.9v-0.5h0.9V349.9z M12.4,339.1v0.3h-0.9v-0.3h-0.3v11.7h0.3v-0.3h0.9v0.3
	h0.3v-11.7L12.4,339.1z M0.1,58.7h0.4V0.5H0.1V58.7z M13.7,0.5h-0.4v34.9h0.4V0.5z M1.7,35.4v35h0.6V0H1.7V35.4z M9.5,35.4l0.1,23.7
	h0.5V23.7H9.5V35.4z M7.6,35.4v23.3h0.8v-35H7.6V35.4z M3.4,35.4v35h0.8V0.5H3.4V35.4z M5.3,35.4l-0.1,35h1.3V0.5H5.3V35.4z
	 M12.4,32.5h-0.9V32h0.9V32.5z M11.5,33h0.9v0.6h-0.9V33z M12.4,31.4h-0.9v-0.5h0.9V31.4z M12.4,30.3h-0.9v-0.5h0.9V30.3z
	 M12.4,29.3h-0.9v-0.5h0.9V29.3z M12.4,28.2h-0.9v-0.5h0.9V28.2z M12.4,27.2h-0.9v-0.5h0.9V27.2z M12.4,26.1h-0.9v-0.5h0.9V26.1z
	 M12.4,25h-0.9v-0.5h0.9V25z M12.4,34.6h-0.9v-0.5h0.9V34.6z M12.4,23.7V24h-0.9v-0.3h-0.3v11.7h0.3v-0.3h0.9v0.3h0.3V23.7
	L12.4,23.7z M0.4,70.4H0v11.7h0.4V70.4z M13.7,70.4h-0.4v11.7h0.4V70.4z M2.3,70.4H1.7v11.7h0.5L2.3,70.4z M10.1,70.4H9.5v11.7h0.6
	V70.4z M8.4,70.4H7.6v11.7h0.8L8.4,70.4z M4.2,70.4H3.4v11.7h0.8L4.2,70.4z M6.5,70.4H5.2v11.7h1.3L6.5,70.4z M12.4,79.2h-0.9v-0.5
	h0.9V79.2z M11.5,79.8h0.9v0.5h-0.9V79.8z M12.4,78.1h-0.9v-0.5h0.9V78.1z M12.4,77.1h-0.9v-0.5h0.9V77.1z M12.4,76h-0.9v-0.5h0.9
	V76z M12.4,75h-0.9v-0.6h0.9V75z M12.4,73.9h-0.9v-0.5h0.9V73.9z M12.4,72.8h-0.9v-0.5h0.9V72.8z M12.4,71.7h-0.9v-0.5h0.9V71.7z
	 M12.4,81.3h-0.9v-0.5h0.9V81.3z M12.4,70.4v0.3h-0.9v-0.3h-0.3v11.7h0.3v-0.3h0.9v0.3h0.3V70.4L12.4,70.4z M0.4,117.1H0v11.7h0.4
	V117.1z M13.7,117.1h-0.4v11.7h0.4V117.1z M2.3,117.1H1.7v11.7h0.5L2.3,117.1z M10.1,117.1H9.5v11.7h0.6V117.1z M8.4,117.1H7.6v11.7
	h0.8L8.4,117.1z M4.2,117.1H3.4v11.7h0.8L4.2,117.1z M6.5,117.1H5.2v11.7h1.3L6.5,117.1z M12.4,125.9h-0.9v-0.5h0.9V125.9z
	 M11.5,126.5h0.9v0.5h-0.9V126.5z M12.4,124.8h-0.9v-0.5h0.9V124.8z M12.4,123.8h-0.9v-0.5h0.9V123.8z M12.4,122.7h-0.9v-0.5h0.9
	V122.7z M12.4,121.6h-0.9v-0.5h0.9V121.6z M12.4,120.6h-0.9v-0.5h0.9V120.6z M12.4,119.5h-0.9V119h0.9V119.5z M12.4,118.5h-0.9V118
	h0.9V118.5z M12.4,128h-0.9v-0.5h0.9V128z M12.4,117.2v0.3h-0.9v-0.3h-0.3v11.7h0.3v-0.3h0.9v0.3h0.3v-11.7H12.4z M0.4,163.9H0v11.7
	h0.4V163.9z M13.7,163.9h-0.4v11.7h0.4V163.9z M2.3,163.9H1.7v11.7h0.5L2.3,163.9z M10.1,163.9H9.5v11.7h0.6V163.9z M8.4,163.9H7.6
	v11.7h0.8L8.4,163.9z M4.2,163.9H3.4v11.7h0.8L4.2,163.9z M6.5,163.9H5.2v11.7h1.3L6.5,163.9z M12.4,172.6h-0.9v-0.5h0.9V172.6z
	 M11.5,173.2h0.9v0.5h-0.9V173.2z M12.4,171.5h-0.9V171h0.9V171.5z M12.4,170.4h-0.9v-0.5h0.9V170.4z M12.4,169.4h-0.9v-0.5h0.9
	V169.4z M12.4,168.3h-0.9v-0.5h0.9V168.3z M12.4,167.3h-0.9v-0.5h0.9V167.3z M12.4,166.2h-0.9v-0.5h0.9V166.2z M12.4,165.1h-0.9
	v-0.5h0.9V165.1z M12.4,174.7h-0.9v-0.5h0.9V174.7z M12.4,163.9v0.3h-0.9v-0.3h-0.3v11.7h0.3v-0.3h0.9v0.3h0.3v-11.7L12.4,163.9z
	 M0.4,210.6H0v11.7h0.4V210.6z M13.7,210.6h-0.4v11.7h0.4V210.6z M2.3,210.6H1.7v11.7h0.5L2.3,210.6z M10.1,210.6H9.5v11.7h0.6
	V210.6z M8.4,210.6H7.6v11.7h0.8L8.4,210.6z M4.2,210.6H3.4v11.7h0.8L4.2,210.6z M6.5,210.6H5.2v11.7h1.3L6.5,210.6z M12.4,219.3
	h-0.9v-0.5h0.9V219.3z M11.5,219.9h0.9v0.5h-0.9V219.9z M12.4,218.3h-0.9v-0.5h0.9V218.3z M12.4,217.2h-0.9v-0.5h0.9V217.2z
	 M12.4,216.1h-0.9v-0.5h0.9V216.1z M12.4,215.1h-0.9v-0.5h0.9V215.1z M12.4,214h-0.9v-0.5h0.9V214z M12.4,213h-0.9v-0.5h0.9V213z
	 M12.4,211.9h-0.9v-0.5h0.9V211.9z M12.4,221.4h-0.9v-0.5h0.9V221.4z M12.4,210.6v0.3h-0.9v-0.3h-0.3v11.7h0.3V222h0.9v0.3h0.3
	v-11.7L12.4,210.6z M0.5,257.3H0.1V269h0.4V257.3z M13.7,257.3h-0.4V269h0.4V257.3z M2.3,257.3H1.7V269h0.5L2.3,257.3z M10.1,257.3
	H9.5V269h0.6V257.3z M8.4,257.3H7.6V269h0.8L8.4,257.3z M4.2,257.3H3.4V269h0.8L4.2,257.3z M6.5,257.3H5.2V269h1.3L6.5,257.3z
	 M12.4,266h-0.9v-0.5h0.9V266z M11.5,266.6h0.9v0.5h-0.9V266.6z M12.4,265h-0.9v-0.5h0.9V265z M12.4,263.9h-0.9v-0.5h0.9V263.9z
	 M12.4,262.9h-0.9v-0.5h0.9V262.9z M12.4,261.8h-0.9v-0.5h0.9V261.8z M12.4,260.7h-0.9v-0.5h0.9V260.7z M12.4,259.7h-0.9v-0.5h0.9
	V259.7z M12.4,258.6h-0.9v-0.5h0.9V258.6z M12.4,268.2h-0.9v-0.5h0.9V268.2z M12.4,257.3v0.3h-0.9v-0.3h-0.3V269h0.3v-0.3h0.9v0.3
	h0.3v-11.7H12.4z M0.4,304H0v11.7h0.4V304z M13.7,304h-0.4v11.7h0.4V304z M2.3,304H1.7v11.7h0.5L2.3,304z M10.1,304H9.5v11.7h0.6
	V304z M8.4,304H7.6v11.7h0.8L8.4,304z M4.2,304H3.4v11.7h0.8L4.2,304z M6.5,304H5.2v11.7h1.3L6.5,304z M12.4,312.7h-0.9v-0.5h0.9
	V312.7z M11.5,313.3h0.9v0.5h-0.9V313.3z M12.4,311.7h-0.9v-0.5h0.9V311.7z M12.4,310.6h-0.9v-0.5h0.9V310.6z M12.4,309.6h-0.9v-0.5
	h0.9V309.6z M12.4,308.5h-0.9V308h0.9V308.5z M12.4,307.4h-0.9v-0.5h0.9V307.4z M12.4,306.4h-0.9v-0.5h0.9V306.4z M12.4,305.3h-0.9
	v-0.5h0.9V305.3z M12.4,314.9h-0.9v-0.5h0.9V314.9z M12.4,304v0.3h-0.9V304h-0.3v11.7h0.3v-0.3h0.9v0.3h0.3V304H12.4z M0.4,350.8H0
	v12.6h0.4V350.8z M13.7,350.7h-0.4v12.7h0.4V350.7z M2.3,350.8H1.7v12.6h0.5L2.3,350.8z M10.1,350.8H9.5v12.6h0.6V350.8z M8.4,350.8
	H7.6v12.6h0.8L8.4,350.8z M4.2,350.8H3.4v12.6h0.8L4.2,350.8z M6.5,350.8H5.2v12.6h1.3L6.5,350.8z M12.4,359.5h-0.9V359h0.9V359.5z
	 M11.5,360h0.9v0.6h-0.9V360z M12.4,358.4h-0.9v-0.5h0.9V358.4z M12.4,357.3h-0.9v-0.5h0.9V357.3z M12.4,356.3h-0.9v-0.5h0.9V356.3z
	 M12.4,355.2h-0.9v-0.5h0.9V355.2z M12.4,354.1h-0.9v-0.5h0.9V354.1z M12.4,353.1h-0.9v-0.5h0.9V353.1z M12.4,352h-0.9v-0.5h0.9V352
	z M12.4,361.6h-0.9v-0.5h0.9V361.6z M12.4,350.7v0.3h-0.9v-0.3h-0.3v11.7h0.3v-0.3h0.9v0.3h0.3v-11.7L12.4,350.7z M13.7,35.4h-0.4
	v11.7h0.4V35.4z M12.4,44.1h-0.9v-0.5h0.9V44.1z M11.5,44.7h0.9v0.5h-0.9V44.7z M12.4,43.1h-0.9v-0.5h0.9V43.1z M12.4,42h-0.9v-0.5
	h0.9V42z M12.4,41h-0.9v-0.5h0.9V41z M12.4,39.9h-0.9v-0.5h0.9V39.9z M12.4,38.8h-0.9v-0.5h0.9V38.8z M12.4,37.8h-0.9v-0.5h0.9V37.8
	z M12.4,36.7h-0.9v-0.5h0.9V36.7z M12.4,46.3h-0.9v-0.5h0.9V46.3z M12.4,35.4v0.3h-0.9v-0.3h-0.3v11.7h0.3v-0.3h0.9v0.3h0.3V35.4
	L12.4,35.4z M0.5,82.1H0.1v11.7h0.4V82.1z M13.7,82.1h-0.4v11.7h0.4V82.1z M2.3,82.1H1.7v11.7h0.5L2.3,82.1z M10.1,82.1H9.5v11.7
	h0.6V82.1z M8.4,82.1H7.6v11.7h0.8L8.4,82.1z M4.2,82.1H3.4v11.7h0.8L4.2,82.1z M6.5,82.1H5.2v11.7h1.3L6.5,82.1z M12.4,90.9h-0.9
	v-0.5h0.9V90.9z M11.5,91.5h0.9V92h-0.9V91.5z M12.4,89.8h-0.9v-0.5h0.9V89.8z M12.4,88.7h-0.9v-0.5h0.9V88.7z M12.4,87.7h-0.9v-0.5
	h0.9V87.7z M12.4,86.6h-0.9v-0.5h0.9V86.6z M12.4,85.6h-0.9v-0.5h0.9V85.6z M12.4,84.5h-0.9V84h0.9V84.5z M12.4,83.4h-0.9v-0.5h0.9
	V83.4z M12.4,93h-0.9v-0.5h0.9V93z M12.4,82.1v0.3h-0.9v-0.3h-0.3v11.7h0.3v-0.3h0.9v0.3h0.3V82.1L12.4,82.1z M0.4,128.8H0v11.7h0.4
	V128.8z M13.7,128.8h-0.4v11.7h0.4V128.8z M2.3,128.8H1.7v11.7h0.5L2.3,128.8z M10.1,128.8H9.5v11.7h0.6V128.8z M8.4,128.8H7.6v11.7
	h0.8L8.4,128.8z M4.2,128.8H3.4v11.7h0.8L4.2,128.8z M6.5,128.8H5.2v11.7h1.3L6.5,128.8z M12.4,137.6h-0.9v-0.5h0.9V137.6z
	 M11.5,138.2h0.9v0.5h-0.9V138.2z M12.4,136.5h-0.9V136h0.9V136.5z M12.4,135.4h-0.9v-0.5h0.9V135.4z M12.4,134.4h-0.9v-0.5h0.9
	V134.4z M12.4,133.3h-0.9v-0.5h0.9V133.3z M12.4,132.3h-0.9v-0.5h0.9V132.3z M12.4,131.2h-0.9v-0.5h0.9V131.2z M12.4,130.1h-0.9
	v-0.5h0.9V130.1z M12.4,139.7h-0.9v-0.5h0.9V139.7z M12.4,128.8v0.3h-0.9v-0.3h-0.3v11.7h0.3v-0.3h0.9v0.3h0.3v-11.7H12.4z
	 M0.4,175.5H0v11.7h0.4V175.5z M13.7,175.5h-0.4v11.7h0.4V175.5z M2.3,175.5H1.7v11.7h0.5L2.3,175.5z M10.1,175.5H9.5v11.7h0.6
	V175.5z M8.4,175.5H7.6v11.7h0.8L8.4,175.5z M4.2,175.5H3.4v11.7h0.8L4.2,175.5z M6.5,175.5H5.2v11.7h1.3L6.5,175.5z M12.4,184.3
	h-0.9v-0.5h0.9V184.3z M11.5,184.9h0.9v0.5h-0.9V184.9z M12.4,183.2h-0.9v-0.5h0.9V183.2z M12.4,182.2h-0.9v-0.5h0.9V182.2z
	 M12.4,181.1h-0.9v-0.5h0.9V181.1z M12.4,180h-0.9v-0.5h0.9V180z M12.4,179h-0.9v-0.5h0.9V179z M12.4,177.9h-0.9v-0.5h0.9V177.9z
	 M12.4,176.8h-0.9v-0.5h0.9V176.8z M12.4,186.4h-0.9v-0.5h0.9V186.4z M12.4,175.6v0.3h-0.9v-0.3h-0.3v11.7h0.3V187h0.9v0.3h0.3
	v-11.7L12.4,175.6z M0.5,222.3H0.1V234h0.4V222.3z M13.7,222.3h-0.4V234h0.4V222.3z M2.3,222.3H1.7V234h0.5L2.3,222.3z M10.1,222.3
	H9.5V234h0.6V222.3z M8.4,222.3H7.6V234h0.8L8.4,222.3z M4.2,222.3H3.4V234h0.8L4.2,222.3z M6.5,222.3H5.2V234h1.3L6.5,222.3z
	 M12.4,231h-0.9v-0.5h0.9V231z M11.5,231.6h0.9v0.5h-0.9V231.6z M12.4,230h-0.9v-0.6h0.9V230z M12.4,228.9h-0.9v-0.5h0.9V228.9z
	 M12.4,227.8h-0.9v-0.5h0.9V227.8z M12.4,226.7h-0.9v-0.5h0.9V226.7z M12.4,225.7h-0.9v-0.5h0.9V225.7z M12.4,224.6h-0.9v-0.5h0.9
	V224.6z M12.4,223.6h-0.9v-0.5h0.9V223.6z M12.4,233.1h-0.9v-0.5h0.9V233.1z M12.4,222.3v0.3h-0.9v-0.3h-0.3V234h0.3v-0.3h0.9v0.3
	h0.3v-11.7L12.4,222.3z M0.4,269H0v11.7h0.4V269z M13.7,269h-0.4v11.7h0.4V269z M2.3,269H1.7v11.7h0.5L2.3,269z M10.1,269H9.5v11.7
	h0.6V269z M8.4,269H7.6v11.7h0.8L8.4,269z M4.2,269H3.4v11.7h0.8L4.2,269z M6.5,269H5.2v11.7h1.3L6.5,269z M12.4,277.7h-0.9v-0.5
	h0.9V277.7z M11.5,278.3h0.9v0.5h-0.9V278.3z M12.4,276.6h-0.9v-0.5h0.9V276.6z M12.4,275.6h-0.9v-0.5h0.9V275.6z M12.4,274.5h-0.9
	V274h0.9V274.5z M12.4,273.5h-0.9V273h0.9V273.5z M12.4,272.4h-0.9v-0.5h0.9V272.4z M12.4,271.3h-0.9v-0.5h0.9V271.3z M12.4,270.3
	h-0.9v-0.5h0.9V270.3z M12.4,279.8h-0.9v-0.5h0.9V279.8z M12.4,269v0.3h-0.9V269h-0.3v11.7h0.3v-0.3h0.9v0.3h0.3V269H12.4z
	 M0.4,315.7H0v11.7h0.4V315.7z M13.7,315.7h-0.4v11.7h0.4V315.7z M2.3,315.7H1.7v11.7h0.5L2.3,315.7z M10.1,315.7H9.5v11.7h0.6
	V315.7z M8.4,315.7H7.6v11.7h0.8L8.4,315.7z M4.2,315.7H3.4v11.7h0.8L4.2,315.7z M6.5,315.7H5.2v11.7h1.3L6.5,315.7z M12.4,324.4
	h-0.9v-0.5h0.9V324.4z M11.5,325h0.9v0.5h-0.9V325z M12.4,323.4h-0.9v-0.5h0.9V323.4z M12.4,322.3h-0.9v-0.5h0.9V322.3z M12.4,321.2
	h-0.9v-0.5h0.9V321.2z M12.4,320.2h-0.9v-0.5h0.9V320.2z M12.4,319.1h-0.9v-0.5h0.9V319.1z M12.4,318.1h-0.9v-0.5h0.9V318.1z
	 M12.4,317h-0.9v-0.5h0.9V317z M12.4,326.5h-0.9V326h0.9V326.5z M12.4,315.7v0.3h-0.9v-0.3h-0.3v11.7h0.3v-0.3h0.9v0.3h0.3v-11.7
	H12.4z M13.7,47.1h-0.4v11.7h0.4V47.1z M12.4,55.8h-0.9v-0.5h0.9V55.8z M11.5,56.4h0.9v0.5h-0.9V56.4z M12.4,54.8h-0.9v-0.5h0.9
	V54.8z M12.4,53.7h-0.9v-0.5h0.9V53.7z M12.4,52.6h-0.9v-0.5h0.9V52.6z M12.4,51.6h-0.9v-0.5h0.9V51.6z M12.4,50.5h-0.9V50h0.9V50.5
	z M12.4,49.5h-0.9V49h0.9V49.5z M12.4,48.4h-0.9v-0.5h0.9V48.4z M12.4,58h-0.9v-0.5h0.9V58z M12.4,47.1v0.3h-0.9v-0.3h-0.3v11.7h0.3
	v-0.3h0.9v0.3h0.3V47.1L12.4,47.1z M0.4,93.8H0v11.7h0.4V93.8z M13.7,93.8h-0.4v11.7h0.4V93.8z M2.3,93.8H1.7v11.7h0.5L2.3,93.8z
	 M10.1,93.8H9.5v11.7h0.6V93.8z M8.4,93.8H7.6v11.7h0.8L8.4,93.8z M4.2,93.8H3.4v11.7h0.8L4.2,93.8z M6.5,93.8H5.2v11.7h1.3
	L6.5,93.8z M12.4,102.5h-0.9V102h0.9V102.5z M11.5,103.1h0.9v0.5h-0.9V103.1z M12.4,101.5h-0.9V101h0.9V101.5z M12.4,100.4h-0.9
	v-0.5h0.9V100.4z M12.4,99.4h-0.9v-0.5h0.9V99.4z M12.4,98.3h-0.9v-0.5h0.9V98.3z M12.4,97.3h-0.9v-0.5h0.9V97.3z M12.4,96.2h-0.9
	v-0.5h0.9V96.2z M12.4,95.1h-0.9v-0.5h0.9V95.1z M12.4,104.7h-0.9v-0.5h0.9V104.7z M12.4,93.8v0.3h-0.9v-0.3h-0.3v11.7h0.3v-0.3h0.9
	v0.3h0.3V93.8H12.4z M0.4,140.5H0v11.7h0.4V140.5z M13.7,140.5h-0.4v11.7h0.4V140.5z M2.3,140.5H1.7v11.7h0.5L2.3,140.5z
	 M10.1,140.5H9.5v11.7h0.6V140.5z M8.4,140.5H7.6v11.7h0.8L8.4,140.5z M4.2,140.5H3.4v11.7h0.8L4.2,140.5z M6.5,140.5H5.2v11.7h1.3
	L6.5,140.5z M12.4,149.3h-0.9v-0.5h0.9V149.3z M11.5,149.8h0.9v0.5h-0.9V149.8z M12.4,148.2h-0.9v-0.5h0.9V148.2z M12.4,147.1h-0.9
	v-0.5h0.9V147.1z M12.4,146.1h-0.9v-0.5h0.9V146.1z M12.4,145h-0.9v-0.5h0.9V145z M12.4,144h-0.9v-0.6h0.9V144z M12.4,142.9h-0.9
	v-0.5h0.9V142.9z M12.4,141.8h-0.9v-0.5h0.9V141.8z M12.4,151.4h-0.9v-0.5h0.9V151.4z M12.4,140.5v0.3h-0.9v-0.3h-0.3v11.7h0.3v-0.3
	h0.9v0.3h0.3v-11.7L12.4,140.5z M0.4,187.2H0v11.7h0.4V187.2z M13.7,187.2h-0.4v11.7h0.4V187.2z M2.3,187.2H1.7v11.7h0.5L2.3,187.2z
	 M10.1,187.2H9.5v11.7h0.6V187.2z M8.4,187.2H7.6v11.7h0.8L8.4,187.2z M4.2,187.2H3.4v11.7h0.8L4.2,187.2z M6.5,187.2H5.2v11.7h1.3
	L6.5,187.2z M12.4,196h-0.9v-0.5h0.9V196z M11.5,196.6h0.9v0.5h-0.9V196.6z M12.4,194.9h-0.9v-0.5h0.9V194.9z M12.4,193.8h-0.9v-0.5
	h0.9V193.8z M12.4,192.8h-0.9v-0.5h0.9V192.8z M12.4,191.7h-0.9v-0.5h0.9V191.7z M12.4,190.6h-0.9v-0.5h0.9V190.6z M12.4,189.6h-0.9
	v-0.5h0.9V189.6z M12.4,188.5h-0.9V188h0.9V188.5z M12.4,198.1h-0.9v-0.5h0.9V198.1z M12.4,187.2v0.3h-0.9v-0.3h-0.3v11.7h0.3v-0.3
	h0.9v0.3h0.3v-11.7H12.4z M0.4,234H0v11.6h0.4V234z M13.7,234h-0.4v11.6h0.4V234z M2.3,234H1.7v11.6h0.5L2.3,234z M10.1,234H9.5
	v11.6h0.6V234z M8.4,234H7.6v11.6h0.8L8.4,234z M4.2,234H3.4v11.6h0.8L4.2,234z M6.5,234H5.2v11.6h1.3L6.5,234z M12.4,242.7h-0.9
	v-0.5h0.9V242.7z M11.5,243.3h0.9v0.5h-0.9V243.3z M12.4,241.6h-0.9v-0.5h0.9V241.6z M12.4,240.5h-0.9V240h0.9V240.5z M12.4,239.5
	h-0.9V239h0.9V239.5z M12.4,238.4h-0.9v-0.5h0.9V238.4z M12.4,237.4h-0.9v-0.5h0.9V237.4z M12.4,236.3h-0.9v-0.5h0.9V236.3z
	 M12.4,235.2h-0.9v-0.5h0.9V235.2z M12.4,244.8h-0.9v-0.5h0.9V244.8z M12.4,234v0.3h-0.9V234h-0.3v11.7h0.3v-0.3h0.9v0.3h0.3V234
	L12.4,234z M0.4,280.7H0v11.7h0.4V280.7z M13.7,280.6h-0.4v11.7h0.4V280.6z M2.3,280.6H1.7v11.7h0.5L2.3,280.6z M10.1,280.6H9.5
	v11.7h0.6V280.6z M8.4,280.6H7.6v11.7h0.8L8.4,280.6z M4.2,280.6H3.4v11.7h0.8L4.2,280.6z M6.5,280.6H5.2v11.7h1.3L6.5,280.6z
	 M12.4,289.4h-0.9v-0.5h0.9V289.4z M11.5,290h0.9v0.5h-0.9V290z M12.4,288.3h-0.9v-0.5h0.9V288.3z M12.4,287.3h-0.9v-0.5h0.9V287.3z
	 M12.4,286.2h-0.9v-0.5h0.9V286.2z M12.4,285.1h-0.9v-0.5h0.9V285.1z M12.4,284.1h-0.9v-0.5h0.9V284.1z M12.4,283h-0.9v-0.5h0.9V283
	z M12.4,282h-0.9v-0.5h0.9V282z M12.4,291.5h-0.9V291h0.9V291.5z M12.4,280.7v0.3h-0.9v-0.3h-0.3v11.7h0.3v-0.3h0.9v0.3h0.3v-11.7
	L12.4,280.7z M0.4,327.4H0v11.7h0.4V327.4z M13.7,327.4h-0.4v11.7h0.4V327.4z M2.3,327.4H1.7v11.7h0.5L2.3,327.4z M10.1,327.4H9.5
	v11.7h0.6V327.4z M8.4,327.4H7.6v11.7h0.8L8.4,327.4z M4.2,327.4H3.4v11.7h0.8L4.2,327.4z M6.5,327.4H5.2v11.7h1.3L6.5,327.4z
	 M12.4,336.1h-0.9v-0.5h0.9V336.1z M11.5,336.7h0.9v0.5h-0.9V336.7z M12.4,335h-0.9v-0.5h0.9V335z M12.4,334h-0.9v-0.5h0.9V334z
	 M12.4,333h-0.9v-0.6h0.9V333z M12.4,331.9h-0.9v-0.5h0.9V331.9z M12.4,330.8h-0.9v-0.5h0.9V330.8z M12.4,329.7h-0.9v-0.5h0.9V329.7
	z M12.4,328.7h-0.9v-0.5h0.9V328.7z M12.4,338.2h-0.9v-0.5h0.9V338.2z M12.4,327.4v0.3h-0.9v-0.3h-0.3v11.7h0.3v-0.3h0.9v0.3h0.3
	v-11.7H12.4z M12.4,363.7h-1v-0.5h0.9L12.4,363.7z M12.4,362.4v0.3h-0.9v-0.3h-0.4v1.4h1.6v-1.4H12.4z M0.5,58.8H0.1v11.6h0.4V58.8z
	"/>
</svg>
