<?xml version="1.0" encoding="utf-8"?>
<!-- Generator: Adobe Illustrator 22.1.0, SVG Export Plug-In . SVG Version: 6.00 Build 0)  -->
<svg version="1.1" id="Layer_1" xmlns="http://www.w3.org/2000/svg" xmlns:xlink="http://www.w3.org/1999/xlink" x="0px" y="0px"
	 viewBox="0 0 42.7 42.4" style="enable-background:new 0 0 42.7 42.4;" xml:space="preserve">
<style type="text/css">
	.st0{fill:#FFFFFF;}
	.st1{fill:#7C6742;}
</style>
<polygon class="st0" points="0,36.4 5.4,36.1 6.6,37.6 8.1,38.5 9.9,38 11.2,37.2 12.4,36.5 12.9,36.1 16.1,36.1 17.8,37.5 
	19.9,38.5 21.4,38.8 22.7,41 24.2,41.7 25.8,42 26.8,41.9 28.2,41.1 29.2,40.6 29.6,40 31.2,39.6 30.9,38.7 32.5,39.1 34.4,39.3 
	37.1,39.6 37.9,38.5 38.8,37.6 39.8,36.8 39.7,35.2 39.6,34.2 39.5,33.2 39.4,32.3 39.1,31.5 39.1,31 39.9,30.5 40.5,29 41.5,27.8 
	42.3,26.4 42.4,25 42.1,23.9 41.4,22.9 40.1,22 39.4,21.4 38.3,19.2 37.7,17.6 36.4,15 36.4,12.1 37.4,11 38.3,9.6 38.4,8.3 
	38.1,6.7 37.6,6 36.8,5 36.8,0 23.1,0 23.1,22.9 0,23.2 "/>
<path class="st1" d="M29,28.4l-0.2,0.2l-0.2,0.2c-1.6,1.7-3.8,2.1-4.9,0.9s-0.7-3.5,0.9-5.2l0.1-0.1l0.1-0.1c1.7-1.6,4-2,5.1-0.9
	S30.7,26.8,29,28.4z M29.5,24c-1.1-1-3.1-0.8-4.5,0.6l-0.1,0.1l-0.1,0.1c-1.3,1.4-1.6,3.4-0.6,4.5s2.9,0.8,4.3-0.6l0.2-0.2l0.2-0.2
	C30.3,26.9,30.6,25,29.5,24z M22.9,31.3l-0.1-0.1L22.9,31.3z M32.7,32.5c-1-1.3-2.1-2.5-3.3-3.6c-0.1,0.1-0.2,0.2-0.3,0.3
	C30.2,30.4,31.4,31.5,32.7,32.5L32.7,32.5z M19,38.4c-1.3-0.4-2.4-1-3.3-1.9h-3.3c-1.1,0.8-1.8,2.1-3.7,2c-1.4,0.1-2.7-0.7-3.4-2H0
	v-0.4h5c-0.2-0.3-0.5-0.5-0.9-0.7c-0.1,0-0.1-0.1-0.2-0.1c-0.2,0-0.5-0.1-0.6-0.2s1.1-0.2,1.8,0.6l0.5-2.4l0.3-0.2l-0.5,3
	c0.3,0.4,0.6,0.8,0.9,1.2l0.5-4.7L7,32.5l-0.3,5.1c0.2,0.2,0.5,0.3,0.7,0.4L8,32.3h0.2L7.7,38c0.3,0.1,0.6,0.1,0.8,0.1L9,32.4h0.1
	L9,38.2c0.3,0,0.7-0.1,1-0.2l0-5.5h0.1l0.1,5.3c0.4-0.2,0.7-0.4,1-0.7l-0.1-4.3l0.2,0.2l0.1,3.8l0.8-0.7v-2.5l0.3,0.2v2.1
	c0.5-0.3,1.1-0.5,1.6-0.4c-0.5,0.1-1,0.3-1.4,0.6h2.3c-2.8-3.4-7.5-6.6-11.2-1.5c-0.2,0.2-0.5,0.3-0.8,0.3H0v-0.5h2.8
	c-0.3-0.3-0.4-0.7-0.3-1.1H0.3v-0.8h2.3C2.7,32,2.8,31.6,3,31.3H0.3V30h3.4c0.1-0.3,0.3-0.7,0.3-1H0.3v-0.8H4c0-0.4-0.1-0.8-0.3-1.2
	H0.3v-0.5h3.1c-0.2-0.3-1-0.7-1-1.1H0V25h0.5v-0.9H0v-0.4h6c0.5-0.2,1-0.2,1.5,0h2.8c0.4-0.3,0.9-0.3,1.3,0h0.8
	c0.2-0.2,0.4-0.4,0.6-0.6H0.3v-0.4h13.6c0.6-0.3,1.2-0.3,1.8,0h7.4v-7.4c-0.3-0.6-0.3-1.3,0-1.8V0h0.4v12.8c0.2-0.2,0.4-0.4,0.6-0.6
	v-0.8c-0.3-0.4-0.3-0.9,0-1.3V7.2c-0.2-0.5-0.2-1,0-1.5V0h0.4v0.2h0.9V0h0.4v2.1c0.3-0.1,0.8,0.7,1.1,1V0h0.5v3.4
	c0.3,0.2,0.7,0.3,1.1,0.3V0h0.8v3.7c0.4-0.1,0.7-0.2,1.1-0.3V0h1.3v2.8c0.3-0.2,0.7-0.4,1.1-0.5V0h0.8v2.2c0.4-0.1,0.8,0,1.1,0.3V0
	h0.5v3c0.1,0.3-0.1,0.6-0.3,0.8C29.8,7.5,33,12.2,36.4,15v-2.4c-0.3,0.4-0.5,0.9-0.6,1.4c0-0.6,0.1-1.1,0.4-1.6h-2.1l-0.2-0.3h2.5
	l0.7-0.8l-3.8-0.1l-0.2-0.2l4.3,0.1c0.3-0.3,0.5-0.6,0.7-1l-5.3-0.1V9.6l5.4,0c0.1-0.3,0.2-0.6,0.2-0.9l-5.8,0.1V8.7l5.8-0.4
	c0-0.3-0.1-0.6-0.1-0.8l-5.7,0.4V7.7l5.6-0.6c-0.1-0.3-0.2-0.5-0.4-0.7l-5.1,0.3l0.1-0.2L37.6,6c-0.4-0.3-0.8-0.6-1.2-0.9l-3,0.5
	l0.2-0.3L36,4.8c-0.8-0.7-0.8-1.9-0.6-1.8c0.1,0.2,0.2,0.4,0.2,0.6c0,0.1,0,0.1,0.1,0.2c0.2,0.3,0.4,0.6,0.7,0.9V0h0.4v5
	c1.3,0.6,2,2,2,3.4c0.1,1.9-1.2,2.6-2,3.7v3.3c0.9,0.9,1.6,2.1,1.9,3.3c0.7,3.5-1.7,7.4-5.5,7.7l-0.1-0.1c3.4-0.7,5.5-4.4,4.8-7.6
	c-0.7-2.8-3.1-4.2-4.9-6.5c-1.2-1.6-1.7-3.7-1.1-5.6c0.6-2,2.4-2.7,2.7-3.4s-0.8-0.9-1.4-0.8c-1.3-0.1-2.7,2.2-5.6,1.3
	c-0.6-0.2-1.2-0.7-1.5-1.3c-0.1-0.3-1.2,0.1-0.3,1.7c2.3,0.1,1.9,1.6,1.8,1.5c-1.3-0.7-2.3,0.4-1.7,1.2c0.3,0.3,0.6,0.5,0.9,0.7
	c1,0.7,2,1.5,2.8,2.4c0.3,0.4,0.5,0.8,0.8,1.3c1.8,3.2,2.6,7.4,0.7,10.4V22c0.2,0.5,0.4,1,0.4,1.6c0,0.4,0.2,0.7,0.6,0.9
	c0.1,0.1,0.4,0,0.4-0.2c-0.1-0.4-0.3-0.3-0.5-0.3c0.1-0.2,0.4-0.2,0.6-0.1c0.1,0.1,0.1,0.1,0.2,0.2c0.1,0.3-0.1,0.6-0.4,0.6
	c0,0,0,0,0,0c-0.5,0.1-0.9-0.3-1-0.7c-0.4-0.8-0.4-2-1.3-2.5c-0.6-0.2-1.3-0.1-1.9,0.2c-2.6,1-4.7,3.1-5.7,5.7
	c-0.3,0.6-0.4,1.3-0.2,2c0.4,0.9,1.6,0.9,2.5,1.3c0.4,0.1,0.7,0.5,0.7,1c-0.1,0.3-0.3,0.5-0.6,0.4c0,0,0,0,0,0
	c-0.2-0.1-0.4-0.3-0.3-0.5c0-0.1,0.1-0.2,0.2-0.2c0,0.2-0.1,0.4,0.3,0.5c0.2,0,0.2-0.3,0.2-0.4c-0.2-0.3-0.5-0.5-0.9-0.6
	c-0.5,0-1.1-0.2-1.6-0.4H22c-3,1.9-7.3,1.1-10.4-0.7c-0.5-0.3-0.9-0.5-1.3-0.8c-0.9-0.8-1.7-1.8-2.4-2.8c-0.2-0.3-0.5-0.6-0.8-0.9
	c-0.8-0.5-2,0.4-1.2,1.7c0.1,0.2-1.4,0.5-1.5-1.8c-1.6-0.9-2,0.1-1.7,0.3c0.6,0.3,1.1,0.9,1.3,1.5c0.9,2.9-1.4,4.3-1.3,5.6
	c-0.1,0.6,0.2,1.6,0.8,1.4s1.4-2.1,3.4-2.7c1.9-0.5,4-0.1,5.6,1.1c2.3,1.8,3.7,4.3,6.5,4.9c3.2,0.7,7-1.4,7.6-4.8l0.1,0.1
	C26.4,36.7,22.4,39.1,19,38.4z M3.6,24.2H3.1v0.5c0.2,0,0.3,0,0.5,0V24.2z M4.6,24.2H4.1v0.6L4.6,25L4.6,24.2z M22,27h-8.3
	c0.2,0.5,0.5,0.8,0.9,1.1h7L22,27z M21.3,29h-5.5c0.7,0.5,1.5,0.8,2.4,1.1h3.5C21.4,29.8,21.3,29.4,21.3,29z M22.9,25.5h-5.9
	c-0.2,0.6-0.8,0.5-1,0h-2.2c-0.3,0.3-0.4,0.7-0.3,1.1h8.7L22.9,25.5z M14.8,25.1v-0.3c-0.4,0-0.4,0-0.7,0.3H14.8z M15.8,25.1
	c-0.1-0.1-0.3-0.2-0.5-0.3v0.3H15.8z M17.9,25.1v-0.9h-0.5v0.9H17.9z M18.9,25.1v-0.9h-0.5v0.9H18.9z M19.9,25.1v-0.9h-0.5v0.9H19.9
	z M20.9,25.1v-0.9h-0.5v0.9H20.9z M21.9,25.1v-0.9h-0.5v0.9H21.9z M22.9,24.2h-0.5v0.9H23L22.9,24.2z M23.9,24.2h-0.5v0.5L23.9,24.2
	z M24.9,23.2h-0.5v0.5L24.9,23.2z M25.3,22.2h-0.9v0.5h0.9V22.2z M25.3,21.2h-0.9v0.5h0.9V21.2z M25.3,20.7v-0.5h-0.9v0.5H25.3z
	 M24.4,18.1v0.5h0.9v-0.5L24.4,18.1z M25.3,17.6v-0.5h-0.9v0.5H25.3z M24.4,19.2v0.5h0.9v-0.5H24.4z M26.7,13.3
	c-0.4-0.1-0.8,0-1.1,0.3v2.2c0.5,0.2,0.6,0.8,0,1v5.9l1.2-0.7L26.7,13.3z M28.3,21.3v-7c-0.3-0.4-0.6-0.7-1.1-0.9v8.3L28.3,21.3z
	 M30.2,18c-0.3-0.8-0.6-1.6-1.1-2.4v5.5c0.4,0,0.8,0.1,1.1,0.3V18z M24.4,1.3h0.9V0.8h-0.9V1.3z M24.4,2.3h0.8l0.1-0.1V1.8h-0.9V2.3
	z M24.4,3.3H25c0-0.2,0-0.3,0-0.5h-0.5L24.4,3.3z M24.4,4.3h0.9l-0.2-0.5h-0.7V4.3z M24.4,5.1l0.3-0.3h-0.3V5.1z M24.5,16.3
	c0.2,0.1,1.3,0.5,1.2-0.1c0-0.3-0.5-0.5-0.6-0.6c-0.6-0.5-0.7-1.4-0.2-2c0-0.1,0.1-0.1,0.2-0.2c1.8-1.4,3-0.1,3-0.1
	c1.8,1.8,2.9,4.3,3,6.8c0.7-3,0.2-6.1-1.3-8.7c-1.5-2.5-2-2.4-4.4-4.1c-0.5-0.4-0.7-1.1-0.4-1.7c0.6-1.1,2-0.3,2.1-0.5
	s-0.1-0.4-0.5-0.6c-1.6-0.8-2.6,1-2.4,2c0.3,1.2,0.7,1.8,2.3,2.6c-0.9-0.2-1.7,0.2-2.2,0.9c-0.2,0.2-0.3,0.9,0.1,0.8
	c0.2-0.1,0.3-0.2,0.5-0.4c1.5-0.8,2.1,1,2.1,1c-1.8,0.1-2.3,0.2-3.4,1.6C23,14.3,23.4,15.7,24.5,16.3L24.5,16.3z M25.4,11.4v-0.6
	c-0.4,0-0.7,0.2-0.9,0.4v0.2L25.4,11.4z M26.5,11.3c-0.1-0.3-0.4-0.5-0.8-0.6v0.6C26,11.4,26.2,11.4,26.5,11.3L26.5,11.3z M24.5,8.9
	v0.5h0.2c0.2-0.1,0.4-0.2,0.7-0.3V8.9L24.5,8.9z M25,8.3c-0.2-0.2-0.4-0.3-0.5-0.5v0.5H25z M26,9l-0.2-0.1V9L26,9z M25.4,14.5v-0.7
	c-0.2,0.2-0.3,0.4-0.3,0.7H25.4z M25.2,15c0,0.2,0.1,0.4,0.3,0.5V15L25.2,15z M16.4,23.2c0.2,0.2,0.3,0.4,0.5,0.6h7.3v-7.3
	c-0.2-0.1-0.4-0.3-0.6-0.5v7.2L16.4,23.2z M11.6,24.1c-0.3,0.2-0.4,0.6-0.4,0.9h0.6v-0.9H11.6z M11.2,25.4c0,0.3,0.3,0.6,0.6,0.8
	c0-0.3,0-0.5,0-0.8H11.2z M9.3,25h0.2c0.1-0.2,0.2-0.5,0.3-0.7v-0.2H9.2L9.3,25z M9.3,25.4l0.1,0.2v-0.2H9.3z M8.3,24.1
	c0.2,0.1,0.4,0.3,0.5,0.5v-0.5H8.3z M5,26.4c0.2,0.4,0.4,0.7,0.6,0.5S5,25.5,6,24.9c0.6-0.3,1.3-0.2,1.7,0.4
	c1.6,2.4,1.6,2.9,4.1,4.4c2.6,1.5,5.7,2,8.7,1.3c-2.6-0.1-5-1.2-6.9-3c0,0-1.2-1.2,0.1-3c0.5-0.6,1.4-0.7,2-0.2
	c0.1,0,0.1,0.1,0.2,0.2c0.1,0.1,0.4,0.6,0.7,0.6c0.5,0,0.2-1.1,0.1-1.2c-0.6-1.1-2-1.5-3.1-0.9C12,24.5,12,25,11.9,26.7
	c0,0-1.7-0.6-1-2.1c0.1-0.2,0.3-0.5,0.4-0.5c0.1-0.3-0.6-0.2-0.8-0.1c-0.7,0.5-1,1.4-0.9,2.2c-0.8-1.6-1.4-2.1-2.6-2.3
	C6,23.8,4.2,24.8,5,26.4z M5.5,24.2H5.2v0.3C5.2,24.3,5.3,24.2,5.5,24.2L5.5,24.2z M1.6,24.2H1v0.9h0.5L1.6,24.2z M2.6,24.2H2.1v0.9
	h0.4L2.6,25L2.6,24.2z M31.7,20.9c4.6,2.4,5.9,0.3,6-0.2c-0.3,0.3-0.6,0.4-1,0.3c0.4-0.2,0.6-0.5,0.8-0.9c-0.8,0.9-2.9,1.3-5.6,0.7
	L31.7,20.9z M36,23.9c-0.3,0.1-0.7,0.1-1,0c0.4-0.1,0.8-0.3,1-0.6c-1.5,0.7-3.2,0.5-4.4-0.6C33.3,24.3,34,25.3,36,23.9L36,23.9z
	 M37.1,17.9c-0.2,0.3-0.5,0.5-0.8,0.6c0.3-0.3,0.5-0.7,0.5-1.1c-0.6,1-1.9,1.9-4.5,1.9l-0.2,0.2C37.1,20.2,37,18.4,37.1,17.9
	L37.1,17.9z M33.6,13.5c-0.2,0.3-0.4,0.6-0.8,0.7c0.3-0.3,0.3-0.8,0.2-1.2c0,0.8-0.5,1.6-1.3,1.9l0.2,0.1
	C31.9,15,33.8,14.7,33.6,13.5L33.6,13.5z M30.9,16.6c0.2-1.9-1.7-7-4.3-7.8c0.2,0.1,2.6,2-0.1,1.3c0.9,0.4,2.7,1.7,0.3,2.1
	C28.1,12.2,29.8,13.2,30.9,16.6L30.9,16.6z M31.9,11c-0.1,0.6-0.5,1.1-1,1.3c0,0,1.5,0.1,1.4-1.1c-0.1,0.3-0.4,0.5-0.6,0.6
	C31.9,11.7,32,11.3,31.9,11L31.9,11z M32.3,17.1l-0.2,0.1c3.7,0.5,3.3-1.1,3.3-1.6c-0.2,0.3-0.4,0.5-0.8,0.6
	c0.3-0.3,0.4-0.8,0.3-1.2C34.5,16.2,33.7,17.3,32.3,17.1L32.3,17.1z M30.8,39.6c-0.4,0.1-0.8,0.2-1.2,0.4l-0.1-0.9L29.1,39l0.1,1.2
	l-0.9,0.7l-0.2-2.4H28l0.1,2.7c-0.3,0.3-0.6,0.5-1,0.6v-3.9h-0.2L26.7,42c-0.3,0.1-0.7,0.1-1,0.1l0.5-7l-0.9,7
	c-0.3,0-0.6-0.1-0.8-0.2l0.6-5.2L25,36.9l-0.8,5c-0.3-0.1-0.5-0.2-0.7-0.4l0.4-3.7l-0.2,0.1L23.2,41c-0.3-0.4-0.6-0.8-0.9-1.3
	l0.4-1.6l-0.3,0.1L22,39.4c-0.2-0.2-0.5-0.4-0.7-0.6c-0.1-0.1-0.2-0.1-0.4-0.1c-0.2,0-0.4,0-0.6,0c0,0.1,0.3,0.2,0.5,0.2
	c0.1,0,0.2,0.1,0.4,0.1c1.7,1.1,1.1,2.9,4.3,3.3c2.6,0.3,3.2-2.2,5.2-2.4c0.2-0.1,0.4-0.2,0.5-0.3C31.1,39.5,31,39.6,30.8,39.6z
	 M11.6,32c1.2,0.1,1.1-1.4,1.1-1.4c-0.2,0.5-0.7,0.9-1.3,1c0.3,0.1,0.6,0,0.9-0.2C12.1,31.5,11.7,32,11.6,32z M31.6,22.7l-0.1-0.1
	L31.6,22.7z M39.7,35.2c0.8-0.3,0.8-0.8,0.6-1.1c-0.2-0.4-0.5-0.7-0.8-0.9c0.8-0.3,0.7-0.8,0.5-1c-0.2-0.3-0.5-0.5-0.9-0.7
	c0.8-0.3,0.6-0.8,0.4-1c-0.2-0.2-0.5-0.4-0.8-0.5c0.7-0.4,0.5-0.8,0.3-1c-0.2-0.2-0.5-0.3-0.8-0.4c0.5-0.4,0.3-0.8,0.1-0.9
	c-0.2-0.1-0.5-0.2-0.8-0.2c0.4-0.4,0.2-0.7,0-0.8c-0.3-0.1-0.6-0.2-0.9-0.1c-0.4,0-0.9,0.1-1.3,0.1c-0.7,0.1-3.1,0.5-4.5,0.5l0,0
	l-0.1,0.1c1.4,0,2.9-0.1,4.3-0.3c0.7-0.2,1.5-0.2,2.2-0.1c0.2,0.1,0.3,0.2-0.1,0.5c-0.5,0-1,0-1.4,0c-1.7,0.1-3.5,0.1-5.2-0.1
	c0,0.1-0.1,0.1-0.1,0.2l0,0c1.7,0.2,3.3,0.3,5,0.3c0.8-0.1,1.6,0,2.4,0.2c0.2,0.1,0.3,0.3-0.2,0.5c-0.5-0.1-1.1-0.1-1.5-0.2
	c-1.9-0.1-3.8-0.4-5.8-0.8c0,0-0.1,0.1-0.1,0.2c1.8,0.5,3.6,0.8,5.5,0.9c0.9,0,1.8,0.2,2.7,0.5c0.2,0.1,0.3,0.3-0.2,0.6
	c-0.5-0.2-1.2-0.3-1.6-0.4c-2.1-0.4-4.2-0.9-6.3-1.6L30.2,28c1.9,0.8,3.9,1.3,5.9,1.8c1,0.1,2,0.4,2.9,0.9c0.2,0.2,0.3,0.4-0.3,0.6
	c-0.5-0.3-1.3-0.5-1.7-0.6c-2.3-0.7-4.6-1.6-6.8-2.6l-0.1,0.2c2,1.1,4.1,2,6.3,2.7c1.1,0.3,2.1,0.7,3,1.3c0.2,0.2,0.2,0.4-0.3,0.6
	c-0.6-0.3-1.4-0.7-1.9-0.9c-1.2-0.6-5.4-2.3-7.2-3.7l-0.2,0.2c2.1,1.5,4.3,2.7,6.6,3.8c1,0.5,2.5,1,3.2,1.9c0.2,0.2,0.2,0.5-0.4,0.6
	c-0.6-0.5-1.3-0.9-2-1.2c-1.2-0.8-5.7-3.2-7.5-5l-0.1,0.2c2,1.9,4.3,3.6,6.7,5.1c1.1,0.7,2.7,1.4,3.3,2.5c0.2,0.4,0,0.8-1.3,0.8
	c0,0.3,0,0.5-0.1,0.8c-0.3,0.1-0.5,0.1-0.8,0.1c0,1.3-0.4,1.5-0.8,1.3c-1.1-0.6-1.8-2.2-2.5-3.3c-1.5-2.4-3.2-4.6-5.1-6.7
	c-0.1,0.1-0.1,0.1-0.2,0.2c1.7,1.8,4.2,6.3,5,7.5c0.4,0.7,0.8,1.4,1.2,2c-0.2,0.5-0.4,0.5-0.6,0.4c-0.9-0.7-1.4-2.2-1.9-3.2
	c-1-2.3-2.3-4.5-3.8-6.6l-0.2,0.2c1.4,2.3,2.6,4.7,3.7,7.2c0.2,0.5,0.5,1.3,0.9,1.9c-0.2,0.6-0.4,0.6-0.6,0.3
	c-0.6-0.9-1.1-1.9-1.4-3c-0.7-2.2-1.6-4.3-2.7-6.3l-0.2,0.1c1,2.2,1.8,4.5,2.6,6.8c0.2,0.5,0.4,1.2,0.6,1.8
	c-0.2,0.6-0.4,0.6-0.6,0.3c-0.5-0.9-0.8-1.9-0.9-2.9c-0.4-2-1-4-1.8-5.9l-0.2,0.1c0.7,2.1,1.2,4.2,1.6,6.3c0.1,0.4,0.2,1.1,0.4,1.6
	c-0.3,0.5-0.5,0.5-0.6,0.2c-0.3-0.8-0.5-1.7-0.5-2.7c-0.2-1.9-0.5-3.7-1-5.5l-0.2,0.1c0.4,1.9,0.6,3.8,0.8,5.8c0,0.4,0.1,1,0.2,1.5
	c-0.3,0.4-0.5,0.4-0.5,0.2c-0.2-0.8-0.3-1.6-0.2-2.4c0-1.7,0-3.3-0.3-5l0,0l-0.2,0.1c0.1,1.7,0.1,3.4,0.1,5.2c0,0.4,0,0.9,0,1.4
	c-0.3,0.4-0.5,0.3-0.5,0.1c-0.1-0.7-0.1-1.5,0.1-2.2c0.2-1.4,0.3-2.9,0.3-4.4l-0.1,0.1l0,0c-0.1,1.5-0.2,3-0.5,4.5
	c-0.1,0.4-0.1,0.9-0.2,1.3c0,0.3,0,0.6,0.1,0.9c0.1,0.2,0.4,0.4,0.8,0c0,0.3,0.1,0.5,0.3,0.7c0.1,0.2,0.5,0.4,0.9-0.1
	c0.1,0.3,0.2,0.6,0.4,0.8c0.2,0.2,0.6,0.4,1-0.3c0.1,0.3,0.3,0.6,0.5,0.8c0.2,0.2,0.7,0.3,1-0.4c0.2,0.3,0.4,0.6,0.7,0.9
	c0.2,0.2,0.8,0.3,1-0.5c0.2,0.3,0.5,0.6,0.9,0.8c0.3,0.2,0.8,0.1,1.1-0.7c0.3,0.3,0.7,0.6,1.1,0.7c0.4,0.1,1.3-0.1,1.3-1.6
	c0.3,0,0.5-0.1,0.8-0.2c0.1-0.2,0.1-0.5,0.1-0.8c1.5-0.1,1.8-0.9,1.6-1.3C40.3,35.8,40,35.5,39.7,35.2L39.7,35.2z M39.4,20.9
	c-0.1-0.1-0.1-0.2-0.1-0.4c0-0.2-0.1-0.5-0.2-0.5c0,0.2,0,0.4,0,0.6c0,0.1,0,0.3,0.1,0.4c0.2,0.3,0.4,0.5,0.6,0.7l-1.1,0.3l-0.1,0.3
	l1.6-0.4c0.4,0.3,0.9,0.5,1.2,0.9L38,23.5l-0.1,0.2l3.7-0.4c0.2,0.2,0.3,0.5,0.4,0.8l-5,0.8v0.1l5.2-0.6c0.1,0.3,0.1,0.5,0.2,0.8
	l-7,0.9l7-0.6c0,0.3,0,0.7-0.1,1l-4.1,0.2v0.2h3.9c-0.2,0.4-0.4,0.7-0.6,1l-2.7-0.1V28l2.4,0.2l-0.7,0.9l-1.2-0.1l0.1,0.3l0.9,0.1
	c-0.2,0.4-0.3,0.8-0.4,1.2c0,0.2-0.1,0.3,0,0.4c0.1-0.2,0.2-0.3,0.3-0.5c0.2-2.1,2.7-2.7,2.4-5.2C42.3,22,40.5,22.6,39.4,20.9
	L39.4,20.9z M37.2,36.9l0.5-0.1L33.3,33l3.8,4.4L37.2,36.9z M13.8,33.3c1.3,0.3,1.5-1.6,1.5-1.6l-0.1-0.2c-0.3,0.8-1.1,1.3-1.9,1.3
	c0.4,0.2,0.9,0.1,1.2-0.2C14.5,32.8,13.9,33.3,13.8,33.3z M18.1,36.8c0.5,0,2.4,0.1,1.5-5L19.5,32c0.1,2.6-0.8,3.8-1.9,4.4
	c0.4,0,0.8-0.2,1.1-0.5C18.7,36.3,18.4,36.6,18.1,36.8z M15.9,35.1c0.5,0,2.1,0.4,1.7-3.3L17.4,32c0.2,1.4-0.8,2.3-2,2.7
	c0.4,0,0.8-0.1,1.1-0.4C16.5,34.6,16,35.2,15.9,35.1z M16.9,30.6c-3.4-1.1-4.4-2.8-4.4-4.1c-0.3,2.4-1.7,0.5-2-0.3
	c0.7,2.7-1.2,0.4-1.4,0.1C9.9,29,15,30.9,16.9,30.6z M22.9,31.3c1.1,1.2,1.3,2.9,0.6,4.4c0.3-0.2,0.6-0.6,0.7-1
	c0.1,0.3,0.1,0.7-0.1,1C25.6,33.7,24.6,33,22.9,31.3L22.9,31.3z M21,37.4c0.5-0.2,2.6-1.4,0.2-6c0,0.1,0,0.1,0,0.2
	c0.6,2.7,0.2,4.8-0.7,5.6c0.4-0.1,0.7-0.4,0.9-0.8C21.4,36.8,21.3,37.1,21,37.4z"/>
</svg>
