<?xml version="1.0" encoding="utf-8"?>
<!-- Generator: Adobe Illustrator 22.1.0, SVG Export Plug-In . SVG Version: 6.00 Build 0)  -->
<svg version="1.1" id="Layer_1" xmlns="http://www.w3.org/2000/svg" xmlns:xlink="http://www.w3.org/1999/xlink" x="0px" y="0px"
	 viewBox="0 0 13.6 363.8" style="enable-background:new 0 0 13.6 363.8;" xml:space="preserve">
<style type="text/css">
	.st0{fill:#FFFFFF;}
	.st1{fill:#7C6742;}
</style>
<rect y="0.5" class="st0" width="13.6" height="362.8"/>
<path class="st1" d="M2.2,12.1v0.3H1.3v-0.5h0.9V12.1z M1.3,17.1h0.9v0.5H1.3V17.1z M1.3,16h0.9v0.5H1.3V16z M1.3,15h0.9v0.5H1.3V15
	z M1.3,13.9h0.9v0.5H1.3V13.9z M1.3,12.9h0.9v0.5H1.3V12.9z M1.3,20.3h0.9v0.5H1.3V20.3z M2.2,21.9H1.3v-0.5h0.9V21.9z M1.3,19.2
	h0.9v0.5H1.3V19.2z M1.3,18.2h0.9v0.5H1.3V18.2z M1.3,22.4h0.9v0.5H1.3V22.4z M1.3,8.6h0.9v0.5H1.3V8.6z M2.2,10.2H1.3V9.7h0.9V10.2
	z M1.3,7.6h0.9v0.5H1.3V7.6z M1.3,6.6h0.9v0.5H1.3V6.6z M1.3,5.6h0.9V6H1.3V5.6z M1.3,4.6h0.9V5H1.3V4.6z M1.3,10.9h0.9v0.5H1.3
	V10.9z M1.3,3.5h0.9v0.5H1.3V3.5z M1.3,2.5h0.9v0.5H1.3V2.5z M1.3,1.5h0.9v0.5H1.3V1.5z M1,12.1v11.7h0.3v-0.3h0.9v0.3h0.3V0.5H2.2
	v0.3H1.3V0.5H1V12.1z M4.2,12.1V0.5H3.6v24h0.5L4.2,12.1z M6.1,12.1V0.5H5.3v23.8h0.8L6.1,12.1z M0,70.4h0.4V58.8H0V70.4z M3.6,70.4
	h0.5V58.8H3.6V70.4z M5.3,70.4h0.8V58.8H5.3V70.4z M1.3,67h0.9v0.5H1.3V67z M2.2,68.6H1.3v-0.5h0.9V68.6z M1.3,65.9h0.9v0.5H1.3
	V65.9z M1.3,64.9h0.9v0.5H1.3V64.9z M1.3,63.8h0.9v0.5H1.3V63.8z M1.3,62.8h0.9v0.5H1.3V62.8z M1.3,61.7h0.9v0.5H1.3V61.7z
	 M1.3,60.6h0.9v0.5H1.3V60.6z M1.3,59.6h0.9v0.5H1.3V59.6z M1.3,69.1h0.9v0.5H1.3V69.1z M1,58.8v11.7h0.3v-0.3h0.9v0.3h0.3V58.8H2.2
	V59H1.3v-0.3L1,58.8z M13.3,117.2h0.4v-11.7h-0.4V117.2z M0,117.2h0.4v-11.7H0V117.2z M11.5,117.2H12v-11.7h-0.6L11.5,117.2z
	 M3.6,117.2h0.6v-11.7H3.6L3.6,117.2z M5.3,117.2h0.8v-11.7H5.3V117.2z M9.5,117.2h0.8v-11.7H9.5V117.2z M7.2,117.2h1.3v-11.7H7.2
	L7.2,117.2z M1.3,113.7h0.9v0.5H1.3V113.7z M2.2,115.3H1.3v-0.5h0.9V115.3z M1.3,112.6h0.9v0.5H1.3V112.6z M1.3,111.6h0.9v0.5H1.3
	V111.6z M1.3,110.5h0.9v0.5H1.3V110.5z M1.3,109.5h0.9v0.5H1.3V109.5z M1.3,108.4h0.9v0.5H1.3V108.4z M1.3,107.3h0.9v0.5H1.3V107.3z
	 M1.3,106.3h0.9v0.5H1.3V106.3z M1.3,115.8h0.9v0.5H1.3V115.8z M1,105.5v11.7h0.3v-0.3h0.9v0.3h0.3v-11.7H2.2v0.3H1.3v-0.3H1z
	 M13.3,163.9h0.4v-11.7h-0.4V163.9z M0,163.9h0.4v-11.7H0V163.9z M11.5,163.9H12v-11.7h-0.6L11.5,163.9z M3.6,163.9h0.6v-11.7H3.6
	L3.6,163.9z M5.3,163.9h0.8v-11.7H5.3V163.9z M9.5,163.9h0.8v-11.7H9.5V163.9z M7.2,163.9h1.3v-11.7H7.2L7.2,163.9z M1.3,160.4h0.9
	v0.6H1.3V160.4z M2.2,162H1.3v-0.5h0.9V162z M1.3,159.4h0.9v0.5H1.3V159.4z M1.3,158.3h0.9v0.5H1.3V158.3z M1.3,157.2h0.9v0.5H1.3
	V157.2z M1.3,156.2h0.9v0.5H1.3V156.2z M1.3,155.1h0.9v0.5H1.3V155.1z M1.3,154h0.9v0.5H1.3V154z M1.3,153h0.9v0.5H1.3V153z
	 M1.3,162.5h0.9v0.5H1.3V162.5z M1,152.2v11.7h0.3v-0.3h0.9v0.3h0.3v-11.7H2.2v0.3H1.3v-0.3H1z M13.3,210.6h0.4v-11.7h-0.4V210.6z
	 M0,210.6h0.4v-11.7H0V210.6z M11.5,210.6H12v-11.7h-0.6L11.5,210.6z M3.6,210.6h0.6v-11.7H3.6L3.6,210.6z M5.3,210.6h0.8v-11.7H5.3
	V210.6z M9.5,210.6h0.8v-11.7H9.5V210.6z M7.2,210.6h1.3v-11.7H7.2L7.2,210.6z M1.3,207.1h0.9v0.5H1.3V207.1z M2.2,208.7H1.3v-0.5
	h0.9V208.7z M1.3,206.1h0.9v0.5H1.3V206.1z M1.3,205h0.9v0.5H1.3V205z M1.3,204h0.9v0.5H1.3V204z M1.3,202.9h0.9v0.5H1.3V202.9z
	 M1.3,201.8h0.9v0.5H1.3V201.8z M1.3,200.8h0.9v0.5H1.3V200.8z M1.3,199.7h0.9v0.5H1.3V199.7z M1.3,209.3h0.9v0.5H1.3V209.3z
	 M1,198.9v11.7h0.3v-0.3h0.9v0.3h0.3v-11.7H2.2v0.3H1.3v-0.3H1z M13.3,257.3h0.4v-11.7h-0.4V257.3z M0,257.3h0.4v-11.7H0V257.3z
	 M11.5,257.3H12v-11.7h-0.6L11.5,257.3z M3.6,257.3h0.6v-11.7H3.6L3.6,257.3z M5.3,257.3h0.8v-11.7H5.3V257.3z M9.5,257.3h0.8v-11.7
	H9.5V257.3z M7.2,257.3h1.3v-11.7H7.2L7.2,257.3z M1.3,253.9h0.9v0.5H1.3V253.9z M2.2,255.4H1.3v-0.5h0.9V255.4z M1.3,252.8h0.9v0.5
	H1.3V252.8z M1.3,251.7h0.9v0.5H1.3V251.7z M1.3,250.7h0.9v0.5H1.3V250.7z M1.3,249.6h0.9v0.5H1.3V249.6z M1.3,248.6h0.9v0.5H1.3
	V248.6z M1.3,247.5h0.9v0.5H1.3V247.5z M1.3,246.4h0.9v0.6H1.3V246.4z M1.3,256h0.9v0.5H1.3V256z M1,245.6v11.7h0.3V257h0.9v0.3h0.3
	v-11.6H2.2v0.3H1.3v-0.3H1z M13.2,304h0.4v-11.7h-0.4V304z M0,304h0.4v-11.7H0V304z M11.5,304H12v-11.7h-0.6L11.5,304z M3.6,304h0.6
	v-11.7H3.6L3.6,304z M5.3,304h0.8v-11.7H5.3V304z M9.5,304h0.8v-11.7H9.5V304z M7.2,304h1.3v-11.7H7.2L7.2,304z M1.3,300.6h0.9v0.5
	H1.3V300.6z M2.2,302.2H1.3v-0.5h0.9V302.2z M1.3,299.5h0.9v0.5H1.3V299.5z M1.3,298.5h0.9v0.5H1.3V298.5z M1.3,297.4h0.9v0.5H1.3
	V297.4z M1.3,296.3h0.9v0.5H1.3V296.3z M1.3,295.3h0.9v0.5H1.3V295.3z M1.3,294.2h0.9v0.5H1.3V294.2z M1.3,293.1h0.9v0.5H1.3V293.1z
	 M1.3,302.7h0.9v0.5H1.3V302.7z M1,292.3V304h0.3v-0.3h0.9v0.3h0.3v-11.7H2.2v0.3H1.3v-0.3H1z M13.3,350.7h0.4v-11.7h-0.4V350.7z
	 M0,350.7h0.4v-11.7H0V350.7z M11.5,350.7H12v-11.7h-0.6L11.5,350.7z M3.6,350.7h0.6v-11.7H3.6L3.6,350.7z M5.3,350.7h0.8v-11.7H5.3
	V350.7z M9.5,350.7h0.8v-11.7H9.5V350.7z M7.2,350.7h1.3v-11.7H7.2L7.2,350.7z M1.3,347.3h0.9v0.5H1.3V347.3z M2.2,348.9H1.3v-0.5
	h0.9V348.9z M1.3,346.2h0.9v0.5H1.3V346.2z M1.3,345.2h0.9v0.5H1.3V345.2z M1.3,344.1h0.9v0.5H1.3V344.1z M1.3,343h0.9v0.5H1.3V343z
	 M1.3,342h0.9v0.5H1.3V342z M1.3,340.9h0.9v0.5H1.3V340.9z M1.3,339.9h0.9v0.5H1.3V339.9z M1.3,349.4h0.9v0.5H1.3V349.4z M1,339.1
	v11.7h0.3v-0.3h0.9v0.3h0.3v-11.7H2.2v0.3H1.3v-0.3H1z M13.6,35.4V0.5h-0.4v58.2h0.4V35.4z M0,35.4h0.4V0.5H0V35.4z M12,35.4V0h-0.6
	v70.4H12V35.4L12,35.4z M4.2,35.4V23.7H3.6v35.4h0.5L4.2,35.4L4.2,35.4z M6.1,35.4V23.7H5.3v35h0.8L6.1,35.4L6.1,35.4z M10.3,35.4
	V0.5H9.5v69.9h0.8L10.3,35.4L10.3,35.4z M8.4,35.4V0.5H7.2v69.9h1.3L8.4,35.4L8.4,35.4z M1.3,32h0.9v0.5H1.3V32z M2.2,33.6H1.3V33
	h0.9V33.6z M1.3,30.9h0.9v0.5H1.3V30.9z M1.3,29.8h0.9v0.5H1.3V29.8z M1.3,28.8h0.9v0.5H1.3V28.8z M1.3,27.7h0.9v0.5H1.3V27.7z
	 M1.3,26.7h0.9v0.5H1.3V26.7z M1.3,25.6h0.9v0.5H1.3V25.6z M1.3,24.5h0.9v0.5H1.3V24.5z M1.3,34.1h0.9v0.5H1.3V34.1z M1,23.7v11.7
	h0.3v-0.3h0.9v0.3h0.3V23.7H2.2V24H1.3v-0.3H1z M13.3,82.1h0.4V70.4h-0.4V82.1z M0,82.1h0.4V70.4H0V82.1z M11.5,82.1H12V70.4h-0.6
	L11.5,82.1z M3.6,82.1h0.6V70.4H3.6L3.6,82.1z M5.3,82.1h0.8V70.4H5.3V82.1z M9.5,82.1h0.8V70.4H9.5V82.1z M7.2,82.1h1.3V70.4H7.2
	L7.2,82.1z M1.3,78.7h0.9v0.5H1.3V78.7z M2.2,80.3H1.3v-0.5h0.9V80.3z M1.3,77.6h0.9v0.5H1.3V77.6z M1.3,76.6h0.9v0.5H1.3V76.6z
	 M1.3,75.5h0.9V76H1.3V75.5z M1.3,74.4h0.9V75H1.3V74.4z M1.3,73.4h0.9v0.5H1.3V73.4z M1.3,72.3h0.9v0.5H1.3V72.3z M1.3,71.2h0.9
	v0.5H1.3V71.2z M1.3,80.8h0.9v0.5H1.3V80.8z M1,70.4v11.7h0.3v-0.3h0.9v0.3h0.3V70.4H2.2v0.3H1.3v-0.3H1z M13.3,128.8h0.4v-11.7
	h-0.4V128.8z M0,128.8h0.4v-11.7H0V128.8z M11.5,128.8H12v-11.7h-0.6L11.5,128.8z M3.6,128.8h0.6v-11.7H3.6L3.6,128.8z M5.3,128.8
	h0.8v-11.7H5.3V128.8z M9.5,128.8h0.8v-11.7H9.5V128.8z M7.2,128.8h1.3v-11.7H7.2L7.2,128.8z M1.3,125.4h0.9v0.5H1.3V125.4z
	 M2.2,127H1.3v-0.5h0.9V127z M1.3,124.3h0.9v0.5H1.3V124.3z M1.3,123.3h0.9v0.5H1.3V123.3z M1.3,122.2h0.9v0.5H1.3V122.2z
	 M1.3,121.1h0.9v0.5H1.3V121.1z M1.3,120.1h0.9v0.5H1.3V120.1z M1.3,119h0.9v0.5H1.3V119z M1.3,118h0.9v0.5H1.3V118z M1.3,127.5h0.9
	v0.5H1.3V127.5z M1,117.2v11.7h0.3v-0.3h0.9v0.3h0.3v-11.7H2.2v0.3H1.3v-0.3H1z M13.3,175.6h0.4v-11.7h-0.4V175.6z M0,175.6h0.4
	v-11.7H0V175.6z M11.5,175.6H12v-11.7h-0.6L11.5,175.6z M3.6,175.6h0.6v-11.7H3.6L3.6,175.6z M5.3,175.6h0.8v-11.7H5.3V175.6z
	 M9.5,175.6h0.8v-11.7H9.5V175.6z M7.2,175.6h1.3v-11.7H7.2L7.2,175.6z M1.3,172.1h0.9v0.5H1.3V172.1z M2.2,173.7H1.3v-0.5h0.9
	V173.7z M1.3,171h0.9v0.5H1.3V171z M1.3,169.9h0.9v0.5H1.3V169.9z M1.3,168.9h0.9v0.5H1.3V168.9z M1.3,167.8h0.9v0.5H1.3V167.8z
	 M1.3,166.8h0.9v0.5H1.3V166.8z M1.3,165.7h0.9v0.5H1.3V165.7z M1.3,164.6h0.9v0.5H1.3V164.6z M1.3,174.2h0.9v0.5H1.3V174.2z
	 M1,163.9v11.7h0.3v-0.3h0.9v0.3h0.3v-11.7H2.2v0.3H1.3v-0.3H1z M13.3,222.3h0.4v-11.7h-0.4V222.3z M0,222.3h0.4v-11.7H0V222.3z
	 M11.5,222.3H12v-11.7h-0.6L11.5,222.3z M3.6,222.3h0.6v-11.7H3.6L3.6,222.3z M5.3,222.3h0.8v-11.7H5.3V222.3z M9.5,222.3h0.8v-11.7
	H9.5V222.3z M7.2,222.3h1.3v-11.7H7.2L7.2,222.3z M1.3,218.8h0.9v0.5H1.3V218.8z M2.2,220.4H1.3v-0.5h0.9V220.4z M1.3,217.8h0.9v0.5
	H1.3V217.8z M1.3,216.7h0.9v0.5H1.3V216.7z M1.3,215.6h0.9v0.5H1.3V215.6z M1.3,214.6h0.9v0.5H1.3V214.6z M1.3,213.5h0.9v0.5H1.3
	V213.5z M1.3,212.5h0.9v0.5H1.3V212.5z M1.3,211.4h0.9v0.5H1.3V211.4z M1.3,220.9h0.9v0.5H1.3V220.9z M1,210.6v11.7h0.3V222h0.9v0.3
	h0.3v-11.7H2.2v0.3H1.3v-0.3H1z M13.2,269h0.4v-11.7h-0.4V269z M0,269h0.4v-11.7H0V269z M11.5,269H12v-11.7h-0.6L11.5,269z M3.6,269
	h0.6v-11.7H3.6L3.6,269z M5.3,269h0.8v-11.7H5.3V269z M9.5,269h0.8v-11.7H9.5V269z M7.2,269h1.3v-11.7H7.2L7.2,269z M1.3,265.5h0.9
	v0.5H1.3V265.5z M2.2,267.1H1.3v-0.5h0.9V267.1z M1.3,264.5h0.9v0.5H1.3V264.5z M1.3,263.4h0.9v0.5H1.3V263.4z M1.3,262.4h0.9v0.5
	H1.3V262.4z M1.3,261.3h0.9v0.5H1.3V261.3z M1.3,260.2h0.9v0.5H1.3V260.2z M1.3,259.2h0.9v0.5H1.3V259.2z M1.3,258.1h0.9v0.5H1.3
	V258.1z M1.3,267.7h0.9v0.5H1.3V267.7z M1,257.3V269h0.3v-0.3h0.9v0.3h0.3v-11.7H2.2v0.3H1.3v-0.3H1z M13.3,315.7h0.4V304h-0.4
	V315.7z M0,315.7h0.4V304H0V315.7z M11.5,315.7H12V304h-0.6L11.5,315.7z M3.6,315.7h0.6V304H3.6L3.6,315.7z M5.3,315.7h0.8V304H5.3
	V315.7z M9.5,315.7h0.8V304H9.5V315.7z M7.2,315.7h1.3V304H7.2L7.2,315.7z M1.3,312.2h0.9v0.5H1.3V312.2z M2.2,313.8H1.3v-0.5h0.9
	V313.8z M1.3,311.2h0.9v0.5H1.3V311.2z M1.3,310.1h0.9v0.5H1.3V310.1z M1.3,309.1h0.9v0.5H1.3V309.1z M1.3,308h0.9v0.5H1.3V308z
	 M1.3,306.9h0.9v0.5H1.3V306.9z M1.3,305.9h0.9v0.5H1.3V305.9z M1.3,304.8h0.9v0.5H1.3V304.8z M1.3,314.4h0.9v0.5H1.3V314.4z M1,304
	v11.7h0.3v-0.3h0.9v0.3h0.3V304H2.2v0.3H1.3V304H1z M13.3,363.4h0.4v-12.6h-0.4V363.4z M0,363.4h0.4v-12.7H0V363.4z M11.5,363.4H12
	v-12.6h-0.6L11.5,363.4z M3.6,363.4h0.6v-12.6H3.6L3.6,363.4z M5.3,363.4h0.8v-12.6H5.3V363.4z M9.5,363.4h0.8v-12.6H9.5V363.4z
	 M7.2,363.4h1.3v-12.6H7.2L7.2,363.4z M1.3,359h0.9v0.5H1.3V359z M2.2,360.6H1.3V360h0.9V360.6z M1.3,357.9h0.9v0.5H1.3V357.9z
	 M1.3,356.8h0.9v0.5H1.3V356.8z M1.3,355.8h0.9v0.5H1.3V355.8z M1.3,354.7h0.9v0.5H1.3V354.7z M1.3,353.6h0.9v0.5H1.3V353.6z
	 M1.3,352.6h0.9v0.5H1.3V352.6z M1.3,351.5h0.9v0.5H1.3V351.5z M1.3,361.1h0.9v0.5H1.3V361.1z M1,350.7v11.7h0.3v-0.3h0.9v0.3h0.3
	v-11.7H2.2v0.3H1.3v-0.3H1z M0,47.1h0.4V35.4H0V47.1z M1.3,43.6h0.9v0.5H1.3V43.6z M2.2,45.2H1.3v-0.5h0.9V45.2z M1.3,42.6h0.9v0.5
	H1.3V42.6z M1.3,41.5h0.9V42H1.3V41.5z M1.3,40.5h0.9V41H1.3V40.5z M1.3,39.4h0.9v0.5H1.3V39.4z M1.3,38.3h0.9v0.5H1.3V38.3z
	 M1.3,37.3h0.9v0.5H1.3V37.3z M1.3,36.2h0.9v0.5H1.3V36.2z M1.3,45.8h0.9v0.5H1.3V45.8z M1,35.4v11.7h0.3v-0.3h0.9v0.3h0.3V35.4H2.2
	v0.3H1.3v-0.3H1z M13.2,93.8h0.4V82.1h-0.4V93.8z M0,93.8h0.4V82.1H0V93.8z M11.5,93.8H12V82.1h-0.6L11.5,93.8z M3.6,93.8h0.6V82.1
	H3.6L3.6,93.8z M5.3,93.8h0.8V82.1H5.3V93.8z M9.5,93.8h0.8V82.1H9.5V93.8z M7.2,93.8h1.3V82.1H7.2L7.2,93.8z M1.3,90.4h0.9v0.5H1.3
	V90.4z M2.2,92H1.3v-0.5h0.9V92z M1.3,89.3h0.9v0.5H1.3V89.3z M1.3,88.2h0.9v0.5H1.3V88.2z M1.3,87.2h0.9v0.5H1.3V87.2z M1.3,86.1
	h0.9v0.5H1.3V86.1z M1.3,85.1h0.9v0.5H1.3V85.1z M1.3,84h0.9v0.5H1.3V84z M1.3,82.9h0.9v0.5H1.3V82.9z M1.3,92.5h0.9V93H1.3V92.5z
	 M1,82.1v11.7h0.3v-0.3h0.9v0.3h0.3V82.1H2.2v0.3H1.3v-0.3H1z M13.3,140.5h0.4v-11.7h-0.4V140.5z M0,140.5h0.4v-11.7H0V140.5z
	 M11.5,140.5H12v-11.7h-0.6L11.5,140.5z M3.6,140.5h0.6v-11.7H3.6L3.6,140.5z M5.3,140.5h0.8v-11.7H5.3V140.5z M9.5,140.5h0.8v-11.7
	H9.5V140.5z M7.2,140.5h1.3v-11.7H7.2L7.2,140.5z M1.3,137.1h0.9v0.5H1.3V137.1z M2.2,138.7H1.3v-0.5h0.9V138.7z M1.3,136h0.9v0.5
	H1.3V136z M1.3,134.9h0.9v0.5H1.3V134.9z M1.3,133.9h0.9v0.5H1.3V133.9z M1.3,132.8h0.9v0.5H1.3V132.8z M1.3,131.8h0.9v0.5H1.3
	V131.8z M1.3,130.7h0.9v0.5H1.3V130.7z M1.3,129.6h0.9v0.5H1.3V129.6z M1.3,139.2h0.9v0.5H1.3V139.2z M1,128.8v11.7h0.3v-0.3h0.9
	v0.3h0.3v-11.7H2.2v0.3H1.3v-0.3H1z M13.3,187.2h0.4v-11.7h-0.4V187.2z M0,187.2h0.4v-11.7H0V187.2z M11.5,187.2H12v-11.7h-0.6
	L11.5,187.2z M3.6,187.2h0.6v-11.7H3.6L3.6,187.2z M5.3,187.2h0.8v-11.7H5.3V187.2z M9.5,187.2h0.8v-11.7H9.5V187.2z M7.2,187.2h1.3
	v-11.7H7.2L7.2,187.2z M1.3,183.8h0.9v0.5H1.3V183.8z M2.2,185.4H1.3v-0.5h0.9V185.4z M1.3,182.7h0.9v0.5H1.3V182.7z M1.3,181.7h0.9
	v0.5H1.3V181.7z M1.3,180.6h0.9v0.5H1.3V180.6z M1.3,179.5h0.9v0.5H1.3V179.5z M1.3,178.5h0.9v0.5H1.3V178.5z M1.3,177.4h0.9v0.5
	H1.3V177.4z M1.3,176.3h0.9v0.5H1.3V176.3z M1.3,185.9h0.9v0.5H1.3V185.9z M1,175.6v11.7h0.3V187h0.9v0.3h0.3v-11.7H2.2v0.3H1.3
	v-0.3H1z M13.2,234h0.4v-11.7h-0.4V234z M0,234h0.4v-11.7H0V234z M11.5,234H12v-11.7h-0.6L11.5,234z M3.6,234h0.6v-11.7H3.6L3.6,234
	z M5.3,234h0.8v-11.7H5.3V234z M9.5,234h0.8v-11.7H9.5V234z M7.2,234h1.3v-11.7H7.2L7.2,234z M1.3,230.5h0.9v0.5H1.3V230.5z
	 M2.2,232.1H1.3v-0.5h0.9V232.1z M1.3,229.4h0.9v0.6H1.3V229.4z M1.3,228.4h0.9v0.5H1.3V228.4z M1.3,227.3h0.9v0.5H1.3V227.3z
	 M1.3,226.2h0.9v0.5H1.3V226.2z M1.3,225.2h0.9v0.5H1.3V225.2z M1.3,224.1h0.9v0.5H1.3V224.1z M1.3,223.1h0.9v0.5H1.3V223.1z
	 M1.3,232.6h0.9v0.5H1.3V232.6z M1,222.3V234h0.3v-0.3h0.9v0.3h0.3v-11.7H2.2v0.3H1.3v-0.3H1z M13.3,280.7h0.4V269h-0.4V280.7z
	 M0,280.7h0.4V269H0V280.7z M11.5,280.7H12V269h-0.6L11.5,280.7z M3.6,280.7h0.6V269H3.6L3.6,280.7z M5.3,280.7h0.8V269H5.3V280.7z
	 M9.5,280.7h0.8V269H9.5V280.7z M7.2,280.7h1.3V269H7.2L7.2,280.7z M1.3,277.2h0.9v0.5H1.3V277.2z M2.2,278.8H1.3v-0.5h0.9V278.8z
	 M1.3,276.1h0.9v0.5H1.3V276.1z M1.3,275.1h0.9v0.5H1.3V275.1z M1.3,274h0.9v0.5H1.3V274z M1.3,273h0.9v0.5H1.3V273z M1.3,271.9h0.9
	v0.5H1.3V271.9z M1.3,270.8h0.9v0.5H1.3V270.8z M1.3,269.8h0.9v0.5H1.3V269.8z M1.3,279.3h0.9v0.5H1.3V279.3z M1,269v11.7h0.3v-0.3
	h0.9v0.3h0.3V269H2.2v0.3H1.3V269H1z M13.3,327.4h0.4v-11.7h-0.4V327.4z M0,327.4h0.4v-11.7H0V327.4z M11.5,327.4H12v-11.7h-0.6
	L11.5,327.4z M3.6,327.4h0.6v-11.7H3.6L3.6,327.4z M5.3,327.4h0.8v-11.7H5.3V327.4z M9.5,327.4h0.8v-11.7H9.5V327.4z M7.2,327.4h1.3
	v-11.7H7.2L7.2,327.4z M1.3,323.9h0.9v0.5H1.3V323.9z M2.2,325.5H1.3V325h0.9V325.5z M1.3,322.9h0.9v0.5H1.3V322.9z M1.3,321.8h0.9
	v0.5H1.3V321.8z M1.3,320.7h0.9v0.5H1.3V320.7z M1.3,319.7h0.9v0.5H1.3V319.7z M1.3,318.6h0.9v0.5H1.3V318.6z M1.3,317.6h0.9v0.5
	H1.3V317.6z M1.3,316.5h0.9v0.5H1.3V316.5z M1.3,326h0.9v0.5H1.3V326z M1,315.7v11.7h0.3v-0.3h0.9v0.3h0.3v-11.7H2.2v0.3H1.3v-0.3
	L1,315.7z M0,58.8h0.4V47.1H0V58.8z M1.3,55.3h0.9v0.5H1.3V55.3z M2.2,56.9H1.3v-0.5h0.9V56.9z M1.3,54.3h0.9v0.5H1.3V54.3z
	 M1.3,53.2h0.9v0.5H1.3V53.2z M1.3,52.1h0.9v0.5H1.3V52.1z M1.3,51.1h0.9v0.5H1.3V51.1z M1.3,50h0.9v0.5H1.3V50z M1.3,49h0.9v0.5
	H1.3V49z M1.3,47.9h0.9v0.5H1.3V47.9z M1.3,57.5h0.9V58H1.3V57.5z M1,47.1v11.7h0.3v-0.3h0.9v0.3h0.3V47.1H2.2v0.3H1.3v-0.3H1z
	 M13.3,105.5h0.4V93.8h-0.4V105.5z M0,105.5h0.4V93.8H0V105.5z M11.5,105.5H12V93.8h-0.6L11.5,105.5z M3.6,105.5h0.6V93.8H3.6
	L3.6,105.5z M5.3,105.5h0.8V93.8H5.3V105.5z M9.5,105.5h0.8V93.8H9.5V105.5z M7.2,105.5h1.3V93.8H7.2L7.2,105.5z M1.3,102h0.9v0.5
	H1.3V102z M2.2,103.6H1.3v-0.5h0.9V103.6z M1.3,101h0.9v0.5H1.3V101z M1.3,99.9h0.9v0.5H1.3V99.9z M1.3,98.9h0.9v0.5H1.3V98.9z
	 M1.3,97.8h0.9v0.5H1.3V97.8z M1.3,96.8h0.9v0.5H1.3V96.8z M1.3,95.7h0.9v0.5H1.3V95.7z M1.3,94.6h0.9v0.5H1.3V94.6z M1.3,104.2h0.9
	v0.5H1.3V104.2z M1,93.8v11.7h0.3v-0.3h0.9v0.3h0.3V93.8H2.2v0.3H1.3v-0.3H1z M13.3,152.2h0.4v-11.7h-0.4V152.2z M0,152.2h0.4v-11.7
	H0V152.2z M11.5,152.2H12v-11.7h-0.6L11.5,152.2z M3.6,152.2h0.6v-11.7H3.6L3.6,152.2z M5.3,152.2h0.8v-11.7H5.3V152.2z M9.5,152.2
	h0.8v-11.7H9.5V152.2z M7.2,152.2h1.3v-11.7H7.2L7.2,152.2z M1.3,148.8h0.9v0.5H1.3V148.8z M2.2,150.3H1.3v-0.5h0.9V150.3z
	 M1.3,147.7h0.9v0.5H1.3V147.7z M1.3,146.6h0.9v0.5H1.3V146.6z M1.3,145.6h0.9v0.5H1.3V145.6z M1.3,144.5h0.9v0.5H1.3V144.5z
	 M1.3,143.4h0.9v0.6H1.3V143.4z M1.3,142.4h0.9v0.5H1.3V142.4z M1.3,141.3h0.9v0.5H1.3V141.3z M1.3,150.9h0.9v0.5H1.3V150.9z
	 M1,140.5v11.7h0.3v-0.3h0.9v0.3h0.3v-11.7H2.2v0.3H1.3v-0.3H1z M13.3,198.9h0.4v-11.7h-0.4V198.9z M0,198.9h0.4v-11.7H0V198.9z
	 M11.5,198.9H12v-11.7h-0.6L11.5,198.9z M3.6,198.9h0.6v-11.7H3.6L3.6,198.9z M5.3,198.9h0.8v-11.7H5.3V198.9z M9.5,198.9h0.8v-11.7
	H9.5V198.9z M7.2,198.9h1.3v-11.7H7.2L7.2,198.9z M1.3,195.5h0.9v0.5H1.3V195.5z M2.2,197.1H1.3v-0.5h0.9V197.1z M1.3,194.4h0.9v0.5
	H1.3V194.4z M1.3,193.3h0.9v0.5H1.3V193.3z M1.3,192.3h0.9v0.5H1.3V192.3z M1.3,191.2h0.9v0.5H1.3V191.2z M1.3,190.1h0.9v0.5H1.3
	V190.1z M1.3,189.1h0.9v0.5H1.3V189.1z M1.3,188h0.9v0.5H1.3V188z M1.3,197.6h0.9v0.5H1.3V197.6z M1,187.2v11.7h0.3v-0.3h0.9v0.3
	h0.3v-11.7H2.2v0.3H1.3v-0.3H1z M13.3,245.6h0.4V234h-0.4V245.6z M0,245.6h0.4V234H0V245.6z M11.5,245.6H12V234h-0.6L11.5,245.6z
	 M3.6,245.6h0.6V234H3.6L3.6,245.6z M5.3,245.6h0.8V234H5.3V245.6z M9.5,245.6h0.8V234H9.5V245.6z M7.2,245.6h1.3V234H7.2L7.2,245.6
	z M1.3,242.2h0.9v0.5H1.3V242.2z M2.2,243.8H1.3v-0.5h0.9V243.8z M1.3,241.1h0.9v0.5H1.3V241.1z M1.3,240h0.9v0.5H1.3V240z M1.3,239
	h0.9v0.5H1.3V239z M1.3,237.9h0.9v0.5H1.3V237.9z M1.3,236.9h0.9v0.5H1.3V236.9z M1.3,235.8h0.9v0.5H1.3V235.8z M1.3,234.7h0.9v0.5
	H1.3V234.7z M1.3,244.3h0.9v0.5H1.3V244.3z M1,234v11.7h0.3v-0.3h0.9v0.3h0.3V234H2.2v0.3H1.3V234H1z M13.3,292.4h0.4v-11.7h-0.4
	V292.4z M0,292.3h0.4v-11.7H0V292.3z M11.5,292.3H12v-11.7h-0.6L11.5,292.3z M3.6,292.3h0.6v-11.7H3.6L3.6,292.3z M5.3,292.3h0.8
	v-11.7H5.3V292.3z M9.5,292.3h0.8v-11.7H9.5V292.3z M7.2,292.3h1.3v-11.7H7.2L7.2,292.3z M1.3,288.9h0.9v0.5H1.3V288.9z M2.2,290.5
	H1.3V290h0.9V290.5z M1.3,287.8h0.9v0.5H1.3V287.8z M1.3,286.8h0.9v0.5H1.3V286.8z M1.3,285.7h0.9v0.5H1.3V285.7z M1.3,284.6h0.9
	v0.5H1.3V284.6z M1.3,283.6h0.9v0.5H1.3V283.6z M1.3,282.5h0.9v0.5H1.3V282.5z M1.3,281.5h0.9v0.5H1.3V281.5z M1.3,291h0.9v0.5H1.3
	V291z M1,280.7v11.7h0.3v-0.3h0.9v0.3h0.3v-11.7H2.2v0.3H1.3v-0.3H1z M13.3,339.1h0.4v-11.7h-0.4V339.1z M0,339.1h0.4v-11.7H0V339.1
	z M11.5,339.1H12v-11.7h-0.6L11.5,339.1z M3.6,339.1h0.6v-11.7H3.6L3.6,339.1z M5.3,339.1h0.8v-11.7H5.3V339.1z M9.5,339.1h0.8
	v-11.7H9.5V339.1z M7.2,339.1h1.3v-11.7H7.2L7.2,339.1z M1.3,335.6h0.9v0.5H1.3V335.6z M2.2,337.2H1.3v-0.5h0.9V337.2z M1.3,334.5
	h0.9v0.5H1.3V334.5z M1.3,333.5h0.9v0.5H1.3V333.5z M1.3,332.4h0.9v0.6H1.3V332.4z M1.3,331.4h0.9v0.5H1.3V331.4z M1.3,330.3h0.9
	v0.5H1.3V330.3z M1.3,329.2h0.9v0.5H1.3V329.2z M1.3,328.2h0.9v0.5H1.3V328.2z M1.3,337.7h0.9v0.5H1.3V337.7z M1,327.4v11.7h0.3
	v-0.3h0.9v0.3h0.3v-11.7H2.2v0.3H1.3v-0.3H1z M1.4,363.2h0.9v0.5h-1L1.4,363.2z M1,362.4v1.4h1.6v-1.4H2.2v0.3H1.3v-0.3L1,362.4z
	 M13.2,70.4h0.4V58.8h-0.4V70.4z"/>
</svg>
