<?xml version="1.0" encoding="utf-8"?>
<!-- Generator: Adobe Illustrator 22.1.0, SVG Export Plug-In . SVG Version: 6.00 Build 0)  -->
<svg version="1.1" id="Layer_1" xmlns="http://www.w3.org/2000/svg" xmlns:xlink="http://www.w3.org/1999/xlink" x="0px" y="0px"
	 viewBox="0 0 42.7 42.4" style="enable-background:new 0 0 42.7 42.4;" xml:space="preserve">
<style type="text/css">
	.st0{fill:#FFFFFF;}
	.st1{fill:#7C6742;}
</style>
<polygon class="st0" points="0,6 5.4,6.3 6.6,4.8 8.1,3.9 9.9,4.4 11.2,5.2 12.4,5.9 12.9,6.3 16.1,6.3 17.8,4.9 19.9,3.9 21.4,3.6 
	22.7,1.4 24.2,0.7 25.8,0.4 26.8,0.5 28.2,1.3 29.2,1.8 29.6,2.4 31.2,2.8 30.9,3.7 32.5,3.3 34.4,3.1 37.1,2.8 37.9,3.8 38.8,4.8 
	39.8,5.6 39.7,7.2 39.6,8.2 39.5,9.2 39.4,10.1 39.1,10.9 39.1,11.4 39.9,11.9 40.5,13.4 41.5,14.6 42.3,16 42.4,17.3 42.1,18.4 
	41.4,19.5 40.1,20.4 39.4,21 38.3,23.1 37.7,24.8 36.4,27.4 36.4,30.2 37.4,31.4 38.3,32.8 38.4,34.1 38.1,35.7 37.6,36.4 
	36.8,37.4 36.8,42.4 23.1,42.4 23.1,19.5 0,19.2 "/>
<path class="st1" d="M26.8,30.1c1.2,0,3-0.9,4.1-4.4c0.2,1.9-1.7,7-4.3,7.8c0.2-0.1,2.6-2-0.1-1.3C27.4,31.8,29.2,30.5,26.8,30.1z
	 M10.5,16.1c0.4-0.9,1.7-2.7,2.1-0.3c0-1.3,0.9-3,4.4-4.1c-1.9-0.2-7,1.7-7.8,4.3C9.3,15.8,11.1,13.4,10.5,16.1L10.5,16.1z M0.3,8.1
	H0V7.5h3.2c0.3-0.1,0.6,0,0.8,0.3c3.6,5.1,8.4,1.9,11.1-1.5h-2.3c0.4,0.3,0.9,0.5,1.4,0.6c-0.6,0-1.1-0.1-1.6-0.4v2.1l-0.3,0.2V6.2
	l-0.8-0.7l-0.1,3.8l-0.2,0.2l0-4.3c-0.3-0.3-0.6-0.5-1-0.7l-0.1,5.3H9.9l0-5.4c-0.3-0.1-0.7-0.2-1-0.2L9.1,10H9L8.6,4.2
	C8.3,4.3,8,4.3,7.7,4.3l0.4,5.7H8L7.4,4.4C7.1,4.5,6.9,4.7,6.6,4.8L7,9.9L6.8,9.8L6.3,5.1C6,5.5,5.7,5.9,5.4,6.3l0.5,3L5.6,9.1
	L5.1,6.7C4.4,7.5,3.2,7.4,3.3,7.3S3.8,7.1,3.9,7C4,7,4.1,7,4.1,7C4.5,6.8,4.8,6.6,5,6.3H0V5.9h5.3C6,5,6.4,4,8.7,3.9
	c1.9-0.1,2.6,1.2,3.7,2h3.3C16.6,5,17.7,4.3,19,4c3.5-0.7,7.4,1.7,7.7,5.5l-0.1,0.1c-0.7-3.4-4.4-5.5-7.6-4.8
	c-2.8,0.7-4.2,3.1-6.5,4.9c-1.6,1.3-3.6,1.7-5.6,1.1c-2-0.6-2.7-2.4-3.4-2.7S2.7,8.9,2.8,9.6c-0.1,1.3,2.2,2.7,1.3,5.6
	c-0.2,0.7-0.7,1.2-1.3,1.5c-0.3,0.1,0.1,1.2,1.7,0.3c0.1-2.3,1.6-1.9,1.5-1.8c-0.7,1.3,0.4,2.3,1.2,1.7c0.3-0.3,0.5-0.6,0.8-0.9
	c0.7-1.1,1.5-2,2.4-2.9c0.4-0.3,0.8-0.5,1.3-0.8c3.1-1.8,7.4-2.6,10.4-0.7h0.3c0.5-0.2,1-0.4,1.6-0.4c0.4,0,0.7-0.2,0.9-0.6
	c0.1-0.1,0-0.4-0.2-0.4c-0.4,0.1-0.3,0.3-0.3,0.5c-0.2-0.1-0.2-0.4-0.1-0.6c0.1-0.1,0.1-0.1,0.2-0.2c0.3-0.1,0.5,0.1,0.6,0.3
	c0,0,0,0,0,0.1c0,0.5-0.3,0.9-0.7,1c-0.8,0.4-2,0.4-2.5,1.3c-0.2,0.6-0.1,1.3,0.2,1.9c1,2.6,3.1,4.7,5.7,5.7
	c0.6,0.3,1.3,0.4,1.9,0.2c0.9-0.4,0.9-1.6,1.3-2.5c0.1-0.4,0.5-0.7,1-0.7c0.3,0.1,0.5,0.3,0.4,0.6c0,0,0,0,0,0
	c-0.1,0.2-0.3,0.4-0.5,0.3c-0.1,0-0.2-0.1-0.3-0.2c0.2,0,0.4,0.1,0.5-0.3c0-0.2-0.3-0.2-0.4-0.2c-0.3,0.2-0.5,0.5-0.6,0.9
	c-0.1,0.5-0.2,1.1-0.4,1.6v0.3c1.9,3,1.1,7.3-0.7,10.4c-0.3,0.5-0.5,0.9-0.8,1.3c-0.8,0.9-1.8,1.8-2.9,2.4c-0.3,0.2-0.6,0.5-0.9,0.8
	c-0.5,0.8,0.4,2,1.7,1.2c0.2-0.1,0.5,1.4-1.8,1.5c-0.9,1.6,0.1,2,0.3,1.7c0.3-0.6,0.9-1.1,1.5-1.3c2.9-0.9,4.4,1.4,5.7,1.3
	c0.6,0.1,1.7-0.2,1.4-0.8s-2.1-1.4-2.7-3.4c-0.5-1.9-0.1-4,1.2-5.5c1.8-2.3,4.2-3.7,4.9-6.5c0.7-3.2-1.4-6.9-4.8-7.6l0.1-0.1
	c3.8,0.3,6.2,4.2,5.5,7.7c-0.4,1.2-1,2.4-1.9,3.3v3.3c0.8,1.1,2.1,1.8,2,3.7c0.1,1.4-0.7,2.7-2,3.4v5h-0.4v-4.7
	c-0.3,0.2-0.5,0.5-0.7,0.9c0,0.1-0.1,0.1-0.1,0.2c0,0.2-0.1,0.4-0.2,0.6c-0.2,0.1-0.2-1.1,0.6-1.8l-2.4-0.5l-0.2-0.3l3,0.5
	c0.4-0.3,0.8-0.6,1.2-0.9l-4.7-0.5l-0.1-0.2l5.1,0.3c0.2-0.2,0.3-0.5,0.4-0.7l-5.6-0.6v-0.2l5.7,0.5c0.1-0.3,0.1-0.6,0.1-0.8
	l-5.8-0.4v-0.1l5.8,0.2c0-0.3-0.1-0.7-0.2-1l-5.5-0.1v-0.2l5.3-0.1c-0.2-0.4-0.4-0.7-0.7-1l-4.3,0.1l0.2-0.2l3.8-0.1l-0.7-0.8h-2.5
	l0.2-0.3h2.1c-0.3-0.5-0.5-1.1-0.4-1.6c0.1,0.5,0.3,1,0.6,1.4v-2.3c-3.4,2.8-6.6,7.5-1.5,11.2c0.2,0.2,0.3,0.5,0.3,0.8v3h-0.5v-2.5
	c-0.3,0.3-0.7,0.4-1.1,0.3v2.2h-0.8v-2.3c-0.4-0.1-0.7-0.3-1.1-0.5v2.7h-1.3V39c-0.3-0.2-0.7-0.3-1.1-0.3v3.7h-0.8v-3.7
	c-0.4,0-0.7,0.2-1.1,0.3v3.4h-0.5v-3.1c-0.3,0.2-0.7,1-1.1,1v2.1h-0.4v-0.2h-0.9v0.2h-0.4v-5.8c-0.2-0.5-0.2-1,0-1.5v-2.8
	c-0.3-0.4-0.3-0.9,0-1.3v-0.8c-0.2-0.2-0.4-0.4-0.6-0.6v12.8h-0.4V28.8c-0.3-0.6-0.3-1.3,0-1.8v-7.4h-7.4c-0.6,0.3-1.2,0.3-1.8,0
	H0.3v-0.4h12.8c-0.2-0.2-0.4-0.4-0.6-0.6h-0.8c-0.4,0.3-0.9,0.3-1.3,0H7.5c-0.5,0.2-1,0.2-1.5,0H0.3v-0.4h0.2v-0.9H0.3V17h2.1
	c-0.1-0.3,0.7-0.8,1-1.1H0.3v-0.6h3.4C3.9,15,4,14.6,4,14.3H0.3v-0.8H4c-0.1-0.4-0.2-0.7-0.3-1.1H0.3v-1.3H3
	c-0.2-0.3-0.4-0.7-0.5-1.1H0.3V9.2h2.2C2.4,8.8,2.5,8.3,2.8,8L0.3,8.1z M1.5,17.3H1v0.9h0.5L1.5,17.3z M2.5,18.2v-0.8l-0.1-0.1H2.1
	v0.9H2.5z M5.4,18.2L5.1,18v0.2L5.4,18.2z M8.7,17.8c-0.2,0.2-0.3,0.4-0.5,0.5h0.5V17.8z M9.7,18c-0.1-0.2-0.2-0.4-0.3-0.7H9.2v0.9
	h0.5L9.7,18z M9.4,17v-0.2L9.2,17H9.4z M11.8,17.4h-0.6c0,0.3,0.2,0.7,0.4,0.9h0.2L11.8,17.4z M11.8,17c0-0.3,0-0.5,0-0.8
	c-0.3,0.1-0.5,0.4-0.6,0.8H11.8z M25.4,41.1h-0.9v0.5h0.9V41.1z M25.2,40.1h-0.8v0.5h0.9v-0.4L25.2,40.1z M24.9,39.1h-0.5v0.5H25
	C25,39.4,25,39.3,24.9,39.1L24.9,39.1z M25.3,38.1h-0.9v0.5h0.6L25.3,38.1z M24.7,37.6c-0.1-0.1-0.1-0.1-0.3-0.3v0.3H24.7z
	 M29.2,26.9c0.5-0.7,0.8-1.5,1.1-2.4V21c-0.3,0.2-0.7,0.4-1.1,0.3V26.9z M27.3,29c0.5-0.2,0.8-0.5,1.1-0.9v-7l-1.1-0.5V29z
	 M25.7,25.6c0.6,0.2,0.5,0.8,0,1v2.2c0.3,0.3,0.7,0.4,1.1,0.3v-8.7l-1.1-0.6V25.6z M24.4,19.2H25l-0.5-0.5L24.4,19.2z M24.4,20.2
	h0.9v-0.5h-0.9V20.2z M24.4,21.2h0.9v-0.5h-0.9V21.2z M24.4,22.2h0.9v-0.5h-0.9V22.2z M24.4,23.2h0.9v-0.5h-0.9V23.2z M24.4,24.2
	h0.9v-0.5h-0.9V24.2z M24.4,25.2h0.9v-0.4h-0.9V25.2z M23.6,29.1c1.1,1.4,1.6,1.5,3.4,1.6c0,0-0.6,1.7-2.1,1
	c-0.2-0.1-0.4-0.3-0.5-0.4c-0.3-0.1-0.2,0.6-0.1,0.8c0.5,0.7,1.4,1,2.2,0.9c-1.6,0.8-2.1,1.4-2.3,2.6c-0.2,1,0.8,2.7,2.4,2
	c0.4-0.2,0.7-0.5,0.5-0.6s-1.4,0.6-2.1-0.5C24.9,36,25,35.4,25.5,35c2.4-1.6,2.9-1.6,4.4-4c1.5-2.6,2-5.7,1.3-8.7
	c-0.1,2.6-1.2,5-3,6.9c0,0-1.2,1.2-3-0.1c-0.6-0.5-0.7-1.4-0.1-2c0-0.1,0.1-0.1,0.1-0.1c0.1-0.1,0.6-0.4,0.6-0.7
	c0-0.5-1-0.2-1.2-0.1c-1.1,0.6-1.5,1.9-0.9,3L23.6,29.1z M25.4,27.2v-0.5c-0.1,0.1-0.2,0.3-0.3,0.5H25.4z M25.1,27.7
	c0,0.4,0,0.5,0.3,0.7v-0.7H25.1z M24.4,34v0.5c0.1-0.2,0.3-0.4,0.5-0.5H24.4z M25.4,33.5v-0.2c-0.2-0.1-0.5-0.2-0.7-0.3h-0.2v0.5
	L25.4,33.5z M25.9,33.4h-0.2v0.2L25.9,33.4z M25.4,31.6v-0.6h-0.9v0.2C24.7,31.4,25,31.5,25.4,31.6L25.4,31.6z M26.5,31
	c-0.3,0-0.5,0-0.8,0v0.6C26.1,31.6,26.3,31.3,26.5,31z M24.1,18.6h-7.3c-0.1,0.2-0.3,0.4-0.5,0.6h7.2v7.2c0.2-0.2,0.4-0.3,0.6-0.5
	L24.1,18.6z M17.9,18.2v-0.9h-0.5v0.9L17.9,18.2z M18.4,18.2h0.5v-0.9h-0.5V18.2z M19.9,18.2v-0.9h-0.5v0.9H19.9z M20.9,18.2v-0.9
	h-0.5v0.9L20.9,18.2z M21.9,18.2v-0.9h-0.5v0.9H21.9z M23.4,18.2h0.5l-0.5-0.5V18.2z M23,17.3h-0.5v0.9H23V17.3z M13.6,15.9
	c-0.1,0.4,0,0.8,0.3,1.1H16c0.2-0.5,0.8-0.6,1,0h5.9l-0.7-1.1H13.6z M15.3,17.3v0.3c0.2,0,0.4-0.1,0.5-0.3H15.3z M14.2,17.3
	c0.2,0.2,0.3,0.2,0.7,0.3v-0.3H14.2z M21.6,14.3h-7c-0.4,0.3-0.7,0.6-0.9,1.1H22L21.6,14.3z M21.7,12.4h-3.5
	c-0.8,0.3-1.6,0.6-2.4,1.1h5.5C21.3,13,21.4,12.7,21.7,12.4z M6.9,18.4c1.2-0.3,1.8-0.7,2.6-2.3c-0.2,0.9,0.2,1.7,0.9,2.2
	c0.2,0.2,0.9,0.3,0.8-0.1c-0.1-0.2-0.2-0.3-0.4-0.5c-0.8-1.5,1-2.1,1-2.1c0.1,1.8,0.2,2.3,1.6,3.4c1.1,0.6,2.5,0.2,3.1-0.9
	c0.1-0.2,0.5-1.3-0.1-1.2c-0.3,0-0.5,0.5-0.6,0.6c-0.5,0.6-1.4,0.7-2,0.2c-0.1,0-0.1-0.1-0.2-0.2c-1.4-1.8-0.1-3-0.1-3
	c1.8-1.8,4.3-2.9,6.8-3c-3-0.7-6.1-0.2-8.7,1.3c-2.5,1.5-2.4,2-4,4.4c-0.4,0.5-1.2,0.7-1.8,0.4c-1.1-0.6-0.3-2-0.4-2.1
	S5.2,15.6,5,16C4.2,17.6,6,18.6,6.9,18.4L6.9,18.4z M4.1,18.2h0.5v-0.9l-0.5,0.2L4.1,18.2z M3.1,18.2h0.5v-0.5c-0.2,0-0.3,0-0.5,0
	V18.2z M39,21.7c0,0.2,0,0.4,0,0.6c0.1,0,0.2-0.3,0.2-0.5c0-0.1,0.1-0.2,0.1-0.4c1.1-1.7,3-1.1,3.3-4.3c0.3-2.6-2.2-3.2-2.5-5.2
	c-0.1-0.2-0.2-0.4-0.3-0.5c-0.1,0.1-0.1,0.2,0,0.4c0.1,0.4,0.2,0.8,0.4,1.2l-0.9,0.1l-0.1,0.3l1.2-0.1l0.7,0.9l-2.4,0.2v0.2l2.7-0.1
	c0.3,0.3,0.5,0.6,0.6,1h-3.9v0.2l4.1,0.2c0.1,0.3,0.1,0.7,0.1,1l-7-0.6l7,0.9c0,0.3-0.1,0.6-0.2,0.8L37,17.5l0.1,0.1l5,0.8
	c-0.1,0.3-0.2,0.5-0.4,0.7L38,18.7l0.1,0.2l3.3,0.5c-0.4,0.3-0.8,0.6-1.2,0.9l-1.6-0.4l0.1,0.3l1.1,0.3c-0.2,0.2-0.4,0.5-0.6,0.7
	C39.1,21.5,39,21.6,39,21.7z M29.2,13.2l0.3,0.3c1.2-1.1,2.3-2.3,3.3-3.5C31.4,11,30.2,12,29.2,13.2z M29,14.1
	c1.7,1.6,2.1,3.8,0.9,4.9s-3.5,0.7-5.2-0.9l-0.1-0.1l-0.1-0.1c-1.6-1.7-2-4-0.9-5.1s3.3-0.8,4.9,0.9l0.2,0.2
	C28.9,13.9,28.9,14,29,14.1L29,14.1z M28.9,14.2L28.7,14l-0.2-0.2c-1.3-1.4-3.3-1.7-4.3-0.6s-0.8,3.1,0.6,4.5l0.1,0.1
	c0,0,0.1,0.1,0.1,0.1c1.4,1.3,3.5,1.6,4.5,0.6S30.3,15.5,28.9,14.2z M30.7,3.2c-0.2,0.2-0.4,0.5-0.5,0.8c-0.4-0.7-0.8-0.5-1-0.3
	C29,4,28.9,4.3,28.8,4.5c-0.4-0.5-0.8-0.3-0.9-0.1c-0.1,0.2-0.2,0.5-0.2,0.8c-0.4-0.4-0.7-0.2-0.8,0c-0.1,0.3-0.2,0.6-0.1,0.9
	c0,0.4,0.1,0.9,0.1,1.3c0.2,1.5,0.4,3,0.5,4.5l0,0l0.1,0.1c0-1.5-0.1-2.9-0.3-4.4C27,6.9,27,6.2,27.1,5.5c0.1-0.2,0.2-0.3,0.5,0.1
	c0,0.4,0,1,0,1.4c0,0.8,0.1,3.6-0.1,5.2l0.2,0.1l0,0c0.2-1.7,0.3-3.3,0.3-5c-0.1-0.8,0-1.6,0.2-2.4c0.1-0.2,0.3-0.3,0.5,0.2
	c-0.1,0.5-0.1,1.1-0.2,1.5c-0.1,1.9-0.4,3.9-0.8,5.8l0.2,0.1c0.5-1.8,0.9-3.6,1-5.5c0-0.9,0.2-1.8,0.5-2.7c0.1-0.2,0.3-0.3,0.6,0.2
	c-0.2,0.5-0.3,1.2-0.4,1.6c-0.4,2.1-0.9,4.2-1.6,6.3l0.2,0.1c0.7-1.9,1.3-3.9,1.7-5.9c0.1-1,0.4-2,0.9-2.9c0.2-0.2,0.4-0.3,0.6,0.3
	c-0.2,0.6-0.5,1.3-0.6,1.8c-0.7,2.3-1.6,4.6-2.6,6.8c0.1,0,0.1,0.1,0.2,0.1c1.1-2,2-4.1,2.7-6.3c0.3-1.1,0.7-2.1,1.3-3
	c0.2-0.2,0.4-0.2,0.6,0.4c-0.3,0.6-0.7,1.4-0.9,1.9c-1.1,2.5-2.3,4.9-3.7,7.2l0.2,0.2c1.5-2.1,2.7-4.3,3.8-6.6c0.5-1,1-2.5,1.9-3.2
	c0.2-0.2,0.5-0.2,0.6,0.4c-0.5,0.6-0.9,1.3-1.2,2c-0.8,1.2-3.2,5.7-5,7.5l0.2,0.2c1.9-2,3.6-4.3,5.1-6.7c0.7-1,1.4-2.7,2.5-3.3
	c0.4-0.2,0.8,0,0.8,1.3c0.3,0,0.5,0,0.8,0.1c0.1,0.3,0.1,0.5,0.1,0.8c1.3,0,1.5,0.4,1.3,0.8c-0.6,1.1-2.2,1.8-3.3,2.5
	c-2.4,1.4-4.7,3.1-6.7,5l0.2,0.2c1.8-1.7,6.3-4.2,7.5-5c0.7-0.4,1.4-0.8,2-1.2c0.5,0.2,0.5,0.4,0.3,0.6c-0.7,0.9-2.2,1.4-3.2,1.9
	c-2.3,1.1-4.5,2.3-6.6,3.8l0.2,0.2c2.3-1.4,4.7-2.6,7.2-3.7c0.5-0.2,1.3-0.5,1.9-0.9c0.6,0.2,0.6,0.4,0.3,0.6
	c-0.9,0.6-1.9,1.1-3,1.4c-2.2,0.7-4.3,1.6-6.3,2.7l0.1,0.2c2.2-1,4.4-1.9,6.8-2.6c0.5-0.2,1.2-0.4,1.8-0.6c0.6,0.2,0.6,0.4,0.3,0.6
	c-0.9,0.5-1.9,0.8-2.9,0.9c-2,0.4-4,1-5.9,1.8l0.1,0.2c2.1-0.7,4.2-1.2,6.3-1.6c0.4-0.1,1.1-0.2,1.6-0.4c0.5,0.3,0.5,0.5,0.2,0.6
	c-0.8,0.3-1.8,0.5-2.7,0.5c-1.8,0.2-3.7,0.5-5.5,0.9l0.1,0.1c1.9-0.4,3.8-0.6,5.8-0.8c0.4-0.1,1-0.1,1.5-0.2
	c0.4,0.3,0.4,0.5,0.2,0.6c-0.8,0.2-1.6,0.3-2.4,0.2c-1.7-0.1-3.3,0-5,0.3l0,0c0,0.1,0.1,0.1,0.1,0.2c1.7-0.1,3.4-0.1,5.1-0.1
	c0.4,0,0.9,0,1.4,0c0.4,0.3,0.3,0.5,0.1,0.5c-0.7,0.1-1.5,0.1-2.2-0.1c-1.4-0.2-2.9-0.3-4.4-0.3l0.1,0.1l0,0c1.4,0,3.8,0.4,4.5,0.5
	c0.4,0.1,0.9,0.1,1.3,0.1c0.3,0,0.6,0,0.9-0.1c0.2-0.1,0.4-0.4,0-0.8c0.3,0,0.5-0.1,0.8-0.2c0.2-0.1,0.4-0.5-0.1-0.9
	c0.3-0.1,0.6-0.2,0.8-0.4c0.2-0.2,0.4-0.6-0.3-1c0.3-0.1,0.6-0.3,0.8-0.5c0.2-0.2,0.3-0.7-0.4-1c0.3-0.2,0.6-0.4,0.9-0.7
	c0.2-0.2,0.3-0.8-0.5-1c0.3-0.2,0.6-0.5,0.8-0.9c0.2-0.3,0.1-0.9-0.7-1.1c0.3-0.3,0.6-0.7,0.7-1.1c0.1-0.4-0.1-1.3-1.6-1.3
	c0-0.3,0-0.5-0.1-0.8c-0.2-0.1-0.5-0.1-0.8-0.2c-0.1-1.5-0.9-1.8-1.3-1.6c-0.4,0.2-0.8,0.4-1.1,0.8c-0.3-0.8-0.8-0.8-1.1-0.6
	c-0.4,0.2-0.7,0.5-0.9,0.8c-0.3-0.8-0.8-0.7-1-0.5c-0.3,0.2-0.5,0.5-0.7,0.9C31.4,2.8,30.9,2.9,30.7,3.2L30.7,3.2z M37.2,5.5
	l-0.1-0.5l-3.8,4.4l4.4-3.8L37.2,5.5z M24.2,6.8c0.1,0.3,0.1,0.7,0,1c-0.1-0.4-0.3-0.8-0.7-1c0.7,1.5,0.5,3.2-0.6,4.4
	C24.6,9.4,25.6,8.7,24.2,6.8z M21,3.7c0.1,0,0.3,0,0.4-0.1C21.6,3.4,21.9,3.2,22,3l0.3,1.1l0.3,0.1l-0.4-1.6
	c0.3-0.4,0.5-0.9,0.9-1.3l0.5,3.3l0.2,0.1l-0.4-3.7c0.2-0.2,0.5-0.3,0.7-0.4l0.8,5l0.1,0.1l-0.6-5.2c0.3-0.1,0.5-0.1,0.8-0.2l0.9,7
	l-0.6-7c0.3,0,0.7,0,1,0.1l0.2,4h0.2V0.6c0.4,0.2,0.7,0.4,1,0.6L28,3.9h0.2l0.2-2.4l0.9,0.7l-0.1,1.2l0.3-0.1l0.1-0.9
	c0.4,0.2,0.8,0.3,1.2,0.4c0.2,0,0.3,0.1,0.4,0c-0.2-0.1-0.3-0.2-0.5-0.3C28.6,2.2,28-0.2,25.5,0c-3.2,0.3-2.6,2.2-4.3,3.3
	c-0.1,0.1-0.2,0.1-0.4,0.1c-0.2,0-0.5,0.1-0.5,0.2L21,3.7z M23,11.1c0,0-0.1,0.1-0.1,0.1L23,11.1z M37,24.5c0-0.5,0.1-2.4-5-1.5
	l0.2,0.2c2.5-0.1,3.8,0.8,4.4,1.9c0-0.4-0.2-0.8-0.5-1.1C36.6,24,36.9,24.2,37,24.5z M35.9,18.5c-2-1.4-2.6-0.4-4.4,1.3
	c1.2-1.1,2.9-1.3,4.4-0.6c-0.2-0.3-0.6-0.6-1-0.7C35.3,18.3,35.6,18.3,35.9,18.5z M37.7,21.6c-0.2-0.5-1.4-2.6-6-0.2
	c0.1,0,0.2,0,0.2,0c2.7-0.6,4.8-0.2,5.6,0.7c-0.1-0.4-0.4-0.7-0.8-0.9C37.1,21.2,37.4,21.4,37.7,21.6z M32.2,31.1
	c0.1-1.2-1.4-1.1-1.4-1.1c0.5,0.2,0.9,0.7,1,1.3c0.1-0.3,0-0.6-0.2-0.8C31.8,30.5,32.2,31,32.2,31.1z M33.6,28.9
	c0.3-1.3-1.6-1.5-1.6-1.5l-0.2,0.1c0.7,0.3,1.2,1.1,1.2,1.9c0.1-0.4,0.1-0.9-0.2-1.2C33,28.2,33.6,28.8,33.6,28.9z M31.6,19.7
	l-0.1,0.1L31.6,19.7z M19.5,10.4l0.2,0.2c0.9-5.1-1-5-1.5-5c0.3,0.2,0.5,0.5,0.6,0.8C18.4,6.2,18,6,17.6,6
	C18.6,6.6,19.5,7.9,19.5,10.4z M21.2,11c2.4-4.6,0.3-5.9-0.2-6c0.3,0.3,0.4,0.6,0.3,1c-0.2-0.4-0.5-0.7-0.9-0.8
	c0.9,0.8,1.3,2.9,0.7,5.6C21.2,10.9,21.2,10.9,21.2,11z M17.5,10.5c0.5-3.7-1.1-3.3-1.6-3.3c0.1,0,0.6,0.5,0.6,0.8
	c-0.3-0.3-0.7-0.4-1.1-0.4c1.2,0.5,2.3,1.3,2,2.7L17.5,10.5z M13.2,9.6c0.8,0,1.6,0.5,1.9,1.3l0.1-0.1c0,0-0.2-1.9-1.5-1.7
	c0.1,0,0.7,0.5,0.7,0.8C14.1,9.6,13.7,9.5,13.2,9.6z M11.3,10.8c0.6,0.1,1.1,0.5,1.3,1c0,0,0.1-1.5-1.1-1.4c0.1,0,0.6,0.4,0.6,0.6
	C11.9,10.8,11.6,10.7,11.3,10.8z M35.4,26.8c0-0.5,0.4-2.1-3.3-1.6l0.2,0.1c1.4-0.2,2.3,0.9,2.7,2c0-0.4-0.1-0.8-0.4-1.1
	C35,26.3,35.3,26.5,35.4,26.8L35.4,26.8z"/>
</svg>
