<?xml version="1.0" encoding="utf-8"?>
<!-- Generator: Adobe Illustrator 22.1.0, SVG Export Plug-In . SVG Version: 6.00 Build 0)  -->
<svg version="1.1" id="Layer_1" xmlns="http://www.w3.org/2000/svg" xmlns:xlink="http://www.w3.org/1999/xlink" x="0px" y="0px"
	 viewBox="0 0 213.3 13.6" style="enable-background:new 0 0 213.3 13.6;" xml:space="preserve">
<style type="text/css">
	.st0{fill:#FFFFFF;}
	.st1{fill:#7C6742;}
</style>
<rect class="st0" width="213.3" height="13.6"/>
<path class="st1" d="M0,13.2h213.3v0.4H0V13.2z M0,1.6h213.1v0.6H0V1.6z M0,9.4h213.3V10H0V9.4z M0,7.5h213.3v0.8H0V7.5z M0,3.3
	h213.3v0.8H0V3.3z M0,5.2h213.3v1.3H0V5.2z M2.9,12.3h0.5v-0.9H2.9L2.9,12.3z M2.3,11.4H1.8v0.9h0.5L2.3,11.4z M3.9,12.3h0.5v-0.9
	H3.9L3.9,12.3z M4.9,12.3h0.6v-0.9H5L4.9,12.3z M5.9,12.3h0.5v-0.9H6L5.9,12.3z M7,12.3h0.5v-0.9H7.1L7,12.3z M8,12.3h0.5v-0.9H8.1
	L8,12.3z M9,12.3h0.5v-0.9H9.2L9,12.3z M10,12.3h0.5v-0.9H10V12.3z M0.6,12.3h0.5v-0.9H0.8L0.6,12.3z M11.3,12.7H0v-0.4h0.3v-0.9H0
	v-0.4h11.5v0.4h-0.3v0.9h0.3L11.3,12.7z M14.2,12.3h0.5v-0.9h-0.3L14.2,12.3z M13.7,11.4h-0.5v0.9h0.5V11.4z M15.2,12.3H16v-0.9
	h-0.5L15.2,12.3z M16.2,12.3H17v-0.9h-0.5L16.2,12.3z M17.3,12.3h0.5v-0.9h-0.5V12.3z M18.3,12.3h0.5v-0.9h-0.5V12.3z M19.4,12.3
	h0.5v-0.9h-0.5V12.3z M20.4,12.3h0.5v-0.9h-0.5V12.3z M21.4,12.3H22v-0.9h-0.5V12.3z M12,12.3h0.5v-0.9h-0.2L12,12.3z M23,12.7H11.5
	v-0.4h0.3v-0.9h-0.3v-0.4H23v0.4h-0.3v0.9H23V12.7z M25.9,12.3h0.5v-0.9h-0.5V12.3z M25.4,11.4h-0.5v0.9h0.5V11.4z M26.9,12.3h0.5
	v-0.9H27L26.9,12.3z M28,12.3h0.5v-0.9H28L28,12.3z M29,12.3h0.5v-0.9H29V12.3z M30,12.3h0.5v-0.9H30V12.3z M31.1,12.3h0.5v-0.9
	h-0.5V12.3z M32.1,12.3h0.5v-0.9h-0.5V12.3z M33.1,12.3h0.5v-0.9h-0.5V12.3z M23.7,12.3h0.5v-0.9h-0.5V12.3z M34.4,12.7H23v-0.4h0.3
	v-0.9H23v-0.4h11.6v0.4h-0.3v0.9h0.3L34.4,12.7z M37.3,12.3H38v-0.9h-0.5L37.3,12.3z M36.8,11.4h-0.5v0.9h0.5V11.4z M38.4,12.3H39
	v-0.9h-0.5L38.4,12.3z M39.4,12.3h0.5v-0.9h-0.5V12.3z M40.4,12.3h0.5v-0.9h-0.5V12.3z M41.4,12.3h0.5v-0.9h-0.5V12.3z M42.4,12.3
	h0.5v-0.9h-0.5V12.3z M43.4,12.3h0.5v-0.9h-0.5V12.3z M44.5,12.3H45v-0.9h-0.5V12.3z M35,12.3h0.5v-0.9H35V12.3z M45.8,12.7H34.6
	v-0.4h0.3v-0.9h-0.3v-0.4h11.5v0.4h-0.3v0.9h0.3L45.8,12.7z M49,12.3h0.5v-0.9H49V12.3z M48.5,11.4H48v0.9h0.5V11.4z M50,12.3h0.5
	v-0.9H50L50,12.3z M51.1,12.3h0.5v-0.9h-0.5V12.3z M52.1,12.3h0.5v-0.9h-0.5V12.3z M53.1,12.3h0.5v-0.9h-0.5V12.3z M54.1,12.3h0.5
	v-0.9h-0.5L54.1,12.3z M55.1,12.3h0.5v-0.9h-0.5V12.3z M56.1,12.3h0.5v-0.9h-0.4L56.1,12.3z M46.7,12.3h0.5v-0.9h-0.5V12.3z
	 M57.5,12.7H46.1v-0.4h0.2v-0.9h-0.2v-0.4h11.5v0.4h-0.3v0.9h0.3L57.5,12.7z M60.3,12.3H61v-0.9h-0.5L60.3,12.3z M60,11.4h-0.5v0.9
	H60V11.4z M61.6,12.3h0.5v-0.9h-0.5V12.3z M62.6,12.3h0.5v-0.9h-0.5V12.3z M63.6,12.3h0.5v-0.9h-0.5V12.3z M64.7,12.3h0.5v-0.9h-0.5
	V12.3z M65.7,12.3h0.5v-0.9h-0.5V12.3z M66.7,12.3h0.5v-0.9h-0.5V12.3z M67.7,12.3h0.5v-0.9h-0.5V12.3z M58.2,12.3h0.5v-0.9h-0.5
	V12.3z M69,12.7H57.6v-0.4h0.3v-0.9h-0.3v-0.4h11.5v0.4h-0.3v0.9h0.3L69,12.7z M72,12.3h0.5v-0.9H72V12.3z M71.5,11.4H71v0.9h0.5
	L71.5,11.4z M73.1,12.3h0.5v-0.9h-0.5V12.3z M74.1,12.3h0.5v-0.9h-0.5L74.1,12.3z M75.1,12.3h0.5v-0.9h-0.5V12.3z M76.1,12.3h0.5
	v-0.9h-0.4L76.1,12.3z M77.1,12.3h0.5v-0.9h-0.5V12.3z M78.1,12.3h0.5v-0.9h-0.5V12.3z M79.1,12.3h0.5v-0.9h-0.5V12.3z M69.7,12.3
	h0.5v-0.9h-0.5V12.3z M80.4,12.7H69.1v-0.4h0.3v-0.9h-0.3v-0.4h11.5v0.4h-0.3v0.9h0.3L80.4,12.7z M83.3,12.3h0.5v-0.9h-0.5V12.3z
	 M83,11.4h-0.5v0.9H83V11.4z M84.6,12.3h0.5v-0.9h-0.5V12.3z M85.6,12.3h0.5v-0.9h-0.5V12.3z M86.6,12.3h0.5v-0.9h-0.5V12.3z
	 M87.6,12.3h0.5v-0.9h-0.5V12.3z M88.6,12.3h0.5v-0.9h-0.5V12.3z M89.6,12.3h0.5v-0.9h-0.5V12.3z M90.6,12.3h0.5v-0.9h-0.5V12.3z
	 M81.2,12.3H82v-0.9h-0.5L81.2,12.3z M91.9,12.7H80.7v-0.4h0.3v-0.9h-0.3v-0.4h11.5v0.4h-0.3v0.9h0.3L91.9,12.7z M94.8,12.3h0.5
	v-0.9h-0.5V12.3z M94.2,11.4H94v0.9h0.5L94.2,11.4z M95.8,12.3h0.5v-0.9h-0.2L95.8,12.3z M96.8,12.3h0.5v-0.9h-0.5V12.3z M97.8,12.3
	h0.5v-0.9h-0.5V12.3z M98.8,12.3h0.5v-0.9h-0.5V12.3z M99.9,12.3h0.5v-0.9h-0.5V12.3z M100.9,12.3h0.5v-0.9h-0.5V12.3z M101.9,12.3
	h0.5v-0.9h-0.5V12.3z M92.4,12.3H93v-0.9h0L92.4,12.3z M103.2,12.7h-11v-0.4h0.3v-0.9h-0.3v-0.4h11.5v0.4h-0.3v0.9h0.3L103.2,12.7z
	 M106.1,12.3h0.5v-0.9h-0.5V12.3z M105.5,11.4H105v0.9h0.5V11.4z M107.1,12.3h0.5v-0.9h-0.5V12.3z M108.1,12.3h0.5v-0.9h-0.5V12.3z
	 M109.1,12.3h0.5v-0.9h-0.5V12.3z M110.2,12.3h0.5v-0.9h-0.5V12.3z M111.2,12.3h0.5v-0.9h-0.5V12.3z M112.2,12.3h0.5v-0.9h-0.5V12.3
	z M113.2,12.3h0.5v-0.9h-0.5V12.3z M103.7,12.3h1.3v-0.9h-0.5L103.7,12.3z M114.5,12.7h-10.8v-0.4h0.3v-0.9h-0.3v-0.4h11.5v0.4H115
	v0.9h0.3L114.5,12.7z M117.4,12.3h0.5v-0.9h-0.5V12.3z M116.8,11.4h-0.5v0.9h0.5V11.4z M118.4,12.3h0.5v-0.9h-0.5V12.3z M119.4,12.3
	h0.5v-0.9h-0.5V12.3z M120.4,12.3h0.5v-0.9h-0.5V12.3z M121.4,12.3h0.5v-0.9h-0.5V12.3z M122.4,12.3h0.5v-0.9h-0.5V12.3z
	 M123.4,12.3h0.5v-0.9h-0.5V12.3z M124.5,12.3h1.5v-0.9h-0.5L124.5,12.3z M115,12.3h0.5v-0.9h0.5L115,12.3z M125.8,12.7h-10.5v-0.4
	h0.2v-0.9h-0.2v-0.4h11.5v0.4h-0.3v0.9h0.3L125.8,12.7z M128.6,12.3h0.5v-0.9h-0.5V12.3z M128.1,11.4h-0.5v0.9h0.5V11.4z
	 M129.7,12.3h0.5v-0.9h-0.5V12.3z M130.7,12.3h0.5v-0.9h-0.5V12.3z M131.7,12.3h0.5v-0.9h-0.5V12.3z M132.8,12.3h0.5v-0.9h-0.5V12.3
	z M133.8,12.3h0.5v-0.9h-0.5V12.3z M134.8,12.3h0.5v-0.9h-0.5V12.3z M135.8,12.3h0.5v-0.9h0.6L135.8,12.3z M126.4,12.3h1.6v-0.9
	h-0.5L126.4,12.3z M137.1,12.7h-10.4v-0.4h0.3v-0.9h-0.3v-0.4h11.5v0.4H138v0.9h0.3L137.1,12.7z M140,12.3h0.5v-0.9H140V12.3z
	 M139.5,11.4H139v0.9h0.5V11.4z M141.1,12.3h0.5v-0.9h-0.5V12.3z M142.1,12.3h0.5v-0.9h-0.5V12.3z M143.1,12.3h0.5v-0.9h-0.5V12.3z
	 M144.2,12.3h0.5v-0.9h-0.5V12.3z M145.2,12.3h0.5v-0.9h-0.5V12.3z M146.2,12.3h1.8v-0.9h-0.5L146.2,12.3z M147.2,12.3h1.8v-0.9
	h-0.5L147.2,12.3z M137.8,12.3h0.5v-0.9h0.7L137.8,12.3z M148.5,12.7h-10.3v-0.4h0.3v-0.9h-0.3v-0.4h11.5v0.4h-0.3v0.9h0.3
	L148.5,12.7z M151.4,12.3h0.5v-0.9h-0.5V12.3z M150.9,11.4h-0.5v0.9h0.5V11.4z M152.5,12.3h0.5v-0.9h-0.5V12.3z M153.5,12.3h0.5
	v-0.9h-0.5V12.3z M154.5,12.3h0.5v-0.9h-0.5V12.3z M155.5,12.3h0.5v-0.9h-0.5V12.3z M156.6,12.3h0.5v-0.9h-0.5V12.3z M157.6,12.3
	h0.5v-0.9h-0.5V12.3z M158.6,12.3h0.5v-0.9h0.9L158.6,12.3z M149.2,12.3h0.5v-0.9h-0.5V12.3z M159.9,12.7h-10.1v-0.4h0.2v-0.9h-0.3
	v-0.4h11.6v0.4H161v0.9h0.3L159.9,12.7z M162.8,12.3h0.5v-0.9h-0.5V12.3z M162.3,11.4h-0.5v0.9h0.5V11.4z M163.8,12.3h0.5v-0.9h-0.5
	V12.3z M164.8,12.3h0.5v-0.9h-0.5V12.3z M165.8,12.3h0.5v-0.9h-0.5V12.3z M166.9,12.3h0.5v-0.9h-0.5V12.3z M167.9,12.3h0.5v-0.9
	h-0.5V12.3z M168.9,12.3h2.1v-0.9h-0.5L168.9,12.3z M169.9,12.3h2.1v-0.9h-0.5L169.9,12.3z M160.5,12.3h0.5v-0.9h-0.5V12.3z
	 M171.3,12.7h-10v-0.4h0.3v-0.9h-0.3v-0.4h11.5v0.4h-0.3v0.9h0.3L171.3,12.7z M174.1,12.3h0.5v-0.9h-0.5V12.3z M173.6,11.4h-0.5v0.9
	h0.5V11.4z M175.2,12.3h0.5v-0.9h-0.5V12.3z M176.2,12.3h0.5v-0.9h-0.5V12.3z M177.2,12.3h0.5v-0.9h-0.5V12.3z M178.2,12.3h0.5v-0.9
	h-0.5V12.3z M179.3,12.3h0.5v-0.9h-0.5V12.3z M180.3,12.3h0.5v-0.9h1.1L180.3,12.3z M181.3,12.3h0.5v-0.9h1.1L181.3,12.3z
	 M171.9,12.3h0.5v-0.9h-0.5V12.3z M185.5,12.3h0.5v-0.9h-0.5V12.3z M185,11.4h-0.5v0.9h0.5V11.4z M186.6,12.3h0.5v-0.9h-0.5V12.3z
	 M187.6,12.3h0.5v-0.9h-0.5V12.3z M188.6,12.3h0.5v-0.9h-0.5V12.3z M189.6,12.3h0.5v-0.9h-0.5V12.3z M190.7,12.3h2.3v-0.9h-0.5
	L190.7,12.3z M191.7,12.3h2.3v-0.9h-0.5L191.7,12.3z M192.7,12.3h0.5v-0.9h-0.5V12.3z M183.3,12.3h0.5v-0.9h-0.5V12.3z M182.5,12.3
	h0.3v-0.9h-0.5v0.9H182.5z M196.9,12.3h0.5v-0.9h-0.5V12.3z M196.3,11.4h-0.5v0.9h0.5V11.4z M197.9,12.3h0.5v-0.9h-0.5V12.3z
	 M199,12.3h0.5v-0.9H199V12.3z M200,12.3h0.5v-0.9H200V12.3z M201,12.3h0.5v-0.9H201V12.3z M202,12.3h0.5v-0.9h1.5L202,12.3z
	 M203,12.3h0.5v-0.9h1.5L203,12.3z M204.1,12.3h0.5v-0.9h-0.5V12.3z M194.6,12.3h0.5v-0.9h-0.5V12.3z M193.9,12.3h0.2v-0.9h-0.5v0.9
	H193.9z M208.2,12.3h0.5v-0.9h-0.5V12.3z M207.7,11.4h-0.5v0.9h0.5V11.4z M209.3,12.3h0.5v-0.9h-0.5V12.3z M210.3,12.3h0.5v-0.9
	h-0.5V12.3z M206.2,12.3h0.5v-0.9h-0.5V12.3z M205.4,12.3h0.2v-0.9h-0.5v0.9H205.4z M211.2,12.7h-38.4v-0.4h0.3v-0.9h-0.3v-0.4h40.4
	L211.2,12.7z M0,0h213.1v0.4H0V0z"/>
</svg>
