<svg xmlns="http://www.w3.org/2000/svg" viewBox="0 0 43.55 73.72"><defs><style>.cls-1{fill:#623c25;fill-rule:evenodd;}</style></defs><title>14_l</title><g id="Layer_2" data-name="Layer 2"><g id="Layer_1-2" data-name="Layer 1"><path class="cls-1" d="M43.55,4.68A24.31,24.31,0,0,0,40.9,4.6c-1.57,0-1.37.55-2.12,1.75A16.56,16.56,0,0,1,34.58,10,19.43,19.43,0,0,1,32,11.23a19,19,0,0,1-2.89.67c-1,.24-2.18.3-3.1.5a11.64,11.64,0,0,1-3.06.14,21.41,21.41,0,0,1-3.26-.14c-1-.16-1.79-1-2.67-.7-.51-.48-3.06-2.4-3.06-3.06V8.5c0-.71,2.65-2.92,1.26-5.26C14.48,2,13.21,0,11.76,0h-.1A2.32,2.32,0,0,0,9.55,1.08c-.49.71-.66,1.23-1.28,2.09A20,20,0,0,0,6.93,5.32c-.41.74-1,1.3-1.36,2s-1,1.47-1.34,2.15a6.82,6.82,0,0,1-1.45,1.86,7.58,7.58,0,0,0-2.09,5,9.9,9.9,0,0,0,1.12,5.11,20.68,20.68,0,0,0,1,2c.36.69.78,1.08,1.08,1.67a15,15,0,0,0,2.4,3.17,7.24,7.24,0,0,0,1.47,1.27,6.88,6.88,0,0,1,.88.57h0C8.84,31,9,41.44,9,41.81c0,.54-1.34.71-1.77,1A17.24,17.24,0,0,0,5.9,44.28a16.9,16.9,0,0,0-1.32,1.48c-.41.58-.74,1.09-1.17,1.7C2.14,49.26,0,52.76,0,56.16a8.46,8.46,0,0,0,2.25,5C3.22,62.27,4,64,5.06,65.33a9.76,9.76,0,0,1,.65,1.17c.3.64.4.52.74,1a21.8,21.8,0,0,1,1.18,2.37c.67,1.36,1.62,3.66,3.14,3.66h.1a1.32,1.32,0,0,0,.59-.15l.39.29c.6-.41,1.76,0,2.25-.6a3.76,3.76,0,0,0,1.11-2.19v-.7c0-1.59-.89-1.73-.89-2.37s1.15-.7,1.58-1.11c.66,0,1.69-1,2.41-1.21.42-.13,2.5-.74,2.63-.74H22l2.76,0a17.3,17.3,0,0,1,4.43.53c1.66.35,2.2,1.11,3.56,1.67a10.77,10.77,0,0,1,3.11,2.31c.88,1,.56.31,1.09,1.8.3.85.57,1.39.85,2.14H41l.89-.08.3.08h1.37ZM1.86,54.61a7.29,7.29,0,0,1,.69-2.79,16.53,16.53,0,0,1,2.21-4.28,23.35,23.35,0,0,1,2.88-3.31c.92-.56,1-.26,1.82-1.21.37-.45,1.41-1.07,1.41-1.63V30a13.8,13.8,0,0,1-5.65-4.72c-1-1.64-3.44-5.06-3.44-7.82a7.72,7.72,0,0,1,1.68-4c1.39.16,1.63-.82,2.26-2.1.44-.87,1.46-1.85,2-2.68.65-1.08,3.07-5.23,3.88-5.53-.24,1.46-2.46,4.2-3.25,5.3-.52.72-1.19,1.74-1.67,2.53S5,12.79,5,13.52c0,.12.11.27.19.27.73,0,1.39-1.74,2-2.48S8.51,9.57,9.07,8.75s3.17-4.79,3.77-5c-.19,1.15-2.56,4.66-3.23,5.61S8.46,11.12,7.83,12c-.41.57-1.59,1.9-1.61,2.75.66,0,1.59-1.53,1.92-2.17.43-.83.51-.64.94-1.18a14.18,14.18,0,0,0,.77-1.29c.65-1,2.8-4.27,3.68-4.56-.08,1.49-2.81,4.73-3.58,5.82-.48.69-3.53,5.19-3.92,5.19s-.85-1.7-1.74-1.49a1.89,1.89,0,0,0-1.62,1.77v.7c0,3.22,2.51,6,3.82,7.55.8,1,1.81,1.72,2.68,2.64.48.51.82.88,1.28,1.4.31.34.83.65,1.15.94V41h0v.69c-.64.87-1.9,1.66-2.54,2.49s-1,.77-1.43,1.33c-.24.29-1.12,1.56-1.21,1.63-1.28,1.12-3.95,5.08-3.95,7.8V55l.12,2.09C1.73,57.11,1.81,55.42,1.86,54.61Zm3.67,2.8c-.12,0-.3.29-.3.56v.14c0,.15,1.61,3,1.81,3.31.81,1.13,1.1,1.73,2,2.88.63.79,1.1,2.16,1.9,3,.41.45,1.79,2.38,1.79,3.18s-1.11-.67-1.21-.8c-.42-.6-.61-1-1-1.67-.55-.93-1.4-2.37-2-3.21a37.51,37.51,0,0,1-2-3.2C6,60.55,5.48,59,4.64,58.39c-.15.14-.29.18-.29.55a4.51,4.51,0,0,0,1.26,2.55A21.32,21.32,0,0,1,6.82,64l-.09.16c-.22-.45-.57-.91-.88-1.58S5.29,61.6,5,61s-1.24-2.79-2.1-2.21l-.44-1.21L4,58l1.52-.87c1.46,1,1.15,1,2.18,2.65.67,1.06,1.28,1.92,2,2.94.83,1.23,3.38,4.88,3.64,6.45C12.63,68.85,5.9,57.41,5.53,57.41ZM39.61,71.48c-.21-.07-2.42-3-2.89-3.58a9.1,9.1,0,0,0-3.46-2.64c-.46-.23-.35-.42-1-.59a11.37,11.37,0,0,1-1.06-.46,10.57,10.57,0,0,0-2-.91,24.88,24.88,0,0,0-4.52-.59h-.3l-.69,0-3.55.32c-.66.39-.6.07-1.39.19-.53.08-.59.47-1.12.64a7.41,7.41,0,0,0-1.31.39c-.54.3-.24.5-1.13.5a17.77,17.77,0,0,1,6.42-2.65H22a16.76,16.76,0,0,1,2.27-.28l3.76.39c.18.05.18,0,.29-.11l3.06,1c1.05,1,4,1.9,4.87,3s3.43,3.46,3.43,5C39.71,71.23,39.61,71.48,39.61,71.48Zm-12.47-28h-.39a5.92,5.92,0,1,1,5.92-5.92c0,.14,0,.27,0,.39a5.16,5.16,0,1,0-5.52,5.52ZM39.73,8.67c-.62.82-1,1-1.58,1.67a10.5,10.5,0,0,1-3.6,2.73,10.51,10.51,0,0,0-2.12.91,9.37,9.37,0,0,1-2.18.81,17.59,17.59,0,0,1-4.76.81l-2.87-.28c-.87-.08-2,.19-2.77-.55-1.3,0-6.29-2.14-6.32-3.76a27.15,27.15,0,0,1,2.8,1.76c.26.15.54.14.78.3s.28.3.67.45a14.1,14.1,0,0,0,1.54.61c2.58.7,4.63.22,6.86.22,3.2,0,6-1.38,8.59-2.37A13.18,13.18,0,0,0,38,9.31c.48-.57,2.4-2.9,3-2.9.14,0,.2.19.2.42A12,12,0,0,1,39.73,8.67Z"/></g></g></svg>