<svg xmlns="http://www.w3.org/2000/svg" viewBox="0 0 46.88 46.77"><defs><style>.cls-1{fill:#623c25;fill-rule:evenodd;}</style></defs><title>9_l_d</title><g id="Layer_2" data-name="Layer 2"><g id="Layer_1-2" data-name="Layer 1"><path class="cls-1" d="M5.41,45.76c-.41.11-1.24.83-1.59.83H3.21A3.07,3.07,0,0,1,.4,43.27V43A4.06,4.06,0,0,1,2,39.42l.5.53c-.08,1-1.51,4.7.73,4.7h.37c.55,0,1.1-1.06,1.1-1.79v-.14a6.72,6.72,0,0,0-1.5-3.15,11.7,11.7,0,0,1-1.84-2.89,7.61,7.61,0,0,1-.89-5.24C.6,30.66,1,30,1,29.59c.34-.09.5-.28.74-.28.07,0,.25.19.33.28l.16,3.17A22.52,22.52,0,0,0,3.92,35.7a15.46,15.46,0,0,1,1.77,3,9,9,0,0,1,.95,3.5c0,2.1-1.19,3-1.23,3.6"/><path class="cls-1" d="M6.28,34.15c-.27.43-.64,1.79-1.11,1.79H5c-.27,0-.26-.1-.49-.27,0-4.75-1.06-5.06-2.87-7.8A9.37,9.37,0,0,1,.13,24.08c-.17-.9.47-3.9,1.25-3.9a1.61,1.61,0,0,1,.61.14c0,.55.12.34.12.69,0,1.57-.52,1.28.35,3.07a13.54,13.54,0,0,0,1.45,2.36c.67.82,2.73,3.67,2.61,5.08Z"/><path class="cls-1" d="M5,26.54H4.92a.54.54,0,0,1-.49-.41c0-2.19.43-1.26-.19-3.37a10.7,10.7,0,0,0-1.55-2.4A25.14,25.14,0,0,1,1.16,18a18.71,18.71,0,0,1-1-2.75L0,14a3.87,3.87,0,0,1,1.34-3.32l.49.28c0,1.86-.29,3.14.64,4.39C3.32,16.38,4,17.5,4.77,18.56a9.63,9.63,0,0,1,1.59,4c.24,1.07-.45,4-1.32,4"/><path class="cls-1" d="M5,17.14H4.8a.53.53,0,0,1-.49-.41c0-.86.1-1.44.08-2.14s-.49-1.46-.32-1.87c-1-.72-3.36-5-3.75-6.27C-.6,3.46.45,0,3.33,0c4.14,0,3,7.19,1.47,7.19H4.56a.5.5,0,0,1-.49-.55V6.5c0-1,.73-1.88.73-2.63,0-1-.6-1.93-1.47-1.93A1.73,1.73,0,0,0,1.87,3.6v.27C1.87,5,3,6.18,3.53,7c.68,1,1.17,1.9,1.83,2.9.84,1.27.69,2.11,1,3.91.12.8-.65,3.36-1.28,3.36"/><path class="cls-1" d="M6.86,45.54c-.09-.41-.72-1.24-.72-1.59v-.61A2.83,2.83,0,0,1,9,40.53h.24a3.4,3.4,0,0,1,3.13,1.58l-.47.5c-.89-.08-4.11-1.51-4.11.73v.37c0,.55.93,1.1,1.57,1.1h.12a5.61,5.61,0,0,0,2.76-1.5,10,10,0,0,1,2.52-1.84,5.65,5.65,0,0,1,2.92-1,5.46,5.46,0,0,1,1.67.12c.68.15,1.24.53,1.62.56.08.34.24.5.24.74,0,.07-.17.25-.24.33l-2.78.16a19.78,19.78,0,0,0-2.57,1.68,13.46,13.46,0,0,1-2.59,1.77,7.1,7.1,0,0,1-3.06,1c-1.84,0-2.62-1.19-3.15-1.23"/><path class="cls-1" d="M17,46.41c-.38-.27-1.57-.64-1.57-1.11v-.13c0-.27.09-.26.24-.49,4.15,0,4.42-1.06,6.82-2.87a7.65,7.65,0,0,1,3.31-1.55c.79-.17,3.41.47,3.41,1.25a1.84,1.84,0,0,1-.12.61c-.48,0-.29.12-.6.12-1.38,0-1.12-.52-2.69.35A12.09,12.09,0,0,0,23.76,44c-.71.67-3.21,2.73-4.44,2.61Z"/><path class="cls-1" d="M23.67,45.17v-.12c0-.23.22-.49.36-.49,1.92,0,1.1.43,2.95-.19a9.41,9.41,0,0,0,2.1-1.55,19.89,19.89,0,0,1,2.11-1.53,14.94,14.94,0,0,1,2.4-1l1.08-.15a3.22,3.22,0,0,1,2.91,1.34l-.25.49c-1.62,0-2.75-.29-3.83.64s-1.92,1.44-2.85,2.26a7.83,7.83,0,0,1-3.5,1.59c-.94.24-3.48-.45-3.48-1.32"/><path class="cls-1" d="M31.89,45.17v-.24c0-.24.22-.49.36-.49.76,0,1.26.1,1.88.08s1.27-.49,1.63-.32c.63-1,4.38-3.36,5.48-3.75,2.62-.92,5.64.13,5.64,3,0,4.14-6.28,2.95-6.28,1.47v-.24a.46.46,0,0,1,.48-.49h.12c.88,0,1.64.73,2.3.73a1.58,1.58,0,0,0,1.69-1.47A1.61,1.61,0,0,0,43.74,42H43.5c-1,0-2,1.14-2.71,1.66-.89.68-1.67,1.17-2.54,1.83-1.11.84-1.84.69-3.41,1-.71.12-3-.65-3-1.28"/></g></g></svg>