<svg xmlns="http://www.w3.org/2000/svg" viewBox="0 0 46.88 46.59"><defs><style>.cls-1{fill:#623c25;fill-rule:evenodd;}</style></defs><title>9_l_u</title><g id="Layer_2" data-name="Layer 2"><g id="Layer_1-2" data-name="Layer 1"><path class="cls-1" d="M6.86,1.23c-.09.41-.72,1.24-.72,1.59v.61A2.82,2.82,0,0,0,9,6.23h.24a3.39,3.39,0,0,0,3.13-1.57l-.47-.5c-.89.07-4.11,1.51-4.11-.73V3.06c0-.55.93-1.1,1.57-1.1h.12a5.67,5.67,0,0,1,2.76,1.49A9.83,9.83,0,0,0,14.8,5.3a5.65,5.65,0,0,0,2.92,1,5.46,5.46,0,0,0,1.67-.12c.68-.16,1.24-.53,1.62-.57.08-.33.24-.49.24-.73,0-.07-.17-.25-.24-.33L18.23,4.4a20.87,20.87,0,0,1-2.57-1.68A14,14,0,0,0,13.07.94,7.23,7.23,0,0,0,10,0C8.17,0,7.39,1.18,6.86,1.23"/><path class="cls-1" d="M17,.36c-.38.27-1.57.63-1.57,1.11v.12c0,.28.09.27.24.49,4.15,0,4.42,1.07,6.82,2.88a7.65,7.65,0,0,0,3.31,1.55c.79.17,3.41-.47,3.41-1.25a1.84,1.84,0,0,0-.12-.61c-.48,0-.29-.13-.6-.13-1.38,0-1.12.53-2.69-.34a11.61,11.61,0,0,1-2.06-1.46C23.05,2.05,20.55,0,19.32.12Z"/><path class="cls-1" d="M23.67,1.59v.13c0,.23.22.48.36.48,1.92,0,1.1-.42,2.95.2a9.37,9.37,0,0,1,2.1,1.54,20,20,0,0,0,2.11,1.54,17.1,17.1,0,0,0,2.4,1l1.08.15a3.21,3.21,0,0,0,2.91-1.35l-.25-.48c-1.62,0-2.75.29-3.83-.64s-1.92-1.44-2.85-2.26a8,8,0,0,0-3.5-1.6c-.94-.23-3.48.46-3.48,1.32"/><path class="cls-1" d="M31.89,1.59v.25c0,.23.22.49.36.49.76,0,1.26-.1,1.88-.09s1.27.5,1.63.33c.63,1,4.38,3.36,5.48,3.74,2.62.92,5.64-.12,5.64-3,0-4.14-6.28-2.94-6.28-1.46v.24a.46.46,0,0,0,.48.49h.12c.88,0,1.64-.73,2.3-.73A1.58,1.58,0,0,1,45.19,3.3a1.61,1.61,0,0,1-1.45,1.47H43.5c-1,0-2-1.14-2.71-1.66-.89-.68-1.67-1.18-2.54-1.83-1.11-.84-1.84-.69-3.41-1-.71-.12-3,.65-3,1.27"/><path class="cls-1" d="M5.41,45.76c-.41.11-1.24.83-1.59.83H3.21A3.07,3.07,0,0,1,.4,43.27V43A4.06,4.06,0,0,1,2,39.42l.5.53c-.08,1-1.51,4.71.73,4.71h.37c.55,0,1.1-1.06,1.1-1.8v-.14a6.72,6.72,0,0,0-1.5-3.15,11.7,11.7,0,0,1-1.84-2.89,7,7,0,0,1-1-3.33,7.13,7.13,0,0,1,.12-1.91C.6,30.66,1,30,1,29.59c.34-.09.5-.28.74-.28.07,0,.25.19.33.28l.16,3.18A23.09,23.09,0,0,0,3.92,35.7a16.1,16.1,0,0,1,1.77,3,9,9,0,0,1,.95,3.5c0,2.1-1.19,3-1.23,3.6"/><path class="cls-1" d="M6.28,34.15C6,34.58,5.64,36,5.17,36H5c-.27,0-.26-.11-.49-.28,0-4.75-1.06-5.06-2.87-7.8A9.37,9.37,0,0,1,.13,24.08c-.17-.9.47-3.9,1.25-3.9a1.61,1.61,0,0,1,.61.14c0,.55.12.34.12.69,0,1.58-.52,1.28.35,3.07a13.54,13.54,0,0,0,1.45,2.36c.67.82,2.73,3.67,2.61,5.08Z"/><path class="cls-1" d="M5,26.54H4.92a.54.54,0,0,1-.49-.41c0-2.19.43-1.26-.19-3.37a10.7,10.7,0,0,0-1.55-2.4,24.1,24.1,0,0,1-1.53-2.42,18.27,18.27,0,0,1-1-2.74L0,14a3.87,3.87,0,0,1,1.34-3.32l.49.28c0,1.86-.29,3.14.64,4.39C3.32,16.38,4,17.5,4.77,18.56a9.63,9.63,0,0,1,1.59,4c.24,1.07-.45,4-1.32,4"/><path class="cls-1" d="M5,17.14H4.8a.53.53,0,0,1-.49-.41c0-.86.1-1.44.08-2.14s-.49-1.46-.32-1.87c-1-.72-3.36-5-3.75-6.27C-.6,3.46.45,0,3.33,0c4.14,0,3,7.19,1.47,7.19H4.56a.5.5,0,0,1-.49-.55V6.5c0-1,.73-1.88.73-2.63,0-1-.6-1.93-1.47-1.93A1.72,1.72,0,0,0,1.87,3.59v.28C1.87,5,3,6.18,3.53,7c.68,1,1.17,1.9,1.83,2.9.84,1.27.69,2.11,1,3.91.12.8-.65,3.36-1.28,3.36"/></g></g></svg>