<svg xmlns="http://www.w3.org/2000/svg" viewBox="0 0 46.79 46.59"><defs><style>.cls-1{fill:#623c25;fill-rule:evenodd;}</style></defs><title>9_r_u</title><g id="Layer_2" data-name="Layer 2"><g id="Layer_1-2" data-name="Layer 1"><path class="cls-1" d="M.73,1.23C.63,1.64,0,2.47,0,2.82v.61a2.82,2.82,0,0,0,2.9,2.8h.24A3.39,3.39,0,0,0,6.27,4.66l-.47-.5c-.89.07-4.11,1.51-4.11-.73V3.06c0-.55.93-1.1,1.57-1.1h.12A5.67,5.67,0,0,1,6.14,3.45,10,10,0,0,0,8.66,5.3a5.65,5.65,0,0,0,2.92,1,5.46,5.46,0,0,0,1.67-.12c.68-.16,1.24-.53,1.62-.57.08-.33.24-.49.24-.73,0-.07-.17-.25-.24-.33L12.09,4.4A20.87,20.87,0,0,1,9.52,2.72,14,14,0,0,0,6.93.94,7.23,7.23,0,0,0,3.87,0C2,0,1.25,1.18.73,1.23"/><path class="cls-1" d="M10.88.36C10.5.63,9.31,1,9.31,1.47v.12c0,.28.1.27.24.49C13.7,2.08,14,3.15,16.37,5a7.65,7.65,0,0,0,3.31,1.55c.79.17,3.41-.47,3.41-1.25A1.84,1.84,0,0,0,23,4.65c-.48,0-.29-.13-.6-.13-1.38,0-1.12.53-2.68-.34a11.33,11.33,0,0,1-2.07-1.46C16.91,2.05,14.41,0,13.18.12Z"/><path class="cls-1" d="M17.53,1.59v.13c0,.23.22.48.36.48,1.92,0,1.1-.42,2.95.2a9.37,9.37,0,0,1,2.1,1.54,21.07,21.07,0,0,0,2.11,1.54,17.6,17.6,0,0,0,2.4,1l1.08.15a3.21,3.21,0,0,0,2.91-1.35l-.25-.48c-1.62,0-2.75.29-3.83-.64s-1.92-1.44-2.85-2.26A8,8,0,0,0,21,.27c-.94-.23-3.48.46-3.48,1.32"/><path class="cls-1" d="M25.75,1.59v.25c0,.23.22.49.36.49.76,0,1.26-.1,1.88-.09s1.27.5,1.63.33c.63,1,4.38,3.36,5.48,3.74,2.62.92,5.64-.12,5.64-3,0-4.14-6.28-2.94-6.28-1.46v.24a.46.46,0,0,0,.48.49h.12c.88,0,1.65-.73,2.3-.73A1.58,1.58,0,0,1,39.05,3.3,1.61,1.61,0,0,1,37.6,4.77h-.24c-1,0-2-1.14-2.71-1.66-.89-.68-1.67-1.18-2.54-1.83C31,.44,30.27.59,28.7.32,28,.2,25.75,1,25.75,1.59"/><path class="cls-1" d="M41.38,45.76c.41.11,1.24.83,1.59.83h.61a3.06,3.06,0,0,0,2.81-3.32V43a4.06,4.06,0,0,0-1.58-3.58l-.5.53c.08,1,1.52,4.71-.73,4.71h-.37c-.54,0-1.09-1.06-1.09-1.8v-.14a6.7,6.7,0,0,1,1.49-3.15,11.15,11.15,0,0,0,1.84-2.89,6.9,6.9,0,0,0,1-3.33,6.74,6.74,0,0,0-.12-1.91c-.15-.78-.53-1.42-.56-1.85-.34-.09-.5-.28-.73-.28-.08,0-.26.19-.34.28l-.15,3.18a24.37,24.37,0,0,1-1.68,2.93,15.6,15.6,0,0,0-1.78,3,9,9,0,0,0-1,3.5c0,2.1,1.19,3,1.23,3.6"/><path class="cls-1" d="M40.51,34.15c.27.43.64,1.8,1.12,1.8h.12c.27,0,.27-.11.49-.28,0-4.75,1.06-5.06,2.88-7.8a9.36,9.36,0,0,0,1.54-3.79c.17-.9-.46-3.9-1.25-3.9a1.61,1.61,0,0,0-.61.14c0,.55-.12.34-.12.69,0,1.58.52,1.28-.35,3.07a13.54,13.54,0,0,1-1.45,2.36c-.67.82-2.72,3.67-2.61,5.08Z"/><path class="cls-1" d="M41.75,26.54h.12a.53.53,0,0,0,.49-.41c0-2.19-.43-1.26.2-3.37a10.32,10.32,0,0,1,1.54-2.4,24.1,24.1,0,0,0,1.53-2.42,18.27,18.27,0,0,0,1-2.74L46.76,14a3.88,3.88,0,0,0-1.35-3.32l-.49.28c0,1.86.29,3.14-.64,4.39-.81,1.07-1.44,2.19-2.26,3.25a9.63,9.63,0,0,0-1.59,4c-.23,1.07.46,4,1.32,4"/><path class="cls-1" d="M41.75,17.14H42a.53.53,0,0,0,.49-.41c0-.86-.1-1.44-.08-2.14s.49-1.46.33-1.87c1-.72,3.35-5,3.74-6.27.92-3-.13-6.45-3-6.45-4.14,0-3,7.19-1.47,7.19h.25a.51.51,0,0,0,.49-.55V6.5c0-1-.74-1.88-.74-2.63,0-1,.61-1.93,1.47-1.93a1.72,1.72,0,0,1,1.46,1.65v.28c0,1.17-1.13,2.31-1.66,3.1-.67,1-1.17,1.9-1.83,2.9-.83,1.27-.69,2.11-1,3.91-.13.8.64,3.36,1.27,3.36"/></g></g></svg>