<svg xmlns="http://www.w3.org/2000/svg" viewBox="0 0 46.79 46.77"><defs><style>.cls-1{fill:#623c25;fill-rule:evenodd;}</style></defs><title>9_r_d</title><g id="Layer_2" data-name="Layer 2"><g id="Layer_1-2" data-name="Layer 1"><path class="cls-1" d="M41.38,45.76c.41.11,1.24.83,1.59.83h.61a3.06,3.06,0,0,0,2.81-3.32V43a4.06,4.06,0,0,0-1.58-3.58l-.5.53c.08,1,1.52,4.7-.73,4.7h-.37c-.54,0-1.09-1.06-1.09-1.79v-.14a6.7,6.7,0,0,1,1.49-3.15,11.15,11.15,0,0,0,1.84-2.89,6.91,6.91,0,0,0,1-3.34,6.69,6.69,0,0,0-.12-1.9c-.15-.78-.53-1.42-.56-1.85-.34-.09-.5-.28-.73-.28-.08,0-.26.19-.34.28l-.15,3.17a23.73,23.73,0,0,1-1.68,2.94,15,15,0,0,0-1.78,3,9,9,0,0,0-1,3.5c0,2.1,1.19,3,1.23,3.6"/><path class="cls-1" d="M40.51,34.15c.27.43.64,1.79,1.12,1.79h.12c.27,0,.27-.1.49-.27,0-4.75,1.06-5.06,2.88-7.8a9.36,9.36,0,0,0,1.54-3.79c.17-.9-.46-3.9-1.25-3.9a1.61,1.61,0,0,0-.61.14c0,.55-.12.34-.12.69,0,1.57.52,1.28-.35,3.07a13.54,13.54,0,0,1-1.45,2.36c-.67.82-2.72,3.67-2.61,5.08Z"/><path class="cls-1" d="M41.75,26.54h.12a.53.53,0,0,0,.49-.41c0-2.19-.43-1.26.2-3.37a10.32,10.32,0,0,1,1.54-2.4A25.14,25.14,0,0,0,45.63,18a18.71,18.71,0,0,0,1-2.75L46.76,14a3.88,3.88,0,0,0-1.35-3.32l-.49.28c0,1.86.29,3.14-.64,4.39-.81,1.07-1.44,2.19-2.26,3.25a9.63,9.63,0,0,0-1.59,4c-.23,1.07.46,4,1.32,4"/><path class="cls-1" d="M41.75,17.14H42a.53.53,0,0,0,.49-.41c0-.86-.1-1.44-.08-2.14s.49-1.46.33-1.87c1-.72,3.35-5,3.74-6.27.92-3-.13-6.45-3-6.45-4.14,0-3,7.19-1.47,7.19h.25a.51.51,0,0,0,.49-.55V6.5c0-1-.74-1.88-.74-2.63,0-1,.61-1.93,1.47-1.93A1.73,1.73,0,0,1,44.92,3.6v.27c0,1.17-1.13,2.31-1.66,3.1-.67,1-1.17,1.9-1.83,2.9-.83,1.27-.69,2.11-1,3.91-.13.8.64,3.36,1.27,3.36"/><path class="cls-1" d="M.73,45.54C.63,45.13,0,44.3,0,44v-.61a2.83,2.83,0,0,1,2.9-2.81h.24a3.4,3.4,0,0,1,3.13,1.58l-.47.5c-.89-.08-4.11-1.51-4.11.73v.37c0,.55.93,1.1,1.57,1.1h.12a5.61,5.61,0,0,0,2.76-1.5,10.22,10.22,0,0,1,2.52-1.84,5.65,5.65,0,0,1,2.92-1,5.46,5.46,0,0,1,1.67.12c.68.15,1.24.53,1.62.56.08.34.24.5.24.74,0,.07-.17.25-.24.33l-2.78.16a19.78,19.78,0,0,0-2.57,1.68,13.46,13.46,0,0,1-2.59,1.77,7.1,7.1,0,0,1-3.06,1C2,46.76,1.25,45.58.73,45.54"/><path class="cls-1" d="M10.88,46.41c-.38-.27-1.57-.64-1.57-1.11v-.13c0-.27.1-.26.24-.49,4.15,0,4.43-1.06,6.82-2.87a7.65,7.65,0,0,1,3.31-1.55c.79-.17,3.41.47,3.41,1.25a1.84,1.84,0,0,1-.12.61c-.48,0-.29.12-.6.12-1.38,0-1.12-.52-2.68.35A11.79,11.79,0,0,0,17.62,44c-.71.67-3.21,2.73-4.44,2.61Z"/><path class="cls-1" d="M17.53,45.17v-.12c0-.23.22-.49.36-.49,1.92,0,1.1.43,2.95-.19a9.41,9.41,0,0,0,2.1-1.55,21,21,0,0,1,2.11-1.53,15.31,15.31,0,0,1,2.4-1l1.08-.15a3.22,3.22,0,0,1,2.91,1.34l-.25.49c-1.62,0-2.75-.29-3.83.64s-1.92,1.44-2.85,2.26A7.83,7.83,0,0,1,21,46.49c-.94.24-3.48-.45-3.48-1.32"/><path class="cls-1" d="M25.75,45.17v-.24c0-.24.22-.49.36-.49.76,0,1.26.1,1.88.08s1.27-.49,1.63-.32c.63-1,4.38-3.36,5.48-3.75,2.62-.92,5.64.13,5.64,3,0,4.14-6.28,2.95-6.28,1.47v-.24a.46.46,0,0,1,.48-.49h.12c.88,0,1.65.73,2.3.73a1.58,1.58,0,0,0,1.69-1.47A1.61,1.61,0,0,0,37.6,42h-.24c-1,0-2,1.14-2.71,1.66-.89.68-1.67,1.17-2.54,1.83-1.11.84-1.84.69-3.41,1-.7.12-2.95-.65-2.95-1.28"/></g></g></svg>