<svg xmlns="http://www.w3.org/2000/svg" preserveAspectRatio="none" viewBox="0 0 35.03 9.27"><defs><style>.cls-1{fill:#623c25;}</style></defs><title>13_d</title><g id="Layer_2" data-name="Layer 2"><g id="Layer_1-2" data-name="Layer 1"><path class="cls-1" d="M17.52,2.76Zm0,0Zm0,.23Zm0,0ZM35,5.63c-.77,0-1.53,0-2.24,0-4.12.06-8,.06-12,0-1.1,0-2.17,0-3.24-.06v.23h0c1.24,0,2.5.07,3.78.07.3,0,.64-.09.88.06A8.21,8.21,0,0,1,24,5.86c1.37,0,2.93.11,4.32-.05a35.88,35.88,0,0,0,4.15,0H35ZM17.52,4.84h0c-.7,0-1.39,0-2,.07a12.41,12.41,0,0,0,2,0v.23c-3.61-.11-7.43.06-11.1,0-.25,0-.51-.08-.76-.08s-.7.09-1.06.08c-1.35,0-2.72,0-4-.08a5.67,5.67,0,0,0-.58,0V5a3.79,3.79,0,0,0,.6-.07l-.6,0V4.56H.06s0,0-.06,0V4.27a4.35,4.35,0,0,0,.7,0,1.18,1.18,0,0,0-.7,0V3.11l.36,0c.42,0,.87,0,1.3,0s.83,0,1.23-.06A3,3,0,0,0,4.11,3c-.26-.31-.78-.17-1.22-.17S2,2.77,1.66,2.78L0,2.8V2.65c.5,0,1,0,1.46-.06s1,.06,1.45.05c.84,0,1.64-.05,2.38,0,0,0,0,0,.07,0s-.05,0-.05,0c-1.35,0-2.67,0-4-.09A11,11,0,0,1,0,2.51V2.36c.55,0,1.11,0,1.66,0,.38,0,.77-.08,1.15-.08s.56.08.84.08c1.11,0,2.22-.13,3.31-.08.14,0,.28.07.42.08.29,0,.58,0,.91-.06s.82.08,1.25.09c.67,0,1.37,0,2.16,0a1.92,1.92,0,0,0,.9-.08,8,8,0,0,0,2.19,0c-1.61-.15-3.32-.09-5.28-.09-1.14,0-2.28,0-3.43,0s-2.2,0-3.19,0c-.23,0-.45-.09-.67-.08-.7,0-1.44.08-2.21.08H0V2A2.16,2.16,0,0,1,.36,2,.88.88,0,0,0,0,2v-.7H.14c.1,0,.22.08.32.08s.53-.08.78-.05a2.34,2.34,0,0,0,.52,0c.18,0,.36.06.54.06s.2-.07.29-.08A2.28,2.28,0,0,1,3,1.28c.16,0,.33-.07.49-.05.61,0,1.42,0,2.16,0a.24.24,0,0,1,0-.09c-.18.11-.36,0-.54,0s-.16.07-.24.08c-.44.05-.95-.06-1.38,0-.63,0-1.29,0-2,0-.5,0-1,0-1.53,0V1A10.69,10.69,0,0,0,1.17.9,7.46,7.46,0,0,0,0,.86V.68a2.08,2.08,0,0,0,.43,0A2.21,2.21,0,0,1,.78.63c.19,0,.37.09.56.08s.53,0,.84,0c.68,0,1.37.05,2.08.05a12.06,12.06,0,0,1,1.91,0c.12-.1.42,0,.52-.11A12.58,12.58,0,0,0,4.82.6C4.74.6,4.77.48,4.7.46s0,.16-.12.17C3.38.53,2.23.69,1.14.49A2.29,2.29,0,0,1,0,.55V.1a4.42,4.42,0,0,1,.63,0C.74.08.86.15,1,.16A5.71,5.71,0,0,0,1.68.08c.46,0,.93.11,1.4.11s1,0,1.5,0S5.53.07,6,.08l2.31,0c.25,0,.51,0,.76,0s.41-.08.61-.08.67.06,1,.06c2.23,0,4.5-.17,6.48-.08h.35V.36c-.4,0-.83,0-1.23,0a2.32,2.32,0,0,1-.6,0s0,0,.05,0a1.67,1.67,0,0,1,.52.05A10.79,10.79,0,0,1,17.52.41V.59h0c-.63,0-1.27.07-1.9.06a13.3,13.3,0,0,0-2.18.06h4.08V.93a12.2,12.2,0,0,0-2,0,1.68,1.68,0,0,0,.81.11c.32,0,.8-.13,1.13-.11h.06v1h-.06a12.31,12.31,0,0,0-1.25-.05,3.12,3.12,0,0,1-.52.08,11.27,11.27,0,0,0-1.3,0A27.12,27.12,0,0,0,17.52,2v.2a9.61,9.61,0,0,0-1.78.07,2.55,2.55,0,0,0-.93-.06c.14.09.31,0,.44.14a6.51,6.51,0,0,1,1.82,0,2.28,2.28,0,0,0,.45,0v.16a16,16,0,0,0-2.39,0,14.5,14.5,0,0,0,2.39,0v.17h0c-.24,0-.52.08-.79.08a3.79,3.79,0,0,0-1,0c-2.61-.06-5.55,0-8.19,0a.61.61,0,0,0-.66.08c-.14,0-.08-.16-.2-.16a15.93,15.93,0,0,0-2.38.11c.22.39.91.08,1.28.22.36-.17.91,0,1.32-.11a1.29,1.29,0,0,0,.47.08c1.34,0,2.66,0,3.95,0s2.64,0,4.15,0c.62,0,1.34,0,2,0h.06v.78c-1.43-.08-3.18,0-4.74,0,.23.26.64.06.93.05.11,0,.23.06.34.06.33,0,.66-.08,1-.09a9.44,9.44,0,0,0,1.92,0,.83.83,0,0,0,.57,0v.26h0c-.17,0-.35,0-.52,0a1,1,0,0,0,.52.07v.29c-.89,0-1.8,0-2.76,0a2.92,2.92,0,0,0,1.45.08c.16,0,.33.06.49,0l.82,0Zm-1.41-.67h.3c.16.09.29,0,.49.06,0-.05,0-.06.05-.06s0,0,0,0h-.46C16.32,4.15,16.06,4.12,16.11,4.17ZM15,4.15s.18,0,.25,0S15.1,4.15,15,4.15ZM3.18,1a12.78,12.78,0,0,0-2-.08A8.54,8.54,0,0,0,3.18,1ZM4,1s-.18,0-.24,0S3.92.94,4,1ZM1.14,2c-.06,0,.15,0,.2,0S1.2,2,1.14,2ZM2.52,2c-.07,0,.14,0,.19,0S2.57,2,2.52,2Zm1.23-.19c0-.05-.17,0-.23,0S3.69,1.76,3.75,1.77ZM4,2c-.13-.14-.25,0,0,0Zm.57,0c-.13-.14-.27,0-.47,0C4.14,2.11,4.51,2.06,4.58,2ZM6.27,1a17.34,17.34,0,0,0-1.91,0A10.91,10.91,0,0,0,6.27,1ZM6.1,2c0-.06-.12,0-.17,0S6,2,6.1,2Zm.54,0c-.11-.06-.33,0-.49,0C6.23,2.1,6.45,2,6.64,2ZM14.1,1a2.13,2.13,0,0,0,1.23,0A1.93,1.93,0,0,0,14.1,1Zm-.66,0c.09.21.38,0,.61.08A2.92,2.92,0,0,0,13.44.93ZM13.9.41c.13.13.43,0,.59,0A1,1,0,0,0,13.9.41Zm-.53,0c0,.06.24,0,.34,0S13.46.45,13.37.43Zm-.89,0c0-.06-.07,0-.07-.08C12.09.35,12.32.46,12.48.46ZM12,.65a2.45,2.45,0,0,0,1.15,0A8.7,8.7,0,0,0,12,.65Zm0,.28c.06.15.24.07.37.08a3.26,3.26,0,0,0,1.08,0C13.11.76,12.41.92,11.94.93Zm-.19-.5h.12C11.91.35,11.71.35,11.75.43Zm-.4.22s.18,0,.25,0S11.42.66,11.35.65ZM11.16.46c.06-.05-.15,0-.2,0S11.1.45,11.16.46Zm-.27.25c0,.06.21,0,.32,0V.65C11.06.63,11,.72,10.89.71ZM10.47.43c-.05,0,.26,0,.39,0C10.75.38,10.61.42,10.47.43Zm-.12.28c0,.05.22,0,.27,0S10.37.65,10.35.71ZM8.19.43a.59.59,0,0,0,.32,0C8.45.39,8.27.4,8.19.43ZM6.71.43c0,.06.37,0,.52,0C7.2.4,6.86.45,6.71.43ZM7.77,1.77c-.07-.06-.25,0-.37,0A.28.28,0,0,0,7.77,1.77ZM8,2c0-.05-.3-.06-.29.05S8,2.08,8,2ZM8.11.93A3.46,3.46,0,0,0,7,1c.31.18.7,0,1.08,0ZM8.73,1c0-.06-.29,0-.4,0S8.62,1,8.73,1ZM9.24.79c.33,0,.55-.2.84-.06V.65c-.21,0-.53.07-.62-.08s.33-.06.47-.11c-.16-.11-.47,0-.61,0s0,.15-.08.22c-.83,0-1.6,0-2.45,0,.14.15.43.08.69.08C8,.73,8.74.78,9.24.79Zm.3.22c.05-.06-.18,0-.25,0S9.47,1,9.54,1Zm.54,1c-.09-.11-.29,0-.42,0C9.76,2.11,9.93,2.06,10.08,2Zm.68-1a3.44,3.44,0,0,0,1.11,0A5.08,5.08,0,0,0,10.27,1c-.19,0-.4-.11-.56,0C10,1.17,10.4,1,10.76,1Zm-.32,1s-.17-.06-.22,0S10.38,2,10.44,2Zm.86,0c-.07-.13-.44-.08-.59-.05C10.84,2.11,11.11,2,11.3,2Zm3-.05a16,16,0,0,0-2.85,0,14.23,14.23,0,0,0,2,0c.06,0,.14.05.2.05s.12-.05.17-.05S14.14,2.11,14.3,2Zm-5,.65c1.65,0,3.51-.07,5.07,0a1.18,1.18,0,0,0,.59-.1c-.21-.16-.61,0-.93,0a11,11,0,0,1-1.15,0c-1,0-2.06,0-3,0A.77.77,0,0,0,9.32,2.64Zm-.94-.08a.55.55,0,0,0,.57,0A2.58,2.58,0,0,0,8.38,2.56Zm-2.06,0a10.67,10.67,0,0,0,2,0A17.49,17.49,0,0,0,6.32,2.56Zm-.54,0a.78.78,0,0,0,.37,0C6,2.49,6,2.52,5.78,2.56Zm6.36.93c.06.11.33,0,.44,0C12.48,3.46,12.28,3.51,12.14,3.49Zm-.52,0c0,.07.19,0,.27,0C11.82,3.44,11.75,3.55,11.62,3.54Zm-1.35,0c.07,0-.14,0-.19,0S10.22,3.57,10.27,3.57Zm-1.15,0c0,.06.2,0,.27,0S9.19,3.56,9.12,3.54Zm-3.61.33c.73.16,1.77-.05,2.63,0,.43,0,.79,0,1.18,0a27.75,27.75,0,0,0,3.16,0s0,0,.08,0,0-.05,0-.05c-.81,0-1.75,0-2.65,0-.28,0-.54,0-.81,0-.42,0-.84.05-1.28.05A10.22,10.22,0,0,0,5.51,3.87Zm5.3.71a.6.6,0,0,0,.4,0S10.88,4.46,10.81,4.58Zm-1,0a.61.61,0,0,0,.46,0C10.16,4.46,10,4.57,9.81,4.58ZM9,4.58a.86.86,0,0,0,.67,0C9.47,4.48,9.2,4.61,9,4.58Zm-1,0s.2,0,.27,0S8.06,4.59,8,4.58Zm-1.45,0h.12c.19.11.43,0,.55,0A1.5,1.5,0,0,0,6.54,4.61ZM5,4.58a2.27,2.27,0,0,0,1.13,0A3.84,3.84,0,0,0,5,4.58Zm-.34,0a.27.27,0,0,0,.25,0C4.79,4.54,4.75,4.59,4.63,4.58Zm.12-.3a.24.24,0,0,0-.27,0C4.52,4.32,4.67,4.26,4.75,4.28Zm-.47-.46c.09.14.32.05.54.08C4.75,3.75,4.47,3.84,4.28,3.82ZM4,4.58a1.24,1.24,0,0,0,.61,0c0-.06-.1-.05-.15-.08a.41.41,0,0,0-.19,0Zm-1.2-.76c.07.1.32,0,.44,0C3.13,3.78,2.93,3.84,2.79,3.82Zm-1,.38a.39.39,0,0,0,.32,0C2.06,4.12,1.9,4.15,1.81,4.2ZM.73,4.2c.05.06.22,0,.31,0h.32c.12,0,.16.08.3,0a.07.07,0,0,1,.07,0,.37.37,0,0,0-.34,0H.73Zm1.86.68a13.91,13.91,0,0,0-2,0A9.87,9.87,0,0,0,2.59,4.88Zm.27-.6A11,11,0,0,1,4,4.31s0,0,.08,0,0,0,0-.08c-.62.06-1.12-.11-1.66,0C2.49,4.39,2.71,4.29,2.86,4.28Zm.66.6a1,1,0,0,0-.61,0C3,5,3.39,4.94,3.52,4.88Zm3.54.06a4.71,4.71,0,0,0-1.87,0,7.88,7.88,0,0,0-1.62-.06A10.09,10.09,0,0,0,5.86,5,11.6,11.6,0,0,1,7.06,4.94Zm4.49,0a29.34,29.34,0,0,0-3.12,0,3.83,3.83,0,0,0-1.35,0,14.85,14.85,0,0,0,2.33,0A17,17,0,0,0,11.55,4.94Zm1.1,0c-.26-.18-.61,0-.86,0A6,6,0,0,0,12.65,4.94Zm.62-.74a1.78,1.78,0,0,0,.56,0A.61.61,0,0,0,13.27,4.2Zm-.3.38c0,.06.16,0,.22,0S13.09,4.57,13,4.58Zm.71.36a1.15,1.15,0,0,0-.76,0A4.69,4.69,0,0,0,13.68,4.94Zm.45-.33a.9.9,0,0,0-.67,0C13.68,4.74,13.84,4.63,14.13,4.61Zm.31.33c0-.09-.19-.06-.27,0S14.36,4.92,14.44,4.94Zm.94-.06a1.08,1.08,0,0,0-.67,0A1.26,1.26,0,0,0,15.38,4.88ZM35,5.32l-4.26,0c-.57,0-1.17-.07-1.74-.06A9.45,9.45,0,0,1,28,5.37c-.11,0-.22,0-.32,0s-.45.09-.67.08c-1,0-1.94-.05-2.92-.08-.2,0-.42.06-.63,0-.37,0-.75-.1-1.13-.11s-1,.12-1.55.09c-1.09-.08-2.19,0-3.24-.1v.22h0c2.95,0,5.92.1,8.91.07s5.73,0,8.6,0ZM17.52,7.63h-.16c-1.2.08-2.44,0-3.55,0-3.37,0-6.84,0-10.14,0-.12,0-.24.06-.37.06H0v.38H1c4.38,0,8.63-.08,12.76-.08l3.81,0h0ZM33.42,9c-.7,0-1.43-.08-2.15-.06-.18,0-.33.06-.5.06s-.34-.08-.51-.09-.49,0-.74,0c-.48,0-1-.05-1.45,0a5.54,5.54,0,0,1-.71,0c-2-.06-4,0-6-.05-.72,0-1.41,0-2.16,0-.23,0-.44-.08-.67-.09s-.68,0-1,0v.33l8,.06c2,0,4,0,6.15,0h0l2.14,0c.4,0,.82,0,1.23,0V9h-.45C34.21,9,33.81,9,33.42,9Zm-15.9-3.7c-1.06.07-2.16,0-3.25.1-.51,0-1-.1-1.54-.09s-.76.09-1.13.11c-.21,0-.43-.06-.64,0-1,0-2,0-2.92.08-.22,0-.44-.09-.66-.08s-.22,0-.32,0A9.63,9.63,0,0,1,6,5.29c-.57,0-1.17.06-1.74.06L0,5.32V5.5c2.87,0,5.76,0,8.6,0,3,0,6,0,8.92-.07h0ZM34.09,8.13H35V7.75h-3.3c-.13,0-.24-.06-.37-.06-3.3,0-6.77,0-10.13,0-1.12,0-2.35.06-3.56,0h-.15V8h0l3.81,0C25.45,8.05,29.7,8.13,34.09,8.13Zm-18.27.71c-.76,0-1.45,0-2.16,0-1.95.06-4,0-6,.05a5.62,5.62,0,0,1-.71,0c-.49,0-1,0-1.45,0-.25,0-.49,0-.73,0s-.35.08-.52.09-.32,0-.49-.06c-.73,0-1.45,0-2.16.06C1.23,9,.82,9,.46,9H0v.31c.42,0,.83,0,1.24,0l2.14,0h0c2.12-.05,4.12,0,6.15,0l8-.06V8.79c-.35,0-.7,0-1,0S16,8.83,15.82,8.84Zm6.17-2a17.82,17.82,0,0,1,2.75,0c2.32,0,4.75-.05,7.14-.06.8,0,1.63.06,2.45.06H35V6.68h0c-.83,0-1.67-.09-2.5-.08-1.19,0-2.49.1-3.68,0-2,.15-4.13,0-6.11.05-.58,0-1.15,0-1.72,0-1.17,0-2.33-.06-3.46-.06v.22h0l3.58,0C21.46,6.82,21.74,6.73,22,6.87Zm-4.47-.3c-1.13,0-2.29,0-3.47.06-.56,0-1.14,0-1.72,0-2,0-4.07.1-6.11-.05-1.18.1-2.48,0-3.68,0-.83,0-1.67.09-2.5.08H0v.14H.7c.83,0,1.65-.06,2.46-.06,2.38,0,4.81.06,7.14.06a17.87,17.87,0,0,1,2.75,0c.24-.14.52,0,.88,0l3.59,0h0ZM28.34.68c.11.11.4,0,.52.11a12.08,12.08,0,0,1,1.91,0c.72,0,1.41-.05,2.09-.05.3,0,.61,0,.83,0s.38-.09.57-.08a2.37,2.37,0,0,1,.34.08,2.08,2.08,0,0,0,.43,0V.86a7.28,7.28,0,0,0-1.16,0A10.31,10.31,0,0,0,35,1v.19c-.51,0-1,0-1.53,0-.67,0-1.33.07-2,0-.43,0-.94.08-1.37,0-.09,0-.16-.08-.24-.08s-.37.13-.55,0a.24.24,0,0,1,0,.09c.75,0,1.55,0,2.16,0,.16,0,.33.06.49.05a2.37,2.37,0,0,1,.44-.05c.1,0,.19.07.3.08s.36-.07.54-.06a2.28,2.28,0,0,0,.51,0c.26,0,.54.07.79.05s.21-.08.32-.08H35V2a.85.85,0,0,0-.35,0A2,2,0,0,1,35,2v.22h0c-.76,0-1.5,0-2.21-.08-.21,0-.44.07-.66.08-1,0-2.12.07-3.19,0s-2.3,0-3.44,0c-2,0-3.67-.06-5.27.09a8,8,0,0,0,2.18,0,2,2,0,0,0,.91.08c.78,0,1.48,0,2.16,0,.42,0,.85-.09,1.25-.09s.61.08.91.06c.13,0,.27-.08.41-.08,1.09,0,2.2.07,3.32.08.27,0,.55-.08.83-.08s.77.08,1.15.08c.56,0,1.12,0,1.66,0v.15a11.14,11.14,0,0,1-1.29-.06c-1.34,0-2.66.14-4,.09,0,0,0,0,0,0s0,0,.07,0c.74,0,1.55,0,2.38,0,.48,0,1-.09,1.45-.05s1,.05,1.46.06V2.8l-1.66,0c-.36,0-.81.05-1.22.05s-1-.14-1.23.17a3,3,0,0,0,1.23,0c.39,0,.8.05,1.22.06s.88,0,1.31,0l.35,0V4.22a1.19,1.19,0,0,0-.7,0,4.35,4.35,0,0,0,.7,0v.25s-.05,0-.06,0H35v.29l-.6,0A3.79,3.79,0,0,0,35,5v.17a5.44,5.44,0,0,0-.58,0c-1.3,0-2.67,0-4,.08-.36,0-.71-.08-1.06-.08s-.51.08-.76.08c-3.66.08-7.48-.09-11.09,0V4.94a12.41,12.41,0,0,0,2,0c-.66,0-1.34-.06-2-.07h0V4.62l.81,0c.17,0,.33-.06.49,0a2.92,2.92,0,0,0,1.45-.08c-.95,0-1.86-.07-2.75,0V4.22A1,1,0,0,0,18,4.15c-.18,0-.36,0-.52,0h0V3.88a.85.85,0,0,0,.57,0,9.34,9.34,0,0,0,1.91,0c.33,0,.66.09,1,.09.12,0,.23-.06.35-.06.29,0,.69.21.93-.05-1.57,0-3.31-.13-4.74,0V3h.05c.69,0,1.41,0,2,0,1.5,0,2.76,0,4.15,0s2.61,0,3.95,0A1.24,1.24,0,0,0,28.17,3c.41.15,1-.06,1.33.11.37-.14,1.05.17,1.27-.22a15.87,15.87,0,0,0-2.38-.11c-.12,0-.06.19-.19.16a.63.63,0,0,0-.67-.08c-2.64,0-5.58-.09-8.19,0a3.79,3.79,0,0,0-1,0c-.26,0-.55-.09-.78-.08h0V2.59a14.37,14.37,0,0,0,2.38,0,15.85,15.85,0,0,0-2.38,0V2.36a2.12,2.12,0,0,0,.44,0,6.52,6.52,0,0,1,1.82,0c.13-.12.31-.05.44-.14a2.58,2.58,0,0,0-.93.06,9.5,9.5,0,0,0-1.77-.07V2A27,27,0,0,0,20.64,2a11.27,11.27,0,0,0-1.3,0,3.28,3.28,0,0,1-.52-.08,12.43,12.43,0,0,0-1.25.05h-.05V1h.05c.34,0,.82.14,1.13.11A1.67,1.67,0,0,0,19.51,1a12.07,12.07,0,0,0-2,0V.72H21.6A13.45,13.45,0,0,0,19.41.65c-.63,0-1.26,0-1.89-.06h0V.41a10.62,10.62,0,0,1,1.25.05,1.67,1.67,0,0,1,.52-.05s.09,0,.05,0a2.24,2.24,0,0,1-.59,0c-.4,0-.83,0-1.23,0V0h.35c2-.09,4.24.08,6.47.08.34,0,.67-.06,1-.06s.41.08.61.08.51,0,.77,0c.77,0,1.53,0,2.3,0,.47,0,.95.1,1.43.08s1,0,1.49,0,.94-.12,1.4-.11a5.71,5.71,0,0,0,.71.08c.12,0,.23-.08.35-.08A4.24,4.24,0,0,1,35,.1V.55A2.29,2.29,0,0,1,33.89.49c-1.09.2-2.24,0-3.43.14-.09,0-.05-.16-.13-.17s0,.14-.12.14A12.58,12.58,0,0,0,28.34.68ZM18.92,4.17s-.21,0-.34,0h-.47s0,0,0,0,.05,0,.05.06c.2,0,.33,0,.49-.06Zm1.08,0c-.06,0-.3,0-.24,0S20.05,4.2,20,4.15Zm1.84.46c.07,0,.2,0,.22,0S21.93,4.54,21.84,4.61Zm-.64-.38a1.85,1.85,0,0,0,.57,0A.63.63,0,0,0,21.2,4.23Zm-.88.68a1.06,1.06,0,0,0-.66,0A1.22,1.22,0,0,0,20.32,4.91Zm.54,0c-.07,0-.23-.06-.27,0S20.82,5,20.86,4.91Zm.71-.33a.87.87,0,0,0-.66,0C21.19,4.63,21.35,4.74,21.57,4.58Zm.54.33a1.15,1.15,0,0,0-.76,0A4.6,4.6,0,0,0,22.11,4.91Zm8.1-1c.22,0,.46.06.54-.08C30.57,3.84,30.28,3.75,30.21,3.9Zm.07.38c.09,0,.23,0,.27,0A.24.24,0,0,0,30.28,4.28Zm-.12.33a.27.27,0,0,0,.25,0C30.29,4.59,30.24,4.54,30.16,4.61Zm-1.23,0a2.27,2.27,0,0,0,1.13,0A3.85,3.85,0,0,0,28.93,4.61Zm-3.28-1c.07,0,.31,0,.26,0S25.6,3.52,25.65,3.57Zm-.89,0s.26,0,.2,0S24.7,3.52,24.76,3.57Zm-2.26.25s0,0,0,.05,0,0,.07,0a27.93,27.93,0,0,0,3.17,0c.38,0,.75,0,1.18,0,.86-.08,1.89.13,2.62,0a10.22,10.22,0,0,0-2.28,0c-.44,0-.85-.09-1.28-.05-.27,0-.52,0-.81,0C24.25,3.79,23.32,3.8,22.5,3.82Zm5.33.79c.11,0,.35.11.54,0h.12A1.46,1.46,0,0,0,27.83,4.61Zm-1.06,0c.08,0,.32,0,.27,0S26.73,4.55,26.77,4.61Zm-1.37,0a.84.84,0,0,0,.66,0C25.83,4.61,25.57,4.48,25.4,4.61Zm-.64,0a.64.64,0,0,0,.47,0C25.06,4.57,24.88,4.46,24.76,4.61Zm-.93,0a.57.57,0,0,0,.39,0C24.16,4.46,23.84,4.59,23.83,4.61Zm-.69-1c.08,0,.23,0,.27,0C23.28,3.55,23.21,3.44,23.14,3.57Zm-.68,0c.1,0,.37.08.44,0C22.76,3.51,22.55,3.46,22.46,3.52Zm.78,1.39c-.25,0-.59-.15-.86,0A6,6,0,0,0,23.24,4.91Zm4.71,0a3.82,3.82,0,0,0-1.35,0,29.36,29.36,0,0,0-3.12,0,17,17,0,0,0,2.14,0A14.83,14.83,0,0,0,28,4.91Zm3.51-.06a7.91,7.91,0,0,0-1.62.06,4.66,4.66,0,0,0-1.86,0,11.6,11.6,0,0,1,1.2,0A10,10,0,0,0,31.46,4.85Zm.66,0a1,1,0,0,0-.61,0C31.64,4.94,32,5,32.12,4.85Zm.32,0a10,10,0,0,0,2,0A14.05,14.05,0,0,0,32.44,4.88Zm.86-.65s.07,0,.07,0,.19,0,.3,0H34c.1,0,.26,0,.32,0h-.67A.37.37,0,0,0,33.3,4.23Zm-.39,0a.4.4,0,0,0,.32,0C33.14,4.15,33,4.12,32.91,4.23Zm-1.1-.39c.11,0,.36.08.43,0C32.11,3.84,31.9,3.78,31.81,3.84ZM31,4.28s.07,0,.07,0a11.18,11.18,0,0,1,1.15,0c.16,0,.38.11.47-.08-.54-.11-1,.06-1.67,0C31,4.23,30.94,4.24,31,4.28Zm-.18.3a.38.38,0,0,0-.19,0s-.13,0-.15.08a1.24,1.24,0,0,0,.61,0Zm-1.89-2a.76.76,0,0,0,.37,0C29.08,2.52,29,2.49,28.88,2.59Zm-2.2,0a10.57,10.57,0,0,0,2,0A17.31,17.31,0,0,0,26.68,2.59Zm-.59,0a.54.54,0,0,0,.56,0A2.49,2.49,0,0,0,26.09,2.59Zm-6,0a1.22,1.22,0,0,0,.59.1c1.57-.07,3.43,0,5.08,0a.77.77,0,0,0-.54-.1c-1,0-2,0-3.05,0a11,11,0,0,1-1.15,0C20.66,2.54,20.27,2.38,20.05,2.54ZM33.69,2c.06,0,.27,0,.2,0S33.63,1.94,33.69,2ZM32.32,2s.26,0,.2,0S32.25,1.94,32.32,2Zm-1-.22c.06,0,.28,0,.22,0S31.23,1.72,31.29,1.77ZM31,2c.25,0,.14-.14,0,0Zm-.56,0c.06.07.44.12.46,0C30.73,2,30.58,1.85,30.46,2Zm1.39-1a8.51,8.51,0,0,0,2-.08A12.83,12.83,0,0,0,31.85,1ZM31,1c.07,0,.3,0,.25,0S31,.9,31,1ZM29.11,2c-.06,0-.17,0-.18,0S29.08,2.07,29.11,2Zm-.35-1a11,11,0,0,0,1.92,0A17.52,17.52,0,0,0,28.76,1Zm-.37,1c.19,0,.42.11.49,0C28.73,2,28.51,1.93,28.39,2ZM26.53.46a.6.6,0,0,0,.32,0C26.76.4,26.58.39,26.53.46Zm-2.36,0c.13,0,.44,0,.39,0S24.28.38,24.17.46Zm.25.25s.23.05.27,0S24.43.59,24.42.71ZM23.88.46c.05,0,.26,0,.19,0S23.81.41,23.88.46Zm-.05.27c.1,0,.26,0,.32,0C24,.72,24,.63,23.83.65Zm-.39,0c.06,0,.29,0,.24,0S23.38.63,23.44.68ZM23.16.43h.13C23.33.35,23.13.35,23.16.43Zm-.61,0c.17,0,.39-.11.08-.08C22.62.43,22.54.4,22.55.46Zm-.64.22a2.49,2.49,0,0,0,1.16,0A8.8,8.8,0,0,0,21.91.68ZM21.64,1a3.32,3.32,0,0,0,1.09,0c.13,0,.3.07.36-.08C22.63.92,21.93.76,21.64,1Zm-.51-.6a1,1,0,0,0-.59,0C20.7.41,21,.54,21.13.41Zm.54,0c-.1,0-.37,0-.34,0S21.69.49,21.67.43ZM21,1c.23-.05.52.13.62-.08A2.93,2.93,0,0,0,21,1Zm-.05,0a1.89,1.89,0,0,0-1.22,0A2.1,2.1,0,0,0,20.93,1Zm2.65,1a15.84,15.84,0,0,0-2.84,0c.15.12.35,0,.51,0s.12.05.17.05.14-.05.2-.05A14.22,14.22,0,0,0,23.58,2Zm.74,0c-.15,0-.52-.08-.59.05C23.92,2,24.19,2.11,24.32,2Zm.49,0s-.22,0-.22,0S24.78,2.08,24.81,2Zm.52-1c-.17-.14-.38,0-.57,0a5.08,5.08,0,0,0-1.6.06,3.44,3.44,0,0,0,1.11,0C24.63,1,25,1.17,25.33,1Zm0,1C25.25,2,25,1.93,25,2,25.1,2.06,25.27,2.11,25.37,2Zm.37-1c-.06,0-.3,0-.24,0S25.8,1,25.74,1Zm1,0c-.11,0-.4,0-.39,0S26.71,1,26.7,1ZM27.31,2c0-.11-.23-.1-.29-.05S27.21,2,27.31,2Zm.32-.3c-.11,0-.29,0-.37,0A.28.28,0,0,0,27.63,1.74ZM28,1a3.46,3.46,0,0,0-1.08,0V1C27.3,1,27.7,1.16,28,1Zm.25-.33c-.86,0-1.63,0-2.46,0-.08-.07,0-.16-.07-.22s-.46-.08-.61,0c.14,0,.4,0,.46.11s-.41.05-.61.08V.73c.29-.14.51.06.83.06.5,0,1.22-.06,1.77-.06C27.81.73,28.11.8,28.25.65Zm.07-.22c-.15,0-.49,0-.52,0C28,.45,28.29.49,28.32.43ZM17.52,5.59c-1.08,0-2.15,0-3.25.06-4,0-7.91,0-12,0-.72,0-1.48,0-2.25,0v.18H2.62a35.71,35.71,0,0,0,4.14,0c1.39.16,3,0,4.32.05A8.21,8.21,0,0,1,12.85,6c.25-.15.58-.06.88-.06,1.28,0,2.54,0,3.79-.07h0ZM35,6.23c-.64,0-1.28,0-1.9,0-.2,0-.41,0-.61,0-1.26,0-2.54,0-3.78,0-.15,0-.3-.06-.45-.06-1.46,0-3.06,0-4.56,0-.29,0-.58-.07-.86-.06-1.35.06-2.66,0-3.95,0h-1.4v.11h0c.71,0,1.41,0,2.09.08.22-.14.51,0,.81,0,2.93,0,5.95.06,9,0l1.18,0c.82,0,1.55,0,2.38,0s1.41,0,2.1,0ZM17.52,6.16H16.11c-1.29,0-2.6.06-3.95,0-.28,0-.57.07-.86.06-1.5,0-3.1,0-4.56,0-.15,0-.3.06-.44.06-1.25,0-2.53,0-3.78,0-.2,0-.41-.06-.62,0-.62,0-1.25,0-1.9,0v.14c.69,0,1.39,0,2.1,0s1.56,0,2.38,0l1.18,0c3,0,6,0,9,0,.29,0,.58-.12.81,0,.68,0,1.38-.07,2.09-.08h0Z"/></g></g></svg>