<svg xmlns="http://www.w3.org/2000/svg"  viewBox="0 0 35.27 53.83"><defs><style>.cls-1{fill:#623c25;fill-rule:evenodd;}</style></defs><title>13_l</title><g id="Layer_2" data-name="Layer 2"><g id="Layer_1-2" data-name="Layer 1"><path class="cls-1" d="M5.1,5.43a.72.72,0,0,1,.72-.49,1.12,1.12,0,0,1,.64.71A2.78,2.78,0,0,1,6.2,7.23C4.86,9.49,2.71,10.82,1.34,13c0,.08,0,.17-.05.25a4.64,4.64,0,0,0-.79,2c.32.41.06,1.39.19,2a5,5,0,0,0,.15-1.2c0-.27-.08-.56.09-.71-.08.41,0,1,0,1.52,0,.38-.16.85.07,1.1.08-.86,0-1.86.07-2.68.2.17.08.53.08.85v1.25c0,.41-.1.82.14,1,.12-1,0-2.17.12-3.08a2.44,2.44,0,0,1,.05,1.12c0,.58-.05,1.21-.05,1.75,0,.15,0,.46.14.51.07-.81.09-2,.1-2.89,0-.15-.08-.37.07-.46.09,1,0,2.42,0,3.52.13,0,.25.17.33.16,0-.87.09-1.84.07-2.78,0-.21-.05-.4-.05-.6a5.19,5.19,0,0,1,.5-1.75A2,2,0,0,1,3,13.37c.09-.12.15-.28.23-.38.29-.38.7-.62,1-1l.19-.08c.45-.54,1-.92,1.5-1.45a7.31,7.31,0,0,0,.43-.65c.14-.2.37-.33.48-.58a7.62,7.62,0,0,0,.28-.95c.45-.67.27-2.28.24-3.38A1,1,0,0,1,7,4.28,1.73,1.73,0,0,0,5,4.39c-.06.28-.28.45-.31.77a1.8,1.8,0,0,0,.47,1.36c.32.19,1,.27,1.12-.22a2.17,2.17,0,0,0-.19-1,.62.62,0,0,0-.5,0c-.19.12-.18.44-.33.55s-.14-.3-.12-.38m.52,33.78A1.68,1.68,0,0,0,5,37.27a2.22,2.22,0,0,0-1.22-.05c-.47.15-.64.69-.78,1.22a4.33,4.33,0,0,0-.17.63,3.3,3.3,0,0,0,.09.93,2,2,0,0,0,.6,1.06,2.77,2.77,0,0,0,.67.66,2.22,2.22,0,0,0,1.31.11,3.14,3.14,0,0,0,1.19-.66,3.05,3.05,0,0,0,.67-1.93,10,10,0,0,0-.05-1.56c-.06-.26-.25-.48-.22-.76a3.84,3.84,0,0,0-.88-1.18,2.74,2.74,0,0,0-.76-.3c-.15,0-.27-.13-.43-.16a8.1,8.1,0,0,0-1.38-.06,2,2,0,0,0-1.72.6c-.09.14-.17.36-.28.52a4.61,4.61,0,0,0-.6,2.9c.05.3,0,.69,0,.95a3,3,0,0,0,.16.44,4.37,4.37,0,0,0,.53,1c.39.53.75,1.06,1.12,1.58C3.94,44.45,5.7,46,6.29,48c0,.1,0,.23.07.35a1.46,1.46,0,0,1,.12.33A1.09,1.09,0,0,1,6,49.74c-.25.08-.49,0-.48-.22.17-.06.25.07.4,0A.86.86,0,0,0,6.22,49a.75.75,0,0,0-1-.85,1,1,0,0,0-.43.9c0,.45.2.67.31,1,.39.29.78.79,1.45.54.43-.15.59-.71.76-1.14a9.76,9.76,0,0,0-.09-1.83,6.21,6.21,0,0,0-.62-1.91c-.25-.42-.53-.77-.74-1.17a.74.74,0,0,0-.24-.11c-.1-.28-.36-.4-.5-.63s0-.19-.1-.27a7.6,7.6,0,0,0-.62-.66A9.93,9.93,0,0,1,2.6,40.27a3.64,3.64,0,0,1,.09-2.15A5.07,5.07,0,0,1,3,37.41a1.58,1.58,0,0,1,1.28-.66,2.69,2.69,0,0,1,.46.17,1.24,1.24,0,0,1,.8.57,1.13,1.13,0,0,1,.34.76,3.84,3.84,0,0,1,.12.52,2.45,2.45,0,0,1-.62,1.15c-.18.06-.66,0-.57-.28.35-.08.71-.1.85-.43m-3.42-21c0,.31-.15.68,0,.89.11-.18,0-.4,0-.62a5.31,5.31,0,0,0,0-1.5,8.11,8.11,0,0,0,0,1.23m4.31-4.32a1.34,1.34,0,0,1-.12-.3,2.4,2.4,0,0,0-1.29-.73,1.09,1.09,0,0,0-.17,0,1.72,1.72,0,0,0-1.74.55,3.08,3.08,0,0,0-.54.9,1.88,1.88,0,0,0-.31.71c0,.21.07.31.09.49,0,.36-.12.81.17,1.12.08-.34,0-.8.07-1.07.21.34-.19,1.33.26,1.48,0-.22,0-.53,0-.82s-.11-.45,0-.55c.14.32-.18,1.37.19,1.59a8.15,8.15,0,0,0,0-1.12c0-.2-.07-.51.1-.5.06.62,0,1.13,0,1.7.08,0,.08.05.15,0,.16-.5,0-1.27.14-1.72.11.48-.1,1.42.1,1.67.16-.07.08-.35.09-.55a3.11,3.11,0,0,1,.1-1c.12.38,0,1,.07,1.48.18-.1.07-.46.09-.72s-.06-.62.07-.79c.08.36,0,1,0,1.37.08,0,.14,0,.22,0a5.29,5.29,0,0,1,0-1.28c.16.29,0,.79.08,1.17.43,0,.11-.85.28-1.12.17.13,0,.54.12.68a1.7,1.7,0,0,0-.21-1.74c-.12-.09-.31-.1-.39-.25.17-.29.43.1.62.11a6,6,0,0,1,.34.9.47.47,0,0,0,.45-.08c-.07-.21-.25-.3-.19-.65.08-.07.16-.19.26-.09s-.11.11-.12.22.11.36.26.41.16-.48.39-.54c.19.25-.17.52-.27.71.06.23.26.23.46.3s.13.14.19.16.14-.12.16,0,.09.7,0,.79,0-.25-.1-.3a4.91,4.91,0,0,0,0,1.15c.1-.2,0-.46.07-.69.09,0,.09.1.15,0a3.84,3.84,0,0,0-.5-3.14M2.36,18.72c0,.15,0,.56.17.51A4.5,4.5,0,0,0,2.62,18c0-.28,0-.71-.16-.8,0,.5-.09,1-.1,1.48m.31.54a.16.16,0,0,0,.24.08c0-.38,0-.71,0-1s0-.77-.19-.85c-.1.52,0,1.25-.1,1.8m.41.06h.07a4.28,4.28,0,0,0,.09-1.26c0-.17.07-.48-.14-.46a8.86,8.86,0,0,0,0,1.72m.26-.85c0,.29,0,.64,0,.82,0,0,0,0,.07,0,.21,0,.09-.31.1-.47s.19-1.11-.1-1.17a1.91,1.91,0,0,0-.09.79m.33-.08c0,.32,0,.72,0,.93,0,0,0,0,.08,0a1.23,1.23,0,0,0,.09-.62c0-.38.08-.83-.09-1.07a1.68,1.68,0,0,0-.1.74m.38.93a1.26,1.26,0,0,0,.07-.52,3.78,3.78,0,0,0-.07-1.18,4.42,4.42,0,0,0,0,1.7m.17-1v.52c0,.18,0,.45.12.49a2.41,2.41,0,0,0,.09-.82,5.72,5.72,0,0,0,0-1c-.25.05-.19.55-.19.84m.12-5.95v-.08c-.06,0-.1,0-.1.08Zm.21,6.22c0,.29-.09.72.15.77.12-.18,0-.54.07-.87a2.84,2.84,0,0,0-.07-1.2c-.24.19-.14.81-.15,1.3m.24,23.69a.17.17,0,0,0,0,.13c.08,0,.09-.13,0-.13m0-29.91c.18,0,.07-.33,0-.43a.78.78,0,0,0,0,.43m.1,5.65c0,.42,0,.9,0,1.23,0,0,0,0,0,.05H5a13.73,13.73,0,0,0,0-2.4c-.2.26-.12.72-.12,1.12M5.1,43c0-.24.07-.56,0-.66,0,.2-.14.5,0,.66m0-30.51a.89.89,0,0,0,0-.68c0,.23-.13.54,0,.68m0-.79c0-.07,0-.16-.05-.16s0,.16.05.16m0,7.42h.07a7.09,7.09,0,0,0,0-2,7.53,7.53,0,0,0-.09,2m.11-2.89a.45.45,0,0,0-.09.35c.14,0,.2-.28.09-.35m.08,27c0-.28.11-.81,0-1,0,.28-.14.77,0,1m0-30.67c.15-.09,0-.47,0-.63-.15.07-.16.53,0,.63m0-1.06c0-.07,0-.22,0-.19v.19Zm.07,4.88c.15,0,.16-.18.26-.24s.17,0,.17-.12c-.15-.06-.37-.29-.52-.1.11.06,0,.34.09.46m0,2.05a5.43,5.43,0,0,0,0,.57s0,0,0,.05h.07A2.56,2.56,0,0,0,5.65,18a9.16,9.16,0,0,0,0-1.28c-.29.36-.14,1.1-.14,1.72m.14-5.82c0-.14.09-.3,0-.35,0,.12-.09.3,0,.35M5.74,17c0,.73,0,1.24,0,1.91.11,0,.15-.12.21-.19,0-.47,0-1,0-1.5,0-.27,0-.59-.12-.74-.2,0-.14.32-.14.52m.12,27a5,5,0,0,0,0-1.39,1.9,1.9,0,0,0,0,1.39m0-31.33c.18-.19.09-.66.07-1a1.15,1.15,0,0,0-.07-.54,7.3,7.3,0,0,0,0,1.55m.29,3.11s-.2-.21-.29-.08.3.21.29.08M6,19.34c.3-.06-.08-.31,0,0ZM6.15,43c0-.1,0-.32-.07-.32S6,43,6.15,43M6.1,18.58c.27-.22,0-.86.19-1.2-.16-.18.08-.66-.14-.77a8.57,8.57,0,0,0-.05,2m.26-2.35c0-.1-.19-.14-.28-.08a.15.15,0,1,0,.28.08M6.1,43.85c.06,0,.08-.33,0-.36a.55.55,0,0,0,0,.36M6.17,13c0-.07,0-.16,0-.17s0,.15,0,.17m.12-1.8c0,.55.06,1.15,0,1.63,0,.14-.16.36.07.42.12-.34,0-1,.26-1.1a7.18,7.18,0,0,0,0-.81c-.12,0,0,.15-.17.11-.12-.37,0-1-.09-1.26a4,4,0,0,0-.1,1m.1,32.22a1.32,1.32,0,0,0,0-.71c-.06.21-.11.57,0,.71m0-.79c0-.07,0-.23,0-.27a.21.21,0,0,0,0,.27m0-23.25c.12,0,.06-.2,0-.3s-.09.24,0,.3m0-1.06c.15-.06,0-.27,0-.41a5.24,5.24,0,0,0,0-1.26,9.41,9.41,0,0,0,0,1.67m0,25.49c0-.08.05-.09,0-.17s-.1.16,0,.17m0-1.59c0-.14.08-.36,0-.44a.81.81,0,0,0,0,.44m.14-25c0,.25-.06.7.07.88a7.42,7.42,0,0,0,0-1.64c-.15.17-.1.48-.1.76M6.6,44.75c0-.25.17-.6,0-.79a1.62,1.62,0,0,0,0,.79m0-25.68s0-.1.07-.11,0-.18-.09-.19-.08.27,0,.3m0-8.37c.23-.18.08-.66.1-1-.21.2-.14.64-.1,1m.24,8.42c0-.17.09-.48,0-.62a.83.83,0,0,0,0,.62m0-5.91A2.47,2.47,0,0,0,6.81,12a3,3,0,0,0,.05,1.21M6.81,42.07c.1,0,.09-.14.05-.19s-.08.15-.05.19m.05-6.35a.65.65,0,0,0,0-.39c-.12,0-.09.36,0,.39m0-21.78a.73.73,0,0,0-.07-.49c-.07.11-.07.46.07.49m0-4.25a1.89,1.89,0,0,0,0,.43c.14,0,0-.32,0-.43M7.08,46a.38.38,0,0,0,0-.33,1.17,1.17,0,0,0,0,.38s.08,0,.07,0m0-1.36c.1,0,.1-.2,0-.17s0,.11,0,.17m0-1.23c.09,0,.07-.26,0-.25a.36.36,0,0,0,0,.25m.08-33.29a3,3,0,0,0,0-.6c-.18,0,0,.45,0,.6m0,26.08s.05-.21,0-.21-.06.2,0,.21m0-.54c0-.09,0-.26,0-.3s-.07.26,0,.3m0-25.13a.52.52,0,0,0,0-.39c0,.13-.08.32,0,.39m0-1.23c0-.1,0-.23,0-.3s0,.29,0,.3m.14,37.52c.09,0,.07-.12.05-.19s-.06.1-.05.19m.05-31.76a.42.42,0,0,0,0-.3c0,.06,0,.27,0,.3M8.22.27c.15-.1,0-.24-.17-.16a.14.14,0,0,0,.17.16M32.3,2.4h1.59a.57.57,0,0,1,.25.11,6.09,6.09,0,0,0,1.13,0v.4c-.61,0-1.22,0-1.83-.06-.24,0-.45.05-.69.05-1.8,0-3.75-.16-5.54-.11-1.06,0-2,0-2.94,0-.73,0-1.47.09-2.19.09-.24,0-.49-.08-.73-.09-.85,0-1.54,0-2.2,0a18.73,18.73,0,0,1-3,0,1.67,1.67,0,0,1-.81.08c-.31,0-.62.05-.93,0-.12,0-.24-.08-.35-.08-.3,0-.6,0-.91,0h-.9c-1.29.07-2.37,0-3.34.09,0,3.88,0,8.43,0,12.33a4.68,4.68,0,0,0,0,.84c0,.14.17.11.22.25s-.22-.09-.19.11c.05,3.28-.12,6.27,0,9.25A3.39,3.39,0,0,0,9,26.93c-.17.19-.09.48-.09.71,0,1.74,0,3.59,0,5.48.05,3,0,6.09,0,9.28,0,1,0,2.07,0,3.08,0,1.51-.1,3.1,0,4.73a5.57,5.57,0,0,1-.1,1.47c-.05,0,0,.08,0,.08.38,0,.81,0,1.27,0s.87,0,1.28,0c.9,0,1.81,0,2.6,0s1.8,0,2.67,0a11.34,11.34,0,0,1,1.3,0c.45,0,.87,0,1.29,0,.22,0,.43.08.65.09.73,0,1.4,0,2.09,0,1.89.06,3.86,0,5.81.05a5.23,5.23,0,0,0,.69,0c.48,0,.94,0,1.41,0,.24,0,.48,0,.71,0s.34.08.51.09.3,0,.47-.06c.71,0,1.41,0,2.1.06.37,0,.76,0,1.12,0h.44v.31c-.4,0-.81,0-1.2,0l-2.08,0h0c-2.06-.05-4,0-6,0l-7.79-.06c-.66,0-1.35,0-2,0-.47,0-.95-.06-1.43,0a6.27,6.27,0,0,0-1.9.27c-.33.12-.48.48-.79.6-.13.15-.15.55-.45.41,0-.75.76-.95,1.24-1.28-1-.07-2.13,0-3.12,0A2.66,2.66,0,0,1,8.7,52a21.55,21.55,0,0,1,0-3.68c0-.42,0-.85-.05-1.26,0-1.47,0-3.06.05-4.61,0-.34-.08-.71-.07-1.06s.08-.61.07-.9c-.1-3.34-.07-6.66-.07-9.91a4.81,4.81,0,0,1,.07-1.17c-.2-1.8.08-3.95-.05-5.68a.82.82,0,0,0-.07-.3,28.44,28.44,0,0,0,.07-3.16c0-2.37,0-5.07,0-7.48,0-.26,0-.51,0-.76s.07-.74.07-1.09c0-2.51-.05-5.27-.05-8a.74.74,0,0,1,.72-.46c1.4,0,3.16.1,4.55,0-.67-.54-1.45-.93-1.7-1.94A10.25,10.25,0,0,0,10,.44c-1.37,0-2.65,0-4,0-.13.2.07.52-.12.6,0,.08.1.08.1.19,0,.66,0,1.51,0,2.21.14.16.43,0,.52.19.3-.07,1-.16,1.1.19a4.06,4.06,0,0,1,0,.65c0,.32,0,.71,0,1,0,.09.07.18.07.24,0,.35-.08.73-.07,1.12,0,.12,0,.25,0,.36,0,.67-.09,1.37,0,2s0,1.53,0,2.3c0,.61,0,1.31,0,2s.06,1.19,0,1.78c0,1.27,0,2.42-.07,3.6a2.1,2.1,0,0,1-.07.9,9.81,9.81,0,0,1-2,.11c-.51,0-1,0-1.64,0-.3,0-.59-.08-.89-.08-.82,0-1.62.06-2.4.08C.34,21.37.45,23.4.41,25c0,.56-.06,1.14,0,1.69.08,1.42,0,2.94,0,4.45,0,.66,0,1.33,0,2a15.51,15.51,0,0,0,0,1.67c2.49.06,4.73.17,7,.21.32.29.2,1.25.19,2s.05,1.32.05,2c0,1.43-.09,2.93-.1,4.37,0,.25,0,.51,0,.76,0,1.9,0,3.77,0,5.62a3.86,3.86,0,0,1,0,.68c0,.11-.09.1-.15.25s0,.48-.26.54-.29-.09-.43-.11a3.06,3.06,0,0,0-.74.06c-.08.73,0,1.5-.07,2.24a2.11,2.11,0,0,0,1.12,0c1.28.14,2.71,0,3.81.08.22,0,.62-.2.62.23-1.69.05-4.08.16-5.81.05,0-.89.11-1.77,0-2.7A1.94,1.94,0,0,1,4.41,49a2.29,2.29,0,0,1,.52-1.07,1.07,1.07,0,0,1,1.07,0,10.56,10.56,0,0,0-2.4-3.47c-.09-.11-.17-.24-.26-.33s-.19-.09-.26-.16-.12-.21-.2-.3-.19-.14-.26-.22-.18-.32-.31-.47-.23-.26-.33-.4a6.83,6.83,0,0,1-1.19-2.1,4.39,4.39,0,0,1-.22-1.7,2.25,2.25,0,0,1,.08-.24c0-.33,0-.69,0-1A2.85,2.85,0,0,1,.81,37c0-.1.13-.17.17-.28s.05-.29.09-.38a13.54,13.54,0,0,1,1-1.2,13.65,13.65,0,0,0-1.88-.09V19.59c.22-.39.84-.18,1.29-.27-.15-.29-.47-.43-.7-.69a6.93,6.93,0,0,1-.69-1.39,6.37,6.37,0,0,1,0-1.85,10.34,10.34,0,0,1,.86-2.1,6.19,6.19,0,0,1,.48-.74c.17-.23.33-.5.5-.71s.29-.24.4-.38a4,4,0,0,1,.31-.41A14.08,14.08,0,0,0,3.79,9.77c.08,0,.09,0,.17,0A5.15,5.15,0,0,1,4.67,9c.07-.08.08-.2.14-.28s.34-.3.48-.49.22-.42.36-.6a1.59,1.59,0,0,0,.47-.9c-.44.12-1,.33-1.35-.08a2.37,2.37,0,0,1-.34-1.72,1.46,1.46,0,0,1,1.39-1.2c.06-.1-.14,0-.12-.16,0-1.06,0-2,.07-2.95,0-.23-.1-.42.05-.6.36,0,.89.08,1.23.05.1,0,.07.07.08.14S7.22,0,7.32,0c1.6,0,3.22.14,4.9,0,0,.09.17.08.24.13a3.19,3.19,0,0,0,.33,1.12,3.92,3.92,0,0,0,.72.69,5.06,5.06,0,0,0,.83.27c.11,0,.21.14.31.16a2.06,2.06,0,0,0,.43,0c.62,0,1.44.11,2,.08a1.86,1.86,0,0,0,.34-.05h.9a1.26,1.26,0,0,0,.33.05A1,1,0,0,0,19,2.4h5.3s0,0,0,0,.27,0,.21,0h.15a.05.05,0,0,0-.05,0,.27.27,0,0,0,.26,0,.48.48,0,0,1-.12,0H28a.14.14,0,0,0-.09,0c.06.09.36.06.45,0l-.25-.05h.59a.46.46,0,0,0-.24.08c.35-.09.67.08,1-.08a2.16,2.16,0,0,1-.36,0h.48s0,0,0,0,.13,0,.16,0,0,0-.07,0h.8a.14.14,0,0,0-.09,0,.37.37,0,0,0,.39,0,1.08,1.08,0,0,1-.18,0h1.58c-.25,0-.46,0-.62,0a1.08,1.08,0,0,0,.81,0"/><path class="cls-1" d="M1.86,21.09a6.9,6.9,0,0,1,2,0c.22,0,.45,0,.66,0a6.53,6.53,0,0,0,.88,0c.48,0,1-.05,1.41,0a1.3,1.3,0,0,0,.59,0c.13.21,0,.41,0,.63,0,.83,0,1.68,0,2.53s-.06,1.41-.07,2.1c0,.88.07,1.75.07,2.6a5,5,0,0,1-.07.54c0,.36.09.76.07,1.2a3.2,3.2,0,0,1-.07.33c0,.37,0,.78,0,1.18,0,.23,0,.46,0,.68s.11.4,0,.51-.07-.15-.12-.3c-.51,0-1,.06-1.62.06-.9,0-1.94-.07-2.76-.06a2,2,0,0,1-.4.06A4.07,4.07,0,0,0,1.79,33c-.11-1.06,0-2.16-.05-3.33,0-.91,0-1.84,0-2.76,0-.24.07-.5.07-.76s-.05-.56-.05-.84c0-.85.09-1.89.05-2.81,0-.11-.05-.22-.05-.33s.06-.18.07-.28-.08-.52.05-.76m.07,2.1c0,.28.06.56.05.85-.1,2.75,0,5.46,0,8.24.2-.26,0-.58,0-.88,0-.67.06-1.4,0-2.12,0-.49,0-1,0-1.45,0-.75,0-1.55,0-2.32,0-1,0-2,0-2.92,0-.4,0-.8,0-1.12,1.69.28,3.3,0,4.93.19a12.75,12.75,0,0,0,.07,1.5c-.05,1.71,0,3.57,0,5.41,0,1.33,0,2.82,0,4-1.53.06-3.33.11-4.91.06-.17,0-.27-.14-.26.08s.52.13.64.14c1.29,0,3.09.12,4.64,0,0-3.83.06-7.89,0-11.59-1.89,0-3.41,0-5.27,0,0,.65-.06,1.3-.07,2m.31,2.21c0,1.26-.08,2.42,0,3.6s-.05,2.14.07,3.19a11.15,11.15,0,0,0,0-2.1c0-.51.05-1,.07-1.55s0-.82,0-1.23c0-1.34,0-2.67,0-3.93,0-.32,0-.68,0-1,0-.15.1-.4-.07-.49-.06,1.09-.06,2.42,0,3.52m.31-2.81c0,3.07,0,6.28,0,9.33.27-.15.16-.73.14-1-.06-.74.06-1.48.05-2.23,0-2-.06-4.06,0-5.87,0-.24.17-.53-.12-.68-.14.11-.05.31-.05.46m4,9.74a1.56,1.56,0,0,0-.43-.57c-.16-.16-.31-.33-.48-.52s-.7-1-1-1c-.12,0-.31.24-.43.36a4.34,4.34,0,0,0-.38.44,8.85,8.85,0,0,0-1.08,1.17s0,0,0,0c1.27.12,2.58,0,3.84,0M2.86,28.57c0,.83-.08,1.79,0,2.59a.62.62,0,0,0,.1.35c0-2.41.14-5.27.09-7.61,0-.11,0-.22,0-.35,0-.34.06-1-.19-1.07,0,2.09,0,4.19,0,6.09m1-6.44c.27,0,.48.13.64,0a7,7,0,0,0-1.57,0c.28.17.61,0,.93,0m-.67,3.74c-.07.9,0,2.1-.07,3,0,.43,0,.79,0,1.25s-.18.88,0,1.09c.16-1.8.05-3.87.07-5.59-.14,0,0,.17-.05.25m.15-3.55c-.08,0-.24-.06-.24.05s.24.08.24-.05m-.1,3a8.82,8.82,0,0,0,0-1.15,3,3,0,0,1,.12-.84c.06,1,0,2.09,0,3,0,.7-.06,1.51,0,2.19,0,.33,0,.62,0,.95s0,1,.07,1.5c.24-.3.06-.77.07-1.14.07-2.22.06-4.47,0-6.66-.08-.15-.14.09-.22,0s0-.38-.16-.36c.08.84,0,1.75.09,2.49m.31-2.51c0-.09.05-.15,0-.22s-.16,0-.17.05.05.19.17.17m.31.08c-.1,0-.24-.11-.26,0s.2,0,.26,0m-.19,6.76a8.36,8.36,0,0,0,0-2.45,14.26,14.26,0,0,0,0,2.45m.07-3.19c.11-.14,0-.3,0-.52-.1.09-.14.44,0,.52m0,.63a.72.72,0,0,0,0-.44c-.12,0-.08.37,0,.44m0-1.23c0-.35.09-.74-.05-.92.05.38-.1.7.05.92M3.69,24.5c.11-.19.19-.91,0-1,0,.38,0,.68,0,1m.27.16a1.7,1.7,0,0,0,0-.81c-.14.12-.08.61,0,.81m0,.41c0-.1,0-.13,0-.24s-.08.22,0,.24M5,23.19c-.35,0-.81-.17-1.1.06A1.59,1.59,0,0,0,5,23.19M4.12,29.9c0-.18.13-.49,0-.57a1.16,1.16,0,0,0,0,.57m0-.6c.08,0,.11-.33,0-.38a.7.7,0,0,0,0,.38m.09-3.95s0-.17,0-.17-.05.16,0,.17m2.1-2.49c-.33.38-.81.79-1.15,1.2a2.57,2.57,0,0,0-.33.47,5.88,5.88,0,0,0,0,1.58c0,.57,0,1.16,0,1.66s0,.8,0,1.21c0,.26-.07.51-.07.73s.45.6.64.79c.47.48.84,1.09,1.29,1.5.06.06.16.19.26.14,0-3.26,0-6.59,0-9.93-.32,0-.44.43-.64.65m-.67-.21c-.11,0-.27-.1-.36,0,.1,0,.25.11.36,0M5.84,22c0,.1-.16.05-.22.11a.8.8,0,0,0,.46,0c0-.07-.09-.1,0-.24a.84.84,0,0,1-.33,0c0,.05-.08.05-.1.08s.23,0,.24.06"/><path class="cls-1" d="M1.91,15.5A3,3,0,0,1,2,16.61a16.23,16.23,0,0,1-.07,2.11,1,1,0,0,1-.1-.58c0-.91.06-1.81.1-2.64M12.63,8c-.06,1.54-.09,3.34,0,4.91a44.68,44.68,0,0,0,0-4.91m0-1.66a3.26,3.26,0,0,0,0,1.39,3.6,3.6,0,0,0,0-1.39m.19.79a18.26,18.26,0,0,0,.09,2.59,15.77,15.77,0,0,0,0-2.32c0-.12,0-.32-.12-.27m0,2.67a13.36,13.36,0,0,0,0,2.29,3.11,3.11,0,0,0,0-1.12c0-.39.12-.88-.07-1.17m0-3.9c.08,0,.11,0,.1-.11s-.11,0-.1.11m.22,0c0,.07,0,0,.07.08,1.8,0,3.75,0,5.59,0,.79,0,1.63-.13,2.39-.08.11,0,.2,0,.31,0,1.37.06,2.54,0,3.93,0,1.76,0,3.58,0,5.38,0C31.58,6,32.39,6,33.21,6s1.38,0,2.06,0V5.81H35c-.33,0-.66.09-1,.08s-.69-.11-1-.11-.87.08-1.33.06-.9,0-1.36,0c-1.91,0-3.87,0-5.71,0-.93,0-1.83,0-2.69,0a3.2,3.2,0,0,1-.7-.11c-.28.16-.65,0-1,0-2.11,0-4.47,0-6.51,0-.16,0-.42-.09-.54.11M14.56,9c-.06.12-.1.46,0,.51s.08-.47,0-.51m.57-2.81c0,.24.5.2.43,0s-.26,0-.43,0M17,6.25c.12.06.49.12.51-.08a.89.89,0,0,0-.51,0v.08m1.44,0a6.65,6.65,0,0,0,1.26-.06,3.56,3.56,0,0,0-1.26,0v.06m1.81,0c.23,0,.7.11.8-.11a4.28,4.28,0,0,0-.8,0v.11m3.43,0c.17.06.28-.1,0,0m1.81,0a1.53,1.53,0,0,0,.85,0,1,1,0,0,0-.85,0m1.74,0a1,1,0,0,0,.9-.14c-.33.07-.69,0-.9.14m2.69,0c0,.08.2.08.21,0a.19.19,0,0,0-.19-.06.15.15,0,0,1,0,.08m.5.06C31,6.3,31.45,6.4,32,6.3c-.08-.16-.31-.07-.46-.08a3.73,3.73,0,0,0-1.16.06v.08M10.22,4c0-.16-.12-.17-.19-.25s.15,0,.22,0,.12.3,0,.3m0,2.13A.28.28,0,0,1,10.06,6c.28,0,.06-.52.16-.79a2,2,0,0,1,0,.9m-.08,27.45c0-.08-.08-.34.05-.33,0,.1,0,.32-.05.33m.05-10.1c-.1-.07-.05-.47-.05-.63.1.12,0,.43.05.63m0-2.46c-.13-.15,0-.34,0-.57a1.09,1.09,0,0,1,0,.57m0-9.16a1,1,0,0,1,0-.79,2.66,2.66,0,0,1,0,.79m0,20.35c-.08,0,0-.18,0-.27a.36.36,0,0,1,0,.27m0-3.87c0-.14-.08-.38.05-.44,0,.14,0,.47-.05.44m0-1.12a.79.79,0,0,1,0-.43c0,.09.12.38,0,.43m0-2.26c-.08,0-.05-.31,0-.39.11.07,0,.26,0,.39m0-3.63c0-.07,0-.19.05-.2s0,.17-.05.2m0-1.15c-.09-.11,0-.38,0-.49a1.3,1.3,0,0,1,0,.49m0-1.23c-.07-.12-.13-.56,0-.65,0,.21,0,.37,0,.65m0-9.58c-.07,0,0-.07,0-.13s.05.1,0,.13m0,39.32s0,.21,0,.17,0-.1,0-.17m0-30.8c.05,0,.09.25,0,.24V17.9m.05-7.12c-.08,0-.06-.23,0-.28s0,.18,0,.28m0-.39c0-.06-.05-.11,0-.16s.1.18,0,.16m0-3.16c-.09-.05,0-.23,0-.33s0,.27,0,.33m0-2.27c-.1,0,0-.11,0-.18a.14.14,0,0,1,0,.18m0-.41c-.08-.07,0-.26-.07-.4.09,0,.06.25.07.4m0,7.45c.11,0,0,.17,0,.25s0-.17,0-.25m.31,22.65a6.68,6.68,0,0,1,0-2.1,9.78,9.78,0,0,1,0,2.1m0,.9a.9.9,0,0,1,0-.54c.07.12.08.48,0,.54m0-4.39c0-.18-.1-.49,0-.55,0,.18.1.45,0,.55m0-6c0-.67,0-1.34,0-2a4.67,4.67,0,0,1,.05,1.19c0,1.45,0,2.92,0,4.34a3.37,3.37,0,0,1-.05-1.42c0-.22-.08-.43-.08-.65,0-.45.07-.93.08-1.5m0-2.13a17.45,17.45,0,0,1,0-2.18,12.43,12.43,0,0,1,.07,1.39,2.05,2.05,0,0,1-.12.79m.08,21.86a.91.91,0,0,1-.05-.69c.12.14,0,.47.05.69m0-1.2a2,2,0,0,1,0-.85,2.18,2.18,0,0,1,0,.85m0-1.23a7.3,7.3,0,0,1,0-1.07,2,2,0,0,1,0,1.07m0-9.91a2.28,2.28,0,0,1,0-1,2.61,2.61,0,0,1,0,1m0-3.49c0-.1-.08-.23.05-.27a10.83,10.83,0,0,1,0,1.14c0,.17.09.41-.05.52a9.21,9.21,0,0,1,0-1.39m0-13.83a3.73,3.73,0,0,1,0-.82,9.83,9.83,0,0,1,.07,1.55c0,1.34,0,2.91,0,4.21,0,.17.12.44-.05.54-.06-1.84,0-3.73,0-5.48m0-9.28a6.6,6.6,0,0,1,0-1.72c.18.11.07.76.07,1.09,0,1,0,2.26,0,3.25a17.43,17.43,0,0,1,0-2.62m0,43.22c-.13-.25,0-.59-.05-.93.14.15.05.63.05.93m0-2.89c0-.06-.09-.27,0-.27,0,.17,0,.28,0,.43-.17.3.13.88-.07,1.12a6.84,6.84,0,0,1,0-1.28m0-.3c-.1-.08-.07-.27,0-.38s.06.29,0,.38m-.08-4.7v-.13c.08,0,0,.08,0,.13Zm0-.3a2.35,2.35,0,0,1,0-.7,2.2,2.2,0,0,1,.05.7s-.05,0-.05,0m0-4.17a.32.32,0,0,1,0-.27c0,.06.07.2,0,.27m0-22.43a1.77,1.77,0,0,1,0-1.09,5.58,5.58,0,0,1,0,1.09m0-1.47a4.88,4.88,0,0,1-.05-1.67,5.1,5.1,0,0,1,.05,1.67m0-3.71c-.09-.08-.05-.27-.05-.39.1.07.06.27.05.39m0,35.77s.09.2,0,.19,0-.16,0-.19m0-33.75a11.76,11.76,0,0,1,0-1.78,9.64,9.64,0,0,1,0,1.78m0,36.48s.07.21,0,.22,0-.14,0-.22m1.07-43.8a1.48,1.48,0,0,1-.86,0c.2-.13.65,0,.86,0m-.77,38.31c0-.1,0-.16,0-.3.1,0,0,.22,0,.3m0-1.52a.42.42,0,0,1,0-.25c.06,0,.09.24,0,.25m.05-8.38a.24.24,0,0,1,0-.3.64.64,0,0,1,0,.3m0-22.32a.87.87,0,0,1,0-.77,2.83,2.83,0,0,1,0,.77m-.05-4.2a3,3,0,0,1,.05-1.29,13.74,13.74,0,0,1,0,2.4c-.16-.29,0-.73-.05-1.11m0,43.08s0-.17.05-.16,0,.18-.05.16m0-14.54c-.08,0-.05-.22,0-.22s0,.13,0,.22m0-.63c.05.06.08.22,0,.24s0-.13,0-.24m0-.6a.5.5,0,0,1,0-.33c.07.1,0,.17,0,.33m0-3c-.07,0-.1-.18,0-.16v.16m0-1.74a2.54,2.54,0,0,1,0-.79c.11.2,0,.52,0,.79m0-2.29a1,1,0,0,1,0-.58,1,1,0,0,1,0,.58m0-1c-.1-.06,0-.16,0-.3a.34.34,0,0,1,0,.3m0-12.08a1.61,1.61,0,0,1,0-.93,2,2,0,0,1,0,.93m-.08,16.78V29.6c.09,0,0,.11.05.17Zm.05-2.92c0,.08,0,.09,0,.19s-.06-.23,0-.19m0-.49h-.05v-.14c.08,0,0,.08.05.14m0-4.61c-.06-.07,0-.11-.05-.22s0,.15.05.22m0-.47h-.05v-.16c.09,0,0,.1.05.16m0-.76c-.06,0-.08-.26,0-.25s0,.2,0,.25m0-4.18c-.08-.05,0-.23,0-.33s0,.25,0,.33m0-.65c-.07-.09,0-.26,0-.38a.82.82,0,0,1,0,.38m0-1.94s0-.11,0-.22.08.24,0,.22m0-1.83a2.15,2.15,0,0,1,0-.62c.1.17,0,.4,0,.62,0,0,0,0,0,0m0-.79c-.08,0,0-.11,0-.22s0,.16,0,.22m0-.71c-.07,0-.05-.18,0-.22s0,.18,0,.22m0-2.53c-.06,0-.06-.14,0-.17s0,.1,0,.17m0-.58c-.05,0-.06-.2,0-.3.08.08,0,.17,0,.3m.31,38.17c-.12-1.41-.06-2.9-.05-4.47.19.22,0,1,.12,1.34-.13,1,0,2-.07,3.13m-.05-7.56c0-.8,0-1.76,0-2.61.18.21.09.69.1,1,0,.81,0,1.64,0,2.48-.15-.18-.08-.52-.08-.85m0-12.16a19.12,19.12,0,0,1,0-2c.14.15,0,.31,0,.47,0,.4,0,.83,0,1.25,0,.23,0,.44,0,.66,0,.48.08,1,.07,1.45s-.06.72-.05,1.09c0,.22.07.45.07.68s-.06.38-.07.57.05.51.05.76-.06.49-.05.74c0,.67,0,1.35.05,1.94a14.76,14.76,0,0,1-.1,1.77c-.1,0,0-.27-.09-.32.09-2.38,0-4.58,0-7,0-.67.08-1.36.07-2m.05,21.82a2.6,2.6,0,0,1,0-1.22,5.44,5.44,0,0,1,0,1.22m0-6.68a1.51,1.51,0,0,1,0-.87,1.68,1.68,0,0,1,0,.87m-.07-17.73a2.75,2.75,0,0,1,.1-1,11.63,11.63,0,0,1,0,1.56c-.16-.08-.13-.37-.12-.57m.07-1.07c-.14-.06,0-.38,0-.52a.63.63,0,0,1,0,.52m0-15.93a6.45,6.45,0,0,1-.1-1.67,2.28,2.28,0,0,1,.74,0h-.09c-.12.11-.42,0-.53.11s.07.16.12.22c-.19.34,0,1-.14,1.34m-.07,40c0-.11,0-.22,0-.38s.11.36,0,.38m0-6.61c-.09-.05,0-.33,0-.43s.05.35,0,.43m0-19.2c0,.29.1.6-.05.79a3.4,3.4,0,0,1,0-.79c0-.07,0,0,0,0m0-.19a1.88,1.88,0,0,1,0-1.1c0,.33,0,.82,0,1.1m0-1.18a1.21,1.21,0,0,1,0-.84,3.9,3.9,0,0,1,0,.84m0-2.4a9.61,9.61,0,0,1,0-1.2,12.37,12.37,0,0,1,0,2.51c-.15-.39,0-.88,0-1.31m0-4.36a2.06,2.06,0,0,1,0-1.23,7.22,7.22,0,0,1,0,1.23m0-3.33a15.43,15.43,0,0,1,0-2.54,1.26,1.26,0,0,1,.1.49c0,.63-.05,1.4-.07,2m0,1.5a5.07,5.07,0,0,1,0-1.18,3.06,3.06,0,0,1,0,1.18m0,3.9c-.06,0,0-.12,0-.19s0,.13,0,.19m0-.6a.53.53,0,0,1,0,.35.47.47,0,0,1,0-.35m0-.46c-.08-.09,0-.32,0-.44.05.09,0,.3,0,.44m0-.77a.34.34,0,0,1,0,.16s-.06-.2,0-.16m.28,35.23c0-.05-.07-.22,0-.22s0,.11,0,.22m0-41.91a2.87,2.87,0,0,1-.07-1c1.07,0,2.43,0,3.69,0,.25,0,.49,0,.74,0,.51,0,1-.08,1.55-.08,4.15,0,8.42.2,12.72.21.81,0,1.7,0,2.6.09-.13.25-.41.1-.58.11a4.24,4.24,0,0,1-.62,0c-.75-.08-1.69,0-2.57,0-2-.07-4,0-6.17,0-.45,0-.91-.09-1.33-.08l-3.19,0c-.81,0-1.63-.1-2.43-.11-1,0-1.89.09-3,.06a1.57,1.57,0,0,0-.91.08c.17.21.41.08.62.08.46,0,.95.09,1.41.08a16,16,0,0,1,3,0c2.07-.09,4.24-.05,6.31,0A4.53,4.53,0,0,1,22,5.43c-.85,0-1.72-.06-2.5-.06-.46,0-.83.08-1.33.06a1.75,1.75,0,0,0-.24,0c-.11,0-.21-.08-.31-.09a2.44,2.44,0,0,0-.26.06c-.19,0-.37,0-.57,0-1,0-2.06,0-3,0-.24,0-.47.08-.64-.11a.77.77,0,0,1-.86,0c-.12.14-.14.12-.36.09A3.94,3.94,0,0,1,12,6.63c0,.18-.07.35-.07.52s.07.41.07.63c0,.38,0,.79,0,1.2,0,1,0,2,0,2.94a1,1,0,0,1-.08.49c0-.52,0-1,0-1.47,0-.17-.05-.33-.05-.49a4.34,4.34,0,0,0,.07-.52c0-.62-.06-1.24-.07-1.85,0-.41,0-.79,0-1.21s0-.85,0-1.3c0-.14,0-.35-.12-.44-.12.13-.08.37-.07.54,0,1,0,2.13,0,3.14,0,2,0,4.19,0,6.28,0,.19,0,.38,0,.57,0,2.2,0,4.47,0,6.6,0,.45-.05.89,0,1.34a2,2,0,0,1-.05.87c-.11-.19,0-.52-.07-.73,0-1.15.06-2.29,0-3.52,0-1.6,0-3.25,0-4.89a21.24,21.24,0,0,1,0-2.54,22.09,22.09,0,0,1,0-3.08c0-.8,0-1.71,0-2.51,0-.49.09-1,.09-1.44m0,28.51c-.08,0-.06-.2,0-.25s0,.12,0,.25m0-3.77a.64.64,0,0,1,0,.41c-.06-.13,0-.31,0-.41m0-.41a.28.28,0,0,1,0-.27c.11,0,0,.18,0,.27m0-.54a.49.49,0,0,1,0-.38c.13,0,0,.25,0,.38m0-1.37c-.08,0-.06-.17,0-.21s0,.14,0,.21m0-2.23a5.22,5.22,0,0,1,0-1.31,7.16,7.16,0,0,1,0,1.31m.17,7.58c0-.84,0-1.67.07-2.48a12.92,12.92,0,0,1,0,2.26c0,.59,0,1.26,0,1.83a7.14,7.14,0,0,1-.12-.92c0-.08.08-.3.07-.42s0-.17,0-.27m0,14.16a4.32,4.32,0,0,1,.07-1.36,4.69,4.69,0,0,1-.07,1.36m0-2.86a8.82,8.82,0,0,1,0-1.26c.13.09,0,.29,0,.47s.12.63,0,.79M11.84,41c-.11,0-.16-.49,0-.51a1.74,1.74,0,0,1,0,.51m0,4.94c-.09,0,0-.16,0-.22s0,.16,0,.22m0-2.53c-.05-.32,0-.74-.05-1.07.17.25,0,.74.05,1.07m0-1.15c-.09,0,0-.11-.05-.16s.05.09.05.16m0-.82c-.08,0-.06-.24,0-.3s0,.22,0,.3m0-1.17s0-.1,0-.17.09.19,0,.17m0,4.77c.08,0,.06.21,0,.25s0-.17,0-.25m0-7.31c0,.23.08.64,0,.76,0-.29,0-.56,0-.76m0-.27c-.06-.14-.1-.62,0-.71a4.09,4.09,0,0,1,0,.71m0-1a.58.58,0,0,1,0-.41c.08.09,0,.28,0,.41m0-5.43a1.36,1.36,0,0,1,0-.49c0,.05.08.42,0,.49m0-1.2a.84.84,0,0,1,0-.66,1.34,1.34,0,0,1,0,.66m0-1.88a3.69,3.69,0,0,1,0-1.15,2.47,2.47,0,0,1,0,1.15m0,2.56a.16.16,0,0,1,0-.16c.11,0,0,.07,0,.16m0-1.88s0-.07,0-.14.06.07,0,.14m0-.28c-.1-.05,0-.21,0-.32s0,.25,0,.32m0-1.69a3.21,3.21,0,0,1,0-.76,3,3,0,0,1,.05.76s0,0-.05,0m0-.82c0-.43,0-.81,0-1.23a3,3,0,0,1,0,1.23m0-1.28a3,3,0,0,1,0-1.14,7.92,7.92,0,0,1,0,1.14m0,4.26c.09,0,.05.21,0,.24s0-.17,0-.24m0-6.3c.11,0,.09.23,0,.24v-.24m.07-1c-.08,0-.09-.4-.05-.52.11.09,0,.38.05.52m0-.69c-.06,0-.05-.12,0-.19s0,.08,0,.19m0-3.9c-.08-.05-.09-.28,0-.33v.33m0-.73c-.1-.06-.06-.22-.05-.33.09.07,0,.17.05.33m0,2.59c-.05,0,0-.3,0-.41.1.09,0,.24,0,.41m0-.52v-.14c.09,0,0,.09.05.14Zm.05-4.29c-.06,0-.05-.12,0-.16s0,.09,0,.16m0-.43a2.18,2.18,0,0,1,0-.77c.12.11,0,.55,0,.77m.17,30.67a2.78,2.78,0,0,1,0-.82c.16.05.1.3.1.44,0,.8,0,2,0,2.94,0,.42.13.89-.07,1.18a25,25,0,0,1,0-2.87c0-.14-.07-.27-.07-.41a3.17,3.17,0,0,1,.07-.46m0-29.39c0-2,0-4,.05-6.17a13.23,13.23,0,0,1,0,1.78c0,3,0,5.93,0,8.86,0,2.35.09,4.55.05,6.72,0,2.61,0,5.53,0,8.43,0,.58-.05,1.17-.05,1.77,0,1.68.11,3.49,0,5.05a2.72,2.72,0,0,1,0,1c0,.32.13.74-.09.9,0-.71,0-1.48-.05-2.21s.07-1.65.05-2.46c-.07-2.38,0-4.87-.05-7.31,0-.35.07-.71.07-1.06S12,29.29,12,28.89s.08-.53.07-.79c0-2.14,0-4.27,0-6.44,0-.28,0-.55,0-.82s-.07-.67-.07-1,0-.6.05-.91c0-.66-.07-1.32-.05-2a8.83,8.83,0,0,0,.05-1.42,7.18,7.18,0,0,1,0-.79m.07,33.42s0,0-.07,0v-.08c1.28-.07,2.73.08,4,0-.17.2-.44.08-.67.08s-.49.07-.74.08-.29-.06-.45-.06c-.68,0-1.4,0-2.1,0m0-40.32c0-.26,0-.63,0-.93a2.54,2.54,0,0,1,0,1s0,0,0,0m0,.57c-.06,0,0-.11,0-.19s.07.12,0,.19m0-1.69c-.09,0-.09-.27,0-.36s0,.24,0,.36m.17,28.4c0-.25-.09-.6.09-.82a2.82,2.82,0,0,1,0,.71,3.4,3.4,0,0,1,0,1.15c0,.3.13.76,0,1,0-.65-.06-1.32,0-2m.07,6.11a1.64,1.64,0,0,1,0-1c.17.23,0,.63,0,1m0-1.11a9.86,9.86,0,0,1,0-2.19c.17.11.09.32.07.52,0,.52,0,1.15,0,1.67m1.23,7.75a4.42,4.42,0,0,1-1.3-.06.15.15,0,0,0,0-.08c.14.09.24,0,.38,0a8.51,8.51,0,0,1,1,.06c2.14,0,4.45-.05,6.48.08-1,.14-2.37,0-3.48,0-.18,0-.35.11-.52,0a16.56,16.56,0,0,1-2.58.06m-1.23-1.1a5.73,5.73,0,0,1,0-1.53,4.92,4.92,0,0,1,0,1.53m0-1.61a6.84,6.84,0,0,1,0-1.28c.17.09,0,.38,0,.57a1.83,1.83,0,0,1,0,.66s0,0,0,0m0-1.31a9.84,9.84,0,0,1,0-2.23,13.86,13.86,0,0,1,0,2.23m0-6c-.09,0,0-.19,0-.27s0,.22,0,.27m.05,9c-.06.2.06.51-.07.62.07-.19-.1-.52.07-.62m-.07-5.6c.08,0,.08.18,0,.19v-.19m.19,1c0-.39-.11-.94.24-1,.08,1.89,0,4,.07,5.76-.13.14,0,.39-.1.46s-.18-.42-.19-.65c0-.7,0-1.52,0-2.1s.06-1.18.05-1.89c0-.17-.05-.37-.05-.57m.69-37.76c-.17.1-.32-.07-.45,0V4.47c.22,0,.3,0,.45.06m-.12-.28a.27.27,0,0,1-.26,0V4.2a.41.41,0,0,1,.26,0m.41,42.82a.73.73,0,0,1-.53,0V47c.11-.1.39,0,.53,0m.45.49-.95-.06v-.08c1.45,0,2.9-.05,4.4.06a6.7,6.7,0,0,1-1.26.1c-.17,0-.37-.09-.55-.08a5.31,5.31,0,0,1-.74.11c-.08,0-.16-.07-.24-.08a4.93,4.93,0,0,0-.66,0M13.48,4.2c0,.14-.19.06-.31.08a.44.44,0,0,1,.31-.08m.72-.3c0,.27-.44.09-.57.05.13-.06.42-.18.57-.05m-.41,43.22a.1.1,0,0,0,0-.08c.22,0,.32.07.52.05,0,0,.05,0,0,0h-.58Zm.41-39a.23.23,0,0,1-.17.08c0-.14.13-.18.17-.08m-.14,37.6c0-.14.08,0,.14,0s.09-.08.17-.09c.24,0,.53,0,.81.06.68,0,1.33,0,1.95,0,.28,0,.55.1.81.08s.23-.07.36-.08.5.08.76.08a3.57,3.57,0,0,1,1,0c2.53-.06,5.39,0,8,0a.58.58,0,0,1,.65.08c.13,0,.07-.17.18-.16a15.14,15.14,0,0,1,2.32.11c-.22.39-.88.07-1.24.22-.36-.17-.89,0-1.29-.11a1.19,1.19,0,0,1-.45.08c-1.3,0-2.59,0-3.84,0s-2.56,0-4,0c-.61,0-1.31,0-2,0-.13,0-.27-.1-.41-.11s-.57.12-.85.11c-.11,0-.21-.07-.34-.09a6.33,6.33,0,0,0-.73.06c-.32,0-.7,0-1.05-.06a2.25,2.25,0,0,1-.81,0s0,0-.07,0Zm.19-34.95a.53.53,0,0,1,0-.49c.11,0,0,.35,0,.49m0,7.09c-.09,0,0-.13,0-.22a.34.34,0,0,1,0,.22m0-3.55c-.07,0-.05-.11-.05-.19s0,.13.05.19m0-1.53s0,.21,0,.17,0-.1,0-.17m0-.95c.06,0,0,.12,0,.19s0-.13,0-.19m.21,26.47c-.08,0,0-.16,0-.22a.17.17,0,0,1,0,.22m0-4.18a1.23,1.23,0,0,1,0-.43.35.35,0,0,1,0,.43m0-1.25a28.64,28.64,0,0,1,0-3.82c.1,1.22,0,2.52,0,3.82m0-7.89a7.48,7.48,0,0,1,0-1.06c.15.13,0,.35,0,.52.06,1.31,0,2.84,0,4.25a8.19,8.19,0,0,1-.09-1.58c0-.29,0-.63,0-.95s0-.77,0-1.18m0-11.65a7.25,7.25,0,0,1,.09-1.5c.09,2.46.06,5.05,0,7.45-.11-.15,0-.38,0-.57s0-.44,0-.66c0-.71,0-1.45.07-2.07-.11-.5,0-1.12-.09-1.61v0c0-.28,0-.68,0-1m.09,10a.67.67,0,0,1,0-.52c.09.1,0,.31,0,.52m0-.58a.7.7,0,0,1,0-.6,2,2,0,0,1,0,.6m0-1.8a.85.85,0,0,1,0-.35c0,.06.09.32,0,.35m.07-1c-.14-.08-.07-.39,0-.57a3.27,3.27,0,0,1,0,.57m.31-15.5c-.1.12-.24,0-.41.06a.64.64,0,0,1,.41-.06m-.38,17.35c.08,0,.08.19,0,.2v-.2m0-1.28c-.07,0-.08-.35,0-.33a1.12,1.12,0,0,1,0,.33m2.84,26.52c-.91.08-1.88,0-2.86,0a14.29,14.29,0,0,1,2.86,0M14.48,11.3a.62.62,0,0,1,0-.33c.07,0,.11.2,0,.27s0,0,0,.06M14.65,38c0-1.73-.07-3.43,0-4.88a6.63,6.63,0,0,1,0,1.94c0,.55.05,1.12,0,1.63,0,.34,0,.7,0,1,0,.85,0,1.71-.07,2.54-.11-.07-.09-.25-.1-.36,0-.46.06-1,0-1.44a3.7,3.7,0,0,1,0-.47m0-5.18c0-1.19,0-2.44,0-3.66a8.24,8.24,0,0,1,0,1.8,10.15,10.15,0,0,1,0,1.91s0,0,0,0m0-21.64a2.73,2.73,0,0,1,0-1.14,6.19,6.19,0,0,1,0,1.14m0,17.55c0-.11,0-.26,0-.36a.29.29,0,0,1,0,.36m.05-.85c-.07,0-.11-.21,0-.19v.19m0-3.55c-.06,0,0-.19,0-.19s0,.16,0,.19m0-3.41a.41.41,0,0,1,0-.22c.07,0,.09.24,0,.22m0-2a1.64,1.64,0,0,1,0-.43c.08,0,0,.37,0,.43m0-2a2,2,0,0,1,.05-.65v.65s0,0-.05,0m.05-.82c-.08-.06-.12-.41,0-.46a1.19,1.19,0,0,1,0,.46m-.05-1.58a.42.42,0,0,1,0-.27c.06.05.13.25,0,.27m0-.49c-.06-.11,0-.23,0-.38.1,0,.12.37,0,.38m.05-1.61c-.05,0-.12-.23,0-.22v.22m-.05,13v-.19c.1,0,0,.12.05.19Zm.05-3.2c-.07,0-.05-.24,0-.32.06.07,0,.21,0,.32m0-4.25v0c0-.2,0,.48,0,0m0-.55c.08,0,.1.27,0,.27v-.27m0-5.59c.1,0,.05.29,0,.35s0-.24,0-.35m.77-7.83a.7.7,0,0,1-.55,0c.1-.12.42-.1.55,0m.09.32a1.86,1.86,0,0,1-.62,0,1,1,0,0,1,.62,0m-.26,42.13c0,.07-.15,0-.21,0s.14,0,.21,0m.34-12.3s-.06,0-.08,0,.1-.09.15-.14c0-1.53,0-3.33,0-4.91a4.62,4.62,0,0,1,.07-1.75,5.52,5.52,0,0,1-.1-1.58c0-1.47,0-3,0-4.45,0-.36,0-.76,0-1.14,0-2.84,0-6.06,0-9.12l.48.09c.11.18,0,.42.07.65s.06.18.07.27a12.41,12.41,0,0,1,0,1.48c-.06,2.13,0,4.4,0,6.63,0,.12,0,.25,0,.38,0,6.92,0,13.92,0,20.74,0,.23.08.49.07.73a2.79,2.79,0,0,0,0,1.12c.13.27.51.18.9.19-.07.14-.19,0-.3,0s-.54.16-.77.16c.06.19.29,0,.38,0,.13.15.36.06.57.06,1,0,2,.09,3,.08a12.61,12.61,0,0,1,2.12.06c-2.23,0-4.46,0-6.53,0-.06-1.31,0-2.58,0-3.85s0-2.68,0-4.09a6.29,6.29,0,0,0-.07-1.64m0-23.22c0-.23,0-.37,0-.6a7.46,7.46,0,0,1,1.83,0l-.69.08c-.31,0-.74-.11-.95.14,1.94.11,3.82-.06,6,0a2,2,0,0,1,1.07.17c-.33.26-.78.11-1.17.11H21c-.79,0-1.7,0-2.62,0-.16,0-.31,0-.47-.06-.75,0-1.52.16-2.22.14m.34,33c0,.08-.14.09-.27.08a.1.1,0,0,0,0-.08H16m.88,1.09a2,2,0,0,1-1.1,0c.39,0,.81-.15,1.1,0m-1-40.66c0,.07-.08,0-.11,0V4.2c.07,0,.07,0,.11,0m.41,40.39c0,.06-.26,0-.36,0s.26,0,.36,0m1.1-.77c-.35.17-.76,0-1.22,0a5.05,5.05,0,0,1,1.22,0m.35,4.26a4.57,4.57,0,0,1-1.52,0c.14-.21.4-.08.64-.06a8.34,8.34,0,0,1,.88,0m-1-38.2c0,.06-.33,0-.46,0,0-.06.33,0,.46,0m.43-1.09c-.2.14-.52,0-.76,0a2.77,2.77,0,0,1,.76,0m0-4.64a1.06,1.06,0,0,1-.71,0,3.26,3.26,0,0,1,.71,0m-.38,42.18c.05.06-.19,0-.26,0s.19,0,.26,0M17.1,8.51c-.12.06-.34,0-.49,0a.72.72,0,0,1,.49,0m.27,37.9a.74.74,0,0,1-.39,0s.53,0,.39,0m.16-1.5c0,.06-.15,0-.21,0s.19-.08.21,0m.74-36.07c-.2.16-.47,0-.74,0a3.33,3.33,0,0,1,.74,0m.79,38.77a12.26,12.26,0,0,1-1.36-.11,24.91,24.91,0,0,1,3.24,0,2.77,2.77,0,0,1-1.41.08c-.15,0-.31.06-.47,0M18,4.2c0,.11-.12,0-.23,0s.17,0,.23,0M21.3,44.91a22.15,22.15,0,0,1-3.55,0c.17-.12.37,0,.57-.06a9.48,9.48,0,0,1,1.21-.05,3.17,3.17,0,0,0,.51.08,8.83,8.83,0,0,1,1.26,0M19.8,10.26c-.65.08-1.36,0-2,0,0-.12.19,0,.24-.09a14,14,0,0,0,1.79.06m.78,35.25a11.75,11.75,0,0,1-2.71,0,17.62,17.62,0,0,1,2.71,0m-1.81,1.58c-.24.16-.59,0-.88,0a4.93,4.93,0,0,1,.88,0m.05-.3a1.37,1.37,0,0,1-.91,0c1.45-.11,3.31,0,5,0-.23.26-.62.06-.91,0-.11,0-.22,0-.33.06-.32,0-.63-.08-.95-.09a8.86,8.86,0,0,1-1.86,0m-.5-2.89c-.16,0-.24.08-.36,0a12.89,12.89,0,0,1,2.24,0,1.56,1.56,0,0,1-.78.11c-.31,0-.77-.13-1.1-.11m1.17-.49a12.83,12.83,0,0,0-1.53,0s.07,0,.07-.06c.45,0,1,0,1.43,0a2.17,2.17,0,0,0,.58,0s0,0-.05,0a1.51,1.51,0,0,0-.5,0M18.84,8.59a6.19,6.19,0,0,1-.76-.05c.23,0,.55-.16.76.05m2.7-4.25c-1,0-2.1-.07-3.15-.06,0,0,0,0,.05-.08,1.4-.07,2.83,0,4.26,0,.64,0,1.3,0,2,0-.16.2-.47,0-.65,0-.34,0-.71.09-1.07.08a7.77,7.77,0,0,1-.83-.08c-.19,0-.39.07-.57.06M18.87,47.17s0-.05-.05-.05,0,0,0,0h.46c.13,0,.38,0,.33,0h-.29c-.15.08-.28,0-.47.05m.52-38.66a.63.63,0,0,1-.5,0,1.42,1.42,0,0,1,.5,0m-.05.33c-.05.1-.18,0-.28,0,.05-.07.2,0,.28,0m.41,0a.41.41,0,0,1-.36,0c.07-.07.25,0,.36,0m.62-4.31a1.68,1.68,0,0,1-.6,0,1.28,1.28,0,0,1,.6,0m1.19,4.36a15.72,15.72,0,0,1-1.69,0,5.65,5.65,0,0,1,1.69,0m.57-.35c-.58.08-1.45,0-2.12,0,.31-.21.75,0,1.14,0,.21,0,.43-.06.65,0a10.06,10.06,0,0,0,1.36,0c-.3.2-.66,0-1,0M20.87,10.2a1.12,1.12,0,0,1-.81,0c.21,0,.47,0,.81,0M21,47.86a1.15,1.15,0,0,1-.64,0,1,1,0,0,1,.64,0m.59-3.93a2,2,0,0,1-1.19,0c.3-.19.85,0,1.19,0m-.9,3.16c.05.06-.18,0-.24,0s.18,0,.24,0M21,4.53a1.56,1.56,0,0,1-.5,0c.13-.16.28,0,.5,0m.26,41.06c-.14,0-.5,0-.57-.11.21-.16.59,0,.9,0a10.45,10.45,0,0,0,1.12,0c1,0,2,0,2.95,0a.8.8,0,0,1,.53.11c-1.61,0-3.41-.07-4.93,0m.47-2.23c-.12.13-.41,0-.57,0a.92.92,0,0,1,.57,0m.24-33c-.24,0-.51-.16-.81-.08a6.71,6.71,0,0,1,1.57,0c-.11.16-.31.05-.47.05s-.2.06-.29.06m-.5,37.49c0,.06-.18,0-.26,0s.19-.06.26,0M23.32,4.64c-.67,0-1.33,0-2-.08a4.61,4.61,0,0,1,1.29,0,6,6,0,0,1,1.81.05,2.89,2.89,0,0,1-1.1,0m-1.43,40.3c-.15,0-.35.12-.5,0a15.07,15.07,0,0,1,2.77,0,13.51,13.51,0,0,1-1.91,0c-.06,0-.13.05-.19.05s-.12-.05-.17-.05m.31,2.59c-.21.16-.36,0-.64,0a.82.82,0,0,1,.64,0m0-3.66c-.09.22-.38,0-.6.09a3.5,3.5,0,0,1,.6-.09M22,8.84c-.06.13-.22.06-.33,0,.06-.07.23,0,.33,0m.38,38.31a1.42,1.42,0,0,1-.54,0,.6.6,0,0,1,.54,0m-.09-3.77c0,.06-.24,0-.34,0s.25,0,.34,0m.43,4.48a4.4,4.4,0,0,1-.74,0,1.09,1.09,0,0,1,.74,0M23.32,44a2.86,2.86,0,0,1-1.05,0c.28-.25,1-.09,1.41-.09-.06.16-.23.08-.36.08M22.8,8.89a.58.58,0,0,1-.41,0c.12-.11.25-.05.41,0m-.12,38.64c0,.06-.15,0-.22,0,.09-.07.11,0,.22,0m1-3.93a2.33,2.33,0,0,1-1.12,0,8.15,8.15,0,0,1,1.12,0M22.87,8.24c-.06.1-.11-.06-.19,0s.18,0,.19,0M26,9c-1,0-2.17-.05-3.08-.08,0,0,.07,0,.08-.05A25.15,25.15,0,0,1,26.2,9a.59.59,0,0,1,.31-.06C26.41,9,26.18,9,26,9M23.82,47.86a5.55,5.55,0,0,1-.83,0c.26-.18.59,0,.83,0m-.33-1.42c-.06.11-.32,0-.43,0,.1-.07.29,0,.43,0m-.33.41s-.05,0-.08,0,0,0,0,0c.79,0,1.69,0,2.57,0,.27,0,.52,0,.79,0s.81,0,1.24,0a9.61,9.61,0,0,1,2.21,0c-.71.16-1.71,0-2.55,0-.41,0-.77,0-1.14,0a26.2,26.2,0,0,1-3.07,0m.19-36.59c0,.05-.16,0-.22,0s.16,0,.22,0m-.12,33.07c.3,0,.09.07-.07.08s.06,0,.07-.08m.85-33.07c-.1.16-.45,0-.66.08.1-.16.45-.05.66-.08m0-1.75c-.18.16-.33,0-.58,0a2.68,2.68,0,0,1,.58,0M25.39,5.4a8.76,8.76,0,0,1-1.78,0c2.33-.1,4.79,0,7.12,0,.35,0,.72-.13,1.05.05a25.29,25.29,0,0,1-3.48,0,21.6,21.6,0,0,1-2.91,0M24,46.49c0,.06-.18,0-.26,0,.07-.13.13,0,.26,0M24.82,44a3,3,0,0,1-1.07,0,4.76,4.76,0,0,1,1.55-.06c.18,0,.39-.11.55,0-.3.19-.68,0-1,0m-1.07-.57c0-.08.16-.08.12,0Zm.5.22c.05,0-.17,0-.24,0s.18,0,.24,0m1.88,4.29a15.89,15.89,0,0,1-2.07,0,27.66,27.66,0,0,1,3,0,3.6,3.6,0,0,1,1.31,0,14.09,14.09,0,0,1-2.27,0m.38-39.32a9.73,9.73,0,0,1-2.35,0,15.3,15.3,0,0,1,2.35,0M24.87,44.94c-.12.12-.38,0-.57.05.07-.14.43-.08.57-.05m-.1,2.59a.6.6,0,0,1-.38,0s.32-.15.38,0m-.07-3.87c-.05.06-.21,0-.31,0V43.6c.15,0,.19.07.31.06m-.07-.28c.07,0-.14,0-.19,0s.14,0,.19,0m.57-33.12a1,1,0,0,1-.5.08c.08-.19.3-.05.5-.08m1.36-6a11.37,11.37,0,0,1-1.86.09c0-.07.11,0,.07-.09a15.27,15.27,0,0,1,1.79,0M25.11,43.38c.05,0-.26,0-.38,0,.1-.08.24,0,.38,0m.12.28c0,.05-.22,0-.26,0s.24-.06.26,0m.12,1.3c0,.07-.15,0-.22,0s.17-.06.22,0m.14,1.53c.06,0-.14,0-.19,0s.14,0,.19,0m.26,1a.63.63,0,0,1-.45,0c.11-.15.29,0,.45,0M25.89,45c-.09.1-.26,0-.4,0,.08-.11.28,0,.4,0m.41-1.22c-.32,0-.53-.2-.81-.06V43.6c.2,0,.51.07.59-.08s-.31-.06-.45-.11c.16-.11.46,0,.6,0s0,.15.07.22c.81,0,1.55,0,2.38,0-.13.15-.42.08-.67.08-.53,0-1.22,0-1.71.06m-.22-33.43a.71.71,0,0,1-.5,0,.71.71,0,0,1,.5,0m.48,37.22a.79.79,0,0,1-.64,0c.16-.13.42,0,.64,0m-.31-3.6c.05,0-.17,0-.24,0s.18,0,.24,0m.17,2.56c0,.06-.19,0-.26,0s.19,0,.26,0M27,10.31a3.78,3.78,0,0,1-.76,0c.19-.17.5,0,.76,0m.09,35.2a.54.54,0,0,1-.55,0,2.44,2.44,0,0,1,.55,0M26.9,4.25c.05.06-.18,0-.24,0s.17,0,.24,0M30.54,9c-1.27.1-2.48,0-3.86,0V8.89c1.46,0,2.54,0,3.86.06m-3.36,35c0,.06-.27,0-.38,0s.27,0,.38,0M30.42,8.65c-1.29,0-2.48,0-3.62-.06a23.6,23.6,0,0,1,3.05,0c.19,0,.43-.07.57.08m-3.24-.41c-.05.06-.2,0-.28,0s.19,0,.28,0m.14,35.14a.55.55,0,0,1-.31,0,.31.31,0,0,1,.31,0m.89-39c-.38,0-.75-.14-1.12-.11a20.8,20.8,0,0,1,3.78,0,9.52,9.52,0,0,1-1.85,0c-.27,0-.55.1-.81.11m.93,41.12a10.06,10.06,0,0,1-2,0,13.15,13.15,0,0,1,2,0m-1.62,2s-.2,0-.27,0,.19,0,.27,0m.92-3.6c-.29.18-.68,0-1.05,0v-.09a3.54,3.54,0,0,1,1.05.06M27.78,45c-.1,0-.26,0-.29-.05s.29-.06.29.05m.69-34.73c-.19.19-.71.07-1,0,.35,0,.56,0,1,0m-.38,34.43a.27.27,0,0,1-.36,0c.07-.06.24,0,.36,0m.66-1.31c0,.06-.35,0-.5,0,0-.06.36,0,.5,0m.05,4.18c-.18.11-.41,0-.52,0a1.38,1.38,0,0,1,.64,0H28.8m.79.35a11.07,11.07,0,0,0-1.17,0,4.42,4.42,0,0,1,1.81,0,6.82,6.82,0,0,1,1.57-.06,10,10,0,0,1-2.21.11m-.12-37.6c-.29.18-.63,0-1,0a3,3,0,0,1,1,0m-.17,34.6c-.07.14-.29.05-.48,0,.12-.06.33,0,.48,0m1.74-1a9.45,9.45,0,0,1-1.86,0,16.46,16.46,0,0,1,1.86,0M29.33,8.32c-.06,0,0-.05-.08-.06s0,0,0,0h.59c.21,0,.46,0,.14,0a6.62,6.62,0,0,1-.68.06m.33,37.19a.73.73,0,0,1-.36,0c.14-.1.19-.07.36,0m.79,2a2.15,2.15,0,0,1-1.1,0,3.64,3.64,0,0,1,1.1,0m-.93-2.62c0,.11-.1,0-.17,0s.12,0,.17,0m.42-34.6a.76.76,0,0,1-.42,0c.13-.14.24,0,.42,0m.84,37.22a.25.25,0,0,1-.24,0c.08-.07.12,0,.24,0m.33-.76c-.08.13-.31,0-.52.08.07-.15.34-.06.52-.08m-.19.43c0,.07-.18,0-.26,0a.23.23,0,0,1,.26,0m.48.33a1.2,1.2,0,0,1-.6,0c0-.06.11-.05.15-.08a.41.41,0,0,1,.19.05h.26m.07-39.27a.82.82,0,0,1-.67,0,5,5,0,0,1,.67,0m-.19,36.65c0,.15-.39.1-.45,0,.12-.14.26,0,.45,0M33.11,9a21.75,21.75,0,0,1-2.28,0,19.19,19.19,0,0,1,2,0h.28M31.33,4.31c-.07.06-.24,0-.34,0s.31-.11.34,0m0,42.95s0,0-.07,0,0,0,0-.08a12.34,12.34,0,0,1,1.61,0c-.09.19-.3.09-.45.08a10.61,10.61,0,0,0-1.12,0m0-2.3c.14-.13.25,0,0,0m.26-1.09c.06.06-.17,0-.23,0s.17,0,.23,0m0-39.59c-.1,0-.18,0-.22,0s.2,0,.22,0m.19,40.41c.06.05-.16,0-.22,0s.16,0,.22,0m.09-40.38c-.08.09-.18,0-.26,0s.25,0,.26,0m.5,43.49c-.08.15-.46.09-.59,0a1,1,0,0,1,.59,0m.12-1c-.07.1-.31,0-.42,0,.09-.06.29,0,.42,0m1.55-3a8.57,8.57,0,0,1-1.93.08,12.06,12.06,0,0,1,1.93-.08m-1-39.57c-.15.13-.48.07-.74.09.16-.13.48-.07.74-.09m-.28,40.66c.06.05-.14,0-.19,0s.13,0,.19,0m1.83,2.89a9.36,9.36,0,0,1-1.91,0,13.23,13.23,0,0,1,1.91,0m.21-43.49a10.74,10.74,0,0,1-1.69,0,6.79,6.79,0,0,1,1.69,0M33.52,47.15a.34.34,0,0,1-.31,0c.06-.1.22-.08.31,0M34.23,9c-.26.13-.6,0-1,0,.21-.11.66,0,1,0m-.57,38.28a.07.07,0,0,0-.07-.06c.07-.07.23-.05.33,0h.64c-.05.06-.21,0-.3,0H34c-.12,0-.16.09-.29.06m0-37.16c.13-.13.44,0,0,0m.48,34.84c.06.05-.14,0-.19,0s.14,0,.19,0M34.35,10c.06.05-.14,0-.19,0s.14,0,.19,0M34.54,9c.06.05-.14,0-.19,0s.14,0,.19,0m.53-4.7c0,.07-.1.08-.17.09s.08-.09.17-.09m.2,43a4.11,4.11,0,0,1-.68,0,1.21,1.21,0,0,1,.68,0V46.06l-.35,0c-.41,0-.85,0-1.26,0S32.85,46,32.47,46a2.8,2.8,0,0,1-1.19,0c.26-.31.76-.17,1.19-.17s.83-.06,1.19-.05l1.61,0V45.6c-.49,0-1,0-1.42-.06s-.94.06-1.41.05c-.81,0-1.59-.05-2.31,0,0,0,0,0-.07,0s.05,0,.05-.06c1.32.06,2.6,0,3.91-.08a10.36,10.36,0,0,0,1.25.06v-.15c-.53,0-1.07,0-1.61,0-.37,0-.75-.08-1.12-.09s-.54.09-.81.09c-1.08,0-2.16-.13-3.22-.09-.13,0-.27.07-.4.09-.29,0-.57-.05-.88-.06s-.81.08-1.22.08c-.65,0-1.33,0-2.09,0a1.7,1.7,0,0,1-.88-.09,6.85,6.85,0,0,1-2.12,0c1.56-.14,3.22-.08,5.12-.08,1.1,0,2.21,0,3.33,0s2.13,0,3.1,0c.22,0,.43-.09.64-.08.69,0,1.41.07,2.15.08h0v-.22h-.35a.85.85,0,0,1,.35,0V44.2h-.13a2.33,2.33,0,0,0-.31.08c-.25,0-.52-.08-.77-.05a2.2,2.2,0,0,1-.5,0,4.6,4.6,0,0,0-.52.06c-.1,0-.2-.08-.29-.09a3.53,3.53,0,0,0-.42.06c-.16,0-.32-.07-.48-.06-.59,0-1.37,0-2.1,0a.1.1,0,0,0,0-.08c.17.11.34,0,.52,0s.16.07.24.08c.42.05.91-.06,1.33,0,.62,0,1.26,0,1.91,0,.49,0,1,0,1.49,0v-.2a8,8,0,0,1-1.13-.08,6.91,6.91,0,0,1,1.13,0v-.18a3,3,0,0,1-.42,0c-.12,0-.22-.08-.33-.09s-.37.1-.55.09-.52,0-.81,0c-.66,0-1.33.05-2,.05a11.44,11.44,0,0,0-1.86,0c-.12-.1-.4,0-.5-.11a11.77,11.77,0,0,1,1.81-.08c.08,0,.05-.12.12-.14s0,.16.12.16a32.42,32.42,0,0,0,3.33-.13,2.42,2.42,0,0,0,1.11.06v-.45a4.15,4.15,0,0,0-.61,0c-.11,0-.22.07-.33.08s-.47-.08-.69-.08c-.45,0-.91.1-1.36.11s-1,0-1.45,0S29.9,43,29.44,43c-.75,0-1.48,0-2.23,0-.25,0-.5,0-.74,0s-.4-.08-.6-.08-.65,0-1,0c-2.16,0-4.37-.16-6.28-.08-.68,0-1.36-.08-2,0,0-1.94,0-3.85,0-5.92,0-.3,0-.57,0-.85s-.08-.49-.08-.73c0-.83,0-1.67,0-2.52,0-3.57,0-7.3,0-10.88,0-1.34-.08-2.54,0-4.12,0-1,0-2.1,0-3.19a3.66,3.66,0,0,0-.1-1.12c.16-.88,0-1.71.12-2.51.29-.13.67,0,.93.05s.56-.05.83-.05c4,0,8.42,0,12.6,0,.94,0,1.91.11,2.86.06.52,0,1,0,1.54,0v-.2c-1.72,0-3.67-.1-5.23-.11-.37,0-.78.23-1,0-1.95.07-3.88,0-5.79,0,0-.08,0-.08,0-.14s.28-.08.38-.08c1.77,0,4,0,5.89,0s3.85,0,5.8,0v-.14c-1.58,0-3.18,0-4.68-.08,1.39-.09,3.05-.06,4.68,0v-.23H35c0-.05.14,0,.23,0V9.85c-1.89,0-3.86-.07-5.9-.06A5.16,5.16,0,0,1,28,9.71c-.47.28-1.22-.12-1.73.11a8.43,8.43,0,0,0-1.51,0c-.16,0-.33-.07-.5-.08-.41,0-.85.09-1.28.06-1-.07-2.13-.09-3.1-.11-.73,0-1.47.12-2.19.05a12.86,12.86,0,0,0-2.31.06c0,2.22,0,4.44,0,6.65,0,.22-.05.44-.05.66,0,1.44,0,2.93,0,4.28,0,1.85,0,3.69,0,5.54,0,.34-.05.7-.05,1,0,1.93.05,3.71,0,5.54,0,2,0,4,0,5.94,0,1,0,2.07,0,3.09a3.21,3.21,0,0,1,0,1.2c.09.22.22.66,0,.79.1,0,.28,0,.36.08-.15.14-.54,0-.71.14.07.24.45.09.74.14-.17.22-.72-.1-.77.22a8.14,8.14,0,0,0,1.91,0,9.1,9.1,0,0,0,1.05.08,10.78,10.78,0,0,1,2.12.06,2.42,2.42,0,0,1,.9-.06c-.13.09-.3,0-.43.14a6.1,6.1,0,0,0-1.76,0,7,7,0,0,1-1-.14c-.39,0-.8.13-1.19.11a3.27,3.27,0,0,0-1.36,0c.22.21.92.09,1.19.08a6.55,6.55,0,0,1,1.29,0,10.53,10.53,0,0,1-2.1,0,2.9,2.9,0,0,1-1.1,0c-.08-.14.19-.08.19-.22.05-1.82,0-3.24.05-5,.21.3.07.74.07,1.14s.06.74,0,1.12,0,.55,0,.79c0,.47-.15,1,.05,1.31.1-.17,0-.38.05-.57.06-1.48,0-3.29,0-4.91,0-.58.06-1.16,0-1.72,0-1.38,0-2.81-.1-4.12.07-1.47.07-2.91.07-4.51,0-1.21-.1-2.46,0-3.68.05-1,0-2.21,0-3.35,0-.16.05-.32,0-.47s-.06-.2-.07-.3c0-.31.07-.85.05-1.25s0-1.18,0-1.78c0-.28,0-.49,0-.79,0-.51-.06-1-.05-1.53s0-.71,0-1.06c0-.5,0-1,0-1.56,0-.16.05-.31,0-.46s-.06-.21-.07-.33.06-.57.05-.84a16,16,0,0,0-.1-2.27c-.17.1,0,.43-.09.66-.07,0,0-.21-.12-.22-.11.29.08.87-.1,1.17-.1-.71.06-1.44-.07-2.1-.26.37-.06,1-.16,1.61a6,6,0,0,1,0-1.69,14.52,14.52,0,0,1,1.78,0c-.17.16-.43,0-.74,0s-.64,0-.54.38a2.86,2.86,0,0,1,.9-.05c0,.14-.24,0-.26.16.24.18.79.07,1.14.05,3.38.09,6.88.08,10.27.06.68,0,1.36.09,2,.08a16.24,16.24,0,0,1,3,0c1.07-.17,2.4,0,3.49-.07V9c-.19,0-.39,0-.54,0l.54,0V8.69a4.12,4.12,0,0,1-1.11,0,6,6,0,0,0-1-.08c-.26,0-.5.08-.74.08s-.43-.05-.67,0-.61-.1-.83,0c0,0,0,0-.07,0a0,0,0,0,1,0-.06c.74,0,1.88-.05,2.86-.05h1.56V7.93c-.38,0-.75.08-1.11.09s-.68-.14-1-.13c-.08,0-.27.07-.36.08s-.47,0-.71-.06c-.76,0-1.59,0-2.34,0-.54,0-1.13.08-1.64.08-.32,0-.66-.08-1-.08-1.47,0-3.09.07-4.67,0-.72,0-1.42,0-2.1,0s-1.41,0-2.17,0H15.51c-.52,0-1.42-.2-1.62,0s0,1.34-.05,1.85c0,2.47,0,5,0,7.26,0,1,0,2.24,0,3.27,0,.32.06.62.08.93s0,.47,0,.71,0,.48,0,.71c0,.7,0,1.34,0,2.1,0,.17,0,.34,0,.49s-.07.24-.08.36a8,8,0,0,0,0,.84c0,.26.06.56,0,.79s-.07.22-.08.33c0,.31,0,.63,0,1,0,1.55,0,3.17,0,4.83,0,.33,0,.63,0,1s0,.62,0,.93-.07.37-.07.55c0,1.69,0,3.37,0,5,0,.51-.06,1,0,1.53,0,1.24,0,2.5.12,3.71-.12.06-.27.08-.39.14s-.12.23-.21.33c.31.34.8.15,1.31.19.93.07,1.92,0,3,.05a4.27,4.27,0,0,1-1.34.06c-.86,0-1.77-.09-2.59,0-.19,0-.45.11-.55,0S13,45.3,13,44.8c0-1.28,0-2.45-.07-3.46,0-.58,0-1.17,0-1.75,0-1,0-2,0-3,0-3-.06-6,0-9,0-3.6,0-7.55,0-11.41,0-.56,0-1.26,0-2a9.53,9.53,0,0,0,0-2,8.4,8.4,0,0,0-.05,1.34c0,2.06,0,4.66,0,6.76,0,.31,0,.62,0,.93a2,2,0,0,1-.07.87,21.94,21.94,0,0,1,.07,2.62c0,3.28,0,6.6,0,9.77,0,2-.06,3.82,0,6,0,.23,0,.55-.17.71a3.5,3.5,0,0,1-.07-1.48c0-.52-.07-1.06-.05-1.61,0-.79,0-1.56,0-2.45,0-.29.06-.56.05-.85a4.63,4.63,0,0,1-.07-.74,2.46,2.46,0,0,1,.07-.29c0-.13-.05-.24-.05-.36,0-.34.05-.68.05-1s0-.67,0-1a2.29,2.29,0,0,0,0-.74c0-1.57,0-3.1,0-4.55,0-2.81,0-5.89,0-8.82,0-1.06,0-2.07,0-3.19a2.67,2.67,0,0,0,0-1.09,2.79,2.79,0,0,0,0,1.12c0,.69,0,1.4,0,2.1,0,1.36,0,2.88,0,4,0,.28-.08.58-.08.87s.09.86.08,1.28c0,.73-.05,1.5,0,2.18s-.06,1.5,0,2.24,0,1.32,0,2c0,.47.06.95,0,1.42,0,1.14,0,2.32,0,3.52,0,.2.06.42-.05.6a4.57,4.57,0,0,1-.07-1.06l0-1.15a19.73,19.73,0,0,1,0-2.56c-.08-1.13,0-2.26-.07-3.36,0-.38,0-.74,0-1.12,0-.81-.08-1.65,0-2.43s-.05-1.82-.05-2.72c0-.15.07-.29.08-.44,0-.55-.08-1.12-.08-1.69s.05-1.05,0-1.56c0-.11-.05-.24-.05-.35s.07-.21.07-.3a1.88,1.88,0,0,0-.05-.33c0-.16.05-.32.05-.46,0-3-.08-6,0-9,1.94-.06,4,0,6,0,1,0,2,0,3.09,0h.69c.23,0,.45,0,.67,0,.93,0,1.88-.08,2.83,0,1.92,0,4,0,6,0,1.23,0,2.48,0,3.71,0V5.46c-1.12,0-2.24,0-3.35-.06.23-.18.55,0,.83-.08s.24-.12.34-.14a8.16,8.16,0,0,1,1,0l1.21,0V4.77c-.86,0-2,.06-3,.06-.41,0-.82-.08-1.24-.08s-.65,0-1,0-.69-.07-1.05-.08c-1.5,0-3,.07-4.55-.11a22.28,22.28,0,0,1,3.84,0c1.66-.15,3.43,0,5.21,0l1.78,0v-1c-.56,0-1.11,0-1.68,0-1.2,0-2.35,0-3.55,0l-1.91,0a15.61,15.61,0,0,0-1.81,0c-.61.08-1.23-.07-1.83,0s-1.08-.06-1.62,0-1.21,0-1.81,0c-1.47,0-3-.13-4.43-.06-.68,0-1.21-.06-1.76,0A6.75,6.75,0,0,1,14,3.44c-.21,0-.42.09-.64.08-.46,0-.9,0-1.34,0-.75,0-1.49-.11-2.19-.06a8.88,8.88,0,0,0,.05.9c0,1,0,2,0,3,0,.66,0,1.33,0,2s.06,1.36.05,2c0,2.11-.06,4.22,0,6.33,0,.52,0,1,0,1.55.05,1.58,0,3.14,0,4.7,0,.51,0,1,0,1.55.05,1.58,0,3.14,0,4.7,0,2.07,0,4.13.05,6.19,0,.6,0,1.24,0,1.83-.08,1.61,0,3.37,0,5.16,0,2.34,0,4.72,0,7.12,0,.07-.11.11-.11.22s0,.07,0,.08a6.4,6.4,0,0,0,2,.16c1.21,0,2.09,0,3.12,0C17.19,51,19.79,51,22,51c4,0,8.13.08,12.39.08h.92v-.39H32.06c-.12,0-.23-.06-.35-.06-3.21,0-6.58,0-9.84,0-1.08,0-2.28.06-3.45,0-.52,0-1,0-1.53,0l-6.36-.08s-.07,0-.07,0a6.87,6.87,0,0,0,0-.93c.18.09-.06.7.16.82s.14-.35.19-.55.06.16.2.08,0-1.33.16-1.72c.09.48,0,1,0,1.48,3.23,0,6.9.1,10.48.11.35,0,.62-.09.86,0a16.7,16.7,0,0,1,2.66,0c2.26,0,4.62-.05,6.94-.06.78,0,1.58.06,2.38.06h.68v-.14h0c-.81,0-1.62-.1-2.43-.08a35.42,35.42,0,0,1-3.57,0c-2,.15-4,0-5.93.05-.56,0-1.12,0-1.67,0-1.44-.06-2.86-.06-4.21-.06-.85,0-2,0-3,.06a15.68,15.68,0,0,0-2.29-.09c-.22,0-.69.08-.69-.16s.85-.11.93-.11c2.6.12,5.37-.12,7.89.08.21-.14.49,0,.78,0,2.85,0,5.78.06,8.7,0l1.14,0c.8,0,1.5,0,2.31,0s1.37,0,2,0v-.14c-.63,0-1.24,0-1.85,0-.2,0-.4,0-.59,0-1.22,0-2.46,0-3.67,0-.14,0-.29-.06-.43-.06-1.42,0-3,0-4.43,0-.28,0-.56-.07-.84-.06-1.31.06-2.58,0-3.83,0H18c-.45,0-.91-.06-1.37,0-1.09,0-2.2,0-3.36,0a2.86,2.86,0,0,1-1.48-.11c0-.16.25-.11.33-.22a35.06,35.06,0,0,0,3.55,0c2.07,0,4.15.1,6.29.11.3,0,.62-.09.86.06a7.1,7.1,0,0,1,1.71-.09c1.33,0,2.85.11,4.2-.05a33.67,33.67,0,0,0,4,0h2.54v-.19H33.09c-4,.06-7.78.06-11.67,0-2.15,0-4.19-.09-6.36-.12-.2,0-.41.08-.62.09s-.64-.08-.93-.06a2.46,2.46,0,0,0-.29.09,10.65,10.65,0,0,0-1.12-.06s0,0-.07,0,0,0,0-.08c4.93-.13,9.86.12,14.86,0,2.76,0,5.57,0,8.35,0v-.18l-4.13,0c-.56,0-1.15-.06-1.7,0a8.93,8.93,0,0,1-1,.08c-.1,0-.21,0-.31,0s-.43.09-.64.08c-.94,0-1.89-.05-2.84-.08-.2,0-.41.06-.62,0s-.72-.1-1.09-.11-1,.12-1.5.08c-1.14-.07-2.29,0-3.39-.11l-.09,0s0,0,0,0c3.59-.13,7.42,0,11.08,0,.24,0,.5-.08.74-.08s.68.09,1,.08c1.31,0,2.64,0,3.91-.08a3.64,3.64,0,0,1,.56,0v-.18a2.88,2.88,0,0,1-.59-.06l.59,0v-.29h-.06a.06.06,0,0,1,.06,0Z"/></g></g></svg>