<svg xmlns="http://www.w3.org/2000/svg"  viewBox="0 0 35.27 53.83"><defs><style>.cls-1{fill:#623c25;fill-rule:evenodd;}</style></defs><title>13_r</title><g id="Layer_2" data-name="Layer 2"><g id="Layer_1-2" data-name="Layer 1"><path class="cls-1" d="M30.17,5.43a.71.71,0,0,0-.71-.49,1.13,1.13,0,0,0-.65.71,2.77,2.77,0,0,0,.26,1.58c1.34,2.26,3.5,3.59,4.87,5.81a2.17,2.17,0,0,0,0,.25,4.64,4.64,0,0,1,.79,2c-.32.41-.06,1.39-.19,2a5,5,0,0,1-.15-1.2c0-.27.08-.56-.09-.71.08.41,0,1,0,1.52,0,.38.16.86-.07,1.1-.08-.86,0-1.86-.07-2.68-.2.17-.08.53-.08.85v1.25c0,.41.1.82-.14,1-.12-1,0-2.17-.12-3.08a2.44,2.44,0,0,0,0,1.12c0,.58,0,1.21,0,1.75,0,.15,0,.46-.14.51-.07-.81-.09-2-.1-2.89,0-.14.08-.37-.07-.46-.09,1,0,2.42,0,3.52-.13,0-.25.17-.33.16,0-.87-.09-1.84-.07-2.78,0-.21.05-.4.05-.6a5.19,5.19,0,0,0-.5-1.75,2,2,0,0,0-.39-.57c-.09-.12-.15-.28-.23-.38-.29-.38-.7-.62-1-1l-.19-.08c-.45-.54-1-.92-1.5-1.45A7.31,7.31,0,0,1,29,9.77c-.14-.2-.37-.33-.48-.58a7.62,7.62,0,0,1-.28-.95C27.77,7.57,28,6,28,4.86a1,1,0,0,0,.26-.58,1.73,1.73,0,0,1,2.07.11c.06.28.28.45.31.77a1.8,1.8,0,0,1-.47,1.36c-.32.19-1,.27-1.12-.22a2.17,2.17,0,0,1,.19-1,.66.66,0,0,1,.5,0c.19.12.18.44.33.55s.14-.3.12-.38m-.52,33.78a1.68,1.68,0,0,1,.66-1.94,2.22,2.22,0,0,1,1.22-.05c.47.15.64.69.78,1.22a4.33,4.33,0,0,1,.17.63,3.3,3.3,0,0,1-.09.93,2,2,0,0,1-.6,1.06,2.77,2.77,0,0,1-.67.66,2.21,2.21,0,0,1-1.31.11,3.14,3.14,0,0,1-1.19-.66A3.05,3.05,0,0,1,28,39.24,10,10,0,0,1,28,37.68c.06-.26.25-.48.22-.76a3.84,3.84,0,0,1,.88-1.18,2.74,2.74,0,0,1,.76-.3c.15,0,.27-.13.43-.16a8.1,8.1,0,0,1,1.38-.06,2,2,0,0,1,1.72.6c.09.14.17.36.28.52a4.61,4.61,0,0,1,.6,2.9c-.05.3,0,.69,0,.95a3,3,0,0,1-.16.44,4.37,4.37,0,0,1-.53,1c-.39.53-.75,1.06-1.12,1.58C31.33,44.45,29.57,46,29,48c0,.1,0,.23-.07.35a1.46,1.46,0,0,0-.12.33,1.09,1.09,0,0,0,.52,1.09c.25.08.49,0,.48-.22-.17-.06-.25.07-.4,0a.86.86,0,0,1-.34-.54.75.75,0,0,1,1-.85,1,1,0,0,1,.43.9c0,.45-.2.67-.31,1-.39.29-.78.79-1.45.54-.43-.15-.59-.71-.76-1.14a9.76,9.76,0,0,1,.09-1.83,6.21,6.21,0,0,1,.62-1.91c.25-.42.53-.77.74-1.17a.74.74,0,0,1,.24-.11c.1-.28.36-.4.5-.63s0-.19.1-.27a7.6,7.6,0,0,1,.62-.66,9.93,9.93,0,0,0,1.78-2.62,3.64,3.64,0,0,0-.09-2.15,5.07,5.07,0,0,0-.27-.71A1.57,1.57,0,0,0,31,36.75a2.69,2.69,0,0,0-.46.17,1.24,1.24,0,0,0-.8.57,1.13,1.13,0,0,0-.34.76,3.84,3.84,0,0,0-.12.52,2.4,2.4,0,0,0,.62,1.15c.18.06.66,0,.57-.28-.35-.07-.71-.1-.85-.43m3.42-21c0,.31.15.68,0,.9-.11-.19,0-.41-.05-.63A5.33,5.33,0,0,1,33,17a8.15,8.15,0,0,1,0,1.23m-4.3-4.32a2.09,2.09,0,0,0,.11-.3,2.4,2.4,0,0,1,1.29-.73,1.09,1.09,0,0,1,.17,0,1.72,1.72,0,0,1,1.74.55,3.08,3.08,0,0,1,.54.9,2,2,0,0,1,.31.71c0,.21-.07.31-.09.49-.05.36.12.81-.17,1.12-.08-.34,0-.8-.07-1.07-.21.34.19,1.33-.26,1.48,0-.22-.05-.53-.05-.82s.11-.45,0-.55c-.14.32.18,1.37-.19,1.59a8.15,8.15,0,0,1,0-1.12c0-.2.07-.51-.1-.5-.06.62,0,1.13,0,1.7-.08,0-.08.05-.15,0-.16-.5.05-1.27-.14-1.72-.11.49.09,1.42-.1,1.67-.16-.07-.08-.35-.09-.55a2.84,2.84,0,0,0-.1-1c-.12.38,0,1.06-.07,1.48-.18-.1-.07-.45-.09-.71s.06-.63-.07-.8c-.08.36,0,1,0,1.37-.08,0-.14,0-.22,0a5.29,5.29,0,0,0,0-1.28c-.16.29,0,.79-.08,1.17-.43,0-.11-.85-.28-1.12-.17.13,0,.54-.12.69a1.71,1.71,0,0,1,.21-1.75c.12-.09.31-.1.39-.24-.17-.3-.43.09-.62.1a6,6,0,0,0-.34.9.47.47,0,0,1-.45-.08c.07-.21.25-.3.19-.65-.08-.07-.16-.19-.26-.08s.11.1.12.21-.11.36-.26.41-.16-.48-.39-.54c-.19.25.17.52.27.71-.06.23-.26.23-.46.3s-.13.14-.19.16-.14-.12-.16,0-.09.7,0,.79,0-.25.1-.3a4.91,4.91,0,0,1,0,1.15c-.1-.2,0-.46-.07-.69-.09,0-.09.1-.15,0a3.8,3.8,0,0,1,.51-3.14m4.14,4.81c0,.16,0,.56-.17.51A4.5,4.5,0,0,1,32.65,18c0-.28,0-.71.16-.8,0,.5.09,1,.1,1.48m-.31.54a.16.16,0,0,1-.24.08c0-.38,0-.7,0-1s-.05-.77.19-.85c.1.52,0,1.25.1,1.8m-.41.06h-.07A4.28,4.28,0,0,1,32,18.06c0-.17-.07-.48.14-.46a8.88,8.88,0,0,1,0,1.72m-.26-.85c0,.29,0,.64,0,.82,0,0,0,0-.07,0-.21,0-.09-.31-.1-.47s-.19-1.11.1-1.17a1.91,1.91,0,0,1,.09.79m-.33-.08c0,.33,0,.72,0,.93,0,0,0,0-.08,0a1.23,1.23,0,0,1-.09-.62c0-.38-.08-.83.09-1.07a1.55,1.55,0,0,1,.1.74m-.38.93a1.26,1.26,0,0,1-.07-.52,3.78,3.78,0,0,1,.07-1.18,4.42,4.42,0,0,1,0,1.7m-.17-1v.52c0,.18,0,.45-.12.49a2.69,2.69,0,0,1-.09-.82,6.82,6.82,0,0,1,0-1c.25.06.19.55.19.84m-.12-5.94v-.09c.06,0,.1,0,.1.09Zm-.21,6.21c0,.29.09.72-.15.77-.12-.18-.05-.54-.07-.87a2.84,2.84,0,0,1,.07-1.2c.24.19.14.81.15,1.3m-.24,23.69a.17.17,0,0,1,0,.13c-.08,0-.09-.13,0-.13m0-29.9c-.18,0-.07-.34,0-.44a.81.81,0,0,1,0,.44m-.1,5.64c0,.42,0,.9,0,1.23,0,0,0,0,0,.05h-.12a13.73,13.73,0,0,1,0-2.4c.2.26.12.72.12,1.12m-.19,25c0-.23-.07-.56,0-.66,0,.2.14.5,0,.66m0-30.51a.89.89,0,0,1,0-.68c0,.23.13.55,0,.68m0-.79c0-.07,0-.16.05-.16s0,.16-.05.16m-.05,7.42H30a7.09,7.09,0,0,1,0-2,7.53,7.53,0,0,1,.09,2M30,16.26a.47.47,0,0,1,.09.36c-.14,0-.2-.29-.09-.36m-.08,27c0-.28-.11-.81.05-1,0,.29.14.77-.05,1m0-30.67c-.15-.09,0-.47,0-.63.15.07.16.53,0,.63m0-1.06c0-.07,0-.22.05-.19v.19Zm-.07,4.88c-.15,0-.16-.18-.26-.24s-.17,0-.17-.12c.15-.06.37-.29.52-.1-.11.06,0,.34-.09.46m0,2.05a5.52,5.52,0,0,1,0,.57s0,0,0,.05h-.07a2.56,2.56,0,0,1-.1-1.06,9.16,9.16,0,0,1,0-1.28c.29.36.14,1.1.14,1.72m-.14-5.82c0-.14-.09-.3,0-.35,0,.12.09.3,0,.35M29.53,17c0,.73,0,1.24,0,1.91-.11,0-.15-.12-.21-.19,0-.47,0-1,0-1.5,0-.27,0-.59.12-.74.2,0,.14.32.14.52m-.12,27a5,5,0,0,1,0-1.39,1.9,1.9,0,0,1,0,1.39m0-31.33c-.18-.19-.09-.66-.07-1a1.15,1.15,0,0,1,.07-.54,7.3,7.3,0,0,1,0,1.55m-.29,3.11s.2-.21.29-.08-.3.21-.29.08m0,27.16c0-.11-.05-.33.07-.33s.09.3-.07.33m.05-24.4c-.27-.22,0-.85-.19-1.2.16-.18-.08-.66.14-.76a8.47,8.47,0,0,1,.05,2m-.26-2.35c0-.1.19-.14.28-.08a.15.15,0,1,1-.28.08m.26,27.62c-.06,0-.08-.33,0-.36a.55.55,0,0,1,0,.36M29.1,13c0-.07,0-.16,0-.16s.05.14,0,.16M29,11.16c.05.55-.06,1.15-.05,1.64,0,.13.16.35-.07.41-.12-.33,0-1-.26-1.1a7.18,7.18,0,0,1,0-.81c.12,0,0,.15.17.11.12-.37-.05-1,.09-1.26a4,4,0,0,1,.1,1m-.1,32.22a1.32,1.32,0,0,1,0-.71c.06.21.11.57,0,.71m0-.79c0-.07,0-.23,0-.27a.21.21,0,0,1,0,.27m.05-23.25c-.12,0-.06-.2-.05-.3s.09.24.05.3m0-1.06c-.15-.06-.05-.27-.05-.41a5.14,5.14,0,0,1,0-1.25,9.29,9.29,0,0,1,0,1.66m0,25.49c0-.08-.05-.09,0-.17s.1.16,0,.17m0-1.59c0-.14-.08-.36,0-.43a.78.78,0,0,1,0,.43m-.14-25c0,.25.06.7-.07.88a7.42,7.42,0,0,1,0-1.64c.15.17.1.48.1.76m-.07,27.59c0-.25-.17-.6,0-.79a1.62,1.62,0,0,1,0,.79m0-25.68s0-.1-.07-.11,0-.18.09-.19.08.27,0,.3m0-8.37c-.23-.18-.08-.66-.1-1,.21.2.14.64.1,1m-.24,8.43a.9.9,0,0,1,0-.63.86.86,0,0,1,0,.63m0-5.92A2.47,2.47,0,0,1,28.46,12a3,3,0,0,1-.05,1.21m.05,28.86c-.1,0-.09-.14-.05-.19s.08.15.05.19m-.05-6.35a.74.74,0,0,1,0-.39c.12,0,.09.36,0,.39m-.05-21.78a.74.74,0,0,1,.07-.49c.07.11.08.46-.07.49m0-4.25a1.89,1.89,0,0,1,0,.43c-.14,0,0-.32,0-.43M28.19,46a.38.38,0,0,1,0-.33,1.17,1.17,0,0,1,0,.38s-.08,0-.07,0m0-1.36c-.1,0-.1-.2,0-.17s.05.11,0,.17m0-1.23c-.09,0-.07-.26,0-.25a.36.36,0,0,1,0,.25m-.07-33.29a2,2,0,0,1,0-.6c.17,0,0,.45,0,.6m0,26.08s-.05-.21,0-.21.06.2,0,.21m0-.54c0-.09,0-.26,0-.3s.07.26,0,.3m0-25.13a.45.45,0,0,1,0-.38c0,.12.08.31,0,.38m0-1.23c0-.1,0-.23,0-.3s0,.29,0,.3M28,46.85c-.09,0-.07-.12-.05-.19s.06.1.05.19M28,15.09a.42.42,0,0,1,0-.3c0,.06,0,.27,0,.3M27.05.27c-.15-.1,0-.24.17-.16a.14.14,0,0,1-.17.16M3.44,2.49H1.13A6.09,6.09,0,0,1,0,2.5v.4q.92,0,1.83-.06c.24,0,.45.05.69.05,1.8,0,3.75-.16,5.54-.11,1.06,0,2,0,2.94,0,.73,0,1.47.09,2.19.09.24,0,.49-.08.73-.09.85,0,1.54,0,2.2,0a18.73,18.73,0,0,0,3,0,1.67,1.67,0,0,0,.81.08c.31,0,.63.05.93,0,.12,0,.24-.08.35-.08.3,0,.6,0,.91,0H23c1.29.07,2.37,0,3.34.09,0,3.88,0,8.43,0,12.33a4.68,4.68,0,0,1,0,.84c0,.14-.17.11-.22.25s.22-.09.19.11c0,3.28.12,6.27,0,9.25a3.39,3.39,0,0,1-.09,1.31c.17.19.09.48.09.71,0,1.74,0,3.59,0,5.48,0,3,0,6.09,0,9.28,0,1,0,2.07,0,3.09,0,1.5.1,3.09,0,4.72a5.55,5.55,0,0,0,.1,1.47c.05,0,0,.08,0,.08-.38,0-.81,0-1.27,0s-.87,0-1.28,0c-.9,0-1.81,0-2.6,0s-1.8,0-2.67,0a11.34,11.34,0,0,0-1.3,0c-.45,0-.87,0-1.29,0-.22,0-.43.08-.64.09-.74,0-1.41,0-2.1,0-1.89.06-3.85,0-5.81.05a5.23,5.23,0,0,1-.69,0c-.48,0-.94,0-1.41,0-.24,0-.48,0-.71,0s-.34.08-.5.09-.31,0-.48-.06c-.71,0-1.41,0-2.1.06-.37,0-.76,0-1.12,0H0v.31c.53,0,1.06,0,1.58,0H3.3l0,0c3.73-.08,7.11,0,11-.05h2.05a18.55,18.55,0,0,1,2.79,0c.47,0,.95-.06,1.43,0a6.6,6.6,0,0,1,1.9.27c.33.12.48.48.79.6.13.15.15.55.45.41,0-.75-.76-.95-1.24-1.28,1-.07,2.13,0,3.12,0A2.66,2.66,0,0,0,26.57,52a21.55,21.55,0,0,0,.05-3.68c0-.42,0-.85.05-1.26,0-1.47,0-3.06-.05-4.61,0-.34.08-.71.07-1.06s-.08-.61-.07-.9c.1-3.33.07-6.66.07-9.91a4.81,4.81,0,0,0-.07-1.17c.2-1.8-.08-3.95.05-5.68a.82.82,0,0,1,.07-.3,28.44,28.44,0,0,1-.07-3.16c0-2.37,0-5.07,0-7.48,0-.26.05-.51,0-.76s-.07-.74-.07-1.09c0-2.51.05-5.27.05-8A.74.74,0,0,0,26,2.43c-1.4,0-3.16.1-4.55,0,.67-.54,1.45-.93,1.7-1.94a10.25,10.25,0,0,1,2.21,0c1.37,0,2.65,0,4,0,.13.2-.07.52.12.6,0,.08-.1.08-.1.19,0,.66,0,1.51,0,2.21-.14.16-.43,0-.52.19-.3-.07-1-.16-1.1.19a4.06,4.06,0,0,0,0,.65c0,.32,0,.71,0,1,0,.09-.07.18-.07.24,0,.35.08.73.07,1.12,0,.12,0,.25,0,.36,0,.67.09,1.37,0,2s0,1.53,0,2.3c0,.61,0,1.31,0,2s-.06,1.19,0,1.78c0,1.27,0,2.42.07,3.6a2.1,2.1,0,0,0,.07.9,9.81,9.81,0,0,0,2.05.11c.51,0,1.05,0,1.64,0,.3,0,.59-.08.89-.08.82,0,1.62.07,2.4.08.14,1.59,0,3.62.07,5.24,0,.56.06,1.14,0,1.69-.08,1.42,0,2.94,0,4.45,0,.66,0,1.33,0,2a15.51,15.51,0,0,1,0,1.67c-2.49.06-4.73.17-7,.21-.32.29-.2,1.25-.19,2s-.05,1.32-.05,2c0,1.43.09,2.93.1,4.37,0,.25,0,.51,0,.76,0,1.9,0,3.77,0,5.62a3.86,3.86,0,0,0,0,.68c0,.11.09.1.15.25s0,.48.26.54.29-.09.43-.11a3.06,3.06,0,0,1,.74.06c.08.73-.05,1.51.07,2.24a2.11,2.11,0,0,1-1.12,0c-1.28.14-2.71,0-3.81.08-.22,0-.62-.2-.62.23,1.69.05,4.08.16,5.81.05,0-.89-.11-1.77-.05-2.7A1.94,1.94,0,0,0,30.86,49a2.2,2.2,0,0,0-.52-1.07,1.07,1.07,0,0,0-1.07,0,10.67,10.67,0,0,1,2.4-3.47c.09-.11.17-.24.26-.33s.19-.09.26-.16.12-.21.2-.3.19-.14.26-.22.18-.32.31-.47.23-.26.33-.4a6.63,6.63,0,0,0,1.19-2.1,4.34,4.34,0,0,0,.22-1.69,1.83,1.83,0,0,0-.08-.25c0-.33,0-.69,0-1a2.85,2.85,0,0,0-.12-.46c0-.1-.13-.17-.17-.28s0-.29-.09-.38a13.54,13.54,0,0,0-1-1.2,13.65,13.65,0,0,1,1.88-.09V20.52c0-.33,0-.66,0-.93-.22-.39-.84-.18-1.29-.27.15-.29.47-.43.7-.68a7.3,7.3,0,0,0,.69-1.4,6.37,6.37,0,0,0,0-1.85,10.34,10.34,0,0,0-.86-2.1,6.19,6.19,0,0,0-.48-.74c-.17-.23-.33-.5-.5-.71s-.29-.24-.4-.38a4,4,0,0,0-.31-.41,15.7,15.7,0,0,1-1.17-1.28c-.08,0-.09,0-.17,0A4.67,4.67,0,0,0,30.6,9c-.07-.08-.08-.2-.14-.28s-.34-.3-.48-.49-.22-.42-.36-.6a1.65,1.65,0,0,1-.47-.9c.44.12,1.05.33,1.35-.08a2.37,2.37,0,0,0,.34-1.72,1.45,1.45,0,0,0-1.38-1.2c-.07-.09.13,0,.11-.16,0-1.06,0-2-.07-2.95,0-.23.1-.42,0-.6-.37,0-.9.08-1.24.05-.1,0-.07.07-.07.14S28.05,0,28,0c-1.6,0-3.22.14-4.9,0,0,.09-.17.08-.24.14a3.2,3.2,0,0,1-.33,1.11,3.92,3.92,0,0,1-.72.69,5.06,5.06,0,0,1-.83.27c-.11,0-.21.14-.31.16a2.06,2.06,0,0,1-.43,0c-.62,0-1.44.11-2.05.09-.28,0-.53-.13-.78-.14s-.52.13-.79.14l-9.33,0a.81.81,0,0,1-.22,0Z"/><path class="cls-1" d="M33.41,21.09a6.9,6.9,0,0,0-2,0c-.22,0-.45,0-.66,0a8.68,8.68,0,0,1-.88,0,13.55,13.55,0,0,0-1.41,0,1.17,1.17,0,0,1-.59,0c-.13.21,0,.41,0,.63,0,.83,0,1.68,0,2.53s.06,1.41.07,2.11c0,.87-.07,1.74-.07,2.59a5,5,0,0,0,.07.54c0,.36-.09.76-.07,1.2a3.2,3.2,0,0,0,.07.33c0,.37,0,.78-.05,1.18,0,.23.05.47.05.68s-.11.4.05.51.07-.15.12-.3c.51,0,1,.06,1.62.06.9,0,1.94-.07,2.76-.06a2,2,0,0,0,.4.06,4.07,4.07,0,0,1,.67-.11c.11-1.06,0-2.16.05-3.33,0-.91,0-1.84,0-2.75,0-.25-.07-.51-.07-.77s.05-.56.05-.84c0-.85-.09-1.89-.05-2.81,0-.11.05-.22.05-.33s-.06-.18-.07-.28.08-.52-.05-.76m-.07,2.1c0,.28-.06.57-.05.85.1,2.75,0,5.46,0,8.24-.2-.26,0-.58,0-.87,0-.68-.06-1.4-.05-2.13,0-.49,0-1,0-1.45,0-.75,0-1.55,0-2.32,0-1,0-2,0-2.92,0-.4,0-.8-.05-1.12-1.69.28-3.3,0-4.93.19a13,13,0,0,1-.07,1.51c.05,1.71,0,3.56,0,5.4,0,1.33.05,2.82,0,4,1.53.07,3.33.11,4.91.06.17,0,.27-.13.26.08s-.52.14-.64.14c-1.29,0-3.09.12-4.64,0C28,29,28,24.93,28,21.23c1.89,0,3.41,0,5.27,0,0,.65.06,1.31.07,2M33,25.4c0,1.27.08,2.42,0,3.6s.05,2.14-.07,3.2a11.28,11.28,0,0,1,0-2.11c0-.51,0-1-.07-1.55s0-.82,0-1.23c0-1.34,0-2.67,0-3.93,0-.32,0-.68,0-1,0-.14-.1-.4.07-.49C33,23,33,24.3,33,25.4m-.31-2.81c0,3.08.05,6.28,0,9.33-.27-.15-.16-.73-.14-1,.06-.73-.06-1.48-.05-2.23,0-2,.06-4.06,0-5.87,0-.24-.17-.53.12-.68.14.11,0,.31,0,.46m-4,9.74a1.56,1.56,0,0,1,.43-.57c.16-.16.31-.33.48-.52s.7-1,1-.95c.12,0,.31.23.43.35a4.34,4.34,0,0,1,.38.44,8.85,8.85,0,0,1,1.08,1.17s0,0,0,0c-1.27.12-2.58,0-3.84,0m3.65-3.76c0,.83.08,1.79.05,2.59a.68.68,0,0,1-.1.36c0-2.42-.14-5.28-.09-7.62,0-.11-.05-.22-.05-.35,0-.34-.06-1,.19-1.07,0,2.09,0,4.19,0,6.09m-1-6.44c-.27,0-.48.13-.64,0a7,7,0,0,1,1.57,0c-.28.17-.61,0-.93,0m.67,3.74c.07.9,0,2.11.07,3,0,.43,0,.79,0,1.25s.18.88,0,1.09c-.16-1.8-.05-3.87-.07-5.59.14,0,0,.17,0,.25m-.15-3.55c.08,0,.24-.06.24.05s-.24.08-.24-.05m.1,3a7.36,7.36,0,0,1,0-1.15,3,3,0,0,0-.12-.84c-.06,1,0,2.09,0,3,0,.69.06,1.5,0,2.18,0,.33.05.62,0,.95s0,1-.07,1.5c-.24-.3-.06-.76-.07-1.14-.07-2.22-.06-4.47-.05-6.66.08-.15.14.09.22,0s0-.38.16-.35c-.08.83,0,1.74-.09,2.48m-.31-2.51c.05-.09,0-.15,0-.22s.16,0,.17.05-.05.19-.17.17m-.31.08c.1,0,.24-.11.26,0s-.2,0-.26,0m.19,6.77a8.43,8.43,0,0,1,0-2.46,14.37,14.37,0,0,1,0,2.46m-.07-3.2c-.11-.14,0-.3,0-.52.1.09.14.44,0,.52m0,.63a.72.72,0,0,1,0-.44c.12,0,.08.37,0,.44m0-1.23c0-.35-.09-.74,0-.92,0,.38.1.7,0,.92m0-1.39c-.11-.18-.19-.91,0-1,0,.38,0,.68,0,1m-.27.17a1.74,1.74,0,0,1,0-.82c.14.12.08.61,0,.82m0,.4c0-.1,0-.13,0-.24s.08.22,0,.24m-1.07-1.88c.35,0,.81-.17,1.1.06a1.54,1.54,0,0,1-1.1-.06m.91,6.71c0-.18-.13-.49,0-.57a1.16,1.16,0,0,1,0,.57m0-.6c-.08,0-.11-.33,0-.38a.7.7,0,0,1,0,.38m-.09-3.95s0-.17,0-.17.05.17,0,.17M29,22.87c.33.37.81.78,1.15,1.19a3,3,0,0,1,.33.47,6.33,6.33,0,0,1,0,1.58c0,.57,0,1.16,0,1.66s0,.8,0,1.21c0,.26.07.52.07.73s-.45.6-.64.79c-.47.48-.84,1.09-1.29,1.5-.06.06-.16.19-.26.14,0-3.25,0-6.59,0-9.93.31,0,.44.43.64.66m.67-.22c.11,0,.27-.1.36,0-.1,0-.25.11-.36,0M29.43,22c0,.11.16.05.22.11-.14,0-.31.1-.46,0s.09-.1,0-.24a.84.84,0,0,0,.33,0c0,.05.08.05.1.08s-.23,0-.24.06"/><path class="cls-1" d="M25.05,4c-.15,0-.09-.25,0-.3s.23-.06.22,0-.19.09-.19.25m0,2.13a2,2,0,0,1,0-.9c.1.27-.12.74.16.79a.28.28,0,0,1-.19.11m.08,27.45c-.1,0,0-.23-.05-.33s.06.25.05.33m-.05-10.1c0-.2-.05-.51.05-.63,0,.16,0,.56-.05.63m0-2.46a1.09,1.09,0,0,1,0-.57c0,.23.11.42,0,.57m0-9.16a2.66,2.66,0,0,1,0-.79,1,1,0,0,1,0,.79m0,20.35a.36.36,0,0,1,0-.27c0,.09.06.23,0,.27m0-3.87c-.07,0,0-.3-.05-.44.13.06.07.3.05.44m0-1.12c-.12-.05,0-.34,0-.43a.79.79,0,0,1,0,.43m0-2.26c0-.13-.09-.32,0-.39,0,.08.06.35,0,.39m0-3.63c-.09,0-.05-.11-.05-.2s.08.13.05.2m0-1.15a1.3,1.3,0,0,1,0-.49c0,.11.07.38,0,.49M25,19c0-.28,0-.44,0-.65.13.09.07.53,0,.65m0-9.58s0-.13,0-.13.05.12,0,.13m0,39.32c0,.07,0,.09,0,.17s-.06-.17,0-.17m0-30.8v.24c-.09,0-.05-.23,0-.24M25,10.78c0-.1-.05-.23,0-.28s.05.27,0,.28m0-.39c-.1,0,0-.15,0-.16s0,.1,0,.16m0-3.16c0-.06-.05-.31,0-.33s.06.28,0,.33M25,5a.14.14,0,0,1,0-.18c0,.07.07.16,0,.18m0-.41c0-.15,0-.35.07-.4,0,.14,0,.33-.07.4M25.05,12c0,.08,0,.22,0,.25s-.08-.24,0-.25m-.31,22.65a9.78,9.78,0,0,1,0-2.1,6.68,6.68,0,0,1,0,2.1m.05.9c-.11-.06-.1-.42,0-.54a.9.9,0,0,1,0,.54m0-4.39c-.15-.1-.08-.37-.05-.55.15.06.06.37.05.55m0-6c0,.57.07,1.05.08,1.5,0,.22-.08.43-.08.65a3.54,3.54,0,0,1,0,1.42c0-1.42-.06-2.89,0-4.34a4.27,4.27,0,0,1,0-1.19c0,.62,0,1.29,0,2m0-2.13a2.05,2.05,0,0,1-.12-.79,12.43,12.43,0,0,1,.07-1.39A17.45,17.45,0,0,1,24.79,23m-.07,21.86c0-.22-.08-.55,0-.69a1,1,0,0,1,0,.69m0-1.2a2.18,2.18,0,0,1,0-.85,2,2,0,0,1,0,.85m.05-1.23a2,2,0,0,1,0-1.07,7.3,7.3,0,0,1,0,1.07m-.05-9.91a2.61,2.61,0,0,1,0-1,2.28,2.28,0,0,1,0,1m0-3.49a9.21,9.21,0,0,1,0,1.39c-.14-.11,0-.35,0-.52a7.23,7.23,0,0,1,0-1.14c.12,0,0,.17,0,.27m0-13.83c0,1.75.06,3.64,0,5.48-.17-.1,0-.37,0-.54,0-1.3,0-2.87,0-4.21a9.83,9.83,0,0,1,.07-1.55,3.73,3.73,0,0,1,0,.82m0-9.28a18.93,18.93,0,0,1,0,2.62c0-1-.06-2.26,0-3.25,0-.33-.11-1,.07-1.09a6.6,6.6,0,0,1,0,1.72m0,43.22c0-.3-.1-.78,0-.93,0,.34.08.68,0,.93m0-2.89a6.84,6.84,0,0,1,0,1.28c-.2-.24.1-.82-.07-1.12.06-.15,0-.26,0-.43.11,0,.06.21,0,.27m0-.3c0-.09,0-.34,0-.38s.07.3,0,.38m0-4.7s0-.16.05-.13v.13Zm0-.3s0,0,0,0a2,2,0,0,1,0-.7,2.35,2.35,0,0,1,0,.7m0-4.17c0-.07,0-.21,0-.27a.32.32,0,0,1,0,.27m0-22.43a4.86,4.86,0,0,1,0-1.09,1.85,1.85,0,0,1,0,1.09m0-1.47a5.1,5.1,0,0,1,0-1.67,4.88,4.88,0,0,1,0,1.67m0-3.71c0-.12-.06-.32,0-.39,0,.12,0,.31,0,.39m0,35.77s0,.12,0,.19-.06-.15,0-.19m0-33.75a8.83,8.83,0,0,1,0-1.78,13.22,13.22,0,0,1,0,1.78m0,36.48c0,.08,0,.11,0,.22s-.07-.18,0-.22M23.64,3.87c.21,0,.66-.1.86,0a1.48,1.48,0,0,1-.86,0m.77,38.31c0-.08-.08-.26,0-.3,0,.14,0,.2,0,.3m0-1.52c-.11,0-.08-.21,0-.25a.42.42,0,0,1,0,.25m-.05-8.38a.64.64,0,0,1,0-.3.24.24,0,0,1,0,.3m0-22.32a2.83,2.83,0,0,1,0-.77.87.87,0,0,1,0,.77m.05-4.2c0,.38.11.82-.05,1.11a13.74,13.74,0,0,1,0-2.4,3,3,0,0,1,.05,1.29m0,43.08c-.09,0,0-.11-.05-.16s.06.14.05.16m0-14.54c0-.09,0-.12,0-.22s.1.21,0,.22m0-.63c0,.11,0,.14,0,.24s-.07-.18,0-.24m0-.6c0-.16,0-.23,0-.33a.5.5,0,0,1,0,.33m0-3v-.16c.1,0,.07.17,0,.16m0-1.74c0-.27-.08-.59,0-.79a2.54,2.54,0,0,1,0,.79m0-2.29a1,1,0,0,1,0-.58,1,1,0,0,1,0,.58m0-1a.34.34,0,0,1,0-.3c0,.14.07.24,0,.3M24.33,13a2.17,2.17,0,0,1,.05-.93,1.61,1.61,0,0,1-.05.93m0,16.78c0-.06,0-.19.05-.17v.17Zm0-2.92c.08,0,.06.18,0,.19s0-.11,0-.19m0-.49c0-.06,0-.17.05-.14v.14h-.05m0-4.61c0-.07-.05-.24.05-.22s0,.15-.05.22m0-.47c0-.06,0-.19.05-.16v.16h-.05m0-.76c0-.05,0-.14,0-.25s.06.26,0,.25m0-4.18c0-.08-.05-.28,0-.33s.06.28,0,.33m0-.65a.82.82,0,0,1,0-.38c0,.12.05.29,0,.38m0-1.94c-.08,0-.06-.23,0-.22s0,.18,0,.22m0-1.83s0,0-.05,0c0-.22,0-.45.05-.62a2.15,2.15,0,0,1,0,.62m0-.79c0-.06-.06-.2,0-.22s.06.2,0,.22m0-.71s-.05-.21,0-.22.05.22,0,.22m0-2.53c0-.07-.06-.15,0-.17s0,.16,0,.17m0-.58c0-.13-.06-.22,0-.3,0,.1,0,.27,0,.3m-.31,38.17c-.09-1.08.06-2.17-.07-3.13.15-.35-.07-1.12.12-1.34,0,1.57.07,3.06-.05,4.47m.05-7.56c0,.33.07.67-.08.85,0-.84-.05-1.67,0-2.48,0-.29-.08-.77.1-1,0,.85,0,1.81,0,2.61m0-12.16c0,.68.08,1.37.07,2,0,2.44-.09,4.64,0,7-.07,0,0,.29-.09.32a14.76,14.76,0,0,1-.1-1.77c0-.59,0-1.27.05-1.94,0-.25,0-.49-.05-.74s.07-.5.05-.76-.07-.38-.07-.57.07-.46.07-.68c0-.37,0-.73-.05-1.09s.05-1,.07-1.45c0-.22,0-.43,0-.66,0-.42,0-.85,0-1.25,0-.16-.09-.32.05-.47a19.12,19.12,0,0,1,0,2M24,47.58a5.44,5.44,0,0,1,0-1.22,2.6,2.6,0,0,1,0,1.22m0-6.68a1.68,1.68,0,0,1,0-.87,1.51,1.51,0,0,1,0,.87m.07-17.73c0,.2,0,.49-.12.57a11.63,11.63,0,0,1,0-1.56,2.75,2.75,0,0,1,.1,1m-.07-1.07a.63.63,0,0,1,0-.52c0,.14.14.46,0,.52M24,6.17c-.12-.32.05-1-.14-1.34.05-.06.17-.13.12-.22s-.41,0-.53-.11h-.09a2.28,2.28,0,0,1,.74,0A6.45,6.45,0,0,1,24,6.17m.07,40c-.07,0-.09-.4,0-.38,0,.16,0,.27,0,.38m0-6.61c0-.08-.06-.39,0-.43s.07.38,0,.43m0-19.2s0-.07,0,0a3.4,3.4,0,0,1,0,.79c-.15-.19,0-.5-.05-.79m0-.19c-.05-.28,0-.77,0-1.1a1.88,1.88,0,0,1,0,1.1M24,19a3.9,3.9,0,0,1,0-.84A1.15,1.15,0,0,1,24,19m0-2.4c-.05.43.12.92,0,1.31a12.37,12.37,0,0,1,0-2.51,9.61,9.61,0,0,1,0,1.2M24,12.2A7.22,7.22,0,0,1,24,11a2.06,2.06,0,0,1,0,1.23m0-3.33c0-.65-.09-1.42-.07-2a1.26,1.26,0,0,1,.1-.49,15.43,15.43,0,0,1,0,2.54m0,1.5a3.06,3.06,0,0,1,0-1.18,5.07,5.07,0,0,1,0,1.18m0,3.9c0-.06,0-.18,0-.19s0,.15,0,.19m0-.6A.47.47,0,0,1,24,14a.53.53,0,0,1,0-.35m0-.46c0-.14,0-.35,0-.44,0,.12.06.35,0,.44m0-.77c.08,0,.06.16,0,.16a.34.34,0,0,1,0-.16m-.28,35.23c0-.11,0-.12,0-.22s.07.17,0,.22m0-41.91c0,.49.09,1,.09,1.44,0,.8,0,1.71,0,2.51a22.09,22.09,0,0,1,0,3.08,21.24,21.24,0,0,1,0,2.54c0,1.64,0,3.29,0,4.89,0,1.23,0,2.37,0,3.52-.1.21,0,.54-.07.73a2,2,0,0,1-.05-.87c0-.45,0-.89,0-1.34,0-2.13,0-4.4,0-6.6,0-.19.05-.38.05-.57,0-2.09,0-4.24,0-6.28,0-1,0-2.15,0-3.14,0-.17.05-.41-.07-.54-.12.09-.1.3-.12.44,0,.45,0,.87,0,1.3s0,.8,0,1.21c0,.61-.06,1.23-.07,1.85a4.34,4.34,0,0,0,.07.52c0,.16-.05.32-.05.49,0,.48,0,1,0,1.47a1,1,0,0,1-.08-.49c0-.95,0-2,0-2.94,0-.41,0-.82,0-1.2,0-.22.07-.43.07-.63s-.07-.34-.07-.52a3.94,3.94,0,0,1,.07-1.17c-.22,0-.24,0-.36-.09a.77.77,0,0,1-.86,0c-.17.19-.4.11-.64.11-1,0-2.08,0-3,0-.2,0-.38,0-.57,0a2.44,2.44,0,0,0-.26-.06c-.1,0-.2.08-.31.09a1.75,1.75,0,0,0-.24,0c-.5,0-.87-.06-1.33-.06-.78,0-1.65.06-2.5.06a4.53,4.53,0,0,1-1.38-.08c2.07-.08,4.24-.12,6.31,0a16,16,0,0,1,3,0c.46,0,.95-.08,1.41-.08.21,0,.45.13.62-.08a1.57,1.57,0,0,0-.91-.08c-1.11,0-2-.06-3-.06-.8,0-1.62.12-2.43.11l-3.19,0c-.42,0-.88.07-1.33.08-2.13,0-4.17-.07-6.17,0-.88,0-1.82,0-2.57,0a4.28,4.28,0,0,1-.62,0c-.17,0-.45.14-.58-.11C3.34,5,4.23,5,5,5c4.3,0,8.57-.2,12.72-.21.51,0,1,.09,1.55.08.25,0,.49-.06.74,0,1.26,0,2.62,0,3.69,0a2.87,2.87,0,0,1-.07,1m0,28.51c0-.13,0-.18,0-.25s.05.24,0,.25m0-3.77c0,.1.06.28,0,.41a.64.64,0,0,1,0-.41m0-.41c0-.09-.08-.23,0-.27a.28.28,0,0,1,0,.27m0-.54c0-.13-.1-.34,0-.38a.49.49,0,0,1,0,.38m0-1.37c0-.07,0-.18,0-.21s.05.21,0,.21m0-2.23a8.18,8.18,0,0,1,0-1.31,5.22,5.22,0,0,1,0,1.31m-.17,7.58c0,.1,0,.18,0,.27s.09.34.07.42a7.14,7.14,0,0,1-.12.92c0-.57-.05-1.24,0-1.83a12.92,12.92,0,0,1,0-2.26c.05.81.09,1.64.07,2.48m0,14.16a4.69,4.69,0,0,1-.07-1.36,4.32,4.32,0,0,1,.07,1.36m0-2.86c-.15-.16,0-.52,0-.79s-.1-.38,0-.47a8.82,8.82,0,0,1,0,1.26M23.43,41a1.74,1.74,0,0,1,0-.51c.15,0,.11.47,0,.51m0,4.94c0-.06-.06-.2,0-.22s.06.21,0,.22m0-2.53c0-.33-.12-.82.05-1.07,0,.33,0,.75-.05,1.07m0-1.15c0-.07,0-.16.05-.16s0,.19-.05.16m0-.82c0-.08-.07-.27,0-.3s.05.29,0,.3m0-1.17c-.09,0-.06-.18,0-.17s0,.12,0,.17m0,4.77c0,.08,0,.22,0,.25s-.05-.24,0-.25m0-7.31c0,.2,0,.47,0,.76-.11-.12-.05-.53,0-.76m0-.27a4.09,4.09,0,0,1,0-.71c.12.09.08.57,0,.71m0-1c0-.13-.06-.32,0-.41a.58.58,0,0,1,0,.41m0-5.43c-.1-.07-.06-.44,0-.49a1.36,1.36,0,0,1,0,.49m0-1.2a1.34,1.34,0,0,1,0-.66.84.84,0,0,1,0,.66m0-1.88a2.47,2.47,0,0,1,0-1.15,3.69,3.69,0,0,1,0,1.15m0,2.56c0-.09-.07-.16,0-.16a.16.16,0,0,1,0,.16m0-1.88c0-.07,0-.13,0-.14s0,.13,0,.14m0-.28c0-.07-.07-.29,0-.32s.08.27,0,.32m0-1.69s0,0-.05,0a3.54,3.54,0,0,1,.05-.76,3.21,3.21,0,0,1,0,.76m0-.82a3,3,0,0,1,0-1.23c0,.42,0,.8,0,1.23m0-1.28a7.92,7.92,0,0,1,0-1.14,3,3,0,0,1,0,1.14m0,4.26c0,.07,0,.21,0,.24s-.07-.26,0-.24m0-6.3v.24c-.09,0-.11-.25,0-.24m-.07-1c.05-.14-.06-.43.05-.52,0,.12,0,.54-.05.52m0-.69c0-.11-.05-.14,0-.19s0,.16,0,.19m0-3.9v-.33c.09,0,.08.28,0,.33m0-.73c0-.16,0-.26.05-.33,0,.11.05.27-.05.33m0,2.59c0-.17-.07-.32,0-.41,0,.11,0,.43,0,.41m0-.52c0-.05,0-.17.05-.14v.14Zm0-4.29c0-.07,0-.12,0-.16s0,.16,0,.16m0-.43c0-.22-.1-.66,0-.77a2.18,2.18,0,0,1,0,.77m-.17,30.67a3.17,3.17,0,0,1,.07.46c0,.14-.06.27-.07.41a25,25,0,0,1,0,2.87c-.2-.29-.05-.76-.07-1.18-.07-.92,0-2.14,0-2.94,0-.14-.06-.39.1-.44a2.78,2.78,0,0,1,0,.82m0-29.39a7.18,7.18,0,0,1,0,.79,8.83,8.83,0,0,0,0,1.42c0,.64-.07,1.3,0,2,0,.31,0,.6,0,.91s-.08.67-.07,1,0,.54,0,.82c0,2.17,0,4.3,0,6.44,0,.26.07.53.07.79s-.08.79-.07,1.18.08.71.07,1.06c-.07,2.44,0,4.93,0,7.31,0,.81.06,1.66,0,2.46s0,1.5,0,2.21c-.22-.16-.08-.58-.09-.9a2.72,2.72,0,0,1,0-1c-.15-1.56,0-3.37,0-5.05,0-.6-.05-1.19-.05-1.77,0-2.9,0-5.82,0-8.43,0-2.17.06-4.37.05-6.72,0-2.93,0-5.91,0-8.86a13.23,13.23,0,0,1,.05-1.78c0,2.14.08,4.12.05,6.17M23.1,48.18c-.7,0-1.42,0-2.1,0-.16,0-.31.07-.45.06s-.5-.09-.74-.08-.5.12-.67-.08c1.3.08,2.75-.07,4,0v.08s0,0-.07,0m0-40.32s0,0,0,0a2.54,2.54,0,0,1,0-1c0,.3,0,.67,0,.93m0,.57c0-.07-.05-.19,0-.19s0,.19,0,.19m0-1.69c0-.12,0-.33.05-.36s0,.33-.05.36m-.17,28.4c0,.7,0,1.37,0,2-.18-.22,0-.68-.05-1a3.4,3.4,0,0,1,0-1.15,2.82,2.82,0,0,1,0-.71c.18.22.08.57.09.82m-.07,6.11c.05-.35-.14-.75,0-1a1.64,1.64,0,0,1,0,1m0-1.11c-.06-.52,0-1.15,0-1.67,0-.2-.1-.41.07-.52a9.86,9.86,0,0,1-.05,2.19M21.6,47.89A16.56,16.56,0,0,1,19,47.83c-.17.14-.34,0-.52,0-1.11,0-2.47.14-3.48,0,2-.13,4.34,0,6.48-.08a8.51,8.51,0,0,1,1-.06c.14,0,.24.12.38,0a.15.15,0,0,0,0,.08,4.42,4.42,0,0,1-1.3.06m1.23-1.1a4.92,4.92,0,0,1,.05-1.53,5.73,5.73,0,0,1-.05,1.53m.05-1.61s-.05,0-.05,0a1.83,1.83,0,0,1,0-.66c0-.19-.12-.48.05-.57a6.84,6.84,0,0,1,0,1.28m-.05-1.31a13.86,13.86,0,0,1,0-2.23,9.84,9.84,0,0,1,0,2.23m0-6s-.06-.26,0-.27.07.24,0,.27m-.05,9c.17.1,0,.43.07.62-.13-.11,0-.42-.07-.62m.07-5.6v.19c-.08,0-.08-.18,0-.19m-.19,1c0,.2,0,.4-.05.57,0,.71.06,1.21.05,1.89s0,1.4,0,2.1c0,.23,0,.61-.19.65s0-.32-.1-.46c.09-1.74,0-3.87.07-5.76.35.07.24.62.24,1M22,4.53c.15-.1.23,0,.45-.06v.09c-.13-.1-.28.07-.45,0m.12-.28a.41.41,0,0,1,.26,0v.08a.27.27,0,0,1-.26,0m-.41,42.82c.14,0,.42-.13.53,0v.08a.73.73,0,0,1-.53,0m-.45.49a4.86,4.86,0,0,0-.66,0c-.08,0-.16.07-.24.08a5.31,5.31,0,0,1-.74-.11c-.18,0-.38.08-.55.08a6.7,6.7,0,0,1-1.26-.1c1.5-.11,3,0,4.4-.06v.08l-.95.06M21.79,4.2a.44.44,0,0,1,.31.08c-.12,0-.31.06-.31-.08m-.72-.3c.15-.13.44,0,.57.05-.13,0-.53.22-.57-.05m.33,43.22h-.5s0,0,0,0c.2,0,.3-.08.52-.05a.1.1,0,0,0,0,.08Zm-.33-39c0-.1.2-.06.17.08a.23.23,0,0,1-.17-.08m.14,37.65s0,0-.07,0a2.25,2.25,0,0,1-.81,0c-.35,0-.73.07-1,.06a6.33,6.33,0,0,0-.73-.06c-.13,0-.23.08-.34.09-.28,0-.57-.13-.85-.11s-.28.1-.41.11c-.67,0-1.37,0-2,0-1.46,0-2.68,0-4,0s-2.54,0-3.84,0A1.19,1.19,0,0,1,6.66,46c-.4.15-.93-.06-1.29.11-.36-.15-1,.17-1.23-.22a15,15,0,0,1,2.31-.11c.11,0,0,.19.18.16a.58.58,0,0,1,.65-.08c2.56,0,5.42-.09,8,0a3.57,3.57,0,0,1,1,0c.26,0,.54-.09.76-.08s.24.08.36.08.53-.08.81-.08c.62,0,1.27,0,1.95,0,.28,0,.57-.07.81-.06.08,0,.12.08.17.09s.09-.17.14,0Zm-.19-35c0-.14-.08-.46,0-.49a.53.53,0,0,1,0,.49m0,7.09a.34.34,0,0,1,.05-.22c0,.09,0,.19-.05.22m0-3.55c0-.06,0-.21.05-.19s0,.19-.05.19m0-1.53c0,.07,0,.09,0,.17s-.06-.16,0-.17m0-.95c0,.06,0,.18,0,.19s0-.15,0-.19m-.21,26.47a.17.17,0,0,1,0-.22c0,.06.08.2,0,.22m0-4.18a.35.35,0,0,1,0-.43,1.23,1.23,0,0,1,0,.43m-.05-1.25c0-1.3-.1-2.6,0-3.82a28.64,28.64,0,0,1,0,3.82m0-7.89c0,.41,0,.79.05,1.18s0,.66,0,.95a8.19,8.19,0,0,1-.09,1.58c0-1.41-.08-2.94,0-4.25,0-.17-.11-.39,0-.52a7.48,7.48,0,0,1,0,1.06m.05-11.65c0,.33,0,.73,0,1,0,0,0,0,0,0-.06.49,0,1.11-.09,1.61.05.62.07,1.36.07,2.07,0,.22,0,.45-.05.66s.07.42,0,.57c-.05-2.4-.09-5,0-7.45a7.25,7.25,0,0,1,.09,1.5m-.09,10c0-.21-.07-.42,0-.52a.67.67,0,0,1,0,.52m0-.58a2,2,0,0,1,0-.6.7.7,0,0,1,0,.6m0-1.8c-.11,0-.07-.29,0-.35a.85.85,0,0,1,0,.35m-.07-1a3.27,3.27,0,0,1,0-.57c0,.18.09.49,0,.57M20.45,4.5a.64.64,0,0,1,.41.06c-.17,0-.31.06-.41-.06m.38,17.35v.2c-.08,0-.08-.19,0-.2m0-1.28a1.12,1.12,0,0,1,0-.33c.11,0,.1.31,0,.33M18,47.09a14.29,14.29,0,0,1,2.86,0c-1,0-1.95.05-2.86,0M20.79,11.3s-.06,0-.05-.06,0-.25.05-.27a.62.62,0,0,1,0,.33M20.62,38a3.7,3.7,0,0,1,0,.47c0,.46.05,1,0,1.44,0,.11,0,.29-.1.36,0-.83-.07-1.69-.07-2.54,0-.34.07-.7.05-1,0-.51,0-1.08,0-1.63a6.63,6.63,0,0,1,0-1.94c.09,1.45,0,3.15,0,4.88m0-5.18s0,.06-.05,0a10.15,10.15,0,0,1,0-1.91,8.24,8.24,0,0,1,0-1.8c0,1.22,0,2.47,0,3.66m-.05-21.64a6.19,6.19,0,0,1,0-1.14,2.73,2.73,0,0,1,0,1.14m0,17.55a.29.29,0,0,1,0-.36c0,.1,0,.25,0,.36m-.05-.85v-.19c.11,0,.07.19,0,.19m0-3.55s0-.11,0-.19.08.2,0,.19m0-3.41c-.09,0-.07-.23,0-.22a.41.41,0,0,1,0,.22m0-2c-.07-.06-.11-.38,0-.43a1.64,1.64,0,0,1,0,.43m0-2s0,0-.05,0v-.65a2,2,0,0,1,.05.65M20.55,16a1.19,1.19,0,0,1,0-.46c.12.05.08.4,0,.46m.05-1.58c-.13,0-.06-.22,0-.27a.42.42,0,0,1,0,.27m0-.49c-.12,0-.1-.37,0-.38,0,.15.06.27,0,.38m-.05-1.61v-.22c.12,0,.05.2,0,.22m0,13c0-.07-.05-.22.05-.19v.19Zm0-3.2c0-.11,0-.25,0-.32,0,.08.05.28,0,.32m0-4.25c0,.45,0-.23,0,0v0m0-.55v.27c-.1,0-.08-.23,0-.27m0-5.59c0,.11,0,.29,0,.35s-.07-.34,0-.35m-.77-7.83c.13-.08.45-.1.55,0a.7.7,0,0,1-.55,0m-.09.32a1,1,0,0,1,.62,0,1.86,1.86,0,0,1-.62,0M20,46.38c.07,0,.19-.08.21,0s-.19,0-.21,0m-.34-12.3a6.29,6.29,0,0,0-.07,1.64c0,1.41,0,2.68,0,4.09s0,2.54-.05,3.85c-2.07,0-4.3,0-6.53,0a12.61,12.61,0,0,1,2.12-.06c1,0,2-.11,3-.08.21,0,.44.09.57-.06.09,0,.32.19.38,0-.23,0-.52-.15-.77-.16s-.23.11-.3,0c.39,0,.77.08.9-.19A2.79,2.79,0,0,0,19,42c0-.24.07-.5.07-.73,0-6.82,0-13.82,0-20.74,0-.13,0-.26,0-.38,0-2.23.08-4.5,0-6.63A12.41,12.41,0,0,1,19,12c0-.09.06-.18.07-.27s0-.47.07-.65l.48-.09c0,3.06,0,6.28,0,9.12,0,.38,0,.78,0,1.14-.05,1.47,0,3,0,4.45a5.52,5.52,0,0,1-.1,1.58A4.62,4.62,0,0,1,19.59,29c0,1.58.05,3.38,0,4.91.05.05.17,0,.15.14s-.06,0-.08,0m0-23.22c-.7,0-1.47-.16-2.22-.14-.16,0-.31,0-.47.06-.92,0-1.83,0-2.62,0h-.79c-.39,0-.84.15-1.17-.11a2,2,0,0,1,1.07-.17c2.21-.08,4.09.09,6,0-.21-.25-.64-.12-.95-.14l-.69-.08a7.46,7.46,0,0,1,1.83,0c0,.23,0,.37,0,.6m-.34,33h.24a.1.1,0,0,0,0,.08c-.13,0-.23,0-.27-.08m-.88,1.09c.29-.18.71,0,1.1,0a2,2,0,0,1-1.1,0m1-40.66s0-.07.11,0v.08s-.12,0-.11,0M19,44.64c.1,0,.37,0,.36,0s-.38,0-.36,0m-1.1-.77a5.05,5.05,0,0,1,1.22,0c-.46,0-.87.14-1.22,0m-.35,4.26a8.34,8.34,0,0,1,.88,0c.24,0,.5-.15.64.06a4.57,4.57,0,0,1-1.52,0m1-38.2c.13,0,.44,0,.46,0s-.45,0-.46,0m-.43-1.09a2.86,2.86,0,0,1,.77,0c-.25,0-.57.11-.77,0m0-4.64a3.26,3.26,0,0,1,.71,0,1.06,1.06,0,0,1-.71,0m.38,42.18c.07,0,.3,0,.26,0s-.31,0-.26,0M18.17,8.51a.76.76,0,0,1,.5,0c-.16,0-.38,0-.5,0m-.27,37.9c-.14,0,.38,0,.39,0a.74.74,0,0,1-.39,0m-.16-1.5s.25,0,.21,0-.19,0-.21,0M17,8.84a3.33,3.33,0,0,1,.74,0c-.27,0-.54.13-.74,0m-.79,38.77c-.16,0-.32-.06-.47,0a2.77,2.77,0,0,1-1.41-.08,24.91,24.91,0,0,1,3.24,0,12.26,12.26,0,0,1-1.36.11M17.29,4.2c.06,0,.28,0,.23,0s-.21.08-.23,0M14,44.91a8.83,8.83,0,0,1,1.26,0,3.17,3.17,0,0,0,.51-.08,9.4,9.4,0,0,1,1.21.05c.2,0,.4-.06.57.06a22.15,22.15,0,0,1-3.55,0m1.5-34.65a14,14,0,0,0,1.79-.06c0,.12.2,0,.24.09-.67,0-1.38.05-2,0m-.78,35.25a17.62,17.62,0,0,1,2.71,0,11.75,11.75,0,0,1-2.71,0m1.81,1.58a4.93,4.93,0,0,1,.88,0c-.29,0-.64.13-.88,0m-.05-.3a8.86,8.86,0,0,1-1.86,0c-.32,0-.63.09-.95.09-.11,0-.22-.06-.33-.06-.29,0-.68.21-.91,0,1.65-.05,3.51-.14,5,0a1.37,1.37,0,0,1-.91,0M17,43.9c-.33,0-.79.14-1.1.11a1.56,1.56,0,0,1-.78-.11,12.89,12.89,0,0,1,2.24,0c-.12.08-.2,0-.36,0m-1.17-.49a1.51,1.51,0,0,0-.5,0s-.09,0,0,0a2.17,2.17,0,0,0,.58,0c.47,0,1,0,1.43,0,0,.05.06,0,.07.06a12.83,12.83,0,0,0-1.53,0m.65-34.82c.21-.21.53-.06.76-.05a6.19,6.19,0,0,1-.76.05m-2.7-4.25c-.18,0-.38-.08-.57-.06a7.77,7.77,0,0,1-.83.08c-.36,0-.73-.09-1.07-.08-.18,0-.49.17-.65,0,.66,0,1.32,0,2,0,1.43,0,2.86-.12,4.26,0,0,0,0,0,.05.08-1,0-2.19,0-3.15.06M16.4,47.17c-.19,0-.32,0-.47-.05h-.29c-.05,0,.2,0,.33,0h.46s0,0,0,0-.06,0-.05.05M15.88,8.51a1.42,1.42,0,0,1,.5,0,.63.63,0,0,1-.5,0m0,.33c.08,0,.23,0,.28,0-.1,0-.23.07-.28,0m-.41,0c.11,0,.29,0,.36,0a.41.41,0,0,1-.36,0M14.9,4.53a1.28,1.28,0,0,1,.6,0,1.68,1.68,0,0,1-.6,0M13.71,8.89a5.65,5.65,0,0,1,1.69,0,15.72,15.72,0,0,1-1.69,0m-.57-.35c-.37-.06-.73.17-1,0a10.06,10.06,0,0,0,1.36,0c.22,0,.44.06.65,0,.39,0,.83-.18,1.14,0-.66,0-1.54.08-2.12,0M14.4,10.2c.34,0,.6,0,.81,0a1.12,1.12,0,0,1-.81,0m-.12,37.66a1,1,0,0,1,.64,0,1.15,1.15,0,0,1-.64,0m-.59-3.93c.34-.08.89-.22,1.19,0a2,2,0,0,1-1.19,0m.9,3.16c.06,0,.29,0,.24,0s-.29,0-.24,0M14.23,4.53c.22,0,.37-.13.5,0a1.56,1.56,0,0,1-.5,0M14,45.59c-1.52-.07-3.32,0-4.93,0a.8.8,0,0,1,.53-.11c.95,0,2,0,2.95,0a10.45,10.45,0,0,0,1.12,0c.31,0,.69-.19.9,0-.07.09-.43.12-.57.11m-.47-2.23a.92.92,0,0,1,.57,0c-.16,0-.45.13-.57,0m-.24-33c-.09,0-.19-.06-.29-.06s-.36.11-.47-.05a6.71,6.71,0,0,1,1.57,0c-.3-.08-.57.07-.81.08m.5,37.49c.07,0,.23-.06.26,0s-.22,0-.26,0M12,4.64a2.89,2.89,0,0,1-1.1,0,6,6,0,0,1,1.81-.05,4.61,4.61,0,0,1,1.29,0c-.67.05-1.33.09-2,.08m1.43,40.3c-.05,0-.11.05-.17.05s-.13-.05-.19-.05a13.51,13.51,0,0,1-1.91,0,15.07,15.07,0,0,1,2.77,0c-.15.12-.35,0-.5,0m-.31,2.59a.82.82,0,0,1,.64,0c-.28,0-.43.13-.64,0m0-3.66a3.5,3.5,0,0,1,.6.09c-.22-.05-.51.13-.6-.09m.22-35c.1,0,.27,0,.33,0-.11,0-.27.1-.33,0m-.38,38.31a.6.6,0,0,1,.54,0,1.42,1.42,0,0,1-.54,0M13,43.38c.09,0,.36,0,.34,0s-.36,0-.34,0m-.43,4.48a1.09,1.09,0,0,1,.74,0,4.4,4.4,0,0,1-.74,0M12,44c-.13,0-.3.08-.36-.08.45,0,1.13-.16,1.41.09A2.86,2.86,0,0,1,12,44m.52-35.06c.16,0,.29-.08.41,0a.58.58,0,0,1-.41,0m.12,38.64c.11,0,.13,0,.22,0-.07,0-.19,0-.22,0m-1-3.93a8.15,8.15,0,0,1,1.12,0,2.34,2.34,0,0,1-1.12,0M12.4,8.24c0-.06.16-.09.19,0s-.13.13-.19,0M9.23,9c-.14,0-.37,0-.47-.11A.59.59,0,0,1,9.07,9a25.15,25.15,0,0,1,3.16-.08s.07,0,.08.05C11.4,9,10.21,9,9.23,9m2.22,38.86c.24,0,.57-.15.83,0a5.55,5.55,0,0,1-.83,0m.33-1.42c.14,0,.33,0,.43,0-.11,0-.37.08-.43,0m.33.41a26.2,26.2,0,0,1-3.07,0c-.37,0-.73,0-1.14,0-.84-.08-1.84.13-2.55,0a9.61,9.61,0,0,1,2.21,0c.43,0,.83-.09,1.24,0s.52,0,.79,0c.88,0,1.78,0,2.57,0,0,0,0,0,0,0s0,0-.08,0m-.19-36.59c.06,0,.28,0,.22,0s-.27,0-.22,0M12,43.33c0,.05.08,0,.07.08-.16,0-.37-.11-.07-.08m-.85-33.07c.21,0,.56-.08.66.08-.21,0-.56.08-.66-.08m0-1.75a2.68,2.68,0,0,1,.58,0c-.25,0-.4.13-.58,0M9.88,5.4A21.6,21.6,0,0,1,7,5.37a25.29,25.29,0,0,1-3.48,0c.33-.18.7-.05,1-.05,2.33,0,4.79-.08,7.12,0a8.75,8.75,0,0,1-1.78,0m1.4,41.09c.13,0,.19-.1.26,0-.08,0-.22,0-.26,0M10.45,44c-.35,0-.73.17-1,0,.16-.14.37,0,.55,0a4.76,4.76,0,0,1,1.55.06,3,3,0,0,1-1.07,0m1-.57c0-.08.16-.08.12,0ZM11,43.6c.06,0,.29,0,.24,0s-.29,0-.24,0M9.14,47.89a14,14,0,0,1-2.26,0,3.6,3.6,0,0,1,1.31,0,27.51,27.51,0,0,1,3,0,15.89,15.89,0,0,1-2.07,0M8.76,8.57a15.3,15.3,0,0,1,2.35,0,9.73,9.73,0,0,1-2.35,0M10.4,44.94c.14,0,.5-.09.57.05-.18-.08-.45.07-.57-.05m.1,2.59c.06-.12.37,0,.38,0a.6.6,0,0,1-.38,0m.07-3.87c.12,0,.16-.09.31-.06v.08c-.1,0-.26,0-.31,0m.07-.28s.25,0,.19,0-.26,0-.19,0m-.57-33.12c.2,0,.42-.11.5.08a1,1,0,0,1-.5-.08m-1.36-6a15.27,15.27,0,0,1,1.79,0c0,.1.08,0,.07.09a11.37,11.37,0,0,1-1.86-.09m1.45,39.13c.14,0,.28-.05.38,0-.12,0-.43,0-.38,0m-.12.28c0-.06.25-.12.26,0s-.22.05-.26,0M9.92,45c.05,0,.22,0,.22,0s-.19,0-.22,0m-.14,1.53c.05,0,.25,0,.19,0s-.25,0-.19,0m-.26,1c.16,0,.34-.12.45,0a.64.64,0,0,1-.45,0M9.38,45c.12,0,.32-.08.4,0-.14,0-.31.07-.4,0M9,43.74c-.49,0-1.18-.06-1.71-.06-.25,0-.54.07-.67-.08.83,0,1.57,0,2.38,0,.08-.07,0-.16.07-.22s.44-.08.6,0c-.14.05-.4,0-.45.11s.39,0,.59.08v.08c-.28-.14-.49.06-.81.06m.22-33.43a.71.71,0,0,1,.5,0,.71.71,0,0,1-.5,0M8.71,47.53c.22,0,.48-.1.64,0a.79.79,0,0,1-.64,0M9,43.93c.06,0,.29,0,.24,0S9,44,9,43.93m-.17,2.56c.07,0,.31,0,.26,0s-.3,0-.26,0M8.23,10.31c.26,0,.57-.14.76,0a3.78,3.78,0,0,1-.76,0m-.09,35.2a2.44,2.44,0,0,1,.55,0,.54.54,0,0,1-.55,0M8.38,4.25c.06,0,.28,0,.23,0s-.29,0-.23,0M4.73,9c1.32,0,2.4,0,3.86-.06V9C7.21,9,6,9.05,4.73,9m3.36,35c.11,0,.39,0,.38,0s-.39,0-.38,0M4.85,8.65c.14-.15.38-.08.57-.08a23.6,23.6,0,0,1,3.05,0c-1.14.05-2.33.05-3.62.06m3.24-.41c.09,0,.29-.1.29,0s-.24,0-.29,0M8,43.38a.31.31,0,0,1,.31,0,.55.55,0,0,1-.31,0m-.89-39c-.26,0-.54-.1-.81-.11a9.52,9.52,0,0,1-1.85,0,20.91,20.91,0,0,1,3.79,0c-.38,0-.75.13-1.13.11M6.13,45.51a13.15,13.15,0,0,1,2,0,10.06,10.06,0,0,1-2,0m1.63,2c.07,0,.3,0,.26,0s-.31,0-.26,0m-.93-3.6a3.52,3.52,0,0,1,1-.06V44c-.37,0-.76.15-1,0M7.49,45c0-.11.23-.1.29-.05s-.18,0-.29.05M6.8,10.26c.42,0,.63,0,1,0-.27,0-.79.16-1,0m.38,34.43c.12,0,.29,0,.36,0a.27.27,0,0,1-.36,0m-.66-1.31c.14,0,.47,0,.5,0-.15,0-.47,0-.5,0m0,4.18H6.35a1.38,1.38,0,0,1,.64,0c-.11,0-.34.11-.52,0m-.79.35a10,10,0,0,1-2.21-.11A6.82,6.82,0,0,1,5,47.86a4.42,4.42,0,0,1,1.81,0,11.07,11.07,0,0,0-1.17,0m.12-37.6a3,3,0,0,1,1,0c-.37,0-.71.15-1,0M6,44.91c.15,0,.36,0,.48,0-.19,0-.41.11-.48,0m-1.74-1a16.46,16.46,0,0,1,1.86,0,9.45,9.45,0,0,1-1.86,0M5.94,8.32a6.62,6.62,0,0,1-.68-.06c-.32,0-.07,0,.14,0H6s0,0,0,0,0,.07-.08.06M5.61,45.51c.17,0,.22-.07.36,0a.73.73,0,0,1-.36,0m-.79,2a3.64,3.64,0,0,1,1.1,0,2.15,2.15,0,0,1-1.1,0m.93-2.62s.16,0,.17,0-.14.08-.17,0m-.43-34.6c.19,0,.3-.11.43,0a.8.8,0,0,1-.43,0M4.49,47.53c.12,0,.16,0,.24,0a.25.25,0,0,1-.24,0m-.33-.76c.18,0,.45-.07.52.08-.21,0-.44,0-.52-.08m.19.43a.23.23,0,0,1,.26,0c-.08,0-.22,0-.26,0m-.48.33h.27a.35.35,0,0,1,.18-.05s.13,0,.15.08a1.2,1.2,0,0,1-.6,0M3.8,8.26a5,5,0,0,1,.67,0,.82.82,0,0,1-.67,0M4,44.91c.19,0,.33-.11.45,0-.06.07-.42.12-.45,0M2.16,9h.28a19.19,19.19,0,0,1,2,0A21.75,21.75,0,0,1,2.16,9M3.94,4.31c0-.08.32,0,.34,0s-.27,0-.34,0m0,42.95a10.61,10.61,0,0,0-1.12,0c-.15,0-.36.11-.45-.08a12.34,12.34,0,0,1,1.61,0s0,0,0,.08-.07,0-.07,0m0-2.3c-.25,0-.14-.13,0,0m-.26-1.09c.06,0,.29,0,.23,0s-.29,0-.23,0m0-39.59s.2,0,.22,0-.12,0-.22,0M3.42,44.69c.06,0,.27,0,.22,0s-.28,0-.22,0M3.33,4.31c0-.08.21-.08.26,0s-.18.12-.26,0M2.83,47.8a1,1,0,0,1,.59,0c-.13.06-.51.12-.59,0m-.12-1c.13,0,.33,0,.42,0-.11,0-.35.08-.42,0m-1.55-3a12.06,12.06,0,0,1,1.93.08,8.57,8.57,0,0,1-1.93-.08m1-39.57c.26,0,.58,0,.74.09-.26,0-.59,0-.74-.09m.28,40.66c.06,0,.26,0,.19,0s-.25,0-.19,0M.61,47.8a13.23,13.23,0,0,1,1.91,0,9.36,9.36,0,0,1-1.91,0M.4,4.31a6.79,6.79,0,0,1,1.69,0,10.74,10.74,0,0,1-1.69,0M1.75,47.15c.09-.06.25-.08.31,0a.34.34,0,0,1-.31,0M1,9c.34,0,.79-.08,1,0-.4,0-.74.1-1,0m.57,38.28c-.13,0-.18,0-.29-.06H1c-.09,0-.25,0-.3,0h.64c.1,0,.26,0,.33,0a.07.07,0,0,0-.07.06m0-37.16c-.44,0-.13-.13,0,0M1.11,44.91s.25,0,.19,0-.25,0-.19,0M.92,10s.25,0,.19,0-.25,0-.19,0M.73,9C.78,9,1,8.93.92,9S.67,9,.73,9M.2,4.25c.09,0,.17,0,.17.09s-.14,0-.17-.09M0,47.47a.06.06,0,0,1,.06,0H0v.29l.59,0a2.88,2.88,0,0,1-.59.06v.18a3.64,3.64,0,0,1,.56,0c1.27,0,2.6,0,3.91.08.34,0,.68-.08,1-.08s.5.08.74.08c3.66.08,7.49-.1,11.08,0,0,0,0,0,0,0l-.09,0c-1.1.09-2.25,0-3.39.11-.5,0-1-.09-1.5-.08s-.74.09-1.09.11-.42-.06-.62,0c-1,0-1.9,0-2.84.08-.21,0-.42-.09-.64-.08s-.21,0-.31,0a8.93,8.93,0,0,1-1-.08c-.55,0-1.14.06-1.69,0L0,48.27v.18c2.78,0,5.59,0,8.35,0,5,.07,9.93-.18,14.86,0,0,0,0,0,0,.08s0,0-.07,0a10.65,10.65,0,0,0-1.12.06,2.46,2.46,0,0,0-.29-.09c-.29,0-.62.06-.93.06s-.42-.09-.62-.09c-2.17,0-4.21.09-6.36.12-3.89,0-7.68,0-11.67,0H0v.19H2.54a33.67,33.67,0,0,0,4,0c1.35.16,2.87,0,4.2.05a7.1,7.1,0,0,1,1.71.09c.24-.15.56-.06.86-.06,2.14,0,4.22-.11,6.29-.11a35.06,35.06,0,0,0,3.55,0c.08.11.29.06.33.22A2.86,2.86,0,0,1,22,49c-1.16,0-2.27,0-3.35,0-.47,0-.93.06-1.38,0H15.64c-1.25,0-2.52.06-3.83,0-.28,0-.56.07-.84.06-1.45-.05-3,0-4.43,0-.14,0-.29.06-.43.06-1.21,0-2.45,0-3.67,0-.19,0-.4-.06-.59,0-.61,0-1.22,0-1.85,0v.14c.67,0,1.35,0,2,0s1.51,0,2.31,0l1.14,0c2.92,0,5.85,0,8.7,0,.29,0,.57-.12.78,0,2.52-.2,5.29,0,7.89-.08.08,0,.92-.13.93.11s-.47.16-.69.16a15.68,15.68,0,0,0-2.29.09c-1-.09-2.11-.06-3-.06-1.35,0-2.77,0-4.21.06-.55,0-1.11,0-1.67,0-1.92,0-4,.1-5.93-.05a35.42,35.42,0,0,1-3.57,0c-.81,0-1.62.09-2.43.08H0v.14H.68c.8,0,1.6-.06,2.38-.06,2.32,0,4.68.06,6.94.06a16.7,16.7,0,0,1,2.66,0c.24-.14.51,0,.86,0,3.58,0,7.25-.11,10.48-.11.05-.48,0-1,.05-1.48.19.39-.13,1.56.16,1.72s.14-.14.2-.08,0,.54.19.55,0-.73.16-.82a6.87,6.87,0,0,0,0,.93s0,0-.07,0l-6.36.08c-.52,0-1,0-1.53,0-1.17.08-2.37,0-3.45,0-3.26,0-6.63,0-9.84,0-.12,0-.23.06-.35.06H0v.39H.92c4.26,0,8.38-.08,12.39-.08,2.17,0,4.77,0,7-.06,1,0,1.91,0,3.12,0a6.42,6.42,0,0,0,2-.16s.07-.09,0-.08-.07-.15-.11-.22c0-2.4,0-4.78,0-7.12,0-1.79.06-3.55,0-5.16,0-.59,0-1.23,0-1.83,0-2.06,0-4.12.05-6.19,0-1.56,0-3.12,0-4.7,0-.52,0-1,0-1.55.06-1.56,0-3.12,0-4.7,0-.52,0-1,0-1.55,0-2.11,0-4.22,0-6.33,0-.66.05-1.34.05-2s0-1.33,0-2c0-1,0-2,0-3a8.88,8.88,0,0,0,.05-.9c-.7,0-1.44.09-2.19.06-.44,0-.88,0-1.34,0-.22,0-.43-.08-.64-.08a6.75,6.75,0,0,1-.91.05c-.55-.06-1.08,0-1.76,0-1.44-.07-3,0-4.43.06-.6,0-1.2,0-1.81,0s-1.08,0-1.62,0-1.22.11-1.83,0a15.61,15.61,0,0,0-1.81,0l-1.91,0c-1.2,0-2.35,0-3.55,0-.57,0-1.12,0-1.68,0v1l1.78,0c1.78,0,3.55-.1,5.21,0a22.28,22.28,0,0,1,3.84,0c-1.54.18-3,.06-4.55.11-.36,0-.7.09-1,.08s-.65-.06-1,0-.83.08-1.24.08c-1,0-2.16-.11-3-.06v.42l1.21,0a8.16,8.16,0,0,1,1,0c.1,0,.21.12.34.14s.6-.1.83.08c-1.11,0-2.23.08-3.35.06v.21c1.23,0,2.48-.06,3.71,0,2,0,4.06,0,6,0,1,0,1.9.06,2.83,0,.22,0,.44-.06.67,0h.69c1.1,0,2.12,0,3.09,0,1.94,0,4,0,6,0,.08,3,0,6.05,0,9,0,.14.05.3.05.46a1.88,1.88,0,0,0-.05.33c0,.09.07.19.07.3s0,.24-.05.35c0,.51,0,1,0,1.56s-.09,1.14-.08,1.69c0,.15.08.29.08.44,0,.9-.11,1.81-.05,2.72s0,1.62,0,2.43c0,.38.06.74.05,1.12,0,1.1,0,2.23-.07,3.36a19.73,19.73,0,0,1,0,2.56l0,1.15a4.57,4.57,0,0,1-.07,1.06c-.11-.18,0-.4-.05-.6,0-1.2,0-2.38,0-3.52,0-.47.06-.95,0-1.42,0-.67,0-1.33,0-2s-.08-1.5-.05-2.24,0-1.45,0-2.18c0-.42.07-.85.08-1.28s-.08-.59-.08-.87c0-1.08,0-2.6,0-4,0-.7-.06-1.41,0-2.1a2.79,2.79,0,0,0,0-1.12,2.67,2.67,0,0,0,0,1.09c0,1.12,0,2.13,0,3.19,0,2.93.05,6,0,8.82,0,1.45,0,3,0,4.55a2.29,2.29,0,0,0,0,.74c0,.31,0,.65,0,1s.06.7.05,1c0,.12-.05.23-.05.36a2.46,2.46,0,0,1,.07.29,4.63,4.63,0,0,1-.07.74c0,.29.05.56.05.85,0,.89,0,1.66,0,2.45,0,.55,0,1.09-.05,1.61a3.5,3.5,0,0,1-.07,1.48c-.19-.16-.17-.48-.17-.71.06-2.16,0-4,0-6,0-3.17,0-6.49,0-9.77a21.94,21.94,0,0,1,.07-2.62,2,2,0,0,1-.07-.87c0-.31,0-.62,0-.93,0-2.1,0-4.7,0-6.76a8.4,8.4,0,0,0-.05-1.34,9.53,9.53,0,0,0-.05,2c0,.7,0,1.4,0,2,0,3.86,0,7.81,0,11.41,0,3,0,6.05,0,9,0,1,.06,2,0,3,0,.58,0,1.17,0,1.75,0,1-.07,2.18-.07,3.46,0,.5.14,1.8,0,2s-.36,0-.55,0c-.82-.06-1.73,0-2.59,0a4.27,4.27,0,0,1-1.34-.06c1.06-.06,2.05,0,3-.05.51,0,1,.15,1.31-.19-.09-.1-.2-.16-.21-.33s-.27-.08-.39-.14c.12-1.21.09-2.47.12-3.71,0-.5,0-1,0-1.53,0-1.67,0-3.35,0-5,0-.18-.07-.37-.07-.55s0-.62,0-.93,0-.62,0-1c0-1.66,0-3.28,0-4.83,0-.33,0-.65,0-1,0-.11-.07-.21-.08-.33s0-.53.05-.79a8,8,0,0,0,0-.84c0-.12-.07-.24-.08-.36s0-.32,0-.49c0-.76.06-1.4,0-2.1,0-.23,0-.47,0-.71s-.06-.48-.05-.71.09-.61.08-.93c-.05-1,0-2.27,0-3.27,0-2.21,0-4.79,0-7.26,0-.51.15-1.66-.05-1.85s-1.1,0-1.62,0H17.12c-.76,0-1.51-.06-2.17,0s-1.38,0-2.1,0c-1.58.07-3.2,0-4.66,0-.37,0-.71.08-1,.08-.51,0-1.1-.08-1.64-.08-.75,0-1.58,0-2.34,0-.24,0-.5.06-.71.06s-.28-.08-.36-.08c-.32,0-.66.14-1,.13S.38,7.93,0,7.93v.62H1.56c1,0,2.12.08,2.86.05a0,0,0,0,1,0,.06s0,0-.07,0c-.22-.1-.56,0-.83,0s-.43,0-.67,0-.48-.08-.73-.08a6,6,0,0,0-1,.08A4.13,4.13,0,0,1,0,8.69v.25L.54,9C.39,9,.19,9,0,9v.12c1.09.11,2.42-.1,3.49.07a16.24,16.24,0,0,1,3,0c.66,0,1.34-.09,2-.08,3.39,0,6.89,0,10.27-.06.35,0,.9.13,1.14-.05,0-.14-.26,0-.26-.16a2.86,2.86,0,0,1,.9.05c.1-.37-.3-.37-.54-.38s-.57.13-.74,0a14.52,14.52,0,0,1,1.78,0,6,6,0,0,1,0,1.69c-.1-.58.1-1.24-.16-1.61-.13.66,0,1.39-.07,2.1-.18-.3,0-.88-.1-1.17-.09,0-.05.18-.12.22-.07-.23.08-.56-.09-.66a16,16,0,0,0-.1,2.27c0,.27.06.58.05.84s-.07.22-.07.33.05.3,0,.46c0,.61,0,1.06,0,1.56,0,.35,0,.7,0,1.06s-.05,1-.05,1.53c0,.3,0,.51,0,.79,0,.6,0,1.29,0,1.78s.06.94.05,1.25c0,.1-.07.2-.07.3s0,.31,0,.47c0,1.14,0,2.32,0,3.35.06,1.22,0,2.47,0,3.68,0,1.6,0,3,.07,4.51-.07,1.31-.05,2.74-.1,4.12,0,.56,0,1.14.05,1.72,0,1.62-.06,3.43,0,4.91,0,.19-.05.4.05.57.2-.34,0-.84.05-1.31,0-.24,0-.5,0-.79s.05-.77.05-1.12-.14-.84.07-1.14c.1,1.8,0,3.22.05,5,0,.14.27.08.19.22a2.9,2.9,0,0,1-1.1,0,10.53,10.53,0,0,1-2.1,0,6.55,6.55,0,0,1,1.29,0c.27,0,1,.13,1.19-.08a3.27,3.27,0,0,0-1.36,0c-.39,0-.8-.15-1.19-.11a7,7,0,0,1-1,.14,6.1,6.1,0,0,0-1.76,0c-.13-.12-.3,0-.43-.14a2.42,2.42,0,0,1,.9.06,10.78,10.78,0,0,1,2.12-.06,9.1,9.1,0,0,0,1.05-.08,8.14,8.14,0,0,0,1.91,0c-.05-.32-.6,0-.77-.22.29,0,.67.1.74-.14-.17-.12-.56,0-.71-.14.08-.07.26,0,.36-.08-.25-.13-.12-.57,0-.79a3.21,3.21,0,0,1,0-1.2c0-1,0-2,0-3.09,0-1.93,0-3.94,0-5.94,0-1.83,0-3.61,0-5.54,0-.34-.06-.7-.05-1,.05-1.85,0-3.69,0-5.54,0-1.35,0-2.84,0-4.28,0-.22-.05-.44-.05-.66,0-2.21,0-4.43,0-6.65a12.86,12.86,0,0,0-2.31-.06c-.72.07-1.46-.07-2.19-.05-1,0-2.08,0-3.1.11-.43,0-.87-.08-1.28-.06-.17,0-.34.08-.5.08A8.43,8.43,0,0,0,9,9.82c-.51-.23-1.26.17-1.73-.11a5.16,5.16,0,0,1-1.36.08c-2,0-4,0-5.9.06V10c.09,0,.27,0,.23,0H0v.23c1.63,0,3.29-.05,4.68,0-1.5.07-3.1.09-4.68.08v.14c2,0,3.9.1,5.8,0s4.12-.08,5.89,0c.1,0,.3-.08.38.08s-.05.06,0,.14c-1.91.07-3.84.1-5.79,0-.24.25-.65,0-1,0-1.56,0-3.51.1-5.23.11v.2c.5,0,1,0,1.54,0,1,.05,1.92-.06,2.86-.06,4.18,0,8.57,0,12.6,0,.27,0,.57.07.83.05s.64-.18.93-.05c.11.8,0,1.63.12,2.51a3.66,3.66,0,0,0-.1,1.12c0,1.09,0,2.21,0,3.19,0,1.58-.05,2.78,0,4.12,0,3.58-.07,7.31,0,10.88,0,.85,0,1.69,0,2.52,0,.24-.07.49-.07.73s0,.55,0,.85c0,2.07,0,4,0,5.92-.65,0-1.33.09-2,0-1.91-.08-4.12.09-6.28.08-.33,0-.65,0-1,0s-.4.08-.6.08-.49,0-.74,0c-.75,0-1.48,0-2.23,0-.46,0-.92.1-1.39.08s-1,0-1.45,0S2.08,43,1.63,43c-.22,0-.46.1-.69.08S.72,43,.61,43a4.15,4.15,0,0,0-.61,0v.45a2.42,2.42,0,0,0,1.11-.06,32.42,32.42,0,0,0,3.33.13c.09,0,0-.15.12-.16s0,.14.12.14a11.77,11.77,0,0,1,1.81.08c-.1.11-.38,0-.5.11a11.34,11.34,0,0,0-1.85,0c-.7,0-1.37-.05-2-.05-.29,0-.59,0-.81,0s-.36-.09-.55-.09-.21.07-.33.09a3,3,0,0,1-.42,0v.18a6.91,6.91,0,0,1,1.13,0A8,8,0,0,1,0,43.93v.2c.5,0,1,0,1.49,0,.65,0,1.29.07,1.91,0,.42,0,.91.08,1.33,0,.08,0,.16-.08.24-.08s.35.13.52,0a.15.15,0,0,0,0,.08c-.73,0-1.51,0-2.1,0-.16,0-.32.07-.48.06a3.53,3.53,0,0,0-.42-.06c-.09,0-.19.08-.29.09a4.6,4.6,0,0,0-.52-.06,2.2,2.2,0,0,1-.5,0c-.25,0-.52.07-.77.05a2.33,2.33,0,0,0-.31-.08H0v.71a.85.85,0,0,1,.35,0H0v.22H0c.74,0,1.46,0,2.15-.08.21,0,.42.07.64.08,1,0,2.05.07,3.1,0s2.23,0,3.33,0c1.9,0,3.56-.06,5.12.08a6.85,6.85,0,0,1-2.12,0,1.7,1.7,0,0,1-.88.09c-.76,0-1.44,0-2.09,0-.41,0-.83-.08-1.22-.08s-.59.08-.88.06c-.13,0-.27-.08-.4-.09-1.06,0-2.14.08-3.22.09-.27,0-.54-.09-.81-.09s-.75.08-1.12.09c-.54,0-1.08,0-1.61,0v.15a10.36,10.36,0,0,0,1.25-.06c1.31,0,2.59.14,3.91.08,0,0,0,0,0,.06s0,0-.07,0c-.72,0-1.5,0-2.31,0-.47,0-1-.09-1.41-.05s-.93.05-1.42.06v.15l1.61,0c.36,0,.79.05,1.19.05S3.73,45.64,4,46A2.8,2.8,0,0,1,2.8,46c-.38,0-.78,0-1.19.06S.76,46,.35,46l-.35,0v1.11a1.21,1.21,0,0,1,.68,0,4.11,4.11,0,0,1-.68,0Zm33.36-32a3,3,0,0,0-.07,1.11,16.23,16.23,0,0,0,.07,2.11,1,1,0,0,0,.1-.58c0-.91-.06-1.81-.1-2.64M22.64,8a44.68,44.68,0,0,0,0,4.91c.09-1.57.06-3.36,0-4.91m0-1.66a3.6,3.6,0,0,0,0,1.39,3.26,3.26,0,0,0,0-1.39m-.19.79c-.13-.05-.1.15-.12.27a15.77,15.77,0,0,0,0,2.32,18.26,18.26,0,0,0,.09-2.59M22.4,9.82c-.19.29-.07.78-.07,1.17a3.11,3.11,0,0,0,.05,1.12,13.34,13.34,0,0,0,0-2.29m0-3.9c0-.08,0-.12-.1-.11s0,.12.1.11m-.22,0c-.12-.2-.38-.11-.54-.11-2,0-4.4,0-6.51,0-.39,0-.76.11-1,0a2.69,2.69,0,0,1-.7.11c-.85,0-1.76,0-2.69,0-1.84,0-3.8,0-5.71,0-.46,0-.92,0-1.36,0s-.9-.06-1.33-.06-.68.1-1,.11-.65-.08-1-.08H0V6C.68,6,1.37,6,2.06,6S3.68,6,4.54,6c1.8,0,3.62,0,5.38,0,1.39,0,2.56.06,3.93,0,.11,0,.2,0,.31,0,.76,0,1.6.1,2.38.08,1.85,0,3.8,0,5.6,0,0,0,.09,0,.07-.08M20.71,9c-.12,0-.18.43,0,.51s.1-.39,0-.51m-.57-2.81c-.17,0-.33-.06-.43,0s.46.22.43,0m-1.85.08V6.17a.89.89,0,0,0-.51,0c0,.2.39.14.51.08m-1.44,0V6.22a3.56,3.56,0,0,0-1.26,0,6.65,6.65,0,0,0,1.26.06M15,6.28V6.17a4.28,4.28,0,0,0-.8,0c.1.22.57.08.8.11m-3.43,0c-.28-.1-.17.06,0,0M9.8,6.3A1,1,0,0,0,9,6.3a1.53,1.53,0,0,0,.85,0m-1.74,0c-.21-.18-.57-.07-.9-.13a1.08,1.08,0,0,0,.9.13m-2.69,0a.15.15,0,0,1,0-.08.19.19,0,0,0-.19.06c0,.1.17.1.21,0m-.5.06V6.28a4.06,4.06,0,0,0-1.16-.06c-.15,0-.38-.07-.46.08.57.1,1.07,0,1.62.06"/></g></g></svg>