<svg xmlns="http://www.w3.org/2000/svg" preserveAspectRatio="none" viewBox="0 0 35.03 8.77"><defs><style>.cls-1{fill:#623c25;}</style></defs><title>13_u</title><g id="Layer_2" data-name="Layer 2"><g id="Layer_1-2" data-name="Layer 1"><path class="cls-1" d="M17.52,7.85h0c.53.05,1.18,0,1.57,0a13.58,13.58,0,0,1-1.57,0v.22c1.17,0,2.37,0,3.68,0a2.17,2.17,0,0,1,1.11.17c-.34.26-.8.11-1.21.11h-.8c-.83,0-1.76,0-2.7,0h-.08v.31h0c4.15,0,8.68,0,13,0,1,0,2,.1,3,0,.53,0,1.06,0,1.58,0V8.54c-1.77,0-3.78-.1-5.39-.11-.38,0-.8.23-1.05,0-2,.07-4,0-6,0,0-.08,0-.07,0-.14s.29-.08.39-.08c1.82,0,4.16,0,6.06.05s4,0,6-.05V8c-1.63,0-3.27,0-4.82-.08,1.44-.09,3.14-.06,4.82,0V7.67H34.8s.14,0,.23,0V7.45c-1.94,0-4-.07-6.07,0a5.93,5.93,0,0,1-1.4-.09c-.49.28-1.26-.12-1.79.11a8,8,0,0,0-1.55,0c-.17,0-.34-.08-.52-.09-.42,0-.87.09-1.32.06-1.05-.07-2.2-.09-3.19-.11-.55,0-1.12.06-1.67.07h0Zm16.57-.21c.06.05-.15,0-.2,0S34,7.65,34.09,7.64Zm-.69,0c.13-.13.45,0,0,0Zm-3.85.24a.74.74,0,0,1-.44,0C29.24,7.8,29.35,7.9,29.55,7.91Zm-.5,0c-.29.18-.64,0-1,0A3.16,3.16,0,0,1,29.05,7.91Zm-1,0c-.2.19-.73.07-1,0C27.38,7.85,27.59,7.88,28,7.86Zm-1.48,0a4,4,0,0,1-.78,0C26,7.77,26.29,7.9,26.55,7.91Zm-1,0a.74.74,0,0,1-.51,0A.74.74,0,0,1,25.57,7.91Zm-.91,0a1,1,0,0,1-.51.08C24.22,7.75,24.46,7.89,24.66,7.86Zm-1.15,0c-.1.17-.47,0-.69.08C22.93,7.78,23.29,7.89,23.51,7.86Zm-.76,0c.06,0-.16,0-.22,0S22.69,7.87,22.75,7.86Zm-.59,0c-.12.17-.33,0-.49,0s-.2.06-.29.06-.39-.09-.61-.1A8,8,0,0,1,22.16,7.86Zm-2-.06a1.2,1.2,0,0,1-.84,0C19.58,7.81,19.85,7.8,20.2,7.8ZM3.35,3.9c.08-.15.32-.07.47-.08A4.34,4.34,0,0,1,5,3.88V4C4.45,3.9,3.94,4,3.35,3.9Zm2.19,0c0,.08-.21.08-.23,0a.21.21,0,0,1,.2-.06A.1.1,0,0,0,5.54,3.9Zm1.84-.13c.34.06.71,0,.93.13A1.14,1.14,0,0,1,7.38,3.77ZM1.88.44C1.26.47.63.49,0,.5V.1a5.71,5.71,0,0,0,1.17,0A.48.48,0,0,1,1.42,0H3.06a1.13,1.13,0,0,0,.83,0c-.16,0-.38,0-.64,0H4.7a.36.36,0,0,0,.4,0A.16.16,0,0,0,5,0h.75c0,.07.11.05.17,0a0,0,0,0,0,0,0H6c.29.16.61,0,1,.08A.49.49,0,0,0,6.76,0h.61a1.26,1.26,0,0,0-.26.06c.1,0,.4.06.47,0a.19.19,0,0,0-.1,0h3.23A.26.26,0,0,0,11,0a.05.05,0,0,0-.05,0h.15c-.06.05.16,0,.22,0s0,0,0,0h5.46a1.55,1.55,0,0,0,.33.06A2,2,0,0,0,17.41,0h.11V.35c-.3,0-.6,0-.92,0-.68.05-1.38,0-2.25,0-.25,0-.51.09-.77.09-.73,0-1.49-.09-2.25-.09-1,0-1.93.07-3,0C6.46.33,4.46.46,2.59.49,2.35.49,2.13.42,1.88.44ZM17.52,2.35c4,0,8.16.2,12.32.22.83,0,1.76,0,2.68.08-.14.25-.42.1-.59.11a4.56,4.56,0,0,1-.64,0c-.78-.08-1.74,0-2.65,0-2.07-.07-4.17,0-6.36,0-.47,0-.94-.09-1.37-.08l-3.29.05h-.1v.18c1.75,0,3.54,0,5.28.07A4.5,4.5,0,0,1,21.38,3C20.5,3,19.61,3,18.8,3,18.36,3,18,3,17.52,3h0v.22h0c1,0,2.05,0,3.19,0,.23,0,.47,0,.71,0s.46,0,.68,0c1,0,1.94-.08,2.93,0,2,0,4.1,0,6.15,0,1.27,0,2.55,0,3.82,0V3.06c-1.15,0-2.31,0-3.45-.06.24-.18.57,0,.86-.08.13,0,.24-.12.35-.14a8.66,8.66,0,0,1,1,0l1.24,0V2.37c-.88-.05-2.08.06-3.1.06-.43,0-.85-.07-1.28-.08s-.68,0-1,0-.71-.07-1.08-.08c-1.54,0-3.1.07-4.68-.11a23.57,23.57,0,0,1,3.95,0c1.71-.15,3.54,0,5.37-.05l1.83,0v-1c-.57,0-1.14,0-1.73,0-1.23,0-2.41,0-3.66,0l-2,0a16.49,16.49,0,0,0-1.86,0c-.63.08-1.27-.07-1.89,0s-1.12-.06-1.67,0-1.25,0-1.87,0c-.95,0-1.92,0-2.87-.07V2.35ZM27.85,3a22.78,22.78,0,0,1-3,0A9.35,9.35,0,0,1,23,3c2.4-.1,4.94,0,7.34,0a2.19,2.19,0,0,1,1.08,0A26.91,26.91,0,0,1,27.85,3Zm7-1.11c0,.06-.1.07-.17.08S34.73,1.85,34.82,1.86Zm-.19,0a11.51,11.51,0,0,1-1.75,0A7.28,7.28,0,0,1,34.63,1.91Zm-1.82,0c-.16.12-.49.06-.76.08C32.21,1.81,32.54,1.87,32.81,1.86Zm-13.74.3a1.32,1.32,0,0,1,.61,0A1.53,1.53,0,0,1,19.07,2.16Zm.78,0c.14-.16.3,0,.52,0A1.65,1.65,0,0,1,19.85,2.16Zm2.88.08a20.58,20.58,0,0,1-2.07-.08,5.35,5.35,0,0,1,1.33,0,6.73,6.73,0,0,1,1.86,0A3,3,0,0,1,22.73,2.24Zm8.88-.33c-.09.09-.19,0-.27,0S31.59,1.84,31.61,1.91Zm-.3,0c-.1,0-.18,0-.22,0S31.3,1.84,31.31,1.88Zm-.34,0c-.07.06-.24,0-.34,0S31,1.84,31,1.91Zm-.47,0a10.15,10.15,0,0,1-1.91,0c-.28,0-.56.1-.83.11S27,1.85,26.6,1.88A22.14,22.14,0,0,1,30.5,1.91Zm-4.09,0c.05,0-.18,0-.25,0S26.34,1.87,26.41,1.86Zm-2.19,0a12.55,12.55,0,0,1,1.84,0,13.38,13.38,0,0,1-1.91.08C24.14,1.87,24.26,2,24.22,1.86ZM17.69,1.8c1.44-.07,2.92.05,4.4.06.65,0,1.33-.06,2,0-.16.19-.48,0-.66,0-.36,0-.73.1-1.11.09s-.59-.06-.86-.09-.4.07-.59.06c-1-.05-2.15-.07-3.23-.06C17.65,1.85,17.69,1.84,17.69,1.8ZM2.12,3.57c-.71,0-1.42,0-2.12,0V3.41H.33c.34,0,.68.09,1,.08S2,3.38,2.4,3.38s.9.08,1.37.06.93,0,1.4,0c2,0,4,0,5.89,0,.95,0,1.88,0,2.77,0a2.77,2.77,0,0,0,.71-.11c.29.16.68,0,1.08,0l1.9,0,1.89,0c.41,0,.79.11,1.08,0a2.85,2.85,0,0,0,.72.11c.88,0,1.82,0,2.77,0,1.89,0,3.91,0,5.88,0,.47,0,.95,0,1.41,0s.92-.06,1.37-.06.7.1,1.06.11.66-.08,1-.08H35v.18c-.7,0-1.41,0-2.12,0s-1.67.06-2.55.06c-1.86,0-3.73,0-5.55,0-1.43,0-2.64.06-4,0-.11,0-.2-.05-.32-.05-.78,0-1.64.1-2.45.08H17c-.8,0-1.67-.13-2.45-.08-.12,0-.21.05-.32.05-1.41.06-2.62,0-4,0-1.82,0-3.68,0-5.54,0C3.8,3.63,3,3.56,2.12,3.57ZM0,6.75c1.12.11,2.5-.1,3.6.07a17.14,17.14,0,0,1,3,0c.69,0,1.39-.08,2.09-.08,2.9,0,5.87,0,8.79,0h0V6.44h0V6.16a5.21,5.21,0,0,1-.6,0c.17-.16.39-.11.6-.08V5.46h0c-.74,0-1.48,0-2.12,0s-1.42,0-2.16,0c-1.63.07-3.3,0-4.81,0-.37,0-.72.08-1,.08-.53,0-1.13-.08-1.7-.08-.76,0-1.62,0-2.4,0-.25,0-.52.06-.74.06s-.28-.08-.36-.08c-.34,0-.69.14-1,.13S.39,5.53,0,5.53v.62H1.61c1,0,2.18.08,2.95.05a.08.08,0,0,1,0,.06s0,0-.07,0c-.23-.1-.59,0-.86,0s-.44,0-.69,0-.5-.07-.76-.08a6.45,6.45,0,0,0-1.06.08A4.36,4.36,0,0,1,0,6.29v.25l.56,0c-.15,0-.37,0-.56,0Zm12.85-.26c.16,0,.3-.08.42,0A.6.6,0,0,1,12.85,6.49Zm.81,0c.11,0,.28,0,.34,0C13.89,6.5,13.73,6.57,13.66,6.44Zm2.75,0c.09,0,.24,0,.29,0S16.46,6.54,16.41,6.44Zm.46-.3a.66.66,0,0,1-.51,0A1.46,1.46,0,0,1,16.87,6.14Zm-.51.33a.43.43,0,0,1-.37,0C16.11,6.46,16.29,6.41,16.36,6.47Zm-2.23,0a6,6,0,0,1,1.74,0A16.7,16.7,0,0,1,14.13,6.49ZM13,5.81c-.08,0-.13.13-.19,0S12.94,5.75,13,5.81Zm.91.25c.22,0,.45.06.66.05.41,0,.86-.18,1.18,0-.68,0-1.58.08-2.18,0-.38,0-.75.17-1.06,0A10.66,10.66,0,0,0,13.88,6.06Zm-1.72.08c-.25,0-.41.13-.59,0A2.77,2.77,0,0,1,12.16,6.14Zm-.71,0A10.39,10.39,0,0,1,9,6.17,17.81,17.81,0,0,1,11.45,6.14Zm-2.11.41a26.78,26.78,0,0,1,3.26-.08s.07,0,.08,0c-.94,0-2.16.08-3.17.09-.15,0-.38,0-.49-.12A.61.61,0,0,1,9.34,6.55Zm-.71-.68c-.09,0-.25,0-.3,0C8.43,5.83,8.63,5.74,8.63,5.87Zm-3.07,0h.61a0,0,0,0,1,0,0s0,.06-.08,0c-.29,0-.45,0-.71,0S5.35,5.84,5.56,5.84Zm0,.33a25,25,0,0,1,3.14,0c-1.18,0-2.41,0-3.73.06C5.14,6.11,5.39,6.17,5.59,6.17Zm3.26.32v.09c-1.43,0-2.67.08-4,0C6.23,6.51,7.34,6.51,8.85,6.49ZM3.92,5.87a3.09,3.09,0,0,1,.68,0A.94.94,0,0,1,3.92,5.87Zm-1.4.68a20.39,20.39,0,0,1,2.06,0,20.74,20.74,0,0,1-2.36,0Zm-.42,0c-.41,0-.76.1-1,0A3.73,3.73,0,0,1,2.1,6.58Zm-1.35,0c.05,0,.26,0,.2,0S.69,6.6.75,6.55ZM10.1,3.9a1.64,1.64,0,0,1-.88,0A1,1,0,0,1,10.1,3.9Zm1.86,0c-.18.06-.29-.1,0,0Zm5.56,2.26c.2,0,.43-.08.59.08a5,5,0,0,1-.59,0v.28h0v.28h0c2.91,0,5.89,0,8.79,0,.69,0,1.39.09,2.08.08a17.25,17.25,0,0,1,3.05,0c1.1-.17,2.47,0,3.59-.07V6.63c-.19,0-.4,0-.55,0l.55,0V6.29a4.34,4.34,0,0,1-1.14,0,6.36,6.36,0,0,0-1.06-.08c-.25,0-.51.09-.76.08s-.44,0-.68,0-.63-.1-.86,0c0,0,0,0-.07,0a0,0,0,0,1,0-.06c.76,0,1.94-.05,2.94-.05H35V5.53c-.38,0-.77.09-1.14.09s-.7-.14-1-.13c-.08,0-.27.07-.37.08s-.48-.05-.73-.06c-.78,0-1.64,0-2.41,0-.56,0-1.16.08-1.69.08-.33,0-.68-.08-1.06-.08-1.51,0-3.18.07-4.81,0-.74,0-1.46,0-2.16,0s-1.37,0-2.11,0h0Zm16.76.44c.07,0-.14,0-.19,0S34.23,6.56,34.28,6.55Zm-.32,0c-.26.13-.62,0-1,0A3.76,3.76,0,0,1,34,6.55ZM18.33,6.47c.05-.06.2,0,.3,0C18.57,6.54,18.43,6.47,18.33,6.47Zm2.7,0c.07-.06.24,0,.35,0C21.31,6.57,21.14,6.5,21,6.47Zm.74,0c.12-.11.26,0,.41,0A.58.58,0,0,1,21.77,6.52Zm3.75.09c-1,0-2.23-.06-3.16-.09,0,0,.07,0,.07,0a26.73,26.73,0,0,1,3.26.08A.63.63,0,0,1,26,6.49C25.91,6.62,25.67,6.61,25.52,6.61Zm7-.06h.29a20.53,20.53,0,0,1-2.35,0A20.35,20.35,0,0,1,32.52,6.55Zm-1.4-.68a1,1,0,0,1-.69,0A3.18,3.18,0,0,1,31.12,5.87Zm-2.26,0h.61c.22,0,.48,0,.15,0s-.41,0-.71,0c-.06,0,0,0-.07,0S28.84,5.84,28.86,5.84Zm-2.16,0c-.05.06-.2,0-.29,0C26.41,5.74,26.61,5.83,26.7,5.84Zm2.75.33c.19,0,.44-.06.59.08-1.33,0-2.55,0-3.73-.06A25,25,0,0,1,29.45,6.17Zm-3.27.32c1.51,0,2.62,0,4,.06-1.31.11-2.55,0-4,0ZM26,6.17a10.4,10.4,0,0,1-2.43,0A17.81,17.81,0,0,1,26,6.17Zm-2.55-.06c-.18.16-.34,0-.59,0A2.77,2.77,0,0,1,23.46,6.11Zm-1.2-.27c-.07.1-.11-.06-.2,0S22.25,5.78,22.26,5.84Zm-1.77.27c.22,0,.44-.06.66-.05a10.73,10.73,0,0,0,1.4.05c-.31.2-.67,0-1.05,0-.6.08-1.5,0-2.19,0C19.63,5.93,20.09,6.09,20.49,6.11Zm.42.38a16.67,16.67,0,0,1-1.74,0A6,6,0,0,1,20.91,6.49ZM19,6.44a.43.43,0,0,1-.37,0C18.75,6.41,18.93,6.46,19,6.44Zm-.37-.33a.66.66,0,0,1-.51,0A1.48,1.48,0,0,1,18.67,6.11Zm11-2.23c0,.1-.18.1-.22,0a.15.15,0,0,0,0-.08A.21.21,0,0,1,29.72,3.88ZM17.52,6.12ZM30,4V3.88a4.39,4.39,0,0,1,1.21-.06c.14,0,.39-.07.46.08C31.1,4,30.58,3.9,30,4ZM18.43.35c-.31,0-.61,0-.91,0V0h.11A1.91,1.91,0,0,0,18,.06,1.36,1.36,0,0,0,18.29,0h5.47s-.05,0,0,0S24,.05,24,0h.15a.05.05,0,0,0-.05,0,.26.26,0,0,0,.27,0h3.23a.16.16,0,0,0-.09,0c.06.09.37.06.47,0A1.67,1.67,0,0,0,27.67,0h.61A.46.46,0,0,0,28,.08c.36-.09.69.08,1-.08h.12s0,0,0,0,.13,0,.17,0H30a.12.12,0,0,0-.09,0,.35.35,0,0,0,.39,0h1.45c-.25,0-.47,0-.64,0A1.16,1.16,0,0,0,32,0h1.63a.56.56,0,0,1,.26.11A5.61,5.61,0,0,0,35,.1V.5c-.63,0-1.26,0-1.88-.06-.24,0-.47,0-.71,0-1.86,0-3.86-.16-5.71-.11-1.09,0-2,0-3,0-.76,0-1.52.1-2.26.09-.26,0-.51-.08-.76-.09C19.82.33,19.11.4,18.43.35Zm9.23,3.42a1.15,1.15,0,0,1-.93.13C26.94,3.72,27.31,3.83,27.66,3.77ZM17.52,6.12h0ZM6.44,8.41c-.25.25-.67,0-1.05,0-1.61,0-3.62.1-5.39.11v.21c.52,0,1.05,0,1.59,0,1,.05,2-.06,2.94,0,4.31,0,8.83,0,13,0h0V8.37h-.08c-1,0-1.88,0-2.7,0h-.81c-.4,0-.87.15-1.2-.11a2.12,2.12,0,0,1,1.1-.17c1.32,0,2.52,0,3.69,0V7.89a13.71,13.71,0,0,1-1.58,0c.39-.05,1,0,1.58,0h0V7.33h0c-.56,0-1.12-.08-1.68-.07-1,0-2.14,0-3.19.11-.44,0-.89-.08-1.32-.06-.17,0-.35.09-.52.09a7.9,7.9,0,0,0-1.54,0c-.53-.23-1.31.17-1.79-.11a6,6,0,0,1-1.4.09c-2.1,0-4.14,0-6.08,0v.19c.1,0,.28,0,.24,0H0V7.9c1.68,0,3.39-.05,4.82,0C3.27,8,1.63,8,0,8v.14c2,0,4,.1,6,.05s4.24-.08,6.06-.05c.11,0,.31-.07.39.08s0,.06,0,.14C10.43,8.45,8.45,8.48,6.44,8.41Zm9.23-.58a1.17,1.17,0,0,1-.83,0C15.19,7.8,15.46,7.81,15.67,7.83Zm-1.41,0c-.21,0-.42.09-.6.1s-.2-.06-.29-.06-.38.12-.5,0A8,8,0,0,1,14.26,7.87ZM1.14,7.67s-.26,0-.19,0S1.21,7.62,1.14,7.67Zm.49,0c-.44,0-.12-.13,0,0Zm3.86.24c.19,0,.3-.11.44,0A.74.74,0,0,1,5.49,7.91Zm.49,0a3.23,3.23,0,0,1,1,0C6.63,7.9,6.28,8.09,6,7.91Zm1,0c.43,0,.65,0,1,0C7.73,7.93,7.2,8.05,7,7.86Zm1.47,0c.27,0,.59-.14.79,0A4,4,0,0,1,8.48,7.91Zm1,0a.77.77,0,0,1,.52,0A.77.77,0,0,1,9.46,7.91Zm.91,0c.21,0,.44-.11.52.08A1,1,0,0,1,10.37,7.86Zm1.15,0c.23,0,.58-.08.69.08C12,7.9,11.63,8,11.52,7.86Zm.76,0c.07,0,.29,0,.23,0S12.23,7.91,12.28,7.86Zm5.39-4V3.82a4,4,0,0,1,1.3,0A7,7,0,0,1,17.67,3.88Zm-1.61-.06a4,4,0,0,1,1.3,0v.06A7.12,7.12,0,0,1,16.06,3.82Zm-.56.06c-.24,0-.73.11-.84-.11a4.71,4.71,0,0,1,.84,0Zm10.32,0a1.68,1.68,0,0,1-.89,0A1.06,1.06,0,0,1,25.82,3.9ZM13.66,3A4.48,4.48,0,0,1,12.24,3c1.73-.06,3.53-.1,5.28-.07V2.7h-.11l-3.28-.05c-.44,0-.91.07-1.38.08-2.19,0-4.29-.07-6.35,0-.91,0-1.88,0-2.65,0a4.56,4.56,0,0,1-.64,0c-.18,0-.46.14-.59-.11.92-.09,1.84-.08,2.67-.08,4.17,0,8.3-.19,12.33-.22h0V1.08c-1,0-1.93.07-2.88.07-.62,0-1.24,0-1.86,0s-1.12,0-1.67,0-1.26.11-1.89,0a16.67,16.67,0,0,0-1.87,0l-2,0c-1.24,0-2.43,0-3.66,0-.59,0-1.15,0-1.73,0v1l1.83,0c1.84,0,3.66-.1,5.38.05a23.58,23.58,0,0,1,4,0c-1.59.18-3.15.06-4.69.11-.37,0-.72.09-1.08.08s-.67-.06-1,0-.84.08-1.27.08c-1,0-2.23-.11-3.11-.06v.42l1.24,0a8.77,8.77,0,0,1,1,0c.1,0,.21.12.34.14.29,0,.62-.1.86.08-1.14,0-2.3.08-3.45.06v.21c1.27,0,2.55,0,3.82,0,2.05,0,4.19,0,6.16,0,1,0,2,.06,2.92,0,.23,0,.45-.06.68,0s.48,0,.72,0c1.13,0,2.18,0,3.19,0h0V3h0C17.05,3,16.68,3,16.24,3,15.43,3,14.53,3,13.66,3ZM.21,1.86c.09,0,.17,0,.17.08S.23,1.92.21,1.86Zm.2,0a7.19,7.19,0,0,1,1.74,0A11.38,11.38,0,0,1,.41,1.91Zm1.81,0c.27,0,.6-.05.77.08C2.72,1.92,2.38,2,2.22,1.86Zm10.09.38a3,3,0,0,1-1.13,0,6.79,6.79,0,0,1,1.87,0,5.27,5.27,0,0,1,1.32,0A20.27,20.27,0,0,1,12.31,2.24Zm2.36-.11c.21,0,.37-.13.51,0A1.58,1.58,0,0,1,14.67,2.13Zm.68,0a1.37,1.37,0,0,1,.62,0A1.58,1.58,0,0,1,15.35,2.13ZM3.43,1.91c0-.07.22-.08.27,0S3.51,2,3.43,1.91Zm.29,0s.2,0,.22,0S3.82,1.86,3.72,1.88Zm.34,0c0-.07.33,0,.35,0S4.13,2,4.06,1.91ZM7.28,2c-.28,0-.56-.1-.84-.11a10.15,10.15,0,0,1-1.91,0,22.15,22.15,0,0,1,3.9,0C8.05,1.85,7.66,2,7.28,2Zm1.35-.13c.06,0,.3,0,.24,0S8.58,1.91,8.63,1.86Zm.34,0a12.55,12.55,0,0,1,1.84,0c0,.09.09,0,.08.08A13.45,13.45,0,0,1,9,1.86Zm2,0c.68-.06,1.36,0,2,0,1.48,0,3-.13,4.39-.06,0,0,0,.05.05.08-1.08,0-2.25,0-3.24.06-.19,0-.4-.08-.59-.06S13,2,12.7,2s-.75-.09-1.1-.09C11.42,1.89,11.09,2.05,10.93,1.86ZM10.18,3a22.93,22.93,0,0,1-3,0A26.76,26.76,0,0,1,3.6,3,2.19,2.19,0,0,1,4.68,3c2.4,0,4.93-.08,7.33,0A9.25,9.25,0,0,1,10.18,3Zm12.89.85c.29-.1.18.06,0,0Zm-3.53,0V3.77a4.6,4.6,0,0,1,.83,0C20.26,4,19.78,3.85,19.54,3.88Z"/></g></g></svg>