<?xml version="1.0" encoding="utf-8"?>
<!-- Generator: Adobe Illustrator 22.0.0, SVG Export Plug-In . SVG Version: 6.00 Build 0)  -->
<svg version="1.1" id="Слой_1" xmlns="http://www.w3.org/2000/svg" xmlns:xlink="http://www.w3.org/1999/xlink" x="0px" y="0px"
	 preserveAspectRatio="none" viewBox="0 0 6 14" style="enable-background:new 0 0 6 14;" xml:space="preserve">
<style type="text/css">
	.st0{fill:#7C6742;}
</style>
<title>19_l</title>
<g id="Layer_2">
	<g id="Layer_1-2">
		<path class="st0" d="M2.7,14c0-0.2,0-0.6,0-0.8c0-1.8,0.1-3.4,0.2-4.3c0-0.4,0.1-0.4,0.1,0c0.1,0.9,0.2,2.5,0.2,4.3V14
			C4,12.2,4,8.4,3,7C2.4,8,2.2,9.2,2.2,10.4C2.1,11.6,2.3,12.8,2.7,14"/>
		<path class="st0" d="M5.1,7C4.5,8,4.3,9.2,4.3,10.4c0,1.2,0.2,2.4,0.6,3.5c0-0.2,0-0.6,0-0.8c0-1.8,0.1-3.4,0.2-4.3
			c0-0.4,0.1-0.4,0.1,0c0.1,0.9,0.2,2.4,0.2,4.3c0,0.3,0,0.6,0,0.8C6.2,12.2,6.2,8.4,5.1,7"/>
		<path class="st0" d="M0.6,14c0-0.2,0-0.6,0-0.8c0-1.8,0.1-3.4,0.2-4.3c0-0.4,0.1-0.4,0.1,0c0.1,0.9,0.2,2.5,0.2,4.3
			c0,0.3,0,0.6,0,0.8C2,12.2,2,8.4,0.9,7C0.3,8,0,9.2,0,10.4C0,11.6,0.2,12.8,0.6,14"/>
		<path class="st0" d="M1.8,5.1C1.8,4.2,1.7,2.7,1.7,0.8V0C1.3,1.1,1.1,2.4,1.1,3.6C1.1,4.8,1.4,6,1.9,7C3,5.6,3,1.8,2.2,0
			c0,0.3,0,0.6,0,0.8C2.2,2.7,2,4.2,2,5.1C2,5.5,1.9,5.5,1.8,5.1"/>
		<path class="st0" d="M4,5.1C3.9,4.2,3.8,2.7,3.8,0.8V0C3.4,1.1,3.2,2.3,3.2,3.6C3.2,4.8,3.5,6,4,7c1.1-1.4,1.1-5.3,0.2-7
			c0,0.3,0,0.6,0,0.8c0,1.8-0.1,3.4-0.2,4.3C4.1,5.5,4,5.5,4,5.1"/>
		<path class="st0" d="M6,4.2c0-0.9-0.1-2-0.1-3.3V0C5.5,1.1,5.3,2.3,5.3,3.6c0,1.1,0.2,2.2,0.7,3.2V4.2z"/>
		<path class="st0" d="M0,0.8c0,0.7,0,1.3,0,1.9v3.9C0.8,4.5,0.8,2.2,0,0C0,0.3,0,0.6,0,0.8"/>
	</g>
</g>
</svg>
