<svg xmlns="http://www.w3.org/2000/svg" viewBox="0 0 5.36 230.67"><defs><style>.cls-1{fill:#7c6742;fill-rule:evenodd;}</style></defs><title>line_v</title><g id="Layer_2" data-name="Layer 2"><g id="Layer_1-2" data-name="Layer 1"><path class="cls-1" d="M2.2,8.5c0-.48-.08-.85-.07-1.33l0-.51,0-.22c0-.25.12-.52.36-.53h.23A1.06,1.06,0,0,1,3.05,6l.05,3.1c0,.3-.35.74-.59.75H2.44c-.38,0-.23-1-.24-1.33M0,6.69A4.34,4.34,0,0,0,1.85,10.5L2,10.21A13,13,0,0,1,.94,8.51,15.35,15.35,0,0,1,.45,6.24v-.3H.22C.05,6,0,6,0,6.17ZM.75,21c0-2.79,2-3.55,2.9-5.14A7,7,0,0,0,5,13.27a19.65,19.65,0,0,0,.31-3.63l0-3.18c0-.26,0-.59-.3-.58s-.42,1.19-.55,1.58a7.14,7.14,0,0,1-.65,1.41,23.41,23.41,0,0,1-1.85,2.37C.34,13.46,0,14,0,17.54v.37l.15,3.25H.45c.17,0,.16-.06.3-.15m3.06-4.11H3.74c-.17,0-.22.06-.22.23s.78,1.37.91,1.77a9.76,9.76,0,0,1,.42,2.2v.22h.22c.72,0-.12-2.91-.12-3.17-.36-.23-.72-1.24-1.14-1.24m-.59.31c-.78.09-.88.87-.86,1.78a11.55,11.55,0,0,0,.11,2.44c.26,0,.82,0,.81-.38ZM2.2,24c0,.37-.14,1.34.24,1.33h.07c.24,0,.59-.44.59-.75l-.05-3.1a1.06,1.06,0,0,0-.37-.06H2.45c-.24,0-.36.27-.36.52l0,.22,0,.52c0,.47.05.84.07,1.32M0,22.23a4.36,4.36,0,0,0,1.84,3.82l.15-.3a13,13,0,0,1-1.06-1.7,15,15,0,0,1-.49-2.26v-.3H.22c-.17,0-.22.06-.22.23ZM.75,36.54c0-2.79,2-3.55,2.9-5.13A7.06,7.06,0,0,0,5,28.81a19.57,19.57,0,0,0,.31-3.63l0-3.17c0-.27,0-.59-.3-.59s-.42,1.2-.55,1.59a7.42,7.42,0,0,1-.65,1.41,23.31,23.31,0,0,1-1.85,2.36C.34,29,0,29.52,0,33.09v.36L.18,36.7H.45c.17,0,.16-.06.3-.16m3.06-4.1H3.74c-.17,0-.22.05-.22.22s.78,1.38.91,1.77a10,10,0,0,1,.42,2.2v.22h.22c.72,0-.12-2.92-.12-3.17-.36-.23-.72-1.25-1.14-1.24m-.59.3c-.78.1-.88.87-.86,1.79A11.49,11.49,0,0,0,2.47,37c.26,0,.82,0,.81-.38Zm-1,6.85c0,.37-.14,1.33.24,1.33h.07c.24,0,.59-.45.59-.75l-.05-3.1A1.06,1.06,0,0,0,2.68,37H2.45c-.24,0-.36.28-.36.53l0,.22,0,.51c0,.48.05.85.07,1.33M0,37.78a4.34,4.34,0,0,0,1.84,3.81L2,41.3A13,13,0,0,1,.94,39.6a15.35,15.35,0,0,1-.49-2.27V37H.22c-.17,0-.22.05-.22.22ZM.75,52.09c0-2.79,2-3.55,2.9-5.14A7.06,7.06,0,0,0,5,44.35a19.54,19.54,0,0,0,.31-3.62l0-3.18c0-.26,0-.59-.3-.58s-.42,1.19-.55,1.58A7.14,7.14,0,0,1,3.79,40a23.41,23.41,0,0,1-1.85,2.37C.34,44.55,0,45.06,0,48.63V49l.15,3.25H.45c.17,0,.16-.06.3-.15M3.81,48H3.74c-.17,0-.22.06-.22.23s.78,1.37.91,1.77a9.76,9.76,0,0,1,.42,2.2v.22h.22c.72,0-.12-2.91-.12-3.17C4.59,49,4.23,48,3.81,48m-.59.31c-.78.09-.88.86-.86,1.78a11.55,11.55,0,0,0,.11,2.44c.26,0,.82,0,.81-.38Zm-1,6.84c0,.37-.14,1.34.24,1.33h.07c.24,0,.59-.44.59-.75l-.05-3.1a1.06,1.06,0,0,0-.37-.06H2.45c-.24,0-.36.27-.36.52l0,.22,0,.52c0,.47.05.84.07,1.32M0,53.32a4.36,4.36,0,0,0,1.84,3.82l.15-.3a13,13,0,0,1-1.06-1.7,14.82,14.82,0,0,1-.49-2.27v-.29H.22c-.17,0-.22.06-.22.23ZM.75,67.63c0-2.79,2-3.55,2.9-5.13A7.06,7.06,0,0,0,5,59.9a19.57,19.57,0,0,0,.31-3.63l0-3.17c0-.27,0-.59-.3-.59s-.42,1.2-.55,1.59a7.42,7.42,0,0,1-.65,1.41,23.31,23.31,0,0,1-1.85,2.36C.34,60.09,0,60.61,0,64.18v.36l.15,3.25H.45c.17,0,.16-.06.3-.16m3.06-4.1H3.74c-.17,0-.22,0-.22.22s.78,1.38.91,1.77a10,10,0,0,1,.42,2.2v.22h.22C5.79,67.93,5,65,5,64.77c-.36-.24-.72-1.25-1.14-1.24m-.59.3c-.78.1-.88.87-.86,1.79a11.49,11.49,0,0,0,.11,2.43c.26,0,.82,0,.81-.38Zm-1,6.85c0,.36-.14,1.33.24,1.33h.07c.24,0,.59-.45.59-.75l-.05-3.1a1.06,1.06,0,0,0-.37-.07H2.45c-.24,0-.36.28-.36.53l0,.22,0,.51c0,.48.05.84.07,1.33M0,68.87a4.34,4.34,0,0,0,1.84,3.81l.15-.3A12.92,12.92,0,0,1,.94,70.69a15.35,15.35,0,0,1-.49-2.27v-.3H.22c-.17,0-.22.05-.22.22ZM.75,83.18c0-2.79,2-3.55,2.9-5.14A7.06,7.06,0,0,0,5,75.44a19.57,19.57,0,0,0,.31-3.63l0-3.17c0-.26,0-.59-.3-.58s-.42,1.19-.55,1.58a7.14,7.14,0,0,1-.65,1.41,23.41,23.41,0,0,1-1.85,2.37C.34,75.64,0,76.15,0,79.72v.37l.15,3.25H.45c.17,0,.16-.06.3-.15m3.06-4.11H3.74c-.17,0-.22.06-.22.23s.78,1.37.91,1.76a10,10,0,0,1,.42,2.2v.23h.22c.72,0-.12-2.92-.12-3.17-.36-.23-.72-1.24-1.14-1.24m-.59.31c-.78.09-.88.86-.86,1.78a11.55,11.55,0,0,0,.11,2.44c.26,0,.82,0,.81-.39Zm-1,6.84c0,.37-.14,1.34.24,1.33h.07c.24,0,.59-.44.59-.75l-.05-3.1a1.06,1.06,0,0,0-.37-.06H2.45c-.24,0-.36.27-.36.52l0,.22,0,.52c0,.47.05.84.07,1.32M0,84.41a4.33,4.33,0,0,0,1.84,3.81L2,87.93a13,13,0,0,1-1.06-1.7A14.82,14.82,0,0,1,.45,84v-.29H.22c-.17,0-.22.06-.22.23ZM.75,98.72c0-2.79,2-3.55,2.9-5.13A7.06,7.06,0,0,0,5,91a19.65,19.65,0,0,0,.31-3.63l0-3.17c0-.27,0-.59-.3-.59s-.42,1.2-.55,1.59a7.42,7.42,0,0,1-.65,1.41A23.31,23.31,0,0,1,1.94,89C.34,91.18,0,91.7,0,95.26v.37l.15,3.25H.45c.17,0,.16-.07.3-.16m3.06-4.1H3.74c-.17,0-.22,0-.22.22s.78,1.38.91,1.77a10,10,0,0,1,.42,2.2V99h.22C5.79,99,5,96.11,5,95.86c-.36-.24-.72-1.25-1.14-1.24m-.59.3c-.78.1-.88.87-.86,1.79a11.49,11.49,0,0,0,.11,2.43c.26,0,.82,0,.81-.38Zm-1,6.85c0,.36-.14,1.33.24,1.33h.07c.24,0,.59-.44.59-.74l-.05-3.1a1.06,1.06,0,0,0-.37-.07H2.45c-.24,0-.36.28-.36.53l0,.22,0,.51c0,.47.05.84.07,1.33M0,100a4.34,4.34,0,0,0,1.84,3.81l.15-.3a12.29,12.29,0,0,1-1.06-1.69,15.35,15.35,0,0,1-.49-2.27v-.3H.22c-.17,0-.22,0-.22.22Zm.74,14.31c0-2.79,2-3.55,2.9-5.14A7.06,7.06,0,0,0,5,106.53a19.57,19.57,0,0,0,.31-3.63l0-3.17c0-.26,0-.59-.3-.58s-.42,1.19-.55,1.58a7.14,7.14,0,0,1-.65,1.41,23.41,23.41,0,0,1-1.85,2.37c-1.6,2.21-2,2.73-1.92,6.3v.37l.15,3.25H.45c.17,0,.16-.06.3-.15m3.06-4.11H3.74c-.17,0-.22.06-.22.23s.78,1.37.91,1.76a10,10,0,0,1,.42,2.2v.23h.22c.72,0-.12-2.92-.12-3.17-.36-.23-.72-1.24-1.14-1.24m-.59.31c-.78.09-.88.86-.86,1.78a11.55,11.55,0,0,0,.11,2.44c.26,0,.82,0,.81-.39Zm-1,6.84c0,.37-.14,1.34.24,1.33h.07c.24,0,.59-.44.59-.75l-.05-3.1a1.35,1.35,0,0,0-.37-.07H2.45c-.24,0-.36.27-.36.52l0,.22,0,.52c0,.47.05.84.07,1.32M0,115.5a4.33,4.33,0,0,0,1.84,3.81L2,119a13,13,0,0,1-1.06-1.7,14.82,14.82,0,0,1-.49-2.27v-.29H.22c-.17,0-.22.06-.22.23Zm.74,14.31c0-2.79,2-3.55,2.9-5.13A7.06,7.06,0,0,0,5,122.08a19.65,19.65,0,0,0,.31-3.63l0-3.17c0-.27,0-.59-.3-.59s-.42,1.2-.55,1.59a7,7,0,0,1-.65,1.4,22.35,22.35,0,0,1-1.85,2.37c-1.6,2.22-2,2.74-1.92,6.3v.37L.18,130H.45c.17,0,.16-.07.3-.16m3.06-4.1H3.74c-.17,0-.22.05-.22.22s.78,1.38.91,1.77a10,10,0,0,1,.42,2.2v.22h.22c.72,0-.12-2.92-.12-3.17-.36-.24-.72-1.25-1.14-1.24m-.59.3c-.78.1-.88.87-.86,1.79a11.49,11.49,0,0,0,.11,2.43c.26,0,.82,0,.81-.38Zm-1,6.85c0,.36-.14,1.33.24,1.33h.07c.24,0,.59-.44.59-.74l-.05-3.1a1.06,1.06,0,0,0-.37-.07H2.45c-.24,0-.36.28-.36.52l0,.23,0,.51c0,.47.05.84.07,1.33M0,131.05a4.34,4.34,0,0,0,1.84,3.81l.15-.3a13.62,13.62,0,0,1-1.06-1.69,15.35,15.35,0,0,1-.49-2.27v-.3H.22c-.17,0-.22.05-.22.22Zm.74,14.31c0-2.79,2-3.55,2.9-5.14A7.06,7.06,0,0,0,5,137.62,19.57,19.57,0,0,0,5.34,134l0-3.17c0-.26,0-.59-.3-.59s-.42,1.2-.55,1.59a7.42,7.42,0,0,1-.65,1.41,23.41,23.41,0,0,1-1.85,2.37c-1.6,2.21-2,2.73-1.92,6.3v.37l.15,3.24H.45c.17,0,.16-.06.3-.15m3.06-4.11H3.74c-.17,0-.22.06-.22.23s.78,1.37.91,1.76a10,10,0,0,1,.42,2.2v.23h.22c.72,0-.12-2.92-.12-3.17-.36-.23-.72-1.24-1.14-1.24m-.59.31c-.78.09-.88.86-.86,1.78a11.46,11.46,0,0,0,.11,2.43c.26,0,.82,0,.81-.38Zm-1,6.84c0,.37-.14,1.34.24,1.33h.07c.24,0,.59-.44.59-.75l-.05-3.1a1.35,1.35,0,0,0-.37-.07H2.45c-.24,0-.36.27-.36.52l0,.22,0,.52c0,.47.05.84.07,1.32M0,146.59a4.33,4.33,0,0,0,1.84,3.81l.15-.29a13,13,0,0,1-1.06-1.7,14.82,14.82,0,0,1-.49-2.27v-.29H.22c-.17,0-.22.06-.22.23ZM.75,160.9c0-2.79,2-3.55,2.9-5.13A7.06,7.06,0,0,0,5,153.17a19.65,19.65,0,0,0,.31-3.63l0-3.17c0-.27,0-.59-.3-.59s-.42,1.2-.55,1.59a7,7,0,0,1-.65,1.4,22.35,22.35,0,0,1-1.85,2.37c-1.6,2.22-2,2.73-1.92,6.3v.37l.15,3.25H.45c.17,0,.16-.06.3-.15m3.06-4.1H3.74c-.17,0-.22,0-.22.22s.78,1.38.91,1.77a10,10,0,0,1,.42,2.2v.22h.22c.72,0-.12-2.92-.12-3.18-.36-.23-.72-1.24-1.14-1.23m-.59.3c-.78.1-.88.87-.86,1.79a11.49,11.49,0,0,0,.11,2.43c.26,0,.82,0,.81-.38ZM2.2,164c0,.36-.14,1.33.24,1.32h.07c.24,0,.59-.44.59-.74l-.05-3.1a1.06,1.06,0,0,0-.37-.07H2.45c-.24,0-.36.28-.36.52l0,.22,0,.52c0,.47.05.84.07,1.33M0,162.14A4.34,4.34,0,0,0,1.85,166l.15-.3A13.62,13.62,0,0,1,.94,164a15.35,15.35,0,0,1-.49-2.27v-.3H.22c-.17,0-.22,0-.22.22Zm.74,14.31c0-2.79,2-3.55,2.9-5.14A7.06,7.06,0,0,0,5,168.71a19.57,19.57,0,0,0,.31-3.63l0-3.17c0-.26,0-.59-.3-.59s-.42,1.2-.55,1.59a7.42,7.42,0,0,1-.65,1.41,23.41,23.41,0,0,1-1.85,2.37C.34,168.9,0,169.42,0,173v.37l.15,3.24H.45c.17,0,.16-.06.3-.15m3.06-4.11H3.74c-.17,0-.22.06-.22.23s.78,1.37.91,1.76a10,10,0,0,1,.42,2.2v.23h.22c.72,0-.12-2.92-.12-3.17-.36-.23-.72-1.24-1.14-1.24m-.59.31c-.78.09-.88.86-.86,1.78a11.46,11.46,0,0,0,.11,2.43c.26,0,.82,0,.81-.38Zm-1,6.84c0,.37-.14,1.34.24,1.33h.07c.24,0,.59-.44.59-.75L3.05,177a1.35,1.35,0,0,0-.37-.07H2.45c-.24,0-.36.27-.36.52l0,.22,0,.52c0,.47.05.84.07,1.32M0,177.68a4.33,4.33,0,0,0,1.84,3.81L2,181.2a13,13,0,0,1-1.06-1.7,14.82,14.82,0,0,1-.49-2.27v-.29H.22c-.17,0-.22.06-.22.23ZM.75,192c0-2.79,2-3.55,2.9-5.13A7.06,7.06,0,0,0,5,184.26a19.65,19.65,0,0,0,.31-3.63l0-3.17c0-.27,0-.59-.3-.59s-.42,1.2-.55,1.59a7,7,0,0,1-.65,1.4,22.35,22.35,0,0,1-1.85,2.37C.34,184.45,0,185,0,188.53v.37l.15,3.25H.45c.17,0,.16-.06.3-.15m3.06-4.1H3.74c-.17,0-.22.05-.22.22s.78,1.38.91,1.77a9.87,9.87,0,0,1,.42,2.2v.22h.22c.72,0-.12-2.92-.12-3.18-.36-.23-.72-1.24-1.14-1.23m-.59.3c-.78.1-.88.87-.86,1.79a11.49,11.49,0,0,0,.11,2.43c.26,0,.82,0,.81-.38ZM2.2,195c0,.36-.14,1.33.24,1.32h.07c.24,0,.59-.44.59-.74l-.05-3.1a1.06,1.06,0,0,0-.37-.07H2.45c-.24,0-.36.28-.36.52l0,.22,0,.52c0,.47.05.84.07,1.33M0,193.23A4.35,4.35,0,0,0,1.85,197l.15-.3a13.62,13.62,0,0,1-1.06-1.69,15.35,15.35,0,0,1-.49-2.27v-.3H.22c-.17,0-.22,0-.22.22Zm.74,14.31c0-2.79,2-3.56,2.9-5.14A7.06,7.06,0,0,0,5,199.8a19.57,19.57,0,0,0,.31-3.63l0-3.17c0-.26,0-.59-.3-.59s-.42,1.2-.55,1.59a7.42,7.42,0,0,1-.65,1.41,22.25,22.25,0,0,1-1.85,2.36C.34,200,0,200.51,0,204.08v.37l.15,3.24H.45c.17,0,.16-.06.3-.15m3.06-4.11H3.74c-.17,0-.22.06-.22.23s.78,1.37.91,1.76a10,10,0,0,1,.42,2.2v.22h.22c.72,0-.12-2.92-.12-3.17-.36-.23-.72-1.25-1.14-1.24m-.59.3c-.78.1-.88.87-.86,1.79A11.46,11.46,0,0,0,2.47,208c.26,0,.82,0,.81-.38Zm-1,6.85c0,.37-.14,1.34.24,1.33h.07c.24,0,.59-.44.59-.75l-.05-3.1a1.35,1.35,0,0,0-.37-.07H2.45c-.24,0-.36.27-.36.52l0,.22,0,.52c0,.47.05.84.07,1.32M0,208.77a4.33,4.33,0,0,0,1.84,3.81l.15-.29a13,13,0,0,1-1.06-1.7,14.82,14.82,0,0,1-.49-2.27V208H.22c-.17,0-.22.05-.22.22Zm.74,14.31c0-2.79,2-3.55,2.9-5.14A7,7,0,0,0,5,215.35a19.65,19.65,0,0,0,.31-3.63l0-3.18c0-.26,0-.59-.3-.58s-.42,1.2-.55,1.59a7.32,7.32,0,0,1-.65,1.4,23.41,23.41,0,0,1-1.85,2.37c-1.6,2.22-2,2.73-1.92,6.3V220l.15,3.25H.45c.17,0,.16-.06.3-.15M3.81,219H3.74c-.17,0-.22.05-.22.22s.78,1.38.91,1.77a9.87,9.87,0,0,1,.42,2.2v.22h.22c.72,0-.12-2.92-.12-3.18C4.59,220,4.23,219,3.81,219m-.59.3c-.78.1-.88.87-.86,1.78a11.55,11.55,0,0,0,.11,2.44c.26,0,.82,0,.81-.38ZM1,226c-.29.18-.75.49-.74.94l0,2.81c0,.64.51.65.85.84l2.44,0h.76a1.1,1.1,0,0,0,1-1l0-2.59c0-.79-.83-1.15-1.69-1.13H2ZM1,.12C.75.3.29.61.3,1.06l0,2.81c0,.63.51.64.85.83l2.44.06h.76a1.11,1.11,0,0,0,1-1l0-2.59C5.31.34,4.49,0,3.63,0H2Z"/></g></g></svg>