<?xml version="1.0" encoding="utf-8"?>
<!-- Generator: Adobe Illustrator 22.1.0, SVG Export Plug-In . SVG Version: 6.00 Build 0)  -->
<svg version="1.1" id="Layer_1" xmlns="http://www.w3.org/2000/svg" xmlns:xlink="http://www.w3.org/1999/xlink" x="0px" y="0px"
	 viewBox="0 0 16 16" style="enable-background:new 0 0 16 16;" xml:space="preserve">
<style type="text/css">
	.st0{fill:#533625;}
</style>
<path class="st0" d="M11.1,6.8c0-1.2-0.4-2.2-1.3-3S8,2.5,6.8,2.5s-2.2,0.4-3,1.3s-1.3,1.9-1.3,3s0.4,2.2,1.3,3s1.9,1.3,3,1.3
	s2.2-0.4,3-1.3S11.1,8,11.1,6.8z M16,14.8c0,0.3-0.1,0.6-0.4,0.9c-0.2,0.2-0.5,0.4-0.9,0.4c-0.3,0-0.6-0.1-0.9-0.4l-3.3-3.3
	c-1.1,0.8-2.4,1.2-3.8,1.2c-0.9,0-1.8-0.2-2.6-0.5S2.6,12.2,2,11.6s-1.1-1.3-1.4-2.2C0.2,8.6,0,7.7,0,6.8S0.2,5,0.5,4.1S1.4,2.6,2,2
	s1.3-1.1,2.2-1.4S5.9,0,6.8,0s1.8,0.2,2.6,0.5C10.2,0.9,11,1.4,11.6,2s1.1,1.3,1.4,2.2s0.5,1.7,0.5,2.6c0,1.4-0.4,2.7-1.2,3.8
	l3.3,3.3C15.9,14.1,16,14.4,16,14.8z"/>
</svg>
